<svg width="100" height="32" viewBox="0 0 100 32" fill="none" xmlns="http://www.w3.org/2000/svg">
<path d="M95 0H31V32H95C97.7614 32 100 29.7614 100 27V5C100 2.23858 97.7614 0 95 0Z" fill="#0F1418"/>
<path d="M45.564 20V19.7L46.584 19.472V11.378L45.564 11.15V10.862H48.558C49.198 10.862 49.748 10.89 50.208 10.946C50.672 11.002 51.076 11.094 51.42 11.222C51.768 11.346 52.082 11.514 52.362 11.726C52.906 12.13 53.326 12.656 53.622 13.304C53.918 13.948 54.066 14.662 54.066 15.446C54.066 16.254 53.908 16.998 53.592 17.678C53.276 18.354 52.84 18.894 52.284 19.298C51.932 19.55 51.548 19.73 51.132 19.838C50.716 19.946 50.208 20 49.608 20H45.564ZM49.164 19.526C49.732 19.526 50.198 19.454 50.562 19.31C50.926 19.162 51.248 18.92 51.528 18.584C51.836 18.2 52.07 17.73 52.23 17.174C52.394 16.614 52.476 15.996 52.476 15.32C52.476 14.644 52.394 14.046 52.23 13.526C52.066 13.006 51.824 12.57 51.504 12.218C51.212 11.91 50.864 11.69 50.46 11.558C50.056 11.422 49.532 11.354 48.888 11.354H47.934V18.812C47.934 19.08 48.024 19.266 48.204 19.37C48.384 19.474 48.704 19.526 49.164 19.526ZM58.4046 20.126C57.7886 20.126 57.2426 19.984 56.7666 19.7C56.2906 19.412 55.9166 19.022 55.6446 18.53C55.3766 18.034 55.2426 17.476 55.2426 16.856C55.2426 16.232 55.3766 15.674 55.6446 15.182C55.9166 14.69 56.2906 14.302 56.7666 14.018C57.2426 13.73 57.7886 13.586 58.4046 13.586C59.0206 13.586 59.5646 13.73 60.0366 14.018C60.5126 14.302 60.8866 14.69 61.1586 15.182C61.4306 15.674 61.5666 16.232 61.5666 16.856C61.5666 17.476 61.4306 18.034 61.1586 18.53C60.8866 19.022 60.5126 19.412 60.0366 19.7C59.5646 19.984 59.0206 20.126 58.4046 20.126ZM58.3926 19.574C58.6846 19.574 58.9426 19.51 59.1666 19.382C59.3906 19.25 59.5786 19.064 59.7306 18.824C59.8866 18.58 60.0046 18.292 60.0846 17.96C60.1646 17.624 60.2046 17.252 60.2046 16.844C60.2046 16.44 60.1646 16.072 60.0846 15.74C60.0086 15.408 59.8946 15.122 59.7426 14.882C59.5906 14.642 59.4026 14.458 59.1786 14.33C58.9546 14.198 58.6966 14.132 58.4046 14.132C58.1126 14.132 57.8546 14.198 57.6306 14.33C57.4066 14.458 57.2186 14.642 57.0666 14.882C56.9146 15.122 56.7986 15.41 56.7186 15.746C56.6426 16.078 56.6046 16.448 56.6046 16.856C56.6046 17.264 56.6426 17.634 56.7186 17.966C56.7986 18.298 56.9146 18.584 57.0666 18.824C57.2186 19.064 57.4046 19.25 57.6246 19.382C57.8486 19.51 58.1046 19.574 58.3926 19.574ZM65.4159 20.126C64.8719 20.126 64.3879 19.994 63.9639 19.73C63.5439 19.462 63.2139 19.092 62.9739 18.62C62.7379 18.144 62.6199 17.596 62.6199 16.976C62.6199 16.32 62.7499 15.738 63.0099 15.23C63.2739 14.718 63.6359 14.316 64.0959 14.024C64.5599 13.732 65.0899 13.586 65.6859 13.586C66.1059 13.586 66.4819 13.656 66.8139 13.796C67.1459 13.932 67.4079 14.114 67.5999 14.342C67.7959 14.566 67.8939 14.812 67.8939 15.08C67.8939 15.3 67.8379 15.47 67.7259 15.59C67.6139 15.71 67.4619 15.77 67.2699 15.77C67.0619 15.77 66.9059 15.708 66.8019 15.584C66.6979 15.46 66.6299 15.266 66.5979 15.002C66.5539 14.606 66.4679 14.34 66.3399 14.204C66.2119 14.068 66.0059 14 65.7219 14C65.1539 14 64.7119 14.244 64.3959 14.732C64.0839 15.216 63.9279 15.86 63.9279 16.664C63.9279 17.472 64.0919 18.092 64.4199 18.524C64.7479 18.956 65.2139 19.172 65.8179 19.172C66.2179 19.172 66.5759 19.098 66.8919 18.95C67.2079 18.802 67.4899 18.556 67.7379 18.212L67.9779 18.35C67.7579 18.918 67.4279 19.356 66.9879 19.664C66.5479 19.972 66.0239 20.126 65.4159 20.126ZM68.6486 20V19.736L69.5666 19.55V11.216L68.6786 10.892V10.724L70.6226 10.142H70.7606V19.55L71.6666 19.736V20H68.6486ZM73.5986 20L71.1446 16.898L71.9126 15.992L74.7746 19.55L75.7706 19.736V20H73.5986ZM70.4846 17.876L70.3886 17.312L72.7346 14.678C72.8226 14.582 72.8866 14.5 72.9266 14.432C72.9706 14.36 72.9926 14.3 72.9926 14.252C72.9926 14.184 72.9326 14.13 72.8126 14.09C72.6926 14.05 72.4526 14.01 72.0926 13.97V13.706H74.8346V13.97C74.5106 14.026 74.2606 14.08 74.0846 14.132C73.9086 14.18 73.7666 14.244 73.6586 14.324C73.5546 14.4 73.4426 14.508 73.3226 14.648L70.4846 17.876ZM78.3094 20.126C77.7294 20.126 77.2194 19.994 76.7794 19.73C76.3434 19.462 76.0034 19.09 75.7594 18.614C75.5194 18.134 75.3994 17.58 75.3994 16.952C75.3994 16.284 75.5334 15.698 75.8014 15.194C76.0734 14.69 76.4514 14.296 76.9354 14.012C77.4234 13.728 77.9874 13.586 78.6274 13.586C79.4194 13.586 80.0254 13.816 80.4454 14.276C80.8694 14.736 81.0894 15.41 81.1054 16.298L81.0214 16.37H76.3714V16.022L79.7314 15.902C79.7594 15.798 79.7734 15.64 79.7734 15.428C79.7734 14.468 79.3514 13.988 78.5074 13.988C77.9274 13.988 77.4794 14.216 77.1634 14.672C76.8514 15.124 76.6954 15.766 76.6954 16.598C76.6954 18.338 77.3714 19.208 78.7234 19.208C79.6034 19.208 80.2774 18.888 80.7454 18.248L80.9674 18.386C80.7594 18.938 80.4214 19.366 79.9534 19.67C79.4894 19.974 78.9414 20.126 78.3094 20.126ZM81.9462 20V19.736L82.8462 19.55V14.66L81.9702 14.33V14.156L83.8902 13.58H84.0222V14.876L84.0702 14.936V19.55L85.3062 19.736V20H81.9462ZM83.9802 15.428L83.9562 14.936C84.2522 14.5 84.5462 14.164 84.8382 13.928C85.1342 13.692 85.4102 13.574 85.6662 13.574C85.8862 13.574 86.0722 13.65 86.2242 13.802C86.3762 13.95 86.4522 14.13 86.4522 14.342C86.4522 14.538 86.3862 14.704 86.2542 14.84C86.1222 14.972 85.9582 15.038 85.7622 15.038C85.5622 15.038 85.4062 14.964 85.2942 14.816C85.2142 14.724 85.1462 14.662 85.0902 14.63C85.0342 14.594 84.9702 14.576 84.8982 14.576C84.7822 14.576 84.6362 14.654 84.4602 14.81C84.2882 14.962 84.1282 15.168 83.9802 15.428Z" fill="white"/>
<path d="M31 0H5C2.23858 0 0 2.23858 0 5V27C0 29.7614 2.23858 32 5 32H31V0Z" fill="#2496ED"/>
<path d="M16.983 14.689H19.102C19.1512 14.689 19.1983 14.6695 19.2332 14.6349C19.268 14.6002 19.2878 14.5532 19.288 14.504V12.617C19.288 12.5677 19.2684 12.5204 19.2335 12.4855C19.1987 12.4506 19.1513 12.431 19.102 12.431H16.983C16.934 12.431 16.8869 12.4505 16.8522 12.4852C16.8175 12.5199 16.798 12.5669 16.798 12.616V14.504C16.798 14.606 16.881 14.689 16.983 14.689ZM14.029 9.259H16.147C16.1963 9.259 16.2437 9.2394 16.2785 9.20452C16.3134 9.16964 16.333 9.12233 16.333 9.073V7.185C16.3328 7.13584 16.313 7.08879 16.2782 7.05412C16.2433 7.01946 16.1962 7 16.147 7H14.029C13.98 7 13.9329 7.01949 13.8982 7.05419C13.8635 7.08888 13.844 7.13593 13.844 7.185V9.073C13.844 9.175 13.926 9.259 14.029 9.259ZM14.029 11.974H16.147C16.1963 11.9737 16.2434 11.9541 16.2782 11.9192C16.3131 11.8844 16.3328 11.8372 16.333 11.788V9.901C16.3328 9.85184 16.313 9.80479 16.2782 9.77012C16.2433 9.73546 16.1962 9.716 16.147 9.716H14.029C13.98 9.716 13.9329 9.73549 13.8982 9.77019C13.8635 9.80488 13.844 9.85193 13.844 9.901V11.788C13.844 11.89 13.926 11.973 14.029 11.974ZM11.099 11.974H13.219C13.268 11.9735 13.3148 11.9536 13.3492 11.9188C13.3837 11.884 13.403 11.837 13.403 11.788V9.901C13.403 9.85193 13.3835 9.80488 13.3488 9.77019C13.3141 9.73549 13.2671 9.716 13.218 9.716H11.1C11.051 9.716 11.0039 9.73549 10.9692 9.77019C10.9345 9.80488 10.915 9.85193 10.915 9.901V11.788C10.915 11.89 10.998 11.973 11.1 11.974M8.13602 11.974H10.255C10.3042 11.9737 10.3512 11.954 10.3859 11.9192C10.4206 11.8843 10.44 11.8372 10.44 11.788V9.901C10.44 9.85193 10.4205 9.80488 10.3858 9.77019C10.3511 9.73549 10.3041 9.716 10.255 9.716H8.13602C8.08686 9.716 8.0397 9.73546 8.00485 9.77012C7.96999 9.80479 7.95028 9.85184 7.95002 9.901V11.788C7.95002 11.89 8.03402 11.973 8.13602 11.974ZM14.029 14.689H16.147C16.1962 14.689 16.2433 14.6695 16.2782 14.6349C16.313 14.6002 16.3328 14.5532 16.333 14.504V12.617C16.333 12.5677 16.3134 12.5204 16.2785 12.4855C16.2437 12.4506 16.1963 12.431 16.147 12.431H14.029C13.98 12.431 13.9329 12.4505 13.8982 12.4852C13.8635 12.5199 13.844 12.5669 13.844 12.616V14.504C13.844 14.606 13.926 14.689 14.029 14.689ZM11.099 14.689H13.219C13.2679 14.6887 13.3147 14.6691 13.3492 14.6345C13.3837 14.5998 13.403 14.5529 13.403 14.504V12.617C13.4031 12.5927 13.3985 12.5686 13.3893 12.5461C13.3801 12.5236 13.3666 12.5032 13.3495 12.4859C13.3325 12.4686 13.3121 12.4549 13.2897 12.4455C13.2673 12.436 13.2433 12.4311 13.219 12.431H11.099C11.0501 12.4313 11.0033 12.4509 10.9688 12.4855C10.9344 12.5202 10.915 12.5671 10.915 12.616V14.504C10.915 14.606 10.998 14.689 11.1 14.689M8.13602 14.689H10.255C10.3041 14.689 10.3511 14.6695 10.3858 14.6348C10.4205 14.6001 10.44 14.5531 10.44 14.504V12.617C10.4401 12.5927 10.4355 12.5686 10.4263 12.5461C10.4171 12.5236 10.4036 12.5032 10.3865 12.4859C10.3695 12.4686 10.3491 12.4549 10.3267 12.4455C10.3043 12.436 10.2803 12.4311 10.256 12.431H8.13602C8.08669 12.431 8.03938 12.4506 8.0045 12.4855C7.96961 12.5204 7.95002 12.5677 7.95002 12.617V14.504C7.95002 14.606 8.03402 14.689 8.13602 14.689ZM5.21602 14.689H7.33602C7.38491 14.6887 7.43171 14.6691 7.46619 14.6345C7.50066 14.5998 7.52002 14.5529 7.52002 14.504V12.617C7.52015 12.5927 7.51549 12.5686 7.50632 12.5461C7.49714 12.5236 7.48363 12.5032 7.46654 12.4859C7.44945 12.4686 7.42913 12.4549 7.40674 12.4455C7.38434 12.436 7.36031 12.4311 7.33602 12.431H5.21602C5.16713 12.4313 5.12033 12.4509 5.08585 12.4855C5.05137 12.5202 5.03202 12.5671 5.03202 12.616V14.504C5.03202 14.606 5.11302 14.689 5.21602 14.689ZM26.763 13.501C26.698 13.45 26.091 12.991 24.809 12.991C24.471 12.992 24.133 13.021 23.799 13.078C23.551 11.378 22.146 10.548 22.083 10.512L21.739 10.313L21.513 10.64C21.229 11.078 21.023 11.562 20.901 12.07C20.671 13.04 20.811 13.952 21.304 14.731C20.709 15.063 19.754 15.144 19.56 15.151H3.75102C3.55253 15.1513 3.36222 15.2301 3.22168 15.3703C3.08115 15.5104 3.00181 15.7005 3.00102 15.899C2.9825 17.2838 3.21701 18.6604 3.69302 19.961C4.23802 21.389 5.04802 22.441 6.10302 23.085C7.28302 23.808 9.20302 24.222 11.378 24.222C12.361 24.225 13.341 24.136 14.308 23.956C15.6509 23.7093 16.943 23.2398 18.131 22.567C19.111 22 19.991 21.279 20.741 20.431C21.993 19.013 22.739 17.434 23.294 16.031H23.515C24.887 16.031 25.73 15.482 26.195 15.022C26.504 14.729 26.745 14.372 26.902 13.976L27 13.688L26.763 13.501Z" fill="white"/>
</svg>
