<svg width="100" height="32" viewBox="0 0 100 32" fill="none" xmlns="http://www.w3.org/2000/svg">
<path d="M95 0H31V32H95C97.7614 32 100 29.7614 100 27V5C100 2.23858 97.7614 0 95 0Z" fill="#0F1418"/>
<path d="M61.986 21.126C61.134 21.126 60.38 20.932 59.724 20.544C59.072 20.152 58.56 19.61 58.188 18.918C57.82 18.226 57.636 17.432 57.636 16.536C57.636 15.844 57.748 15.208 57.972 14.628C58.196 14.044 58.51 13.536 58.914 13.104C59.318 12.668 59.794 12.332 60.342 12.096C60.89 11.856 61.488 11.736 62.136 11.736C62.604 11.736 63.042 11.8 63.45 11.928C63.858 12.056 64.196 12.236 64.464 12.468H64.506L65.13 11.862H65.406V14.616H65.1C64.844 14.04 64.584 13.584 64.32 13.248C64.056 12.908 63.762 12.664 63.438 12.516C63.118 12.368 62.738 12.294 62.298 12.294C61.298 12.294 60.542 12.652 60.03 13.368C59.518 14.08 59.262 15.134 59.262 16.53C59.262 17.882 59.502 18.892 59.982 19.56C60.462 20.224 61.19 20.556 62.166 20.556C62.546 20.556 62.884 20.496 63.18 20.376C63.476 20.252 63.696 20.07 63.84 19.83C63.884 19.774 63.912 19.708 63.924 19.632C63.936 19.552 63.942 19.412 63.942 19.212V16.938L62.874 16.71V16.422H66.354V16.71L65.298 16.938V20.034C65.074 20.246 64.782 20.434 64.422 20.598C64.062 20.762 63.67 20.892 63.246 20.988C62.822 21.08 62.402 21.126 61.986 21.126ZM67.028 21V20.736L67.94 20.55V15.66L67.046 15.342V15.156L69.038 14.586H69.17V20.55L70.07 20.736V21H67.028ZM68.546 13.326C68.302 13.326 68.108 13.248 67.964 13.092C67.82 12.936 67.748 12.754 67.748 12.546C67.748 12.318 67.82 12.126 67.964 11.97C68.108 11.814 68.302 11.736 68.546 11.736C68.794 11.736 68.99 11.814 69.134 11.97C69.282 12.126 69.356 12.318 69.356 12.546C69.356 12.754 69.282 12.936 69.134 13.092C68.99 13.248 68.794 13.326 68.546 13.326ZM72.8262 21.126C72.3822 21.126 72.0442 21 71.8122 20.748C71.5802 20.496 71.4642 20.134 71.4642 19.662V15.15H70.6842L70.6482 14.934L72.4482 13.146L72.6822 13.17V14.706H74.3982L74.2962 15.15H72.6822V19.542C72.6822 20.198 72.9182 20.526 73.3902 20.526C73.5502 20.526 73.7082 20.484 73.8642 20.4C74.0242 20.316 74.1602 20.2 74.2722 20.052L74.4822 20.238C74.2982 20.51 74.0582 20.726 73.7622 20.886C73.4702 21.046 73.1582 21.126 72.8262 21.126Z" fill="white"/>
<path d="M31 0H5C2.23858 0 0 2.23858 0 5V27C0 29.7614 2.23858 32 5 32H31V0Z" fill="#F05032"/>
<path d="M26.546 14.9303L16.067 4.45225C15.463 3.84925 14.485 3.84925 13.879 4.45225L11.708 6.62725L14.468 9.38725C15.113 9.17225 15.847 9.31725 16.357 9.82825C16.873 10.3432 17.015 11.0862 16.795 11.7283L19.453 14.3882C20.098 14.1652 20.84 14.3102 21.353 14.8232C22.074 15.5433 22.074 16.7072 21.353 17.4272C20.634 18.1462 19.472 18.1462 18.753 17.4272C18.214 16.8862 18.079 16.0903 18.349 15.4312L15.86 12.9552V19.4802C16.036 19.5662 16.202 19.6832 16.348 19.8282C17.061 20.5492 17.061 21.7113 16.348 22.4282C15.629 23.1493 14.459 23.1493 13.739 22.4282C13.02 21.7092 13.02 20.5492 13.739 19.8302C13.921 19.6502 14.126 19.5142 14.344 19.4242V12.8352C14.127 12.7443 13.92 12.6132 13.744 12.4342C13.199 11.8892 13.068 11.0922 13.348 10.4253L10.636 7.70025L3.45 14.8812C2.85 15.4862 2.85 16.4653 3.45 17.0702L13.93 27.5473C14.534 28.1513 15.512 28.1513 16.116 27.5473L26.546 17.1172C27.151 16.5142 27.151 15.5352 26.546 14.9303Z" fill="white"/>
</svg>
