<svg width="100" height="32" viewBox="0 0 100 32" fill="none" xmlns="http://www.w3.org/2000/svg">
<path d="M95 0H31V32H95C97.7614 32 100 29.7614 100 27V5C100 2.23858 97.7614 0 95 0Z" fill="#0F1418"/>
<path d="M54.564 20V19.7L55.584 19.472V11.378L54.564 11.15V10.862H57.558C58.198 10.862 58.748 10.89 59.208 10.946C59.672 11.002 60.076 11.094 60.42 11.222C60.768 11.346 61.082 11.514 61.362 11.726C61.906 12.13 62.326 12.656 62.622 13.304C62.918 13.948 63.066 14.662 63.066 15.446C63.066 16.254 62.908 16.998 62.592 17.678C62.276 18.354 61.84 18.894 61.284 19.298C60.932 19.55 60.548 19.73 60.132 19.838C59.716 19.946 59.208 20 58.608 20H54.564ZM58.164 19.526C58.732 19.526 59.198 19.454 59.562 19.31C59.926 19.162 60.248 18.92 60.528 18.584C60.836 18.2 61.07 17.73 61.23 17.174C61.394 16.614 61.476 15.996 61.476 15.32C61.476 14.644 61.394 14.046 61.23 13.526C61.066 13.006 60.824 12.57 60.504 12.218C60.212 11.91 59.864 11.69 59.46 11.558C59.056 11.422 58.532 11.354 57.888 11.354H56.934V18.812C56.934 19.08 57.024 19.266 57.204 19.37C57.384 19.474 57.704 19.526 58.164 19.526ZM67.2846 20.126C66.9846 20.126 66.6926 20.078 66.4086 19.982C66.1246 19.882 65.8646 19.746 65.6286 19.574H65.5626L64.9566 20H64.7466V11.216L63.8646 10.892V10.724L65.8386 10.142H65.9766V14.396C66.2286 14.128 66.5086 13.926 66.8166 13.79C67.1246 13.654 67.4566 13.586 67.8126 13.586C68.3326 13.586 68.7886 13.714 69.1806 13.97C69.5726 14.222 69.8786 14.574 70.0986 15.026C70.3226 15.474 70.4346 15.996 70.4346 16.592C70.4346 17.26 70.2966 17.862 70.0206 18.398C69.7446 18.93 69.3686 19.352 68.8926 19.664C68.4166 19.972 67.8806 20.126 67.2846 20.126ZM67.2546 19.682C67.6186 19.682 67.9346 19.568 68.2026 19.34C68.4746 19.108 68.6846 18.786 68.8326 18.374C68.9846 17.958 69.0606 17.476 69.0606 16.928C69.0606 16.1 68.9006 15.45 68.5806 14.978C68.2646 14.506 67.8286 14.27 67.2726 14.27C67.0046 14.27 66.7606 14.326 66.5406 14.438C66.3206 14.55 66.1326 14.702 65.9766 14.894V18.188C65.9766 18.636 66.0926 18.998 66.3246 19.274C66.5566 19.546 66.8666 19.682 67.2546 19.682ZM76.1828 20.258L76.0208 20H71.3647L71.2508 19.676C72.2868 18.676 73.1148 17.81 73.7348 17.078C74.3588 16.342 74.8088 15.692 75.0848 15.128C75.3608 14.56 75.4988 14.028 75.4988 13.532C75.4988 12.98 75.3588 12.532 75.0788 12.188C74.8028 11.844 74.4408 11.672 73.9928 11.672C73.6048 11.672 73.2268 11.8 72.8588 12.056C72.4948 12.312 72.2028 12.644 71.9828 13.052L71.7008 12.902C71.8648 12.47 72.0888 12.092 72.3728 11.768C72.6608 11.44 72.9888 11.186 73.3568 11.006C73.7288 10.826 74.1188 10.736 74.5268 10.736C74.9868 10.736 75.3988 10.848 75.7628 11.072C76.1308 11.296 76.4208 11.6 76.6328 11.984C76.8448 12.368 76.9508 12.802 76.9508 13.286C76.9508 13.802 76.8128 14.332 76.5368 14.876C76.2608 15.42 75.8188 16.016 75.2108 16.664C74.6068 17.312 73.8068 18.046 72.8108 18.866H76.1408C76.2648 18.734 76.4168 18.536 76.5968 18.272C76.7808 18.008 76.9408 17.752 77.0768 17.504L77.3708 17.594L76.4588 20.258H76.1828Z" fill="white"/>
<path d="M31 0H5C2.23858 0 0 2.23858 0 5V27C0 29.7614 2.23858 32 5 32H31V0Z" fill="#009A2C"/>
<path d="M26.544 20.487C26.582 20.487 26.604 20.47 26.604 20.434V20.398C26.604 20.363 26.582 20.346 26.544 20.346H26.454V20.486L26.544 20.487ZM26.454 20.749H26.333V20.251H26.558C26.67 20.251 26.727 20.317 26.727 20.408C26.727 20.487 26.691 20.537 26.637 20.558L26.748 20.748H26.615L26.523 20.578H26.453L26.454 20.749ZM26.888 20.527V20.465C26.888 20.265 26.731 20.108 26.525 20.108C26.4775 20.1069 26.4304 20.1154 26.3862 20.1329C26.3421 20.1504 26.3019 20.1765 26.2681 20.2098C26.2342 20.2431 26.2074 20.2828 26.1892 20.3267C26.171 20.3705 26.1617 20.4175 26.162 20.465V20.527C26.162 20.727 26.318 20.885 26.525 20.885C26.5725 20.8861 26.6198 20.8776 26.664 20.86C26.7082 20.8425 26.7484 20.8162 26.7823 20.7828C26.8161 20.7495 26.843 20.7096 26.8611 20.6657C26.8793 20.6217 26.8884 20.5746 26.888 20.527ZM26.05 20.497C26.05 20.217 26.262 20.005 26.525 20.005C26.789 20.005 27 20.218 27 20.496C27 20.775 26.789 20.987 26.525 20.987C26.4614 20.9868 26.3985 20.9738 26.34 20.9489C26.2815 20.924 26.2286 20.8877 26.1843 20.842C26.1401 20.7964 26.1054 20.7423 26.0823 20.6831C26.0593 20.6238 26.0483 20.5606 26.05 20.497ZM19.21 12.624L18.994 12H15.434V12.624H19.21ZM19.623 13.814L19.407 13.191H15.434V13.815L19.623 13.814ZM22.273 20.961H25.38V20.337H22.272L22.273 20.961ZM22.273 19.769H25.38V19.146H22.272L22.273 19.769ZM22.273 18.579H24.137V17.955H22.272L22.273 18.579ZM22.273 17.388H24.137V16.764H22.272L22.273 17.388ZM22.273 16.197H24.137V15.573H20.582L20.407 16.077L20.232 15.573H16.677V16.197H18.542V15.623L18.742 16.197H22.072L22.272 15.623L22.273 16.197ZM24.137 14.382H20.995L20.778 15.006H24.137V14.382ZM16.677 17.388H18.542V16.764H16.677V17.388ZM16.677 18.578H18.542V17.955H16.677V18.578ZM15.434 19.769H18.542V19.146H15.434V19.769ZM15.434 20.961H18.542V20.337H15.434V20.961ZM21.82 12L21.604 12.624H25.38V12H21.82ZM21.191 13.815H25.381V13.191H21.407L21.191 13.815ZM16.677 15.005H20.036L19.82 14.382H16.677V15.005ZM19.159 17.388H21.655L21.873 16.764H18.941L19.159 17.388ZM19.576 18.578H21.238L21.456 17.955H19.358L19.576 18.578ZM19.992 19.769H20.822L21.04 19.146H19.774L19.992 19.769ZM20.406 20.961L20.623 20.337H20.191L20.406 20.961ZM7.973 20.955L12.551 20.961C13.173 20.961 13.731 20.724 14.153 20.337H7.973V20.955ZM12.833 17.955V18.579H14.925C14.925 18.363 14.895 18.154 14.842 17.955H12.833ZM9.217 18.579H11.082V17.955H9.217V18.579ZM12.834 15.006H14.842C14.895 14.807 14.925 14.598 14.925 14.382H12.834V15.006ZM9.217 15.006H11.082V14.382H9.217V15.006ZM12.55 12.001H7.973V12.625H14.153C13.7165 12.223 13.1435 12.0002 12.55 12.001ZM14.606 13.192H7.973V13.816H14.857C14.8036 13.5972 14.7194 13.3871 14.607 13.192H14.606ZM9.216 15.574V16.198H14.086C14.293 16.022 14.468 15.811 14.605 15.574H9.216ZM14.086 16.765H9.216V17.389H14.605C14.4688 17.1529 14.2933 16.9419 14.086 16.765ZM7.972 19.771H14.606C14.716 19.578 14.802 19.369 14.856 19.147H7.973L7.972 19.771ZM3 12.624H7.352V12H3V12.624ZM3 13.815H7.352V13.191H3V13.815ZM4.243 15.006H6.108V14.382H4.243V15.006ZM4.243 16.197H6.108V15.573H4.243V16.197ZM4.243 17.387H6.108V16.764H4.243V17.387ZM4.243 18.579H6.108V17.955H4.243V18.579ZM3 19.77H7.352V19.147H3V19.77ZM3 20.962H7.352V20.338H3V20.962Z" fill="white"/>
</svg>
