<svg width="100" height="32" viewBox="0 0 100 32" fill="none" xmlns="http://www.w3.org/2000/svg">
<path d="M95 0H31V32H95C97.7614 32 100 29.7614 100 27V5C100 2.23858 97.7614 0 95 0Z" fill="#0F1418"/>
<path d="M42.564 20V19.712L43.584 19.472V11.378L42.564 11.15V10.862H49.26L49.47 13.472H49.152C49.06 13.136 48.944 12.784 48.804 12.416C48.668 12.044 48.5 11.69 48.3 11.354H44.934V19.472L46.284 19.712V20H42.564ZM47.43 16.844C47.35 16.356 47.202 15.884 46.986 15.428H44.772V14.93H46.986C47.098 14.694 47.188 14.458 47.256 14.222C47.328 13.982 47.386 13.746 47.43 13.514H47.736V16.844H47.43ZM50.1295 20V19.736L51.0415 19.55V14.66L50.1475 14.342V14.156L52.1395 13.586H52.2715V19.55L53.1715 19.736V20H50.1295ZM51.6475 12.326C51.4035 12.326 51.2095 12.248 51.0655 12.092C50.9215 11.936 50.8495 11.754 50.8495 11.546C50.8495 11.318 50.9215 11.126 51.0655 10.97C51.2095 10.814 51.4035 10.736 51.6475 10.736C51.8955 10.736 52.0915 10.814 52.2355 10.97C52.3835 11.126 52.4575 11.318 52.4575 11.546C52.4575 11.754 52.3835 11.936 52.2355 12.092C52.0915 12.248 51.8955 12.326 51.6475 12.326ZM53.7978 20V19.736L54.6978 19.55V14.66L53.8218 14.33V14.156L55.7418 13.58H55.8738V14.876L55.9218 14.936V19.55L57.1578 19.736V20H53.7978ZM55.8318 15.428L55.8078 14.936C56.1038 14.5 56.3978 14.164 56.6898 13.928C56.9858 13.692 57.2618 13.574 57.5178 13.574C57.7378 13.574 57.9238 13.65 58.0758 13.802C58.2278 13.95 58.3038 14.13 58.3038 14.342C58.3038 14.538 58.2378 14.704 58.1058 14.84C57.9738 14.972 57.8098 15.038 57.6138 15.038C57.4138 15.038 57.2578 14.964 57.1458 14.816C57.0658 14.724 56.9978 14.662 56.9418 14.63C56.8858 14.594 56.8218 14.576 56.7498 14.576C56.6338 14.576 56.4878 14.654 56.3118 14.81C56.1398 14.962 55.9798 15.168 55.8318 15.428ZM61.7742 20.126C61.1942 20.126 60.6842 19.994 60.2442 19.73C59.8082 19.462 59.4682 19.09 59.2242 18.614C58.9842 18.134 58.8642 17.58 58.8642 16.952C58.8642 16.284 58.9982 15.698 59.2662 15.194C59.5382 14.69 59.9162 14.296 60.4002 14.012C60.8882 13.728 61.4522 13.586 62.0922 13.586C62.8842 13.586 63.4902 13.816 63.9102 14.276C64.3342 14.736 64.5542 15.41 64.5702 16.298L64.4862 16.37H59.8362V16.022L63.1962 15.902C63.2242 15.798 63.2382 15.64 63.2382 15.428C63.2382 14.468 62.8162 13.988 61.9722 13.988C61.3922 13.988 60.9442 14.216 60.6282 14.672C60.3162 15.124 60.1602 15.766 60.1602 16.598C60.1602 18.338 60.8362 19.208 62.1882 19.208C63.0682 19.208 63.7422 18.888 64.2102 18.248L64.4322 18.386C64.2242 18.938 63.8862 19.366 63.4182 19.67C62.9542 19.974 62.4062 20.126 61.7742 20.126ZM68.5971 20.126C68.2971 20.126 68.0051 20.078 67.7211 19.982C67.4371 19.882 67.1771 19.746 66.9411 19.574H66.8751L66.2691 20H66.0591V11.216L65.1771 10.892V10.724L67.1511 10.142H67.2891V14.396C67.5411 14.128 67.8211 13.926 68.1291 13.79C68.4371 13.654 68.7691 13.586 69.1251 13.586C69.6451 13.586 70.1011 13.714 70.4931 13.97C70.8851 14.222 71.1911 14.574 71.4111 15.026C71.6351 15.474 71.7471 15.996 71.7471 16.592C71.7471 17.26 71.6091 17.862 71.3331 18.398C71.0571 18.93 70.6811 19.352 70.2051 19.664C69.7291 19.972 69.1931 20.126 68.5971 20.126ZM68.5671 19.682C68.9311 19.682 69.2471 19.568 69.5151 19.34C69.7871 19.108 69.9971 18.786 70.1451 18.374C70.2971 17.958 70.3731 17.476 70.3731 16.928C70.3731 16.1 70.2131 15.45 69.8931 14.978C69.5771 14.506 69.1411 14.27 68.5851 14.27C68.3171 14.27 68.0731 14.326 67.8531 14.438C67.6331 14.55 67.4451 14.702 67.2891 14.894V18.188C67.2891 18.636 67.4051 18.998 67.6371 19.274C67.8691 19.546 68.1791 19.682 68.5671 19.682ZM72.6413 20V19.736L73.5533 19.55V14.66L72.6593 14.342V14.156L74.6513 13.586H74.7833V19.55L75.6833 19.736V20H72.6413ZM74.1593 12.326C73.9153 12.326 73.7213 12.248 73.5773 12.092C73.4333 11.936 73.3613 11.754 73.3613 11.546C73.3613 11.318 73.4333 11.126 73.5773 10.97C73.7213 10.814 73.9153 10.736 74.1593 10.736C74.4073 10.736 74.6033 10.814 74.7473 10.97C74.8953 11.126 74.9693 11.318 74.9693 11.546C74.9693 11.754 74.8953 11.936 74.7473 12.092C74.6033 12.248 74.4073 12.326 74.1593 12.326ZM76.3095 20V19.736L77.2095 19.55V14.66L76.3335 14.33V14.156L78.2535 13.58H78.3855V14.876L78.4335 14.936V19.55L79.6695 19.736V20H76.3095ZM78.3435 15.428L78.3195 14.936C78.6155 14.5 78.9095 14.164 79.2015 13.928C79.4975 13.692 79.7735 13.574 80.0295 13.574C80.2495 13.574 80.4355 13.65 80.5875 13.802C80.7395 13.95 80.8155 14.13 80.8155 14.342C80.8155 14.538 80.7495 14.704 80.6175 14.84C80.4855 14.972 80.3215 15.038 80.1255 15.038C79.9255 15.038 79.7695 14.964 79.6575 14.816C79.5775 14.724 79.5095 14.662 79.4535 14.63C79.3975 14.594 79.3335 14.576 79.2615 14.576C79.1455 14.576 78.9995 14.654 78.8235 14.81C78.6515 14.962 78.4915 15.168 78.3435 15.428ZM83.8719 20.126C83.3999 20.126 82.9759 19.988 82.5999 19.712C82.2239 19.436 81.9259 19.06 81.7059 18.584C81.4899 18.104 81.3819 17.562 81.3819 16.958C81.3819 16.294 81.5139 15.71 81.7779 15.206C82.0419 14.698 82.4099 14.302 82.8819 14.018C83.3539 13.73 83.8999 13.586 84.5199 13.586C84.9599 13.586 85.3919 13.652 85.8159 13.784V11.234L84.9279 10.892V10.724L86.8899 10.142H87.0279V19.046L87.8499 19.232V19.376L85.9959 20.126H85.8999V19.136L85.8459 19.118C85.5979 19.45 85.3039 19.702 84.9639 19.874C84.6279 20.042 84.2639 20.126 83.8719 20.126ZM84.3999 19.334C84.6959 19.334 84.9699 19.272 85.2219 19.148C85.4779 19.024 85.6759 18.856 85.8159 18.644V15.308C85.8159 14.88 85.7039 14.552 85.4799 14.324C85.2599 14.096 84.9419 13.982 84.5259 13.982C83.9899 13.982 83.5559 14.236 83.2239 14.744C82.8959 15.252 82.7319 15.926 82.7319 16.766C82.7319 17.558 82.8799 18.184 83.1759 18.644C83.4719 19.104 83.8799 19.334 84.3999 19.334Z" fill="white"/>
<path d="M31 0H5C2.23858 0 0 2.23858 0 5V27C0 29.7614 2.23858 32 5 32H31V0Z" fill="#F40C0C"/>
<g clip-path="url(#clip0_4_4)">
<path fill-rule="evenodd" clip-rule="evenodd" d="M9.17875 22.6429C9.40506 24.4373 10.3803 25.7894 11.8731 27.1163L11.3352 26.845C7.093 25.0204 4.1275 20.8032 4.1275 15.8974C4.12769 9.66475 8.93762 4.48244 15.1604 4.02006C8.03294 5.42744 1.20194 13.6606 9.17875 22.6429Z" fill="white"/>
<path fill-rule="evenodd" clip-rule="evenodd" d="M25.4494 12.1026C24.9115 8.24725 21.9511 5.54819 16.5576 4C22.921 4.28144 27.9424 9.529 27.9424 15.8974C27.9424 22.477 22.9864 27.5637 16.5477 27.8552C15.9394 27.8854 15.3312 27.7799 14.7381 27.5939V14.1734C14.9341 13.8769 14.9341 13.5803 14.7381 13.2837V10.4288H15.3966C15.1401 10.2578 14.9241 10.1271 14.7381 10.0467V9.22244C18.1913 10.5392 19.7946 10.6902 19.5533 9.65969C19.855 10.5091 19.5936 10.8963 18.7692 10.8109C17.8193 10.6651 17.2311 10.7303 16.9999 11.0118C18.7039 11.8562 19.6138 12.6756 19.7294 13.4699C19.8901 14.8068 19.2569 16.2796 17.8292 17.893C16.9296 19.0139 17.3971 20.2051 18.8496 20.3961C23.3584 20.1749 25.5599 17.4055 25.4494 12.1026ZM14.7381 27.5939C13.3609 27.1667 12.1244 26.3071 11.5212 25.7089C10.4556 24.6033 9.73187 22.8338 9.46544 20.2804C9.46544 20.2654 9.46037 20.2504 9.46037 20.2352V19.3709C9.62631 17.32 10.9934 15.8774 13.5721 15.0481C14.1552 14.7616 14.5471 14.47 14.7381 14.1734V27.5939ZM14.7381 13.2837C14.6575 13.1528 14.5319 13.0223 14.3763 12.8868C14.2356 12.7459 13.9338 12.6051 13.4764 12.4696C12.4309 12.4394 11.863 12.7008 11.7724 13.2586C9.99812 12.4696 9.94806 11.5698 11.6168 10.5646C11.9434 10.4389 12.421 10.3936 13.0542 10.4187C12.7928 9.26256 13.2351 8.81537 14.3862 9.08669C14.5069 9.13188 14.6224 9.17725 14.7381 9.22244V10.0467C14.2103 9.8005 14.0043 9.92612 14.1149 10.4288H14.7381V13.2837Z" fill="white"/>
<path fill-rule="evenodd" clip-rule="evenodd" d="M9.109 22.7824C9.33531 24.5768 10.3103 25.9291 11.8034 27.2562L11.2653 26.9845C7.02325 25.1601 4.05775 20.9429 4.05775 16.0371C4.05775 9.80444 8.86787 4.62213 15.0904 4.15975C7.963 5.56713 1.13219 13.8004 9.10919 22.7824" fill="white"/>
<path fill-rule="evenodd" clip-rule="evenodd" d="M25.3795 12.2421C24.8418 8.38694 21.8811 5.68769 16.4879 4.13969C22.8513 4.42094 27.8727 9.66869 27.8727 16.0371C27.8727 22.6165 22.9167 27.7034 16.4777 27.9949C15.8695 28.0249 15.2614 27.9196 14.6684 27.7336V14.3131C14.8644 14.0164 14.8644 13.7199 14.6684 13.4234V10.5683H15.3267C15.0704 10.3975 14.8542 10.2668 14.6684 10.1864V9.36212C18.1214 10.6789 19.7249 10.8297 19.4836 9.79937C19.7851 10.6487 19.5239 11.0357 18.6994 10.9504C17.7494 10.8046 17.1614 10.8698 16.9302 11.1514C18.6341 11.9959 19.5438 12.8152 19.6594 13.6094C19.8203 14.9462 19.1869 16.4191 17.7595 18.0325C16.8599 19.1534 17.3273 20.3447 18.7799 20.5356C23.2885 20.3146 25.4901 17.545 25.3795 12.2421ZM14.6684 27.7336C13.291 27.3064 12.0546 26.4467 11.4514 25.8486C10.3859 24.7427 9.66194 22.9735 9.39569 20.4201C9.39569 20.4051 9.39062 20.3901 9.39062 20.3749V19.5104C9.55638 17.4595 10.9236 16.0171 13.5021 15.1876C14.0853 14.9011 14.4771 14.6097 14.6684 14.3131V27.7336ZM14.6684 13.4234C14.5877 13.2927 14.4621 13.162 14.3065 13.0262C14.1657 12.8856 13.864 12.7448 13.4065 12.6091C12.3612 12.5791 11.7933 12.8402 11.7027 13.3982C9.92838 12.6091 9.87812 11.7094 11.5471 10.7041C11.8737 10.5784 12.3511 10.5332 12.9844 10.5584C12.7231 9.40225 13.1654 8.95487 14.3164 9.22637C14.437 9.27156 14.5527 9.31675 14.6684 9.36212V10.1864C14.1406 9.94 13.9345 10.0658 14.0449 10.5683H14.6684V13.4234Z" fill="white"/>
</g>
<defs>
<clipPath id="clip0_4_4">
<rect width="24" height="24" fill="white" transform="translate(4 4)"/>
</clipPath>
</defs>
</svg>
