<svg width="100" height="32" viewBox="0 0 100 32" fill="none" xmlns="http://www.w3.org/2000/svg">
<path d="M95 0H31V32H95C97.7614 32 100 29.7614 100 27V5C100 2.23858 97.7614 0 95 0Z" fill="#0F1418"/>
<path d="M40.528 20V19.712L41.596 19.472V11.378L40.528 11.15V10.862H43.996V11.15L42.946 11.378V19.472L43.996 19.712V20H40.528ZM48.7954 20V19.736L49.6714 19.562V15.71C49.6714 15.234 49.5754 14.88 49.3834 14.648C49.1914 14.412 48.8814 14.294 48.4534 14.294C47.8254 14.294 47.3034 14.58 46.8874 15.152V14.654C47.2234 14.318 47.5914 14.056 47.9914 13.868C48.3914 13.68 48.7894 13.586 49.1854 13.586C50.3254 13.586 50.8954 14.124 50.8954 15.2V19.562L51.7834 19.736V20H48.7954ZM44.8894 20V19.736L45.7894 19.55V14.672L44.9014 14.342V14.168L46.8214 13.586H46.9534V14.648L47.0134 14.708V19.55L47.8954 19.736V20H44.8894ZM52.4492 20V19.754L53.3612 19.562V13.874C53.3612 13.442 53.3652 13.086 53.3732 12.806C53.3852 12.522 53.4032 12.288 53.4272 12.104C53.4552 11.916 53.4932 11.752 53.5412 11.612C53.6492 11.316 53.8232 11.058 54.0632 10.838C54.3032 10.618 54.5832 10.448 54.9032 10.328C55.2272 10.204 55.5632 10.142 55.9112 10.142C56.3632 10.142 56.7432 10.24 57.0512 10.436C57.3592 10.628 57.5132 10.876 57.5132 11.18C57.5132 11.356 57.4572 11.502 57.3452 11.618C57.2332 11.73 57.0852 11.786 56.9012 11.786C56.7052 11.786 56.5632 11.722 56.4752 11.594C56.3872 11.462 56.3252 11.316 56.2892 11.156C56.2412 10.944 56.1752 10.79 56.0912 10.694C56.0112 10.598 55.8772 10.55 55.6892 10.55C55.5092 10.55 55.3412 10.594 55.1852 10.682C55.0332 10.766 54.9112 10.912 54.8192 11.12C54.7432 11.3 54.6852 11.544 54.6452 11.852C54.6052 12.156 54.5852 12.556 54.5852 13.052V19.562L55.8692 19.754V20H52.4492ZM52.2932 14.114L52.4432 13.706H56.1272L55.9832 14.114H52.2932ZM59.8616 20.126C59.2456 20.126 58.6996 19.984 58.2236 19.7C57.7476 19.412 57.3736 19.022 57.1016 18.53C56.8336 18.034 56.6996 17.476 56.6996 16.856C56.6996 16.232 56.8336 15.674 57.1016 15.182C57.3736 14.69 57.7476 14.302 58.2236 14.018C58.6996 13.73 59.2456 13.586 59.8616 13.586C60.4776 13.586 61.0216 13.73 61.4936 14.018C61.9696 14.302 62.3436 14.69 62.6156 15.182C62.8876 15.674 63.0236 16.232 63.0236 16.856C63.0236 17.476 62.8876 18.034 62.6156 18.53C62.3436 19.022 61.9696 19.412 61.4936 19.7C61.0216 19.984 60.4776 20.126 59.8616 20.126ZM59.8496 19.574C60.1416 19.574 60.3996 19.51 60.6236 19.382C60.8476 19.25 61.0356 19.064 61.1876 18.824C61.3436 18.58 61.4616 18.292 61.5416 17.96C61.6216 17.624 61.6616 17.252 61.6616 16.844C61.6616 16.44 61.6216 16.072 61.5416 15.74C61.4656 15.408 61.3516 15.122 61.1996 14.882C61.0476 14.642 60.8596 14.458 60.6356 14.33C60.4116 14.198 60.1536 14.132 59.8616 14.132C59.5696 14.132 59.3116 14.198 59.0876 14.33C58.8636 14.458 58.6756 14.642 58.5236 14.882C58.3716 15.122 58.2556 15.41 58.1756 15.746C58.0996 16.078 58.0616 16.448 58.0616 16.856C58.0616 17.264 58.0996 17.634 58.1756 17.966C58.2556 18.298 58.3716 18.584 58.5236 18.824C58.6756 19.064 58.8616 19.25 59.0816 19.382C59.3056 19.51 59.5616 19.574 59.8496 19.574ZM63.915 20V19.736L64.815 19.55V14.66L63.939 14.33V14.156L65.859 13.58H65.991V14.876L66.039 14.936V19.55L67.275 19.736V20H63.915ZM65.949 15.428L65.925 14.936C66.221 14.5 66.515 14.164 66.807 13.928C67.103 13.692 67.379 13.574 67.635 13.574C67.855 13.574 68.041 13.65 68.193 13.802C68.345 13.95 68.421 14.13 68.421 14.342C68.421 14.538 68.355 14.704 68.223 14.84C68.091 14.972 67.927 15.038 67.731 15.038C67.531 15.038 67.375 14.964 67.263 14.816C67.183 14.724 67.115 14.662 67.059 14.63C67.003 14.594 66.939 14.576 66.867 14.576C66.751 14.576 66.605 14.654 66.429 14.81C66.257 14.962 66.097 15.168 65.949 15.428ZM68.9598 20V19.736L69.8538 19.55V14.672L68.9718 14.342V14.168L70.8678 13.586H71.0238V14.624L71.0838 14.684V19.55L71.9658 19.736V20H68.9598ZM72.7518 20V19.736L73.6398 19.562V15.896C73.6398 15.328 73.5498 14.92 73.3698 14.672C73.1938 14.42 72.9098 14.294 72.5178 14.294C72.2138 14.294 71.9238 14.37 71.6478 14.522C71.3758 14.67 71.1378 14.884 70.9338 15.164V14.66C71.2698 14.32 71.6398 14.056 72.0438 13.868C72.4518 13.68 72.8518 13.586 73.2438 13.586C73.7918 13.586 74.1978 13.73 74.4618 14.018C74.7258 14.302 74.8578 14.746 74.8578 15.35V19.562L75.7458 19.736V20H72.7518ZM76.5318 20V19.736L77.4138 19.562V15.86C77.4138 15.292 77.3278 14.89 77.1558 14.654C76.9878 14.414 76.7018 14.294 76.2978 14.294C75.9738 14.294 75.6778 14.37 75.4098 14.522C75.1458 14.67 74.9138 14.884 74.7138 15.164V14.66C75.0218 14.304 75.3838 14.036 75.7998 13.856C76.2158 13.676 76.6358 13.586 77.0598 13.586C77.5958 13.586 77.9878 13.732 78.2358 14.024C78.4838 14.316 78.6158 14.776 78.6318 15.404V19.562L79.5198 19.736V20H76.5318ZM80.1217 20V19.736L81.0337 19.55V14.66L80.1397 14.342V14.156L82.1317 13.586H82.2637V19.55L83.1637 19.736V20H80.1217ZM81.6397 12.326C81.3957 12.326 81.2017 12.248 81.0577 12.092C80.9137 11.936 80.8417 11.754 80.8417 11.546C80.8417 11.318 80.9137 11.126 81.0577 10.97C81.2017 10.814 81.3957 10.736 81.6397 10.736C81.8877 10.736 82.0837 10.814 82.2277 10.97C82.3757 11.126 82.4497 11.318 82.4497 11.546C82.4497 11.754 82.3757 11.936 82.2277 12.092C82.0837 12.248 81.8877 12.326 81.6397 12.326ZM87.33 20V19.736C87.73 19.704 87.958 19.652 88.014 19.58C88.074 19.508 88.02 19.348 87.852 19.1L84.78 14.48C84.668 14.316 84.54 14.202 84.396 14.138C84.252 14.07 84.014 14.014 83.682 13.97V13.706H86.79V13.97C86.446 13.994 86.242 14.048 86.178 14.132C86.118 14.216 86.168 14.374 86.328 14.606L89.4 19.226C89.512 19.386 89.634 19.504 89.766 19.58C89.902 19.656 90.116 19.708 90.408 19.736V20H87.33ZM83.424 20V19.736C83.828 19.68 84.142 19.59 84.366 19.466C84.59 19.342 84.8 19.152 84.996 18.896L86.646 16.688L87.078 16.91L85.542 18.878C85.342 19.138 85.284 19.334 85.368 19.466C85.456 19.594 85.704 19.684 86.112 19.736V20H83.424ZM87.222 16.73L86.79 16.58L88.176 14.828C88.376 14.568 88.44 14.376 88.368 14.252C88.296 14.128 88.072 14.034 87.696 13.97V13.706H90.204V13.97C89.948 14.018 89.74 14.072 89.58 14.132C89.424 14.192 89.288 14.272 89.172 14.372C89.056 14.468 88.928 14.602 88.788 14.774L87.222 16.73Z" fill="white"/>
<path d="M31 0H5C2.23858 0 0 2.23858 0 5V27C0 29.7614 2.23858 32 5 32H31V0Z" fill="#3D62A9"/>
<path d="M23.362 14.2238C23.6519 14.2238 23.8869 13.9498 23.8869 13.6119C23.8869 13.274 23.6519 13 23.362 13C23.0722 13 22.8372 13.274 22.8372 13.6119C22.8372 13.9498 23.0722 14.2238 23.362 14.2238Z" fill="white"/>
<path d="M23.3755 15.8336L22.6944 17.9C22.6624 17.9967 22.6135 18.1428 22.5977 18.2351C22.5734 18.3764 22.6455 18.3894 22.7394 18.3428C22.9789 18.2236 23.2743 17.7287 23.3994 17.5311L23.514 17.6097C23.2475 18.1586 22.7558 19.0007 22.1498 19.0001C21.8867 18.9998 21.7261 18.7781 21.712 18.4963C21.699 18.2364 21.7732 18.0027 21.8406 17.7979L22.486 15.841C22.5178 15.7441 22.5667 15.598 22.5825 15.5056C22.6068 15.3643 22.5347 15.3513 22.441 15.3979C22.2013 15.5173 21.9059 16.012 21.7806 16.2097L21.6662 16.131C21.9329 15.5821 22.4245 14.7402 23.0304 14.7407C23.3033 14.7409 23.4312 14.8703 23.4722 15.1018C23.5038 15.2819 23.4723 15.5091 23.3755 15.8336Z" fill="white"/>
<path d="M16.6095 15.8317C16.4706 15.7624 16.3151 15.7091 16.0647 15.7091C15.521 15.7091 15.2342 16.2421 15.2342 16.8252V18.9102H14.381V14.837H15.2342V15.2959C15.4184 14.9491 15.7704 14.7893 16.029 14.7672C16.3012 14.7442 16.4518 14.8036 16.6095 14.874V15.8317" fill="white"/>
<path d="M3 13.0798H3.88167V18.9103H3V13.0798Z" fill="white"/>
<path d="M10.36 15.7H9.42455V18.91H8.57172V15.7H8.12866V14.8369H8.57172V14.5076C8.57172 13.6477 9.08916 13.0809 9.9234 13.0809H10.36V13.9442H10.1225C9.55211 13.9442 9.42455 14.1998 9.42455 14.7502V14.8369H10.36V15.7Z" fill="white"/>
<path d="M13.8575 16.858C13.8575 18.0574 13.2244 18.9836 12.1444 18.9836C11.0649 18.9836 10.4313 18.055 10.4313 16.858C10.4313 15.6465 11.0629 14.771 12.1444 14.771C13.2224 14.771 13.8575 15.6504 13.8575 16.858ZM13.0136 16.8643C13.0136 16.2127 12.7805 15.6238 12.1444 15.6238C11.5024 15.6238 11.2752 16.2151 11.2752 16.8643C11.2752 17.5328 11.4836 18.1309 12.1444 18.1309C12.8052 18.1309 13.0136 17.533 13.0136 16.8643Z" fill="white"/>
<path d="M7.77019 18.9102H6.91698V16.6732C6.91698 16.0922 6.74778 15.6888 6.22402 15.6923C5.77928 15.6951 5.48125 16.0417 5.48125 16.7096V18.9101H4.62804V14.8369H5.48125V15.1402C5.72982 14.8959 6.09555 14.7671 6.41813 14.7671C7.24921 14.7671 7.77019 15.4166 7.77019 16.3746V18.9101" fill="white"/>
<path d="M17.8179 18.9102V16.4837C17.8179 16.04 17.8804 15.6945 18.2561 15.6945C18.4762 15.6945 18.6131 15.8425 18.6131 16.3326V18.9102H19.4663V16.4837C19.4663 16.04 19.5286 15.6945 19.9045 15.6945C20.1247 15.6945 20.2615 15.8425 20.2615 16.3326V18.9102H21.1147V15.9571C21.1147 15.6475 21.0597 15.3708 20.8483 15.1167C20.656 14.8861 20.4261 14.7673 20.0704 14.7673C19.7814 14.7673 19.4994 14.8659 19.2694 15.1005C19.0381 14.8369 18.8165 14.7673 18.5281 14.7673C18.2764 14.7673 17.9867 14.8902 17.8179 15.1152V14.8369H16.9646V18.9103H17.8179" fill="white"/>
<path d="M23.5173 18.9102L25.2207 18.5789L23.8155 18.4586L25.4833 18.1528L24.0782 18.0115L25.7462 17.7266L24.3409 17.5643L26.0087 17.3005L24.6022 17.1063L26.2714 16.8739L24.6115 16.6428L26.0245 16.4477L24.3646 16.1852L25.7776 16.0216L24.1177 15.7378L25.5307 15.5954L23.8708 15.2906L25.2838 15.1692L23.5805 14.837H25.5043L26.1528 16.0036L26.8011 14.837H27.8968L26.6873 16.8605L28 18.9102H26.893L26.1528 17.6547L25.4123 18.9102L23.5173 18.9102Z" fill="white"/>
</svg>
