<svg width="183" height="32" viewBox="0 0 183 32" fill="none" xmlns="http://www.w3.org/2000/svg">
<path d="M171.986 0H31V32H171.986C178.069 32 183 29.7614 183 27V5C183 2.23858 178.069 0 171.986 0Z" fill="#0F1418"/>
<path d="M50.46 20.126L47.16 12.218H47.112V19.472L48.174 19.712V20H45.528V19.712L46.596 19.472V11.378L45.528 11.15V10.862H48.174L51.06 17.774H51.12L54.024 10.862H56.586V11.15L55.536 11.378V19.472L56.586 19.712V20H53.118V19.712L54.18 19.472V12.302H54.132L50.82 20.126H50.46ZM57.4772 20V19.736L58.3892 19.55V14.66L57.4952 14.342V14.156L59.4872 13.586H59.6192V19.55L60.5192 19.736V20H57.4772ZM58.9952 12.326C58.7512 12.326 58.5572 12.248 58.4132 12.092C58.2692 11.936 58.1972 11.754 58.1972 11.546C58.1972 11.318 58.2692 11.126 58.4132 10.97C58.5572 10.814 58.7512 10.736 58.9952 10.736C59.2432 10.736 59.4392 10.814 59.5832 10.97C59.7312 11.126 59.8052 11.318 59.8052 11.546C59.8052 11.754 59.7312 11.936 59.5832 12.092C59.4392 12.248 59.2432 12.326 58.9952 12.326ZM64.1034 20.126C63.5594 20.126 63.0754 19.994 62.6514 19.73C62.2314 19.462 61.9014 19.092 61.6614 18.62C61.4254 18.144 61.3074 17.596 61.3074 16.976C61.3074 16.32 61.4374 15.738 61.6974 15.23C61.9614 14.718 62.3234 14.316 62.7834 14.024C63.2474 13.732 63.7774 13.586 64.3734 13.586C64.7934 13.586 65.1694 13.656 65.5014 13.796C65.8334 13.932 66.0954 14.114 66.2874 14.342C66.4834 14.566 66.5814 14.812 66.5814 15.08C66.5814 15.3 66.5254 15.47 66.4134 15.59C66.3014 15.71 66.1494 15.77 65.9574 15.77C65.7494 15.77 65.5934 15.708 65.4894 15.584C65.3854 15.46 65.3174 15.266 65.2854 15.002C65.2414 14.606 65.1554 14.34 65.0274 14.204C64.8994 14.068 64.6934 14 64.4094 14C63.8414 14 63.3994 14.244 63.0834 14.732C62.7714 15.216 62.6154 15.86 62.6154 16.664C62.6154 17.472 62.7794 18.092 63.1074 18.524C63.4354 18.956 63.9014 19.172 64.5054 19.172C64.9054 19.172 65.2634 19.098 65.5794 18.95C65.8954 18.802 66.1774 18.556 66.4254 18.212L66.6654 18.35C66.4454 18.918 66.1154 19.356 65.6754 19.664C65.2354 19.972 64.7114 20.126 64.1034 20.126ZM67.4501 20V19.736L68.3501 19.55V14.66L67.4741 14.33V14.156L69.3941 13.58H69.5261V14.876L69.5741 14.936V19.55L70.8101 19.736V20H67.4501ZM69.4841 15.428L69.4601 14.936C69.7561 14.5 70.0501 14.164 70.3421 13.928C70.6381 13.692 70.9141 13.574 71.1701 13.574C71.3901 13.574 71.5761 13.65 71.7281 13.802C71.8801 13.95 71.9561 14.13 71.9561 14.342C71.9561 14.538 71.8901 14.704 71.7581 14.84C71.6261 14.972 71.4621 15.038 71.2661 15.038C71.0661 15.038 70.9101 14.964 70.7981 14.816C70.7181 14.724 70.6501 14.662 70.5941 14.63C70.5381 14.594 70.4741 14.576 70.4021 14.576C70.2861 14.576 70.1401 14.654 69.9641 14.81C69.7921 14.962 69.6321 15.168 69.4841 15.428ZM75.6546 20.126C75.0386 20.126 74.4926 19.984 74.0166 19.7C73.5406 19.412 73.1666 19.022 72.8946 18.53C72.6266 18.034 72.4926 17.476 72.4926 16.856C72.4926 16.232 72.6266 15.674 72.8946 15.182C73.1666 14.69 73.5406 14.302 74.0166 14.018C74.4926 13.73 75.0386 13.586 75.6546 13.586C76.2706 13.586 76.8146 13.73 77.2866 14.018C77.7626 14.302 78.1366 14.69 78.4086 15.182C78.6806 15.674 78.8166 16.232 78.8166 16.856C78.8166 17.476 78.6806 18.034 78.4086 18.53C78.1366 19.022 77.7626 19.412 77.2866 19.7C76.8146 19.984 76.2706 20.126 75.6546 20.126ZM75.6426 19.574C75.9346 19.574 76.1926 19.51 76.4166 19.382C76.6406 19.25 76.8286 19.064 76.9806 18.824C77.1366 18.58 77.2546 18.292 77.3346 17.96C77.4146 17.624 77.4546 17.252 77.4546 16.844C77.4546 16.44 77.4146 16.072 77.3346 15.74C77.2586 15.408 77.1446 15.122 76.9926 14.882C76.8406 14.642 76.6526 14.458 76.4286 14.33C76.2046 14.198 75.9466 14.132 75.6546 14.132C75.3626 14.132 75.1046 14.198 74.8806 14.33C74.6566 14.458 74.4686 14.642 74.3166 14.882C74.1646 15.122 74.0486 15.41 73.9686 15.746C73.8926 16.078 73.8546 16.448 73.8546 16.856C73.8546 17.264 73.8926 17.634 73.9686 17.966C74.0486 18.298 74.1646 18.584 74.3166 18.824C74.4686 19.064 74.6546 19.25 74.8746 19.382C75.0986 19.51 75.3546 19.574 75.6426 19.574ZM81.7539 20.126C81.4979 20.126 81.2139 20.1 80.9019 20.048C80.5939 20 80.3239 19.938 80.0919 19.862L80.0139 17.936H80.3259C80.3779 18.528 80.5299 18.976 80.7819 19.28C81.0339 19.58 81.3839 19.73 81.8319 19.73C82.1799 19.73 82.4579 19.634 82.6659 19.442C82.8779 19.246 82.9839 18.99 82.9839 18.674C82.9839 18.41 82.9059 18.184 82.7499 17.996C82.5939 17.804 82.3239 17.61 81.9399 17.414L81.4419 17.168C80.9299 16.912 80.5639 16.644 80.3439 16.364C80.1239 16.08 80.0139 15.738 80.0139 15.338C80.0139 14.778 80.2079 14.346 80.5959 14.042C80.9879 13.738 81.5459 13.586 82.2699 13.586C82.5499 13.586 82.8199 13.606 83.0799 13.646C83.3439 13.682 83.5499 13.732 83.6979 13.796V15.44H83.4219C83.3059 14.464 82.8519 13.976 82.0599 13.976C81.7519 13.976 81.5039 14.06 81.3159 14.228C81.1319 14.392 81.0399 14.616 81.0399 14.9C81.0399 15.148 81.1199 15.36 81.2799 15.536C81.4439 15.712 81.7199 15.894 82.1079 16.082L82.6539 16.346C83.1259 16.578 83.4659 16.834 83.6739 17.114C83.8819 17.394 83.9859 17.748 83.9859 18.176C83.9859 18.772 83.7859 19.246 83.3859 19.598C82.9859 19.95 82.4419 20.126 81.7539 20.126ZM88.2405 20.126C87.6245 20.126 87.0785 19.984 86.6025 19.7C86.1265 19.412 85.7525 19.022 85.4805 18.53C85.2125 18.034 85.0785 17.476 85.0785 16.856C85.0785 16.232 85.2125 15.674 85.4805 15.182C85.7525 14.69 86.1265 14.302 86.6025 14.018C87.0785 13.73 87.6245 13.586 88.2405 13.586C88.8565 13.586 89.4005 13.73 89.8725 14.018C90.3485 14.302 90.7225 14.69 90.9945 15.182C91.2665 15.674 91.4025 16.232 91.4025 16.856C91.4025 17.476 91.2665 18.034 90.9945 18.53C90.7225 19.022 90.3485 19.412 89.8725 19.7C89.4005 19.984 88.8565 20.126 88.2405 20.126ZM88.2285 19.574C88.5205 19.574 88.7785 19.51 89.0025 19.382C89.2265 19.25 89.4145 19.064 89.5665 18.824C89.7225 18.58 89.8405 18.292 89.9205 17.96C90.0005 17.624 90.0405 17.252 90.0405 16.844C90.0405 16.44 90.0005 16.072 89.9205 15.74C89.8445 15.408 89.7305 15.122 89.5785 14.882C89.4265 14.642 89.2385 14.458 89.0145 14.33C88.7905 14.198 88.5325 14.132 88.2405 14.132C87.9485 14.132 87.6905 14.198 87.4665 14.33C87.2425 14.458 87.0545 14.642 86.9025 14.882C86.7505 15.122 86.6345 15.41 86.5545 15.746C86.4785 16.078 86.4405 16.448 86.4405 16.856C86.4405 17.264 86.4785 17.634 86.5545 17.966C86.6345 18.298 86.7505 18.584 86.9025 18.824C87.0545 19.064 87.2405 19.25 87.4605 19.382C87.6845 19.51 87.9405 19.574 88.2285 19.574ZM98.439 20.126C98.039 20.126 97.715 20.012 97.467 19.784C97.319 19.656 97.215 19.488 97.155 19.28C97.095 19.068 97.065 18.786 97.065 18.434V14.114H94.425V19.562L95.709 19.754V20H92.289V19.754L93.201 19.562V14.114H92.133L92.283 13.706H93.201C93.201 13.134 93.213 12.696 93.237 12.392C93.261 12.084 93.305 11.838 93.369 11.654C93.465 11.382 93.631 11.132 93.867 10.904C94.107 10.676 94.397 10.492 94.737 10.352C95.077 10.212 95.443 10.142 95.835 10.142C96.287 10.142 96.653 10.236 96.933 10.424C97.213 10.612 97.353 10.858 97.353 11.162C97.353 11.358 97.297 11.512 97.185 11.624C97.073 11.732 96.925 11.786 96.741 11.786C96.597 11.786 96.483 11.754 96.399 11.69C96.319 11.626 96.259 11.546 96.219 11.45C96.183 11.35 96.153 11.252 96.129 11.156C96.081 10.964 96.023 10.816 95.955 10.712C95.887 10.604 95.761 10.55 95.577 10.55C95.401 10.55 95.223 10.606 95.043 10.718C94.867 10.83 94.725 11.016 94.617 11.276C94.525 11.496 94.469 11.744 94.449 12.02C94.433 12.292 94.425 12.636 94.425 13.052V13.706H96.531L98.049 12.146L98.289 12.17V13.706H100.005L99.897 14.144H98.289V18.284C98.289 18.576 98.297 18.782 98.313 18.902C98.329 19.018 98.357 19.114 98.397 19.19C98.525 19.414 98.725 19.526 98.997 19.526C99.153 19.526 99.309 19.484 99.465 19.4C99.621 19.316 99.757 19.2 99.873 19.052L100.089 19.238C99.905 19.51 99.665 19.726 99.369 19.886C99.077 20.046 98.767 20.126 98.439 20.126ZM106.983 20.108C106.655 20.108 106.335 20.06 106.023 19.964C105.715 19.868 105.389 19.718 105.045 19.514L104.571 20H104.325L104.103 16.958L104.427 16.892C104.667 17.832 104.983 18.514 105.375 18.938C105.771 19.362 106.293 19.574 106.941 19.574C107.485 19.574 107.915 19.444 108.231 19.184C108.547 18.92 108.705 18.564 108.705 18.116C108.705 17.764 108.595 17.45 108.375 17.174C108.159 16.894 107.803 16.614 107.307 16.334L106.389 15.848C105.641 15.444 105.105 15.042 104.781 14.642C104.457 14.242 104.295 13.776 104.295 13.244C104.295 12.764 104.413 12.336 104.649 11.96C104.885 11.58 105.207 11.282 105.615 11.066C106.027 10.846 106.489 10.736 107.001 10.736C107.701 10.736 108.311 10.982 108.831 11.474L109.197 10.85H109.455L109.563 13.472H109.221C109.033 12.724 108.761 12.172 108.405 11.816C108.053 11.456 107.603 11.276 107.055 11.276C106.611 11.276 106.259 11.394 105.999 11.63C105.743 11.866 105.615 12.19 105.615 12.602C105.615 12.974 105.737 13.306 105.981 13.598C106.229 13.89 106.645 14.19 107.229 14.498L108.123 14.978C108.735 15.302 109.177 15.662 109.449 16.058C109.725 16.454 109.863 16.908 109.863 17.42C109.863 17.928 109.735 18.386 109.479 18.794C109.227 19.198 108.883 19.518 108.447 19.754C108.015 19.99 107.527 20.108 106.983 20.108ZM113.603 21.956C113.411 21.956 113.257 21.892 113.141 21.764C113.029 21.64 112.973 21.476 112.973 21.272C112.973 20.976 113.089 20.704 113.321 20.456C113.557 20.212 113.877 20.012 114.281 19.856V19.808C113.661 19.66 113.119 19.378 112.655 18.962C112.191 18.542 111.831 18.028 111.575 17.42C111.319 16.808 111.191 16.144 111.191 15.428C111.191 14.76 111.297 14.142 111.509 13.574C111.725 13.006 112.027 12.51 112.415 12.086C112.807 11.658 113.267 11.326 113.795 11.09C114.327 10.854 114.909 10.736 115.541 10.736C116.173 10.736 116.755 10.854 117.287 11.09C117.819 11.326 118.279 11.658 118.667 12.086C119.059 12.51 119.363 13.006 119.579 13.574C119.795 14.142 119.903 14.76 119.903 15.428C119.903 16.212 119.749 16.932 119.441 17.588C119.133 18.244 118.701 18.78 118.145 19.196C117.593 19.612 116.945 19.856 116.201 19.928V19.982C116.461 20.046 116.723 20.142 116.987 20.27C117.251 20.398 117.525 20.514 117.809 20.618C118.097 20.726 118.397 20.78 118.709 20.78C118.969 20.78 119.189 20.73 119.369 20.63C119.549 20.53 119.721 20.376 119.885 20.168L120.209 20.3C119.965 20.868 119.651 21.292 119.267 21.572C118.883 21.856 118.485 21.998 118.073 21.998C117.697 21.998 117.379 21.898 117.119 21.698C116.859 21.502 116.611 21.288 116.375 21.056C116.035 20.72 115.747 20.486 115.511 20.354C115.275 20.222 115.025 20.156 114.761 20.156C114.513 20.156 114.329 20.206 114.209 20.306C114.089 20.406 114.029 20.532 114.029 20.684C114.029 20.816 114.063 20.922 114.131 21.002C114.199 21.082 114.233 21.192 114.233 21.332C114.233 21.512 114.173 21.66 114.053 21.776C113.933 21.896 113.783 21.956 113.603 21.956ZM115.541 19.58C115.897 19.58 116.219 19.516 116.507 19.388C116.799 19.26 117.055 19.074 117.275 18.83C117.499 18.586 117.687 18.294 117.839 17.954C117.991 17.61 118.105 17.224 118.181 16.796C118.257 16.368 118.295 15.904 118.295 15.404C118.295 14.908 118.257 14.45 118.181 14.03C118.105 13.606 117.993 13.226 117.845 12.89C117.697 12.554 117.513 12.268 117.293 12.032C117.073 11.792 116.817 11.61 116.525 11.486C116.237 11.358 115.915 11.294 115.559 11.294C115.199 11.294 114.873 11.358 114.581 11.486C114.289 11.61 114.031 11.792 113.807 12.032C113.587 12.272 113.401 12.562 113.249 12.902C113.101 13.238 112.989 13.62 112.913 14.048C112.837 14.472 112.799 14.932 112.799 15.428C112.799 15.924 112.837 16.384 112.913 16.808C112.989 17.232 113.101 17.616 113.249 17.96C113.401 18.3 113.587 18.592 113.807 18.836C114.027 19.076 114.281 19.26 114.569 19.388C114.861 19.516 115.185 19.58 115.541 19.58ZM120.962 20V19.712L121.982 19.472V11.378L120.962 11.15V10.862H124.46V11.15L123.332 11.378V19.502H126.698C126.914 19.138 127.1 18.772 127.256 18.404C127.412 18.036 127.562 17.624 127.706 17.168H128.06L127.61 20H120.962ZM134.757 20.108C134.429 20.108 134.109 20.06 133.797 19.964C133.489 19.868 133.163 19.718 132.819 19.514L132.345 20H132.099L131.877 16.958L132.201 16.892C132.441 17.832 132.757 18.514 133.149 18.938C133.545 19.362 134.067 19.574 134.715 19.574C135.259 19.574 135.689 19.444 136.005 19.184C136.321 18.92 136.479 18.564 136.479 18.116C136.479 17.764 136.369 17.45 136.149 17.174C135.933 16.894 135.577 16.614 135.081 16.334L134.163 15.848C133.415 15.444 132.879 15.042 132.555 14.642C132.231 14.242 132.069 13.776 132.069 13.244C132.069 12.764 132.187 12.336 132.423 11.96C132.659 11.58 132.981 11.282 133.389 11.066C133.801 10.846 134.263 10.736 134.775 10.736C135.475 10.736 136.085 10.982 136.605 11.474L136.971 10.85H137.229L137.337 13.472H136.995C136.807 12.724 136.535 12.172 136.179 11.816C135.827 11.456 135.377 11.276 134.829 11.276C134.385 11.276 134.033 11.394 133.773 11.63C133.517 11.866 133.389 12.19 133.389 12.602C133.389 12.974 133.511 13.306 133.755 13.598C134.003 13.89 134.419 14.19 135.003 14.498L135.897 14.978C136.509 15.302 136.951 15.662 137.223 16.058C137.499 16.454 137.637 16.908 137.637 17.42C137.637 17.928 137.509 18.386 137.253 18.794C137.001 19.198 136.657 19.518 136.221 19.754C135.789 19.99 135.301 20.108 134.757 20.108ZM141.778 20.126C141.198 20.126 140.688 19.994 140.248 19.73C139.812 19.462 139.472 19.09 139.228 18.614C138.988 18.134 138.868 17.58 138.868 16.952C138.868 16.284 139.002 15.698 139.27 15.194C139.542 14.69 139.92 14.296 140.404 14.012C140.892 13.728 141.456 13.586 142.096 13.586C142.888 13.586 143.494 13.816 143.914 14.276C144.338 14.736 144.558 15.41 144.574 16.298L144.49 16.37H139.84V16.022L143.2 15.902C143.228 15.798 143.242 15.64 143.242 15.428C143.242 14.468 142.82 13.988 141.976 13.988C141.396 13.988 140.948 14.216 140.632 14.672C140.32 15.124 140.164 15.766 140.164 16.598C140.164 18.338 140.84 19.208 142.192 19.208C143.072 19.208 143.746 18.888 144.214 18.248L144.436 18.386C144.228 18.938 143.89 19.366 143.422 19.67C142.958 19.974 142.41 20.126 141.778 20.126ZM145.415 20V19.736L146.315 19.55V14.66L145.439 14.33V14.156L147.359 13.58H147.491V14.876L147.539 14.936V19.55L148.775 19.736V20H145.415ZM147.449 15.428L147.425 14.936C147.721 14.5 148.015 14.164 148.307 13.928C148.603 13.692 148.879 13.574 149.135 13.574C149.355 13.574 149.541 13.65 149.693 13.802C149.845 13.95 149.921 14.13 149.921 14.342C149.921 14.538 149.855 14.704 149.723 14.84C149.591 14.972 149.427 15.038 149.231 15.038C149.031 15.038 148.875 14.964 148.763 14.816C148.683 14.724 148.615 14.662 148.559 14.63C148.503 14.594 148.439 14.576 148.367 14.576C148.251 14.576 148.105 14.654 147.929 14.81C147.757 14.962 147.597 15.168 147.449 15.428ZM153.052 20.126L150.88 14.48C150.808 14.292 150.72 14.166 150.616 14.102C150.512 14.034 150.31 13.99 150.01 13.97V13.706H153.1V13.97C152.76 13.982 152.536 14.012 152.428 14.06C152.32 14.104 152.266 14.174 152.266 14.27C152.266 14.362 152.29 14.474 152.338 14.606L153.694 18.452H153.742L155.008 14.864C155.08 14.66 155.116 14.504 155.116 14.396C155.116 14.28 155.064 14.194 154.96 14.138C154.856 14.078 154.628 14.022 154.276 13.97V13.706H156.736V13.97C156.44 14.018 156.216 14.076 156.064 14.144C155.912 14.208 155.798 14.298 155.722 14.414C155.65 14.53 155.578 14.686 155.506 14.882L153.622 20.126H153.052ZM159.708 20.126C159.128 20.126 158.618 19.994 158.178 19.73C157.742 19.462 157.402 19.09 157.158 18.614C156.918 18.134 156.798 17.58 156.798 16.952C156.798 16.284 156.932 15.698 157.2 15.194C157.472 14.69 157.85 14.296 158.334 14.012C158.822 13.728 159.386 13.586 160.026 13.586C160.818 13.586 161.424 13.816 161.844 14.276C162.268 14.736 162.488 15.41 162.504 16.298L162.42 16.37H157.77V16.022L161.13 15.902C161.158 15.798 161.172 15.64 161.172 15.428C161.172 14.468 160.75 13.988 159.906 13.988C159.326 13.988 158.878 14.216 158.562 14.672C158.25 15.124 158.094 15.766 158.094 16.598C158.094 18.338 158.77 19.208 160.122 19.208C161.002 19.208 161.676 18.888 162.144 18.248L162.366 18.386C162.158 18.938 161.82 19.366 161.352 19.67C160.888 19.974 160.34 20.126 159.708 20.126ZM163.345 20V19.736L164.245 19.55V14.66L163.369 14.33V14.156L165.289 13.58H165.421V14.876L165.469 14.936V19.55L166.705 19.736V20H163.345ZM165.379 15.428L165.355 14.936C165.651 14.5 165.945 14.164 166.237 13.928C166.533 13.692 166.809 13.574 167.065 13.574C167.285 13.574 167.471 13.65 167.623 13.802C167.775 13.95 167.851 14.13 167.851 14.342C167.851 14.538 167.785 14.704 167.653 14.84C167.521 14.972 167.357 15.038 167.161 15.038C166.961 15.038 166.805 14.964 166.693 14.816C166.613 14.724 166.545 14.662 166.489 14.63C166.433 14.594 166.369 14.576 166.297 14.576C166.181 14.576 166.035 14.654 165.859 14.81C165.687 14.962 165.527 15.168 165.379 15.428Z" fill="white"/>
<path d="M31 0H5C2.23858 0 0 2.23858 0 5V27C0 29.7614 2.23858 32 5 32H31V0Z" fill="#CC2927"/>
<path d="M7.68824 6.50516C7.68824 6.50516 7.60824 6.63216 7.68424 6.82016C7.73024 6.93616 7.87024 7.07616 8.02424 7.22416C8.02424 7.22416 9.63924 8.80016 9.83724 9.02816C10.7322 10.0612 11.1212 11.0782 11.1572 12.4812C11.1792 13.3812 11.0062 14.1732 10.5842 15.0942C9.82824 16.7432 8.23424 18.5622 5.77424 20.5842L6.13424 20.4642C6.36724 20.2912 6.68224 20.1052 7.42624 19.6982C9.13924 18.7622 11.0622 17.9002 13.4252 17.0122C16.8242 15.7352 22.4152 14.2362 25.5972 13.7492L25.9282 13.6982L25.8782 13.6182C25.5862 13.1662 25.3882 12.8872 25.1482 12.5912C24.4512 11.7282 23.6062 11.0242 22.5712 10.4452C21.1492 9.64816 19.3042 9.02916 16.9712 8.56516C16.243 8.42822 15.5126 8.3032 14.7802 8.19016C13.4702 7.98925 12.1622 7.77591 10.8562 7.55016C10.4312 7.47516 9.79624 7.36916 9.37524 7.27816C9.05058 7.20918 8.7298 7.12306 8.41424 7.02016C8.14624 6.91516 7.76924 6.81316 7.68824 6.50516ZM8.62424 7.41416C8.62724 7.41216 8.68724 7.43116 8.76124 7.45616C8.89724 7.50216 9.07724 7.55616 9.28724 7.61516C9.43324 7.65516 9.59424 7.69916 9.76624 7.74216C9.98424 7.79816 10.1652 7.84616 10.1672 7.84916C10.1912 7.87616 10.5582 9.04716 10.6832 9.49616C10.7312 9.66816 10.7672 9.81116 10.7642 9.81416C10.7294 9.7708 10.6992 9.72387 10.6742 9.67416C10.2502 8.92816 9.57724 8.16916 8.80024 7.55816C8.73983 7.51232 8.68113 7.46429 8.62424 7.41416ZM10.4142 7.90816C10.4322 7.90716 10.5132 7.92016 10.6092 7.94216C11.2282 8.07816 12.3342 8.29216 13.0442 8.41216C13.1632 8.43216 13.2602 8.45216 13.2602 8.45916C13.2313 8.48516 13.1981 8.50612 13.1622 8.52116C13.0432 8.58116 12.5602 8.87016 12.3992 8.97816C11.9962 9.24816 11.6332 9.53716 11.3692 9.79916C11.3052 9.86482 11.2395 9.92884 11.1722 9.99116C11.1692 9.99116 11.1502 9.92916 11.1312 9.85416C10.9614 9.24507 10.7441 8.65025 10.4812 8.07516C10.4548 8.02137 10.4311 7.96631 10.4102 7.91016C10.4102 7.90916 10.4102 7.90816 10.4142 7.90816ZM13.5612 8.50616C13.5812 8.51316 13.6212 8.63616 13.6902 8.91016C13.8496 9.55626 13.9013 10.2242 13.8432 10.8872L13.8312 10.9252L13.6442 10.8652C13.2562 10.7412 12.6242 10.5552 12.0822 10.4052C11.8932 10.3568 11.7063 10.3 11.5222 10.2352C11.5222 10.2132 11.9712 9.76416 12.1642 9.59316C12.5332 9.26716 13.5262 8.49516 13.5612 8.50616ZM13.8112 8.54216C13.8222 8.53216 15.3152 8.79016 15.9932 8.92016C16.4992 9.01716 17.2302 9.17016 17.2742 9.18916C17.2962 9.19716 17.2202 9.23916 16.9772 9.34916C16.0172 9.78116 15.3052 10.1692 14.5972 10.6422C14.4112 10.7662 14.2562 10.8682 14.2532 10.8682C14.2492 10.8682 14.2472 10.7642 14.2472 10.6382C14.2472 9.94816 14.1082 9.25116 13.8562 8.66216C13.8375 8.62365 13.8225 8.58347 13.8112 8.54216ZM17.6712 9.30616C17.6822 9.31716 17.6332 9.61216 17.5912 9.78616C17.4592 10.3262 17.1092 11.1302 16.6772 11.8852C16.6319 11.9703 16.5811 12.0525 16.5252 12.1312C16.4492 12.0989 16.3759 12.0605 16.3062 12.0162C15.8842 11.7692 15.4062 11.5362 14.8812 11.3192C14.7873 11.2822 14.6946 11.2422 14.6032 11.1992C14.5792 11.1772 15.7462 10.4042 16.3652 10.0332C16.8602 9.73616 17.6572 9.29216 17.6712 9.30616ZM17.9472 9.34916C17.9802 9.34916 18.6422 9.52916 18.9842 9.63216C19.8372 9.88716 20.8212 10.2462 21.4592 10.5362L21.7242 10.6562L21.5372 10.6992C19.9762 11.0592 18.6372 11.4722 17.3492 11.9952C17.2422 12.0392 17.1492 12.0752 17.1422 12.0752C17.1604 12.0109 17.1855 11.9489 17.2172 11.8902C17.6052 11.0672 17.8552 10.2032 17.9202 9.47016C17.9262 9.40316 17.9382 9.34916 17.9472 9.34916ZM11.3672 10.8612C11.3772 10.8512 11.8812 10.9692 12.1562 11.0462C12.5692 11.1622 13.4482 11.4562 13.4482 11.4792C13.4482 11.4832 13.3512 11.5682 13.2332 11.6672C12.7582 12.0642 12.2992 12.4802 11.7502 13.0102C11.6514 13.1092 11.5486 13.2043 11.4422 13.2952C11.4352 13.2952 11.4322 13.2722 11.4362 13.2452C11.5192 12.6342 11.5012 11.8502 11.3862 11.0522C11.3749 10.9894 11.3682 10.9259 11.3662 10.8622L11.3672 10.8612ZM21.9772 10.8712C21.9842 10.8792 21.7432 11.2562 21.5932 11.4712C21.3732 11.7852 21.0562 12.1972 20.3322 13.1082L19.3782 14.3102C19.2911 14.4232 19.2014 14.5342 19.1092 14.6432C19.1062 14.6432 19.0592 14.5772 19.0062 14.4972C18.5975 13.8872 18.1023 13.3398 17.5362 12.8722C17.4476 12.7979 17.3575 12.7252 17.2662 12.6542C17.2393 12.636 17.2144 12.6149 17.1922 12.5912C17.1922 12.5812 17.8092 12.3172 18.2802 12.1252C19.1927 11.7584 20.1195 11.4281 21.0582 11.1352C21.5002 11.0002 21.9702 10.8652 21.9772 10.8712ZM22.2552 10.9442C22.3281 10.9688 22.3976 11.0024 22.4622 11.0442C23.344 11.5493 24.1595 12.162 24.8902 12.8682C25.0842 13.0582 25.5572 13.5512 25.5502 13.5552L25.1872 13.5842C23.6572 13.6992 21.7012 14.0242 19.8172 14.4772C19.6892 14.5072 19.5792 14.5332 19.5712 14.5332C19.5642 14.5332 19.7042 14.3932 19.8822 14.2212C20.9892 13.1582 21.4932 12.4872 22.0872 11.2872C22.1752 11.1092 22.2502 10.9542 22.2532 10.9452H22.2552V10.9442ZM14.1672 11.7742C14.2182 11.7842 14.6902 12.0042 15.0462 12.1822C15.3712 12.3452 15.8642 12.6082 15.8892 12.6312C15.8922 12.6342 15.7192 12.7242 15.5032 12.8322C14.8202 13.1742 14.2352 13.4962 13.6252 13.8692C13.4502 13.9762 13.3052 14.0632 13.3002 14.0632C13.2852 14.0632 13.2902 14.0502 13.3882 13.8722C13.7259 13.2423 13.9743 12.5685 14.1262 11.8702C14.1402 11.8082 14.1562 11.7702 14.1672 11.7732V11.7742ZM13.6922 11.8582C13.7022 11.8682 13.5802 12.3182 13.5022 12.5582C13.2909 13.1896 13.0109 13.7959 12.6672 14.3662L12.5772 14.5132L12.3742 14.3162C12.1767 14.1148 11.9486 13.9461 11.6982 13.8162C11.6363 13.7882 11.5773 13.754 11.5222 13.7142C11.5222 13.6842 12.1422 13.1212 12.6202 12.7162C12.9632 12.4262 13.6842 11.8492 13.6922 11.8582ZM16.5802 13.0462L16.7572 13.1612C17.1642 13.4252 17.6452 13.7802 18.0122 14.0852C18.2182 14.2572 18.6172 14.6152 18.6992 14.7012L18.7432 14.7482L18.4492 14.8302C16.946 15.2402 15.4613 15.7153 13.9992 16.2542C13.8322 16.3152 13.6892 16.3662 13.6792 16.3662C13.6582 16.3662 13.6372 16.3852 14.0122 16.0402C14.9722 15.1572 15.8192 14.1842 16.4522 13.2382L16.5802 13.0462ZM15.8212 13.2362C15.8302 13.2452 15.3292 13.9462 15.0322 14.3422C14.6762 14.8152 14.0422 15.6072 13.6062 16.1222C13.4949 16.2579 13.3795 16.3903 13.2602 16.5192C13.2502 16.5222 13.2452 16.4692 13.2442 16.3862C13.2442 15.9462 13.1322 15.4762 12.9362 15.0782C12.8532 14.9102 12.8392 14.8702 12.8562 14.8542C12.9242 14.7922 13.9832 14.1882 14.6502 13.8312C15.1092 13.5852 15.8132 13.2272 15.8212 13.2362ZM11.2312 14.3612C11.5218 14.5004 11.7945 14.6743 12.0432 14.8792C12.0512 14.8842 11.9562 14.9622 11.8332 15.0512C11.4882 15.3002 10.9632 15.6952 10.6602 15.9372C10.3402 16.1922 10.3292 16.2002 10.3652 16.1442C10.6052 15.7772 10.7252 15.5702 10.8512 15.3042C10.9642 15.0682 11.0752 14.7882 11.1552 14.5442C11.1717 14.4797 11.1967 14.418 11.2312 14.3612ZM12.4542 15.3212C12.4712 15.3182 12.4942 15.3492 12.5932 15.4962C12.8002 15.8062 12.9592 16.2182 13.0002 16.5542L13.0082 16.6272L12.5112 16.8192C11.6212 17.1652 10.8002 17.5062 10.2452 17.7592C10.0902 17.8312 9.81724 17.9612 9.63824 18.0512C9.45924 18.1412 9.31324 18.2112 9.31324 18.2072C9.31324 18.2032 9.42524 18.1182 9.56324 18.0192C10.6502 17.2292 11.5882 16.3652 12.2952 15.5002C12.3702 15.4082 12.4392 15.3282 12.4482 15.3222C12.4501 15.3211 12.4521 15.3204 12.4542 15.3202V15.3212ZM11.8902 15.4612C11.9052 15.4752 11.4892 15.9452 11.2092 16.2312C10.5092 16.9462 9.81324 17.5062 8.95324 18.0522C8.84524 18.1212 8.74724 18.1822 8.73324 18.1902C8.71024 18.2042 8.74124 18.1682 9.11924 17.7562C9.35724 17.4972 9.53924 17.2822 9.74724 17.0132C9.88324 16.8362 9.90924 16.8112 10.1092 16.6672C10.6462 16.2792 11.8762 15.4462 11.8902 15.4602V15.4612ZM12.8892 4.00016C12.8092 3.99016 11.5182 4.45516 10.6892 4.79116C9.56624 5.24816 8.69324 5.68516 8.15524 6.06316C7.95524 6.20316 7.70324 6.45616 7.66724 6.55316C7.65305 6.5926 7.64594 6.63424 7.64624 6.67616L8.13424 7.13616L9.29224 7.50616L12.0512 8.00016L15.2042 8.54216L15.2362 8.27216L15.2082 8.26716L14.7932 8.20116L14.7082 8.05316C14.2797 7.29705 13.8869 6.52119 13.5312 5.72816C13.3237 5.25155 13.1467 4.76223 13.0012 4.26316C12.9332 4.02016 12.9262 4.00516 12.8892 4.00016ZM12.8282 4.18616H12.8332C12.8362 4.18916 12.8502 4.29116 12.8652 4.41116C12.9272 4.91916 13.0412 5.41116 13.2192 5.94116C13.3532 6.34116 13.3552 6.31816 13.1952 6.27316C12.8252 6.17016 11.1632 5.88516 9.96124 5.71816C9.84189 5.70294 9.72287 5.68526 9.60424 5.66516C9.58924 5.65016 10.4712 5.18816 10.8622 5.00516C11.3632 4.77316 12.7292 4.20516 12.8282 4.18616ZM9.32624 5.81416L9.46724 5.86216C10.2392 6.12416 12.1732 6.49416 13.2422 6.58216C13.3622 6.59216 13.4642 6.60316 13.4672 6.60616C13.4702 6.60916 13.3672 6.66416 13.2392 6.72816C12.7242 6.98616 12.1562 7.30116 11.7632 7.54716C11.6482 7.61916 11.5432 7.67716 11.5282 7.67616C11.4714 7.66816 11.4147 7.65916 11.3582 7.64916L11.2142 7.62616L10.8492 7.27116C10.2082 6.65116 9.70824 6.17116 9.51424 5.99116L9.32624 5.81416ZM9.18324 5.92816L9.69424 6.56616C9.97624 6.91616 10.2582 7.26516 10.3202 7.34016C10.3832 7.41516 10.4312 7.47816 10.4282 7.48016C10.4142 7.49116 9.68824 7.35016 9.30324 7.26116C9.03229 7.20357 8.76431 7.13282 8.50024 7.04916L8.30024 6.98516L8.30124 6.93616C8.30424 6.69116 8.61324 6.32916 9.13724 5.96016L9.18324 5.92816ZM13.5352 6.79716C13.5502 6.79816 13.5672 6.82916 13.6122 6.92816C13.7362 7.20016 14.1222 7.93616 14.2152 8.07816C14.2452 8.12516 14.2952 8.12816 13.7822 8.04516C12.5522 7.84716 12.1532 7.78016 12.1532 7.77216C12.1783 7.75042 12.2062 7.73225 12.2362 7.71816C12.6286 7.49799 12.9993 7.24118 13.3432 6.95116L13.5182 6.80416C13.5242 6.79916 13.5302 6.79616 13.5352 6.79716ZM17.8442 15.2052L13.0362 16.7732L8.85624 18.6192L7.68624 18.9292C7.38824 19.2112 7.07324 19.4972 6.73824 19.7892C6.36824 20.1102 6.02224 20.4012 5.75824 20.6112C5.41283 20.8969 5.09387 21.2132 4.80524 21.5562C4.47324 21.9702 4.21324 22.4102 4.10124 22.7492C3.90124 23.3592 3.99824 23.9772 4.38624 24.5472C4.88124 25.2752 5.86624 26.0152 7.01124 26.5192C7.59624 26.7752 8.58124 27.1072 9.32124 27.2932C10.5542 27.6052 12.9352 27.9432 14.2472 27.9932C14.5132 28.0032 14.8672 28.0032 14.8842 27.9912C14.9122 27.9722 15.1172 27.5862 15.3542 27.1012C16.1602 25.4552 16.7432 23.9112 17.0572 22.5932C17.2472 21.7942 17.3952 20.7302 17.4912 19.4682C17.5182 19.1142 17.5282 17.9352 17.5072 17.5342C17.4823 16.9622 17.4212 16.3924 17.3242 15.8282C17.3116 15.7792 17.3075 15.7285 17.3122 15.6782C17.3262 15.6682 17.3712 15.6532 17.9622 15.4812L17.8442 15.2052ZM16.7442 15.8502C16.7892 15.8502 16.9042 16.9642 16.9352 17.6702C16.9412 17.8212 16.9402 17.9172 16.9312 17.9172C16.9032 17.9172 16.3162 17.5722 15.8992 17.3112C15.5057 17.0633 15.1183 16.8059 14.7372 16.5392C14.7022 16.5112 14.7062 16.5102 15.0032 16.4082C15.5082 16.2342 16.7072 15.8502 16.7452 15.8502H16.7442ZM14.2962 16.6532C14.3262 16.6532 14.4112 16.7002 14.6112 16.8252C15.3612 17.2952 16.3772 17.8602 16.8112 18.0502C16.9472 18.1102 16.9622 18.0862 16.6512 18.2972C15.9892 18.7472 15.1652 19.1892 14.1542 19.6392C14.045 19.6891 13.9347 19.7365 13.8232 19.7812C13.8306 19.7132 13.845 19.6462 13.8662 19.5812C14.1112 18.6762 14.2492 17.7612 14.2532 17.0272C14.2552 16.6652 14.2552 16.6632 14.2902 16.6542H14.2962V16.6532ZM13.7922 16.8462C13.8132 16.8682 13.7982 17.6802 13.7722 17.9022C13.6961 18.5272 13.556 19.1427 13.3542 19.7392C13.3402 19.7562 12.8432 19.2712 12.6782 19.0792C12.417 18.7829 12.1924 18.4562 12.0092 18.1062C11.9272 17.9442 11.7952 17.6222 11.8072 17.6132C11.8632 17.5732 13.7782 16.8332 13.7922 16.8462ZM11.4172 17.7822C11.4212 17.7822 11.4252 17.7832 11.4272 17.7862C11.4494 17.8282 11.4681 17.8721 11.4832 17.9172C11.5992 18.2322 11.8592 18.6992 12.0852 18.9972C12.3814 19.3893 12.7227 19.7451 13.1022 20.0572C13.1252 20.0772 13.1322 20.0732 12.5402 20.2972C11.7824 20.5829 11.0175 20.8497 10.2462 21.0972C9.91924 21.2032 9.64224 21.2922 9.63124 21.2972C9.59824 21.3082 9.60824 21.2882 9.70424 21.1392C10.1312 20.4732 10.7772 19.1692 11.1392 18.2472C11.2012 18.0872 11.2612 17.9272 11.2722 17.8912C11.2872 17.8392 11.3032 17.8212 11.3522 17.7992C11.3723 17.7886 11.3946 17.7828 11.4172 17.7822ZM10.6892 18.0822C10.6992 18.0912 10.5152 18.4802 10.3332 18.8332C9.98224 19.5192 9.59424 20.1942 9.08024 21.0182L8.89824 21.3062C8.88024 21.3332 8.87224 21.3242 8.81624 21.2122C8.68551 20.9453 8.59132 20.6621 8.53624 20.3702C8.48482 20.0104 8.49157 19.6448 8.55624 19.2872C8.60324 19.0602 8.60124 19.0652 8.70824 19.0112C9.17024 18.7742 10.6742 18.0692 10.6892 18.0822ZM16.9572 18.3372V18.4912C16.9469 19.4935 16.8617 20.4936 16.7022 21.4832C16.0428 21.2929 15.4063 21.0306 14.8042 20.7012C14.4502 20.5072 13.9392 20.1942 13.9542 20.1792C13.9572 20.1752 14.1082 20.0962 14.2882 20.0022C15.0022 19.6322 15.6832 19.2322 16.2762 18.8362C16.4982 18.6882 16.8312 18.4472 16.9052 18.3822L16.9572 18.3372ZM7.94524 19.4102C7.96024 19.4102 7.95624 19.4382 7.93324 19.5712C7.91342 19.7004 7.89973 19.8306 7.89224 19.9612C7.86224 20.4932 7.94924 20.8852 8.21224 21.4212C8.28624 21.5712 8.34424 21.6952 8.34124 21.6972C8.31424 21.7202 5.91124 22.4232 5.15524 22.6302L4.72024 22.7502C4.69324 22.7582 4.69124 22.7522 4.70024 22.6902C4.78324 22.1572 5.19024 21.4582 5.75824 20.8702C6.13624 20.4802 6.43824 20.2482 6.95324 19.9552C7.28054 19.7674 7.61126 19.5857 7.94524 19.4102ZM13.6142 20.4252C13.6162 20.4232 13.7052 20.4702 13.8112 20.5322C14.5882 20.9812 15.6712 21.4022 16.5942 21.6132L16.6782 21.6332L16.5632 21.6962C16.0812 21.9642 14.4922 22.6252 12.8692 23.2332C12.698 23.2971 12.527 23.3618 12.3562 23.4272C12.3303 23.4399 12.3027 23.449 12.2742 23.4542C12.2742 23.4502 12.3412 23.3222 12.4232 23.1682C12.8792 22.3162 13.3332 21.2812 13.5672 20.5632C13.5902 20.4902 13.6112 20.4282 13.6142 20.4252ZM13.0362 20.6152C13.0189 20.6728 12.9979 20.7292 12.9732 20.7842C12.6043 21.6554 12.1832 22.5036 11.7122 23.3242C11.6323 23.4708 11.5482 23.6152 11.4602 23.7572C11.4552 23.7572 11.3462 23.6912 11.2162 23.6122C10.4462 23.1402 9.76424 22.5602 9.31624 21.9952L9.25224 21.9152L9.58424 21.8242C10.6725 21.533 11.7386 21.1644 12.7742 20.7212C12.9162 20.6612 13.0342 20.6122 13.0362 20.6152ZM16.6262 21.8682C16.6272 21.8682 16.6282 21.8692 16.6282 21.8712C16.6282 21.9512 16.4452 22.6992 16.2922 23.2412C16.1642 23.6942 16.0562 24.0492 15.8572 24.6782C15.8065 24.8479 15.7505 25.0159 15.6892 25.1822C14.6628 25.0067 13.6573 24.7248 12.6892 24.3412C12.4722 24.2562 12.259 24.1618 12.0502 24.0582C12.0442 24.0512 12.2632 23.9482 12.5362 23.8282C14.1912 23.1072 15.9052 22.2852 16.4912 21.9322C16.5322 21.9031 16.5779 21.8815 16.6262 21.8682ZM8.33924 22.1512C8.34824 22.1602 7.88524 22.8222 7.23924 23.7272L6.65224 24.5502C6.55524 24.6892 6.40724 24.9082 6.32324 25.0382L6.17024 25.2742L6.00824 25.1372C5.81724 24.9772 5.48324 24.6362 5.33124 24.4472C5.01924 24.0582 4.80824 23.6492 4.72424 23.2732C4.68624 23.0992 4.68424 23.0112 4.72124 23.0002C5.36505 22.8449 6.00972 22.6932 6.65524 22.5452L7.95524 22.2402C8.16424 22.1902 8.33724 22.1502 8.33924 22.1512ZM8.80424 22.3292L8.92124 22.4602C9.40989 23.0149 9.9862 23.4859 10.6272 23.8542C10.7422 23.9202 10.8292 23.9782 10.8222 23.9822C9.38308 24.5039 7.9397 25.0139 6.49224 25.5122C6.46745 25.4974 6.44342 25.4814 6.42024 25.4642L6.35324 25.4162L6.45824 25.2642C6.79824 24.7712 7.22624 24.2292 8.16324 23.1022L8.80424 22.3292ZM11.7042 24.4022C11.7072 24.3992 11.8692 24.4562 12.0662 24.5302C12.5392 24.7072 12.9102 24.8222 13.4132 24.9482C14.0302 25.1032 14.9232 25.2582 15.4512 25.3022C15.5312 25.3082 15.5732 25.3182 15.5612 25.3262C15.5362 25.3422 15.0012 25.5202 14.6082 25.6442C13.0672 26.1129 11.5218 26.5673 9.97224 27.0072C9.93724 27.0142 9.81524 26.9822 9.81524 26.9672C9.81524 26.9582 9.90224 26.8482 10.0082 26.7212C10.537 26.088 11.0298 25.4256 11.4842 24.7372C11.5572 24.6252 11.6305 24.5136 11.7042 24.4022ZM11.0622 24.4202C11.0672 24.4252 10.8092 24.8382 10.3562 25.5522C10.1642 25.8532 9.94724 26.1972 9.87324 26.3142C9.79824 26.4322 9.68924 26.6122 9.63124 26.7142L9.52424 26.8992L9.47024 26.8852C9.34024 26.8502 8.42124 26.5252 8.17924 26.4292C7.87824 26.3092 7.56424 26.1652 7.33324 26.0402C7.04424 25.8842 6.67824 25.6522 6.70624 25.6432L7.81124 25.3412C9.40324 24.9072 10.2842 24.6582 10.8612 24.4772C10.9702 24.4442 11.0612 24.4182 11.0622 24.4202ZM15.5852 25.4812H15.5912C15.6062 25.5192 15.0162 27.1512 14.8012 27.6692C14.7522 27.7852 14.7352 27.8142 14.7092 27.8122C14.2307 27.7517 13.753 27.685 13.2762 27.6122C12.3702 27.4742 10.8532 27.2092 10.4702 27.1222L10.3812 27.1022L10.9242 26.9802C12.0882 26.7182 12.6472 26.5772 13.2142 26.4032C13.9451 26.1782 14.6595 25.9029 15.3522 25.5792C15.4652 25.5272 15.5622 25.4862 15.5852 25.4812Z" fill="white"/>
</svg>
