<svg width="100" height="32" viewBox="0 0 100 32" fill="none" xmlns="http://www.w3.org/2000/svg">
<path d="M95 0H31V32H95C97.7614 32 100 29.7614 100 27V5C100 2.23858 97.7614 0 95 0Z" fill="#0F1418"/>
<path d="M41.46 20.126L38.16 12.218H38.112V19.472L39.174 19.712V20H36.528V19.712L37.596 19.472V11.378L36.528 11.15V10.862H39.174L42.06 17.774H42.12L45.024 10.862H47.586V11.15L46.536 11.378V19.472L47.586 19.712V20H44.118V19.712L45.18 19.472V12.302H45.132L41.82 20.126H41.46ZM51.5139 20.126C50.8979 20.126 50.3519 19.984 49.8759 19.7C49.3999 19.412 49.0259 19.022 48.7539 18.53C48.4859 18.034 48.3519 17.476 48.3519 16.856C48.3519 16.232 48.4859 15.674 48.7539 15.182C49.0259 14.69 49.3999 14.302 49.8759 14.018C50.3519 13.73 50.8979 13.586 51.5139 13.586C52.1299 13.586 52.6739 13.73 53.1459 14.018C53.6219 14.302 53.9959 14.69 54.2679 15.182C54.5399 15.674 54.6759 16.232 54.6759 16.856C54.6759 17.476 54.5399 18.034 54.2679 18.53C53.9959 19.022 53.6219 19.412 53.1459 19.7C52.6739 19.984 52.1299 20.126 51.5139 20.126ZM51.5019 19.574C51.7939 19.574 52.0519 19.51 52.2759 19.382C52.4999 19.25 52.6879 19.064 52.8399 18.824C52.9959 18.58 53.1139 18.292 53.1939 17.96C53.2739 17.624 53.3139 17.252 53.3139 16.844C53.3139 16.44 53.2739 16.072 53.1939 15.74C53.1179 15.408 53.0039 15.122 52.8519 14.882C52.6999 14.642 52.5119 14.458 52.2879 14.33C52.0639 14.198 51.8059 14.132 51.5139 14.132C51.2219 14.132 50.9639 14.198 50.7399 14.33C50.5159 14.458 50.3279 14.642 50.1759 14.882C50.0239 15.122 49.9079 15.41 49.8279 15.746C49.7519 16.078 49.7139 16.448 49.7139 16.856C49.7139 17.264 49.7519 17.634 49.8279 17.966C49.9079 18.298 50.0239 18.584 50.1759 18.824C50.3279 19.064 50.5139 19.25 50.7339 19.382C50.9579 19.51 51.2139 19.574 51.5019 19.574ZM59.4673 20V19.736L60.3433 19.562V15.71C60.3433 15.234 60.2473 14.88 60.0553 14.648C59.8633 14.412 59.5533 14.294 59.1253 14.294C58.4973 14.294 57.9753 14.58 57.5593 15.152V14.654C57.8953 14.318 58.2633 14.056 58.6633 13.868C59.0633 13.68 59.4613 13.586 59.8573 13.586C60.9973 13.586 61.5673 14.124 61.5673 15.2V19.562L62.4553 19.736V20H59.4673ZM55.5613 20V19.736L56.4613 19.55V14.672L55.5733 14.342V14.168L57.4933 13.586H57.6253V14.648L57.6853 14.708V19.55L58.5673 19.736V20H55.5613ZM67.111 14.03C67.179 13.834 67.269 13.634 67.381 13.43C67.493 13.222 67.633 13.046 67.801 12.902C67.969 12.758 68.167 12.686 68.395 12.686C68.583 12.686 68.747 12.74 68.887 12.848C69.027 12.956 69.097 13.104 69.097 13.292C69.097 13.452 69.043 13.59 68.935 13.706C68.827 13.818 68.693 13.874 68.533 13.874C68.417 13.874 68.331 13.848 68.275 13.796C68.219 13.744 68.167 13.692 68.119 13.64C68.075 13.588 68.003 13.562 67.903 13.562C67.795 13.562 67.697 13.632 67.609 13.772C67.521 13.908 67.459 14.064 67.423 14.24L67.111 14.03ZM65.821 17.594C66.125 17.594 66.361 17.496 66.529 17.3C66.701 17.104 66.821 16.862 66.889 16.574C66.957 16.282 66.991 16 66.991 15.728C66.991 15.556 66.975 15.37 66.943 15.17C66.915 14.966 66.861 14.774 66.781 14.594C66.705 14.41 66.593 14.26 66.445 14.144C66.301 14.024 66.115 13.964 65.887 13.964C65.647 13.964 65.451 14.028 65.299 14.156C65.147 14.28 65.029 14.442 64.945 14.642C64.861 14.838 64.803 15.044 64.771 15.26C64.739 15.476 64.723 15.674 64.723 15.854C64.723 16.082 64.751 16.332 64.807 16.604C64.863 16.872 64.969 17.104 65.125 17.3C65.285 17.496 65.517 17.594 65.821 17.594ZM65.827 17.99C65.403 17.99 65.079 18.04 64.855 18.14C64.631 18.236 64.519 18.386 64.519 18.59C64.519 18.734 64.619 18.854 64.819 18.95C65.023 19.042 65.417 19.132 66.001 19.22L66.859 19.37C67.555 19.478 68.067 19.662 68.395 19.922C68.727 20.178 68.893 20.526 68.893 20.966C68.893 21.33 68.791 21.646 68.587 21.914C68.383 22.182 68.109 22.402 67.765 22.574C67.425 22.75 67.045 22.88 66.625 22.964C66.205 23.048 65.779 23.09 65.347 23.09C65.031 23.09 64.721 23.06 64.417 23C64.113 22.944 63.837 22.854 63.589 22.73C63.345 22.606 63.149 22.446 63.001 22.25C62.853 22.054 62.779 21.816 62.779 21.536C62.779 21.208 62.901 20.912 63.145 20.648C63.389 20.388 63.809 20.138 64.405 19.898L64.771 20.048C64.467 20.164 64.229 20.344 64.057 20.588C63.885 20.836 63.799 21.102 63.799 21.386C63.799 21.678 63.881 21.918 64.045 22.106C64.209 22.298 64.427 22.44 64.699 22.532C64.975 22.628 65.273 22.676 65.593 22.676C65.981 22.676 66.351 22.632 66.703 22.544C67.059 22.456 67.349 22.32 67.573 22.136C67.801 21.952 67.915 21.716 67.915 21.428C67.915 21.28 67.867 21.146 67.771 21.026C67.675 20.906 67.489 20.792 67.213 20.684C66.941 20.58 66.539 20.478 66.007 20.378L65.017 20.192C64.493 20.092 64.099 19.936 63.835 19.724C63.575 19.512 63.445 19.258 63.445 18.962C63.445 18.826 63.487 18.68 63.571 18.524C63.659 18.368 63.827 18.222 64.075 18.086C64.323 17.946 64.689 17.842 65.173 17.774L65.827 17.99ZM65.827 17.99C65.359 17.99 64.945 17.9 64.585 17.72C64.225 17.536 63.943 17.28 63.739 16.952C63.535 16.62 63.433 16.234 63.433 15.794C63.433 15.37 63.537 14.992 63.745 14.66C63.957 14.328 64.245 14.066 64.609 13.874C64.973 13.682 65.385 13.586 65.845 13.586C66.301 13.586 66.713 13.68 67.081 13.868C67.449 14.052 67.741 14.308 67.957 14.636C68.173 14.964 68.281 15.338 68.281 15.758C68.281 16.154 68.179 16.522 67.975 16.862C67.771 17.198 67.485 17.47 67.117 17.678C66.749 17.886 66.319 17.99 65.827 17.99ZM72.6546 20.126C72.0386 20.126 71.4926 19.984 71.0166 19.7C70.5406 19.412 70.1666 19.022 69.8946 18.53C69.6266 18.034 69.4926 17.476 69.4926 16.856C69.4926 16.232 69.6266 15.674 69.8946 15.182C70.1666 14.69 70.5406 14.302 71.0166 14.018C71.4926 13.73 72.0386 13.586 72.6546 13.586C73.2706 13.586 73.8146 13.73 74.2866 14.018C74.7626 14.302 75.1366 14.69 75.4086 15.182C75.6806 15.674 75.8166 16.232 75.8166 16.856C75.8166 17.476 75.6806 18.034 75.4086 18.53C75.1366 19.022 74.7626 19.412 74.2866 19.7C73.8146 19.984 73.2706 20.126 72.6546 20.126ZM72.6426 19.574C72.9346 19.574 73.1926 19.51 73.4166 19.382C73.6406 19.25 73.8286 19.064 73.9806 18.824C74.1366 18.58 74.2546 18.292 74.3346 17.96C74.4146 17.624 74.4546 17.252 74.4546 16.844C74.4546 16.44 74.4146 16.072 74.3346 15.74C74.2586 15.408 74.1446 15.122 73.9926 14.882C73.8406 14.642 73.6526 14.458 73.4286 14.33C73.2046 14.198 72.9466 14.132 72.6546 14.132C72.3626 14.132 72.1046 14.198 71.8806 14.33C71.6566 14.458 71.4686 14.642 71.3166 14.882C71.1646 15.122 71.0486 15.41 70.9686 15.746C70.8926 16.078 70.8546 16.448 70.8546 16.856C70.8546 17.264 70.8926 17.634 70.9686 17.966C71.0486 18.298 71.1646 18.584 71.3166 18.824C71.4686 19.064 71.6546 19.25 71.8746 19.382C72.0986 19.51 72.3546 19.574 72.6426 19.574ZM76.6187 20V19.7L77.6387 19.472V11.378L76.6187 11.15V10.862H79.6127C80.2527 10.862 80.8027 10.89 81.2627 10.946C81.7267 11.002 82.1307 11.094 82.4747 11.222C82.8227 11.346 83.1367 11.514 83.4167 11.726C83.9607 12.13 84.3807 12.656 84.6767 13.304C84.9727 13.948 85.1207 14.662 85.1207 15.446C85.1207 16.254 84.9627 16.998 84.6467 17.678C84.3307 18.354 83.8947 18.894 83.3387 19.298C82.9867 19.55 82.6027 19.73 82.1867 19.838C81.7707 19.946 81.2627 20 80.6627 20H76.6187ZM80.2187 19.526C80.7867 19.526 81.2527 19.454 81.6167 19.31C81.9807 19.162 82.3027 18.92 82.5827 18.584C82.8907 18.2 83.1247 17.73 83.2847 17.174C83.4487 16.614 83.5307 15.996 83.5307 15.32C83.5307 14.644 83.4487 14.046 83.2847 13.526C83.1207 13.006 82.8787 12.57 82.5587 12.218C82.2667 11.91 81.9187 11.69 81.5147 11.558C81.1107 11.422 80.5867 11.354 79.9427 11.354H78.9887V18.812C78.9887 19.08 79.0787 19.266 79.2587 19.37C79.4387 19.474 79.7587 19.526 80.2187 19.526ZM86.2163 20V19.712L87.2363 19.472V11.384L86.2163 11.15V10.862H89.8043C90.3563 10.862 90.8143 10.902 91.1783 10.982C91.5463 11.058 91.8523 11.178 92.0963 11.342C92.3803 11.538 92.6023 11.788 92.7623 12.092C92.9223 12.396 93.0023 12.724 93.0023 13.076C93.0023 13.588 92.8303 14.02 92.4863 14.372C92.1463 14.724 91.6563 14.964 91.0163 15.092V15.134C91.4963 15.186 91.9163 15.324 92.2763 15.548C92.6363 15.768 92.9143 16.052 93.1103 16.4C93.3103 16.748 93.4103 17.14 93.4103 17.576C93.4103 17.94 93.3383 18.28 93.1943 18.596C93.0503 18.912 92.8523 19.172 92.6003 19.376C92.3243 19.6 91.9863 19.76 91.5863 19.856C91.1863 19.952 90.6583 20 90.0023 20H86.2163ZM89.6183 19.526C90.4023 19.526 90.9803 19.36 91.3523 19.028C91.7283 18.692 91.9163 18.174 91.9163 17.474C91.9163 16.758 91.7223 16.232 91.3343 15.896C90.9463 15.556 90.3403 15.386 89.5163 15.386H88.5863V18.818C88.5863 19.094 88.6583 19.282 88.8023 19.382C88.9503 19.478 89.2223 19.526 89.6183 19.526ZM88.5863 14.894H89.2463C89.4623 14.894 89.6423 14.892 89.7863 14.888C89.9343 14.88 90.0703 14.87 90.1943 14.858C90.6343 14.81 90.9723 14.632 91.2083 14.324C91.4443 14.012 91.5623 13.59 91.5623 13.058C91.5623 12.774 91.5263 12.536 91.4543 12.344C91.3823 12.148 91.2683 11.974 91.1123 11.822C90.9403 11.646 90.7323 11.524 90.4883 11.456C90.2483 11.384 89.9183 11.348 89.4983 11.348H88.5863V14.894Z" fill="white"/>
<path d="M31 0H5C2.23858 0 0 2.23858 0 5V27C0 29.7614 2.23858 32 5 32H31V0Z" fill="#47A248"/>
<path d="M20.5836 13.555C19.3196 7.975 16.3316 6.141 16.0106 5.44C15.7306 5.046 15.4806 4.486 15.2756 4C15.2396 4.495 15.2206 4.685 14.7526 5.184C14.0296 5.75 10.3146 8.866 10.0126 15.204C9.73056 21.116 14.2826 24.639 14.9006 25.088L14.9706 25.138C15.0993 26.0898 15.2093 27.0439 15.3006 28H15.7816C15.8956 26.968 16.0656 25.944 16.2916 24.93C16.7086 24.634 16.8956 24.467 17.1416 24.237C18.3065 23.1593 19.2323 21.8491 19.8592 20.3911C20.486 18.9332 20.7999 17.3599 20.7806 15.773C20.7906 14.959 20.6776 14.111 20.5836 13.555ZM15.2476 21.75C15.2476 21.75 15.2476 13.459 15.5226 13.46C15.7356 13.46 16.0126 24.155 16.0126 24.155C15.6316 24.11 15.2476 22.395 15.2476 21.75Z" fill="white"/>
</svg>
