<svg width="100" height="32" viewBox="0 0 100 32" fill="none" xmlns="http://www.w3.org/2000/svg">
<path d="M95 0H31V32H95C97.7614 32 100 29.7614 100 27V5C100 2.23858 97.7614 0 95 0Z" fill="#0F1418"/>
<path d="M49.46 20.126L46.16 12.218H46.112V19.472L47.174 19.712V20H44.528V19.712L45.596 19.472V11.378L44.528 11.15V10.862H47.174L50.06 17.774H50.12L53.024 10.862H55.586V11.15L54.536 11.378V19.472L55.586 19.712V20H52.118V19.712L53.18 19.472V12.302H53.132L49.82 20.126H49.46ZM57.2822 23.09C56.9742 23.09 56.7242 23.014 56.5322 22.862C56.3402 22.714 56.2442 22.516 56.2442 22.268C56.2442 22.072 56.3062 21.916 56.4302 21.8C56.5582 21.684 56.7242 21.626 56.9282 21.626C57.0882 21.626 57.2142 21.668 57.3062 21.752C57.3982 21.84 57.4642 21.984 57.5042 22.184C57.5282 22.336 57.5562 22.434 57.5882 22.478C57.6242 22.526 57.6842 22.55 57.7682 22.55C57.8962 22.55 58.0162 22.474 58.1282 22.322C58.2442 22.174 58.3582 21.93 58.4702 21.59L58.9562 20.126L56.6102 14.444C56.5382 14.296 56.4382 14.186 56.3102 14.114C56.1822 14.042 55.9962 13.994 55.7522 13.97V13.706H58.8182V13.97C58.5422 13.986 58.3442 14.01 58.2242 14.042C58.1042 14.07 58.0402 14.122 58.0322 14.198C58.0242 14.274 58.0482 14.394 58.1042 14.558L59.5502 18.254H59.6042L60.7322 14.9C60.8482 14.584 60.8422 14.356 60.7142 14.216C60.5902 14.072 60.3182 13.99 59.8982 13.97V13.706H62.5922V13.97C62.2922 14.018 62.0582 14.076 61.8902 14.144C61.7262 14.208 61.6002 14.3 61.5122 14.42C61.4242 14.536 61.3422 14.7 61.2662 14.912L58.8962 21.674C58.8122 21.926 58.7202 22.134 58.6202 22.298C58.5202 22.466 58.4182 22.598 58.3142 22.694C58.0582 22.958 57.7142 23.09 57.2822 23.09ZM66.1159 20.108C65.7879 20.108 65.4679 20.06 65.1559 19.964C64.8479 19.868 64.5219 19.718 64.1779 19.514L63.7039 20H63.4579L63.2359 16.958L63.5599 16.892C63.7999 17.832 64.1159 18.514 64.5079 18.938C64.9039 19.362 65.4259 19.574 66.0739 19.574C66.6179 19.574 67.0479 19.444 67.3639 19.184C67.6799 18.92 67.8379 18.564 67.8379 18.116C67.8379 17.764 67.7279 17.45 67.5079 17.174C67.2919 16.894 66.9359 16.614 66.4399 16.334L65.5219 15.848C64.7739 15.444 64.2379 15.042 63.9139 14.642C63.5899 14.242 63.4279 13.776 63.4279 13.244C63.4279 12.764 63.5459 12.336 63.7819 11.96C64.0179 11.58 64.3399 11.282 64.7479 11.066C65.1599 10.846 65.6219 10.736 66.1339 10.736C66.8339 10.736 67.4439 10.982 67.9639 11.474L68.3299 10.85H68.5879L68.6959 13.472H68.3539C68.1659 12.724 67.8939 12.172 67.5379 11.816C67.1859 11.456 66.7359 11.276 66.1879 11.276C65.7439 11.276 65.3919 11.394 65.1319 11.63C64.8759 11.866 64.7479 12.19 64.7479 12.602C64.7479 12.974 64.8699 13.306 65.1139 13.598C65.3619 13.89 65.7779 14.19 66.3619 14.498L67.2559 14.978C67.8679 15.302 68.3099 15.662 68.5819 16.058C68.8579 16.454 68.9959 16.908 68.9959 17.42C68.9959 17.928 68.8679 18.386 68.6119 18.794C68.3599 19.198 68.0159 19.518 67.5799 19.754C67.1479 19.99 66.6599 20.108 66.1159 20.108ZM72.7355 21.956C72.5435 21.956 72.3895 21.892 72.2735 21.764C72.1615 21.64 72.1055 21.476 72.1055 21.272C72.1055 20.976 72.2215 20.704 72.4535 20.456C72.6895 20.212 73.0095 20.012 73.4135 19.856V19.808C72.7935 19.66 72.2515 19.378 71.7875 18.962C71.3235 18.542 70.9635 18.028 70.7075 17.42C70.4515 16.808 70.3235 16.144 70.3235 15.428C70.3235 14.76 70.4295 14.142 70.6415 13.574C70.8575 13.006 71.1595 12.51 71.5475 12.086C71.9395 11.658 72.3995 11.326 72.9275 11.09C73.4595 10.854 74.0415 10.736 74.6735 10.736C75.3055 10.736 75.8875 10.854 76.4195 11.09C76.9515 11.326 77.4115 11.658 77.7995 12.086C78.1915 12.51 78.4955 13.006 78.7115 13.574C78.9275 14.142 79.0355 14.76 79.0355 15.428C79.0355 16.212 78.8815 16.932 78.5735 17.588C78.2655 18.244 77.8335 18.78 77.2775 19.196C76.7255 19.612 76.0775 19.856 75.3335 19.928V19.982C75.5935 20.046 75.8555 20.142 76.1195 20.27C76.3835 20.398 76.6575 20.514 76.9415 20.618C77.2295 20.726 77.5295 20.78 77.8415 20.78C78.1015 20.78 78.3215 20.73 78.5015 20.63C78.6815 20.53 78.8535 20.376 79.0175 20.168L79.3415 20.3C79.0975 20.868 78.7835 21.292 78.3995 21.572C78.0155 21.856 77.6175 21.998 77.2055 21.998C76.8295 21.998 76.5115 21.898 76.2515 21.698C75.9915 21.502 75.7435 21.288 75.5075 21.056C75.1675 20.72 74.8795 20.486 74.6435 20.354C74.4075 20.222 74.1575 20.156 73.8935 20.156C73.6455 20.156 73.4615 20.206 73.3415 20.306C73.2215 20.406 73.1615 20.532 73.1615 20.684C73.1615 20.816 73.1955 20.922 73.2635 21.002C73.3315 21.082 73.3655 21.192 73.3655 21.332C73.3655 21.512 73.3055 21.66 73.1855 21.776C73.0655 21.896 72.9155 21.956 72.7355 21.956ZM74.6735 19.58C75.0295 19.58 75.3515 19.516 75.6395 19.388C75.9315 19.26 76.1875 19.074 76.4075 18.83C76.6315 18.586 76.8195 18.294 76.9715 17.954C77.1235 17.61 77.2375 17.224 77.3135 16.796C77.3895 16.368 77.4275 15.904 77.4275 15.404C77.4275 14.908 77.3895 14.45 77.3135 14.03C77.2375 13.606 77.1255 13.226 76.9775 12.89C76.8295 12.554 76.6455 12.268 76.4255 12.032C76.2055 11.792 75.9495 11.61 75.6575 11.486C75.3695 11.358 75.0475 11.294 74.6915 11.294C74.3315 11.294 74.0055 11.358 73.7135 11.486C73.4215 11.61 73.1635 11.792 72.9395 12.032C72.7195 12.272 72.5335 12.562 72.3815 12.902C72.2335 13.238 72.1215 13.62 72.0455 14.048C71.9695 14.472 71.9315 14.932 71.9315 15.428C71.9315 15.924 71.9695 16.384 72.0455 16.808C72.1215 17.232 72.2335 17.616 72.3815 17.96C72.5335 18.3 72.7195 18.592 72.9395 18.836C73.1595 19.076 73.4135 19.26 73.7015 19.388C73.9935 19.516 74.3175 19.58 74.6735 19.58ZM80.0953 20V19.712L81.1152 19.472V11.378L80.0953 11.15V10.862H83.5933V11.15L82.4653 11.378V19.502H85.8313C86.0473 19.138 86.2333 18.772 86.3893 18.404C86.5453 18.036 86.6953 17.624 86.8393 17.168H87.1933L86.7433 20H80.0953Z" fill="white"/>
<path d="M31 0H5C2.23858 0 0 2.23858 0 5V27C0 29.7614 2.23858 32 5 32H31V0Z" fill="#4479A1"/>
<path d="M19.405 9.64993C19.29 9.64993 19.212 9.66393 19.131 9.68293V9.69593H19.145C19.199 9.79993 19.291 9.87593 19.359 9.96893C19.413 10.0759 19.459 10.1829 19.513 10.2889L19.527 10.2739C19.621 10.2079 19.667 10.1019 19.667 9.94093C19.627 9.89393 19.621 9.84693 19.587 9.80093C19.547 9.73393 19.461 9.70093 19.407 9.64793L19.405 9.64993ZM8.77 22.8439H7.843C7.81693 21.3707 7.72685 19.8993 7.573 18.4339H7.565L6.155 22.8439H5.45L4.05 18.4339H4.04C3.93049 19.9016 3.86546 21.3723 3.845 22.8439H3C3.055 20.8779 3.192 19.0339 3.41 17.3139H4.56L5.895 21.3779H5.903L7.25 17.3139H8.345C8.587 19.3289 8.729 21.1739 8.773 22.8439H8.77ZM12.787 18.7639C12.409 20.8089 11.911 22.2969 11.295 23.2239C10.813 23.9399 10.285 24.2969 9.712 24.2969C9.559 24.2969 9.372 24.2509 9.146 24.1589V23.6649C9.256 23.6819 9.386 23.6909 9.532 23.6909C9.8 23.6909 10.015 23.6159 10.179 23.4689C10.376 23.2889 10.474 23.0869 10.474 22.8639C10.474 22.7089 10.397 22.3939 10.244 21.9199L9.23 18.7639H10.14L10.867 21.1239C11.031 21.6599 11.1 22.0339 11.072 22.2469C11.472 21.1829 11.75 20.0199 11.907 18.7639H12.787ZM25.112 22.8439H22.482V17.3139H23.367V22.1639H25.112V22.8439ZM21.792 22.9789L20.776 22.4789C20.866 22.4029 20.953 22.3209 21.031 22.2289C21.464 21.7229 21.679 20.9709 21.679 19.9759C21.679 18.1459 20.961 17.2299 19.524 17.2299C18.82 17.2299 18.27 17.4619 17.874 17.9269C17.444 18.4349 17.228 19.1829 17.228 20.1719C17.228 21.1439 17.418 21.8579 17.802 22.3119C18.152 22.7219 18.679 22.9269 19.385 22.9269C19.649 22.9269 19.891 22.8939 20.11 22.8289L21.435 23.6009L21.795 22.9789H21.792ZM18.5 21.7369C18.275 21.3769 18.163 20.7969 18.163 20.0009C18.163 18.6079 18.587 17.9109 19.433 17.9109C19.876 17.9109 20.203 18.0779 20.41 18.4109C20.634 18.7729 20.746 19.3469 20.746 20.1339C20.746 21.5379 20.322 22.2419 19.476 22.2419C19.031 22.2419 18.706 22.0749 18.498 21.7419L18.5 21.7369ZM16.842 21.3119C16.842 21.7819 16.67 22.1679 16.326 22.4679C15.982 22.7679 15.523 22.9179 14.942 22.9179C14.399 22.9179 13.878 22.7459 13.369 22.4029L13.606 21.9269C14.044 22.1469 14.439 22.2549 14.796 22.2549C15.128 22.2549 15.389 22.1819 15.579 22.0349C15.674 21.9633 15.7506 21.8703 15.8028 21.7634C15.8549 21.6565 15.881 21.5388 15.879 21.4199C15.879 21.0899 15.649 20.8099 15.231 20.5749C14.843 20.3619 14.068 19.9179 14.068 19.9179C13.646 19.6109 13.436 19.2819 13.436 18.7409C13.436 18.2909 13.593 17.9309 13.906 17.6559C14.221 17.3779 14.626 17.2409 15.126 17.2409C15.638 17.2409 16.106 17.3769 16.526 17.6509L16.313 18.1269C15.9774 17.9795 15.6155 17.9013 15.249 17.8969C14.966 17.8969 14.747 17.9649 14.595 18.1029C14.5179 18.1668 14.4557 18.2469 14.4128 18.3374C14.37 18.4279 14.3475 18.5268 14.347 18.6269C14.347 18.9549 14.581 19.2369 15.013 19.4769C15.406 19.6919 16.2 20.1469 16.2 20.1469C16.633 20.4519 16.848 20.7769 16.848 21.3149L16.842 21.3119ZM26.224 15.4599C25.689 15.4459 25.274 15.4999 24.927 15.6479C24.827 15.6879 24.667 15.6879 24.653 15.8149C24.708 15.8679 24.716 15.9549 24.763 16.0289C24.843 16.1629 24.981 16.3419 25.109 16.4359C25.249 16.5459 25.389 16.6519 25.536 16.7459C25.796 16.9059 26.091 17.0009 26.346 17.1619C26.491 17.2559 26.639 17.3749 26.786 17.4749C26.859 17.5249 26.906 17.6149 27 17.6469V17.6269C26.954 17.5669 26.94 17.4799 26.895 17.4129C26.828 17.3459 26.761 17.2859 26.695 17.2199C26.4987 16.9612 26.2644 16.7336 26 16.5449C25.786 16.3989 25.318 16.1949 25.23 15.9499L25.217 15.9359C25.363 15.9229 25.537 15.8699 25.677 15.8299C25.904 15.7699 26.112 15.7829 26.347 15.7239C26.453 15.6969 26.56 15.6639 26.667 15.6299V15.5699C26.547 15.4499 26.457 15.2869 26.333 15.1749C25.9869 14.8724 25.6178 14.5972 25.229 14.3519C25.019 14.2179 24.753 14.1319 24.532 14.0179C24.452 13.9779 24.318 13.9579 24.272 13.8909C24.152 13.7449 24.082 13.5509 23.997 13.3769C23.8006 12.996 23.6182 12.6081 23.45 12.2139C23.33 11.9519 23.257 11.6909 23.11 11.4509C22.42 10.3139 21.673 9.62493 20.524 8.95093C20.277 8.81093 19.981 8.75093 19.668 8.67693C19.501 8.66893 19.334 8.65693 19.168 8.64993C19.058 8.60293 18.952 8.47593 18.858 8.41493C18.478 8.17493 17.494 7.65493 17.214 8.34293C17.034 8.77693 17.481 9.20493 17.636 9.42493C17.751 9.57793 17.896 9.75293 17.976 9.92493C18.023 10.0409 18.036 10.1599 18.083 10.2809C18.189 10.5749 18.29 10.9029 18.43 11.1779C18.503 11.3179 18.583 11.4649 18.677 11.5909C18.731 11.6639 18.823 11.6979 18.844 11.8179C18.75 11.9539 18.744 12.1519 18.69 12.3179C18.45 13.0749 18.544 14.0109 18.884 14.5679C18.991 14.7339 19.246 15.1019 19.587 14.9609C19.887 14.8409 19.821 14.4609 19.907 14.1259C19.927 14.0459 19.914 13.9929 19.955 13.9389V13.9539C20.049 14.1419 20.143 14.3209 20.229 14.5089C20.435 14.8369 20.795 15.1769 21.096 15.4039C21.256 15.5239 21.383 15.7319 21.583 15.8059V15.7859H21.568C21.525 15.7279 21.468 15.6999 21.414 15.6529C21.2872 15.5288 21.1702 15.3951 21.064 15.2529C20.7822 14.8679 20.5324 14.4606 20.317 14.0349C20.207 13.8249 20.115 13.5989 20.027 13.3919C19.987 13.3119 19.987 13.1919 19.92 13.1519C19.82 13.2979 19.673 13.4249 19.6 13.6049C19.473 13.8929 19.46 14.2469 19.412 14.6149C19.385 14.6219 19.398 14.6149 19.385 14.6289C19.171 14.5769 19.098 14.3549 19.018 14.1689C18.818 13.6939 18.785 12.9309 18.958 12.3839C19.005 12.2439 19.205 11.8019 19.125 11.6679C19.083 11.5409 18.951 11.4679 18.878 11.3649C18.7841 11.2309 18.7037 11.0878 18.638 10.9379C18.478 10.5639 18.398 10.1499 18.224 9.77593C18.144 9.60293 18.004 9.42193 17.89 9.26293C17.763 9.08293 17.623 8.95593 17.522 8.74293C17.489 8.66993 17.442 8.54893 17.495 8.46893C17.509 8.41493 17.537 8.39393 17.589 8.37893C17.677 8.30693 17.924 8.40093 18.011 8.44093C18.258 8.54093 18.466 8.63493 18.673 8.77493C18.767 8.84093 18.868 8.96793 18.988 9.00093H19.128C19.342 9.04793 19.583 9.01493 19.783 9.07393C20.138 9.18793 20.458 9.35393 20.745 9.53393C21.6293 10.0988 22.3486 10.8875 22.83 11.8199C22.91 11.9739 22.945 12.1149 23.018 12.2749C23.158 12.6049 23.331 12.9379 23.473 13.2569C23.613 13.5719 23.748 13.8929 23.949 14.1539C24.049 14.2939 24.451 14.3669 24.631 14.4399C24.764 14.4999 24.971 14.5549 25.091 14.6279C25.321 14.7679 25.545 14.9279 25.761 15.0819C25.871 15.1579 26.204 15.3249 26.224 15.4599Z" fill="white"/>
</svg>
