<svg width="111" height="32" viewBox="0 0 111 32" fill="none" xmlns="http://www.w3.org/2000/svg">
<path d="M105.203 0H31V32H105.203C108.405 32 111 29.7614 111 27V5C111 2.23858 108.405 0 105.203 0Z" fill="#0F1418"/>
<path d="M37.564 19V18.712L38.584 18.472V10.384L37.564 10.15V9.862H41.302C41.934 9.862 42.492 9.968 42.976 10.18C43.46 10.388 43.838 10.694 44.11 11.098C44.382 11.498 44.518 11.99 44.518 12.574C44.518 13.39 44.214 14.014 43.606 14.446C42.998 14.878 42.168 15.094 41.116 15.094H39.934V18.472L41.302 18.712V19H37.564ZM39.934 14.614H40.72C41.2 14.614 41.582 14.56 41.866 14.452C42.154 14.34 42.384 14.186 42.556 13.99C42.736 13.786 42.86 13.554 42.928 13.294C43 13.03 43.036 12.752 43.036 12.46C43.036 11.968 42.948 11.558 42.772 11.23C42.596 10.902 42.348 10.668 42.028 10.528C41.784 10.408 41.416 10.348 40.924 10.348H39.934V14.614ZM48.2952 19.126C47.6792 19.126 47.1332 18.984 46.6572 18.7C46.1812 18.412 45.8072 18.022 45.5352 17.53C45.2672 17.034 45.1332 16.476 45.1332 15.856C45.1332 15.232 45.2672 14.674 45.5352 14.182C45.8072 13.69 46.1812 13.302 46.6572 13.018C47.1332 12.73 47.6792 12.586 48.2952 12.586C48.9112 12.586 49.4552 12.73 49.9272 13.018C50.4032 13.302 50.7772 13.69 51.0492 14.182C51.3212 14.674 51.4572 15.232 51.4572 15.856C51.4572 16.476 51.3212 17.034 51.0492 17.53C50.7772 18.022 50.4032 18.412 49.9272 18.7C49.4552 18.984 48.9112 19.126 48.2952 19.126ZM48.2832 18.574C48.5752 18.574 48.8332 18.51 49.0572 18.382C49.2812 18.25 49.4692 18.064 49.6212 17.824C49.7772 17.58 49.8952 17.292 49.9752 16.96C50.0552 16.624 50.0952 16.252 50.0952 15.844C50.0952 15.44 50.0552 15.072 49.9752 14.74C49.8992 14.408 49.7852 14.122 49.6332 13.882C49.4812 13.642 49.2932 13.458 49.0692 13.33C48.8452 13.198 48.5872 13.132 48.2952 13.132C48.0032 13.132 47.7452 13.198 47.5212 13.33C47.2972 13.458 47.1092 13.642 46.9572 13.882C46.8052 14.122 46.6892 14.41 46.6092 14.746C46.5332 15.078 46.4952 15.448 46.4952 15.856C46.4952 16.264 46.5332 16.634 46.6092 16.966C46.6892 17.298 46.8052 17.584 46.9572 17.824C47.1092 18.064 47.2952 18.25 47.5152 18.382C47.7392 18.51 47.9952 18.574 48.2832 18.574ZM54.3946 19.126C54.1386 19.126 53.8546 19.1 53.5426 19.048C53.2346 19 52.9646 18.938 52.7326 18.862L52.6546 16.936H52.9666C53.0186 17.528 53.1706 17.976 53.4226 18.28C53.6746 18.58 54.0246 18.73 54.4726 18.73C54.8206 18.73 55.0986 18.634 55.3066 18.442C55.5186 18.246 55.6246 17.99 55.6246 17.674C55.6246 17.41 55.5466 17.184 55.3906 16.996C55.2346 16.804 54.9646 16.61 54.5806 16.414L54.0826 16.168C53.5706 15.912 53.2046 15.644 52.9846 15.364C52.7646 15.08 52.6546 14.738 52.6546 14.338C52.6546 13.778 52.8486 13.346 53.2366 13.042C53.6286 12.738 54.1866 12.586 54.9106 12.586C55.1906 12.586 55.4606 12.606 55.7206 12.646C55.9846 12.682 56.1906 12.732 56.3386 12.796V14.44H56.0626C55.9466 13.464 55.4926 12.976 54.7006 12.976C54.3926 12.976 54.1446 13.06 53.9566 13.228C53.7726 13.392 53.6806 13.616 53.6806 13.9C53.6806 14.148 53.7606 14.36 53.9206 14.536C54.0846 14.712 54.3606 14.894 54.7486 15.082L55.2946 15.346C55.7666 15.578 56.1066 15.834 56.3146 16.114C56.5226 16.394 56.6266 16.748 56.6266 17.176C56.6266 17.772 56.4266 18.246 56.0266 18.598C55.6266 18.95 55.0826 19.126 54.3946 19.126ZM59.6348 19.126C59.1908 19.126 58.8528 19 58.6208 18.748C58.3888 18.496 58.2728 18.134 58.2728 17.662V13.15H57.4928L57.4568 12.934L59.2568 11.146L59.4908 11.17V12.706H61.2068L61.1048 13.15H59.4908V17.542C59.4908 18.198 59.7268 18.526 60.1988 18.526C60.3588 18.526 60.5168 18.484 60.6728 18.4C60.8328 18.316 60.9688 18.2 61.0808 18.052L61.2908 18.238C61.1068 18.51 60.8668 18.726 60.5708 18.886C60.2788 19.046 59.9668 19.126 59.6348 19.126ZM65.779 13.03C65.847 12.834 65.937 12.634 66.049 12.43C66.161 12.222 66.301 12.046 66.469 11.902C66.637 11.758 66.835 11.686 67.063 11.686C67.251 11.686 67.415 11.74 67.555 11.848C67.695 11.956 67.765 12.104 67.765 12.292C67.765 12.452 67.711 12.59 67.603 12.706C67.495 12.818 67.361 12.874 67.201 12.874C67.085 12.874 66.999 12.848 66.943 12.796C66.887 12.744 66.835 12.692 66.787 12.64C66.743 12.588 66.671 12.562 66.571 12.562C66.463 12.562 66.365 12.632 66.277 12.772C66.189 12.908 66.127 13.064 66.091 13.24L65.779 13.03ZM64.489 16.594C64.793 16.594 65.029 16.496 65.197 16.3C65.369 16.104 65.489 15.862 65.557 15.574C65.625 15.282 65.659 15 65.659 14.728C65.659 14.556 65.643 14.37 65.611 14.17C65.583 13.966 65.529 13.774 65.449 13.594C65.373 13.41 65.261 13.26 65.113 13.144C64.969 13.024 64.783 12.964 64.555 12.964C64.315 12.964 64.119 13.028 63.967 13.156C63.815 13.28 63.697 13.442 63.613 13.642C63.529 13.838 63.471 14.044 63.439 14.26C63.407 14.476 63.391 14.674 63.391 14.854C63.391 15.082 63.419 15.332 63.475 15.604C63.531 15.872 63.637 16.104 63.793 16.3C63.953 16.496 64.185 16.594 64.489 16.594ZM64.495 16.99C64.071 16.99 63.747 17.04 63.523 17.14C63.299 17.236 63.187 17.386 63.187 17.59C63.187 17.734 63.287 17.854 63.487 17.95C63.691 18.042 64.085 18.132 64.669 18.22L65.527 18.37C66.223 18.478 66.735 18.662 67.063 18.922C67.395 19.178 67.561 19.526 67.561 19.966C67.561 20.33 67.459 20.646 67.255 20.914C67.051 21.182 66.777 21.402 66.433 21.574C66.093 21.75 65.713 21.88 65.293 21.964C64.873 22.048 64.447 22.09 64.015 22.09C63.699 22.09 63.389 22.06 63.085 22C62.781 21.944 62.505 21.854 62.257 21.73C62.013 21.606 61.817 21.446 61.669 21.25C61.521 21.054 61.447 20.816 61.447 20.536C61.447 20.208 61.569 19.912 61.813 19.648C62.057 19.388 62.477 19.138 63.073 18.898L63.439 19.048C63.135 19.164 62.897 19.344 62.725 19.588C62.553 19.836 62.467 20.102 62.467 20.386C62.467 20.678 62.549 20.918 62.713 21.106C62.877 21.298 63.095 21.44 63.367 21.532C63.643 21.628 63.941 21.676 64.261 21.676C64.649 21.676 65.019 21.632 65.371 21.544C65.727 21.456 66.017 21.32 66.241 21.136C66.469 20.952 66.583 20.716 66.583 20.428C66.583 20.28 66.535 20.146 66.439 20.026C66.343 19.906 66.157 19.792 65.881 19.684C65.609 19.58 65.207 19.478 64.675 19.378L63.685 19.192C63.161 19.092 62.767 18.936 62.503 18.724C62.243 18.512 62.113 18.258 62.113 17.962C62.113 17.826 62.155 17.68 62.239 17.524C62.327 17.368 62.495 17.222 62.743 17.086C62.991 16.946 63.357 16.842 63.841 16.774L64.495 16.99ZM64.495 16.99C64.027 16.99 63.613 16.9 63.253 16.72C62.893 16.536 62.611 16.28 62.407 15.952C62.203 15.62 62.101 15.234 62.101 14.794C62.101 14.37 62.205 13.992 62.413 13.66C62.625 13.328 62.913 13.066 63.277 12.874C63.641 12.682 64.053 12.586 64.513 12.586C64.969 12.586 65.381 12.68 65.749 12.868C66.117 13.052 66.409 13.308 66.625 13.636C66.841 13.964 66.949 14.338 66.949 14.758C66.949 15.154 66.847 15.522 66.643 15.862C66.439 16.198 66.153 16.47 65.785 16.678C65.417 16.886 64.987 16.99 64.495 16.99ZM68.0751 19V18.736L68.9751 18.55V13.66L68.0991 13.33V13.156L70.0191 12.58H70.1511V13.876L70.1991 13.936V18.55L71.4351 18.736V19H68.0751ZM70.1091 14.428L70.0851 13.936C70.3811 13.5 70.6751 13.164 70.9671 12.928C71.2631 12.692 71.5391 12.574 71.7951 12.574C72.0151 12.574 72.2011 12.65 72.3531 12.802C72.5051 12.95 72.5811 13.13 72.5811 13.342C72.5811 13.538 72.5151 13.704 72.3831 13.84C72.2511 13.972 72.0871 14.038 71.8911 14.038C71.6911 14.038 71.5351 13.964 71.4231 13.816C71.3431 13.724 71.2751 13.662 71.2191 13.63C71.1631 13.594 71.0991 13.576 71.0271 13.576C70.9111 13.576 70.7651 13.654 70.5891 13.81C70.4171 13.962 70.2571 14.168 70.1091 14.428ZM76.0516 19.126C75.4716 19.126 74.9616 18.994 74.5216 18.73C74.0856 18.462 73.7456 18.09 73.5016 17.614C73.2616 17.134 73.1416 16.58 73.1416 15.952C73.1416 15.284 73.2756 14.698 73.5436 14.194C73.8156 13.69 74.1936 13.296 74.6776 13.012C75.1656 12.728 75.7296 12.586 76.3696 12.586C77.1616 12.586 77.7676 12.816 78.1876 13.276C78.6116 13.736 78.8316 14.41 78.8476 15.298L78.7636 15.37H74.1136V15.022L77.4736 14.902C77.5016 14.798 77.5156 14.64 77.5156 14.428C77.5156 13.468 77.0936 12.988 76.2496 12.988C75.6696 12.988 75.2216 13.216 74.9056 13.672C74.5936 14.124 74.4376 14.766 74.4376 15.598C74.4376 17.338 75.1136 18.208 76.4656 18.208C77.3456 18.208 78.0196 17.888 78.4876 17.248L78.7096 17.386C78.5016 17.938 78.1636 18.366 77.6956 18.67C77.2316 18.974 76.6836 19.126 76.0516 19.126ZM82.9284 19.108C82.6004 19.108 82.2804 19.06 81.9684 18.964C81.6604 18.868 81.3344 18.718 80.9904 18.514L80.5164 19H80.2704L80.0484 15.958L80.3724 15.892C80.6124 16.832 80.9284 17.514 81.3204 17.938C81.7164 18.362 82.2384 18.574 82.8864 18.574C83.4304 18.574 83.8604 18.444 84.1764 18.184C84.4924 17.92 84.6504 17.564 84.6504 17.116C84.6504 16.764 84.5404 16.45 84.3204 16.174C84.1044 15.894 83.7484 15.614 83.2524 15.334L82.3344 14.848C81.5864 14.444 81.0504 14.042 80.7264 13.642C80.4024 13.242 80.2404 12.776 80.2404 12.244C80.2404 11.764 80.3584 11.336 80.5944 10.96C80.8304 10.58 81.1524 10.282 81.5604 10.066C81.9724 9.846 82.4344 9.736 82.9464 9.736C83.6464 9.736 84.2564 9.982 84.7764 10.474L85.1424 9.85H85.4004L85.5084 12.472H85.1664C84.9784 11.724 84.7064 11.172 84.3504 10.816C83.9984 10.456 83.5484 10.276 83.0004 10.276C82.5564 10.276 82.2044 10.394 81.9444 10.63C81.6884 10.866 81.5604 11.19 81.5604 11.602C81.5604 11.974 81.6824 12.306 81.9264 12.598C82.1744 12.89 82.5904 13.19 83.1744 13.498L84.0684 13.978C84.6804 14.302 85.1224 14.662 85.3944 15.058C85.6704 15.454 85.8084 15.908 85.8084 16.42C85.8084 16.928 85.6804 17.386 85.4244 17.794C85.1724 18.198 84.8284 18.518 84.3924 18.754C83.9604 18.99 83.4724 19.108 82.9284 19.108ZM89.548 20.956C89.356 20.956 89.202 20.892 89.086 20.764C88.974 20.64 88.918 20.476 88.918 20.272C88.918 19.976 89.034 19.704 89.266 19.456C89.502 19.212 89.822 19.012 90.226 18.856V18.808C89.606 18.66 89.064 18.378 88.6 17.962C88.136 17.542 87.776 17.028 87.52 16.42C87.264 15.808 87.136 15.144 87.136 14.428C87.136 13.76 87.242 13.142 87.454 12.574C87.67 12.006 87.972 11.51 88.36 11.086C88.752 10.658 89.212 10.326 89.74 10.09C90.272 9.854 90.854 9.736 91.486 9.736C92.118 9.736 92.7 9.854 93.232 10.09C93.764 10.326 94.224 10.658 94.612 11.086C95.004 11.51 95.308 12.006 95.524 12.574C95.74 13.142 95.848 13.76 95.848 14.428C95.848 15.212 95.694 15.932 95.386 16.588C95.078 17.244 94.646 17.78 94.09 18.196C93.538 18.612 92.89 18.856 92.146 18.928V18.982C92.406 19.046 92.668 19.142 92.932 19.27C93.196 19.398 93.47 19.514 93.754 19.618C94.042 19.726 94.342 19.78 94.654 19.78C94.914 19.78 95.134 19.73 95.314 19.63C95.494 19.53 95.666 19.376 95.83 19.168L96.154 19.3C95.91 19.868 95.596 20.292 95.212 20.572C94.828 20.856 94.43 20.998 94.018 20.998C93.642 20.998 93.324 20.898 93.064 20.698C92.804 20.502 92.556 20.288 92.32 20.056C91.98 19.72 91.692 19.486 91.456 19.354C91.22 19.222 90.97 19.156 90.706 19.156C90.458 19.156 90.274 19.206 90.154 19.306C90.034 19.406 89.974 19.532 89.974 19.684C89.974 19.816 90.008 19.922 90.076 20.002C90.144 20.082 90.178 20.192 90.178 20.332C90.178 20.512 90.118 20.66 89.998 20.776C89.878 20.896 89.728 20.956 89.548 20.956ZM91.486 18.58C91.842 18.58 92.164 18.516 92.452 18.388C92.744 18.26 93 18.074 93.22 17.83C93.444 17.586 93.632 17.294 93.784 16.954C93.936 16.61 94.05 16.224 94.126 15.796C94.202 15.368 94.24 14.904 94.24 14.404C94.24 13.908 94.202 13.45 94.126 13.03C94.05 12.606 93.938 12.226 93.79 11.89C93.642 11.554 93.458 11.268 93.238 11.032C93.018 10.792 92.762 10.61 92.47 10.486C92.182 10.358 91.86 10.294 91.504 10.294C91.144 10.294 90.818 10.358 90.526 10.486C90.234 10.61 89.976 10.792 89.752 11.032C89.532 11.272 89.346 11.562 89.194 11.902C89.046 12.238 88.934 12.62 88.858 13.048C88.782 13.472 88.744 13.932 88.744 14.428C88.744 14.924 88.782 15.384 88.858 15.808C88.934 16.232 89.046 16.616 89.194 16.96C89.346 17.3 89.532 17.592 89.752 17.836C89.972 18.076 90.226 18.26 90.514 18.388C90.806 18.516 91.13 18.58 91.486 18.58ZM96.9078 19V18.712L97.9277 18.472V10.378L96.9078 10.15V9.862H100.406V10.15L99.2778 10.378V18.502H102.644C102.86 18.138 103.046 17.772 103.202 17.404C103.358 17.036 103.508 16.624 103.652 16.168H104.006L103.556 19H96.9078Z" fill="white"/>
<path d="M31 0H5C2.23858 0 0 2.23858 0 5V27C0 29.7614 2.23858 32 5 32H31V0Z" fill="#4169E1"/>
<path d="M26.144 18.7228C26.1303 18.6809 26.1114 18.6409 26.0877 18.6037C25.9487 18.3405 25.6109 18.2619 25.0803 18.3716C23.427 18.7127 22.7868 18.5028 22.5547 18.3525C23.8967 16.3043 24.9997 13.8305 25.5958 11.5228C25.8672 10.4721 26.394 7.9991 25.718 6.7912C25.6748 6.70853 25.6243 6.62988 25.5671 6.5562C24.2777 4.9086 22.3853 4.0248 20.0945 4.0005C18.5998 3.9847 17.324 4.3466 16.9784 4.4799C16.8072 4.44795 16.6352 4.42074 16.4625 4.3983C16.0296 4.31991 15.591 4.27717 15.1511 4.2705C13.9689 4.2521 12.9473 4.5347 12.1013 5.1111C11.244 4.79 7.31252 3.4661 4.87942 5.1899C3.52052 6.1526 2.89322 7.8733 3.01482 10.3043C3.05572 11.1223 3.52172 13.6383 4.25712 16.0479C4.71692 17.5544 5.19582 18.7498 5.69052 19.6299C6.24352 20.6241 6.81642 21.2232 7.40482 21.4194C7.85222 21.5685 8.53752 21.5635 9.26292 20.6915C10.0641 19.728 10.8532 18.8657 11.2075 18.4846C11.6426 18.7201 12.1139 18.8471 12.5975 18.8618C12.5976 18.8632 12.5977 18.8645 12.5979 18.8659C12.5137 18.9662 12.4313 19.068 12.3507 19.1713C12.0118 19.6015 11.9413 19.691 10.8505 19.9156C10.5403 19.9796 9.71612 20.1495 9.70412 20.7271C9.70162 20.8495 9.73702 20.958 9.79602 21.0539C10.0229 21.477 10.7176 21.6636 10.811 21.687C12.1455 22.0205 13.3154 21.779 14.1824 21.0083C14.1654 23.2393 14.2599 25.4257 14.5278 26.0957C14.749 26.6486 15.2896 28.0002 16.997 28C17.2475 28 17.5233 27.9709 17.8266 27.9059C19.6085 27.5238 20.3823 26.7363 20.6816 25C20.8319 24.1293 21.0832 22.1247 21.2204 20.8988C21.2373 20.8285 21.2561 20.7781 21.2774 20.7626C21.2781 20.7621 21.3471 20.7155 21.7046 20.7933C21.7192 20.7965 21.734 20.7987 21.7489 20.8001L22.0028 20.8224L22.0177 20.8234C22.8645 20.8618 23.9291 20.6808 24.5489 20.3926C25.1927 20.0938 26.3546 19.3603 26.144 18.7228ZM4.95562 15.8765C4.21212 13.4407 3.77772 10.9914 3.74332 10.3046C3.63472 8.1332 4.16042 6.6217 5.30562 5.8119C7.14232 4.5133 10.1454 5.2711 11.4136 5.6819C11.4104 5.6851 11.407 5.688 11.4038 5.6913C9.38002 7.7353 9.42802 11.2273 9.43302 11.4408C9.43282 11.5231 9.43962 11.6397 9.44922 11.8001C9.48402 12.3874 9.54882 13.4805 9.37572 14.7185C9.21482 15.8689 9.56942 16.9949 10.3485 17.8077C10.4291 17.8918 10.5133 17.9708 10.6003 18.0451C10.2535 18.4165 9.49992 19.2377 8.69782 20.2027C8.13012 20.8852 7.73812 20.7544 7.60922 20.7114C7.21732 20.5807 6.79622 20.1243 6.37112 19.3891C5.89152 18.5501 5.40762 17.3574 4.95562 15.8765ZM10.9628 20.9636C10.7917 20.9208 10.6357 20.8504 10.5306 20.7864C10.6195 20.747 10.768 20.6962 11.0139 20.6455C12.2972 20.3814 12.4954 20.1949 12.9282 19.6453C13.0274 19.5193 13.1398 19.3766 13.2955 19.2027C13.329 19.1651 13.3541 19.1209 13.3692 19.0729C13.54 18.9216 13.6416 18.963 13.8061 19.0312C13.9621 19.0958 14.1139 19.2912 14.1756 19.5064C14.2047 19.608 14.2375 19.8009 14.1304 19.9508C13.2261 21.2166 11.9088 21.2002 10.9628 20.9636ZM13.0568 16.9756L13.0043 17.1166C12.8713 17.4732 12.7476 17.8047 12.6709 18.1196C12.0035 18.1175 11.3541 17.8324 10.8604 17.3172C10.2325 16.6621 9.94732 15.7508 10.0779 14.8168C10.2607 13.5089 10.1932 12.37 10.1569 11.7582C10.1519 11.6725 10.1474 11.5975 10.1447 11.5383C10.4404 11.2762 11.8106 10.5421 12.7876 10.7659C13.2335 10.8681 13.5052 11.1716 13.6181 11.6939C14.2027 14.3977 13.6955 15.5246 13.2879 16.4302C13.2039 16.6168 13.1246 16.7931 13.0568 16.9756ZM20.4205 21.5481C20.4036 21.7249 20.3847 21.9241 20.3587 22.144L20.2127 22.5823C20.2011 22.617 20.195 22.6534 20.1945 22.69C20.1886 23.1647 20.1405 23.3389 20.0795 23.5593C20.0161 23.7885 19.9442 24.0484 19.9001 24.6168C19.7901 26.0311 19.0219 26.8435 17.4829 27.1733C15.9674 27.4984 15.6986 26.6765 15.4617 25.9516C15.4375 25.8756 15.4118 25.8001 15.3848 25.725C15.1694 25.1392 15.1937 24.3131 15.2274 23.1699C15.2439 22.6087 15.2025 21.2686 14.8972 20.5237C14.9016 20.2305 14.9078 19.9328 14.9162 19.6319C14.9172 19.5938 14.9121 19.5558 14.9009 19.5193C14.8912 19.449 14.8766 19.3795 14.857 19.3113C14.7344 18.883 14.4357 18.5247 14.0773 18.3762C13.9349 18.3172 13.6735 18.209 13.3595 18.2893C13.4265 18.0133 13.5426 17.7018 13.6685 17.3644L13.7214 17.2224C13.7809 17.0624 13.8554 16.8967 13.9344 16.7212C14.3609 15.7736 14.945 14.4759 14.311 11.544C14.0736 10.4459 13.2806 9.9097 12.0786 10.0342C11.3579 10.1088 10.6987 10.3996 10.3698 10.5663C10.3039 10.5997 10.2386 10.6344 10.174 10.6704C10.2658 9.564 10.6126 7.4963 11.9097 6.1881C12.0061 6.09101 12.1073 5.9989 12.213 5.9121C12.2655 5.90187 12.315 5.87985 12.3577 5.8477C13.1101 5.2771 14.0522 4.9971 15.1597 5.0152C15.5688 5.0219 15.9614 5.0491 16.3339 5.0962C18.2729 5.4506 19.5778 6.543 20.3698 7.4789C21.1841 8.4412 21.625 9.4104 21.801 9.9332C20.4778 9.7986 19.5776 10.06 19.1213 10.7122C18.1287 12.1311 19.6643 14.8851 20.4024 16.2086C20.5377 16.4512 20.6546 16.6608 20.6913 16.7499C20.9316 17.3324 21.2428 17.7212 21.47 18.0051C21.5396 18.0921 21.6072 18.1765 21.6585 18.2501C21.2577 18.3656 20.5377 18.6326 20.6033 19.9671C20.591 20.1234 20.561 20.414 20.5199 20.7819C20.4738 20.9896 20.4497 21.2422 20.4205 21.5481ZM21.311 19.927C21.2705 19.0954 21.5801 19.0085 21.9077 18.9165C21.953 18.9041 21.9981 18.8905 22.0427 18.8759C22.085 18.9133 22.1298 18.9478 22.1769 18.9789C22.7472 19.3554 23.7592 19.4002 25.1837 19.1133C24.9821 19.2902 24.6648 19.5127 24.2304 19.7144C23.8206 19.9047 23.1347 20.0474 22.4831 20.078C21.7634 20.1116 21.3972 19.9973 21.311 19.927ZM21.8805 10.6558C21.8746 11.0066 21.8263 11.325 21.7751 11.6575C21.7201 12.0151 21.6631 12.3849 21.6487 12.8337C21.6345 13.2705 21.6891 13.7246 21.7419 14.1638C21.8485 15.0508 21.9579 15.9641 21.5344 16.8652C21.4641 16.7406 21.4015 16.6118 21.3468 16.4796C21.2941 16.352 21.1799 16.147 21.0217 15.8634C20.4061 14.7593 18.9643 12.1738 19.7024 11.1188C20.0819 10.5761 21.0432 10.5527 21.8805 10.6558ZM22.1089 17.6695C22.0807 17.6335 22.0522 17.5977 22.0236 17.5621L21.9881 17.5177C22.7143 16.3182 22.5723 15.1315 22.4459 14.0792C22.394 13.6474 22.345 13.2396 22.3574 12.8566C22.3703 12.4505 22.424 12.1023 22.4759 11.7655C22.5398 11.3505 22.6047 10.9212 22.5868 10.415C22.6002 10.3619 22.6056 10.2992 22.5986 10.2248C22.5529 9.7393 21.9987 8.2868 20.8692 6.9718C20.2616 6.2645 19.3796 5.4746 18.1803 4.9323C18.7054 4.8257 19.4131 4.7288 20.2047 4.7464C22.2562 4.792 23.8793 5.5599 25.0289 7.0288C25.0533 7.06069 25.0756 7.09416 25.0956 7.129C25.8187 8.4846 24.8194 13.4041 22.1089 17.6695ZM13.2923 11.5533C13.2673 11.7327 12.9834 11.9758 12.6712 11.9758C12.6442 11.9758 12.6171 11.9739 12.5903 11.9702C12.403 11.9442 12.2138 11.8262 12.0844 11.6546C12.0386 11.5941 11.9641 11.4766 11.9789 11.3702C11.9844 11.3301 12.005 11.2717 12.0714 11.2214C12.1896 11.132 12.4232 11.0988 12.681 11.1347C12.9973 11.1788 13.3236 11.3285 13.2923 11.5533ZM21.2228 11.1419C21.2339 11.2211 21.1738 11.3429 21.0697 11.4521C21.0014 11.5238 20.8577 11.6482 20.6618 11.6753C20.637 11.6788 20.6119 11.6805 20.5868 11.6805C20.2933 11.6805 20.0454 11.4461 20.0261 11.3088C20.0021 11.1323 20.2902 10.9982 20.5872 10.9568C20.8842 10.9154 21.1983 10.9656 21.2228 11.1419Z" fill="white"/>
</svg>
