<svg width="100" height="32" viewBox="0 0 100 32" fill="none" xmlns="http://www.w3.org/2000/svg">
<path d="M95 0H31V32H95C97.7614 32 100 29.7614 100 27V5C100 2.23858 97.7614 0 95 0Z" fill="#0F1418"/>
<path d="M50.564 20V19.712L51.584 19.472V11.384L50.564 11.15V10.862H54.242C54.862 10.862 55.41 10.962 55.886 11.162C56.366 11.358 56.74 11.65 57.008 12.038C57.28 12.422 57.416 12.896 57.416 13.46C57.416 14.048 57.244 14.532 56.9 14.912C56.56 15.292 56.08 15.558 55.46 15.71L57.962 19.472L59.276 19.712V20H56.612L53.984 15.866H52.934V19.472L54.284 19.712V20H50.564ZM52.934 15.38H53.63C54.118 15.38 54.502 15.322 54.782 15.206C55.066 15.09 55.296 14.934 55.472 14.738C55.648 14.542 55.772 14.324 55.844 14.084C55.92 13.84 55.958 13.592 55.958 13.34C55.958 12.864 55.862 12.472 55.67 12.164C55.478 11.856 55.212 11.634 54.872 11.498C54.736 11.442 54.586 11.404 54.422 11.384C54.258 11.36 54.052 11.348 53.804 11.348H52.934V15.38ZM62.1688 20.126C61.5888 20.126 61.0788 19.994 60.6388 19.73C60.2028 19.462 59.8628 19.09 59.6188 18.614C59.3788 18.134 59.2588 17.58 59.2588 16.952C59.2588 16.284 59.3928 15.698 59.6608 15.194C59.9328 14.69 60.3108 14.296 60.7948 14.012C61.2828 13.728 61.8468 13.586 62.4868 13.586C63.2788 13.586 63.8848 13.816 64.3048 14.276C64.7288 14.736 64.9488 15.41 64.9648 16.298L64.8808 16.37H60.2308V16.022L63.5908 15.902C63.6188 15.798 63.6328 15.64 63.6328 15.428C63.6328 14.468 63.2108 13.988 62.3668 13.988C61.7868 13.988 61.3388 14.216 61.0228 14.672C60.7108 15.124 60.5548 15.766 60.5548 16.598C60.5548 18.338 61.2308 19.208 62.5828 19.208C63.4628 19.208 64.1368 18.888 64.6048 18.248L64.8268 18.386C64.6188 18.938 64.2808 19.366 63.8128 19.67C63.3488 19.974 62.8008 20.126 62.1688 20.126ZM68.4696 20.126C67.9976 20.126 67.5736 19.988 67.1976 19.712C66.8216 19.436 66.5236 19.06 66.3036 18.584C66.0876 18.104 65.9796 17.562 65.9796 16.958C65.9796 16.294 66.1116 15.71 66.3756 15.206C66.6396 14.698 67.0076 14.302 67.4796 14.018C67.9516 13.73 68.4976 13.586 69.1176 13.586C69.5576 13.586 69.9896 13.652 70.4136 13.784V11.234L69.5256 10.892V10.724L71.4876 10.142H71.6256V19.046L72.4476 19.232V19.376L70.5936 20.126H70.4976V19.136L70.4436 19.118C70.1956 19.45 69.9016 19.702 69.5616 19.874C69.2256 20.042 68.8616 20.126 68.4696 20.126ZM68.9976 19.334C69.2936 19.334 69.5676 19.272 69.8196 19.148C70.0756 19.024 70.2736 18.856 70.4136 18.644V15.308C70.4136 14.88 70.3016 14.552 70.0776 14.324C69.8576 14.096 69.5396 13.982 69.1236 13.982C68.5876 13.982 68.1536 14.236 67.8216 14.744C67.4936 15.252 67.3296 15.926 67.3296 16.766C67.3296 17.558 67.4776 18.184 67.7736 18.644C68.0696 19.104 68.4776 19.334 68.9976 19.334ZM73.1061 20V19.736L74.0181 19.55V14.66L73.1241 14.342V14.156L75.1161 13.586H75.2481V19.55L76.1481 19.736V20H73.1061ZM74.6241 12.326C74.3801 12.326 74.1861 12.248 74.0421 12.092C73.8981 11.936 73.8261 11.754 73.8261 11.546C73.8261 11.318 73.8981 11.126 74.0421 10.97C74.1861 10.814 74.3801 10.736 74.6241 10.736C74.8721 10.736 75.0681 10.814 75.2121 10.97C75.3601 11.126 75.4341 11.318 75.4341 11.546C75.4341 11.754 75.3601 11.936 75.2121 12.092C75.0681 12.248 74.8721 12.326 74.6241 12.326ZM78.8203 20.126C78.5643 20.126 78.2803 20.1 77.9683 20.048C77.6603 20 77.3903 19.938 77.1583 19.862L77.0803 17.936H77.3923C77.4443 18.528 77.5963 18.976 77.8483 19.28C78.1003 19.58 78.4503 19.73 78.8983 19.73C79.2463 19.73 79.5243 19.634 79.7323 19.442C79.9443 19.246 80.0503 18.99 80.0503 18.674C80.0503 18.41 79.9723 18.184 79.8163 17.996C79.6603 17.804 79.3903 17.61 79.0063 17.414L78.5083 17.168C77.9963 16.912 77.6303 16.644 77.4103 16.364C77.1903 16.08 77.0803 15.738 77.0803 15.338C77.0803 14.778 77.2743 14.346 77.6623 14.042C78.0543 13.738 78.6123 13.586 79.3363 13.586C79.6163 13.586 79.8863 13.606 80.1463 13.646C80.4103 13.682 80.6163 13.732 80.7643 13.796V15.44H80.4883C80.3723 14.464 79.9183 13.976 79.1263 13.976C78.8183 13.976 78.5703 14.06 78.3823 14.228C78.1983 14.392 78.1063 14.616 78.1063 14.9C78.1063 15.148 78.1863 15.36 78.3463 15.536C78.5103 15.712 78.7863 15.894 79.1743 16.082L79.7203 16.346C80.1923 16.578 80.5323 16.834 80.7403 17.114C80.9483 17.394 81.0523 17.748 81.0523 18.176C81.0523 18.772 80.8523 19.246 80.4523 19.598C80.0523 19.95 79.5083 20.126 78.8203 20.126Z" fill="white"/>
<path d="M31 0H5C2.23858 0 0 2.23858 0 5V27C0 29.7614 2.23858 32 5 32H31V0Z" fill="#FF4438"/>
<path d="M25.71 17.218C24.05 19.31 22.258 21.701 18.672 21.701C15.469 21.701 14.275 18.876 14.192 16.581C14.893 18.065 16.265 19.266 18.406 19.211C22.523 19.078 25.346 15.359 25.346 11.972C25.346 7.922 22.324 5 17.078 5C13.326 5 8.678 6.428 5.623 8.685C5.59 11.01 6.885 14.031 7.35 13.699C9.998 11.795 12.098 10.569 14.134 9.955C11.12 13.317 3.886 21.123 3 22.498C3.1 23.759 4.66 27.146 5.424 27.146C5.656 27.146 5.855 27.013 6.088 26.781C8.03195 24.6074 9.88036 22.3503 11.628 20.016C11.85 23.12 13.376 26.914 17.642 26.914C21.461 26.914 25.246 24.158 26.972 17.949C27.172 17.185 26.242 16.588 25.711 17.219L25.71 17.218ZM21.361 12.205C21.361 14.164 19.435 15.127 17.676 15.127C16.735 15.127 16.012 14.88 15.441 14.559C16.492 12.967 17.533 11.334 18.651 9.586C20.623 9.92 21.361 11.016 21.361 12.205Z" fill="white"/>
</svg>
