<svg width="154" height="32" viewBox="0 0 154 32" fill="none" xmlns="http://www.w3.org/2000/svg">
<path d="M145.087 0H31V32H145.087C150.009 32 154 29.7614 154 27V5C154 2.23858 150.009 0 145.087 0Z" fill="#0F1418"/>
<path d="M44.724 20V19.712C45.136 19.644 45.446 19.562 45.654 19.466C45.862 19.366 46.018 19.232 46.122 19.064C46.226 18.892 46.328 18.666 46.428 18.386L48.726 12.032L48.39 11.27L49.638 10.622L52.806 18.98C52.874 19.164 52.948 19.304 53.028 19.4C53.112 19.496 53.23 19.566 53.382 19.61C53.534 19.654 53.748 19.688 54.024 19.712V20H50.1V19.712C50.488 19.688 50.778 19.66 50.97 19.628C51.162 19.592 51.272 19.514 51.3 19.394C51.328 19.27 51.292 19.068 51.192 18.788L49.032 12.866H48.996L46.962 18.524C46.874 18.768 46.85 18.968 46.89 19.124C46.93 19.276 47.048 19.398 47.244 19.49C47.44 19.578 47.726 19.652 48.102 19.712V20H44.724ZM47.412 16.736V16.232H50.7V16.736H47.412ZM58.1665 20V19.736L59.0425 19.562V15.71C59.0425 15.234 58.9465 14.88 58.7545 14.648C58.5625 14.412 58.2525 14.294 57.8245 14.294C57.1965 14.294 56.6745 14.58 56.2585 15.152V14.654C56.5945 14.318 56.9625 14.056 57.3625 13.868C57.7625 13.68 58.1605 13.586 58.5565 13.586C59.6965 13.586 60.2665 14.124 60.2665 15.2V19.562L61.1545 19.736V20H58.1665ZM54.2605 20V19.736L55.1605 19.55V14.672L54.2725 14.342V14.168L56.1925 13.586H56.3245V14.648L56.3845 14.708V19.55L57.2665 19.736V20H54.2605ZM65.8103 14.03C65.8783 13.834 65.9683 13.634 66.0803 13.43C66.1923 13.222 66.3323 13.046 66.5003 12.902C66.6683 12.758 66.8663 12.686 67.0943 12.686C67.2823 12.686 67.4463 12.74 67.5863 12.848C67.7263 12.956 67.7963 13.104 67.7963 13.292C67.7963 13.452 67.7423 13.59 67.6343 13.706C67.5263 13.818 67.3923 13.874 67.2323 13.874C67.1163 13.874 67.0303 13.848 66.9743 13.796C66.9183 13.744 66.8663 13.692 66.8183 13.64C66.7743 13.588 66.7023 13.562 66.6023 13.562C66.4943 13.562 66.3963 13.632 66.3083 13.772C66.2203 13.908 66.1583 14.064 66.1223 14.24L65.8103 14.03ZM64.5203 17.594C64.8243 17.594 65.0603 17.496 65.2283 17.3C65.4003 17.104 65.5203 16.862 65.5883 16.574C65.6563 16.282 65.6903 16 65.6903 15.728C65.6903 15.556 65.6743 15.37 65.6423 15.17C65.6143 14.966 65.5603 14.774 65.4803 14.594C65.4043 14.41 65.2923 14.26 65.1443 14.144C65.0003 14.024 64.8143 13.964 64.5863 13.964C64.3463 13.964 64.1503 14.028 63.9983 14.156C63.8463 14.28 63.7283 14.442 63.6443 14.642C63.5603 14.838 63.5023 15.044 63.4703 15.26C63.4383 15.476 63.4223 15.674 63.4223 15.854C63.4223 16.082 63.4503 16.332 63.5063 16.604C63.5623 16.872 63.6683 17.104 63.8243 17.3C63.9843 17.496 64.2163 17.594 64.5203 17.594ZM64.5263 17.99C64.1023 17.99 63.7783 18.04 63.5543 18.14C63.3303 18.236 63.2183 18.386 63.2183 18.59C63.2183 18.734 63.3183 18.854 63.5183 18.95C63.7223 19.042 64.1163 19.132 64.7003 19.22L65.5583 19.37C66.2543 19.478 66.7663 19.662 67.0943 19.922C67.4263 20.178 67.5923 20.526 67.5923 20.966C67.5923 21.33 67.4903 21.646 67.2863 21.914C67.0823 22.182 66.8083 22.402 66.4643 22.574C66.1243 22.75 65.7443 22.88 65.3243 22.964C64.9043 23.048 64.4783 23.09 64.0463 23.09C63.7303 23.09 63.4203 23.06 63.1163 23C62.8123 22.944 62.5363 22.854 62.2882 22.73C62.0443 22.606 61.8483 22.446 61.7003 22.25C61.5523 22.054 61.4783 21.816 61.4783 21.536C61.4783 21.208 61.6003 20.912 61.8443 20.648C62.0883 20.388 62.5083 20.138 63.1043 19.898L63.4703 20.048C63.1663 20.164 62.9283 20.344 62.7563 20.588C62.5843 20.836 62.4983 21.102 62.4983 21.386C62.4983 21.678 62.5803 21.918 62.7443 22.106C62.9083 22.298 63.1263 22.44 63.3983 22.532C63.6743 22.628 63.9723 22.676 64.2923 22.676C64.6803 22.676 65.0503 22.632 65.4023 22.544C65.7583 22.456 66.0483 22.32 66.2723 22.136C66.5003 21.952 66.6143 21.716 66.6143 21.428C66.6143 21.28 66.5663 21.146 66.4703 21.026C66.3743 20.906 66.1883 20.792 65.9123 20.684C65.6403 20.58 65.2383 20.478 64.7063 20.378L63.7163 20.192C63.1923 20.092 62.7983 19.936 62.5343 19.724C62.2743 19.512 62.1443 19.258 62.1443 18.962C62.1443 18.826 62.1863 18.68 62.2703 18.524C62.3583 18.368 62.5263 18.222 62.7743 18.086C63.0223 17.946 63.3883 17.842 63.8723 17.774L64.5263 17.99ZM64.5263 17.99C64.0583 17.99 63.6443 17.9 63.2843 17.72C62.9243 17.536 62.6423 17.28 62.4383 16.952C62.2343 16.62 62.1323 16.234 62.1323 15.794C62.1323 15.37 62.2363 14.992 62.4443 14.66C62.6563 14.328 62.9443 14.066 63.3083 13.874C63.6723 13.682 64.0843 13.586 64.5443 13.586C65.0003 13.586 65.4123 13.68 65.7803 13.868C66.1483 14.052 66.4403 14.308 66.6563 14.636C66.8723 14.964 66.9803 15.338 66.9803 15.758C66.9803 16.154 66.8783 16.522 66.6743 16.862C66.4703 17.198 66.1843 17.47 65.8163 17.678C65.4483 17.886 65.0183 17.99 64.5263 17.99ZM70.6204 20.126C70.0204 20.126 69.5824 19.988 69.3064 19.712C69.0304 19.432 68.8924 19.028 68.8924 18.5V14.156L68.0044 13.97V13.706H70.1164V18.02C70.1164 18.544 70.2084 18.904 70.3924 19.1C70.5804 19.296 70.8764 19.394 71.2804 19.394C71.5564 19.394 71.8264 19.322 72.0904 19.178C72.3544 19.034 72.5984 18.808 72.8224 18.5V18.98C72.5184 19.352 72.1764 19.636 71.7964 19.832C71.4164 20.028 71.0244 20.126 70.6204 20.126ZM72.7804 20.126V18.944L72.7144 18.92V14.156L71.8324 13.97V13.706H73.9384V19.088L74.7544 19.376V19.538L72.8824 20.126H72.7804ZM75.3929 20V19.736L76.3049 19.55V11.21L75.4049 10.892V10.706L77.4029 10.142H77.5289V19.55L78.4289 19.736V20H75.3929ZM80.6954 20.126C80.2674 20.126 79.9194 19.992 79.6514 19.724C79.3874 19.456 79.2554 19.108 79.2554 18.68C79.2554 18.328 79.3634 18.024 79.5794 17.768C79.7954 17.512 80.1434 17.288 80.6234 17.096C81.1074 16.9 81.7454 16.722 82.5374 16.562V15.44C82.5374 14.932 82.4674 14.576 82.3274 14.372C82.1914 14.168 81.9554 14.066 81.6194 14.066C81.2874 14.066 81.0234 14.146 80.8274 14.306C80.6314 14.466 80.5334 14.682 80.5334 14.954C80.5334 15.03 80.5374 15.106 80.5454 15.182C80.5574 15.254 80.5634 15.324 80.5634 15.392C80.5634 15.596 80.5014 15.764 80.3774 15.896C80.2574 16.028 80.1034 16.094 79.9154 16.094C79.7434 16.094 79.6034 16.038 79.4954 15.926C79.3914 15.814 79.3394 15.668 79.3394 15.488C79.3394 15.228 79.4514 14.962 79.6754 14.69C79.9034 14.414 80.2034 14.178 80.5754 13.982C81.0714 13.718 81.6094 13.586 82.1894 13.586C82.5374 13.586 82.8314 13.64 83.0714 13.748C83.3154 13.856 83.4914 14.01 83.5994 14.21C83.6634 14.346 83.7054 14.518 83.7254 14.726C83.7494 14.934 83.7614 15.282 83.7614 15.77V18.452C83.7614 18.84 83.7914 19.104 83.8514 19.244C83.9154 19.384 84.0334 19.454 84.2054 19.454C84.4014 19.454 84.5914 19.342 84.7754 19.118L84.9914 19.322C84.7954 19.606 84.5954 19.812 84.3914 19.94C84.1914 20.064 83.9574 20.126 83.6894 20.126C83.3654 20.126 83.1134 20.038 82.9334 19.862C82.7534 19.686 82.6334 19.418 82.5734 19.058H82.5374C82.3094 19.386 82.0334 19.646 81.7094 19.838C81.3854 20.03 81.0474 20.126 80.6954 20.126ZM81.2954 19.364C81.5434 19.364 81.7754 19.3 81.9914 19.172C82.2074 19.04 82.3894 18.858 82.5374 18.626V16.934C82.0014 17.038 81.5794 17.152 81.2714 17.276C80.9674 17.4 80.7514 17.552 80.6234 17.732C80.4994 17.908 80.4374 18.13 80.4374 18.398C80.4374 18.706 80.5094 18.944 80.6534 19.112C80.8014 19.28 81.0154 19.364 81.2954 19.364ZM85.3915 20V19.736L86.2915 19.55V14.66L85.4155 14.33V14.156L87.3355 13.58H87.4675V14.876L87.5155 14.936V19.55L88.7515 19.736V20H85.3915ZM87.4255 15.428L87.4015 14.936C87.6975 14.5 87.9915 14.164 88.2835 13.928C88.5795 13.692 88.8555 13.574 89.1115 13.574C89.3315 13.574 89.5175 13.65 89.6695 13.802C89.8215 13.95 89.8975 14.13 89.8975 14.342C89.8975 14.538 89.8315 14.704 89.6995 14.84C89.5675 14.972 89.4035 15.038 89.2075 15.038C89.0075 15.038 88.8515 14.964 88.7395 14.816C88.6595 14.724 88.5915 14.662 88.5355 14.63C88.4795 14.594 88.4155 14.576 88.3435 14.576C88.2275 14.576 88.0815 14.654 87.9055 14.81C87.7335 14.962 87.5735 15.168 87.4255 15.428ZM98.4952 20.126L95.1952 12.218H95.1472V19.472L96.2092 19.712V20H93.5632V19.712L94.6312 19.472V11.378L93.5632 11.15V10.862H96.2092L99.0952 17.774H99.1552L102.059 10.862H104.621V11.15L103.571 11.378V19.472L104.621 19.712V20H101.153V19.712L102.215 19.472V12.302H102.167L98.8552 20.126H98.4952ZM107.063 20.126C106.635 20.126 106.287 19.992 106.019 19.724C105.755 19.456 105.623 19.108 105.623 18.68C105.623 18.328 105.731 18.024 105.947 17.768C106.163 17.512 106.511 17.288 106.991 17.096C107.475 16.9 108.113 16.722 108.905 16.562V15.44C108.905 14.932 108.835 14.576 108.695 14.372C108.559 14.168 108.323 14.066 107.987 14.066C107.655 14.066 107.391 14.146 107.195 14.306C106.999 14.466 106.901 14.682 106.901 14.954C106.901 15.03 106.905 15.106 106.913 15.182C106.925 15.254 106.931 15.324 106.931 15.392C106.931 15.596 106.869 15.764 106.745 15.896C106.625 16.028 106.471 16.094 106.283 16.094C106.111 16.094 105.971 16.038 105.863 15.926C105.759 15.814 105.707 15.668 105.707 15.488C105.707 15.228 105.819 14.962 106.043 14.69C106.271 14.414 106.571 14.178 106.943 13.982C107.439 13.718 107.977 13.586 108.557 13.586C108.905 13.586 109.199 13.64 109.439 13.748C109.683 13.856 109.859 14.01 109.967 14.21C110.031 14.346 110.073 14.518 110.093 14.726C110.117 14.934 110.129 15.282 110.129 15.77V18.452C110.129 18.84 110.159 19.104 110.219 19.244C110.283 19.384 110.401 19.454 110.573 19.454C110.769 19.454 110.959 19.342 111.143 19.118L111.359 19.322C111.163 19.606 110.963 19.812 110.759 19.94C110.559 20.064 110.325 20.126 110.057 20.126C109.733 20.126 109.481 20.038 109.301 19.862C109.121 19.686 109.001 19.418 108.941 19.058H108.905C108.677 19.386 108.401 19.646 108.077 19.838C107.753 20.03 107.415 20.126 107.063 20.126ZM107.663 19.364C107.911 19.364 108.143 19.3 108.359 19.172C108.575 19.04 108.757 18.858 108.905 18.626V16.934C108.369 17.038 107.947 17.152 107.639 17.276C107.335 17.4 107.119 17.552 106.991 17.732C106.867 17.908 106.805 18.13 106.805 18.398C106.805 18.706 106.877 18.944 107.021 19.112C107.169 19.28 107.383 19.364 107.663 19.364ZM113.889 20.126C113.445 20.126 113.107 20 112.875 19.748C112.643 19.496 112.527 19.134 112.527 18.662V14.15H111.747L111.711 13.934L113.511 12.146L113.745 12.17V13.706H115.461L115.359 14.15H113.745V18.542C113.745 19.198 113.981 19.526 114.453 19.526C114.613 19.526 114.771 19.484 114.927 19.4C115.087 19.316 115.223 19.2 115.335 19.052L115.545 19.238C115.361 19.51 115.121 19.726 114.825 19.886C114.533 20.046 114.221 20.126 113.889 20.126ZM119.079 20.126C118.499 20.126 117.989 19.994 117.549 19.73C117.113 19.462 116.773 19.09 116.529 18.614C116.289 18.134 116.169 17.58 116.169 16.952C116.169 16.284 116.303 15.698 116.571 15.194C116.843 14.69 117.221 14.296 117.705 14.012C118.193 13.728 118.757 13.586 119.397 13.586C120.189 13.586 120.795 13.816 121.215 14.276C121.639 14.736 121.859 15.41 121.875 16.298L121.791 16.37H117.141V16.022L120.501 15.902C120.529 15.798 120.543 15.64 120.543 15.428C120.543 14.468 120.121 13.988 119.277 13.988C118.697 13.988 118.249 14.216 117.933 14.672C117.621 15.124 117.465 15.766 117.465 16.598C117.465 18.338 118.141 19.208 119.493 19.208C120.373 19.208 121.047 18.888 121.515 18.248L121.737 18.386C121.529 18.938 121.191 19.366 120.723 19.67C120.259 19.974 119.711 20.126 119.079 20.126ZM122.716 20V19.736L123.616 19.55V14.66L122.74 14.33V14.156L124.66 13.58H124.792V14.876L124.84 14.936V19.55L126.076 19.736V20H122.716ZM124.75 15.428L124.726 14.936C125.022 14.5 125.316 14.164 125.608 13.928C125.904 13.692 126.18 13.574 126.436 13.574C126.656 13.574 126.842 13.65 126.994 13.802C127.146 13.95 127.222 14.13 127.222 14.342C127.222 14.538 127.156 14.704 127.024 14.84C126.892 14.972 126.728 15.038 126.532 15.038C126.332 15.038 126.176 14.964 126.064 14.816C125.984 14.724 125.916 14.662 125.86 14.63C125.804 14.594 125.74 14.576 125.668 14.576C125.552 14.576 125.406 14.654 125.23 14.81C125.058 14.962 124.898 15.168 124.75 15.428ZM127.755 20V19.736L128.667 19.55V14.66L127.773 14.342V14.156L129.765 13.586H129.897V19.55L130.797 19.736V20H127.755ZM129.273 12.326C129.029 12.326 128.835 12.248 128.691 12.092C128.547 11.936 128.475 11.754 128.475 11.546C128.475 11.318 128.547 11.126 128.691 10.97C128.835 10.814 129.029 10.736 129.273 10.736C129.521 10.736 129.717 10.814 129.861 10.97C130.009 11.126 130.083 11.318 130.083 11.546C130.083 11.754 130.009 11.936 129.861 12.092C129.717 12.248 129.521 12.326 129.273 12.326ZM133.055 20.126C132.627 20.126 132.279 19.992 132.011 19.724C131.747 19.456 131.615 19.108 131.615 18.68C131.615 18.328 131.723 18.024 131.939 17.768C132.155 17.512 132.503 17.288 132.983 17.096C133.467 16.9 134.105 16.722 134.897 16.562V15.44C134.897 14.932 134.827 14.576 134.687 14.372C134.551 14.168 134.315 14.066 133.979 14.066C133.647 14.066 133.383 14.146 133.187 14.306C132.991 14.466 132.893 14.682 132.893 14.954C132.893 15.03 132.897 15.106 132.905 15.182C132.917 15.254 132.923 15.324 132.923 15.392C132.923 15.596 132.861 15.764 132.737 15.896C132.617 16.028 132.463 16.094 132.275 16.094C132.103 16.094 131.963 16.038 131.855 15.926C131.751 15.814 131.699 15.668 131.699 15.488C131.699 15.228 131.811 14.962 132.035 14.69C132.263 14.414 132.563 14.178 132.935 13.982C133.431 13.718 133.969 13.586 134.549 13.586C134.897 13.586 135.191 13.64 135.431 13.748C135.675 13.856 135.851 14.01 135.959 14.21C136.023 14.346 136.065 14.518 136.085 14.726C136.109 14.934 136.121 15.282 136.121 15.77V18.452C136.121 18.84 136.151 19.104 136.211 19.244C136.275 19.384 136.393 19.454 136.565 19.454C136.761 19.454 136.951 19.342 137.135 19.118L137.351 19.322C137.155 19.606 136.955 19.812 136.751 19.94C136.551 20.064 136.317 20.126 136.049 20.126C135.725 20.126 135.473 20.038 135.293 19.862C135.113 19.686 134.993 19.418 134.933 19.058H134.897C134.669 19.386 134.393 19.646 134.069 19.838C133.745 20.03 133.407 20.126 133.055 20.126ZM133.655 19.364C133.903 19.364 134.135 19.3 134.351 19.172C134.567 19.04 134.749 18.858 134.897 18.626V16.934C134.361 17.038 133.939 17.152 133.631 17.276C133.327 17.4 133.111 17.552 132.983 17.732C132.859 17.908 132.797 18.13 132.797 18.398C132.797 18.706 132.869 18.944 133.013 19.112C133.161 19.28 133.375 19.364 133.655 19.364ZM137.643 20V19.736L138.555 19.55V11.21L137.655 10.892V10.706L139.653 10.142H139.779V19.55L140.679 19.736V20H137.643Z" fill="white"/>
<path d="M31 0H5C2.23858 0 0 2.23858 0 5V27C0 29.7614 2.23858 32 5 32H31V0Z" fill="#D2DEFE"/>
<path d="M20.05 21.711H10.626L9.422 24.627L15.338 28L21.254 24.627L20.05 21.711ZM18.03 4L25.862 20.855L26.676 7.999L18.03 4ZM12.646 4L4 7.999L4.814 20.855L12.646 4ZM12.241 17.93H18.439L15.338 10.396L12.241 17.93Z" fill="white"/>
</svg>
