<svg width="100" height="32" viewBox="0 0 100 32" fill="none" xmlns="http://www.w3.org/2000/svg">
<path d="M95 0H31V32H95C97.7614 32 100 29.7614 100 27V5C100 2.23858 97.7614 0 95 0Z" fill="#0F1418"/>
<path d="M42.724 20V19.712C43.136 19.644 43.446 19.562 43.654 19.466C43.862 19.366 44.018 19.232 44.122 19.064C44.226 18.892 44.328 18.666 44.428 18.386L46.726 12.032L46.39 11.27L47.638 10.622L50.806 18.98C50.874 19.164 50.948 19.304 51.028 19.4C51.112 19.496 51.23 19.566 51.382 19.61C51.534 19.654 51.748 19.688 52.024 19.712V20H48.1V19.712C48.488 19.688 48.778 19.66 48.97 19.628C49.162 19.592 49.272 19.514 49.3 19.394C49.328 19.27 49.292 19.068 49.192 18.788L47.032 12.866H46.996L44.962 18.524C44.874 18.768 44.85 18.968 44.89 19.124C44.93 19.276 45.048 19.398 45.244 19.49C45.44 19.578 45.726 19.652 46.102 19.712V20H42.724ZM45.412 16.736V16.232H48.7V16.736H45.412ZM56.1665 20V19.736L57.0425 19.562V15.71C57.0425 15.234 56.9465 14.88 56.7545 14.648C56.5625 14.412 56.2525 14.294 55.8245 14.294C55.1965 14.294 54.6745 14.58 54.2585 15.152V14.654C54.5945 14.318 54.9625 14.056 55.3625 13.868C55.7625 13.68 56.1605 13.586 56.5565 13.586C57.6965 13.586 58.2665 14.124 58.2665 15.2V19.562L59.1545 19.736V20H56.1665ZM52.2605 20V19.736L53.1605 19.55V14.672L52.2725 14.342V14.168L54.1925 13.586H54.3245V14.648L54.3845 14.708V19.55L55.2665 19.736V20H52.2605ZM63.8103 14.03C63.8783 13.834 63.9683 13.634 64.0803 13.43C64.1923 13.222 64.3323 13.046 64.5003 12.902C64.6683 12.758 64.8663 12.686 65.0943 12.686C65.2823 12.686 65.4463 12.74 65.5863 12.848C65.7263 12.956 65.7963 13.104 65.7963 13.292C65.7963 13.452 65.7423 13.59 65.6343 13.706C65.5263 13.818 65.3923 13.874 65.2323 13.874C65.1163 13.874 65.0303 13.848 64.9743 13.796C64.9183 13.744 64.8663 13.692 64.8183 13.64C64.7743 13.588 64.7023 13.562 64.6023 13.562C64.4943 13.562 64.3963 13.632 64.3083 13.772C64.2203 13.908 64.1583 14.064 64.1223 14.24L63.8103 14.03ZM62.5203 17.594C62.8243 17.594 63.0603 17.496 63.2283 17.3C63.4003 17.104 63.5203 16.862 63.5883 16.574C63.6563 16.282 63.6903 16 63.6903 15.728C63.6903 15.556 63.6743 15.37 63.6423 15.17C63.6143 14.966 63.5603 14.774 63.4803 14.594C63.4043 14.41 63.2923 14.26 63.1443 14.144C63.0003 14.024 62.8143 13.964 62.5863 13.964C62.3463 13.964 62.1503 14.028 61.9983 14.156C61.8463 14.28 61.7283 14.442 61.6443 14.642C61.5603 14.838 61.5023 15.044 61.4703 15.26C61.4383 15.476 61.4223 15.674 61.4223 15.854C61.4223 16.082 61.4503 16.332 61.5063 16.604C61.5623 16.872 61.6683 17.104 61.8243 17.3C61.9843 17.496 62.2163 17.594 62.5203 17.594ZM62.5263 17.99C62.1023 17.99 61.7783 18.04 61.5543 18.14C61.3303 18.236 61.2183 18.386 61.2183 18.59C61.2183 18.734 61.3183 18.854 61.5183 18.95C61.7223 19.042 62.1163 19.132 62.7003 19.22L63.5583 19.37C64.2543 19.478 64.7663 19.662 65.0943 19.922C65.4263 20.178 65.5923 20.526 65.5923 20.966C65.5923 21.33 65.4903 21.646 65.2863 21.914C65.0823 22.182 64.8083 22.402 64.4643 22.574C64.1243 22.75 63.7443 22.88 63.3243 22.964C62.9043 23.048 62.4783 23.09 62.0463 23.09C61.7303 23.09 61.4203 23.06 61.1163 23C60.8123 22.944 60.5363 22.854 60.2882 22.73C60.0443 22.606 59.8483 22.446 59.7003 22.25C59.5523 22.054 59.4783 21.816 59.4783 21.536C59.4783 21.208 59.6003 20.912 59.8443 20.648C60.0883 20.388 60.5083 20.138 61.1043 19.898L61.4703 20.048C61.1663 20.164 60.9283 20.344 60.7563 20.588C60.5843 20.836 60.4983 21.102 60.4983 21.386C60.4983 21.678 60.5803 21.918 60.7443 22.106C60.9083 22.298 61.1263 22.44 61.3983 22.532C61.6743 22.628 61.9723 22.676 62.2923 22.676C62.6803 22.676 63.0503 22.632 63.4023 22.544C63.7583 22.456 64.0483 22.32 64.2723 22.136C64.5003 21.952 64.6143 21.716 64.6143 21.428C64.6143 21.28 64.5663 21.146 64.4703 21.026C64.3743 20.906 64.1883 20.792 63.9123 20.684C63.6403 20.58 63.2383 20.478 62.7063 20.378L61.7163 20.192C61.1923 20.092 60.7983 19.936 60.5343 19.724C60.2743 19.512 60.1443 19.258 60.1443 18.962C60.1443 18.826 60.1863 18.68 60.2703 18.524C60.3583 18.368 60.5263 18.222 60.7743 18.086C61.0223 17.946 61.3883 17.842 61.8723 17.774L62.5263 17.99ZM62.5263 17.99C62.0583 17.99 61.6443 17.9 61.2843 17.72C60.9243 17.536 60.6423 17.28 60.4383 16.952C60.2343 16.62 60.1323 16.234 60.1323 15.794C60.1323 15.37 60.2363 14.992 60.4443 14.66C60.6563 14.328 60.9443 14.066 61.3083 13.874C61.6723 13.682 62.0843 13.586 62.5443 13.586C63.0003 13.586 63.4123 13.68 63.7803 13.868C64.1483 14.052 64.4403 14.308 64.6563 14.636C64.8723 14.964 64.9803 15.338 64.9803 15.758C64.9803 16.154 64.8783 16.522 64.6743 16.862C64.4703 17.198 64.1843 17.47 63.8163 17.678C63.4483 17.886 63.0183 17.99 62.5263 17.99ZM68.6204 20.126C68.0204 20.126 67.5824 19.988 67.3064 19.712C67.0304 19.432 66.8924 19.028 66.8924 18.5V14.156L66.0044 13.97V13.706H68.1164V18.02C68.1164 18.544 68.2084 18.904 68.3924 19.1C68.5804 19.296 68.8764 19.394 69.2804 19.394C69.5564 19.394 69.8264 19.322 70.0904 19.178C70.3544 19.034 70.5984 18.808 70.8224 18.5V18.98C70.5184 19.352 70.1764 19.636 69.7964 19.832C69.4164 20.028 69.0244 20.126 68.6204 20.126ZM70.7804 20.126V18.944L70.7144 18.92V14.156L69.8324 13.97V13.706H71.9384V19.088L72.7544 19.376V19.538L70.8824 20.126H70.7804ZM73.3929 20V19.736L74.3049 19.55V11.21L73.4049 10.892V10.706L75.4029 10.142H75.5289V19.55L76.4289 19.736V20H73.3929ZM78.6954 20.126C78.2674 20.126 77.9194 19.992 77.6514 19.724C77.3874 19.456 77.2554 19.108 77.2554 18.68C77.2554 18.328 77.3634 18.024 77.5794 17.768C77.7954 17.512 78.1434 17.288 78.6234 17.096C79.1074 16.9 79.7454 16.722 80.5374 16.562V15.44C80.5374 14.932 80.4674 14.576 80.3274 14.372C80.1914 14.168 79.9554 14.066 79.6194 14.066C79.2874 14.066 79.0234 14.146 78.8274 14.306C78.6314 14.466 78.5334 14.682 78.5334 14.954C78.5334 15.03 78.5374 15.106 78.5454 15.182C78.5574 15.254 78.5634 15.324 78.5634 15.392C78.5634 15.596 78.5014 15.764 78.3774 15.896C78.2574 16.028 78.1034 16.094 77.9154 16.094C77.7434 16.094 77.6034 16.038 77.4954 15.926C77.3914 15.814 77.3394 15.668 77.3394 15.488C77.3394 15.228 77.4514 14.962 77.6754 14.69C77.9034 14.414 78.2034 14.178 78.5754 13.982C79.0714 13.718 79.6094 13.586 80.1894 13.586C80.5374 13.586 80.8314 13.64 81.0714 13.748C81.3154 13.856 81.4914 14.01 81.5994 14.21C81.6634 14.346 81.7054 14.518 81.7254 14.726C81.7494 14.934 81.7614 15.282 81.7614 15.77V18.452C81.7614 18.84 81.7914 19.104 81.8514 19.244C81.9154 19.384 82.0334 19.454 82.2054 19.454C82.4014 19.454 82.5914 19.342 82.7754 19.118L82.9914 19.322C82.7954 19.606 82.5954 19.812 82.3914 19.94C82.1914 20.064 81.9574 20.126 81.6894 20.126C81.3654 20.126 81.1134 20.038 80.9334 19.862C80.7534 19.686 80.6334 19.418 80.5734 19.058H80.5374C80.3094 19.386 80.0334 19.646 79.7094 19.838C79.3854 20.03 79.0474 20.126 78.6954 20.126ZM79.2954 19.364C79.5434 19.364 79.7754 19.3 79.9914 19.172C80.2074 19.04 80.3894 18.858 80.5374 18.626V16.934C80.0014 17.038 79.5794 17.152 79.2714 17.276C78.9674 17.4 78.7514 17.552 78.6234 17.732C78.4994 17.908 78.4374 18.13 78.4374 18.398C78.4374 18.706 78.5094 18.944 78.6534 19.112C78.8014 19.28 79.0154 19.364 79.2954 19.364ZM83.3915 20V19.736L84.2915 19.55V14.66L83.4155 14.33V14.156L85.3355 13.58H85.4675V14.876L85.5155 14.936V19.55L86.7515 19.736V20H83.3915ZM85.4255 15.428L85.4015 14.936C85.6975 14.5 85.9915 14.164 86.2835 13.928C86.5795 13.692 86.8555 13.574 87.1115 13.574C87.3315 13.574 87.5175 13.65 87.6695 13.802C87.8215 13.95 87.8975 14.13 87.8975 14.342C87.8975 14.538 87.8315 14.704 87.6995 14.84C87.5675 14.972 87.4035 15.038 87.2075 15.038C87.0075 15.038 86.8515 14.964 86.7395 14.816C86.6595 14.724 86.5915 14.662 86.5355 14.63C86.4795 14.594 86.4155 14.576 86.3435 14.576C86.2275 14.576 86.0815 14.654 85.9055 14.81C85.7335 14.962 85.5735 15.168 85.4255 15.428Z" fill="white"/>
<path d="M31 0H5C2.23858 0 0 2.23858 0 5V27C0 29.7614 2.23858 32 5 32H31V0Z" fill="#F00554"/>
<path d="M20.05 21.711H10.626L9.422 24.627L15.338 28L21.254 24.627L20.05 21.711ZM18.03 4L25.862 20.855L26.676 7.999L18.03 4ZM12.646 4L4 7.999L4.814 20.855L12.646 4ZM12.241 17.93H18.439L15.338 10.396L12.241 17.93Z" fill="white"/>
</svg>
