<svg width="100" height="32" viewBox="0 0 100 32" fill="none" xmlns="http://www.w3.org/2000/svg">
<path d="M95 0H31V32H95C97.7614 32 100 29.7614 100 27V5C100 2.23858 97.7614 0 95 0Z" fill="#0F1418"/>
<path d="M38.564 20V19.712L39.584 19.472V11.384L38.564 11.15V10.862H42.152C42.704 10.862 43.162 10.902 43.526 10.982C43.894 11.058 44.2 11.178 44.444 11.342C44.728 11.538 44.95 11.788 45.11 12.092C45.27 12.396 45.35 12.724 45.35 13.076C45.35 13.588 45.178 14.02 44.834 14.372C44.494 14.724 44.004 14.964 43.364 15.092V15.134C43.844 15.186 44.264 15.324 44.624 15.548C44.984 15.768 45.262 16.052 45.458 16.4C45.658 16.748 45.758 17.14 45.758 17.576C45.758 17.94 45.686 18.28 45.542 18.596C45.398 18.912 45.2 19.172 44.948 19.376C44.672 19.6 44.334 19.76 43.934 19.856C43.534 19.952 43.006 20 42.35 20H38.564ZM41.966 19.526C42.75 19.526 43.328 19.36 43.7 19.028C44.076 18.692 44.264 18.174 44.264 17.474C44.264 16.758 44.07 16.232 43.682 15.896C43.294 15.556 42.688 15.386 41.864 15.386H40.934V18.818C40.934 19.094 41.006 19.282 41.15 19.382C41.298 19.478 41.57 19.526 41.966 19.526ZM40.934 14.894H41.594C41.81 14.894 41.99 14.892 42.134 14.888C42.282 14.88 42.418 14.87 42.542 14.858C42.982 14.81 43.32 14.632 43.556 14.324C43.792 14.012 43.91 13.59 43.91 13.058C43.91 12.774 43.874 12.536 43.802 12.344C43.73 12.148 43.616 11.974 43.46 11.822C43.288 11.646 43.08 11.524 42.836 11.456C42.596 11.384 42.266 11.348 41.846 11.348H40.934V14.894ZM50.0569 20.126C49.4409 20.126 48.8949 19.984 48.4189 19.7C47.9429 19.412 47.5689 19.022 47.2969 18.53C47.0289 18.034 46.8949 17.476 46.8949 16.856C46.8949 16.232 47.0289 15.674 47.2969 15.182C47.5689 14.69 47.9429 14.302 48.4189 14.018C48.8949 13.73 49.4409 13.586 50.0569 13.586C50.6729 13.586 51.2169 13.73 51.6889 14.018C52.1649 14.302 52.5389 14.69 52.8109 15.182C53.0829 15.674 53.2189 16.232 53.2189 16.856C53.2189 17.476 53.0829 18.034 52.8109 18.53C52.5389 19.022 52.1649 19.412 51.6889 19.7C51.2169 19.984 50.6729 20.126 50.0569 20.126ZM50.0449 19.574C50.3369 19.574 50.5949 19.51 50.8189 19.382C51.0429 19.25 51.2309 19.064 51.3829 18.824C51.5389 18.58 51.6569 18.292 51.7369 17.96C51.8169 17.624 51.8569 17.252 51.8569 16.844C51.8569 16.44 51.8169 16.072 51.7369 15.74C51.6609 15.408 51.5469 15.122 51.3949 14.882C51.2429 14.642 51.0549 14.458 50.8309 14.33C50.6069 14.198 50.3489 14.132 50.0569 14.132C49.7649 14.132 49.5069 14.198 49.2829 14.33C49.0589 14.458 48.8709 14.642 48.7189 14.882C48.5669 15.122 48.4509 15.41 48.3709 15.746C48.2949 16.078 48.2569 16.448 48.2569 16.856C48.2569 17.264 48.2949 17.634 48.3709 17.966C48.4509 18.298 48.5669 18.584 48.7189 18.824C48.8709 19.064 49.0569 19.25 49.2769 19.382C49.5009 19.51 49.7569 19.574 50.0449 19.574ZM57.4163 20.126C56.8003 20.126 56.2543 19.984 55.7783 19.7C55.3023 19.412 54.9283 19.022 54.6563 18.53C54.3883 18.034 54.2543 17.476 54.2543 16.856C54.2543 16.232 54.3883 15.674 54.6563 15.182C54.9283 14.69 55.3023 14.302 55.7783 14.018C56.2543 13.73 56.8003 13.586 57.4163 13.586C58.0323 13.586 58.5763 13.73 59.0483 14.018C59.5243 14.302 59.8983 14.69 60.1703 15.182C60.4423 15.674 60.5783 16.232 60.5783 16.856C60.5783 17.476 60.4423 18.034 60.1703 18.53C59.8983 19.022 59.5243 19.412 59.0483 19.7C58.5763 19.984 58.0323 20.126 57.4163 20.126ZM57.4043 19.574C57.6963 19.574 57.9543 19.51 58.1783 19.382C58.4023 19.25 58.5903 19.064 58.7423 18.824C58.8983 18.58 59.0163 18.292 59.0963 17.96C59.1763 17.624 59.2163 17.252 59.2163 16.844C59.2163 16.44 59.1763 16.072 59.0963 15.74C59.0203 15.408 58.9063 15.122 58.7543 14.882C58.6023 14.642 58.4143 14.458 58.1903 14.33C57.9663 14.198 57.7083 14.132 57.4163 14.132C57.1243 14.132 56.8663 14.198 56.6423 14.33C56.4183 14.458 56.2303 14.642 56.0783 14.882C55.9263 15.122 55.8103 15.41 55.7303 15.746C55.6543 16.078 55.6163 16.448 55.6163 16.856C55.6163 17.264 55.6543 17.634 55.7303 17.966C55.8103 18.298 55.9263 18.584 56.0783 18.824C56.2303 19.064 56.4163 19.25 56.6363 19.382C56.8603 19.51 57.1163 19.574 57.4043 19.574ZM63.5997 20.126C63.1557 20.126 62.8177 20 62.5857 19.748C62.3537 19.496 62.2377 19.134 62.2377 18.662V14.15H61.4577L61.4217 13.934L63.2217 12.146L63.4557 12.17V13.706H65.1717L65.0697 14.15H63.4557V18.542C63.4557 19.198 63.6917 19.526 64.1637 19.526C64.3237 19.526 64.4817 19.484 64.6377 19.4C64.7977 19.316 64.9337 19.2 65.0457 19.052L65.2557 19.238C65.0717 19.51 64.8317 19.726 64.5357 19.886C64.2437 20.046 63.9317 20.126 63.5997 20.126ZM67.7578 20.126C67.5018 20.126 67.2178 20.1 66.9058 20.048C66.5978 20 66.3278 19.938 66.0958 19.862L66.0178 17.936H66.3298C66.3818 18.528 66.5338 18.976 66.7858 19.28C67.0378 19.58 67.3878 19.73 67.8358 19.73C68.1838 19.73 68.4618 19.634 68.6698 19.442C68.8818 19.246 68.9878 18.99 68.9878 18.674C68.9878 18.41 68.9098 18.184 68.7538 17.996C68.5978 17.804 68.3278 17.61 67.9438 17.414L67.4458 17.168C66.9338 16.912 66.5678 16.644 66.3478 16.364C66.1278 16.08 66.0178 15.738 66.0178 15.338C66.0178 14.778 66.2118 14.346 66.5998 14.042C66.9918 13.738 67.5498 13.586 68.2738 13.586C68.5538 13.586 68.8238 13.606 69.0838 13.646C69.3478 13.682 69.5538 13.732 69.7018 13.796V15.44H69.4258C69.3098 14.464 68.8558 13.976 68.0638 13.976C67.7558 13.976 67.5078 14.06 67.3198 14.228C67.1358 14.392 67.0438 14.616 67.0438 14.9C67.0438 15.148 67.1238 15.36 67.2838 15.536C67.4478 15.712 67.7238 15.894 68.1118 16.082L68.6578 16.346C69.1298 16.578 69.4698 16.834 69.6778 17.114C69.8858 17.394 69.9898 17.748 69.9898 18.176C69.9898 18.772 69.7898 19.246 69.3898 19.598C68.9898 19.95 68.4458 20.126 67.7578 20.126ZM72.9981 20.126C72.5541 20.126 72.2161 20 71.9841 19.748C71.7521 19.496 71.6361 19.134 71.6361 18.662V14.15H70.8561L70.8201 13.934L72.6201 12.146L72.8541 12.17V13.706H74.5701L74.4681 14.15H72.8541V18.542C72.8541 19.198 73.0901 19.526 73.5621 19.526C73.7221 19.526 73.8801 19.484 74.0361 19.4C74.1961 19.316 74.3321 19.2 74.4441 19.052L74.6541 19.238C74.4701 19.51 74.2301 19.726 73.9341 19.886C73.6421 20.046 73.3301 20.126 72.9981 20.126ZM75.1103 20V19.736L76.0103 19.55V14.66L75.1343 14.33V14.156L77.0543 13.58H77.1863V14.876L77.2343 14.936V19.55L78.4703 19.736V20H75.1103ZM77.1443 15.428L77.1203 14.936C77.4163 14.5 77.7103 14.164 78.0023 13.928C78.2983 13.692 78.5743 13.574 78.8303 13.574C79.0503 13.574 79.2363 13.65 79.3883 13.802C79.5403 13.95 79.6163 14.13 79.6163 14.342C79.6163 14.538 79.5503 14.704 79.4183 14.84C79.2863 14.972 79.1223 15.038 78.9263 15.038C78.7263 15.038 78.5703 14.964 78.4583 14.816C78.3783 14.724 78.3103 14.662 78.2543 14.63C78.1983 14.594 78.1343 14.576 78.0623 14.576C77.9463 14.576 77.8003 14.654 77.6243 14.81C77.4523 14.962 77.2923 15.168 77.1443 15.428ZM81.7345 20.126C81.3065 20.126 80.9585 19.992 80.6905 19.724C80.4265 19.456 80.2945 19.108 80.2945 18.68C80.2945 18.328 80.4025 18.024 80.6185 17.768C80.8345 17.512 81.1825 17.288 81.6625 17.096C82.1465 16.9 82.7845 16.722 83.5765 16.562V15.44C83.5765 14.932 83.5065 14.576 83.3665 14.372C83.2305 14.168 82.9945 14.066 82.6585 14.066C82.3265 14.066 82.0625 14.146 81.8665 14.306C81.6705 14.466 81.5725 14.682 81.5725 14.954C81.5725 15.03 81.5765 15.106 81.5845 15.182C81.5965 15.254 81.6025 15.324 81.6025 15.392C81.6025 15.596 81.5405 15.764 81.4165 15.896C81.2965 16.028 81.1425 16.094 80.9545 16.094C80.7825 16.094 80.6425 16.038 80.5345 15.926C80.4305 15.814 80.3785 15.668 80.3785 15.488C80.3785 15.228 80.4905 14.962 80.7145 14.69C80.9425 14.414 81.2425 14.178 81.6145 13.982C82.1105 13.718 82.6485 13.586 83.2285 13.586C83.5765 13.586 83.8705 13.64 84.1105 13.748C84.3545 13.856 84.5305 14.01 84.6385 14.21C84.7025 14.346 84.7445 14.518 84.7645 14.726C84.7885 14.934 84.8005 15.282 84.8005 15.77V18.452C84.8005 18.84 84.8305 19.104 84.8905 19.244C84.9545 19.384 85.0725 19.454 85.2445 19.454C85.4405 19.454 85.6305 19.342 85.8145 19.118L86.0305 19.322C85.8345 19.606 85.6345 19.812 85.4305 19.94C85.2305 20.064 84.9965 20.126 84.7285 20.126C84.4045 20.126 84.1525 20.038 83.9725 19.862C83.7925 19.686 83.6725 19.418 83.6125 19.058H83.5765C83.3485 19.386 83.0725 19.646 82.7485 19.838C82.4245 20.03 82.0865 20.126 81.7345 20.126ZM82.3345 19.364C82.5825 19.364 82.8145 19.3 83.0305 19.172C83.2465 19.04 83.4285 18.858 83.5765 18.626V16.934C83.0405 17.038 82.6185 17.152 82.3105 17.276C82.0065 17.4 81.7905 17.552 81.6625 17.732C81.5385 17.908 81.4765 18.13 81.4765 18.398C81.4765 18.706 81.5485 18.944 81.6925 19.112C81.8405 19.28 82.0545 19.364 82.3345 19.364ZM86.3046 22.97V22.736L87.2166 22.538V14.66L86.3346 14.342V14.156L88.2486 13.586H88.3926V14.612H88.4406C88.6806 14.256 88.9746 13.996 89.3226 13.832C89.6746 13.668 90.0306 13.586 90.3906 13.586C90.8906 13.586 91.3286 13.724 91.7046 14C92.0846 14.272 92.3806 14.646 92.5926 15.122C92.8086 15.598 92.9166 16.142 92.9166 16.754C92.9166 17.414 92.7766 17.998 92.4966 18.506C92.2166 19.014 91.8266 19.412 91.3266 19.7C90.8306 19.984 90.2506 20.126 89.5866 20.126C89.3946 20.126 89.2046 20.11 89.0166 20.078C88.8286 20.05 88.6386 20.004 88.4466 19.94V22.538L89.6706 22.736V22.97H86.3046ZM89.6346 19.724C90.0226 19.724 90.3626 19.606 90.6546 19.37C90.9466 19.134 91.1726 18.808 91.3326 18.392C91.4966 17.972 91.5786 17.49 91.5786 16.946C91.5786 16.15 91.4166 15.524 91.0926 15.068C90.7726 14.612 90.3346 14.384 89.7786 14.384C89.5346 14.384 89.2846 14.45 89.0286 14.582C88.7726 14.71 88.5926 14.872 88.4886 15.068V18.542C88.4886 18.886 88.5986 19.17 88.8186 19.394C89.0426 19.614 89.3146 19.724 89.6346 19.724Z" fill="white"/>
<path d="M31 0H5C2.23858 0 0 2.23858 0 5V27C0 29.7614 2.23858 32 5 32H31V0Z" fill="#7952B3"/>
<path d="M14.77 14.804H12.956V11.766H15.108C16.278 11.766 16.942 12.288 16.942 13.232C16.942 14.24 16.169 14.804 14.768 14.804H14.77ZM15.094 16.01H12.957V19.358H15.188C16.647 19.358 17.42 18.773 17.42 17.673C17.42 16.573 16.625 16.01 15.094 16.01ZM27 14.954V16.172C25.872 16.28 25.183 17.116 24.774 18.44C24.367 19.759 24.311 21.377 24.354 22.626C24.399 23.926 23.386 25.126 22.017 25.126H7.985C6.615 25.126 5.602 23.926 5.648 22.626C5.691 21.377 5.635 19.759 5.228 18.44C4.818 17.116 4.128 16.28 3 16.172V14.954C4.128 14.846 4.819 14.01 5.227 12.686C5.635 11.367 5.691 9.749 5.647 8.5C5.602 7.2 6.615 6 7.985 6H22.017C23.387 6 24.399 7.2 24.354 8.5C24.311 9.749 24.367 11.367 24.774 12.686C25.183 14.01 25.872 14.846 27 14.954ZM19.073 17.771C19.073 16.417 18.12 15.438 16.705 15.283V15.226C17.745 15.057 18.561 14.091 18.561 13.013C18.561 11.476 17.348 10.475 15.499 10.475H11.339V20.647H15.52C17.738 20.647 19.073 19.561 19.073 17.771Z" fill="white"/>
</svg>
