<svg width="100" height="32" viewBox="0 0 100 32" fill="none" xmlns="http://www.w3.org/2000/svg">
<path d="M95 0H31V32H95C97.7614 32 100 29.7614 100 27V5C100 2.23858 97.7614 0 95 0Z" fill="#0F1418"/>
<path d="M43.564 20V19.712L44.584 19.472V11.378L43.564 11.15V10.862H50.26L50.47 13.472H50.152C50.056 13.136 49.938 12.784 49.798 12.416C49.662 12.044 49.494 11.69 49.294 11.354H45.934V19.502H49.234C49.47 19.118 49.662 18.738 49.81 18.362C49.962 17.986 50.106 17.606 50.242 17.222H50.662L50.212 20H43.564ZM48.424 16.844C48.384 16.604 48.328 16.366 48.256 16.13C48.184 15.894 48.09 15.66 47.974 15.428H45.766V14.93H47.974C48.09 14.694 48.182 14.458 48.25 14.222C48.322 13.982 48.38 13.746 48.424 13.514H48.736V16.844H48.424ZM55.1854 20V19.736C55.5854 19.704 55.8134 19.652 55.8694 19.58C55.9294 19.508 55.8754 19.348 55.7074 19.1L52.6354 14.48C52.5234 14.316 52.3954 14.202 52.2514 14.138C52.1074 14.07 51.8694 14.014 51.5374 13.97V13.706H54.6454V13.97C54.3014 13.994 54.0974 14.048 54.0334 14.132C53.9734 14.216 54.0234 14.374 54.1834 14.606L57.2554 19.226C57.3674 19.386 57.4894 19.504 57.6214 19.58C57.7574 19.656 57.9714 19.708 58.2634 19.736V20H55.1854ZM51.2794 20V19.736C51.6834 19.68 51.9974 19.59 52.2214 19.466C52.4454 19.342 52.6554 19.152 52.8514 18.896L54.5014 16.688L54.9334 16.91L53.3974 18.878C53.1974 19.138 53.1394 19.334 53.2234 19.466C53.3114 19.594 53.5594 19.684 53.9674 19.736V20H51.2794ZM55.0774 16.73L54.6454 16.58L56.0314 14.828C56.2314 14.568 56.2954 14.376 56.2234 14.252C56.1514 14.128 55.9274 14.034 55.5514 13.97V13.706H58.0594V13.97C57.8034 14.018 57.5954 14.072 57.4354 14.132C57.2794 14.192 57.1434 14.272 57.0274 14.372C56.9114 14.468 56.7834 14.602 56.6434 14.774L55.0774 16.73ZM58.5155 22.97V22.736L59.4275 22.538V14.66L58.5455 14.342V14.156L60.4595 13.586H60.6035V14.612H60.6515C60.8915 14.256 61.1855 13.996 61.5335 13.832C61.8855 13.668 62.2415 13.586 62.6015 13.586C63.1015 13.586 63.5395 13.724 63.9155 14C64.2955 14.272 64.5915 14.646 64.8035 15.122C65.0195 15.598 65.1275 16.142 65.1275 16.754C65.1275 17.414 64.9875 17.998 64.7075 18.506C64.4275 19.014 64.0375 19.412 63.5375 19.7C63.0415 19.984 62.4615 20.126 61.7975 20.126C61.6055 20.126 61.4155 20.11 61.2275 20.078C61.0395 20.05 60.8495 20.004 60.6575 19.94V22.538L61.8815 22.736V22.97H58.5155ZM61.8455 19.724C62.2335 19.724 62.5735 19.606 62.8655 19.37C63.1575 19.134 63.3835 18.808 63.5435 18.392C63.7075 17.972 63.7895 17.49 63.7895 16.946C63.7895 16.15 63.6275 15.524 63.3035 15.068C62.9835 14.612 62.5455 14.384 61.9895 14.384C61.7455 14.384 61.4955 14.45 61.2395 14.582C60.9835 14.71 60.8035 14.872 60.6995 15.068V18.542C60.6995 18.886 60.8095 19.17 61.0295 19.394C61.2535 19.614 61.5255 19.724 61.8455 19.724ZM66.0361 20V19.736L66.9361 19.55V14.66L66.0601 14.33V14.156L67.9801 13.58H68.1121V14.876L68.1601 14.936V19.55L69.3961 19.736V20H66.0361ZM68.0701 15.428L68.0461 14.936C68.3421 14.5 68.6361 14.164 68.9281 13.928C69.2241 13.692 69.5001 13.574 69.7561 13.574C69.9761 13.574 70.1621 13.65 70.3141 13.802C70.4661 13.95 70.5421 14.13 70.5421 14.342C70.5421 14.538 70.4761 14.704 70.3441 14.84C70.2121 14.972 70.0481 15.038 69.8521 15.038C69.6521 15.038 69.4961 14.964 69.3841 14.816C69.3041 14.724 69.2361 14.662 69.1801 14.63C69.1241 14.594 69.0601 14.576 68.9881 14.576C68.8721 14.576 68.7261 14.654 68.5501 14.81C68.3781 14.962 68.2181 15.168 68.0701 15.428ZM74.0125 20.126C73.4325 20.126 72.9225 19.994 72.4825 19.73C72.0465 19.462 71.7065 19.09 71.4625 18.614C71.2225 18.134 71.1025 17.58 71.1025 16.952C71.1025 16.284 71.2365 15.698 71.5045 15.194C71.7765 14.69 72.1545 14.296 72.6385 14.012C73.1265 13.728 73.6905 13.586 74.3305 13.586C75.1225 13.586 75.7285 13.816 76.1485 14.276C76.5725 14.736 76.7925 15.41 76.8085 16.298L76.7245 16.37H72.0745V16.022L75.4345 15.902C75.4625 15.798 75.4765 15.64 75.4765 15.428C75.4765 14.468 75.0545 13.988 74.2105 13.988C73.6305 13.988 73.1825 14.216 72.8665 14.672C72.5545 15.124 72.3985 15.766 72.3985 16.598C72.3985 18.338 73.0745 19.208 74.4265 19.208C75.3065 19.208 75.9805 18.888 76.4485 18.248L76.6705 18.386C76.4625 18.938 76.1245 19.366 75.6565 19.67C75.1925 19.974 74.6445 20.126 74.0125 20.126ZM79.6953 20.126C79.4393 20.126 79.1553 20.1 78.8433 20.048C78.5353 20 78.2653 19.938 78.0333 19.862L77.9553 17.936H78.2673C78.3193 18.528 78.4713 18.976 78.7233 19.28C78.9753 19.58 79.3253 19.73 79.7733 19.73C80.1213 19.73 80.3993 19.634 80.6073 19.442C80.8193 19.246 80.9253 18.99 80.9253 18.674C80.9253 18.41 80.8473 18.184 80.6913 17.996C80.5353 17.804 80.2653 17.61 79.8813 17.414L79.3833 17.168C78.8713 16.912 78.5053 16.644 78.2853 16.364C78.0653 16.08 77.9553 15.738 77.9553 15.338C77.9553 14.778 78.1493 14.346 78.5373 14.042C78.9293 13.738 79.4873 13.586 80.2113 13.586C80.4913 13.586 80.7613 13.606 81.0213 13.646C81.2853 13.682 81.4913 13.732 81.6393 13.796V15.44H81.3633C81.2473 14.464 80.7933 13.976 80.0013 13.976C79.6933 13.976 79.4453 14.06 79.2573 14.228C79.0733 14.392 78.9813 14.616 78.9813 14.9C78.9813 15.148 79.0613 15.36 79.2213 15.536C79.3853 15.712 79.6613 15.894 80.0493 16.082L80.5953 16.346C81.0673 16.578 81.4073 16.834 81.6153 17.114C81.8233 17.394 81.9273 17.748 81.9273 18.176C81.9273 18.772 81.7273 19.246 81.3273 19.598C80.9273 19.95 80.3833 20.126 79.6953 20.126ZM84.9219 20.126C84.6659 20.126 84.3819 20.1 84.0699 20.048C83.7619 20 83.4919 19.938 83.2599 19.862L83.1819 17.936H83.4939C83.5459 18.528 83.6979 18.976 83.9499 19.28C84.2019 19.58 84.5519 19.73 84.9999 19.73C85.3479 19.73 85.6259 19.634 85.8339 19.442C86.0459 19.246 86.1519 18.99 86.1519 18.674C86.1519 18.41 86.0739 18.184 85.9179 17.996C85.7619 17.804 85.4919 17.61 85.1079 17.414L84.6099 17.168C84.0979 16.912 83.7319 16.644 83.5119 16.364C83.2919 16.08 83.1819 15.738 83.1819 15.338C83.1819 14.778 83.3759 14.346 83.7639 14.042C84.1559 13.738 84.7139 13.586 85.4379 13.586C85.7179 13.586 85.9879 13.606 86.2479 13.646C86.5119 13.682 86.7179 13.732 86.8659 13.796V15.44H86.5899C86.4739 14.464 86.0199 13.976 85.2279 13.976C84.9199 13.976 84.6719 14.06 84.4839 14.228C84.2999 14.392 84.2079 14.616 84.2079 14.9C84.2079 15.148 84.2879 15.36 84.4479 15.536C84.6119 15.712 84.8879 15.894 85.2759 16.082L85.8219 16.346C86.2939 16.578 86.6339 16.834 86.8419 17.114C87.0499 17.394 87.1539 17.748 87.1539 18.176C87.1539 18.772 86.9539 19.246 86.5539 19.598C86.1539 19.95 85.6099 20.126 84.9219 20.126Z" fill="white"/>
<path d="M31 0H5C2.23858 0 0 2.23858 0 5V27C0 29.7614 2.23858 32 5 32H31V0Z" fill="black"/>
<path d="M27 22.5514C26.6507 22.6835 26.2651 22.6832 25.916 22.5506C25.5669 22.4179 25.2785 22.1621 25.105 21.8314L21.655 17.0604L21.155 16.3934L17.152 21.8374C16.989 22.1543 16.7162 22.4009 16.3845 22.5312C16.0529 22.6615 15.6851 22.6665 15.35 22.5454L20.508 15.6254L15.71 9.3744C16.055 9.25008 16.4323 9.24843 16.7784 9.36973C17.1244 9.49104 17.4181 9.72789 17.61 10.0404L21.186 14.8704L24.782 10.0604C24.9463 9.74919 25.2192 9.50919 25.5488 9.38603C25.8785 9.26287 26.2419 9.26514 26.57 9.3924L24.708 11.8634L22.186 15.1464C22.116 15.2089 22.0599 15.2855 22.0216 15.3711C21.9832 15.4568 21.9633 15.5495 21.9633 15.6434C21.9633 15.7373 21.9832 15.8301 22.0216 15.9157C22.0599 16.0014 22.116 16.0779 22.186 16.1404L26.99 22.5524L27 22.5514ZM3.00201 15.5394L3.42201 13.4644C4.57601 9.3614 9.28001 7.6544 12.516 10.1944C14.411 11.6834 14.884 13.7914 14.791 16.1674H4.11601C3.94301 20.4104 7.00501 22.9724 10.92 21.6634C11.5547 21.435 12.1228 21.0526 12.5734 20.5507C13.024 20.0488 13.3431 19.4429 13.502 18.7874C13.709 18.1214 14.05 18.0074 14.676 18.1994C14.5717 19.0118 14.2845 19.7899 13.8361 20.4753C13.3876 21.1607 12.7896 21.7355 12.087 22.1564C10.9264 22.7912 9.59484 23.0428 8.28264 22.8753C6.97043 22.7077 5.74481 22.1295 4.78101 21.2234C3.82804 20.1508 3.25209 18.7959 3.14101 17.3654C3.14101 17.1304 3.06101 16.9104 3.00701 16.6994C3.00214 16.3131 2.99981 15.9267 3.00001 15.5404L3.00201 15.5394ZM4.12901 15.2534H13.783C13.723 12.1774 11.782 9.9954 9.19301 9.9754C6.31101 9.9354 4.24901 12.0694 4.12201 15.2394L4.12901 15.2534Z" fill="white"/>
</svg>
