<svg width="100" height="32" viewBox="0 0 100 32" fill="none" xmlns="http://www.w3.org/2000/svg">
<path d="M95 0H31V32H95C97.7614 32 100 29.7614 100 27V5C100 2.23858 97.7614 0 95 0Z" fill="#0F1418"/>
<path d="M51.564 20V19.712L52.584 19.472V11.378L51.564 11.15V10.862H58.26L58.47 13.472H58.152C58.06 13.136 57.944 12.784 57.804 12.416C57.668 12.044 57.5 11.69 57.3 11.354H53.934V19.472L55.284 19.712V20H51.564ZM56.43 16.844C56.35 16.356 56.202 15.884 55.986 15.428H53.772V14.93H55.986C56.098 14.694 56.188 14.458 56.256 14.222C56.328 13.982 56.386 13.746 56.43 13.514H56.736V16.844H56.43ZM59.0335 20V19.736L59.9455 19.55V11.21L59.0455 10.892V10.706L61.0435 10.142H61.1695V19.55L62.0695 19.736V20H59.0335ZM64.336 20.126C63.908 20.126 63.56 19.992 63.292 19.724C63.028 19.456 62.896 19.108 62.896 18.68C62.896 18.328 63.004 18.024 63.22 17.768C63.436 17.512 63.784 17.288 64.264 17.096C64.748 16.9 65.386 16.722 66.178 16.562V15.44C66.178 14.932 66.108 14.576 65.968 14.372C65.832 14.168 65.596 14.066 65.26 14.066C64.928 14.066 64.664 14.146 64.468 14.306C64.272 14.466 64.174 14.682 64.174 14.954C64.174 15.03 64.178 15.106 64.186 15.182C64.198 15.254 64.204 15.324 64.204 15.392C64.204 15.596 64.142 15.764 64.018 15.896C63.898 16.028 63.744 16.094 63.556 16.094C63.384 16.094 63.244 16.038 63.136 15.926C63.032 15.814 62.98 15.668 62.98 15.488C62.98 15.228 63.092 14.962 63.316 14.69C63.544 14.414 63.844 14.178 64.216 13.982C64.712 13.718 65.25 13.586 65.83 13.586C66.178 13.586 66.472 13.64 66.712 13.748C66.956 13.856 67.132 14.01 67.24 14.21C67.304 14.346 67.346 14.518 67.366 14.726C67.39 14.934 67.402 15.282 67.402 15.77V18.452C67.402 18.84 67.432 19.104 67.492 19.244C67.556 19.384 67.674 19.454 67.846 19.454C68.042 19.454 68.232 19.342 68.416 19.118L68.632 19.322C68.436 19.606 68.236 19.812 68.032 19.94C67.832 20.064 67.598 20.126 67.33 20.126C67.006 20.126 66.754 20.038 66.574 19.862C66.394 19.686 66.274 19.418 66.214 19.058H66.178C65.95 19.386 65.674 19.646 65.35 19.838C65.026 20.03 64.688 20.126 64.336 20.126ZM64.936 19.364C65.184 19.364 65.416 19.3 65.632 19.172C65.848 19.04 66.03 18.858 66.178 18.626V16.934C65.642 17.038 65.22 17.152 64.912 17.276C64.608 17.4 64.392 17.552 64.264 17.732C64.14 17.908 64.078 18.13 64.078 18.398C64.078 18.706 64.15 18.944 64.294 19.112C64.442 19.28 64.656 19.364 64.936 19.364ZM71.0782 20.126C70.8222 20.126 70.5382 20.1 70.2262 20.048C69.9182 20 69.6482 19.938 69.4162 19.862L69.3382 17.936H69.6502C69.7022 18.528 69.8542 18.976 70.1062 19.28C70.3582 19.58 70.7082 19.73 71.1562 19.73C71.5042 19.73 71.7822 19.634 71.9902 19.442C72.2022 19.246 72.3082 18.99 72.3082 18.674C72.3082 18.41 72.2302 18.184 72.0742 17.996C71.9182 17.804 71.6482 17.61 71.2642 17.414L70.7662 17.168C70.2542 16.912 69.8882 16.644 69.6682 16.364C69.4482 16.08 69.3382 15.738 69.3382 15.338C69.3382 14.778 69.5322 14.346 69.9202 14.042C70.3122 13.738 70.8702 13.586 71.5942 13.586C71.8742 13.586 72.1442 13.606 72.4042 13.646C72.6682 13.682 72.8742 13.732 73.0222 13.796V15.44H72.7462C72.6302 14.464 72.1762 13.976 71.3842 13.976C71.0762 13.976 70.8282 14.06 70.6402 14.228C70.4562 14.392 70.3642 14.616 70.3642 14.9C70.3642 15.148 70.4442 15.36 70.6042 15.536C70.7682 15.712 71.0442 15.894 71.4322 16.082L71.9782 16.346C72.4502 16.578 72.7902 16.834 72.9982 17.114C73.2062 17.394 73.3102 17.748 73.3102 18.176C73.3102 18.772 73.1102 19.246 72.7102 19.598C72.3102 19.95 71.7662 20.126 71.0782 20.126ZM74.1447 20V19.736L75.0627 19.55V11.216L74.1747 10.892V10.724L76.1187 10.142H76.2567V19.55L77.1627 19.736V20H74.1447ZM79.0947 20L76.6407 16.898L77.4087 15.992L80.2707 19.55L81.2667 19.736V20H79.0947ZM75.9807 17.876L75.8847 17.312L78.2307 14.678C78.3187 14.582 78.3827 14.5 78.4227 14.432C78.4667 14.36 78.4887 14.3 78.4887 14.252C78.4887 14.184 78.4287 14.13 78.3087 14.09C78.1887 14.05 77.9487 14.01 77.5887 13.97V13.706H80.3307V13.97C80.0067 14.026 79.7567 14.08 79.5807 14.132C79.4047 14.18 79.2627 14.244 79.1547 14.324C79.0507 14.4 78.9387 14.508 78.8187 14.648L75.9807 17.876Z" fill="white"/>
<path d="M31 0H5C2.23858 0 0 2.23858 0 5V27C0 29.7614 2.23858 32 5 32H31V0Z" fill="#3BABC3"/>
<path d="M13.7732 6.37814C13.7602 7.81214 14.0952 11.0021 14.2182 12.1121L5.66023 15.9421C5.10023 14.9831 4.68023 13.6381 4.42323 12.5621L4.36323 12.5891C4.15823 12.6791 3.95723 12.6421 3.86923 12.5011L3.85823 12.4831L3.03823 10.9771C2.98023 10.8721 2.98823 10.7251 3.06223 10.5851C3.14312 10.4394 3.26859 10.3234 3.42023 10.2541L13.2442 6.04714C13.3902 5.98314 13.5432 5.98414 13.6442 6.05114C13.7502 6.11314 13.7712 6.17914 13.7742 6.37814H13.7732ZM14.4532 13.3781C14.9762 15.3481 15.1282 15.7901 15.2852 16.1961L8.02223 19.8961C7.33799 19.0071 6.73238 18.0602 6.21223 17.0661L14.4522 13.3771L14.4532 13.3781ZM26.8852 22.1641H26.8882C27.1712 22.5661 26.8412 22.8211 26.7352 22.8621L25.7882 23.2321C25.8252 23.3571 25.8232 23.5511 25.5712 23.6461L24.8352 23.9331C24.6062 24.0231 24.4372 23.8741 24.4152 23.7331L24.3902 23.6081C19.9632 25.3921 16.4502 25.2931 13.6942 24.2551C11.7132 23.5101 10.1182 22.2721 8.84823 20.8761L15.7962 17.3361C16.5172 18.7671 17.3822 19.7901 18.3052 20.5141C20.3912 22.1521 22.7202 22.2261 24.0982 22.0771L24.0512 21.8441C24.0362 21.7671 24.0582 21.7091 24.1372 21.6791L24.8712 21.3911C24.9301 21.3678 24.9947 21.3636 25.0561 21.379C25.1174 21.3945 25.1724 21.4288 25.2132 21.4771L25.9612 21.1891C26.02 21.1667 26.0843 21.1629 26.1453 21.1783C26.2063 21.1937 26.2611 21.2275 26.3022 21.2751L26.8852 22.1651V22.1641Z" fill="white"/>
</svg>
