<svg width="100" height="32" viewBox="0 0 100 32" fill="none" xmlns="http://www.w3.org/2000/svg">
<path d="M95 0H31V32H95C97.7614 32 100 29.7614 100 27V5C100 2.23858 97.7614 0 95 0Z" fill="#0F1418"/>
<path d="M45.928 23.09C45.464 23.09 45.1 22.994 44.836 22.802C44.568 22.614 44.434 22.352 44.434 22.016C44.434 21.776 44.5 21.586 44.632 21.446C44.76 21.306 44.932 21.236 45.148 21.236C45.324 21.236 45.466 21.284 45.574 21.38C45.678 21.48 45.764 21.622 45.832 21.806C45.916 22.038 46.018 22.204 46.138 22.304C46.258 22.408 46.394 22.46 46.546 22.46C46.818 22.46 47.046 22.302 47.23 21.986C47.414 21.674 47.506 21.198 47.506 20.558V11.378L46.45 11.15V10.862H49.912V11.15L48.862 11.378V18.158C48.862 18.738 48.856 19.214 48.844 19.586C48.836 19.958 48.816 20.26 48.784 20.492C48.756 20.724 48.714 20.92 48.658 21.08C48.606 21.24 48.538 21.4 48.454 21.56C48.174 22.056 47.806 22.434 47.35 22.694C46.898 22.958 46.424 23.09 45.928 23.09ZM52.0821 20.126C51.6541 20.126 51.3061 19.992 51.0381 19.724C50.7741 19.456 50.6421 19.108 50.6421 18.68C50.6421 18.328 50.7501 18.024 50.9661 17.768C51.1821 17.512 51.5301 17.288 52.0101 17.096C52.4941 16.9 53.1321 16.722 53.9241 16.562V15.44C53.9241 14.932 53.8541 14.576 53.7141 14.372C53.5781 14.168 53.3421 14.066 53.0061 14.066C52.6741 14.066 52.4101 14.146 52.2141 14.306C52.0181 14.466 51.9201 14.682 51.9201 14.954C51.9201 15.03 51.9241 15.106 51.9321 15.182C51.9441 15.254 51.9501 15.324 51.9501 15.392C51.9501 15.596 51.8881 15.764 51.7641 15.896C51.6441 16.028 51.4901 16.094 51.3021 16.094C51.1301 16.094 50.9901 16.038 50.8821 15.926C50.7781 15.814 50.7261 15.668 50.7261 15.488C50.7261 15.228 50.8381 14.962 51.0621 14.69C51.2901 14.414 51.5901 14.178 51.9621 13.982C52.4581 13.718 52.9961 13.586 53.5761 13.586C53.9241 13.586 54.2181 13.64 54.4581 13.748C54.7021 13.856 54.8781 14.01 54.9861 14.21C55.0501 14.346 55.0921 14.518 55.1121 14.726C55.1361 14.934 55.1481 15.282 55.1481 15.77V18.452C55.1481 18.84 55.1781 19.104 55.2381 19.244C55.3021 19.384 55.4201 19.454 55.5921 19.454C55.7881 19.454 55.9781 19.342 56.1621 19.118L56.3781 19.322C56.1821 19.606 55.9821 19.812 55.7781 19.94C55.5781 20.064 55.3441 20.126 55.0761 20.126C54.7521 20.126 54.5001 20.038 54.3201 19.862C54.1401 19.686 54.0201 19.418 53.9601 19.058H53.9241C53.6961 19.386 53.4201 19.646 53.0961 19.838C52.7721 20.03 52.4341 20.126 52.0821 20.126ZM52.6821 19.364C52.9301 19.364 53.1621 19.3 53.3781 19.172C53.5941 19.04 53.7761 18.858 53.9241 18.626V16.934C53.3881 17.038 52.9661 17.152 52.6581 17.276C52.3541 17.4 52.1381 17.552 52.0101 17.732C51.8861 17.908 51.8241 18.13 51.8241 18.398C51.8241 18.706 51.8961 18.944 52.0401 19.112C52.1881 19.28 52.4021 19.364 52.6821 19.364ZM59.0478 20.126L56.8758 14.48C56.8038 14.292 56.7158 14.166 56.6118 14.102C56.5078 14.034 56.3058 13.99 56.0058 13.97V13.706H59.0958V13.97C58.7558 13.982 58.5318 14.012 58.4238 14.06C58.3158 14.104 58.2618 14.174 58.2618 14.27C58.2618 14.362 58.2858 14.474 58.3338 14.606L59.6898 18.452H59.7378L61.0038 14.864C61.0758 14.66 61.1118 14.504 61.1118 14.396C61.1118 14.28 61.0598 14.194 60.9558 14.138C60.8518 14.078 60.6238 14.022 60.2718 13.97V13.706H62.7318V13.97C62.4358 14.018 62.2118 14.076 62.0598 14.144C61.9078 14.208 61.7938 14.298 61.7178 14.414C61.6458 14.53 61.5738 14.686 61.5018 14.882L59.6178 20.126H59.0478ZM64.2462 20.126C63.8182 20.126 63.4702 19.992 63.2022 19.724C62.9382 19.456 62.8062 19.108 62.8062 18.68C62.8062 18.328 62.9142 18.024 63.1302 17.768C63.3462 17.512 63.6942 17.288 64.1742 17.096C64.6582 16.9 65.2962 16.722 66.0882 16.562V15.44C66.0882 14.932 66.0182 14.576 65.8782 14.372C65.7422 14.168 65.5062 14.066 65.1702 14.066C64.8382 14.066 64.5742 14.146 64.3782 14.306C64.1822 14.466 64.0842 14.682 64.0842 14.954C64.0842 15.03 64.0882 15.106 64.0962 15.182C64.1082 15.254 64.1142 15.324 64.1142 15.392C64.1142 15.596 64.0522 15.764 63.9282 15.896C63.8082 16.028 63.6542 16.094 63.4662 16.094C63.2942 16.094 63.1542 16.038 63.0462 15.926C62.9422 15.814 62.8902 15.668 62.8902 15.488C62.8902 15.228 63.0022 14.962 63.2262 14.69C63.4542 14.414 63.7542 14.178 64.1262 13.982C64.6222 13.718 65.1602 13.586 65.7402 13.586C66.0882 13.586 66.3822 13.64 66.6222 13.748C66.8662 13.856 67.0422 14.01 67.1502 14.21C67.2142 14.346 67.2562 14.518 67.2762 14.726C67.3002 14.934 67.3122 15.282 67.3122 15.77V18.452C67.3122 18.84 67.3422 19.104 67.4022 19.244C67.4662 19.384 67.5842 19.454 67.7562 19.454C67.9522 19.454 68.1422 19.342 68.3262 19.118L68.5422 19.322C68.3462 19.606 68.1462 19.812 67.9422 19.94C67.7422 20.064 67.5082 20.126 67.2402 20.126C66.9162 20.126 66.6642 20.038 66.4842 19.862C66.3042 19.686 66.1842 19.418 66.1242 19.058H66.0882C65.8602 19.386 65.5842 19.646 65.2602 19.838C64.9362 20.03 64.5982 20.126 64.2462 20.126ZM64.8462 19.364C65.0942 19.364 65.3262 19.3 65.5422 19.172C65.7582 19.04 65.9402 18.858 66.0882 18.626V16.934C65.5522 17.038 65.1302 17.152 64.8222 17.276C64.5182 17.4 64.3022 17.552 64.1742 17.732C64.0502 17.908 63.9882 18.13 63.9882 18.398C63.9882 18.706 64.0602 18.944 64.2042 19.112C64.3522 19.28 64.5662 19.364 64.8462 19.364ZM69.1343 20V19.712L70.1543 19.472V11.378L69.1343 11.15V10.862H75.8303L76.0403 13.472H75.7223C75.6303 13.136 75.5143 12.784 75.3743 12.416C75.2383 12.044 75.0703 11.69 74.8703 11.354H71.5043V19.472L72.8543 19.712V20H69.1343ZM74.0003 16.844C73.9203 16.356 73.7723 15.884 73.5563 15.428H71.3423V14.93H73.5563C73.6683 14.694 73.7583 14.458 73.8263 14.222C73.8983 13.982 73.9563 13.746 74.0003 13.514H74.3063V16.844H74.0003ZM76.2198 20V19.736C76.6878 19.676 77.0538 19.588 77.3178 19.472C77.5858 19.356 77.8198 19.164 78.0198 18.896L80.5038 15.53L77.9718 11.66C77.8998 11.556 77.8178 11.474 77.7258 11.414C77.6338 11.35 77.5018 11.3 77.3298 11.264C77.1578 11.224 76.9158 11.186 76.6038 11.15V10.862H80.3718V11.15C79.9118 11.178 79.6418 11.228 79.5618 11.3C79.4818 11.372 79.5178 11.536 79.6698 11.792L81.4638 14.522L83.3178 12.008C83.5058 11.736 83.5478 11.538 83.4438 11.414C83.3438 11.29 83.0678 11.202 82.6158 11.15V10.862H85.6098V11.15C85.3178 11.202 85.0778 11.258 84.8898 11.318C84.7058 11.378 84.5458 11.458 84.4098 11.558C84.2738 11.658 84.1338 11.796 83.9898 11.972L81.7518 14.966L84.5418 19.208C84.6578 19.38 84.8078 19.5 84.9918 19.568C85.1798 19.636 85.4558 19.686 85.8198 19.718V20H82.0758V19.718C82.4038 19.698 82.6378 19.666 82.7778 19.622C82.9178 19.578 82.9878 19.512 82.9878 19.424C82.9878 19.336 82.9418 19.22 82.8498 19.076L80.9058 16.076L78.6798 18.878C78.4718 19.142 78.4278 19.338 78.5478 19.466C78.6718 19.59 78.9818 19.68 79.4778 19.736V20H76.2198Z" fill="white"/>
<path d="M31 0H5C2.23858 0 0 2.23858 0 5V27C0 29.7614 2.23858 32 5 32H31V0Z" fill="#73A1FB"/>
<path d="M15.3173 9.70585C14.3931 10.3558 13.3458 11.0925 12.7845 12.3113C11.8098 14.4377 14.7792 16.7571 14.9061 16.8548C14.9356 16.8775 14.9709 16.8888 15.0061 16.8888C15.0435 16.8888 15.0809 16.876 15.1113 16.8506C15.1702 16.8013 15.1869 16.7175 15.1515 16.6493C15.1408 16.6286 14.0749 14.5583 14.1145 13.073C14.1286 12.5557 14.8525 11.9689 15.6189 11.3476C16.3209 10.7785 17.1166 10.1336 17.5821 9.37909C18.6042 7.7183 17.4682 6.08525 17.4566 6.06892C17.4115 6.00556 17.3282 5.98263 17.257 6.01384C17.1859 6.04525 17.1465 6.12216 17.1627 6.19822C17.165 6.20904 17.3859 7.28896 16.7712 8.40159C16.518 8.86135 15.9616 9.25268 15.3173 9.70585Z" fill="white"/>
<path d="M19.2108 10.4382C19.276 10.3891 19.2951 10.2995 19.2557 10.228C19.2162 10.1566 19.1303 10.125 19.0539 10.154C18.8969 10.2137 15.2095 11.6351 15.2095 13.3525C15.2095 14.5363 15.7153 15.1617 16.0845 15.6184C16.2294 15.7976 16.3544 15.9523 16.3956 16.0843C16.5116 16.4649 16.2368 17.1528 16.1212 17.3858C16.0879 17.4528 16.1042 17.5339 16.1609 17.5828C16.1915 17.6093 16.2297 17.6227 16.268 17.6227C16.3006 17.6227 16.3333 17.613 16.3616 17.5933C16.425 17.5493 17.9111 16.4986 17.6446 15.2327C17.5453 14.7515 17.3089 14.3999 17.1002 14.0897C16.777 13.609 16.5436 13.2618 16.8977 12.6206C17.3126 11.8726 19.1918 10.4524 19.2108 10.4382Z" fill="white"/>
<path d="M9.61234 17.6499C9.54914 17.8392 9.57898 18.0269 9.69855 18.193C10.0983 18.748 11.5142 19.0535 13.6856 19.0535C13.6857 19.0535 13.6858 19.0535 13.6859 19.0535C13.9801 19.0535 14.2907 19.0477 14.6089 19.0363C18.0806 18.9121 19.3682 17.8305 19.4214 17.7845C19.4793 17.7344 19.4947 17.651 19.4587 17.5835C19.4227 17.516 19.3451 17.4821 19.2709 17.5025C18.0482 17.8363 15.7651 17.9549 14.1815 17.9549C12.4095 17.9549 11.5071 17.8272 11.2862 17.7329C11.3995 17.5773 12.0988 17.2993 12.9652 17.1289C13.048 17.1126 13.1049 17.0362 13.0967 16.9522C13.0885 16.8682 13.018 16.8041 12.9336 16.8041C12.4257 16.8041 9.87859 16.8449 9.61234 17.6499Z" fill="white"/>
<path d="M21.2293 16.5359C20.5133 16.5359 19.8343 16.8948 19.8057 16.91C19.7395 16.9455 19.7059 17.0214 19.724 17.0944C19.7423 17.1672 19.8078 17.2185 19.8829 17.2185C19.8981 17.2185 21.4103 17.2309 21.5473 18.0949C21.6686 18.8403 20.1164 20.0481 19.5081 20.4506C19.4424 20.4941 19.4169 20.578 19.4474 20.6507C19.4734 20.7125 19.5336 20.7512 19.5985 20.7512C19.6098 20.7512 19.6213 20.75 19.6327 20.7476C19.7771 20.7167 23.1642 19.9703 22.8061 17.9982C22.5876 16.7896 21.828 16.5359 21.2293 16.5359Z" fill="white"/>
<path d="M18.9065 20.2092C18.9183 20.1461 18.892 20.0818 18.8394 20.0449L18.0273 19.476C17.9876 19.4483 17.9376 19.4396 17.8911 19.4519C17.8826 19.4541 17.0333 19.6773 15.8003 19.8142C15.3109 19.8691 14.7628 19.8981 14.2151 19.8981C12.9823 19.8981 12.1763 19.7533 12.0589 19.647C12.0434 19.6172 12.0483 19.6036 12.0511 19.5961C12.0724 19.5368 12.1867 19.4663 12.2604 19.4384C12.3417 19.4083 12.3856 19.3199 12.3603 19.237C12.335 19.1539 12.2495 19.105 12.165 19.1253C11.3503 19.3219 10.952 19.5968 10.9809 19.9424C11.0324 20.5551 12.4516 20.8696 13.6515 20.9528C13.824 20.9646 14.0106 20.9705 14.206 20.9705C14.2061 20.9705 14.2061 20.9705 14.2063 20.9705C16.2014 20.9705 18.759 20.3446 18.7846 20.3382C18.847 20.323 18.8946 20.2725 18.9065 20.2092Z" fill="white"/>
<path d="M12.7836 21.5243C12.8451 21.4843 12.8724 21.4082 12.8506 21.3382C12.8288 21.2681 12.7633 21.2221 12.6897 21.2231C12.5805 21.226 11.6214 21.2693 11.5542 21.8799C11.5339 22.0624 11.5862 22.2292 11.7097 22.3755C12.054 22.7836 12.9836 23.0262 14.5511 23.117C14.7365 23.1282 14.9249 23.1338 15.111 23.1338C17.1038 23.1338 18.4459 22.5098 18.5021 22.4832C18.5566 22.4575 18.5926 22.4039 18.5958 22.3437C18.599 22.2836 18.5689 22.2265 18.5175 22.1951L17.4912 21.5685C17.4555 21.5468 17.4129 21.5396 17.3723 21.5479C17.3658 21.5493 16.7141 21.6844 15.7306 21.818C15.5446 21.8433 15.3115 21.8561 15.0381 21.8561C14.0556 21.8561 12.9629 21.6956 12.7533 21.5905C12.7503 21.5709 12.7542 21.546 12.7836 21.5243Z" fill="white"/>
<path d="M14.1823 25.0177C18.7469 25.0138 21.1968 24.202 21.6688 23.6912C21.8358 23.5105 21.8539 23.3394 21.8397 23.2277C21.8046 22.9527 21.5541 22.7843 21.5257 22.766C21.4572 22.722 21.3652 22.7335 21.3118 22.7951C21.2585 22.8568 21.2572 22.9468 21.3107 23.0084C21.3395 23.0455 21.3562 23.1075 21.272 23.1917C21.0833 23.3679 19.1804 23.9028 16.012 24.0635C15.578 24.0861 15.1227 24.0975 14.659 24.0976C11.8222 24.0976 9.74601 23.709 9.47347 23.4826C9.57851 23.3317 10.3129 23.0905 11.0939 22.9541C11.1819 22.9388 11.2413 22.8559 11.2277 22.7676C11.2141 22.6793 11.1327 22.6186 11.0438 22.6301C11.0217 22.6331 10.947 22.6376 10.8604 22.6429C9.57179 22.7216 8.08269 22.8969 8.00499 23.5609C7.9814 23.7632 8.04152 23.9468 8.18374 24.1067C8.53175 24.4977 9.53203 25.0176 14.1821 25.0176C14.1822 25.0177 14.1822 25.0177 14.1823 25.0177Z" fill="white"/>
<path d="M22.5653 23.8352C22.5008 23.8053 22.4245 23.8204 22.3764 23.8723C22.3697 23.8796 21.6834 24.5972 19.62 25.0186C18.83 25.1769 17.3472 25.2572 15.2127 25.2572C13.0742 25.2572 11.0393 25.173 11.0191 25.1722C10.9341 25.168 10.8614 25.2298 10.8498 25.3135C10.8382 25.3971 10.8921 25.4759 10.9742 25.4954C10.9954 25.5004 13.1279 26.0001 16.0437 26.0001C17.4422 26.0001 18.803 25.8865 20.0886 25.6624C22.4855 25.2422 22.6533 24.0536 22.6593 24.0032C22.6676 23.9328 22.6297 23.865 22.5653 23.8352Z" fill="white"/>
</svg>
