<svg width="114" height="32" viewBox="0 0 114 32" fill="none" xmlns="http://www.w3.org/2000/svg">
<path d="M107.986 0H31V32H107.986C111.307 32 114 29.7614 114 27V5C114 2.23858 111.307 0 107.986 0Z" fill="#0F1418"/>
<path d="M42.612 20.108C42.284 20.108 41.964 20.06 41.652 19.964C41.344 19.868 41.018 19.718 40.674 19.514L40.2 20H39.954L39.732 16.958L40.056 16.892C40.296 17.832 40.612 18.514 41.004 18.938C41.4 19.362 41.922 19.574 42.57 19.574C43.114 19.574 43.544 19.444 43.86 19.184C44.176 18.92 44.334 18.564 44.334 18.116C44.334 17.764 44.224 17.45 44.004 17.174C43.788 16.894 43.432 16.614 42.936 16.334L42.018 15.848C41.27 15.444 40.734 15.042 40.41 14.642C40.086 14.242 39.924 13.776 39.924 13.244C39.924 12.764 40.042 12.336 40.278 11.96C40.514 11.58 40.836 11.282 41.244 11.066C41.656 10.846 42.118 10.736 42.63 10.736C43.33 10.736 43.94 10.982 44.46 11.474L44.826 10.85H45.084L45.192 13.472H44.85C44.662 12.724 44.39 12.172 44.034 11.816C43.682 11.456 43.232 11.276 42.684 11.276C42.24 11.276 41.888 11.394 41.628 11.63C41.372 11.866 41.244 12.19 41.244 12.602C41.244 12.974 41.366 13.306 41.61 13.598C41.858 13.89 42.274 14.19 42.858 14.498L43.752 14.978C44.364 15.302 44.806 15.662 45.078 16.058C45.354 16.454 45.492 16.908 45.492 17.42C45.492 17.928 45.364 18.386 45.108 18.794C44.856 19.198 44.512 19.518 44.076 19.754C43.644 19.99 43.156 20.108 42.612 20.108ZM46.3827 22.97V22.736L47.2947 22.538V14.66L46.4127 14.342V14.156L48.3267 13.586H48.4707V14.612H48.5187C48.7587 14.256 49.0527 13.996 49.4007 13.832C49.7527 13.668 50.1087 13.586 50.4687 13.586C50.9687 13.586 51.4067 13.724 51.7827 14C52.1627 14.272 52.4587 14.646 52.6707 15.122C52.8867 15.598 52.9947 16.142 52.9947 16.754C52.9947 17.414 52.8547 17.998 52.5747 18.506C52.2947 19.014 51.9047 19.412 51.4047 19.7C50.9087 19.984 50.3287 20.126 49.6647 20.126C49.4727 20.126 49.2827 20.11 49.0947 20.078C48.9067 20.05 48.7167 20.004 48.5247 19.94V22.538L49.7487 22.736V22.97H46.3827ZM49.7127 19.724C50.1007 19.724 50.4407 19.606 50.7327 19.37C51.0247 19.134 51.2507 18.808 51.4107 18.392C51.5747 17.972 51.6567 17.49 51.6567 16.946C51.6567 16.15 51.4947 15.524 51.1707 15.068C50.8507 14.612 50.4127 14.384 49.8567 14.384C49.6127 14.384 49.3627 14.45 49.1067 14.582C48.8507 14.71 48.6707 14.872 48.5667 15.068V18.542C48.5667 18.886 48.6767 19.17 48.8967 19.394C49.1207 19.614 49.3927 19.724 49.7127 19.724ZM53.9033 20V19.736L54.8033 19.55V14.66L53.9272 14.33V14.156L55.8473 13.58H55.9793V14.876L56.0273 14.936V19.55L57.2633 19.736V20H53.9033ZM55.9373 15.428L55.9133 14.936C56.2093 14.5 56.5033 14.164 56.7953 13.928C57.0913 13.692 57.3673 13.574 57.6233 13.574C57.8433 13.574 58.0293 13.65 58.1813 13.802C58.3333 13.95 58.4093 14.13 58.4093 14.342C58.4093 14.538 58.3433 14.704 58.2113 14.84C58.0793 14.972 57.9153 15.038 57.7193 15.038C57.5193 15.038 57.3633 14.964 57.2513 14.816C57.1713 14.724 57.1033 14.662 57.0473 14.63C56.9913 14.594 56.9273 14.576 56.8553 14.576C56.7393 14.576 56.5933 14.654 56.4173 14.81C56.2453 14.962 56.0853 15.168 55.9373 15.428ZM58.942 20V19.736L59.854 19.55V14.66L58.96 14.342V14.156L60.952 13.586H61.084V19.55L61.984 19.736V20H58.942ZM60.46 12.326C60.216 12.326 60.022 12.248 59.878 12.092C59.734 11.936 59.662 11.754 59.662 11.546C59.662 11.318 59.734 11.126 59.878 10.97C60.022 10.814 60.216 10.736 60.46 10.736C60.708 10.736 60.904 10.814 61.048 10.97C61.196 11.126 61.27 11.318 61.27 11.546C61.27 11.754 61.196 11.936 61.048 12.092C60.904 12.248 60.708 12.326 60.46 12.326ZM66.5103 20V19.736L67.3863 19.562V15.71C67.3863 15.234 67.2903 14.88 67.0983 14.648C66.9063 14.412 66.5963 14.294 66.1683 14.294C65.5403 14.294 65.0183 14.58 64.6023 15.152V14.654C64.9383 14.318 65.3063 14.056 65.7063 13.868C66.1063 13.68 66.5043 13.586 66.9003 13.586C68.0403 13.586 68.6103 14.124 68.6103 15.2V19.562L69.4983 19.736V20H66.5103ZM62.6043 20V19.736L63.5043 19.55V14.672L62.6163 14.342V14.168L64.5363 13.586H64.6683V14.648L64.7283 14.708V19.55L65.6103 19.736V20H62.6043ZM74.154 14.03C74.222 13.834 74.312 13.634 74.424 13.43C74.536 13.222 74.676 13.046 74.844 12.902C75.012 12.758 75.21 12.686 75.438 12.686C75.626 12.686 75.79 12.74 75.93 12.848C76.07 12.956 76.14 13.104 76.14 13.292C76.14 13.452 76.086 13.59 75.978 13.706C75.87 13.818 75.736 13.874 75.576 13.874C75.46 13.874 75.374 13.848 75.318 13.796C75.262 13.744 75.21 13.692 75.162 13.64C75.118 13.588 75.046 13.562 74.946 13.562C74.838 13.562 74.74 13.632 74.652 13.772C74.564 13.908 74.502 14.064 74.466 14.24L74.154 14.03ZM72.864 17.594C73.168 17.594 73.404 17.496 73.572 17.3C73.744 17.104 73.864 16.862 73.932 16.574C74 16.282 74.034 16 74.034 15.728C74.034 15.556 74.018 15.37 73.986 15.17C73.958 14.966 73.904 14.774 73.824 14.594C73.748 14.41 73.636 14.26 73.488 14.144C73.344 14.024 73.158 13.964 72.93 13.964C72.69 13.964 72.494 14.028 72.342 14.156C72.19 14.28 72.072 14.442 71.988 14.642C71.904 14.838 71.846 15.044 71.814 15.26C71.782 15.476 71.766 15.674 71.766 15.854C71.766 16.082 71.794 16.332 71.85 16.604C71.906 16.872 72.012 17.104 72.168 17.3C72.328 17.496 72.56 17.594 72.864 17.594ZM72.87 17.99C72.446 17.99 72.122 18.04 71.898 18.14C71.674 18.236 71.562 18.386 71.562 18.59C71.562 18.734 71.662 18.854 71.862 18.95C72.066 19.042 72.46 19.132 73.044 19.22L73.902 19.37C74.598 19.478 75.11 19.662 75.438 19.922C75.77 20.178 75.936 20.526 75.936 20.966C75.936 21.33 75.834 21.646 75.63 21.914C75.426 22.182 75.152 22.402 74.808 22.574C74.468 22.75 74.088 22.88 73.668 22.964C73.248 23.048 72.822 23.09 72.39 23.09C72.074 23.09 71.764 23.06 71.46 23C71.156 22.944 70.88 22.854 70.632 22.73C70.388 22.606 70.192 22.446 70.044 22.25C69.896 22.054 69.822 21.816 69.822 21.536C69.822 21.208 69.944 20.912 70.188 20.648C70.432 20.388 70.852 20.138 71.448 19.898L71.814 20.048C71.51 20.164 71.272 20.344 71.1 20.588C70.928 20.836 70.842 21.102 70.842 21.386C70.842 21.678 70.924 21.918 71.088 22.106C71.252 22.298 71.47 22.44 71.742 22.532C72.018 22.628 72.316 22.676 72.636 22.676C73.024 22.676 73.394 22.632 73.746 22.544C74.102 22.456 74.392 22.32 74.616 22.136C74.844 21.952 74.958 21.716 74.958 21.428C74.958 21.28 74.91 21.146 74.814 21.026C74.718 20.906 74.532 20.792 74.256 20.684C73.984 20.58 73.582 20.478 73.05 20.378L72.06 20.192C71.536 20.092 71.142 19.936 70.878 19.724C70.618 19.512 70.488 19.258 70.488 18.962C70.488 18.826 70.53 18.68 70.614 18.524C70.702 18.368 70.87 18.222 71.118 18.086C71.366 17.946 71.732 17.842 72.216 17.774L72.87 17.99ZM72.87 17.99C72.402 17.99 71.988 17.9 71.628 17.72C71.268 17.536 70.986 17.28 70.782 16.952C70.578 16.62 70.476 16.234 70.476 15.794C70.476 15.37 70.58 14.992 70.788 14.66C71 14.328 71.288 14.066 71.652 13.874C72.016 13.682 72.428 13.586 72.888 13.586C73.344 13.586 73.756 13.68 74.124 13.868C74.492 14.052 74.784 14.308 75 14.636C75.216 14.964 75.324 15.338 75.324 15.758C75.324 16.154 75.222 16.522 75.018 16.862C74.814 17.198 74.528 17.47 74.16 17.678C73.792 17.886 73.362 17.99 72.87 17.99ZM79.8413 20V19.712L80.8613 19.472V11.384L79.8413 11.15V10.862H83.4293C83.9813 10.862 84.4393 10.902 84.8033 10.982C85.1713 11.058 85.4773 11.178 85.7213 11.342C86.0053 11.538 86.2273 11.788 86.3873 12.092C86.5473 12.396 86.6273 12.724 86.6273 13.076C86.6273 13.588 86.4553 14.02 86.1113 14.372C85.7713 14.724 85.2813 14.964 84.6413 15.092V15.134C85.1213 15.186 85.5413 15.324 85.9013 15.548C86.2613 15.768 86.5393 16.052 86.7353 16.4C86.9353 16.748 87.0353 17.14 87.0353 17.576C87.0353 17.94 86.9633 18.28 86.8193 18.596C86.6753 18.912 86.4773 19.172 86.2253 19.376C85.9493 19.6 85.6113 19.76 85.2113 19.856C84.8113 19.952 84.2833 20 83.6273 20H79.8413ZM83.2433 19.526C84.0273 19.526 84.6053 19.36 84.9773 19.028C85.3533 18.692 85.5413 18.174 85.5413 17.474C85.5413 16.758 85.3473 16.232 84.9593 15.896C84.5713 15.556 83.9653 15.386 83.1413 15.386H82.2113V18.818C82.2113 19.094 82.2833 19.282 82.4273 19.382C82.5753 19.478 82.8473 19.526 83.2433 19.526ZM82.2113 14.894H82.8713C83.0873 14.894 83.2673 14.892 83.4113 14.888C83.5593 14.88 83.6953 14.87 83.8193 14.858C84.2593 14.81 84.5973 14.632 84.8333 14.324C85.0693 14.012 85.1873 13.59 85.1873 13.058C85.1873 12.774 85.1513 12.536 85.0793 12.344C85.0073 12.148 84.8933 11.974 84.7373 11.822C84.5653 11.646 84.3573 11.524 84.1133 11.456C83.8733 11.384 83.5433 11.348 83.1233 11.348H82.2113V14.894ZM91.3343 20.126C90.7183 20.126 90.1723 19.984 89.6963 19.7C89.2203 19.412 88.8463 19.022 88.5743 18.53C88.3063 18.034 88.1723 17.476 88.1723 16.856C88.1723 16.232 88.3063 15.674 88.5743 15.182C88.8463 14.69 89.2203 14.302 89.6963 14.018C90.1723 13.73 90.7183 13.586 91.3343 13.586C91.9503 13.586 92.4943 13.73 92.9663 14.018C93.4423 14.302 93.8163 14.69 94.0883 15.182C94.3603 15.674 94.4963 16.232 94.4963 16.856C94.4963 17.476 94.3603 18.034 94.0883 18.53C93.8163 19.022 93.4423 19.412 92.9663 19.7C92.4943 19.984 91.9503 20.126 91.3343 20.126ZM91.3223 19.574C91.6143 19.574 91.8723 19.51 92.0963 19.382C92.3203 19.25 92.5083 19.064 92.6603 18.824C92.8163 18.58 92.9343 18.292 93.0143 17.96C93.0943 17.624 93.1343 17.252 93.1343 16.844C93.1343 16.44 93.0943 16.072 93.0143 15.74C92.9383 15.408 92.8243 15.122 92.6723 14.882C92.5203 14.642 92.3323 14.458 92.1083 14.33C91.8843 14.198 91.6263 14.132 91.3343 14.132C91.0423 14.132 90.7843 14.198 90.5603 14.33C90.3363 14.458 90.1483 14.642 89.9963 14.882C89.8443 15.122 89.7283 15.41 89.6483 15.746C89.5723 16.078 89.5343 16.448 89.5343 16.856C89.5343 17.264 89.5723 17.634 89.6483 17.966C89.7283 18.298 89.8443 18.584 89.9963 18.824C90.1483 19.064 90.3343 19.25 90.5543 19.382C90.7783 19.51 91.0343 19.574 91.3223 19.574ZM98.6936 20.126C98.0776 20.126 97.5316 19.984 97.0556 19.7C96.5796 19.412 96.2056 19.022 95.9336 18.53C95.6656 18.034 95.5316 17.476 95.5316 16.856C95.5316 16.232 95.6656 15.674 95.9336 15.182C96.2056 14.69 96.5796 14.302 97.0556 14.018C97.5316 13.73 98.0776 13.586 98.6936 13.586C99.3096 13.586 99.8536 13.73 100.326 14.018C100.802 14.302 101.176 14.69 101.448 15.182C101.72 15.674 101.856 16.232 101.856 16.856C101.856 17.476 101.72 18.034 101.448 18.53C101.176 19.022 100.802 19.412 100.326 19.7C99.8536 19.984 99.3096 20.126 98.6936 20.126ZM98.6816 19.574C98.9736 19.574 99.2316 19.51 99.4556 19.382C99.6796 19.25 99.8676 19.064 100.02 18.824C100.176 18.58 100.294 18.292 100.374 17.96C100.454 17.624 100.494 17.252 100.494 16.844C100.494 16.44 100.454 16.072 100.374 15.74C100.298 15.408 100.184 15.122 100.032 14.882C99.8796 14.642 99.6916 14.458 99.4676 14.33C99.2436 14.198 98.9856 14.132 98.6936 14.132C98.4016 14.132 98.1436 14.198 97.9196 14.33C97.6956 14.458 97.5076 14.642 97.3556 14.882C97.2036 15.122 97.0876 15.41 97.0076 15.746C96.9316 16.078 96.8936 16.448 96.8936 16.856C96.8936 17.264 96.9316 17.634 97.0076 17.966C97.0876 18.298 97.2036 18.584 97.3556 18.824C97.5076 19.064 97.6936 19.25 97.9136 19.382C98.1376 19.51 98.3936 19.574 98.6816 19.574ZM104.877 20.126C104.433 20.126 104.095 20 103.863 19.748C103.631 19.496 103.515 19.134 103.515 18.662V14.15H102.735L102.699 13.934L104.499 12.146L104.733 12.17V13.706H106.449L106.347 14.15H104.733V18.542C104.733 19.198 104.969 19.526 105.441 19.526C105.601 19.526 105.759 19.484 105.915 19.4C106.075 19.316 106.211 19.2 106.323 19.052L106.533 19.238C106.349 19.51 106.109 19.726 105.813 19.886C105.521 20.046 105.209 20.126 104.877 20.126Z" fill="white"/>
<path d="M31 0H5C2.23858 0 0 2.23858 0 5V27C0 29.7614 2.23858 32 5 32H31V0Z" fill="#6DB33F"/>
<path d="M26.6931 14.4786L21.9631 6.2942C21.5537 5.5836 20.5465 5 19.7229 5H10.2726C9.45362 5 8.44182 5.5836 8.03242 6.2942L3.30713 14.4786C2.89762 15.1892 2.89762 16.3516 3.30713 17.0623L8.03232 25.2513C8.44172 25.962 9.44893 26.5456 10.2725 26.5456H19.7275C20.5465 26.5456 21.5535 25.962 21.9677 25.2514L26.6929 17.0624C27.1024 16.3517 27.1026 15.1892 26.6931 14.4786ZM13.9764 9.5275C13.9764 8.991 14.4141 8.5533 14.9506 8.5533C15.4871 8.5533 15.9248 8.991 15.9248 9.5275V15.3492C15.9248 15.8858 15.4871 16.3234 14.9506 16.3234C14.4141 16.3234 13.9764 15.8858 13.9764 15.3492V9.5275ZM14.9506 21.9569C11.3079 21.9569 8.34293 18.9919 8.34293 15.3492C8.34763 13.2596 9.33593 11.2971 11.0114 10.0452C11.1028 9.97694 11.2067 9.92741 11.3173 9.89945C11.4279 9.87148 11.5429 9.86564 11.6557 9.88226C11.7685 9.89887 11.8769 9.93761 11.9748 9.99626C12.0726 10.0549 12.1578 10.1323 12.2256 10.224C12.2939 10.3154 12.3434 10.4193 12.3714 10.5299C12.3994 10.6405 12.4052 10.7555 12.3886 10.8683C12.372 10.9812 12.3333 11.0896 12.2746 11.1874C12.2159 11.2852 12.1385 11.3705 12.0468 11.4383C9.88662 13.0431 9.43482 16.0975 11.0396 18.2577C12.6445 20.418 15.6989 20.8697 17.8591 19.2649C19.0969 18.3472 19.8264 16.8929 19.8264 15.3492C19.8244 14.5854 19.6437 13.8327 19.2989 13.1512C18.954 12.4696 18.4545 11.8782 17.8403 11.4242C17.4543 11.1418 17.3743 10.5958 17.6567 10.2099C17.9391 9.8239 18.485 9.7439 18.871 10.0264C20.5605 11.2735 21.5536 13.2502 21.5583 15.3492C21.5583 18.9966 18.5933 21.9569 14.9506 21.9569Z" fill="white"/>
</svg>
