<svg width="100" height="32" viewBox="0 0 100 32" fill="none" xmlns="http://www.w3.org/2000/svg">
<path d="M95 0H31V32H95C97.7614 32 100 29.7614 100 27V5C100 2.23858 97.7614 0 95 0Z" fill="#0F1418"/>
<path d="M58.998 20.126C58.138 20.126 57.38 19.93 56.724 19.538C56.072 19.146 55.562 18.602 55.194 17.906C54.83 17.206 54.648 16.4 54.648 15.488C54.648 14.792 54.754 14.154 54.966 13.574C55.182 12.994 55.486 12.492 55.878 12.068C56.27 11.644 56.734 11.316 57.27 11.084C57.806 10.852 58.394 10.736 59.034 10.736C59.506 10.736 59.964 10.8 60.408 10.928C60.856 11.052 61.26 11.232 61.62 11.468H61.668L62.244 10.862H62.478V13.616H62.088C62.02 13.396 61.944 13.198 61.86 13.022C61.78 12.846 61.694 12.684 61.602 12.536C61.322 12.088 60.992 11.768 60.612 11.576C60.232 11.384 59.78 11.288 59.256 11.288C58.288 11.288 57.542 11.642 57.018 12.35C56.498 13.058 56.238 14.074 56.238 15.398C56.238 16.722 56.5 17.746 57.024 18.47C57.552 19.194 58.296 19.556 59.256 19.556C59.732 19.556 60.162 19.462 60.546 19.274C60.93 19.082 61.25 18.802 61.506 18.434C61.654 18.226 61.78 17.99 61.884 17.726C61.992 17.462 62.074 17.174 62.13 16.862H62.478V20H62.172L61.632 19.22C61.208 19.536 60.784 19.766 60.36 19.91C59.94 20.054 59.486 20.126 58.998 20.126ZM66.8581 20.108C66.5301 20.108 66.2101 20.06 65.8981 19.964C65.5901 19.868 65.2641 19.718 64.9201 19.514L64.4461 20H64.2001L63.9781 16.958L64.3021 16.892C64.5421 17.832 64.8581 18.514 65.2501 18.938C65.6461 19.362 66.1681 19.574 66.8161 19.574C67.3601 19.574 67.7901 19.444 68.1061 19.184C68.4221 18.92 68.5801 18.564 68.5801 18.116C68.5801 17.764 68.4701 17.45 68.2501 17.174C68.0341 16.894 67.6781 16.614 67.1821 16.334L66.2641 15.848C65.5161 15.444 64.9801 15.042 64.6561 14.642C64.3321 14.242 64.1701 13.776 64.1701 13.244C64.1701 12.764 64.2881 12.336 64.5241 11.96C64.7601 11.58 65.0821 11.282 65.4901 11.066C65.9021 10.846 66.3641 10.736 66.8761 10.736C67.5761 10.736 68.1861 10.982 68.7061 11.474L69.0721 10.85H69.3301L69.4381 13.472H69.0961C68.9081 12.724 68.6361 12.172 68.2801 11.816C67.9281 11.456 67.4781 11.276 66.9301 11.276C66.4861 11.276 66.1341 11.394 65.8741 11.63C65.6181 11.866 65.4901 12.19 65.4901 12.602C65.4901 12.974 65.6121 13.306 65.8561 13.598C66.1041 13.89 66.5201 14.19 67.1041 14.498L67.9981 14.978C68.6101 15.302 69.0521 15.662 69.3241 16.058C69.6001 16.454 69.7381 16.908 69.7381 17.42C69.7381 17.928 69.6101 18.386 69.3541 18.794C69.1021 19.198 68.7581 19.518 68.3221 19.754C67.8901 19.99 67.4021 20.108 66.8581 20.108ZM74.0417 20.108C73.7137 20.108 73.3937 20.06 73.0817 19.964C72.7737 19.868 72.4477 19.718 72.1037 19.514L71.6297 20H71.3837L71.1617 16.958L71.4857 16.892C71.7257 17.832 72.0417 18.514 72.4337 18.938C72.8297 19.362 73.3517 19.574 73.9997 19.574C74.5437 19.574 74.9737 19.444 75.2897 19.184C75.6057 18.92 75.7637 18.564 75.7637 18.116C75.7637 17.764 75.6537 17.45 75.4337 17.174C75.2177 16.894 74.8617 16.614 74.3657 16.334L73.4477 15.848C72.6997 15.444 72.1637 15.042 71.8397 14.642C71.5157 14.242 71.3537 13.776 71.3537 13.244C71.3537 12.764 71.4717 12.336 71.7077 11.96C71.9437 11.58 72.2657 11.282 72.6737 11.066C73.0857 10.846 73.5477 10.736 74.0597 10.736C74.7597 10.736 75.3697 10.982 75.8897 11.474L76.2557 10.85H76.5137L76.6217 13.472H76.2797C76.0917 12.724 75.8197 12.172 75.4637 11.816C75.1117 11.456 74.6617 11.276 74.1137 11.276C73.6697 11.276 73.3177 11.394 73.0577 11.63C72.8017 11.866 72.6737 12.19 72.6737 12.602C72.6737 12.974 72.7957 13.306 73.0397 13.598C73.2877 13.89 73.7037 14.19 74.2877 14.498L75.1817 14.978C75.7937 15.302 76.2357 15.662 76.5077 16.058C76.7837 16.454 76.9217 16.908 76.9217 17.42C76.9217 17.928 76.7937 18.386 76.5377 18.794C76.2857 19.198 75.9417 19.518 75.5057 19.754C75.0737 19.99 74.5857 20.108 74.0417 20.108Z" fill="white"/>
<path d="M31 0H5C2.23858 0 0 2.23858 0 5V27C0 29.7614 2.23858 32 5 32H31V0Z" fill="#1572B6"/>
<path d="M5 4H26L24.09 25.563L15.477 28L6.912 25.562L5 4ZM22.09 8.413L8.91 8.41L9.123 11.032L19.248 11.034L18.993 13.75H12.353L12.593 16.323H18.775L18.409 19.846L15.499 20.65L12.543 19.84L12.355 17.73H9.745L10.035 21.585L15.5 23.288L20.873 21.758L22.09 8.413Z" fill="white"/>
</svg>
