<svg width="100" height="32" viewBox="0 0 100 32" fill="none" xmlns="http://www.w3.org/2000/svg">
<path d="M95 0H31V32H95C97.7614 32 100 29.7614 100 27V5C100 2.23858 97.7614 0 95 0Z" fill="#0F1418"/>
<path d="M49.986 20.126C49.134 20.126 48.38 19.932 47.724 19.544C47.072 19.152 46.56 18.61 46.188 17.918C45.82 17.226 45.636 16.432 45.636 15.536C45.636 14.844 45.748 14.208 45.972 13.628C46.196 13.044 46.51 12.536 46.914 12.104C47.318 11.668 47.794 11.332 48.342 11.096C48.89 10.856 49.488 10.736 50.136 10.736C50.604 10.736 51.042 10.8 51.45 10.928C51.858 11.056 52.196 11.236 52.464 11.468H52.506L53.13 10.862H53.406V13.616H53.1C52.844 13.04 52.584 12.584 52.32 12.248C52.056 11.908 51.762 11.664 51.438 11.516C51.118 11.368 50.738 11.294 50.298 11.294C49.298 11.294 48.542 11.652 48.03 12.368C47.518 13.08 47.262 14.134 47.262 15.53C47.262 16.882 47.502 17.892 47.982 18.56C48.462 19.224 49.19 19.556 50.166 19.556C50.546 19.556 50.884 19.496 51.18 19.376C51.476 19.252 51.696 19.07 51.84 18.83C51.884 18.774 51.912 18.708 51.924 18.632C51.936 18.552 51.942 18.412 51.942 18.212V15.938L50.874 15.71V15.422H54.354V15.71L53.298 15.938V19.034C53.074 19.246 52.782 19.434 52.422 19.598C52.062 19.762 51.67 19.892 51.246 19.988C50.822 20.08 50.402 20.126 49.986 20.126ZM58.346 20.126C57.73 20.126 57.184 19.984 56.708 19.7C56.232 19.412 55.858 19.022 55.586 18.53C55.318 18.034 55.184 17.476 55.184 16.856C55.184 16.232 55.318 15.674 55.586 15.182C55.858 14.69 56.232 14.302 56.708 14.018C57.184 13.73 57.73 13.586 58.346 13.586C58.962 13.586 59.506 13.73 59.978 14.018C60.454 14.302 60.828 14.69 61.1 15.182C61.372 15.674 61.508 16.232 61.508 16.856C61.508 17.476 61.372 18.034 61.1 18.53C60.828 19.022 60.454 19.412 59.978 19.7C59.506 19.984 58.962 20.126 58.346 20.126ZM58.334 19.574C58.626 19.574 58.884 19.51 59.108 19.382C59.332 19.25 59.52 19.064 59.672 18.824C59.828 18.58 59.946 18.292 60.026 17.96C60.106 17.624 60.146 17.252 60.146 16.844C60.146 16.44 60.106 16.072 60.026 15.74C59.95 15.408 59.836 15.122 59.684 14.882C59.532 14.642 59.344 14.458 59.12 14.33C58.896 14.198 58.638 14.132 58.346 14.132C58.054 14.132 57.796 14.198 57.572 14.33C57.348 14.458 57.16 14.642 57.008 14.882C56.856 15.122 56.74 15.41 56.66 15.746C56.584 16.078 56.546 16.448 56.546 16.856C56.546 17.264 56.584 17.634 56.66 17.966C56.74 18.298 56.856 18.584 57.008 18.824C57.16 19.064 57.346 19.25 57.566 19.382C57.79 19.51 58.046 19.574 58.334 19.574ZM62.2913 20V19.736L63.2033 19.55V11.21L62.3033 10.892V10.706L64.3013 10.142H64.4273V19.55L65.3273 19.736V20H62.2913ZM67.5938 20.126C67.1658 20.126 66.8178 19.992 66.5498 19.724C66.2858 19.456 66.1538 19.108 66.1538 18.68C66.1538 18.328 66.2618 18.024 66.4778 17.768C66.6938 17.512 67.0418 17.288 67.5218 17.096C68.0058 16.9 68.6438 16.722 69.4358 16.562V15.44C69.4358 14.932 69.3658 14.576 69.2258 14.372C69.0898 14.168 68.8538 14.066 68.5178 14.066C68.1858 14.066 67.9218 14.146 67.7258 14.306C67.5298 14.466 67.4318 14.682 67.4318 14.954C67.4318 15.03 67.4358 15.106 67.4438 15.182C67.4558 15.254 67.4618 15.324 67.4618 15.392C67.4618 15.596 67.3998 15.764 67.2758 15.896C67.1558 16.028 67.0018 16.094 66.8138 16.094C66.6418 16.094 66.5018 16.038 66.3938 15.926C66.2898 15.814 66.2378 15.668 66.2378 15.488C66.2378 15.228 66.3498 14.962 66.5738 14.69C66.8018 14.414 67.1018 14.178 67.4738 13.982C67.9698 13.718 68.5078 13.586 69.0878 13.586C69.4358 13.586 69.7298 13.64 69.9698 13.748C70.2138 13.856 70.3898 14.01 70.4978 14.21C70.5618 14.346 70.6038 14.518 70.6238 14.726C70.6478 14.934 70.6598 15.282 70.6598 15.77V18.452C70.6598 18.84 70.6898 19.104 70.7498 19.244C70.8138 19.384 70.9318 19.454 71.1038 19.454C71.2998 19.454 71.4898 19.342 71.6738 19.118L71.8898 19.322C71.6938 19.606 71.4938 19.812 71.2898 19.94C71.0898 20.064 70.8558 20.126 70.5878 20.126C70.2638 20.126 70.0118 20.038 69.8318 19.862C69.6518 19.686 69.5318 19.418 69.4718 19.058H69.4358C69.2078 19.386 68.9318 19.646 68.6078 19.838C68.2838 20.03 67.9458 20.126 67.5938 20.126ZM68.1938 19.364C68.4418 19.364 68.6738 19.3 68.8898 19.172C69.1058 19.04 69.2878 18.858 69.4358 18.626V16.934C68.8998 17.038 68.4778 17.152 68.1698 17.276C67.8658 17.4 67.6498 17.552 67.5218 17.732C67.3978 17.908 67.3358 18.13 67.3358 18.398C67.3358 18.706 67.4078 18.944 67.5518 19.112C67.6998 19.28 67.9138 19.364 68.1938 19.364ZM76.19 20V19.736L77.066 19.562V15.71C77.066 15.234 76.97 14.88 76.778 14.648C76.586 14.412 76.276 14.294 75.848 14.294C75.22 14.294 74.698 14.58 74.282 15.152V14.654C74.618 14.318 74.986 14.056 75.386 13.868C75.786 13.68 76.184 13.586 76.58 13.586C77.72 13.586 78.29 14.124 78.29 15.2V19.562L79.178 19.736V20H76.19ZM72.284 20V19.736L73.184 19.55V14.672L72.296 14.342V14.168L74.216 13.586H74.348V14.648L74.408 14.708V19.55L75.29 19.736V20H72.284ZM83.8337 14.03C83.9017 13.834 83.9917 13.634 84.1037 13.43C84.2157 13.222 84.3557 13.046 84.5237 12.902C84.6917 12.758 84.8897 12.686 85.1177 12.686C85.3057 12.686 85.4697 12.74 85.6097 12.848C85.7497 12.956 85.8197 13.104 85.8197 13.292C85.8197 13.452 85.7657 13.59 85.6577 13.706C85.5497 13.818 85.4157 13.874 85.2557 13.874C85.1397 13.874 85.0537 13.848 84.9977 13.796C84.9417 13.744 84.8897 13.692 84.8417 13.64C84.7977 13.588 84.7257 13.562 84.6257 13.562C84.5177 13.562 84.4197 13.632 84.3317 13.772C84.2437 13.908 84.1817 14.064 84.1457 14.24L83.8337 14.03ZM82.5437 17.594C82.8477 17.594 83.0837 17.496 83.2517 17.3C83.4237 17.104 83.5437 16.862 83.6117 16.574C83.6797 16.282 83.7137 16 83.7137 15.728C83.7137 15.556 83.6977 15.37 83.6657 15.17C83.6377 14.966 83.5837 14.774 83.5037 14.594C83.4277 14.41 83.3157 14.26 83.1677 14.144C83.0237 14.024 82.8377 13.964 82.6097 13.964C82.3697 13.964 82.1737 14.028 82.0217 14.156C81.8697 14.28 81.7517 14.442 81.6677 14.642C81.5837 14.838 81.5257 15.044 81.4937 15.26C81.4617 15.476 81.4457 15.674 81.4457 15.854C81.4457 16.082 81.4737 16.332 81.5297 16.604C81.5857 16.872 81.6917 17.104 81.8477 17.3C82.0077 17.496 82.2397 17.594 82.5437 17.594ZM82.5497 17.99C82.1257 17.99 81.8017 18.04 81.5777 18.14C81.3537 18.236 81.2417 18.386 81.2417 18.59C81.2417 18.734 81.3417 18.854 81.5417 18.95C81.7457 19.042 82.1397 19.132 82.7237 19.22L83.5817 19.37C84.2777 19.478 84.7897 19.662 85.1177 19.922C85.4497 20.178 85.6157 20.526 85.6157 20.966C85.6157 21.33 85.5137 21.646 85.3097 21.914C85.1057 22.182 84.8317 22.402 84.4877 22.574C84.1477 22.75 83.7677 22.88 83.3477 22.964C82.9277 23.048 82.5017 23.09 82.0697 23.09C81.7537 23.09 81.4437 23.06 81.1397 23C80.8357 22.944 80.5597 22.854 80.3117 22.73C80.0677 22.606 79.8717 22.446 79.7237 22.25C79.5757 22.054 79.5017 21.816 79.5017 21.536C79.5017 21.208 79.6237 20.912 79.8677 20.648C80.1117 20.388 80.5317 20.138 81.1277 19.898L81.4937 20.048C81.1897 20.164 80.9517 20.344 80.7797 20.588C80.6077 20.836 80.5217 21.102 80.5217 21.386C80.5217 21.678 80.6037 21.918 80.7677 22.106C80.9317 22.298 81.1497 22.44 81.4217 22.532C81.6977 22.628 81.9957 22.676 82.3157 22.676C82.7037 22.676 83.0737 22.632 83.4257 22.544C83.7817 22.456 84.0717 22.32 84.2957 22.136C84.5237 21.952 84.6377 21.716 84.6377 21.428C84.6377 21.28 84.5897 21.146 84.4937 21.026C84.3977 20.906 84.2117 20.792 83.9357 20.684C83.6637 20.58 83.2617 20.478 82.7297 20.378L81.7397 20.192C81.2157 20.092 80.8217 19.936 80.5577 19.724C80.2977 19.512 80.1677 19.258 80.1677 18.962C80.1677 18.826 80.2097 18.68 80.2937 18.524C80.3817 18.368 80.5497 18.222 80.7977 18.086C81.0457 17.946 81.4117 17.842 81.8957 17.774L82.5497 17.99ZM82.5497 17.99C82.0817 17.99 81.6677 17.9 81.3077 17.72C80.9477 17.536 80.6657 17.28 80.4617 16.952C80.2577 16.62 80.1557 16.234 80.1557 15.794C80.1557 15.37 80.2597 14.992 80.4677 14.66C80.6797 14.328 80.9677 14.066 81.3317 13.874C81.6957 13.682 82.1077 13.586 82.5677 13.586C83.0237 13.586 83.4357 13.68 83.8037 13.868C84.1717 14.052 84.4637 14.308 84.6797 14.636C84.8957 14.964 85.0037 15.338 85.0037 15.758C85.0037 16.154 84.9017 16.522 84.6977 16.862C84.4937 17.198 84.2077 17.47 83.8397 17.678C83.4717 17.886 83.0417 17.99 82.5497 17.99Z" fill="white"/>
<path d="M31 0H5C2.23858 0 0 2.23858 0 5V27C0 29.7614 2.23858 32 5 32H31V0Z" fill="#00ADD8"/>
<path d="M4.81104 14.7144C4.76404 14.7144 4.75304 14.6914 4.77604 14.6554L5.02204 14.3404C5.04504 14.3054 5.10304 14.2824 5.15004 14.2824H9.32204C9.36804 14.2824 9.38004 14.3174 9.35704 14.3524L9.15804 14.6554C9.13504 14.6914 9.07604 14.7254 9.04104 14.7254L4.81104 14.7144ZM3.04704 15.7894C3.00004 15.7894 2.98804 15.7664 3.01204 15.7314L3.25704 15.4154C3.28004 15.3804 3.33904 15.3574 3.38604 15.3574H8.71404C8.76104 15.3574 8.78404 15.3924 8.77204 15.4274L8.67904 15.7074C8.66704 15.7544 8.62104 15.7774 8.57404 15.7774L3.04704 15.7894ZM5.87504 16.8644C5.82804 16.8644 5.81604 16.8294 5.84004 16.7944L6.00304 16.5024C6.02604 16.4674 6.07304 16.4324 6.12004 16.4324H8.45704C8.50404 16.4324 8.52704 16.4674 8.52704 16.5144L8.50404 16.7944C8.50404 16.8414 8.45704 16.8764 8.42204 16.8764L5.87504 16.8644ZM18.004 14.5044C17.268 14.6914 16.765 14.8314 16.041 15.0184C15.865 15.0644 15.854 15.0764 15.701 14.9014C15.527 14.7024 15.398 14.5744 15.153 14.4574C14.416 14.0954 13.703 14.2004 13.038 14.6324C12.243 15.1464 11.834 15.9064 11.846 16.8524C11.857 17.7874 12.5 18.5584 13.423 18.6874C14.218 18.7924 14.883 18.5124 15.41 17.9174C15.515 17.7874 15.608 17.6474 15.725 17.4834H13.47C13.225 17.4834 13.166 17.3314 13.248 17.1334C13.4 16.7714 13.68 16.1634 13.844 15.8594C13.8691 15.8031 13.9101 15.7554 13.962 15.7221C14.0139 15.6889 14.0744 15.6716 14.136 15.6724H18.389C18.366 15.9884 18.366 16.3034 18.319 16.6194C18.198 17.4513 17.8684 18.2391 17.361 18.9094C16.52 20.0194 15.421 20.7094 14.031 20.8954C12.886 21.0474 11.822 20.8254 10.888 20.1254C10.023 19.4704 9.53204 18.6054 9.40404 17.5304C9.25204 16.2564 9.62604 15.1114 10.397 14.1064C11.227 13.0204 12.325 12.3304 13.669 12.0864C14.767 11.8864 15.819 12.0164 16.765 12.6574C17.385 13.0674 17.828 13.6274 18.121 14.3054C18.191 14.4104 18.144 14.4694 18.004 14.5054M21.872 20.9664C20.808 20.9424 19.838 20.6384 19.02 19.9374C18.3395 19.3639 17.891 18.5624 17.758 17.6824C17.548 16.3624 17.91 15.1934 18.705 14.1534C19.558 13.0314 20.586 12.4474 21.977 12.2034C23.169 11.9934 24.291 12.1084 25.307 12.7984C26.23 13.4284 26.803 14.2824 26.955 15.4034C27.153 16.9814 26.698 18.2664 25.611 19.3654C24.84 20.1484 23.893 20.6384 22.806 20.8604C22.491 20.9204 22.176 20.9304 21.872 20.9664ZM24.652 16.2464C24.641 16.0934 24.641 15.9764 24.618 15.8594C24.408 14.7024 23.344 14.0494 22.234 14.3054C21.147 14.5504 20.446 15.2404 20.189 16.3384C19.979 17.2504 20.423 18.1734 21.264 18.5484C21.907 18.8284 22.549 18.7924 23.169 18.4784C24.092 17.9984 24.594 17.2504 24.653 16.2454L24.652 16.2464Z" fill="white"/>
</svg>
