<svg width="100" height="32" viewBox="0 0 100 32" fill="none" xmlns="http://www.w3.org/2000/svg">
<path d="M95 0H31V32H95C97.7614 32 100 29.7614 100 27V5C100 2.23858 97.7614 0 95 0Z" fill="#0F1418"/>
<path d="M52.288 20V19.712L53.35 19.472V11.378L52.288 11.15V10.862H55.75V11.168L54.7 11.378V19.472L55.75 19.724V20H52.288ZM46.528 20V19.712L47.596 19.472V11.378L46.528 11.15V10.862H49.996V11.15L48.946 11.378V19.472L49.996 19.712V20H46.528ZM48.376 15.44V14.936H53.944V15.44H48.376ZM58.7913 20V19.712L60.1173 19.472V11.354H57.7893C57.5333 11.694 57.3153 12.05 57.1353 12.422C56.9593 12.794 56.8133 13.148 56.6973 13.484H56.3853L56.8233 10.862H64.7193L65.1573 13.484H64.8513C64.7353 13.148 64.5873 12.794 64.4073 12.422C64.2313 12.05 64.0153 11.694 63.7593 11.354H61.4673V19.472L62.7693 19.712V20H58.7913ZM70.7256 20.126L67.4256 12.218H67.3776V19.472L68.4396 19.712V20H65.7936V19.712L66.8616 19.472V11.378L65.7936 11.15V10.862H68.4396L71.3256 17.774H71.3856L74.2896 10.862H76.8516V11.15L75.8016 11.378V19.472L76.8516 19.712V20H73.3836V19.712L74.4456 19.472V12.302H74.3976L71.0856 20.126H70.7256ZM77.9468 20V19.712L78.9668 19.472V11.378L77.9468 11.15V10.862H81.4448V11.15L80.3168 11.378V19.502H83.6828C83.8988 19.138 84.0848 18.772 84.2408 18.404C84.3968 18.036 84.5468 17.624 84.6908 17.168H85.0448L84.5948 20H77.9468Z" fill="white"/>
<path d="M31 0H5C2.23858 0 0 2.23858 0 5V27C0 29.7614 2.23858 32 5 32H31V0Z" fill="#E34F26"/>
<path d="M5 4H26L24.09 25.563L15.477 28L6.913 25.562L5 4ZM12.031 13.75L11.799 11.032L21.858 11.035L22.088 8.413L8.912 8.41L9.61 16.42H18.736L18.41 19.846L15.5 20.65L12.545 19.84L12.357 17.73H9.748L10.078 21.901L15.5 23.351L20.879 21.908L21.623 13.751H12.031V13.75Z" fill="white"/>
</svg>
