<svg width="100" height="32" viewBox="0 0 100 32" fill="none" xmlns="http://www.w3.org/2000/svg">
<path d="M95 0H31V32H95C97.7614 32 100 29.7614 100 27V5C100 2.23858 97.7614 0 95 0Z" fill="#0F1418"/>
<path d="M53.928 23.09C53.464 23.09 53.1 22.994 52.836 22.802C52.568 22.614 52.434 22.352 52.434 22.016C52.434 21.776 52.5 21.586 52.632 21.446C52.76 21.306 52.932 21.236 53.148 21.236C53.324 21.236 53.466 21.284 53.574 21.38C53.678 21.48 53.764 21.622 53.832 21.806C53.916 22.038 54.018 22.204 54.138 22.304C54.258 22.408 54.394 22.46 54.546 22.46C54.818 22.46 55.046 22.302 55.23 21.986C55.414 21.674 55.506 21.198 55.506 20.558V11.378L54.45 11.15V10.862H57.912V11.15L56.862 11.378V18.158C56.862 18.738 56.856 19.214 56.844 19.586C56.836 19.958 56.816 20.26 56.784 20.492C56.756 20.724 56.714 20.92 56.658 21.08C56.606 21.24 56.538 21.4 56.454 21.56C56.174 22.056 55.806 22.434 55.35 22.694C54.898 22.958 54.424 23.09 53.928 23.09ZM60.0821 20.126C59.6541 20.126 59.3061 19.992 59.0381 19.724C58.7741 19.456 58.6421 19.108 58.6421 18.68C58.6421 18.328 58.7501 18.024 58.9661 17.768C59.1821 17.512 59.5301 17.288 60.0101 17.096C60.4941 16.9 61.1321 16.722 61.9241 16.562V15.44C61.9241 14.932 61.8541 14.576 61.7141 14.372C61.5781 14.168 61.3421 14.066 61.0061 14.066C60.6741 14.066 60.4101 14.146 60.2141 14.306C60.0181 14.466 59.9201 14.682 59.9201 14.954C59.9201 15.03 59.9241 15.106 59.9321 15.182C59.9441 15.254 59.9501 15.324 59.9501 15.392C59.9501 15.596 59.8881 15.764 59.7641 15.896C59.6441 16.028 59.4901 16.094 59.3021 16.094C59.1301 16.094 58.9901 16.038 58.8821 15.926C58.7781 15.814 58.7261 15.668 58.7261 15.488C58.7261 15.228 58.8381 14.962 59.0621 14.69C59.2901 14.414 59.5901 14.178 59.9621 13.982C60.4581 13.718 60.9961 13.586 61.5761 13.586C61.9241 13.586 62.2181 13.64 62.4581 13.748C62.7021 13.856 62.8781 14.01 62.9861 14.21C63.0501 14.346 63.0921 14.518 63.1121 14.726C63.1361 14.934 63.1481 15.282 63.1481 15.77V18.452C63.1481 18.84 63.1781 19.104 63.2381 19.244C63.3021 19.384 63.4201 19.454 63.5921 19.454C63.7881 19.454 63.9781 19.342 64.1621 19.118L64.3781 19.322C64.1821 19.606 63.9821 19.812 63.7781 19.94C63.5781 20.064 63.3441 20.126 63.0761 20.126C62.7521 20.126 62.5001 20.038 62.3201 19.862C62.1401 19.686 62.0201 19.418 61.9601 19.058H61.9241C61.6961 19.386 61.4201 19.646 61.0961 19.838C60.7721 20.03 60.4341 20.126 60.0821 20.126ZM60.6821 19.364C60.9301 19.364 61.1621 19.3 61.3781 19.172C61.5941 19.04 61.7761 18.858 61.9241 18.626V16.934C61.3881 17.038 60.9661 17.152 60.6581 17.276C60.3541 17.4 60.1381 17.552 60.0101 17.732C59.8861 17.908 59.8241 18.13 59.8241 18.398C59.8241 18.706 59.8961 18.944 60.0401 19.112C60.1881 19.28 60.4021 19.364 60.6821 19.364ZM67.0478 20.126L64.8758 14.48C64.8038 14.292 64.7158 14.166 64.6118 14.102C64.5078 14.034 64.3058 13.99 64.0058 13.97V13.706H67.0958V13.97C66.7558 13.982 66.5318 14.012 66.4238 14.06C66.3158 14.104 66.2618 14.174 66.2618 14.27C66.2618 14.362 66.2858 14.474 66.3338 14.606L67.6898 18.452H67.7378L69.0038 14.864C69.0758 14.66 69.1118 14.504 69.1118 14.396C69.1118 14.28 69.0598 14.194 68.9558 14.138C68.8518 14.078 68.6238 14.022 68.2718 13.97V13.706H70.7318V13.97C70.4358 14.018 70.2118 14.076 70.0598 14.144C69.9078 14.208 69.7938 14.298 69.7178 14.414C69.6458 14.53 69.5738 14.686 69.5018 14.882L67.6178 20.126H67.0478ZM72.2462 20.126C71.8182 20.126 71.4702 19.992 71.2022 19.724C70.9382 19.456 70.8062 19.108 70.8062 18.68C70.8062 18.328 70.9142 18.024 71.1302 17.768C71.3462 17.512 71.6942 17.288 72.1742 17.096C72.6582 16.9 73.2962 16.722 74.0882 16.562V15.44C74.0882 14.932 74.0182 14.576 73.8782 14.372C73.7422 14.168 73.5062 14.066 73.1702 14.066C72.8382 14.066 72.5742 14.146 72.3782 14.306C72.1822 14.466 72.0842 14.682 72.0842 14.954C72.0842 15.03 72.0882 15.106 72.0962 15.182C72.1082 15.254 72.1142 15.324 72.1142 15.392C72.1142 15.596 72.0522 15.764 71.9282 15.896C71.8082 16.028 71.6542 16.094 71.4662 16.094C71.2942 16.094 71.1542 16.038 71.0462 15.926C70.9422 15.814 70.8902 15.668 70.8902 15.488C70.8902 15.228 71.0022 14.962 71.2262 14.69C71.4542 14.414 71.7542 14.178 72.1262 13.982C72.6222 13.718 73.1602 13.586 73.7402 13.586C74.0882 13.586 74.3822 13.64 74.6222 13.748C74.8662 13.856 75.0422 14.01 75.1502 14.21C75.2142 14.346 75.2562 14.518 75.2762 14.726C75.3002 14.934 75.3122 15.282 75.3122 15.77V18.452C75.3122 18.84 75.3422 19.104 75.4022 19.244C75.4662 19.384 75.5842 19.454 75.7562 19.454C75.9522 19.454 76.1422 19.342 76.3262 19.118L76.5422 19.322C76.3462 19.606 76.1462 19.812 75.9422 19.94C75.7422 20.064 75.5082 20.126 75.2402 20.126C74.9162 20.126 74.6642 20.038 74.4842 19.862C74.3042 19.686 74.1842 19.418 74.1242 19.058H74.0882C73.8602 19.386 73.5842 19.646 73.2602 19.838C72.9362 20.03 72.5982 20.126 72.2462 20.126ZM72.8462 19.364C73.0942 19.364 73.3262 19.3 73.5422 19.172C73.7582 19.04 73.9402 18.858 74.0882 18.626V16.934C73.5522 17.038 73.1302 17.152 72.8222 17.276C72.5182 17.4 72.3022 17.552 72.1742 17.732C72.0502 17.908 71.9882 18.13 71.9882 18.398C71.9882 18.706 72.0602 18.944 72.2042 19.112C72.3522 19.28 72.5662 19.364 72.8462 19.364Z" fill="white"/>
<path d="M31 0H5C2.23858 0 0 2.23858 0 5V27C0 29.7614 2.23858 32 5 32H31V0Z" fill="#DB380E"/>
<path d="M15.3173 8.70585C14.3931 9.35581 13.3458 10.0925 12.7845 11.3113C11.8098 13.4377 14.7792 15.7571 14.9061 15.8548C14.9356 15.8775 14.9709 15.8888 15.0061 15.8888C15.0435 15.8888 15.0809 15.876 15.1113 15.8506C15.1702 15.8013 15.1869 15.7175 15.1515 15.6493C15.1408 15.6286 14.0749 13.5583 14.1145 12.073C14.1286 11.5557 14.8525 10.9689 15.6189 10.3476C16.3209 9.77855 17.1166 9.13358 17.5821 8.37909C18.6042 6.7183 17.4682 5.08525 17.4566 5.06892C17.4115 5.00556 17.3282 4.98263 17.257 5.01384C17.1859 5.04525 17.1465 5.12216 17.1627 5.19822C17.165 5.20904 17.3859 6.28896 16.7712 7.40159C16.518 7.86135 15.9616 8.25268 15.3173 8.70585Z" fill="white"/>
<path d="M19.2108 9.43819C19.276 9.38909 19.2951 9.29952 19.2557 9.22804C19.2162 9.15655 19.1303 9.12503 19.0539 9.15401C18.8969 9.2137 15.2095 10.6351 15.2095 12.3525C15.2095 13.5363 15.7153 14.1617 16.0845 14.6184C16.2294 14.7976 16.3544 14.9523 16.3956 15.0843C16.5116 15.4649 16.2368 16.1528 16.1212 16.3858C16.0879 16.4528 16.1042 16.5339 16.1609 16.5828C16.1915 16.6093 16.2297 16.6227 16.268 16.6227C16.3006 16.6227 16.3333 16.613 16.3616 16.5933C16.425 16.5493 17.9111 15.4986 17.6446 14.2327C17.5453 13.7515 17.3089 13.3999 17.1002 13.0897C16.777 12.609 16.5436 12.2618 16.8977 11.6206C17.3126 10.8726 19.1918 9.45241 19.2108 9.43819Z" fill="white"/>
<path d="M9.61234 16.6499C9.54914 16.8392 9.57898 17.0269 9.69855 17.193C10.0983 17.748 11.5142 18.0535 13.6856 18.0535C13.6857 18.0535 13.6858 18.0535 13.6859 18.0535C13.9801 18.0535 14.2907 18.0477 14.6089 18.0363C18.0806 17.9121 19.3682 16.8305 19.4214 16.7845C19.4793 16.7344 19.4947 16.651 19.4587 16.5835C19.4227 16.516 19.3451 16.4821 19.2709 16.5025C18.0482 16.8363 15.7651 16.9549 14.1815 16.9549C12.4095 16.9549 11.5071 16.8272 11.2862 16.7329C11.3995 16.5773 12.0988 16.2993 12.9652 16.1289C13.048 16.1126 13.1049 16.0361 13.0967 15.9522C13.0885 15.8682 13.018 15.8041 12.9336 15.8041C12.4257 15.8041 9.87859 15.8449 9.61234 16.6499Z" fill="white"/>
<path d="M21.2293 15.5359C20.5133 15.5359 19.8343 15.8948 19.8057 15.91C19.7395 15.9455 19.7059 16.0214 19.724 16.0944C19.7423 16.1672 19.8078 16.2185 19.8829 16.2185C19.8981 16.2185 21.4103 16.2309 21.5473 17.0949C21.6686 17.8403 20.1164 19.0481 19.5081 19.4506C19.4424 19.4941 19.4169 19.578 19.4474 19.6507C19.4734 19.7125 19.5336 19.7512 19.5985 19.7512C19.6098 19.7512 19.6213 19.75 19.6327 19.7476C19.7771 19.7167 23.1642 18.9703 22.8061 16.9982C22.5876 15.7896 21.828 15.5359 21.2293 15.5359Z" fill="white"/>
<path d="M18.9065 19.2092C18.9183 19.1461 18.892 19.0818 18.8394 19.0449L18.0273 18.476C17.9876 18.4483 17.9376 18.4396 17.8911 18.4519C17.8826 18.454 17.0333 18.6773 15.8003 18.8142C15.3109 18.8691 14.7628 18.8981 14.2151 18.8981C12.9823 18.8981 12.1763 18.7533 12.0589 18.647C12.0434 18.6172 12.0483 18.6036 12.0511 18.5961C12.0724 18.5368 12.1867 18.4663 12.2604 18.4384C12.3417 18.4083 12.3856 18.3199 12.3603 18.237C12.335 18.1539 12.2495 18.105 12.165 18.1253C11.3503 18.3219 10.952 18.5968 10.9809 18.9424C11.0324 19.5551 12.4516 19.8696 13.6515 19.9528C13.824 19.9646 14.0106 19.9705 14.206 19.9705C14.2061 19.9705 14.2061 19.9705 14.2063 19.9705C16.2014 19.9705 18.759 19.3446 18.7846 19.3382C18.847 19.323 18.8946 19.2725 18.9065 19.2092Z" fill="white"/>
<path d="M12.7836 20.5243C12.8451 20.4843 12.8724 20.4082 12.8506 20.3382C12.8288 20.2681 12.7633 20.2221 12.6897 20.2231C12.5805 20.226 11.6214 20.2693 11.5542 20.8799C11.5339 21.0624 11.5862 21.2292 11.7097 21.3755C12.054 21.7836 12.9836 22.0262 14.5511 22.117C14.7365 22.1282 14.9249 22.1338 15.111 22.1338C17.1038 22.1338 18.4459 21.5098 18.5021 21.4832C18.5566 21.4575 18.5926 21.4039 18.5958 21.3437C18.599 21.2836 18.5689 21.2265 18.5175 21.1951L17.4912 20.5685C17.4555 20.5468 17.4129 20.5396 17.3723 20.5479C17.3658 20.5493 16.7141 20.6844 15.7306 20.818C15.5446 20.8433 15.3115 20.8561 15.0381 20.8561C14.0556 20.8561 12.9629 20.6956 12.7533 20.5905C12.7503 20.5709 12.7542 20.546 12.7836 20.5243Z" fill="white"/>
<path d="M14.1823 24.0177C18.7469 24.0138 21.1968 23.202 21.6688 22.6912C21.8358 22.5105 21.8539 22.3394 21.8397 22.2277C21.8046 21.9527 21.5541 21.7843 21.5257 21.766C21.4572 21.722 21.3652 21.7335 21.3118 21.7951C21.2585 21.8568 21.2572 21.9468 21.3107 22.0084C21.3395 22.0455 21.3562 22.1075 21.272 22.1917C21.0833 22.3679 19.1804 22.9028 16.012 23.0635C15.578 23.0861 15.1227 23.0975 14.659 23.0976C11.8222 23.0976 9.74601 22.709 9.47347 22.4826C9.57851 22.3317 10.3129 22.0905 11.0939 21.9541C11.1819 21.9388 11.2413 21.8559 11.2277 21.7676C11.2141 21.6793 11.1327 21.6186 11.0438 21.6301C11.0217 21.6331 10.947 21.6376 10.8604 21.6429C9.57179 21.7216 8.08269 21.8969 8.00499 22.5609C7.9814 22.7632 8.04152 22.9468 8.18374 23.1067C8.53175 23.4977 9.53203 24.0176 14.1821 24.0176C14.1822 24.0177 14.1822 24.0177 14.1823 24.0177Z" fill="white"/>
<path d="M22.5653 22.8352C22.5008 22.8053 22.4245 22.8204 22.3764 22.8723C22.3697 22.8796 21.6834 23.5972 19.62 24.0186C18.83 24.1769 17.3472 24.2572 15.2127 24.2572C13.0742 24.2572 11.0393 24.173 11.0191 24.1722C10.9341 24.168 10.8614 24.2298 10.8498 24.3135C10.8382 24.3971 10.8921 24.4759 10.9742 24.4954C10.9954 24.5004 13.1279 25.0001 16.0437 25.0001C17.4422 25.0001 18.803 24.8865 20.0886 24.6624C22.4855 24.2422 22.6533 23.0536 22.6593 23.0032C22.6676 22.9328 22.6297 22.865 22.5653 22.8352Z" fill="white"/>
</svg>
