<svg width="114" height="32" viewBox="0 0 114 32" fill="none" xmlns="http://www.w3.org/2000/svg">
<path d="M107.986 0H31V32H107.986C111.307 32 114 29.7614 114 27V5C114 2.23858 111.307 0 107.986 0Z" fill="#0F1418"/>
<path d="M43.928 23.09C43.464 23.09 43.1 22.994 42.836 22.802C42.568 22.614 42.434 22.352 42.434 22.016C42.434 21.776 42.5 21.586 42.632 21.446C42.76 21.306 42.932 21.236 43.148 21.236C43.324 21.236 43.466 21.284 43.574 21.38C43.678 21.48 43.764 21.622 43.832 21.806C43.916 22.038 44.018 22.204 44.138 22.304C44.258 22.408 44.394 22.46 44.546 22.46C44.818 22.46 45.046 22.302 45.23 21.986C45.414 21.674 45.506 21.198 45.506 20.558V11.378L44.45 11.15V10.862H47.912V11.15L46.862 11.378V18.158C46.862 18.738 46.856 19.214 46.844 19.586C46.836 19.958 46.816 20.26 46.784 20.492C46.756 20.724 46.714 20.92 46.658 21.08C46.606 21.24 46.538 21.4 46.454 21.56C46.174 22.056 45.806 22.434 45.35 22.694C44.898 22.958 44.424 23.09 43.928 23.09ZM50.0821 20.126C49.6541 20.126 49.3061 19.992 49.0381 19.724C48.7741 19.456 48.6421 19.108 48.6421 18.68C48.6421 18.328 48.7501 18.024 48.9661 17.768C49.1821 17.512 49.5301 17.288 50.0101 17.096C50.4941 16.9 51.1321 16.722 51.9241 16.562V15.44C51.9241 14.932 51.8541 14.576 51.7141 14.372C51.5781 14.168 51.3421 14.066 51.0061 14.066C50.6741 14.066 50.4101 14.146 50.2141 14.306C50.0181 14.466 49.9201 14.682 49.9201 14.954C49.9201 15.03 49.9241 15.106 49.9321 15.182C49.9441 15.254 49.9501 15.324 49.9501 15.392C49.9501 15.596 49.8881 15.764 49.7641 15.896C49.6441 16.028 49.4901 16.094 49.3021 16.094C49.1301 16.094 48.9901 16.038 48.8821 15.926C48.7781 15.814 48.7261 15.668 48.7261 15.488C48.7261 15.228 48.8381 14.962 49.0621 14.69C49.2901 14.414 49.5901 14.178 49.9621 13.982C50.4581 13.718 50.9961 13.586 51.5761 13.586C51.9241 13.586 52.2181 13.64 52.4581 13.748C52.7021 13.856 52.8781 14.01 52.9861 14.21C53.0501 14.346 53.0921 14.518 53.1121 14.726C53.1361 14.934 53.1481 15.282 53.1481 15.77V18.452C53.1481 18.84 53.1781 19.104 53.2381 19.244C53.3021 19.384 53.4201 19.454 53.5921 19.454C53.7881 19.454 53.9781 19.342 54.1621 19.118L54.3781 19.322C54.1821 19.606 53.9821 19.812 53.7781 19.94C53.5781 20.064 53.3441 20.126 53.0761 20.126C52.7521 20.126 52.5001 20.038 52.3201 19.862C52.1401 19.686 52.0201 19.418 51.9601 19.058H51.9241C51.6961 19.386 51.4201 19.646 51.0961 19.838C50.7721 20.03 50.4341 20.126 50.0821 20.126ZM50.6821 19.364C50.9301 19.364 51.1621 19.3 51.3781 19.172C51.5941 19.04 51.7761 18.858 51.9241 18.626V16.934C51.3881 17.038 50.9661 17.152 50.6581 17.276C50.3541 17.4 50.1381 17.552 50.0101 17.732C49.8861 17.908 49.8241 18.13 49.8241 18.398C49.8241 18.706 49.8961 18.944 50.0401 19.112C50.1881 19.28 50.4021 19.364 50.6821 19.364ZM57.0478 20.126L54.8758 14.48C54.8038 14.292 54.7158 14.166 54.6118 14.102C54.5078 14.034 54.3058 13.99 54.0058 13.97V13.706H57.0958V13.97C56.7558 13.982 56.5318 14.012 56.4238 14.06C56.3158 14.104 56.2618 14.174 56.2618 14.27C56.2618 14.362 56.2858 14.474 56.3338 14.606L57.6898 18.452H57.7378L59.0038 14.864C59.0758 14.66 59.1118 14.504 59.1118 14.396C59.1118 14.28 59.0598 14.194 58.9558 14.138C58.8518 14.078 58.6238 14.022 58.2718 13.97V13.706H60.7318V13.97C60.4358 14.018 60.2118 14.076 60.0598 14.144C59.9078 14.208 59.7938 14.298 59.7178 14.414C59.6458 14.53 59.5738 14.686 59.5018 14.882L57.6178 20.126H57.0478ZM62.2462 20.126C61.8182 20.126 61.4702 19.992 61.2022 19.724C60.9382 19.456 60.8062 19.108 60.8062 18.68C60.8062 18.328 60.9142 18.024 61.1302 17.768C61.3462 17.512 61.6942 17.288 62.1742 17.096C62.6582 16.9 63.2962 16.722 64.0882 16.562V15.44C64.0882 14.932 64.0182 14.576 63.8782 14.372C63.7422 14.168 63.5062 14.066 63.1702 14.066C62.8382 14.066 62.5742 14.146 62.3782 14.306C62.1822 14.466 62.0842 14.682 62.0842 14.954C62.0842 15.03 62.0882 15.106 62.0962 15.182C62.1082 15.254 62.1142 15.324 62.1142 15.392C62.1142 15.596 62.0522 15.764 61.9282 15.896C61.8082 16.028 61.6542 16.094 61.4662 16.094C61.2942 16.094 61.1542 16.038 61.0462 15.926C60.9422 15.814 60.8902 15.668 60.8902 15.488C60.8902 15.228 61.0022 14.962 61.2262 14.69C61.4542 14.414 61.7542 14.178 62.1262 13.982C62.6222 13.718 63.1602 13.586 63.7402 13.586C64.0882 13.586 64.3822 13.64 64.6222 13.748C64.8662 13.856 65.0422 14.01 65.1502 14.21C65.2142 14.346 65.2562 14.518 65.2762 14.726C65.3002 14.934 65.3122 15.282 65.3122 15.77V18.452C65.3122 18.84 65.3422 19.104 65.4022 19.244C65.4662 19.384 65.5842 19.454 65.7562 19.454C65.9522 19.454 66.1422 19.342 66.3262 19.118L66.5422 19.322C66.3462 19.606 66.1462 19.812 65.9422 19.94C65.7422 20.064 65.5082 20.126 65.2402 20.126C64.9162 20.126 64.6642 20.038 64.4842 19.862C64.3042 19.686 64.1842 19.418 64.1242 19.058H64.0882C63.8602 19.386 63.5842 19.646 63.2602 19.838C62.9362 20.03 62.5982 20.126 62.2462 20.126ZM62.8462 19.364C63.0942 19.364 63.3262 19.3 63.5422 19.172C63.7582 19.04 63.9402 18.858 64.0882 18.626V16.934C63.5522 17.038 63.1302 17.152 62.8222 17.276C62.5182 17.4 62.3022 17.552 62.1742 17.732C62.0502 17.908 61.9882 18.13 61.9882 18.398C61.9882 18.706 62.0602 18.944 62.2042 19.112C62.3522 19.28 62.5662 19.364 62.8462 19.364ZM70.1823 20.108C69.8543 20.108 69.5343 20.06 69.2223 19.964C68.9143 19.868 68.5883 19.718 68.2443 19.514L67.7703 20H67.5243L67.3023 16.958L67.6263 16.892C67.8663 17.832 68.1823 18.514 68.5743 18.938C68.9703 19.362 69.4923 19.574 70.1403 19.574C70.6843 19.574 71.1143 19.444 71.4303 19.184C71.7463 18.92 71.9043 18.564 71.9043 18.116C71.9043 17.764 71.7943 17.45 71.5743 17.174C71.3583 16.894 71.0023 16.614 70.5063 16.334L69.5883 15.848C68.8403 15.444 68.3043 15.042 67.9803 14.642C67.6563 14.242 67.4943 13.776 67.4943 13.244C67.4943 12.764 67.6123 12.336 67.8483 11.96C68.0843 11.58 68.4063 11.282 68.8143 11.066C69.2263 10.846 69.6883 10.736 70.2003 10.736C70.9003 10.736 71.5103 10.982 72.0303 11.474L72.3963 10.85H72.6543L72.7623 13.472H72.4203C72.2323 12.724 71.9603 12.172 71.6043 11.816C71.2523 11.456 70.8023 11.276 70.2543 11.276C69.8103 11.276 69.4583 11.394 69.1983 11.63C68.9423 11.866 68.8143 12.19 68.8143 12.602C68.8143 12.974 68.9363 13.306 69.1803 13.598C69.4283 13.89 69.8443 14.19 70.4283 14.498L71.3223 14.978C71.9343 15.302 72.3763 15.662 72.6483 16.058C72.9243 16.454 73.0623 16.908 73.0623 17.42C73.0623 17.928 72.9343 18.386 72.6783 18.794C72.4263 19.198 72.0823 19.518 71.6463 19.754C71.2143 19.99 70.7263 20.108 70.1823 20.108ZM77.0839 20.126C76.5399 20.126 76.0559 19.994 75.6319 19.73C75.2119 19.462 74.8819 19.092 74.6419 18.62C74.4059 18.144 74.2879 17.596 74.2879 16.976C74.2879 16.32 74.4179 15.738 74.6779 15.23C74.9419 14.718 75.3039 14.316 75.7639 14.024C76.2279 13.732 76.7579 13.586 77.3539 13.586C77.7739 13.586 78.1499 13.656 78.4819 13.796C78.8139 13.932 79.0759 14.114 79.2679 14.342C79.4639 14.566 79.5619 14.812 79.5619 15.08C79.5619 15.3 79.5059 15.47 79.3939 15.59C79.2819 15.71 79.1299 15.77 78.9379 15.77C78.7299 15.77 78.5739 15.708 78.4699 15.584C78.3659 15.46 78.2979 15.266 78.2659 15.002C78.2219 14.606 78.1359 14.34 78.0079 14.204C77.8799 14.068 77.6739 14 77.3899 14C76.8219 14 76.3799 14.244 76.0639 14.732C75.7519 15.216 75.5959 15.86 75.5959 16.664C75.5959 17.472 75.7599 18.092 76.0879 18.524C76.4159 18.956 76.8819 19.172 77.4859 19.172C77.8859 19.172 78.2439 19.098 78.5599 18.95C78.8759 18.802 79.1579 18.556 79.4059 18.212L79.6459 18.35C79.4259 18.918 79.0959 19.356 78.6559 19.664C78.2159 19.972 77.6919 20.126 77.0839 20.126ZM80.4306 20V19.736L81.3306 19.55V14.66L80.4546 14.33V14.156L82.3746 13.58H82.5066V14.876L82.5546 14.936V19.55L83.7906 19.736V20H80.4306ZM82.4646 15.428L82.4406 14.936C82.7366 14.5 83.0306 14.164 83.3226 13.928C83.6186 13.692 83.8946 13.574 84.1506 13.574C84.3706 13.574 84.5566 13.65 84.7086 13.802C84.8606 13.95 84.9366 14.13 84.9366 14.342C84.9366 14.538 84.8706 14.704 84.7386 14.84C84.6066 14.972 84.4426 15.038 84.2466 15.038C84.0466 15.038 83.8906 14.964 83.7786 14.816C83.6986 14.724 83.6306 14.662 83.5746 14.63C83.5186 14.594 83.4546 14.576 83.3826 14.576C83.2666 14.576 83.1206 14.654 82.9446 14.81C82.7726 14.962 82.6126 15.168 82.4646 15.428ZM85.4694 20V19.736L86.3814 19.55V14.66L85.4874 14.342V14.156L87.4794 13.586H87.6114V19.55L88.5114 19.736V20H85.4694ZM86.9874 12.326C86.7434 12.326 86.5494 12.248 86.4054 12.092C86.2614 11.936 86.1894 11.754 86.1894 11.546C86.1894 11.318 86.2614 11.126 86.4054 10.97C86.5494 10.814 86.7434 10.736 86.9874 10.736C87.2354 10.736 87.4314 10.814 87.5754 10.97C87.7234 11.126 87.7974 11.318 87.7974 11.546C87.7974 11.754 87.7234 11.936 87.5754 12.092C87.4314 12.248 87.2354 12.326 86.9874 12.326ZM89.0116 22.97V22.736L89.9236 22.538V14.66L89.0416 14.342V14.156L90.9556 13.586H91.0996V14.612H91.1476C91.3876 14.256 91.6816 13.996 92.0296 13.832C92.3816 13.668 92.7376 13.586 93.0976 13.586C93.5976 13.586 94.0356 13.724 94.4116 14C94.7916 14.272 95.0876 14.646 95.2996 15.122C95.5156 15.598 95.6236 16.142 95.6236 16.754C95.6236 17.414 95.4836 17.998 95.2036 18.506C94.9236 19.014 94.5336 19.412 94.0336 19.7C93.5376 19.984 92.9576 20.126 92.2936 20.126C92.1016 20.126 91.9116 20.11 91.7236 20.078C91.5356 20.05 91.3456 20.004 91.1536 19.94V22.538L92.3776 22.736V22.97H89.0116ZM92.3416 19.724C92.7296 19.724 93.0696 19.606 93.3616 19.37C93.6536 19.134 93.8796 18.808 94.0396 18.392C94.2036 17.972 94.2856 17.49 94.2856 16.946C94.2856 16.15 94.1236 15.524 93.7996 15.068C93.4796 14.612 93.0416 14.384 92.4856 14.384C92.2416 14.384 91.9916 14.45 91.7356 14.582C91.4796 14.71 91.2996 14.872 91.1956 15.068V18.542C91.1956 18.886 91.3056 19.17 91.5256 19.394C91.7496 19.614 92.0216 19.724 92.3416 19.724ZM98.6622 20.126C98.2182 20.126 97.8802 20 97.6482 19.748C97.4162 19.496 97.3002 19.134 97.3002 18.662V14.15H96.5202L96.4842 13.934L98.2842 12.146L98.5182 12.17V13.706H100.234L100.132 14.15H98.5182V18.542C98.5182 19.198 98.7542 19.526 99.2262 19.526C99.3862 19.526 99.5442 19.484 99.7002 19.4C99.8602 19.316 99.9962 19.2 100.108 19.052L100.318 19.238C100.134 19.51 99.8942 19.726 99.5982 19.886C99.3062 20.046 98.9942 20.126 98.6622 20.126Z" fill="white"/>
<path d="M31 0H5C2.23858 0 0 2.23858 0 5V27C0 29.7614 2.23858 32 5 32H31V0Z" fill="#F7DF1E"/>
<path d="M5 6H25V26H5V6ZM23.3617 21.23C23.2158 20.3175 22.6217 19.5508 20.8592 18.8358C20.2458 18.5483 19.5642 18.3483 19.3617 17.8858C19.2858 17.6108 19.2742 17.4608 19.3233 17.2983C19.4483 16.76 20.0858 16.5983 20.5858 16.7483C20.9108 16.8483 21.2108 17.0983 21.3992 17.4983C22.2608 16.935 22.2608 16.935 22.8617 16.5608C22.6367 16.2108 22.525 16.06 22.3733 15.9108C21.8483 15.3233 21.1492 15.0233 20.0117 15.0492L19.4242 15.1233C18.8608 15.2608 18.3242 15.5608 17.9992 15.9608C17.0492 17.0367 17.3233 18.9117 18.4733 19.6867C19.6108 20.5367 21.2742 20.7233 21.4867 21.5242C21.6867 22.4992 20.7617 22.8117 19.8483 22.6992C19.1725 22.5492 18.7983 22.2108 18.3858 21.5858L16.8608 22.4617C17.0358 22.8617 17.2358 23.0358 17.5358 23.3858C18.9858 24.8492 22.6108 24.7742 23.2617 22.5492C23.2858 22.4742 23.4617 21.9617 23.3233 21.1742L23.3617 21.23ZM15.8758 15.1925H14.0025C14.0025 16.8075 13.995 18.4125 13.995 20.03C13.995 21.0567 14.0475 21.9992 13.88 22.2892C13.605 22.8633 12.8967 22.79 12.575 22.6892C12.245 22.5258 12.0775 22.3008 11.8833 21.9767C11.8308 21.8892 11.7917 21.8133 11.7775 21.8133L10.2567 22.7508C10.5108 23.2758 10.8817 23.7275 11.36 24.015C12.0725 24.44 13.03 24.5775 14.0325 24.3525C14.685 24.1642 15.2475 23.7767 15.5417 23.1767C15.9667 22.4017 15.8767 21.4517 15.8725 20.3883C15.8825 18.6767 15.8725 16.9642 15.8725 15.2392L15.8758 15.1925Z" fill="white"/>
</svg>
