<svg width="100" height="32" viewBox="0 0 100 32" fill="none" xmlns="http://www.w3.org/2000/svg">
<path d="M95 0H31V32H95C97.7614 32 100 29.7614 100 27V5C100 2.23858 97.7614 0 95 0Z" fill="#0F1418"/>
<path d="M45.564 20V19.712L46.584 19.472V11.384L45.564 11.15V10.862H49.302C49.934 10.862 50.492 10.968 50.976 11.18C51.46 11.388 51.838 11.694 52.11 12.098C52.382 12.498 52.518 12.99 52.518 13.574C52.518 14.39 52.214 15.014 51.606 15.446C50.998 15.878 50.168 16.094 49.116 16.094H47.934V19.472L49.302 19.712V20H45.564ZM47.934 15.614H48.72C49.2 15.614 49.582 15.56 49.866 15.452C50.154 15.34 50.384 15.186 50.556 14.99C50.736 14.786 50.86 14.554 50.928 14.294C51 14.03 51.036 13.752 51.036 13.46C51.036 12.968 50.948 12.558 50.772 12.23C50.596 11.902 50.348 11.668 50.028 11.528C49.784 11.408 49.416 11.348 48.924 11.348H47.934V15.614ZM54.3916 23.09C54.0836 23.09 53.8336 23.014 53.6416 22.862C53.4496 22.714 53.3536 22.516 53.3536 22.268C53.3536 22.072 53.4156 21.916 53.5396 21.8C53.6676 21.684 53.8336 21.626 54.0376 21.626C54.1976 21.626 54.3236 21.668 54.4156 21.752C54.5076 21.84 54.5736 21.984 54.6136 22.184C54.6376 22.336 54.6656 22.434 54.6976 22.478C54.7336 22.526 54.7936 22.55 54.8776 22.55C55.0056 22.55 55.1256 22.474 55.2376 22.322C55.3536 22.174 55.4676 21.93 55.5796 21.59L56.0656 20.126L53.7196 14.444C53.6476 14.296 53.5476 14.186 53.4196 14.114C53.2916 14.042 53.1056 13.994 52.8616 13.97V13.706H55.9276V13.97C55.6516 13.986 55.4536 14.01 55.3336 14.042C55.2136 14.07 55.1496 14.122 55.1416 14.198C55.1336 14.274 55.1576 14.394 55.2136 14.558L56.6596 18.254H56.7136L57.8416 14.9C57.9576 14.584 57.9516 14.356 57.8236 14.216C57.6996 14.072 57.4276 13.99 57.0076 13.97V13.706H59.7016V13.97C59.4016 14.018 59.1676 14.076 58.9996 14.144C58.8356 14.208 58.7096 14.3 58.6216 14.42C58.5336 14.536 58.4516 14.7 58.3756 14.912L56.0056 21.674C55.9216 21.926 55.8296 22.134 55.7296 22.298C55.6296 22.466 55.5276 22.598 55.4236 22.694C55.1676 22.958 54.8236 23.09 54.3916 23.09ZM62.1153 20.126C61.6713 20.126 61.3333 20 61.1013 19.748C60.8693 19.496 60.7533 19.134 60.7533 18.662V14.15H59.9733L59.9373 13.934L61.7373 12.146L61.9713 12.17V13.706H63.6873L63.5853 14.15H61.9713V18.542C61.9713 19.198 62.2073 19.526 62.6793 19.526C62.8393 19.526 62.9973 19.484 63.1533 19.4C63.3133 19.316 63.4493 19.2 63.5613 19.052L63.7713 19.238C63.5873 19.51 63.3473 19.726 63.0513 19.886C62.7593 20.046 62.4473 20.126 62.1153 20.126ZM64.1195 20V19.736L65.0255 19.55V11.216L64.1375 10.892V10.712L66.1055 10.142H66.2435V19.55L67.1255 19.736V20H64.1195ZM68.1275 20V19.736L69.0035 19.562V15.71C69.0035 15.234 68.9075 14.88 68.7155 14.648C68.5235 14.412 68.2135 14.294 67.7855 14.294C67.4815 14.294 67.1915 14.366 66.9155 14.51C66.6395 14.654 66.3795 14.854 66.1355 15.11V14.624C66.5035 14.284 66.8935 14.026 67.3055 13.85C67.7175 13.674 68.1215 13.586 68.5175 13.586C69.6575 13.586 70.2275 14.124 70.2275 15.2V19.562L71.1155 19.736V20H68.1275ZM75.0452 20.126C74.4292 20.126 73.8832 19.984 73.4072 19.7C72.9312 19.412 72.5572 19.022 72.2852 18.53C72.0172 18.034 71.8832 17.476 71.8832 16.856C71.8832 16.232 72.0172 15.674 72.2852 15.182C72.5572 14.69 72.9312 14.302 73.4072 14.018C73.8832 13.73 74.4292 13.586 75.0452 13.586C75.6612 13.586 76.2052 13.73 76.6772 14.018C77.1532 14.302 77.5272 14.69 77.7992 15.182C78.0712 15.674 78.2072 16.232 78.2072 16.856C78.2072 17.476 78.0712 18.034 77.7992 18.53C77.5272 19.022 77.1532 19.412 76.6772 19.7C76.2052 19.984 75.6612 20.126 75.0452 20.126ZM75.0332 19.574C75.3252 19.574 75.5832 19.51 75.8072 19.382C76.0312 19.25 76.2192 19.064 76.3712 18.824C76.5272 18.58 76.6452 18.292 76.7252 17.96C76.8052 17.624 76.8452 17.252 76.8452 16.844C76.8452 16.44 76.8052 16.072 76.7252 15.74C76.6492 15.408 76.5352 15.122 76.3832 14.882C76.2312 14.642 76.0432 14.458 75.8192 14.33C75.5952 14.198 75.3372 14.132 75.0452 14.132C74.7532 14.132 74.4952 14.198 74.2712 14.33C74.0472 14.458 73.8592 14.642 73.7072 14.882C73.5552 15.122 73.4392 15.41 73.3592 15.746C73.2832 16.078 73.2452 16.448 73.2452 16.856C73.2452 17.264 73.2832 17.634 73.3592 17.966C73.4392 18.298 73.5552 18.584 73.7072 18.824C73.8592 19.064 74.0452 19.25 74.2652 19.382C74.4892 19.51 74.7452 19.574 75.0332 19.574ZM82.9986 20V19.736L83.8746 19.562V15.71C83.8746 15.234 83.7786 14.88 83.5866 14.648C83.3946 14.412 83.0846 14.294 82.6566 14.294C82.0286 14.294 81.5066 14.58 81.0906 15.152V14.654C81.4266 14.318 81.7946 14.056 82.1946 13.868C82.5946 13.68 82.9926 13.586 83.3886 13.586C84.5286 13.586 85.0986 14.124 85.0986 15.2V19.562L85.9866 19.736V20H82.9986ZM79.0926 20V19.736L79.9926 19.55V14.672L79.1046 14.342V14.168L81.0246 13.586H81.1566V14.648L81.2166 14.708V19.55L82.0986 19.736V20H79.0926Z" fill="white"/>
<path d="M31 0H5C2.23858 0 0 2.23858 0 5V27C0 29.7614 2.23858 32 5 32H31V0Z" fill="#3776AB"/>
<path d="M17.31 4.18L18.21 4.38L18.94 4.64L19.53 4.94L19.98 5.26L20.32 5.6L20.57 5.94L20.73 6.27L20.83 6.57L20.87 6.83L20.89 7.03L20.88 7.16V12.5L20.83 13.13L20.7 13.68L20.49 14.14L20.23 14.52L19.93 14.83L19.6 15.08L19.25 15.27L18.9 15.41L18.57 15.51L18.27 15.58L18.01 15.62L17.8 15.64H11.83L11.14 15.69L10.55 15.83L10.05 16.05L9.64 16.32L9.31 16.64L9.04 16.99L8.84 17.35L8.69 17.72L8.59 18.07L8.52 18.39L8.48 18.66L8.46 18.87V21.93H6.23L6.02 21.9L5.74 21.83L5.42 21.71L5.07 21.53L4.71 21.27L4.35 20.91L4 20.45L3.68 19.86L3.4 19.13L3.19 18.25L3.05 17.2L3 15.97L3.06 14.75L3.22 13.71L3.46 12.84L3.78 12.13L4.14 11.56L4.54 11.12L4.96 10.79L5.38 10.55L5.78 10.39L6.14 10.29L6.46 10.24L6.7 10.23H6.86L6.92 10.24H15.08V9.41H9.24L9.23 6.66L9.21 6.29L9.26 5.95L9.37 5.64L9.54 5.36L9.79 5.1L10.1 4.87L10.48 4.67L10.92 4.49L11.43 4.34L12.01 4.22L12.65 4.12L13.36 4.06L14.13 4.02L14.97 4L16.24 4.05L17.31 4.18ZM11.01 6.16L10.78 6.49L10.7 6.9L10.78 7.31L11.01 7.65L11.34 7.87L11.75 7.96L12.16 7.87L12.49 7.65L12.72 7.31L12.8 6.9L12.72 6.49L12.49 6.16L12.16 5.94L11.75 5.85L11.34 5.94L11.01 6.16ZM24.1 10.11L24.38 10.17L24.7 10.29L25.05 10.47L25.41 10.74L25.77 11.09L26.12 11.56L26.44 12.15L26.72 12.88L26.93 13.76L27.07 14.8L27.12 16.03L27.06 17.26L26.9 18.3L26.66 19.16L26.34 19.87L25.98 20.44L25.58 20.89L25.16 21.22L24.74 21.46L24.34 21.62L23.98 21.71L23.66 21.76L23.42 21.78L23.26 21.77H15.04V22.59H20.88L20.89 25.35L20.91 25.71L20.86 26.05L20.75 26.36L20.58 26.65L20.33 26.9L20.02 27.14L19.64 27.34L19.2 27.51L18.69 27.66L18.11 27.79L17.47 27.88L16.76 27.95L15.99 27.99L15.15 28L13.88 27.96L12.81 27.82L11.91 27.62L11.18 27.37L10.59 27.07L10.14 26.74L9.8 26.4L9.55 26.06L9.39 25.73L9.29 25.43L9.25 25.18L9.23 24.98L9.24 24.85V19.51L9.29 18.87L9.42 18.33L9.63 17.87L9.89 17.49L10.19 17.17L10.52 16.93L10.87 16.73L11.22 16.59L11.55 16.49L11.85 16.43L12.11 16.39L12.32 16.37L12.45 16.36H18.29L18.98 16.31L19.57 16.17L20.07 15.96L20.48 15.68L20.81 15.36L21.08 15.01L21.28 14.65L21.43 14.29L21.53 13.94L21.6 13.62L21.64 13.34L21.66 13.13V10.07H23.75L23.89 10.08L24.1 10.11ZM17.63 24.36L17.4 24.69L17.32 25.1L17.4 25.51L17.63 25.84L17.96 26.07L18.37 26.15L18.78 26.07L19.11 25.84L19.34 25.51L19.42 25.1L19.34 24.69L19.11 24.36L18.78 24.13L18.37 24.05L17.96 24.13L17.63 24.36Z" fill="white"/>
</svg>
