<svg width="100" height="32" viewBox="0 0 100 32" fill="none" xmlns="http://www.w3.org/2000/svg">
<path d="M95 0H31V32H95C97.7614 32 100 29.7614 100 27V5C100 2.23858 97.7614 0 95 0Z" fill="#0F1418"/>
<path d="M56.612 20.108C56.284 20.108 55.964 20.06 55.652 19.964C55.344 19.868 55.018 19.718 54.674 19.514L54.2 20H53.954L53.732 16.958L54.056 16.892C54.296 17.832 54.612 18.514 55.004 18.938C55.4 19.362 55.922 19.574 56.57 19.574C57.114 19.574 57.544 19.444 57.86 19.184C58.176 18.92 58.334 18.564 58.334 18.116C58.334 17.764 58.224 17.45 58.004 17.174C57.788 16.894 57.432 16.614 56.936 16.334L56.018 15.848C55.27 15.444 54.734 15.042 54.41 14.642C54.086 14.242 53.924 13.776 53.924 13.244C53.924 12.764 54.042 12.336 54.278 11.96C54.514 11.58 54.836 11.282 55.244 11.066C55.656 10.846 56.118 10.736 56.63 10.736C57.33 10.736 57.94 10.982 58.46 11.474L58.826 10.85H59.084L59.192 13.472H58.85C58.662 12.724 58.39 12.172 58.034 11.816C57.682 11.456 57.232 11.276 56.684 11.276C56.24 11.276 55.888 11.394 55.628 11.63C55.372 11.866 55.244 12.19 55.244 12.602C55.244 12.974 55.366 13.306 55.61 13.598C55.858 13.89 56.274 14.19 56.858 14.498L57.752 14.978C58.364 15.302 58.806 15.662 59.078 16.058C59.354 16.454 59.492 16.908 59.492 17.42C59.492 17.928 59.364 18.386 59.108 18.794C58.856 19.198 58.512 19.518 58.076 19.754C57.644 19.99 57.156 20.108 56.612 20.108ZM63.2316 21.956C63.0396 21.956 62.8856 21.892 62.7696 21.764C62.6576 21.64 62.6016 21.476 62.6016 21.272C62.6016 20.976 62.7176 20.704 62.9496 20.456C63.1856 20.212 63.5056 20.012 63.9096 19.856V19.808C63.2896 19.66 62.7476 19.378 62.2836 18.962C61.8196 18.542 61.4596 18.028 61.2036 17.42C60.9476 16.808 60.8196 16.144 60.8196 15.428C60.8196 14.76 60.9256 14.142 61.1376 13.574C61.3536 13.006 61.6556 12.51 62.0436 12.086C62.4356 11.658 62.8956 11.326 63.4236 11.09C63.9556 10.854 64.5376 10.736 65.1696 10.736C65.8016 10.736 66.3836 10.854 66.9156 11.09C67.4476 11.326 67.9076 11.658 68.2956 12.086C68.6876 12.51 68.9916 13.006 69.2076 13.574C69.4236 14.142 69.5316 14.76 69.5316 15.428C69.5316 16.212 69.3776 16.932 69.0696 17.588C68.7616 18.244 68.3296 18.78 67.7736 19.196C67.2216 19.612 66.5736 19.856 65.8296 19.928V19.982C66.0896 20.046 66.3516 20.142 66.6156 20.27C66.8796 20.398 67.1536 20.514 67.4376 20.618C67.7256 20.726 68.0256 20.78 68.3376 20.78C68.5976 20.78 68.8176 20.73 68.9976 20.63C69.1776 20.53 69.3496 20.376 69.5136 20.168L69.8376 20.3C69.5936 20.868 69.2796 21.292 68.8956 21.572C68.5116 21.856 68.1136 21.998 67.7016 21.998C67.3256 21.998 67.0076 21.898 66.7476 21.698C66.4876 21.502 66.2396 21.288 66.0036 21.056C65.6636 20.72 65.3756 20.486 65.1396 20.354C64.9036 20.222 64.6536 20.156 64.3896 20.156C64.1416 20.156 63.9576 20.206 63.8376 20.306C63.7176 20.406 63.6576 20.532 63.6576 20.684C63.6576 20.816 63.6916 20.922 63.7596 21.002C63.8276 21.082 63.8616 21.192 63.8616 21.332C63.8616 21.512 63.8016 21.66 63.6816 21.776C63.5616 21.896 63.4116 21.956 63.2316 21.956ZM65.1696 19.58C65.5256 19.58 65.8476 19.516 66.1356 19.388C66.4276 19.26 66.6836 19.074 66.9036 18.83C67.1276 18.586 67.3156 18.294 67.4676 17.954C67.6196 17.61 67.7336 17.224 67.8096 16.796C67.8856 16.368 67.9236 15.904 67.9236 15.404C67.9236 14.908 67.8856 14.45 67.8096 14.03C67.7336 13.606 67.6216 13.226 67.4736 12.89C67.3256 12.554 67.1416 12.268 66.9216 12.032C66.7016 11.792 66.4456 11.61 66.1536 11.486C65.8656 11.358 65.5436 11.294 65.1876 11.294C64.8276 11.294 64.5016 11.358 64.2096 11.486C63.9176 11.61 63.6596 11.792 63.4356 12.032C63.2156 12.272 63.0296 12.562 62.8776 12.902C62.7296 13.238 62.6176 13.62 62.5416 14.048C62.4656 14.472 62.4276 14.932 62.4276 15.428C62.4276 15.924 62.4656 16.384 62.5416 16.808C62.6176 17.232 62.7296 17.616 62.8776 17.96C63.0296 18.3 63.2156 18.592 63.4356 18.836C63.6556 19.076 63.9096 19.26 64.1976 19.388C64.4896 19.516 64.8136 19.58 65.1696 19.58ZM70.5913 20V19.712L71.6113 19.472V11.378L70.5913 11.15V10.862H74.0893V11.15L72.9613 11.378V19.502H76.3273C76.5433 19.138 76.7293 18.772 76.8853 18.404C77.0413 18.036 77.1913 17.624 77.3353 17.168H77.6893L77.2393 20H70.5913Z" fill="white"/>
<path d="M31 0H5C2.23858 0 0 2.23858 0 5V27C0 29.7614 2.23858 32 5 32H31V0Z" fill="#828282"/>
<path d="M14.9253 14.9083C14.0289 14.9083 13.5121 15.7869 13.5121 16.873C13.5034 17.9756 14.0377 18.8202 14.9165 18.8202C15.8037 18.8202 16.3213 17.9842 16.3213 16.8471C16.3213 15.7869 15.8212 14.9083 14.9253 14.9083Z" fill="white"/>
<path d="M22.5912 13.1537H22.111V10.8365C22.111 10.8219 22.1087 10.8075 22.1068 10.7927C22.106 10.7008 22.0767 10.6104 22.0137 10.5388L18.1576 6.13413C18.1565 6.133 18.1553 6.13252 18.1545 6.13139C18.1316 6.10571 18.1048 6.08433 18.0764 6.06588C18.068 6.06026 18.0596 6.05555 18.0508 6.05059C18.0262 6.03728 18.0002 6.02608 17.9734 6.01802C17.9661 6.01612 17.9596 6.01313 17.9524 6.01123C17.9232 6.0043 17.893 6 17.8624 6H8.38549C7.95272 6 7.60119 6.35197 7.60119 6.78433V13.1537H7.12105C6.50214 13.1537 6 13.6555 6 14.2747V20.1042C6 20.7229 6.50214 21.2252 7.12105 21.2252H7.60119V25.2157C7.60119 25.6481 7.95272 26 8.38549 26H21.3267C21.759 26 22.111 25.6481 22.111 25.2157V21.2252H22.5912C23.2105 21.2252 23.7121 20.7229 23.7121 20.1042V14.2748C23.7121 13.6555 23.2105 13.1537 22.5912 13.1537ZM8.38549 6.78433H17.4702V10.797C17.4702 11.0138 17.6459 11.1892 17.8624 11.1892H21.3267V13.1539H8.38549V6.78433ZM17.7337 19.7504L17.3545 20.7675C16.5277 20.526 15.8384 20.2758 15.0627 19.9488C14.9341 19.897 14.7958 19.871 14.6581 19.8626C13.3482 19.7768 12.1248 18.8114 12.1248 16.9161C12.1248 15.1757 13.2277 13.8658 14.9594 13.8658C16.7349 13.8658 17.708 15.2101 17.708 16.7955C17.708 18.1138 17.0964 19.0438 16.3297 19.3887V19.4231C16.7778 19.5522 17.2772 19.6558 17.7337 19.7504ZM7.51569 19.5007L7.78299 18.415C8.13646 18.5959 8.67865 18.7767 9.23905 18.7767C9.84183 18.7767 10.1609 18.5272 10.1609 18.1483C10.1609 17.7861 9.88509 17.5793 9.18725 17.3296C8.22218 16.9934 7.59335 16.4594 7.59335 15.6147C7.59335 14.6239 8.42065 13.8657 9.7904 13.8657C10.4453 13.8657 10.9279 14.004 11.2722 14.1586L10.9796 15.2187C10.7471 15.1065 10.3336 14.9428 9.76494 14.9428C9.19593 14.9428 8.92002 15.201 8.92002 15.5029C8.92002 15.8732 9.24747 16.0372 9.99729 16.3217C11.0226 16.7009 11.505 17.2345 11.505 18.0531C11.505 19.027 10.7551 19.8538 9.16121 19.8538C8.49809 19.8534 7.84351 19.6811 7.51569 19.5007ZM21.3267 25.0031H8.38549V21.2252H21.3267V25.0031ZM22.1968 19.7674H18.5689V13.9604H19.8879V18.6648H22.1968V19.7674Z" fill="white"/>
</svg>
