<svg width="119" height="32" viewBox="0 0 119 32" fill="none" xmlns="http://www.w3.org/2000/svg">
<path d="M112.623 0H31V32H112.623C116.145 32 119 29.7614 119 27V5C119 2.23858 116.145 0 112.623 0Z" fill="#0F1418"/>
<path d="M45.514 20V19.712L46.84 19.472V11.354H44.512C44.256 11.694 44.038 12.05 43.858 12.422C43.682 12.794 43.536 13.148 43.42 13.484H43.108L43.546 10.862H51.442L51.88 13.484H51.574C51.458 13.148 51.31 12.794 51.13 12.422C50.954 12.05 50.738 11.694 50.482 11.354H48.19V19.472L49.492 19.712V20H45.514ZM53.0244 23.09C52.7164 23.09 52.4664 23.014 52.2744 22.862C52.0824 22.714 51.9864 22.516 51.9864 22.268C51.9864 22.072 52.0484 21.916 52.1724 21.8C52.3004 21.684 52.4664 21.626 52.6704 21.626C52.8304 21.626 52.9564 21.668 53.0484 21.752C53.1404 21.84 53.2064 21.984 53.2464 22.184C53.2704 22.336 53.2984 22.434 53.3304 22.478C53.3664 22.526 53.4264 22.55 53.5104 22.55C53.6384 22.55 53.7584 22.474 53.8704 22.322C53.9864 22.174 54.1004 21.93 54.2124 21.59L54.6984 20.126L52.3524 14.444C52.2804 14.296 52.1804 14.186 52.0524 14.114C51.9244 14.042 51.7384 13.994 51.4944 13.97V13.706H54.5604V13.97C54.2844 13.986 54.0864 14.01 53.9664 14.042C53.8464 14.07 53.7824 14.122 53.7744 14.198C53.7664 14.274 53.7904 14.394 53.8464 14.558L55.2924 18.254H55.3464L56.4744 14.9C56.5904 14.584 56.5844 14.356 56.4564 14.216C56.3324 14.072 56.0604 13.99 55.6404 13.97V13.706H58.3344V13.97C58.0344 14.018 57.8004 14.076 57.6324 14.144C57.4684 14.208 57.3424 14.3 57.2544 14.42C57.1664 14.536 57.0844 14.7 57.0084 14.912L54.6384 21.674C54.5544 21.926 54.4624 22.134 54.3624 22.298C54.2624 22.466 54.1604 22.598 54.0564 22.694C53.8004 22.958 53.4564 23.09 53.0244 23.09ZM58.4921 22.97V22.736L59.4041 22.538V14.66L58.5221 14.342V14.156L60.4361 13.586H60.5801V14.612H60.6281C60.8681 14.256 61.1621 13.996 61.5101 13.832C61.8621 13.668 62.2181 13.586 62.5781 13.586C63.0781 13.586 63.5161 13.724 63.8921 14C64.2721 14.272 64.5681 14.646 64.7801 15.122C64.9961 15.598 65.1041 16.142 65.1041 16.754C65.1041 17.414 64.9641 17.998 64.6841 18.506C64.4041 19.014 64.0141 19.412 63.5141 19.7C63.0181 19.984 62.4381 20.126 61.7741 20.126C61.5821 20.126 61.3921 20.11 61.2041 20.078C61.0161 20.05 60.8261 20.004 60.6341 19.94V22.538L61.8581 22.736V22.97H58.4921ZM61.8221 19.724C62.2101 19.724 62.5501 19.606 62.8421 19.37C63.1341 19.134 63.3601 18.808 63.5201 18.392C63.6841 17.972 63.7661 17.49 63.7661 16.946C63.7661 16.15 63.6041 15.524 63.2801 15.068C62.9601 14.612 62.5221 14.384 61.9661 14.384C61.7221 14.384 61.4721 14.45 61.2161 14.582C60.9601 14.71 60.7801 14.872 60.6761 15.068V18.542C60.6761 18.886 60.7861 19.17 61.0061 19.394C61.2301 19.614 61.5021 19.724 61.8221 19.724ZM69.0906 20.126C68.5106 20.126 68.0006 19.994 67.5606 19.73C67.1246 19.462 66.7846 19.09 66.5406 18.614C66.3006 18.134 66.1806 17.58 66.1806 16.952C66.1806 16.284 66.3146 15.698 66.5826 15.194C66.8546 14.69 67.2326 14.296 67.7166 14.012C68.2046 13.728 68.7686 13.586 69.4086 13.586C70.2006 13.586 70.8066 13.816 71.2266 14.276C71.6506 14.736 71.8706 15.41 71.8866 16.298L71.8026 16.37H67.1526V16.022L70.5126 15.902C70.5406 15.798 70.5546 15.64 70.5546 15.428C70.5546 14.468 70.1326 13.988 69.2886 13.988C68.7086 13.988 68.2606 14.216 67.9446 14.672C67.6326 15.124 67.4766 15.766 67.4766 16.598C67.4766 18.338 68.1526 19.208 69.5046 19.208C70.3846 19.208 71.0586 18.888 71.5266 18.248L71.7486 18.386C71.5406 18.938 71.2026 19.366 70.7346 19.67C70.2706 19.974 69.7226 20.126 69.0906 20.126ZM75.9675 20.108C75.6395 20.108 75.3195 20.06 75.0075 19.964C74.6995 19.868 74.3735 19.718 74.0295 19.514L73.5555 20H73.3095L73.0875 16.958L73.4115 16.892C73.6515 17.832 73.9675 18.514 74.3595 18.938C74.7555 19.362 75.2775 19.574 75.9255 19.574C76.4695 19.574 76.8995 19.444 77.2155 19.184C77.5315 18.92 77.6895 18.564 77.6895 18.116C77.6895 17.764 77.5795 17.45 77.3595 17.174C77.1435 16.894 76.7875 16.614 76.2915 16.334L75.3735 15.848C74.6255 15.444 74.0895 15.042 73.7655 14.642C73.4415 14.242 73.2795 13.776 73.2795 13.244C73.2795 12.764 73.3975 12.336 73.6335 11.96C73.8695 11.58 74.1915 11.282 74.5995 11.066C75.0115 10.846 75.4735 10.736 75.9855 10.736C76.6855 10.736 77.2955 10.982 77.8155 11.474L78.1815 10.85H78.4395L78.5475 13.472H78.2055C78.0175 12.724 77.7455 12.172 77.3895 11.816C77.0375 11.456 76.5875 11.276 76.0395 11.276C75.5955 11.276 75.2435 11.394 74.9835 11.63C74.7275 11.866 74.5995 12.19 74.5995 12.602C74.5995 12.974 74.7215 13.306 74.9655 13.598C75.2135 13.89 75.6295 14.19 76.2135 14.498L77.1075 14.978C77.7195 15.302 78.1615 15.662 78.4335 16.058C78.7095 16.454 78.8475 16.908 78.8475 17.42C78.8475 17.928 78.7195 18.386 78.4635 18.794C78.2115 19.198 77.8675 19.518 77.4315 19.754C76.9995 19.99 76.5115 20.108 75.9675 20.108ZM82.8691 20.126C82.3251 20.126 81.8411 19.994 81.4171 19.73C80.9971 19.462 80.6671 19.092 80.4271 18.62C80.1911 18.144 80.0731 17.596 80.0731 16.976C80.0731 16.32 80.2031 15.738 80.4631 15.23C80.7271 14.718 81.0891 14.316 81.5491 14.024C82.0131 13.732 82.5431 13.586 83.1391 13.586C83.5591 13.586 83.9351 13.656 84.2671 13.796C84.5991 13.932 84.8611 14.114 85.0531 14.342C85.2491 14.566 85.3471 14.812 85.3471 15.08C85.3471 15.3 85.2911 15.47 85.1791 15.59C85.0671 15.71 84.9151 15.77 84.7231 15.77C84.5151 15.77 84.3591 15.708 84.2551 15.584C84.1511 15.46 84.0831 15.266 84.0511 15.002C84.0071 14.606 83.9211 14.34 83.7931 14.204C83.6651 14.068 83.4591 14 83.1751 14C82.6071 14 82.1651 14.244 81.8491 14.732C81.5371 15.216 81.3811 15.86 81.3811 16.664C81.3811 17.472 81.5451 18.092 81.8731 18.524C82.2011 18.956 82.6671 19.172 83.2711 19.172C83.6711 19.172 84.0291 19.098 84.3451 18.95C84.6611 18.802 84.9431 18.556 85.1911 18.212L85.4311 18.35C85.2111 18.918 84.8811 19.356 84.4411 19.664C84.0011 19.972 83.4771 20.126 82.8691 20.126ZM86.2158 20V19.736L87.1158 19.55V14.66L86.2397 14.33V14.156L88.1598 13.58H88.2918V14.876L88.3398 14.936V19.55L89.5758 19.736V20H86.2158ZM88.2498 15.428L88.2258 14.936C88.5218 14.5 88.8158 14.164 89.1078 13.928C89.4038 13.692 89.6798 13.574 89.9358 13.574C90.1558 13.574 90.3418 13.65 90.4938 13.802C90.6458 13.95 90.7218 14.13 90.7218 14.342C90.7218 14.538 90.6558 14.704 90.5238 14.84C90.3918 14.972 90.2278 15.038 90.0318 15.038C89.8318 15.038 89.6758 14.964 89.5638 14.816C89.4838 14.724 89.4158 14.662 89.3598 14.63C89.3038 14.594 89.2398 14.576 89.1678 14.576C89.0518 14.576 88.9058 14.654 88.7298 14.81C88.5578 14.962 88.3978 15.168 88.2498 15.428ZM91.2545 20V19.736L92.1665 19.55V14.66L91.2725 14.342V14.156L93.2645 13.586H93.3965V19.55L94.2965 19.736V20H91.2545ZM92.7725 12.326C92.5285 12.326 92.3345 12.248 92.1905 12.092C92.0465 11.936 91.9745 11.754 91.9745 11.546C91.9745 11.318 92.0465 11.126 92.1905 10.97C92.3345 10.814 92.5285 10.736 92.7725 10.736C93.0205 10.736 93.2165 10.814 93.3605 10.97C93.5085 11.126 93.5825 11.318 93.5825 11.546C93.5825 11.754 93.5085 11.936 93.3605 12.092C93.2165 12.248 93.0205 12.326 92.7725 12.326ZM94.7968 22.97V22.736L95.7088 22.538V14.66L94.8268 14.342V14.156L96.7408 13.586H96.8848V14.612H96.9328C97.1728 14.256 97.4668 13.996 97.8148 13.832C98.1668 13.668 98.5228 13.586 98.8828 13.586C99.3828 13.586 99.8208 13.724 100.197 14C100.577 14.272 100.873 14.646 101.085 15.122C101.301 15.598 101.409 16.142 101.409 16.754C101.409 17.414 101.269 17.998 100.989 18.506C100.709 19.014 100.319 19.412 99.8188 19.7C99.3228 19.984 98.7428 20.126 98.0788 20.126C97.8868 20.126 97.6968 20.11 97.5088 20.078C97.3208 20.05 97.1308 20.004 96.9388 19.94V22.538L98.1628 22.736V22.97H94.7968ZM98.1268 19.724C98.5148 19.724 98.8548 19.606 99.1468 19.37C99.4388 19.134 99.6648 18.808 99.8248 18.392C99.9888 17.972 100.071 17.49 100.071 16.946C100.071 16.15 99.9088 15.524 99.5848 15.068C99.2648 14.612 98.8268 14.384 98.2708 14.384C98.0268 14.384 97.7768 14.45 97.5208 14.582C97.2648 14.71 97.0848 14.872 96.9808 15.068V18.542C96.9808 18.886 97.0908 19.17 97.3108 19.394C97.5348 19.614 97.8068 19.724 98.1268 19.724ZM104.447 20.126C104.003 20.126 103.665 20 103.433 19.748C103.201 19.496 103.085 19.134 103.085 18.662V14.15H102.305L102.269 13.934L104.069 12.146L104.303 12.17V13.706H106.019L105.917 14.15H104.303V18.542C104.303 19.198 104.539 19.526 105.011 19.526C105.171 19.526 105.329 19.484 105.485 19.4C105.645 19.316 105.781 19.2 105.893 19.052L106.103 19.238C105.919 19.51 105.679 19.726 105.383 19.886C105.091 20.046 104.779 20.126 104.447 20.126Z" fill="white"/>
<path d="M31 0H5C2.23858 0 0 2.23858 0 5V27C0 29.7614 2.23858 32 5 32H31V0Z" fill="#3178C6"/>
<path d="M5.9375 6C5.41833 6 5 6.41833 5 6.9375V25.0625C5 25.5817 5.41833 26 5.9375 26H24.0625C24.5817 26 25 25.5817 25 25.0625V6.9375C25 6.41833 24.5817 6 24.0625 6H5.9375ZM20.4067 14.125C20.9167 14.125 21.3683 14.1558 21.7625 14.2175C22.1343 14.2732 22.4991 14.3682 22.8508 14.5008V16.5492C22.682 16.4324 22.5026 16.3317 22.315 16.2483C22.1215 16.1613 21.9218 16.0889 21.7175 16.0317C21.3305 15.9238 20.9309 15.8678 20.5292 15.865C20.2792 15.865 20.0517 15.8883 19.8467 15.9367C19.664 15.9757 19.4887 16.0438 19.3275 16.1383C19.1858 16.225 19.0775 16.3292 19 16.45C18.9221 16.5718 18.8815 16.7137 18.8833 16.8583C18.8833 17.0217 18.9275 17.1692 19.0133 17.2992C19.1 17.4292 19.2233 17.5525 19.3825 17.6692C19.5417 17.7858 19.735 17.8992 19.9625 18.0108C20.19 18.1233 20.4475 18.2392 20.7342 18.3575C21.1258 18.5217 21.4775 18.6967 21.7892 18.8808C22.1008 19.0658 22.3683 19.275 22.5917 19.5083C22.815 19.7408 22.985 20.0067 23.1033 20.3058C23.2217 20.605 23.2817 20.9525 23.2817 21.35C23.2817 21.8975 23.1775 22.3583 22.9708 22.73C22.7689 23.0966 22.4791 23.4072 22.1275 23.6342C21.7485 23.8745 21.3284 24.0429 20.8883 24.1308C20.4167 24.2308 19.9192 24.2808 19.3967 24.2808C18.8824 24.2831 18.3691 24.2373 17.8633 24.1442C17.4258 24.0685 17.0014 23.9301 16.6033 23.7333V21.5417C17.3565 22.1826 18.3119 22.5368 19.3008 22.5417C19.5783 22.5417 19.8208 22.5167 20.0275 22.4667C20.235 22.4167 20.4075 22.3467 20.5467 22.2583C20.685 22.1683 20.7883 22.0633 20.8575 21.9417C20.9339 21.8 20.9687 21.6396 20.9578 21.479C20.9469 21.3184 20.8907 21.1642 20.7958 21.0342C20.672 20.8703 20.5206 20.7293 20.3483 20.6175C20.1347 20.4759 19.9098 20.3521 19.6758 20.2475C19.3985 20.1209 19.1188 19.9997 18.8367 19.8842C18.0717 19.565 17.5017 19.1742 17.1258 18.7133C16.7508 18.2525 16.5625 17.695 16.5625 17.0425C16.5625 16.5308 16.665 16.0917 16.87 15.7242C17.075 15.3567 17.3533 15.0542 17.7067 14.8167C18.0804 14.5701 18.4953 14.3926 18.9317 14.2925C19.415 14.1785 19.9101 14.1223 20.4067 14.125ZM7.8125 14.2817H15.7817V16.0867H12.9217V24.125H10.6575V16.0867H7.8125V14.2817Z" fill="white"/>
</svg>
