<svg width="100" height="32" viewBox="0 0 100 32" fill="none" xmlns="http://www.w3.org/2000/svg">
<path d="M95 0H31V32H95C97.7614 32 100 29.7614 100 27V5C100 2.23858 97.7614 0 95 0Z" fill="#0F1418"/>
<path d="M52.564 20V19.712L53.584 19.472V11.384L52.564 11.15V10.862H56.152C56.704 10.862 57.162 10.902 57.526 10.982C57.894 11.058 58.2 11.178 58.444 11.342C58.728 11.538 58.95 11.788 59.11 12.092C59.27 12.396 59.35 12.724 59.35 13.076C59.35 13.588 59.178 14.02 58.834 14.372C58.494 14.724 58.004 14.964 57.364 15.092V15.134C57.844 15.186 58.264 15.324 58.624 15.548C58.984 15.768 59.262 16.052 59.458 16.4C59.658 16.748 59.758 17.14 59.758 17.576C59.758 17.94 59.686 18.28 59.542 18.596C59.398 18.912 59.2 19.172 58.948 19.376C58.672 19.6 58.334 19.76 57.934 19.856C57.534 19.952 57.006 20 56.35 20H52.564ZM55.966 19.526C56.75 19.526 57.328 19.36 57.7 19.028C58.076 18.692 58.264 18.174 58.264 17.474C58.264 16.758 58.07 16.232 57.682 15.896C57.294 15.556 56.688 15.386 55.864 15.386H54.934V18.818C54.934 19.094 55.006 19.282 55.15 19.382C55.298 19.478 55.57 19.526 55.966 19.526ZM54.934 14.894H55.594C55.81 14.894 55.99 14.892 56.134 14.888C56.282 14.88 56.418 14.87 56.542 14.858C56.982 14.81 57.32 14.632 57.556 14.324C57.792 14.012 57.91 13.59 57.91 13.058C57.91 12.774 57.874 12.536 57.802 12.344C57.73 12.148 57.616 11.974 57.46 11.822C57.288 11.646 57.08 11.524 56.836 11.456C56.596 11.384 56.266 11.348 55.846 11.348H54.934V14.894ZM62.3829 20.126C61.9549 20.126 61.6069 19.992 61.3389 19.724C61.0749 19.456 60.9429 19.108 60.9429 18.68C60.9429 18.328 61.0509 18.024 61.2669 17.768C61.4829 17.512 61.8309 17.288 62.3109 17.096C62.7949 16.9 63.4329 16.722 64.2249 16.562V15.44C64.2249 14.932 64.1549 14.576 64.0149 14.372C63.8789 14.168 63.6429 14.066 63.3069 14.066C62.9749 14.066 62.7109 14.146 62.5149 14.306C62.3189 14.466 62.2209 14.682 62.2209 14.954C62.2209 15.03 62.2249 15.106 62.2329 15.182C62.2449 15.254 62.2509 15.324 62.2509 15.392C62.2509 15.596 62.1889 15.764 62.0649 15.896C61.9449 16.028 61.7909 16.094 61.6029 16.094C61.4309 16.094 61.2909 16.038 61.1829 15.926C61.0789 15.814 61.0269 15.668 61.0269 15.488C61.0269 15.228 61.1389 14.962 61.3629 14.69C61.5909 14.414 61.8909 14.178 62.2629 13.982C62.7589 13.718 63.2969 13.586 63.8769 13.586C64.2249 13.586 64.5189 13.64 64.7589 13.748C65.0029 13.856 65.1789 14.01 65.2869 14.21C65.3509 14.346 65.3929 14.518 65.4129 14.726C65.4369 14.934 65.4489 15.282 65.4489 15.77V18.452C65.4489 18.84 65.4789 19.104 65.5389 19.244C65.6029 19.384 65.7209 19.454 65.8929 19.454C66.0889 19.454 66.2789 19.342 66.4629 19.118L66.6789 19.322C66.4829 19.606 66.2829 19.812 66.0789 19.94C65.8789 20.064 65.6449 20.126 65.3769 20.126C65.0529 20.126 64.8009 20.038 64.6209 19.862C64.4409 19.686 64.3209 19.418 64.2609 19.058H64.2249C63.9969 19.386 63.7209 19.646 63.3969 19.838C63.0729 20.03 62.7349 20.126 62.3829 20.126ZM62.9829 19.364C63.2309 19.364 63.4629 19.3 63.6789 19.172C63.8949 19.04 64.0769 18.858 64.2249 18.626V16.934C63.6889 17.038 63.2669 17.152 62.9589 17.276C62.6549 17.4 62.4389 17.552 62.3109 17.732C62.1869 17.908 62.1249 18.13 62.1249 18.398C62.1249 18.706 62.1969 18.944 62.3409 19.112C62.4889 19.28 62.7029 19.364 62.9829 19.364ZM69.125 20.126C68.869 20.126 68.585 20.1 68.273 20.048C67.965 20 67.695 19.938 67.463 19.862L67.385 17.936H67.697C67.749 18.528 67.901 18.976 68.153 19.28C68.405 19.58 68.755 19.73 69.203 19.73C69.551 19.73 69.829 19.634 70.037 19.442C70.249 19.246 70.355 18.99 70.355 18.674C70.355 18.41 70.277 18.184 70.121 17.996C69.965 17.804 69.695 17.61 69.311 17.414L68.813 17.168C68.301 16.912 67.935 16.644 67.715 16.364C67.495 16.08 67.385 15.738 67.385 15.338C67.385 14.778 67.579 14.346 67.967 14.042C68.359 13.738 68.917 13.586 69.641 13.586C69.921 13.586 70.191 13.606 70.451 13.646C70.715 13.682 70.921 13.732 71.069 13.796V15.44H70.793C70.677 14.464 70.223 13.976 69.431 13.976C69.123 13.976 68.875 14.06 68.687 14.228C68.503 14.392 68.411 14.616 68.411 14.9C68.411 15.148 68.491 15.36 68.651 15.536C68.815 15.712 69.091 15.894 69.479 16.082L70.025 16.346C70.497 16.578 70.837 16.834 71.045 17.114C71.253 17.394 71.357 17.748 71.357 18.176C71.357 18.772 71.157 19.246 70.757 19.598C70.357 19.95 69.813 20.126 69.125 20.126ZM72.1976 20V19.736L73.1036 19.55V11.216L72.2156 10.892V10.712L74.1836 10.142H74.3216V19.55L75.2036 19.736V20H72.1976ZM76.2056 20V19.736L77.0816 19.562V15.71C77.0816 15.234 76.9856 14.88 76.7936 14.648C76.6016 14.412 76.2916 14.294 75.8636 14.294C75.5596 14.294 75.2696 14.366 74.9936 14.51C74.7176 14.654 74.4576 14.854 74.2136 15.11V14.624C74.5816 14.284 74.9716 14.026 75.3836 13.85C75.7956 13.674 76.1996 13.586 76.5956 13.586C77.7356 13.586 78.3056 14.124 78.3056 15.2V19.562L79.1936 19.736V20H76.2056Z" fill="white"/>
<path d="M31 0H5C2.23858 0 0 2.23858 0 5V27C0 29.7614 2.23858 32 5 32H31V0Z" fill="#4EAA25"/>
<path d="M24.538 8.9L16.961 4.402C16.509 4.134 16.005 4 15.5 4C14.995 4 14.491 4.134 14.038 4.403L6.461 8.9C5.557 9.437 5 10.429 5 11.503V20.498C5 21.571 5.557 22.564 6.462 23.101L14.039 27.598C14.491 27.866 14.995 28 15.5 28C16.005 28 16.509 27.866 16.961 27.598L24.538 23.101C25.442 22.564 26 21.572 26 20.498V11.503C26 10.429 25.443 9.437 24.538 8.9ZM18.67 22.946L18.683 23.592C18.684 23.67 18.633 23.759 18.572 23.79L18.189 24.01C18.128 24.041 18.078 24.003 18.077 23.925L18.07 23.29C17.742 23.426 17.41 23.459 17.198 23.374C17.158 23.358 17.141 23.299 17.157 23.232L17.296 22.648C17.307 22.602 17.332 22.556 17.365 22.527C17.377 22.516 17.389 22.507 17.401 22.501C17.423 22.49 17.444 22.487 17.463 22.495C17.692 22.572 17.984 22.536 18.265 22.394C18.622 22.213 18.861 21.849 18.857 21.487C18.854 21.159 18.676 21.022 18.244 21.019C17.694 21.02 17.18 20.912 17.172 20.102C17.165 19.435 17.512 18.741 18.061 18.302L18.054 17.65C18.053 17.57 18.102 17.482 18.165 17.45L18.535 17.214C18.596 17.183 18.646 17.221 18.647 17.301L18.653 17.954C18.926 17.845 19.164 17.816 19.379 17.866C19.426 17.878 19.446 17.942 19.427 18.017L19.283 18.595C19.272 18.639 19.247 18.683 19.218 18.711C19.206 18.723 19.193 18.732 19.18 18.739C19.161 18.749 19.142 18.752 19.123 18.748C19.025 18.726 18.791 18.675 18.424 18.861C18.039 19.056 17.904 19.391 17.907 19.639C17.91 19.936 18.062 20.026 18.588 20.035C19.288 20.047 19.591 20.353 19.598 21.058C19.605 21.747 19.236 22.491 18.67 22.946ZM22.643 21.859C22.643 21.919 22.635 21.975 22.585 22.004L20.669 23.168C20.619 23.197 20.579 23.172 20.579 23.112V22.618C20.579 22.558 20.616 22.525 20.666 22.496L22.553 21.367C22.603 21.338 22.643 21.363 22.643 21.423V21.859ZM23.959 10.797L16.791 15.224C15.897 15.747 15.238 16.333 15.238 17.411V26.244C15.238 26.889 15.498 27.307 15.898 27.428C15.767 27.451 15.634 27.467 15.5 27.467C15.08 27.467 14.667 27.353 14.303 27.137L6.726 22.64C5.985 22.2 5.525 21.379 5.525 20.498V11.503C5.525 10.622 5.985 9.801 6.726 9.361L14.303 4.863C14.666 4.647 15.08 4.533 15.5 4.533C15.919 4.533 16.333 4.647 16.697 4.863L24.274 9.361C24.898 9.732 25.32 10.374 25.438 11.093C25.186 10.557 24.62 10.411 23.959 10.797Z" fill="white"/>
</svg>
