<svg width="112" height="32" viewBox="0 0 112 32" fill="none" xmlns="http://www.w3.org/2000/svg">
<path d="M106.13 0H31V32H106.13C109.372 32 112 29.7614 112 27V5C112 2.23858 109.372 0 106.13 0Z" fill="#0F1418"/>
<path d="M39.564 21V20.712L40.584 20.472V12.384L39.564 12.15V11.862H43.302C43.934 11.862 44.492 11.968 44.976 12.18C45.46 12.388 45.838 12.694 46.11 13.098C46.382 13.498 46.518 13.99 46.518 14.574C46.518 15.39 46.214 16.014 45.606 16.446C44.998 16.878 44.168 17.094 43.116 17.094H41.934V20.472L43.302 20.712V21H39.564ZM41.934 16.614H42.72C43.2 16.614 43.582 16.56 43.866 16.452C44.154 16.34 44.384 16.186 44.556 15.99C44.736 15.786 44.86 15.554 44.928 15.294C45 15.03 45.036 14.752 45.036 14.46C45.036 13.968 44.948 13.558 44.772 13.23C44.596 12.902 44.348 12.668 44.028 12.528C43.784 12.408 43.416 12.348 42.924 12.348H41.934V16.614ZM50.2952 21.126C49.6792 21.126 49.1332 20.984 48.6572 20.7C48.1812 20.412 47.8072 20.022 47.5352 19.53C47.2672 19.034 47.1332 18.476 47.1332 17.856C47.1332 17.232 47.2672 16.674 47.5352 16.182C47.8072 15.69 48.1812 15.302 48.6572 15.018C49.1332 14.73 49.6792 14.586 50.2952 14.586C50.9112 14.586 51.4552 14.73 51.9272 15.018C52.4032 15.302 52.7772 15.69 53.0492 16.182C53.3212 16.674 53.4572 17.232 53.4572 17.856C53.4572 18.476 53.3212 19.034 53.0492 19.53C52.7772 20.022 52.4032 20.412 51.9272 20.7C51.4552 20.984 50.9112 21.126 50.2952 21.126ZM50.2832 20.574C50.5752 20.574 50.8332 20.51 51.0572 20.382C51.2812 20.25 51.4692 20.064 51.6212 19.824C51.7772 19.58 51.8952 19.292 51.9752 18.96C52.0552 18.624 52.0952 18.252 52.0952 17.844C52.0952 17.44 52.0552 17.072 51.9752 16.74C51.8992 16.408 51.7852 16.122 51.6332 15.882C51.4812 15.642 51.2932 15.458 51.0692 15.33C50.8452 15.198 50.5872 15.132 50.2952 15.132C50.0032 15.132 49.7452 15.198 49.5212 15.33C49.2972 15.458 49.1092 15.642 48.9572 15.882C48.8052 16.122 48.6892 16.41 48.6092 16.746C48.5332 17.078 48.4952 17.448 48.4952 17.856C48.4952 18.264 48.5332 18.634 48.6092 18.966C48.6892 19.298 48.8052 19.584 48.9572 19.824C49.1092 20.064 49.2952 20.25 49.5152 20.382C49.7392 20.51 49.9952 20.574 50.2832 20.574ZM60.045 21.126L58.173 15.48C58.121 15.292 58.037 15.166 57.921 15.102C57.809 15.034 57.639 14.99 57.411 14.97V14.706H60.291V14.97C59.879 14.998 59.629 15.048 59.541 15.12C59.453 15.192 59.447 15.354 59.523 15.606L60.693 19.452H60.741L61.989 15.864C62.025 15.772 62.051 15.688 62.067 15.612C62.087 15.536 62.097 15.468 62.097 15.408C62.097 15.284 62.037 15.192 61.917 15.132C61.797 15.068 61.575 15.014 61.251 14.97V14.706H63.717V14.97C63.417 15.018 63.191 15.076 63.039 15.144C62.887 15.212 62.773 15.304 62.697 15.42C62.625 15.532 62.553 15.686 62.481 15.882L60.633 21.126H60.045ZM56.391 21.126L54.411 15.48C54.347 15.292 54.261 15.166 54.153 15.102C54.045 15.034 53.841 14.99 53.541 14.97V14.706H56.631V14.97C56.355 14.986 56.153 15.012 56.025 15.048C55.901 15.08 55.831 15.138 55.815 15.222C55.803 15.306 55.821 15.434 55.869 15.606L57.039 19.452H57.081L58.407 15.774L58.899 15.798L56.961 21.126H56.391ZM66.6961 21.126C66.1161 21.126 65.6061 20.994 65.1661 20.73C64.7301 20.462 64.3901 20.09 64.1461 19.614C63.9061 19.134 63.7861 18.58 63.7861 17.952C63.7861 17.284 63.9201 16.698 64.1881 16.194C64.4601 15.69 64.8381 15.296 65.3221 15.012C65.8101 14.728 66.3741 14.586 67.0141 14.586C67.8061 14.586 68.4121 14.816 68.8321 15.276C69.2561 15.736 69.4761 16.41 69.4921 17.298L69.4081 17.37H64.7581V17.022L68.1181 16.902C68.1461 16.798 68.1601 16.64 68.1601 16.428C68.1601 15.468 67.7381 14.988 66.8941 14.988C66.3141 14.988 65.8661 15.216 65.5501 15.672C65.2381 16.124 65.0821 16.766 65.0821 17.598C65.0821 19.338 65.7581 20.208 67.1101 20.208C67.9901 20.208 68.6641 19.888 69.1321 19.248L69.3541 19.386C69.1461 19.938 68.8081 20.366 68.3401 20.67C67.8761 20.974 67.3281 21.126 66.6961 21.126ZM70.3329 21V20.736L71.2329 20.55V15.66L70.3569 15.33V15.156L72.2769 14.58H72.4089V15.876L72.4569 15.936V20.55L73.6929 20.736V21H70.3329ZM72.3669 16.428L72.3429 15.936C72.6389 15.5 72.9329 15.164 73.2249 14.928C73.5209 14.692 73.7969 14.574 74.0529 14.574C74.2729 14.574 74.4589 14.65 74.6109 14.802C74.7629 14.95 74.8389 15.13 74.8389 15.342C74.8389 15.538 74.7729 15.704 74.6409 15.84C74.5089 15.972 74.3449 16.038 74.1489 16.038C73.9489 16.038 73.7929 15.964 73.6809 15.816C73.6009 15.724 73.5329 15.662 73.4769 15.63C73.4209 15.594 73.3569 15.576 73.2849 15.576C73.1689 15.576 73.0229 15.654 72.8469 15.81C72.6749 15.962 72.5149 16.168 72.3669 16.428ZM78.5651 21.108C78.2371 21.108 77.9171 21.06 77.6051 20.964C77.2971 20.868 76.9711 20.718 76.6271 20.514L76.1531 21H75.9071L75.6851 17.958L76.0091 17.892C76.2491 18.832 76.5651 19.514 76.9571 19.938C77.3531 20.362 77.8751 20.574 78.5231 20.574C79.0671 20.574 79.4971 20.444 79.8131 20.184C80.1291 19.92 80.2871 19.564 80.2871 19.116C80.2871 18.764 80.1771 18.45 79.9571 18.174C79.7411 17.894 79.3851 17.614 78.8891 17.334L77.9711 16.848C77.2231 16.444 76.6871 16.042 76.3631 15.642C76.0391 15.242 75.8771 14.776 75.8771 14.244C75.8771 13.764 75.9951 13.336 76.2311 12.96C76.4671 12.58 76.7891 12.282 77.1971 12.066C77.6091 11.846 78.0711 11.736 78.5831 11.736C79.2831 11.736 79.8931 11.982 80.4131 12.474L80.7791 11.85H81.0371L81.1451 14.472H80.8031C80.6151 13.724 80.3431 13.172 79.9871 12.816C79.6351 12.456 79.1851 12.276 78.6371 12.276C78.1931 12.276 77.8411 12.394 77.5811 12.63C77.3251 12.866 77.1971 13.19 77.1971 13.602C77.1971 13.974 77.3191 14.306 77.5631 14.598C77.8111 14.89 78.2271 15.19 78.8111 15.498L79.7051 15.978C80.3171 16.302 80.7591 16.662 81.0311 17.058C81.3071 17.454 81.4451 17.908 81.4451 18.42C81.4451 18.928 81.3171 19.386 81.0611 19.794C80.8091 20.198 80.4651 20.518 80.0291 20.754C79.5971 20.99 79.1091 21.108 78.5651 21.108ZM82.4007 21V20.736L83.3067 20.55V12.216L82.4187 11.892V11.712L84.3867 11.142H84.5247V20.55L85.4067 20.736V21H82.4007ZM86.4087 21V20.736L87.2847 20.562V16.71C87.2847 16.234 87.1887 15.88 86.9967 15.648C86.8047 15.412 86.4947 15.294 86.0667 15.294C85.7627 15.294 85.4727 15.366 85.1967 15.51C84.9207 15.654 84.6607 15.854 84.4167 16.11V15.624C84.7847 15.284 85.1747 15.026 85.5867 14.85C85.9987 14.674 86.4027 14.586 86.7987 14.586C87.9387 14.586 88.5087 15.124 88.5087 16.2V20.562L89.3967 20.736V21H86.4087ZM93.0984 21.126C92.5184 21.126 92.0084 20.994 91.5684 20.73C91.1324 20.462 90.7924 20.09 90.5484 19.614C90.3084 19.134 90.1884 18.58 90.1884 17.952C90.1884 17.284 90.3224 16.698 90.5904 16.194C90.8624 15.69 91.2404 15.296 91.7244 15.012C92.2124 14.728 92.7764 14.586 93.4164 14.586C94.2084 14.586 94.8144 14.816 95.2344 15.276C95.6584 15.736 95.8784 16.41 95.8944 17.298L95.8104 17.37H91.1604V17.022L94.5204 16.902C94.5484 16.798 94.5624 16.64 94.5624 16.428C94.5624 15.468 94.1404 14.988 93.2964 14.988C92.7164 14.988 92.2684 15.216 91.9524 15.672C91.6404 16.124 91.4844 16.766 91.4844 17.598C91.4844 19.338 92.1604 20.208 93.5124 20.208C94.3924 20.208 95.0664 19.888 95.5344 19.248L95.7564 19.386C95.5484 19.938 95.2104 20.366 94.7424 20.67C94.2784 20.974 93.7304 21.126 93.0984 21.126ZM96.6273 21V20.736L97.5393 20.55V12.21L96.6393 11.892V11.706L98.6373 11.142H98.7633V20.55L99.6633 20.736V21H96.6273ZM100.19 21V20.736L101.102 20.55V12.21L100.202 11.892V11.706L102.2 11.142H102.326V20.55L103.226 20.736V21H100.19Z" fill="white"/>
<path d="M31 0H5C2.23858 0 0 2.23858 0 5V27C0 29.7614 2.23858 32 5 32H31V0Z" fill="#5391FE"/>
<path fill-rule="evenodd" clip-rule="evenodd" d="M4.00878 25.1491C3.85731 25.1537 3.70682 25.1234 3.56894 25.0605C3.43105 24.9977 3.30945 24.904 3.21353 24.7867C3.11762 24.6596 3.05162 24.5126 3.02046 24.3565C2.9893 24.2004 2.99378 24.0393 3.03357 23.8852L6.63019 8.17439C6.71006 7.84873 6.89389 7.55796 7.15382 7.34613C7.41375 7.13429 7.73564 7.01293 8.07073 7.00041H25.9913C26.1427 6.99606 26.2932 7.02647 26.431 7.0893C26.5689 7.15214 26.6905 7.24573 26.7865 7.36289C26.8824 7.48995 26.9484 7.63699 26.9795 7.79307C27.0107 7.94915 27.0062 8.11025 26.9665 8.26437L23.3673 23.976C23.2874 24.3017 23.1036 24.5924 22.8437 24.8043C22.5838 25.0161 22.2619 25.1375 21.9268 25.15L4.00878 25.1491Z" fill="white"/>
<path fill-rule="evenodd" clip-rule="evenodd" d="M15.0343 20.826H19.3928C19.6396 20.8364 19.8729 20.9418 20.0439 21.1202C20.2149 21.2986 20.3103 21.5361 20.3103 21.7832C20.3103 22.0302 20.2149 22.2678 20.0439 22.4461C19.8729 22.6245 19.6396 22.7299 19.3928 22.7403H15.0343C14.7875 22.7299 14.5542 22.6245 14.3832 22.4461C14.2122 22.2678 14.1168 22.0302 14.1168 21.7832C14.1168 21.5361 14.2122 21.2986 14.3832 21.1202C14.5542 20.9418 14.7875 20.8364 15.0343 20.826Z" fill="white"/>
<path fill-rule="evenodd" clip-rule="evenodd" d="M17.8614 16.5705C17.7366 16.7803 17.5628 16.9567 17.3549 17.0847L9.26618 22.8903C9.04092 23.0368 8.76803 23.0913 8.50379 23.0424C8.23955 22.9936 8.00412 22.8453 7.84606 22.628C7.688 22.4107 7.61937 22.141 7.65431 21.8746C7.68926 21.6082 7.82513 21.3653 8.03388 21.1962L15.3283 15.9141V15.8061L10.7453 10.9337C10.5744 10.7281 10.4885 10.4651 10.505 10.1984C10.5215 9.93159 10.6393 9.68119 10.8342 9.49831C11.0291 9.31543 11.2865 9.21386 11.5538 9.21434C11.8211 9.21482 12.0781 9.31732 12.2724 9.5009L17.7723 15.3511C17.9201 15.5158 18.009 15.7249 18.0251 15.9456C18.0413 16.1663 17.9837 16.3861 17.8614 16.5705Z" fill="white"/>
<path fill-rule="evenodd" clip-rule="evenodd" d="M17.6566 16.3683C17.5324 16.5782 17.3589 16.7547 17.151 16.8824L9.0648 22.6889C8.83948 22.8324 8.56795 22.8845 8.30552 22.8348C8.04309 22.785 7.80949 22.6371 7.6523 22.4212C7.49511 22.2052 7.42616 21.9375 7.45948 21.6725C7.4928 21.4075 7.62589 21.1651 7.83164 20.9948L15.1269 15.7127V15.6039L10.5439 10.7289C10.3714 10.5235 10.2842 10.2598 10.3002 9.99203C10.3161 9.72428 10.4341 9.47283 10.6297 9.28936C10.8254 9.10589 11.0839 9.00434 11.3521 9.0056C11.6204 9.00685 11.8779 9.11081 12.0718 9.2961L17.5709 15.1463C17.7193 15.3113 17.8084 15.5212 17.8239 15.7426C17.8394 15.9639 17.7805 16.1842 17.6566 16.3683Z" fill="#5391FE"/>
<path fill-rule="evenodd" clip-rule="evenodd" d="M14.9143 20.7129H19.2728C19.5135 20.7129 19.7443 20.8085 19.9145 20.9787C20.0847 21.1488 20.1803 21.3797 20.1803 21.6203C20.1803 21.861 20.0847 22.0918 19.9145 22.262C19.7443 22.4322 19.5135 22.5278 19.2728 22.5278H14.9143C14.6737 22.5278 14.4428 22.4322 14.2726 22.262C14.1024 22.0918 14.0068 21.861 14.0068 21.6203C14.0068 21.3797 14.1024 21.1488 14.2726 20.9787C14.4428 20.8085 14.6737 20.7129 14.9143 20.7129Z" fill="#5391FE"/>
</svg>
