<svg width="100" height="32" viewBox="0 0 100 32" fill="none" xmlns="http://www.w3.org/2000/svg">
<path d="M95 0H31V32H95C97.7614 32 100 29.7614 100 27V5C100 2.23858 97.7614 0 95 0Z" fill="#0F1418"/>
<path d="M55.366 20V19.652L60.742 11.354H57.034C56.774 11.826 56.562 12.234 56.398 12.578C56.238 12.922 56.118 13.22 56.038 13.472L55.696 13.46L56.218 10.862H62.482V11.192L57.088 19.502H60.982C61.166 19.226 61.328 18.966 61.468 18.722C61.612 18.478 61.748 18.222 61.876 17.954C62.004 17.686 62.14 17.382 62.284 17.042L62.608 17.078L61.978 20H55.366ZM65.5274 20.126C65.2714 20.126 64.9874 20.1 64.6754 20.048C64.3674 20 64.0974 19.938 63.8654 19.862L63.7874 17.936H64.0994C64.1514 18.528 64.3034 18.976 64.5554 19.28C64.8074 19.58 65.1574 19.73 65.6054 19.73C65.9534 19.73 66.2314 19.634 66.4394 19.442C66.6514 19.246 66.7574 18.99 66.7574 18.674C66.7574 18.41 66.6794 18.184 66.5234 17.996C66.3674 17.804 66.0974 17.61 65.7134 17.414L65.2154 17.168C64.7034 16.912 64.3374 16.644 64.1174 16.364C63.8974 16.08 63.7874 15.738 63.7874 15.338C63.7874 14.778 63.9814 14.346 64.3694 14.042C64.7614 13.738 65.3194 13.586 66.0434 13.586C66.3234 13.586 66.5934 13.606 66.8534 13.646C67.1174 13.682 67.3234 13.732 67.4714 13.796V15.44H67.1954C67.0794 14.464 66.6254 13.976 65.8334 13.976C65.5254 13.976 65.2774 14.06 65.0894 14.228C64.9054 14.392 64.8134 14.616 64.8134 14.9C64.8134 15.148 64.8934 15.36 65.0534 15.536C65.2174 15.712 65.4934 15.894 65.8814 16.082L66.4274 16.346C66.8994 16.578 67.2394 16.834 67.4474 17.114C67.6554 17.394 67.7594 17.748 67.7594 18.176C67.7594 18.772 67.5594 19.246 67.1594 19.598C66.7594 19.95 66.2154 20.126 65.5274 20.126ZM68.5999 20V19.736L69.5059 19.55V11.216L68.6179 10.892V10.712L70.5859 10.142H70.7239V19.55L71.6059 19.736V20H68.5999ZM72.6079 20V19.736L73.4839 19.562V15.71C73.4839 15.234 73.3879 14.88 73.1959 14.648C73.0039 14.412 72.6939 14.294 72.2659 14.294C71.9619 14.294 71.6719 14.366 71.3959 14.51C71.1199 14.654 70.8599 14.854 70.6159 15.11V14.624C70.9839 14.284 71.3739 14.026 71.7859 13.85C72.1979 13.674 72.6019 13.586 72.9979 13.586C74.1379 13.586 74.7079 14.124 74.7079 15.2V19.562L75.5959 19.736V20H72.6079Z" fill="white"/>
<path d="M31 0H5C2.23858 0 0 2.23858 0 5V27C0 29.7614 2.23858 32 5 32H31V0Z" fill="#F15A24"/>
<path d="M6.612 5.004C5.65477 5.00638 4.73742 5.38769 4.06056 6.06456C3.38369 6.74142 3.00238 7.65877 3 8.616L3 23.944C3.00396 24.9014 3.38632 25.8185 4.06371 26.4951C4.7411 27.1718 5.65856 27.5531 6.616 27.556H14.858C14.9362 27.559 15.014 27.5447 15.086 27.514C15.2165 27.4608 15.3244 27.3638 15.3912 27.2397C15.458 27.1155 15.4795 26.9721 15.452 26.8338C15.4246 26.6956 15.3499 26.5712 15.2408 26.482C15.1317 26.3928 14.9949 26.3444 14.854 26.345H6.612C6.29716 26.345 5.98541 26.2829 5.69462 26.1622C5.40383 26.0415 5.13972 25.8646 4.91741 25.6416C4.69511 25.4187 4.51899 25.1541 4.39914 24.8629C4.2793 24.5718 4.21808 24.2598 4.219 23.945V10.398H25.785V23.237C25.7738 23.2593 25.7567 23.278 25.7355 23.2911C25.7143 23.3041 25.6899 23.311 25.665 23.311H24.922C24.8881 23.3068 24.8566 23.2917 24.832 23.268C24.8194 23.2556 24.8094 23.2408 24.8025 23.2245C24.7956 23.2082 24.7921 23.1907 24.792 23.173V20.943C24.788 20.942 24.788 20.94 24.788 20.937V20.93C24.7927 20.8482 24.7807 20.7662 24.7526 20.6892C24.7245 20.6122 24.681 20.5417 24.6248 20.4821C24.5685 20.4225 24.5006 20.375 24.4254 20.3425C24.3501 20.3101 24.269 20.2933 24.187 20.2933C24.105 20.2933 24.0239 20.3101 23.9486 20.3425C23.8734 20.375 23.8055 20.4225 23.7492 20.4821C23.693 20.5417 23.6495 20.6122 23.6214 20.6892C23.5933 20.7662 23.5813 20.8482 23.586 20.93V26.962L23.59 26.963V26.965C23.59 27.1244 23.6533 27.2773 23.766 27.39C23.8787 27.5027 24.0316 27.566 24.191 27.566C24.3504 27.566 24.5033 27.5027 24.616 27.39C24.7287 27.2773 24.792 27.1244 24.792 26.965V26.967V24.582C24.7904 24.5645 24.7928 24.5468 24.799 24.5303C24.8053 24.5139 24.8152 24.4991 24.828 24.487C24.8528 24.4618 24.8866 24.4474 24.922 24.447H25.666C25.6842 24.4451 25.7025 24.4473 25.7197 24.4536C25.7368 24.4598 25.7523 24.4699 25.765 24.483C25.775 24.493 25.783 24.505 25.789 24.518V26.952C25.7875 26.9597 25.7882 26.9677 25.791 26.975C25.7922 27.1141 25.8417 27.2484 25.931 27.355C25.9875 27.4219 26.058 27.4756 26.1374 27.5124C26.2169 27.5492 26.3034 27.5681 26.391 27.568H26.401C26.5184 27.5678 26.6331 27.5327 26.7305 27.4672C26.8279 27.4017 26.9036 27.3087 26.948 27.2L26.952 27.189C26.9618 27.165 26.9695 27.1403 26.975 27.115C26.9906 27.0624 26.999 27.0079 27 26.953V8.611C26.9989 7.65415 26.6186 6.73674 25.9423 6.05986C25.2659 5.38299 24.3489 5.00185 23.392 5H6.616L6.612 5.004ZM6.612 6.219H23.388C23.7033 6.21662 24.0159 6.27683 24.3078 6.39614C24.5996 6.51546 24.8649 6.69151 25.0882 6.91409C25.3116 7.13667 25.4885 7.40136 25.6088 7.69281C25.7291 7.98427 25.7903 8.2967 25.789 8.612V9.185H4.215V8.615C4.21394 8.29997 4.27523 7.98785 4.39533 7.69661C4.51542 7.40537 4.69196 7.14077 4.91477 6.91806C5.13757 6.69535 5.40225 6.51892 5.69353 6.39894C5.98482 6.27897 6.29697 6.21781 6.612 6.219ZM9.36 11.565C9.33201 11.5675 9.30479 11.5755 9.27991 11.5885C9.25502 11.6016 9.23296 11.6194 9.215 11.641L5.251 16.361C5.21453 16.4044 5.19678 16.4604 5.20166 16.5169C5.20654 16.5733 5.23364 16.6255 5.277 16.662C5.32036 16.6985 5.37644 16.7162 5.43288 16.7113C5.48933 16.7065 5.54153 16.6794 5.578 16.636L9.542 11.916C9.56941 11.8837 9.58658 11.844 9.59133 11.802C9.59608 11.7599 9.58818 11.7174 9.56865 11.6798C9.54912 11.6423 9.51884 11.6114 9.48168 11.5911C9.44451 11.5708 9.40215 11.5611 9.36 11.565ZM6.42 11.685C5.788 11.685 5.269 12.205 5.269 12.836C5.269 13.468 5.789 13.988 6.42 13.988C7.052 13.988 7.572 13.468 7.572 12.836C7.572 12.204 7.052 11.685 6.42 11.685ZM6.42 12.352C6.48379 12.3513 6.54708 12.3634 6.60616 12.3875C6.66523 12.4115 6.71892 12.4471 6.76408 12.4922C6.80923 12.5373 6.84495 12.5909 6.86915 12.6499C6.89335 12.7089 6.90553 12.7722 6.905 12.836C6.90567 12.8999 6.89358 12.9632 6.86944 13.0224C6.84531 13.0815 6.80961 13.1353 6.76444 13.1804C6.71927 13.2256 6.66553 13.2613 6.60639 13.2854C6.54725 13.3096 6.48388 13.3217 6.42 13.321C6.35621 13.3215 6.29295 13.3093 6.23392 13.2852C6.17489 13.261 6.12128 13.2252 6.07621 13.1801C6.03115 13.1349 5.99554 13.0812 5.97146 13.0222C5.94739 12.9631 5.93533 12.8998 5.936 12.836C5.93547 12.7723 5.94762 12.7091 5.97176 12.6502C5.99589 12.5912 6.03152 12.5376 6.07657 12.4926C6.12162 12.4475 6.17519 12.4119 6.23415 12.3878C6.29311 12.3636 6.35629 12.3515 6.42 12.352ZM8.36 14.291C7.728 14.291 7.208 14.811 7.208 15.443C7.208 16.075 7.728 16.593 8.36 16.593C8.992 16.593 9.511 16.075 9.511 15.443C9.511 14.81 8.991 14.291 8.36 14.291ZM8.36 14.958C8.42388 14.9573 8.48725 14.9694 8.54639 14.9936C8.60554 15.0177 8.65927 15.0534 8.70444 15.0986C8.74961 15.1437 8.78531 15.1975 8.80944 15.2566C8.83358 15.3158 8.84567 15.3791 8.845 15.443C8.84553 15.5068 8.83335 15.5701 8.80915 15.6291C8.78496 15.6881 8.74923 15.7417 8.70408 15.7868C8.65892 15.8319 8.60523 15.8675 8.54616 15.8915C8.48708 15.9156 8.42379 15.9277 8.36 15.927C8.29621 15.9277 8.23292 15.9156 8.17384 15.8915C8.11477 15.8675 8.06108 15.8319 8.01592 15.7868C7.97077 15.7417 7.93504 15.6881 7.91085 15.6291C7.88665 15.5701 7.87446 15.5068 7.875 15.443C7.87433 15.3791 7.88642 15.3158 7.91056 15.2566C7.93469 15.1975 7.97039 15.1437 8.01556 15.0986C8.06073 15.0534 8.11447 15.0177 8.17361 14.9936C8.23276 14.9694 8.29612 14.9573 8.36 14.958ZM11.018 16.168C10.9693 16.1691 10.9224 16.1868 10.8851 16.2181C10.8478 16.2495 10.8223 16.2927 10.8128 16.3405C10.8034 16.3883 10.8106 16.4379 10.8331 16.4811C10.8557 16.5243 10.8924 16.5585 10.937 16.578C10.963 16.588 10.99 16.594 11.018 16.594H13.849C13.8784 16.5913 13.9074 16.5845 13.935 16.574C13.9739 16.5575 14.007 16.5299 14.0303 16.4947C14.0536 16.4595 14.066 16.4182 14.066 16.376C14.066 16.3195 14.0436 16.2653 14.0036 16.2254C13.9637 16.1854 13.9095 16.163 13.853 16.163H11.023L11.018 16.168ZM16.788 20.327C16.6262 20.327 16.4711 20.3913 16.3567 20.5057C16.2423 20.6201 16.178 20.7752 16.178 20.937C16.178 21.0988 16.2423 21.2539 16.3567 21.3683C16.4711 21.4827 16.6262 21.547 16.788 21.547L16.816 21.545H17.939C17.9457 21.5431 17.9526 21.5426 17.9595 21.5435C17.9664 21.5443 17.973 21.5465 17.979 21.55C17.9898 21.5558 17.9991 21.5641 18.006 21.5742C18.013 21.5842 18.0174 21.5958 18.019 21.608C18.0201 21.6206 18.0181 21.6334 18.013 21.645L16.23 26.098C16.1983 26.1772 16.182 26.2617 16.182 26.347V26.897C16.1803 26.9849 16.1964 27.0722 16.2294 27.1537C16.2624 27.2351 16.3116 27.3091 16.374 27.371C16.4363 27.4332 16.5102 27.4825 16.5915 27.5162C16.6728 27.5498 16.76 27.5671 16.848 27.567H18.938C19.0213 27.5642 19.1036 27.547 19.181 27.516C19.2955 27.4689 19.3933 27.3888 19.4621 27.2858C19.5308 27.1829 19.5674 27.0618 19.567 26.938C19.567 26.7721 19.5012 26.6131 19.384 26.4957C19.2668 26.3783 19.1079 26.3123 18.942 26.312L18.928 26.313H17.522C17.5156 26.3147 17.509 26.3151 17.5025 26.3143C17.496 26.3134 17.4897 26.3113 17.484 26.308C17.4737 26.3024 17.4648 26.2943 17.4582 26.2846C17.4516 26.2749 17.4474 26.2637 17.446 26.252C17.4449 26.2404 17.4466 26.2288 17.451 26.218L19.507 21.091C19.5409 21.0067 19.5536 20.9153 19.5439 20.825C19.5342 20.7346 19.5025 20.648 19.4516 20.5728C19.4006 20.4976 19.332 20.436 19.2517 20.3935C19.1714 20.351 19.0819 20.3288 18.991 20.329H16.824C16.8136 20.3244 16.8023 20.3223 16.791 20.323L16.788 20.327ZM21.703 20.357C21.417 20.357 21.09 20.384 20.893 20.439C20.7151 20.4811 20.5533 20.5738 20.427 20.706C20.302 20.8576 20.2171 21.0381 20.18 21.231C20.13 21.446 20.104 21.719 20.104 22.051C20.104 22.369 20.107 22.627 20.114 22.823C20.122 22.983 20.14 23.143 20.17 23.302C20.1941 23.4064 20.236 23.5059 20.294 23.596C20.349 23.674 20.413 23.746 20.484 23.808C20.584 23.895 20.692 23.973 20.808 24.038C20.935 24.112 21.065 24.182 21.198 24.25C21.331 24.317 21.458 24.388 21.578 24.461C21.692 24.525 21.798 24.603 21.893 24.691C21.93 24.732 21.965 24.775 21.997 24.821C22.02 24.8479 22.038 24.8787 22.05 24.912C22.079 24.9886 22.0932 25.0701 22.092 25.152C22.099 25.225 22.102 25.327 22.102 25.455C22.1046 25.6305 22.0949 25.8059 22.073 25.98C22.0669 26.0791 22.0411 26.176 21.997 26.265C21.9636 26.323 21.9092 26.366 21.845 26.385C21.72 26.4046 21.5936 26.414 21.467 26.413C21.3901 26.4143 21.3133 26.4049 21.239 26.385C21.179 26.358 21.129 26.3129 21.096 26.256C21.0584 26.1678 21.0329 26.075 21.02 25.98C21.0054 25.8271 20.9987 25.6736 21 25.52C21 25.504 21 25.486 20.998 25.47H20.994C20.9723 25.3494 20.9103 25.2397 20.818 25.159C20.7479 25.0991 20.6631 25.059 20.5724 25.0429C20.4817 25.0268 20.3883 25.0353 20.3019 25.0674C20.2155 25.0996 20.1393 25.1542 20.0811 25.2257C20.0229 25.2972 19.9849 25.3829 19.971 25.474H19.968C19.97 25.488 19.97 25.507 19.97 25.526V25.549L19.973 25.833C19.973 26.195 19.999 26.489 20.049 26.716C20.106 26.937 20.195 27.112 20.316 27.241C20.4412 27.3661 20.5999 27.4522 20.773 27.489C20.993 27.543 21.221 27.567 21.448 27.563C21.753 27.563 22.146 27.536 22.349 27.48C22.5411 27.4322 22.712 27.3221 22.835 27.167C22.962 27.014 23.05 26.802 23.101 26.532C23.158 26.256 23.187 25.904 23.187 25.474C23.187 25.161 23.177 24.909 23.158 24.719C23.1526 24.559 23.124 24.4007 23.073 24.249C23.0359 24.1385 22.974 24.0379 22.892 23.955C22.809 23.8711 22.7163 23.7972 22.616 23.735C22.5239 23.677 22.4284 23.6246 22.33 23.578C22.2186 23.5147 22.1045 23.4563 21.988 23.403C21.8722 23.3444 21.7579 23.283 21.645 23.219C21.5493 23.1601 21.4572 23.0957 21.369 23.026C21.328 22.9926 21.2898 22.9558 21.255 22.916C21.2273 22.8737 21.208 22.8265 21.198 22.777C21.1832 22.7075 21.1735 22.6369 21.169 22.566V22.22C21.1639 22.0878 21.1689 21.9554 21.184 21.824C21.1915 21.7438 21.2142 21.6657 21.251 21.594C21.2835 21.5428 21.3349 21.5065 21.394 21.493C21.451 21.474 21.61 21.465 21.699 21.465C21.902 21.465 22.029 21.523 22.079 21.64C22.119 21.714 22.142 21.795 22.145 21.88C22.148 21.946 22.149 22.033 22.149 22.125H22.152C22.156 22.122 22.156 22.123 22.156 22.125C22.156 22.1926 22.1694 22.2595 22.1954 22.3219C22.2213 22.3842 22.2594 22.4409 22.3074 22.4885C22.3553 22.5361 22.4123 22.5737 22.4748 22.5992C22.5374 22.6247 22.6044 22.6375 22.672 22.637C22.808 22.6367 22.9384 22.5828 23.0348 22.4869C23.1313 22.3911 23.1859 22.261 23.187 22.125V22.121C23.183 22.022 23.183 21.931 23.183 21.879C23.1873 21.6409 23.1648 21.4031 23.116 21.17C23.0882 20.9945 23.0088 20.8313 22.888 20.701C22.7659 20.57 22.6063 20.4798 22.431 20.443C22.1916 20.3822 21.9449 20.3546 21.698 20.361L21.703 20.357Z" fill="white"/>
</svg>
