<svg width="100" height="32" viewBox="0 0 100 32" fill="none" xmlns="http://www.w3.org/2000/svg">
<path d="M95 0H31V32H95C97.7614 32 100 29.7614 100 27V5C100 2.23858 97.7614 0 95 0Z" fill="#0F1418"/>
<path d="M47.998 20.126C47.138 20.126 46.38 19.93 45.724 19.538C45.072 19.146 44.562 18.602 44.194 17.906C43.83 17.206 43.648 16.4 43.648 15.488C43.648 14.792 43.754 14.154 43.966 13.574C44.182 12.994 44.486 12.492 44.878 12.068C45.27 11.644 45.734 11.316 46.27 11.084C46.806 10.852 47.394 10.736 48.034 10.736C48.506 10.736 48.964 10.8 49.408 10.928C49.856 11.052 50.26 11.232 50.62 11.468H50.668L51.244 10.862H51.478V13.616H51.088C51.02 13.396 50.944 13.198 50.86 13.022C50.78 12.846 50.694 12.684 50.602 12.536C50.322 12.088 49.992 11.768 49.612 11.576C49.232 11.384 48.78 11.288 48.256 11.288C47.288 11.288 46.542 11.642 46.018 12.35C45.498 13.058 45.238 14.074 45.238 15.398C45.238 16.722 45.5 17.746 46.024 18.47C46.552 19.194 47.296 19.556 48.256 19.556C48.732 19.556 49.162 19.462 49.546 19.274C49.93 19.082 50.25 18.802 50.506 18.434C50.654 18.226 50.78 17.99 50.884 17.726C50.992 17.462 51.074 17.174 51.13 16.862H51.478V20H51.172L50.632 19.22C50.208 19.536 49.784 19.766 49.36 19.91C48.94 20.054 48.486 20.126 47.998 20.126ZM55.6961 20.126C55.1161 20.126 54.6061 19.994 54.1661 19.73C53.7301 19.462 53.3901 19.09 53.1461 18.614C52.9061 18.134 52.7861 17.58 52.7861 16.952C52.7861 16.284 52.9201 15.698 53.1881 15.194C53.4601 14.69 53.8381 14.296 54.3221 14.012C54.8101 13.728 55.3741 13.586 56.0141 13.586C56.8061 13.586 57.4121 13.816 57.8321 14.276C58.2561 14.736 58.4761 15.41 58.4921 16.298L58.4081 16.37H53.7581V16.022L57.1181 15.902C57.1461 15.798 57.1601 15.64 57.1601 15.428C57.1601 14.468 56.7381 13.988 55.8941 13.988C55.3141 13.988 54.8661 14.216 54.5501 14.672C54.2381 15.124 54.0821 15.766 54.0821 16.598C54.0821 18.338 54.7581 19.208 56.1101 19.208C56.9901 19.208 57.6641 18.888 58.1321 18.248L58.3541 18.386C58.1461 18.938 57.8081 19.366 57.3401 19.67C56.8761 19.974 56.3281 20.126 55.6961 20.126ZM63.2329 20V19.736L64.1089 19.562V15.71C64.1089 15.234 64.0129 14.88 63.8209 14.648C63.6289 14.412 63.3189 14.294 62.8909 14.294C62.2629 14.294 61.7409 14.58 61.3249 15.152V14.654C61.6609 14.318 62.0289 14.056 62.4289 13.868C62.8289 13.68 63.2269 13.586 63.6229 13.586C64.7629 13.586 65.3329 14.124 65.3329 15.2V19.562L66.2209 19.736V20H63.2329ZM59.3269 20V19.736L60.2269 19.55V14.672L59.3389 14.342V14.168L61.2589 13.586H61.3909V14.648L61.4509 14.708V19.55L62.3329 19.736V20H59.3269ZM68.9747 20.126C68.5307 20.126 68.1927 20 67.9607 19.748C67.7287 19.496 67.6127 19.134 67.6127 18.662V14.15H66.8327L66.7967 13.934L68.5967 12.146L68.8307 12.17V13.706H70.5467L70.4447 14.15H68.8307V18.542C68.8307 19.198 69.0667 19.526 69.5387 19.526C69.6987 19.526 69.8567 19.484 70.0127 19.4C70.1727 19.316 70.3087 19.2 70.4207 19.052L70.6307 19.238C70.4467 19.51 70.2067 19.726 69.9107 19.886C69.6187 20.046 69.3067 20.126 68.9747 20.126ZM75.7008 20.126C75.0688 20.126 74.4868 20.008 73.9548 19.772C73.4268 19.532 72.9668 19.2 72.5748 18.776C72.1868 18.348 71.8848 17.85 71.6688 17.282C71.4568 16.71 71.3508 16.092 71.3508 15.428C71.3508 14.76 71.4568 14.142 71.6688 13.574C71.8848 13.006 72.1868 12.51 72.5748 12.086C72.9668 11.658 73.4268 11.326 73.9548 11.09C74.4868 10.854 75.0688 10.736 75.7008 10.736C76.3328 10.736 76.9148 10.854 77.4468 11.09C77.9788 11.326 78.4388 11.658 78.8268 12.086C79.2188 12.51 79.5228 13.006 79.7388 13.574C79.9548 14.142 80.0628 14.76 80.0628 15.428C80.0628 16.092 79.9548 16.71 79.7388 17.282C79.5228 17.85 79.2188 18.348 78.8268 18.776C78.4388 19.2 77.9788 19.532 77.4468 19.772C76.9148 20.008 76.3328 20.126 75.7008 20.126ZM75.7008 19.562C76.0568 19.562 76.3788 19.498 76.6668 19.37C76.9588 19.242 77.2148 19.058 77.4348 18.818C77.6588 18.574 77.8468 18.282 77.9988 17.942C78.1508 17.602 78.2648 17.218 78.3408 16.79C78.4168 16.362 78.4548 15.898 78.4548 15.398C78.4548 14.906 78.4168 14.45 78.3408 14.03C78.2648 13.606 78.1528 13.226 78.0048 12.89C77.8568 12.554 77.6708 12.268 77.4468 12.032C77.2268 11.792 76.9708 11.61 76.6788 11.486C76.3908 11.358 76.0688 11.294 75.7128 11.294C75.3568 11.294 75.0328 11.358 74.7408 11.486C74.4488 11.61 74.1908 11.792 73.9668 12.032C73.7468 12.272 73.5608 12.562 73.4088 12.902C73.2608 13.238 73.1488 13.618 73.0728 14.042C72.9968 14.466 72.9588 14.926 72.9588 15.422C72.9588 15.918 72.9968 16.378 73.0728 16.802C73.1488 17.226 73.2608 17.608 73.4088 17.948C73.5608 18.288 73.7468 18.578 73.9668 18.818C74.1868 19.058 74.4408 19.242 74.7288 19.37C75.0208 19.498 75.3448 19.562 75.7008 19.562ZM84.2995 20.108C83.9715 20.108 83.6515 20.06 83.3395 19.964C83.0315 19.868 82.7055 19.718 82.3615 19.514L81.8875 20H81.6415L81.4195 16.958L81.7435 16.892C81.9835 17.832 82.2995 18.514 82.6915 18.938C83.0875 19.362 83.6095 19.574 84.2575 19.574C84.8015 19.574 85.2315 19.444 85.5475 19.184C85.8635 18.92 86.0215 18.564 86.0215 18.116C86.0215 17.764 85.9115 17.45 85.6915 17.174C85.4755 16.894 85.1195 16.614 84.6235 16.334L83.7055 15.848C82.9575 15.444 82.4215 15.042 82.0975 14.642C81.7735 14.242 81.6115 13.776 81.6115 13.244C81.6115 12.764 81.7295 12.336 81.9655 11.96C82.2015 11.58 82.5235 11.282 82.9315 11.066C83.3435 10.846 83.8055 10.736 84.3175 10.736C85.0175 10.736 85.6275 10.982 86.1475 11.474L86.5135 10.85H86.7715L86.8795 13.472H86.5375C86.3495 12.724 86.0775 12.172 85.7215 11.816C85.3695 11.456 84.9195 11.276 84.3715 11.276C83.9275 11.276 83.5755 11.394 83.3155 11.63C83.0595 11.866 82.9315 12.19 82.9315 12.602C82.9315 12.974 83.0535 13.306 83.2975 13.598C83.5455 13.89 83.9615 14.19 84.5455 14.498L85.4395 14.978C86.0515 15.302 86.4935 15.662 86.7655 16.058C87.0415 16.454 87.1795 16.908 87.1795 17.42C87.1795 17.928 87.0515 18.386 86.7955 18.794C86.5435 19.198 86.1995 19.518 85.7635 19.754C85.3315 19.99 84.8435 20.108 84.2995 20.108Z" fill="white"/>
<path d="M31 0H5C2.23858 0 0 2.23858 0 5V27C0 29.7614 2.23858 32 5 32H31V0Z" fill="#262577"/>
<path d="M15.076 4L11.883 7.214H6.348V12.648L3 15.944L6.349 19.242V24.632H11.723L15.008 27.868L18.293 24.632H23.723V19.258L27 15.96L23.768 12.708V7.255H18.31L15.076 4ZM15.076 4.749L17.566 7.255H15.876V13.696L15.076 14.501L14.266 13.686V7.214H12.627L15.076 4.749ZM6.876 7.74H11.359L9.485 9.626L13.738 13.905V14.559H12.94L8.674 10.357L6.876 12.127V7.74ZM12.103 7.74H13.738V13.155L10.229 9.625L12.103 7.74ZM16.405 7.783H18.092L19.922 9.625L16.405 13.164V7.783ZM18.836 7.783H23.24V12.177L21.41 10.335L17.169 14.602H16.405V13.912L20.666 9.625L18.836 7.783ZM21.41 11.083L23.24 12.926V14.602H17.913L21.41 11.083ZM8.675 11.096L12.19 14.558H6.876V12.868L8.675 11.096ZM6.348 13.388V15.085H12.725L13.596 15.943L12.814 16.713H6.35V18.499L3.753 15.944L6.348 13.388ZM23.768 13.456L26.256 15.959L23.723 18.509V16.713H17.313L16.563 15.959L17.388 15.129H23.768V13.456ZM14.266 14.434L15.076 15.249L15.262 15.061L15.876 14.443V15.129H16.644L15.819 15.959L16.569 16.713H15.85V17.521L15.008 16.691L14.267 17.421V16.714H13.567L14.348 15.944L14.16 15.758L13.478 15.086H14.266V14.434ZM6.876 17.241H12.278L8.675 20.791L6.877 19.019L6.876 17.241ZM13.03 17.241H13.738V17.941L9.334 22.279L11.186 24.103H6.876V19.761L8.674 21.531L13.03 17.241ZM16.378 17.241H17.093L21.41 21.584L21.596 21.397L23.195 19.787V24.103H18.829L20.682 22.278L20.494 22.093L16.378 18.039V17.241ZM17.838 17.241H23.195V19.039L21.41 20.835L17.838 17.241ZM15.008 17.432L15.85 18.261V24.631H17.541L15.009 27.126L12.476 24.631H14.266V18.164L15.008 17.432ZM13.738 18.683V24.103H11.939L10.087 22.28L13.738 18.683ZM16.378 18.78L19.93 22.279L18.077 24.104H16.377L16.378 18.78Z" fill="white"/>
</svg>
