<svg width="100" height="32" viewBox="0 0 100 32" fill="none" xmlns="http://www.w3.org/2000/svg">
<path d="M95 0H31V32H95C97.7614 32 100 29.7614 100 27V5C100 2.23858 97.7614 0 95 0Z" fill="#0F1418"/>
<path d="M45.564 20V19.7L46.584 19.472V11.378L45.564 11.15V10.862H48.558C49.198 10.862 49.748 10.89 50.208 10.946C50.672 11.002 51.076 11.094 51.42 11.222C51.768 11.346 52.082 11.514 52.362 11.726C52.906 12.13 53.326 12.656 53.622 13.304C53.918 13.948 54.066 14.662 54.066 15.446C54.066 16.254 53.908 16.998 53.592 17.678C53.276 18.354 52.84 18.894 52.284 19.298C51.932 19.55 51.548 19.73 51.132 19.838C50.716 19.946 50.208 20 49.608 20H45.564ZM49.164 19.526C49.732 19.526 50.198 19.454 50.562 19.31C50.926 19.162 51.248 18.92 51.528 18.584C51.836 18.2 52.07 17.73 52.23 17.174C52.394 16.614 52.476 15.996 52.476 15.32C52.476 14.644 52.394 14.046 52.23 13.526C52.066 13.006 51.824 12.57 51.504 12.218C51.212 11.91 50.864 11.69 50.46 11.558C50.056 11.422 49.532 11.354 48.888 11.354H47.934V18.812C47.934 19.08 48.024 19.266 48.204 19.37C48.384 19.474 48.704 19.526 49.164 19.526ZM58.1766 20.126C57.5966 20.126 57.0866 19.994 56.6466 19.73C56.2106 19.462 55.8706 19.09 55.6266 18.614C55.3866 18.134 55.2666 17.58 55.2666 16.952C55.2666 16.284 55.4006 15.698 55.6686 15.194C55.9406 14.69 56.3186 14.296 56.8026 14.012C57.2906 13.728 57.8546 13.586 58.4946 13.586C59.2866 13.586 59.8926 13.816 60.3126 14.276C60.7366 14.736 60.9566 15.41 60.9726 16.298L60.8886 16.37H56.2386V16.022L59.5986 15.902C59.6266 15.798 59.6406 15.64 59.6406 15.428C59.6406 14.468 59.2186 13.988 58.3746 13.988C57.7946 13.988 57.3466 14.216 57.0306 14.672C56.7186 15.124 56.5626 15.766 56.5626 16.598C56.5626 18.338 57.2386 19.208 58.5906 19.208C59.4706 19.208 60.1446 18.888 60.6126 18.248L60.8346 18.386C60.6266 18.938 60.2886 19.366 59.8206 19.67C59.3566 19.974 58.8086 20.126 58.1766 20.126ZM64.9994 20.126C64.6994 20.126 64.4074 20.078 64.1234 19.982C63.8394 19.882 63.5794 19.746 63.3434 19.574H63.2774L62.6714 20H62.4614V11.216L61.5794 10.892V10.724L63.5534 10.142H63.6914V14.396C63.9434 14.128 64.2234 13.926 64.5314 13.79C64.8394 13.654 65.1714 13.586 65.5274 13.586C66.0474 13.586 66.5034 13.714 66.8954 13.97C67.2874 14.222 67.5934 14.574 67.8134 15.026C68.0374 15.474 68.1494 15.996 68.1494 16.592C68.1494 17.26 68.0114 17.862 67.7354 18.398C67.4594 18.93 67.0834 19.352 66.6074 19.664C66.1314 19.972 65.5954 20.126 64.9994 20.126ZM64.9694 19.682C65.3334 19.682 65.6494 19.568 65.9174 19.34C66.1894 19.108 66.3994 18.786 66.5474 18.374C66.6994 17.958 66.7754 17.476 66.7754 16.928C66.7754 16.1 66.6154 15.45 66.2954 14.978C65.9794 14.506 65.5434 14.27 64.9874 14.27C64.7194 14.27 64.4754 14.326 64.2554 14.438C64.0354 14.55 63.8474 14.702 63.6914 14.894V18.188C63.6914 18.636 63.8074 18.998 64.0394 19.274C64.2714 19.546 64.5814 19.682 64.9694 19.682ZM69.0436 20V19.736L69.9556 19.55V14.66L69.0616 14.342V14.156L71.0536 13.586H71.1856V19.55L72.0856 19.736V20H69.0436ZM70.5616 12.326C70.3176 12.326 70.1236 12.248 69.9796 12.092C69.8356 11.936 69.7636 11.754 69.7636 11.546C69.7636 11.318 69.8356 11.126 69.9796 10.97C70.1236 10.814 70.3176 10.736 70.5616 10.736C70.8096 10.736 71.0056 10.814 71.1496 10.97C71.2976 11.126 71.3716 11.318 71.3716 11.546C71.3716 11.754 71.2976 11.936 71.1496 12.092C71.0056 12.248 70.8096 12.326 70.5616 12.326ZM74.3438 20.126C73.9158 20.126 73.5678 19.992 73.2998 19.724C73.0358 19.456 72.9038 19.108 72.9038 18.68C72.9038 18.328 73.0118 18.024 73.2278 17.768C73.4438 17.512 73.7918 17.288 74.2718 17.096C74.7558 16.9 75.3938 16.722 76.1858 16.562V15.44C76.1858 14.932 76.1158 14.576 75.9758 14.372C75.8398 14.168 75.6038 14.066 75.2678 14.066C74.9358 14.066 74.6718 14.146 74.4758 14.306C74.2798 14.466 74.1818 14.682 74.1818 14.954C74.1818 15.03 74.1858 15.106 74.1938 15.182C74.2058 15.254 74.2118 15.324 74.2118 15.392C74.2118 15.596 74.1498 15.764 74.0258 15.896C73.9058 16.028 73.7518 16.094 73.5638 16.094C73.3918 16.094 73.2518 16.038 73.1438 15.926C73.0398 15.814 72.9878 15.668 72.9878 15.488C72.9878 15.228 73.0998 14.962 73.3238 14.69C73.5518 14.414 73.8518 14.178 74.2238 13.982C74.7198 13.718 75.2578 13.586 75.8378 13.586C76.1858 13.586 76.4798 13.64 76.7198 13.748C76.9638 13.856 77.1398 14.01 77.2478 14.21C77.3118 14.346 77.3538 14.518 77.3738 14.726C77.3978 14.934 77.4098 15.282 77.4098 15.77V18.452C77.4098 18.84 77.4398 19.104 77.4998 19.244C77.5638 19.384 77.6818 19.454 77.8538 19.454C78.0498 19.454 78.2398 19.342 78.4238 19.118L78.6398 19.322C78.4438 19.606 78.2438 19.812 78.0398 19.94C77.8398 20.064 77.6058 20.126 77.3378 20.126C77.0138 20.126 76.7618 20.038 76.5818 19.862C76.4018 19.686 76.2818 19.418 76.2218 19.058H76.1858C75.9578 19.386 75.6818 19.646 75.3578 19.838C75.0338 20.03 74.6958 20.126 74.3438 20.126ZM74.9438 19.364C75.1918 19.364 75.4238 19.3 75.6398 19.172C75.8558 19.04 76.0378 18.858 76.1858 18.626V16.934C75.6498 17.038 75.2278 17.152 74.9198 17.276C74.6158 17.4 74.3998 17.552 74.2718 17.732C74.1478 17.908 74.0858 18.13 74.0858 18.398C74.0858 18.706 74.1578 18.944 74.3018 19.112C74.4498 19.28 74.6638 19.364 74.9438 19.364ZM82.94 20V19.736L83.816 19.562V15.71C83.816 15.234 83.72 14.88 83.528 14.648C83.336 14.412 83.026 14.294 82.598 14.294C81.97 14.294 81.448 14.58 81.032 15.152V14.654C81.368 14.318 81.736 14.056 82.136 13.868C82.536 13.68 82.934 13.586 83.33 13.586C84.47 13.586 85.04 14.124 85.04 15.2V19.562L85.928 19.736V20H82.94ZM79.034 20V19.736L79.934 19.55V14.672L79.046 14.342V14.168L80.966 13.586H81.098V14.648L81.158 14.708V19.55L82.04 19.736V20H79.034Z" fill="white"/>
<path d="M31 0H5C2.23858 0 0 2.23858 0 5V27C0 29.7614 2.23858 32 5 32H31V0Z" fill="#A81D33"/>
<path d="M16.5241 16.685C16.1241 16.685 16.6041 16.885 17.1251 16.965C17.2651 16.865 17.3951 16.745 17.5151 16.635C17.1902 16.7064 16.8546 16.7233 16.5241 16.685ZM18.6651 16.155C18.8951 15.825 19.0651 15.465 19.1351 15.095C19.0751 15.365 18.9351 15.595 18.8051 15.825C18.0551 16.295 18.7351 15.555 18.8051 15.265C18.0051 16.275 18.6951 15.865 18.6651 16.155ZM19.4461 14.105C19.4961 13.384 19.3061 13.604 19.2461 13.884C19.3161 13.924 19.3761 14.385 19.4461 14.105ZM15.0241 4.31C15.2241 4.35 15.4741 4.38 15.4441 4.43C15.6741 4.38 15.7241 4.33 15.0141 4.31M15.4441 4.43L15.2941 4.46L15.4341 4.45V4.43M22.0671 14.374C22.0871 15.014 21.8671 15.324 21.6871 15.874L21.3371 16.055C21.0571 16.595 21.3671 16.405 21.1671 16.835C20.7271 17.225 19.8271 18.055 19.5471 18.136C19.3461 18.136 19.6871 17.886 19.7371 17.796C19.1461 18.196 19.2561 18.396 18.3661 18.646L18.3361 18.586C16.1151 19.626 13.0331 17.566 13.0831 14.744C13.0531 14.914 13.0131 14.874 12.9631 14.944C12.9025 14.2263 13.0614 13.5072 13.4187 12.8819C13.7761 12.2566 14.3151 11.7548 14.9641 11.443C15.5631 11.1415 16.2385 11.0261 16.9036 11.1116C17.5686 11.1972 18.1929 11.4797 18.6961 11.923C18.3762 11.5081 17.9632 11.1743 17.4906 10.9485C17.0179 10.7226 16.4988 10.6112 15.9751 10.623C14.7951 10.633 13.6941 11.383 13.3241 12.193C12.7241 12.573 12.6541 13.663 12.3941 13.854C12.0331 16.455 13.0541 17.576 14.7741 18.896C15.0441 19.086 14.8541 19.106 14.8941 19.246C14.3098 18.9687 13.7889 18.5738 13.3641 18.086C13.5941 18.416 13.8341 18.746 14.1641 18.996C13.6141 18.816 12.8941 17.696 12.6841 17.646C13.6141 19.306 16.4641 20.567 17.9451 19.946C17.1577 20.0018 16.3669 19.9067 15.6151 19.666C15.2851 19.506 14.8451 19.156 14.9151 19.096C15.8828 19.5031 16.9429 19.6401 17.9822 19.4921C19.0216 19.3442 20.0014 18.917 20.8171 18.256C21.2571 17.906 21.7471 17.316 21.8871 17.306C21.6871 17.626 21.9271 17.466 21.7671 17.746C22.2071 17.026 21.5671 17.446 22.2271 16.506L22.4671 16.836C22.3771 16.236 23.2071 15.515 23.1271 14.574C23.3171 14.274 23.3271 14.874 23.1271 15.544C23.4171 14.804 23.2071 14.694 23.2771 14.084C23.3571 14.284 23.4571 14.504 23.5071 14.714C23.3271 14.014 23.7071 13.514 23.7871 13.114C23.6971 13.064 23.5071 13.414 23.4671 12.584C23.4671 12.214 23.5671 12.384 23.6071 12.304C23.5271 12.254 23.3471 11.984 23.2271 11.443C23.3071 11.313 23.4471 11.773 23.5671 11.783C23.4871 11.363 23.3671 11.033 23.3671 10.703C23.0271 10.023 23.2471 10.803 22.9671 10.403C22.6271 9.312 23.2671 10.153 23.3071 9.663C23.8471 10.433 24.1471 11.623 24.2881 12.123C24.1881 11.523 24.0081 10.923 23.7981 10.363C23.9581 10.433 23.5381 9.122 24.0081 9.993C23.3855 8.11893 22.0774 6.54965 20.3461 5.6C20.5261 5.77 20.7661 5.99 20.6761 6.02C19.9261 5.57 20.0561 5.54 19.9461 5.35C19.3361 5.1 19.2961 5.37 18.8861 5.35C17.7261 4.73 17.5061 4.8 16.4441 4.4L16.4941 4.63C15.7241 4.38 15.5941 4.73 14.7641 4.63C14.7141 4.59 15.0341 4.49 15.2941 4.45C14.5531 4.55 14.5931 4.31 13.8631 4.48C14.0331 4.35 14.2231 4.27 14.4131 4.16C13.8131 4.2 12.9731 4.51 13.2331 4.23C12.2441 4.68 10.4911 5.3 9.51112 6.22L9.48212 6C9.03212 6.54 7.52212 7.611 7.40212 8.311L7.27112 8.341C7.04112 8.741 6.89112 9.191 6.70112 9.602C6.40112 10.122 6.25112 9.802 6.30112 9.882C5.70112 11.102 5.40112 12.133 5.14112 12.984C5.32112 13.254 5.14112 14.634 5.21112 15.744C4.91112 21.207 9.05112 26.52 13.5741 27.75C14.2441 27.98 15.2241 27.98 16.0641 28C15.0741 27.72 14.9441 27.85 13.9841 27.51C13.2841 27.19 13.1341 26.81 12.6441 26.38L12.8441 26.73C11.8731 26.39 12.2741 26.31 11.4831 26.06L11.6931 25.79C11.3831 25.76 10.8631 25.26 10.7231 24.98L10.3831 24.99C9.97312 24.489 9.75312 24.119 9.77312 23.829L9.66212 24.029C9.53212 23.819 8.14212 22.128 8.86212 22.518C8.73212 22.398 8.55212 22.318 8.36212 21.968L8.50212 21.798C8.15212 21.358 7.86212 20.778 7.88212 20.598C8.08212 20.838 8.20212 20.898 8.33212 20.928C7.45212 18.756 7.40212 20.808 6.73112 18.726L6.88112 18.706C6.78112 18.546 6.70112 18.366 6.62112 18.196L6.68112 17.596C6.05112 16.856 6.50112 14.494 6.59112 13.194C6.66112 12.654 7.12112 12.094 7.47112 11.213L7.26112 11.173C7.66112 10.463 9.60212 8.301 10.5021 8.412C10.9321 7.862 10.4121 8.412 10.3221 8.272C11.2821 7.281 11.5821 7.572 12.2231 7.392C12.9231 6.991 11.6231 7.552 11.9531 7.241C13.1531 6.941 12.8031 6.541 14.3741 6.391C14.5341 6.491 13.9841 6.531 13.8541 6.651C14.8541 6.161 17.0051 6.281 18.4161 6.921C20.0461 7.691 21.8771 9.932 21.9471 12.053L22.0271 12.073C21.9871 12.923 22.1571 13.894 21.8571 14.784L22.0571 14.364M12.1841 17.236L12.1341 17.516C12.3941 17.866 12.6041 18.246 12.9341 18.526C12.6941 18.056 12.5141 17.866 12.1841 17.226M12.8041 17.206C12.6641 17.056 12.5841 16.866 12.4941 16.686C12.5741 17.006 12.7541 17.286 12.9241 17.566L12.8041 17.206ZM23.7491 14.824L23.6791 14.974C23.5791 15.734 23.3391 16.485 22.9891 17.186C23.3891 16.456 23.6391 15.645 23.7391 14.824M15.0941 4.12C15.3641 4.02 15.7541 4.07 16.0441 4C15.6741 4.03 15.3041 4.05 14.9441 4.1L15.0941 4.12ZM5.65012 9.142C5.72012 9.712 5.22012 9.942 5.76012 9.562C6.06012 8.902 5.65012 9.382 5.66012 9.142M5.02012 11.803C5.14012 11.413 5.17012 11.183 5.22012 10.963C4.87012 11.403 5.05012 11.493 5.02012 11.793" fill="white"/>
</svg>
