<svg width="100" height="32" viewBox="0 0 100 32" fill="none" xmlns="http://www.w3.org/2000/svg">
<path d="M95 0H31V32H95C97.7614 32 100 29.7614 100 27V5C100 2.23858 97.7614 0 95 0Z" fill="#0F1418"/>
<path d="M45.564 20V19.712L46.584 19.472V11.378L45.564 11.15V10.862H52.26L52.47 13.472H52.152C52.06 13.136 51.944 12.784 51.804 12.416C51.668 12.044 51.5 11.69 51.3 11.354H47.934V19.472L49.284 19.712V20H45.564ZM50.43 16.844C50.35 16.356 50.202 15.884 49.986 15.428H47.772V14.93H49.986C50.098 14.694 50.188 14.458 50.256 14.222C50.328 13.982 50.386 13.746 50.43 13.514H50.736V16.844H50.43ZM55.7508 20.126C55.1708 20.126 54.6608 19.994 54.2208 19.73C53.7848 19.462 53.4448 19.09 53.2008 18.614C52.9608 18.134 52.8408 17.58 52.8408 16.952C52.8408 16.284 52.9748 15.698 53.2428 15.194C53.5148 14.69 53.8928 14.296 54.3768 14.012C54.8648 13.728 55.4288 13.586 56.0688 13.586C56.8608 13.586 57.4668 13.816 57.8868 14.276C58.3108 14.736 58.5308 15.41 58.5468 16.298L58.4628 16.37H53.8128V16.022L57.1728 15.902C57.2008 15.798 57.2148 15.64 57.2148 15.428C57.2148 14.468 56.7928 13.988 55.9488 13.988C55.3688 13.988 54.9208 14.216 54.6048 14.672C54.2928 15.124 54.1368 15.766 54.1368 16.598C54.1368 18.338 54.8128 19.208 56.1648 19.208C57.0448 19.208 57.7188 18.888 58.1868 18.248L58.4088 18.386C58.2008 18.938 57.8628 19.366 57.3948 19.67C56.9308 19.974 56.3828 20.126 55.7508 20.126ZM62.0516 20.126C61.5796 20.126 61.1556 19.988 60.7796 19.712C60.4036 19.436 60.1056 19.06 59.8856 18.584C59.6696 18.104 59.5616 17.562 59.5616 16.958C59.5616 16.294 59.6936 15.71 59.9576 15.206C60.2216 14.698 60.5896 14.302 61.0616 14.018C61.5336 13.73 62.0796 13.586 62.6996 13.586C63.1396 13.586 63.5716 13.652 63.9956 13.784V11.234L63.1076 10.892V10.724L65.0696 10.142H65.2076V19.046L66.0296 19.232V19.376L64.1756 20.126H64.0796V19.136L64.0256 19.118C63.7776 19.45 63.4836 19.702 63.1436 19.874C62.8076 20.042 62.4436 20.126 62.0516 20.126ZM62.5796 19.334C62.8756 19.334 63.1496 19.272 63.4016 19.148C63.6576 19.024 63.8556 18.856 63.9956 18.644V15.308C63.9956 14.88 63.8836 14.552 63.6596 14.324C63.4396 14.096 63.1216 13.982 62.7056 13.982C62.1696 13.982 61.7356 14.236 61.4036 14.744C61.0756 15.252 60.9116 15.926 60.9116 16.766C60.9116 17.558 61.0596 18.184 61.3556 18.644C61.6516 19.104 62.0596 19.334 62.5796 19.334ZM70.0061 20.126C69.3901 20.126 68.8441 19.984 68.3681 19.7C67.8921 19.412 67.5181 19.022 67.2461 18.53C66.9781 18.034 66.8441 17.476 66.8441 16.856C66.8441 16.232 66.9781 15.674 67.2461 15.182C67.5181 14.69 67.8921 14.302 68.3681 14.018C68.8441 13.73 69.3901 13.586 70.0061 13.586C70.6221 13.586 71.1661 13.73 71.6381 14.018C72.1141 14.302 72.4881 14.69 72.7601 15.182C73.0321 15.674 73.1681 16.232 73.1681 16.856C73.1681 17.476 73.0321 18.034 72.7601 18.53C72.4881 19.022 72.1141 19.412 71.6381 19.7C71.1661 19.984 70.6221 20.126 70.0061 20.126ZM69.9941 19.574C70.2861 19.574 70.5441 19.51 70.7681 19.382C70.9921 19.25 71.1801 19.064 71.3321 18.824C71.4881 18.58 71.6061 18.292 71.6861 17.96C71.7661 17.624 71.8061 17.252 71.8061 16.844C71.8061 16.44 71.7661 16.072 71.6861 15.74C71.6101 15.408 71.4961 15.122 71.3441 14.882C71.1921 14.642 71.0041 14.458 70.7801 14.33C70.5561 14.198 70.2981 14.132 70.0061 14.132C69.7141 14.132 69.4561 14.198 69.2321 14.33C69.0081 14.458 68.8201 14.642 68.6681 14.882C68.5161 15.122 68.4001 15.41 68.3201 15.746C68.2441 16.078 68.2061 16.448 68.2061 16.856C68.2061 17.264 68.2441 17.634 68.3201 17.966C68.4001 18.298 68.5161 18.584 68.6681 18.824C68.8201 19.064 69.0061 19.25 69.2261 19.382C69.4501 19.51 69.7061 19.574 69.9941 19.574ZM74.0595 20V19.736L74.9595 19.55V14.66L74.0835 14.33V14.156L76.0035 13.58H76.1355V14.876L76.1835 14.936V19.55L77.4195 19.736V20H74.0595ZM76.0935 15.428L76.0695 14.936C76.3655 14.5 76.6595 14.164 76.9515 13.928C77.2475 13.692 77.5235 13.574 77.7795 13.574C77.9995 13.574 78.1855 13.65 78.3375 13.802C78.4895 13.95 78.5655 14.13 78.5655 14.342C78.5655 14.538 78.4995 14.704 78.3675 14.84C78.2355 14.972 78.0715 15.038 77.8755 15.038C77.6755 15.038 77.5195 14.964 77.4075 14.816C77.3275 14.724 77.2595 14.662 77.2035 14.63C77.1475 14.594 77.0835 14.576 77.0115 14.576C76.8955 14.576 76.7495 14.654 76.5735 14.81C76.4015 14.962 76.2415 15.168 76.0935 15.428ZM80.6837 20.126C80.2557 20.126 79.9077 19.992 79.6397 19.724C79.3757 19.456 79.2437 19.108 79.2437 18.68C79.2437 18.328 79.3517 18.024 79.5677 17.768C79.7837 17.512 80.1317 17.288 80.6117 17.096C81.0957 16.9 81.7337 16.722 82.5257 16.562V15.44C82.5257 14.932 82.4557 14.576 82.3157 14.372C82.1797 14.168 81.9437 14.066 81.6077 14.066C81.2757 14.066 81.0117 14.146 80.8157 14.306C80.6197 14.466 80.5217 14.682 80.5217 14.954C80.5217 15.03 80.5257 15.106 80.5337 15.182C80.5457 15.254 80.5517 15.324 80.5517 15.392C80.5517 15.596 80.4897 15.764 80.3657 15.896C80.2457 16.028 80.0917 16.094 79.9037 16.094C79.7317 16.094 79.5917 16.038 79.4837 15.926C79.3797 15.814 79.3277 15.668 79.3277 15.488C79.3277 15.228 79.4397 14.962 79.6637 14.69C79.8917 14.414 80.1917 14.178 80.5637 13.982C81.0597 13.718 81.5977 13.586 82.1777 13.586C82.5257 13.586 82.8197 13.64 83.0597 13.748C83.3037 13.856 83.4797 14.01 83.5877 14.21C83.6517 14.346 83.6937 14.518 83.7137 14.726C83.7377 14.934 83.7497 15.282 83.7497 15.77V18.452C83.7497 18.84 83.7797 19.104 83.8397 19.244C83.9037 19.384 84.0217 19.454 84.1937 19.454C84.3897 19.454 84.5797 19.342 84.7637 19.118L84.9797 19.322C84.7837 19.606 84.5837 19.812 84.3797 19.94C84.1797 20.064 83.9457 20.126 83.6777 20.126C83.3537 20.126 83.1017 20.038 82.9217 19.862C82.7417 19.686 82.6217 19.418 82.5617 19.058H82.5257C82.2977 19.386 82.0217 19.646 81.6977 19.838C81.3737 20.03 81.0357 20.126 80.6837 20.126ZM81.2837 19.364C81.5317 19.364 81.7637 19.3 81.9797 19.172C82.1957 19.04 82.3777 18.858 82.5257 18.626V16.934C81.9897 17.038 81.5677 17.152 81.2597 17.276C80.9557 17.4 80.7397 17.552 80.6117 17.732C80.4877 17.908 80.4257 18.13 80.4257 18.398C80.4257 18.706 80.4977 18.944 80.6417 19.112C80.7897 19.28 81.0037 19.364 81.2837 19.364Z" fill="white"/>
<path d="M31 0H5C2.23858 0 0 2.23858 0 5V27C0 29.7614 2.23858 32 5 32H31V0Z" fill="#51A2DA"/>
<path d="M14.999 4C8.374 4 3.006 9.369 3.002 15.992H3V25.279H3.002C3.00332 26.0011 3.29111 26.6932 3.80219 27.2033C4.31327 27.7135 5.00589 28 5.728 28H15.003C21.629 27.996 26.996 22.628 26.996 16.003C26.996 9.375 21.626 4 14.998 4H14.999ZM17.43 8.94C19.445 8.94 21.347 10.483 21.347 12.611C21.347 12.808 21.348 13.006 21.317 13.23C21.3036 13.3644 21.2632 13.4947 21.1983 13.613C21.1333 13.7314 21.045 13.8354 20.9388 13.9188C20.8326 14.0022 20.7107 14.0633 20.5803 14.0984C20.4499 14.1335 20.3137 14.1419 20.18 14.123C20.0464 14.1037 19.918 14.0576 19.8026 13.9875C19.6873 13.9174 19.5873 13.8247 19.5086 13.7149C19.43 13.6052 19.3743 13.4807 19.345 13.3489C19.3157 13.2171 19.3133 13.0807 19.338 12.948C19.3496 12.8361 19.3539 12.7235 19.351 12.611C19.351 11.404 18.364 10.939 17.431 10.939C16.497 10.939 15.656 11.723 15.654 12.611C15.67 13.638 15.654 14.657 15.654 15.681L17.386 15.669C18.738 15.641 18.754 17.678 17.402 17.667L15.654 17.68C15.65 18.506 15.66 18.357 15.656 18.773C15.656 18.773 15.671 19.783 15.64 20.549C15.431 22.799 13.516 24.595 11.216 24.595C8.778 24.595 6.768 22.602 6.768 20.158C6.841 17.643 8.846 15.666 11.371 15.689L12.78 15.679V17.675L11.371 17.688H11.364C9.976 17.728 8.787 18.672 8.764 20.158C8.76386 20.4794 8.82729 20.7977 8.95062 21.0945C9.07396 21.3914 9.25477 21.6609 9.48266 21.8875C9.71055 22.1142 9.98101 22.2936 10.2785 22.4154C10.576 22.5371 10.8946 22.5988 11.216 22.597C12.572 22.597 13.657 21.61 13.657 20.16L13.656 12.603C13.656 12.463 13.661 12.351 13.676 12.196C13.906 10.348 15.559 8.94 17.43 8.94Z" fill="white"/>
</svg>
