<svg width="108" height="32" viewBox="0 0 108 32" fill="none" xmlns="http://www.w3.org/2000/svg">
<path d="M102.42 0H31V32H102.42C105.502 32 108 29.7614 108 27V5C108 2.23858 105.502 0 102.42 0Z" fill="#0F1418"/>
<path d="M38.564 20V19.712L39.584 19.472V11.378L38.564 11.15V10.862H42.062V11.15L40.934 11.378V19.502H44.3C44.516 19.138 44.702 18.772 44.858 18.404C45.014 18.036 45.164 17.624 45.308 17.168H45.662L45.212 20H38.564ZM46.2233 20V19.736L47.1353 19.55V14.66L46.2413 14.342V14.156L48.2333 13.586H48.3653V19.55L49.2653 19.736V20H46.2233ZM47.7413 12.326C47.4973 12.326 47.3033 12.248 47.1593 12.092C47.0153 11.936 46.9433 11.754 46.9433 11.546C46.9433 11.318 47.0153 11.126 47.1593 10.97C47.3033 10.814 47.4973 10.736 47.7413 10.736C47.9893 10.736 48.1853 10.814 48.3293 10.97C48.4773 11.126 48.5513 11.318 48.5513 11.546C48.5513 11.754 48.4773 11.936 48.3293 12.092C48.1853 12.248 47.9893 12.326 47.7413 12.326ZM53.7915 20V19.736L54.6675 19.562V15.71C54.6675 15.234 54.5715 14.88 54.3795 14.648C54.1875 14.412 53.8775 14.294 53.4495 14.294C52.8215 14.294 52.2995 14.58 51.8835 15.152V14.654C52.2195 14.318 52.5875 14.056 52.9875 13.868C53.3875 13.68 53.7855 13.586 54.1815 13.586C55.3215 13.586 55.8915 14.124 55.8915 15.2V19.562L56.7795 19.736V20H53.7915ZM49.8855 20V19.736L50.7855 19.55V14.672L49.8975 14.342V14.168L51.8175 13.586H51.9495V14.648L52.0095 14.708V19.55L52.8915 19.736V20H49.8855ZM59.9173 20.126C59.3173 20.126 58.8793 19.988 58.6033 19.712C58.3273 19.432 58.1893 19.028 58.1893 18.5V14.156L57.3013 13.97V13.706H59.4133V18.02C59.4133 18.544 59.5053 18.904 59.6893 19.1C59.8773 19.296 60.1733 19.394 60.5773 19.394C60.8533 19.394 61.1233 19.322 61.3873 19.178C61.6513 19.034 61.8953 18.808 62.1193 18.5V18.98C61.8153 19.352 61.4733 19.636 61.0933 19.832C60.7133 20.028 60.3213 20.126 59.9173 20.126ZM62.0773 20.126V18.944L62.0113 18.92V14.156L61.1293 13.97V13.706H63.2353V19.088L64.0513 19.376V19.538L62.1793 20.126H62.0773ZM68.3378 20V19.736C68.7378 19.704 68.9658 19.652 69.0218 19.58C69.0818 19.508 69.0278 19.348 68.8598 19.1L65.7878 14.48C65.6758 14.316 65.5478 14.202 65.4038 14.138C65.2598 14.07 65.0218 14.014 64.6898 13.97V13.706H67.7978V13.97C67.4538 13.994 67.2498 14.048 67.1858 14.132C67.1258 14.216 67.1758 14.374 67.3358 14.606L70.4078 19.226C70.5198 19.386 70.6418 19.504 70.7738 19.58C70.9098 19.656 71.1238 19.708 71.4158 19.736V20H68.3378ZM64.4318 20V19.736C64.8358 19.68 65.1498 19.59 65.3738 19.466C65.5978 19.342 65.8078 19.152 66.0038 18.896L67.6538 16.688L68.0858 16.91L66.5498 18.878C66.3498 19.138 66.2918 19.334 66.3758 19.466C66.4638 19.594 66.7118 19.684 67.1198 19.736V20H64.4318ZM68.2298 16.73L67.7978 16.58L69.1838 14.828C69.3838 14.568 69.4478 14.376 69.3758 14.252C69.3038 14.128 69.0798 14.034 68.7038 13.97V13.706H71.2118V13.97C70.9558 14.018 70.7478 14.072 70.5878 14.132C70.4318 14.192 70.2958 14.272 70.1798 14.372C70.0638 14.468 69.9358 14.602 69.7958 14.774L68.2298 16.73ZM79.9288 20.126L76.6288 12.218H76.5808V19.472L77.6428 19.712V20H74.9968V19.712L76.0648 19.472V11.378L74.9968 11.15V10.862H77.6428L80.5287 17.774H80.5888L83.4928 10.862H86.0548V11.15L85.0048 11.378V19.472L86.0548 19.712V20H82.5868V19.712L83.6488 19.472V12.302H83.6008L80.2888 20.126H79.9288ZM86.9459 20V19.736L87.8579 19.55V14.66L86.9639 14.342V14.156L88.9559 13.586H89.0879V19.55L89.9879 19.736V20H86.9459ZM88.4639 12.326C88.2199 12.326 88.0259 12.248 87.8819 12.092C87.7379 11.936 87.6659 11.754 87.6659 11.546C87.6659 11.318 87.7379 11.126 87.8819 10.97C88.0259 10.814 88.2199 10.736 88.4639 10.736C88.7119 10.736 88.9079 10.814 89.0519 10.97C89.1999 11.126 89.2739 11.318 89.2739 11.546C89.2739 11.754 89.1999 11.936 89.0519 12.092C88.9079 12.248 88.7119 12.326 88.4639 12.326ZM94.5142 20V19.736L95.3902 19.562V15.71C95.3902 15.234 95.2942 14.88 95.1022 14.648C94.9102 14.412 94.6002 14.294 94.1722 14.294C93.5442 14.294 93.0222 14.58 92.6062 15.152V14.654C92.9422 14.318 93.3102 14.056 93.7102 13.868C94.1102 13.68 94.5082 13.586 94.9042 13.586C96.0442 13.586 96.6142 14.124 96.6142 15.2V19.562L97.5022 19.736V20H94.5142ZM90.6082 20V19.736L91.5082 19.55V14.672L90.6202 14.342V14.168L92.5402 13.586H92.6722V14.648L92.7322 14.708V19.55L93.6142 19.736V20H90.6082ZM100.256 20.126C99.8119 20.126 99.4739 20 99.2419 19.748C99.0099 19.496 98.8939 19.134 98.8939 18.662V14.15H98.1139L98.0779 13.934L99.8779 12.146L100.112 12.17V13.706H101.828L101.726 14.15H100.112V18.542C100.112 19.198 100.348 19.526 100.82 19.526C100.98 19.526 101.138 19.484 101.294 19.4C101.454 19.316 101.59 19.2 101.702 19.052L101.912 19.238C101.728 19.51 101.488 19.726 101.192 19.886C100.9 20.046 100.588 20.126 100.256 20.126Z" fill="white"/>
<path d="M31 0H5C2.23858 0 0 2.23858 0 5V27C0 29.7614 2.23858 32 5 32H31V0Z" fill="#87CF3E"/>
<path d="M3 6V10.193H4.828C6.104 10.193 6.33 11.058 6.33 12.251L6.34 19.663C6.34 23.503 9.78 26.614 14.02 26.614H24.484C25.826 26.614 27 25.784 27 24.506V13.013C27 9.173 23.56 6.063 19.317 6.063H14.912V6.05L3 6ZM8.723 8.566H10.825V19.127C10.825 20.54 11.809 21.637 12.964 21.637L20.134 21.667C21.63 21.667 22.795 20.657 22.795 19.461L22.783 13.854C22.787 13.6836 22.7546 13.5143 22.6881 13.3574C22.6215 13.2005 22.5223 13.0596 22.397 12.944C22.2795 12.8194 22.1372 12.7209 21.9792 12.6547C21.8213 12.5886 21.6512 12.5563 21.48 12.56C21.106 12.56 20.83 12.68 20.562 12.944C20.4367 13.0596 20.3375 13.2005 20.2709 13.3574C20.2044 13.5143 20.172 13.6836 20.176 13.854V18.652H17.953V13.855C17.953 13.491 17.829 13.207 17.564 12.945C17.4471 12.8196 17.3049 12.7205 17.1468 12.6543C16.9887 12.5881 16.8183 12.5563 16.647 12.561C16.281 12.561 16 12.681 15.733 12.945C15.468 13.207 15.343 13.491 15.343 13.855V18.653H13.12V13.855C13.12 12.905 13.48 12.063 14.162 11.389C14.4866 11.0609 14.8739 10.8013 15.3008 10.6257C15.7276 10.4502 16.1854 10.3622 16.647 10.367C17.584 10.367 18.399 10.712 19.06 11.337C19.7086 10.7094 20.5775 10.3611 21.48 10.367C22.434 10.367 23.283 10.715 23.965 11.389C24.297 11.7077 24.5606 12.0907 24.7396 12.5147C24.9186 12.9387 25.0092 13.3948 25.006 13.855L25.015 19.846C24.91 20.85 24.476 21.74 23.735 22.483H23.733C23.3203 22.9052 22.8262 23.2394 22.2806 23.4652C21.7351 23.6911 21.1494 23.8039 20.559 23.797H12.574V23.759C11.598 23.656 10.728 23.24 10.004 22.542C9.159 21.717 8.723 20.696 8.723 19.532V8.567V8.566Z" fill="white"/>
</svg>
