<svg width="100" height="32" viewBox="0 0 100 32" fill="none" xmlns="http://www.w3.org/2000/svg">
<path d="M95 0H31V32H95C97.7614 32 100 29.7614 100 27V5C100 2.23858 97.7614 0 95 0Z" fill="#0F1418"/>
<path d="M45.366 20V19.736L46.26 19.55V14.672L45.378 14.342V14.168L47.274 13.586H47.43V14.624L47.49 14.684V19.55L48.372 19.736V20H45.366ZM49.158 20V19.736L50.046 19.562V15.896C50.046 15.328 49.956 14.92 49.776 14.672C49.6 14.42 49.316 14.294 48.924 14.294C48.62 14.294 48.33 14.37 48.054 14.522C47.782 14.67 47.544 14.884 47.34 15.164V14.66C47.676 14.32 48.046 14.056 48.45 13.868C48.858 13.68 49.258 13.586 49.65 13.586C50.198 13.586 50.604 13.73 50.868 14.018C51.132 14.302 51.264 14.746 51.264 15.35V19.562L52.152 19.736V20H49.158ZM52.938 20V19.736L53.82 19.562V15.86C53.82 15.292 53.734 14.89 53.562 14.654C53.394 14.414 53.108 14.294 52.704 14.294C52.38 14.294 52.084 14.37 51.816 14.522C51.552 14.67 51.32 14.884 51.12 15.164V14.66C51.428 14.304 51.79 14.036 52.206 13.856C52.622 13.676 53.042 13.586 53.466 13.586C54.002 13.586 54.394 13.732 54.642 14.024C54.89 14.316 55.022 14.776 55.038 15.404V19.562L55.926 19.736V20H52.938ZM58.172 20.126C57.744 20.126 57.396 19.992 57.128 19.724C56.864 19.456 56.732 19.108 56.732 18.68C56.732 18.328 56.84 18.024 57.056 17.768C57.272 17.512 57.62 17.288 58.1 17.096C58.584 16.9 59.222 16.722 60.014 16.562V15.44C60.014 14.932 59.944 14.576 59.804 14.372C59.668 14.168 59.432 14.066 59.096 14.066C58.764 14.066 58.5 14.146 58.304 14.306C58.108 14.466 58.01 14.682 58.01 14.954C58.01 15.03 58.014 15.106 58.022 15.182C58.034 15.254 58.04 15.324 58.04 15.392C58.04 15.596 57.978 15.764 57.854 15.896C57.734 16.028 57.58 16.094 57.392 16.094C57.22 16.094 57.08 16.038 56.972 15.926C56.868 15.814 56.816 15.668 56.816 15.488C56.816 15.228 56.928 14.962 57.152 14.69C57.38 14.414 57.68 14.178 58.052 13.982C58.548 13.718 59.086 13.586 59.666 13.586C60.014 13.586 60.308 13.64 60.548 13.748C60.792 13.856 60.968 14.01 61.076 14.21C61.14 14.346 61.182 14.518 61.202 14.726C61.226 14.934 61.238 15.282 61.238 15.77V18.452C61.238 18.84 61.268 19.104 61.328 19.244C61.392 19.384 61.51 19.454 61.682 19.454C61.878 19.454 62.068 19.342 62.252 19.118L62.468 19.322C62.272 19.606 62.072 19.812 61.868 19.94C61.668 20.064 61.434 20.126 61.166 20.126C60.842 20.126 60.59 20.038 60.41 19.862C60.23 19.686 60.11 19.418 60.05 19.058H60.014C59.786 19.386 59.51 19.646 59.186 19.838C58.862 20.03 58.524 20.126 58.172 20.126ZM58.772 19.364C59.02 19.364 59.252 19.3 59.468 19.172C59.684 19.04 59.866 18.858 60.014 18.626V16.934C59.478 17.038 59.056 17.152 58.748 17.276C58.444 17.4 58.228 17.552 58.1 17.732C57.976 17.908 57.914 18.13 57.914 18.398C57.914 18.706 57.986 18.944 58.13 19.112C58.278 19.28 58.492 19.364 58.772 19.364ZM65.8261 20.126C65.2821 20.126 64.7981 19.994 64.3741 19.73C63.9541 19.462 63.6241 19.092 63.3841 18.62C63.1481 18.144 63.0301 17.596 63.0301 16.976C63.0301 16.32 63.1601 15.738 63.4201 15.23C63.6841 14.718 64.0461 14.316 64.5061 14.024C64.9701 13.732 65.5001 13.586 66.0961 13.586C66.5161 13.586 66.8921 13.656 67.2241 13.796C67.5561 13.932 67.8181 14.114 68.0101 14.342C68.2061 14.566 68.3041 14.812 68.3041 15.08C68.3041 15.3 68.2481 15.47 68.1361 15.59C68.0241 15.71 67.8721 15.77 67.6801 15.77C67.4721 15.77 67.3161 15.708 67.2121 15.584C67.1081 15.46 67.0401 15.266 67.0081 15.002C66.9641 14.606 66.8781 14.34 66.7501 14.204C66.6221 14.068 66.4161 14 66.1321 14C65.5641 14 65.1221 14.244 64.8061 14.732C64.4941 15.216 64.3381 15.86 64.3381 16.664C64.3381 17.472 64.5021 18.092 64.8301 18.524C65.1581 18.956 65.6241 19.172 66.2281 19.172C66.6281 19.172 66.9861 19.098 67.3021 18.95C67.6181 18.802 67.9001 18.556 68.1481 18.212L68.3881 18.35C68.1681 18.918 67.8381 19.356 67.3981 19.664C66.9581 19.972 66.4341 20.126 65.8261 20.126ZM73.7868 20.126C73.1548 20.126 72.5728 20.008 72.0408 19.772C71.5128 19.532 71.0528 19.2 70.6608 18.776C70.2728 18.348 69.9708 17.85 69.7548 17.282C69.5428 16.71 69.4368 16.092 69.4368 15.428C69.4368 14.76 69.5428 14.142 69.7548 13.574C69.9708 13.006 70.2728 12.51 70.6608 12.086C71.0528 11.658 71.5128 11.326 72.0408 11.09C72.5728 10.854 73.1548 10.736 73.7868 10.736C74.4188 10.736 75.0008 10.854 75.5328 11.09C76.0648 11.326 76.5248 11.658 76.9128 12.086C77.3048 12.51 77.6088 13.006 77.8248 13.574C78.0408 14.142 78.1488 14.76 78.1488 15.428C78.1488 16.092 78.0408 16.71 77.8248 17.282C77.6088 17.85 77.3048 18.348 76.9128 18.776C76.5248 19.2 76.0648 19.532 75.5328 19.772C75.0008 20.008 74.4188 20.126 73.7868 20.126ZM73.7868 19.562C74.1428 19.562 74.4648 19.498 74.7528 19.37C75.0448 19.242 75.3008 19.058 75.5208 18.818C75.7448 18.574 75.9328 18.282 76.0848 17.942C76.2368 17.602 76.3508 17.218 76.4268 16.79C76.5028 16.362 76.5408 15.898 76.5408 15.398C76.5408 14.906 76.5028 14.45 76.4268 14.03C76.3508 13.606 76.2388 13.226 76.0908 12.89C75.9428 12.554 75.7568 12.268 75.5328 12.032C75.3128 11.792 75.0568 11.61 74.7648 11.486C74.4768 11.358 74.1548 11.294 73.7988 11.294C73.4428 11.294 73.1188 11.358 72.8268 11.486C72.5348 11.61 72.2768 11.792 72.0528 12.032C71.8328 12.272 71.6468 12.562 71.4948 12.902C71.3468 13.238 71.2348 13.618 71.1588 14.042C71.0828 14.466 71.0448 14.926 71.0448 15.422C71.0448 15.918 71.0828 16.378 71.1588 16.802C71.2348 17.226 71.3468 17.608 71.4948 17.948C71.6468 18.288 71.8328 18.578 72.0528 18.818C72.2728 19.058 72.5268 19.242 72.8148 19.37C73.1068 19.498 73.4308 19.562 73.7868 19.562ZM82.3854 20.108C82.0574 20.108 81.7374 20.06 81.4254 19.964C81.1174 19.868 80.7914 19.718 80.4474 19.514L79.9734 20H79.7274L79.5054 16.958L79.8294 16.892C80.0694 17.832 80.3854 18.514 80.7774 18.938C81.1734 19.362 81.6954 19.574 82.3434 19.574C82.8874 19.574 83.3174 19.444 83.6334 19.184C83.9494 18.92 84.1074 18.564 84.1074 18.116C84.1074 17.764 83.9974 17.45 83.7774 17.174C83.5614 16.894 83.2054 16.614 82.7094 16.334L81.7914 15.848C81.0434 15.444 80.5074 15.042 80.1834 14.642C79.8594 14.242 79.6974 13.776 79.6974 13.244C79.6974 12.764 79.8154 12.336 80.0514 11.96C80.2874 11.58 80.6094 11.282 81.0174 11.066C81.4294 10.846 81.8914 10.736 82.4034 10.736C83.1034 10.736 83.7134 10.982 84.2334 11.474L84.5994 10.85H84.8574L84.9654 13.472H84.6234C84.4354 12.724 84.1634 12.172 83.8074 11.816C83.4554 11.456 83.0054 11.276 82.4574 11.276C82.0134 11.276 81.6614 11.394 81.4014 11.63C81.1454 11.866 81.0174 12.19 81.0174 12.602C81.0174 12.974 81.1394 13.306 81.3834 13.598C81.6314 13.89 82.0474 14.19 82.6314 14.498L83.5254 14.978C84.1374 15.302 84.5794 15.662 84.8514 16.058C85.1274 16.454 85.2654 16.908 85.2654 17.42C85.2654 17.928 85.1374 18.386 84.8814 18.794C84.6294 19.198 84.2854 19.518 83.8494 19.754C83.4174 19.99 82.9294 20.108 82.3854 20.108Z" fill="white"/>
<path d="M31 0H5C2.23858 0 0 2.23858 0 5V27C0 29.7614 2.23858 32 5 32H31V0Z" fill="black"/>
<path d="M3 18.545H3.941V16.092C3.941 15.608 4.259 15.257 4.712 15.257C5.151 15.257 5.422 15.533 5.422 15.979V18.545H6.337V16.068C6.337 15.588 6.647 15.256 7.101 15.256C7.561 15.256 7.819 15.536 7.819 16.026V18.544H8.759V15.796C8.759 14.995 8.242 14.462 7.452 14.462C6.874 14.462 6.398 14.772 6.205 15.267H6.182C6.035 14.753 5.63 14.462 5.064 14.462C4.519 14.462 4.096 14.768 3.922 15.233H3.903V14.538H3V18.544V18.545ZM10.82 17.899C10.412 17.899 10.14 17.691 10.14 17.362C10.14 17.044 10.4 16.84 10.854 16.81L11.78 16.753V17.06C11.78 17.543 11.353 17.899 10.82 17.899ZM10.536 18.609C11.05 18.609 11.553 18.341 11.784 17.906H11.802V18.545H12.71V15.785C12.71 14.981 12.063 14.455 11.07 14.455C10.049 14.455 9.41 14.992 9.369 15.74H10.242C10.302 15.408 10.586 15.192 11.032 15.192C11.496 15.192 11.78 15.434 11.78 15.854V16.141L10.722 16.201C9.746 16.262 9.198 16.689 9.198 17.4C9.198 18.121 9.762 18.609 10.536 18.609ZM16.841 15.967C16.776 15.124 16.122 14.455 15.064 14.455C13.9 14.455 13.144 15.26 13.144 16.542C13.144 17.842 13.9 18.624 15.072 18.624C16.077 18.624 16.769 18.034 16.844 17.139H15.956C15.869 17.592 15.559 17.864 15.083 17.864C14.486 17.864 14.101 17.381 14.101 16.542C14.101 15.718 14.482 15.219 15.076 15.219C15.578 15.219 15.876 15.54 15.952 15.967H16.841ZM19.747 13C18.156 13 17.158 14.085 17.158 15.82C17.158 17.555 18.156 18.636 19.748 18.636C21.334 18.636 22.332 17.555 22.332 15.82C22.332 14.085 21.335 13 19.747 13ZM19.747 13.832C20.718 13.832 21.338 14.602 21.338 15.82C21.338 17.033 20.718 17.804 19.748 17.804C18.772 17.804 18.156 17.034 18.156 15.82C18.156 14.603 18.772 13.832 19.747 13.832ZM22.729 17.01C22.771 18.016 23.595 18.636 24.849 18.636C26.169 18.636 27 17.986 27 16.95C27 16.137 26.531 15.68 25.424 15.427L24.797 15.283C24.127 15.125 23.852 14.913 23.852 14.55C23.852 14.097 24.267 13.794 24.884 13.794C25.507 13.794 25.934 14.1 25.98 14.611H26.91C26.887 13.651 26.093 13.001 24.891 13.001C23.704 13.001 22.861 13.654 22.861 14.621C22.861 15.401 23.338 15.884 24.343 16.115L25.05 16.281C25.738 16.444 26.017 16.671 26.017 17.063C26.017 17.517 25.56 17.842 24.902 17.842C24.237 17.842 23.735 17.513 23.674 17.01H22.729Z" fill="white"/>
</svg>
