<svg width="100" height="32" viewBox="0 0 100 32" fill="none" xmlns="http://www.w3.org/2000/svg">
<path d="M95 0H31V32H95C97.7614 32 100 29.7614 100 27V5C100 2.23858 97.7614 0 95 0Z" fill="#0F1418"/>
<path d="M43.176 20.126L40.062 11.876C39.994 11.696 39.918 11.558 39.834 11.462C39.754 11.362 39.638 11.29 39.486 11.246C39.334 11.202 39.12 11.17 38.844 11.15V10.862H42.834V11.15C42.39 11.182 42.076 11.218 41.892 11.258C41.708 11.294 41.612 11.366 41.604 11.474C41.6 11.582 41.64 11.758 41.724 12.002L43.698 17.714H43.752L45.21 13.148L44.742 11.876C44.674 11.696 44.598 11.558 44.514 11.462C44.43 11.362 44.312 11.29 44.16 11.246C44.012 11.202 43.798 11.17 43.518 11.15V10.862H47.514V11.15C47.086 11.178 46.778 11.214 46.59 11.258C46.406 11.298 46.31 11.378 46.302 11.498C46.294 11.614 46.336 11.8 46.428 12.056L48.378 17.714L48.294 17.672L50.112 12.446C50.212 12.162 50.246 11.936 50.214 11.768C50.182 11.596 50.07 11.464 49.878 11.372C49.686 11.28 49.394 11.206 49.002 11.15V10.862H52.392V11.15C51.984 11.21 51.672 11.288 51.456 11.384C51.244 11.476 51.084 11.608 50.976 11.78C50.868 11.948 50.766 12.178 50.67 12.47L48.162 20.126H47.844L45.516 13.934L43.476 20.126H43.176ZM52.485 20V19.736L53.397 19.55V14.66L52.503 14.342V14.156L54.495 13.586H54.627V19.55L55.527 19.736V20H52.485ZM54.003 12.326C53.759 12.326 53.565 12.248 53.421 12.092C53.277 11.936 53.205 11.754 53.205 11.546C53.205 11.318 53.277 11.126 53.421 10.97C53.565 10.814 53.759 10.736 54.003 10.736C54.251 10.736 54.447 10.814 54.591 10.97C54.739 11.126 54.813 11.318 54.813 11.546C54.813 11.754 54.739 11.936 54.591 12.092C54.447 12.248 54.251 12.326 54.003 12.326ZM60.0533 20V19.736L60.9293 19.562V15.71C60.9293 15.234 60.8333 14.88 60.6413 14.648C60.4493 14.412 60.1393 14.294 59.7113 14.294C59.0833 14.294 58.5613 14.58 58.1453 15.152V14.654C58.4813 14.318 58.8493 14.056 59.2493 13.868C59.6493 13.68 60.0473 13.586 60.4433 13.586C61.5833 13.586 62.1533 14.124 62.1533 15.2V19.562L63.0413 19.736V20H60.0533ZM56.1473 20V19.736L57.0473 19.55V14.672L56.1593 14.342V14.168L58.0793 13.586H58.2113V14.648L58.2713 14.708V19.55L59.1533 19.736V20H56.1473ZM66.329 20.126C65.857 20.126 65.433 19.988 65.057 19.712C64.681 19.436 64.383 19.06 64.163 18.584C63.947 18.104 63.839 17.562 63.839 16.958C63.839 16.294 63.971 15.71 64.235 15.206C64.499 14.698 64.867 14.302 65.339 14.018C65.811 13.73 66.357 13.586 66.977 13.586C67.417 13.586 67.849 13.652 68.273 13.784V11.234L67.385 10.892V10.724L69.347 10.142H69.485V19.046L70.307 19.232V19.376L68.453 20.126H68.357V19.136L68.303 19.118C68.055 19.45 67.761 19.702 67.421 19.874C67.085 20.042 66.721 20.126 66.329 20.126ZM66.857 19.334C67.153 19.334 67.427 19.272 67.679 19.148C67.935 19.024 68.133 18.856 68.273 18.644V15.308C68.273 14.88 68.161 14.552 67.937 14.324C67.717 14.096 67.399 13.982 66.983 13.982C66.447 13.982 66.013 14.236 65.681 14.744C65.353 15.252 65.189 15.926 65.189 16.766C65.189 17.558 65.337 18.184 65.633 18.644C65.929 19.104 66.337 19.334 66.857 19.334ZM74.2835 20.126C73.6675 20.126 73.1215 19.984 72.6455 19.7C72.1695 19.412 71.7955 19.022 71.5235 18.53C71.2555 18.034 71.1215 17.476 71.1215 16.856C71.1215 16.232 71.2555 15.674 71.5235 15.182C71.7955 14.69 72.1695 14.302 72.6455 14.018C73.1215 13.73 73.6675 13.586 74.2835 13.586C74.8995 13.586 75.4435 13.73 75.9155 14.018C76.3915 14.302 76.7655 14.69 77.0375 15.182C77.3095 15.674 77.4455 16.232 77.4455 16.856C77.4455 17.476 77.3095 18.034 77.0375 18.53C76.7655 19.022 76.3915 19.412 75.9155 19.7C75.4435 19.984 74.8995 20.126 74.2835 20.126ZM74.2715 19.574C74.5635 19.574 74.8215 19.51 75.0455 19.382C75.2695 19.25 75.4575 19.064 75.6095 18.824C75.7655 18.58 75.8835 18.292 75.9635 17.96C76.0435 17.624 76.0835 17.252 76.0835 16.844C76.0835 16.44 76.0435 16.072 75.9635 15.74C75.8875 15.408 75.7735 15.122 75.6215 14.882C75.4695 14.642 75.2815 14.458 75.0575 14.33C74.8335 14.198 74.5755 14.132 74.2835 14.132C73.9915 14.132 73.7335 14.198 73.5095 14.33C73.2855 14.458 73.0975 14.642 72.9455 14.882C72.7935 15.122 72.6775 15.41 72.5975 15.746C72.5215 16.078 72.4835 16.448 72.4835 16.856C72.4835 17.264 72.5215 17.634 72.5975 17.966C72.6775 18.298 72.7935 18.584 72.9455 18.824C73.0975 19.064 73.2835 19.25 73.5035 19.382C73.7275 19.51 73.9835 19.574 74.2715 19.574ZM84.0333 20.126L82.1613 14.48C82.1093 14.292 82.0253 14.166 81.9093 14.102C81.7973 14.034 81.6273 13.99 81.3993 13.97V13.706H84.2793V13.97C83.8673 13.998 83.6173 14.048 83.5293 14.12C83.4413 14.192 83.4353 14.354 83.5113 14.606L84.6813 18.452H84.7293L85.9773 14.864C86.0133 14.772 86.0393 14.688 86.0553 14.612C86.0753 14.536 86.0853 14.468 86.0853 14.408C86.0853 14.284 86.0253 14.192 85.9053 14.132C85.7853 14.068 85.5633 14.014 85.2393 13.97V13.706H87.7053V13.97C87.4053 14.018 87.1793 14.076 87.0273 14.144C86.8753 14.212 86.7613 14.304 86.6853 14.42C86.6133 14.532 86.5413 14.686 86.4693 14.882L84.6213 20.126H84.0333ZM80.3793 20.126L78.3993 14.48C78.3353 14.292 78.2493 14.166 78.1413 14.102C78.0333 14.034 77.8293 13.99 77.5293 13.97V13.706H80.6193V13.97C80.3433 13.986 80.1413 14.012 80.0133 14.048C79.8893 14.08 79.8193 14.138 79.8033 14.222C79.7913 14.306 79.8093 14.434 79.8573 14.606L81.0273 18.452H81.0693L82.3953 14.774L82.8873 14.798L80.9493 20.126H80.3793ZM89.7344 20.126C89.4784 20.126 89.1944 20.1 88.8824 20.048C88.5744 20 88.3044 19.938 88.0724 19.862L87.9944 17.936H88.3064C88.3584 18.528 88.5104 18.976 88.7624 19.28C89.0144 19.58 89.3644 19.73 89.8124 19.73C90.1604 19.73 90.4384 19.634 90.6464 19.442C90.8584 19.246 90.9644 18.99 90.9644 18.674C90.9644 18.41 90.8864 18.184 90.7304 17.996C90.5744 17.804 90.3044 17.61 89.9204 17.414L89.4224 17.168C88.9104 16.912 88.5444 16.644 88.3244 16.364C88.1044 16.08 87.9944 15.738 87.9944 15.338C87.9944 14.778 88.1884 14.346 88.5764 14.042C88.9684 13.738 89.5264 13.586 90.2504 13.586C90.5304 13.586 90.8004 13.606 91.0604 13.646C91.3244 13.682 91.5304 13.732 91.6784 13.796V15.44H91.4024C91.2864 14.464 90.8324 13.976 90.0404 13.976C89.7324 13.976 89.4844 14.06 89.2964 14.228C89.1124 14.392 89.0204 14.616 89.0204 14.9C89.0204 15.148 89.1004 15.36 89.2604 15.536C89.4244 15.712 89.7004 15.894 90.0884 16.082L90.6344 16.346C91.1064 16.578 91.4464 16.834 91.6544 17.114C91.8624 17.394 91.9664 17.748 91.9664 18.176C91.9664 18.772 91.7664 19.246 91.3664 19.598C90.9664 19.95 90.4224 20.126 89.7344 20.126Z" fill="white"/>
<path d="M31 0H5C2.23858 0 0 2.23858 0 5V27C0 29.7614 2.23858 32 5 32H31V0Z" fill="#00ADEF"/>
<path d="M25.5 15.25H15.75C15.3 15.25 15 14.95 15 14.5V6.475C15 6.1 15.3 5.8 15.6 5.725L25.35 4C25.575 4 25.8 4 25.95 4.15C26.175 4.3 26.25 4.525 26.25 4.75V14.5C26.25 14.95 25.95 15.25 25.5 15.25Z" fill="white"/>
<path d="M12.75 15.25H3.75C3.3 15.25 3 14.95 3 14.5V8.5C3 8.125 3.3 7.825 3.6 7.75L12.6 6.25C12.825 6.25 13.05 6.25 13.2 6.4C13.425 6.55 13.5 6.775 13.5 7V14.5C13.5 14.95 13.2 15.25 12.75 15.25Z" fill="white"/>
<path d="M25.5 28C25.425 28 25.425 28 25.35 28L15.6 26.275C15.225 26.2 15 25.9 15 25.525V17.5C15 17.05 15.3 16.75 15.75 16.75H25.5C25.95 16.75 26.25 17.05 26.25 17.5V27.25C26.25 27.475 26.175 27.7 25.95 27.85C25.875 27.925 25.65 28 25.5 28Z" fill="white"/>
<path d="M12.75 25.75C12.675 25.75 12.675 25.75 12.6 25.75L3.6 24.25C3.3 24.175 3 23.875 3 23.5V17.5C3 17.05 3.3 16.75 3.75 16.75H12.75C13.2 16.75 13.5 17.05 13.5 17.5V25C13.5 25.225 13.425 25.45 13.2 25.6C13.125 25.675 12.9 25.75 12.75 25.75Z" fill="white"/>
</svg>
