<svg width="143" height="32" viewBox="0 0 143 32" fill="none" xmlns="http://www.w3.org/2000/svg">
<path d="M134.884 0H31V32H134.884C139.366 32 143 29.7614 143 27V5C143 2.23858 139.366 0 134.884 0Z" fill="#0F1418"/>
<path d="M42.724 21V20.712C43.136 20.644 43.446 20.562 43.654 20.466C43.862 20.366 44.018 20.232 44.122 20.064C44.226 19.892 44.328 19.666 44.428 19.386L46.726 13.032L46.39 12.27L47.638 11.622L50.806 19.98C50.874 20.164 50.948 20.304 51.028 20.4C51.112 20.496 51.23 20.566 51.382 20.61C51.534 20.654 51.748 20.688 52.024 20.712V21H48.1V20.712C48.488 20.688 48.778 20.66 48.97 20.628C49.162 20.592 49.272 20.514 49.3 20.394C49.328 20.27 49.292 20.068 49.192 19.788L47.032 13.866H46.996L44.962 19.524C44.874 19.768 44.85 19.968 44.89 20.124C44.93 20.276 45.048 20.398 45.244 20.49C45.44 20.578 45.726 20.652 46.102 20.712V21H42.724ZM45.412 17.736V17.232H48.7V17.736H45.412ZM56.1665 21V20.736L57.0425 20.562V16.71C57.0425 16.234 56.9465 15.88 56.7545 15.648C56.5625 15.412 56.2525 15.294 55.8245 15.294C55.1965 15.294 54.6745 15.58 54.2585 16.152V15.654C54.5945 15.318 54.9625 15.056 55.3625 14.868C55.7625 14.68 56.1605 14.586 56.5565 14.586C57.6965 14.586 58.2665 15.124 58.2665 16.2V20.562L59.1545 20.736V21H56.1665ZM52.2605 21V20.736L53.1605 20.55V15.672L52.2725 15.342V15.168L54.1925 14.586H54.3245V15.648L54.3845 15.708V20.55L55.2665 20.736V21H52.2605ZM62.4423 21.126C61.9703 21.126 61.5463 20.988 61.1702 20.712C60.7943 20.436 60.4963 20.06 60.2763 19.584C60.0603 19.104 59.9523 18.562 59.9523 17.958C59.9523 17.294 60.0843 16.71 60.3483 16.206C60.6123 15.698 60.9803 15.302 61.4523 15.018C61.9243 14.73 62.4703 14.586 63.0903 14.586C63.5303 14.586 63.9623 14.652 64.3863 14.784V12.234L63.4983 11.892V11.724L65.4603 11.142H65.5983V20.046L66.4203 20.232V20.376L64.5663 21.126H64.4703V20.136L64.4163 20.118C64.1683 20.45 63.8743 20.702 63.5343 20.874C63.1983 21.042 62.8343 21.126 62.4423 21.126ZM62.9703 20.334C63.2663 20.334 63.5403 20.272 63.7923 20.148C64.0483 20.024 64.2463 19.856 64.3863 19.644V16.308C64.3863 15.88 64.2743 15.552 64.0503 15.324C63.8303 15.096 63.5123 14.982 63.0963 14.982C62.5603 14.982 62.1263 15.236 61.7943 15.744C61.4663 16.252 61.3023 16.926 61.3023 17.766C61.3023 18.558 61.4503 19.184 61.7463 19.644C62.0423 20.104 62.4503 20.334 62.9703 20.334ZM67.0908 21V20.736L67.9908 20.55V15.66L67.1147 15.33V15.156L69.0348 14.58H69.1668V15.876L69.2148 15.936V20.55L70.4508 20.736V21H67.0908ZM69.1248 16.428L69.1008 15.936C69.3968 15.5 69.6908 15.164 69.9828 14.928C70.2788 14.692 70.5548 14.574 70.8108 14.574C71.0308 14.574 71.2168 14.65 71.3688 14.802C71.5208 14.95 71.5968 15.13 71.5968 15.342C71.5968 15.538 71.5308 15.704 71.3988 15.84C71.2668 15.972 71.1028 16.038 70.9068 16.038C70.7068 16.038 70.5508 15.964 70.4388 15.816C70.3588 15.724 70.2908 15.662 70.2348 15.63C70.1788 15.594 70.1148 15.576 70.0428 15.576C69.9268 15.576 69.7808 15.654 69.6048 15.81C69.4328 15.962 69.2728 16.168 69.1248 16.428ZM75.2952 21.126C74.6792 21.126 74.1332 20.984 73.6572 20.7C73.1812 20.412 72.8072 20.022 72.5352 19.53C72.2672 19.034 72.1332 18.476 72.1332 17.856C72.1332 17.232 72.2672 16.674 72.5352 16.182C72.8072 15.69 73.1812 15.302 73.6572 15.018C74.1332 14.73 74.6792 14.586 75.2952 14.586C75.9112 14.586 76.4552 14.73 76.9272 15.018C77.4032 15.302 77.7772 15.69 78.0492 16.182C78.3212 16.674 78.4572 17.232 78.4572 17.856C78.4572 18.476 78.3212 19.034 78.0492 19.53C77.7772 20.022 77.4032 20.412 76.9272 20.7C76.4552 20.984 75.9112 21.126 75.2952 21.126ZM75.2832 20.574C75.5752 20.574 75.8332 20.51 76.0572 20.382C76.2812 20.25 76.4692 20.064 76.6212 19.824C76.7772 19.58 76.8952 19.292 76.9752 18.96C77.0552 18.624 77.0952 18.252 77.0952 17.844C77.0952 17.44 77.0552 17.072 76.9752 16.74C76.8992 16.408 76.7852 16.122 76.6332 15.882C76.4812 15.642 76.2932 15.458 76.0692 15.33C75.8452 15.198 75.5872 15.132 75.2952 15.132C75.0032 15.132 74.7452 15.198 74.5212 15.33C74.2972 15.458 74.1092 15.642 73.9572 15.882C73.8052 16.122 73.6892 16.41 73.6092 16.746C73.5332 17.078 73.4952 17.448 73.4952 17.856C73.4952 18.264 73.5332 18.634 73.6092 18.966C73.6892 19.298 73.8052 19.584 73.9572 19.824C74.1092 20.064 74.2952 20.25 74.5152 20.382C74.7392 20.51 74.9952 20.574 75.2832 20.574ZM79.3366 21V20.736L80.2486 20.55V15.66L79.3546 15.342V15.156L81.3466 14.586H81.4786V20.55L82.3786 20.736V21H79.3366ZM80.8546 13.326C80.6106 13.326 80.4166 13.248 80.2726 13.092C80.1286 12.936 80.0566 12.754 80.0566 12.546C80.0566 12.318 80.1286 12.126 80.2726 11.97C80.4166 11.814 80.6106 11.736 80.8546 11.736C81.1026 11.736 81.2986 11.814 81.4426 11.97C81.5906 12.126 81.6646 12.318 81.6646 12.546C81.6646 12.754 81.5906 12.936 81.4426 13.092C81.2986 13.248 81.1026 13.326 80.8546 13.326ZM85.6688 21.126C85.1968 21.126 84.7728 20.988 84.3968 20.712C84.0208 20.436 83.7228 20.06 83.5028 19.584C83.2868 19.104 83.1788 18.562 83.1788 17.958C83.1788 17.294 83.3108 16.71 83.5748 16.206C83.8388 15.698 84.2068 15.302 84.6788 15.018C85.1508 14.73 85.6968 14.586 86.3168 14.586C86.7568 14.586 87.1888 14.652 87.6128 14.784V12.234L86.7248 11.892V11.724L88.6868 11.142H88.8248V20.046L89.6468 20.232V20.376L87.7928 21.126H87.6968V20.136L87.6428 20.118C87.3948 20.45 87.1008 20.702 86.7608 20.874C86.4248 21.042 86.0608 21.126 85.6688 21.126ZM86.1968 20.334C86.4928 20.334 86.7668 20.272 87.0188 20.148C87.2748 20.024 87.4728 19.856 87.6128 19.644V16.308C87.6128 15.88 87.5008 15.552 87.2768 15.324C87.0568 15.096 86.7388 14.982 86.3228 14.982C85.7868 14.982 85.3528 15.236 85.0208 15.744C84.6928 16.252 84.5288 16.926 84.5288 17.766C84.5288 18.558 84.6768 19.184 84.9728 19.644C85.2688 20.104 85.6768 20.334 86.1968 20.334ZM96.7565 21.108C96.4285 21.108 96.1085 21.06 95.7965 20.964C95.4885 20.868 95.1625 20.718 94.8185 20.514L94.3445 21H94.0985L93.8765 17.958L94.2005 17.892C94.4405 18.832 94.7565 19.514 95.1485 19.938C95.5445 20.362 96.0665 20.574 96.7145 20.574C97.2585 20.574 97.6885 20.444 98.0045 20.184C98.3205 19.92 98.4785 19.564 98.4785 19.116C98.4785 18.764 98.3685 18.45 98.1485 18.174C97.9325 17.894 97.5765 17.614 97.0805 17.334L96.1625 16.848C95.4145 16.444 94.8785 16.042 94.5545 15.642C94.2305 15.242 94.0685 14.776 94.0685 14.244C94.0685 13.764 94.1865 13.336 94.4225 12.96C94.6585 12.58 94.9805 12.282 95.3885 12.066C95.8005 11.846 96.2625 11.736 96.7745 11.736C97.4745 11.736 98.0845 11.982 98.6045 12.474L98.9705 11.85H99.2285L99.3365 14.472H98.9945C98.8065 13.724 98.5345 13.172 98.1785 12.816C97.8265 12.456 97.3765 12.276 96.8285 12.276C96.3845 12.276 96.0325 12.394 95.7725 12.63C95.5165 12.866 95.3885 13.19 95.3885 13.602C95.3885 13.974 95.5105 14.306 95.7545 14.598C96.0025 14.89 96.4185 15.19 97.0025 15.498L97.8965 15.978C98.5085 16.302 98.9505 16.662 99.2225 17.058C99.4985 17.454 99.6365 17.908 99.6365 18.42C99.6365 18.928 99.5085 19.386 99.2525 19.794C99.0005 20.198 98.6565 20.518 98.2205 20.754C97.7885 20.99 97.3005 21.108 96.7565 21.108ZM102.83 21.126C102.386 21.126 102.048 21 101.816 20.748C101.584 20.496 101.468 20.134 101.468 19.662V15.15H100.688L100.652 14.934L102.452 13.146L102.686 13.17V14.706H104.402L104.3 15.15H102.686V19.542C102.686 20.198 102.922 20.526 103.394 20.526C103.554 20.526 103.712 20.484 103.868 20.4C104.028 20.316 104.164 20.2 104.276 20.052L104.486 20.238C104.302 20.51 104.062 20.726 103.766 20.886C103.474 21.046 103.162 21.126 102.83 21.126ZM107.456 21.126C106.856 21.126 106.418 20.988 106.142 20.712C105.866 20.432 105.728 20.028 105.728 19.5V15.156L104.84 14.97V14.706H106.952V19.02C106.952 19.544 107.044 19.904 107.228 20.1C107.416 20.296 107.712 20.394 108.116 20.394C108.392 20.394 108.662 20.322 108.926 20.178C109.19 20.034 109.434 19.808 109.658 19.5V19.98C109.354 20.352 109.012 20.636 108.632 20.832C108.252 21.028 107.86 21.126 107.456 21.126ZM109.616 21.126V19.944L109.55 19.92V15.156L108.668 14.97V14.706H110.774V20.088L111.59 20.376V20.538L109.718 21.126H109.616ZM115.001 21.126C114.529 21.126 114.105 20.988 113.729 20.712C113.353 20.436 113.055 20.06 112.835 19.584C112.619 19.104 112.511 18.562 112.511 17.958C112.511 17.294 112.643 16.71 112.907 16.206C113.171 15.698 113.539 15.302 114.011 15.018C114.483 14.73 115.029 14.586 115.649 14.586C116.089 14.586 116.521 14.652 116.945 14.784V12.234L116.057 11.892V11.724L118.019 11.142H118.157V20.046L118.979 20.232V20.376L117.125 21.126H117.029V20.136L116.975 20.118C116.727 20.45 116.433 20.702 116.093 20.874C115.757 21.042 115.393 21.126 115.001 21.126ZM115.529 20.334C115.825 20.334 116.099 20.272 116.351 20.148C116.607 20.024 116.805 19.856 116.945 19.644V16.308C116.945 15.88 116.833 15.552 116.609 15.324C116.389 15.096 116.071 14.982 115.655 14.982C115.119 14.982 114.685 15.236 114.353 15.744C114.025 16.252 113.861 16.926 113.861 17.766C113.861 18.558 114.009 19.184 114.305 19.644C114.601 20.104 115.009 20.334 115.529 20.334ZM119.637 21V20.736L120.549 20.55V15.66L119.655 15.342V15.156L121.647 14.586H121.779V20.55L122.679 20.736V21H119.637ZM121.155 13.326C120.911 13.326 120.717 13.248 120.573 13.092C120.429 12.936 120.357 12.754 120.357 12.546C120.357 12.318 120.429 12.126 120.573 11.97C120.717 11.814 120.911 11.736 121.155 11.736C121.403 11.736 121.599 11.814 121.743 11.97C121.891 12.126 121.965 12.318 121.965 12.546C121.965 12.754 121.891 12.936 121.743 13.092C121.599 13.248 121.403 13.326 121.155 13.326ZM126.612 21.126C125.996 21.126 125.45 20.984 124.974 20.7C124.498 20.412 124.124 20.022 123.852 19.53C123.584 19.034 123.45 18.476 123.45 17.856C123.45 17.232 123.584 16.674 123.852 16.182C124.124 15.69 124.498 15.302 124.974 15.018C125.45 14.73 125.996 14.586 126.612 14.586C127.228 14.586 127.772 14.73 128.244 15.018C128.72 15.302 129.094 15.69 129.366 16.182C129.638 16.674 129.774 17.232 129.774 17.856C129.774 18.476 129.638 19.034 129.366 19.53C129.094 20.022 128.72 20.412 128.244 20.7C127.772 20.984 127.228 21.126 126.612 21.126ZM126.6 20.574C126.892 20.574 127.15 20.51 127.374 20.382C127.598 20.25 127.786 20.064 127.938 19.824C128.094 19.58 128.212 19.292 128.292 18.96C128.372 18.624 128.412 18.252 128.412 17.844C128.412 17.44 128.372 17.072 128.292 16.74C128.216 16.408 128.102 16.122 127.95 15.882C127.798 15.642 127.61 15.458 127.386 15.33C127.162 15.198 126.904 15.132 126.612 15.132C126.32 15.132 126.062 15.198 125.838 15.33C125.614 15.458 125.426 15.642 125.274 15.882C125.122 16.122 125.006 16.41 124.926 16.746C124.85 17.078 124.812 17.448 124.812 17.856C124.812 18.264 124.85 18.634 124.926 18.966C125.006 19.298 125.122 19.584 125.274 19.824C125.426 20.064 125.612 20.25 125.832 20.382C126.056 20.51 126.312 20.574 126.6 20.574Z" fill="white"/>
<path d="M31 0H5C2.23858 0 0 2.23858 0 5V27C0 29.7614 2.23858 32 5 32H31V0Z" fill="#3DDC84"/>
<path d="M22.1597 14.3368C21.8276 14.3368 21.5571 14.6073 21.5571 14.9399V24.7723H19.8192L16.4837 17.8327C16.9597 17.294 17.1634 16.5467 17.008 15.8318C16.9364 15.4785 16.7823 15.1471 16.5582 14.8648C16.3342 14.5824 16.0465 14.357 15.7187 14.207V13.3946C15.7308 13.1075 15.5761 12.8159 15.3144 12.6539C15.1753 12.5714 15.026 12.5305 14.8742 12.5305C14.7223 12.5305 14.5732 12.5713 14.4424 12.6487C14.1723 12.8158 14.0176 13.1074 14.0301 13.4149L14.0298 14.1359C13.0149 14.5027 12.3679 15.5512 12.5431 16.6556C12.614 17.1094 12.8202 17.5312 13.1347 17.8659L9.92513 24.7723H6.98323C5.88833 24.7653 5.00353 23.8775 5.00003 22.7827V9.016C4.99453 10.1184 5.88363 11.0166 6.98593 11.0222C7.03015 11.0224 7.07438 11.0212 7.11853 11.0185H21.8638C21.8638 11.0185 24.3981 10.7996 24.7257 12.5577C24.4766 12.5864 24.2808 12.7898 24.2808 13.0466C24.2808 13.7581 23.7017 14.3367 22.978 14.3367L22.1597 14.3368ZM20.1124 26.5366C20.3471 27.0203 20.1453 27.6026 19.6617 27.8373C19.5321 27.9002 19.3951 27.9268 19.2599 27.93C19.1517 27.9327 19.0437 27.9173 18.9405 27.8845C18.9165 27.8767 18.8945 27.8636 18.8711 27.854C18.7896 27.8205 18.713 27.7761 18.6434 27.7219C18.6187 27.7027 18.5939 27.6839 18.571 27.6621C18.4885 27.5838 18.4136 27.4949 18.361 27.3864L17.1056 24.7721L15.5471 21.5269C15.4848 21.394 15.3859 21.2817 15.262 21.203C15.1381 21.1243 14.9944 21.0826 14.8476 21.0826H14.8452C14.6975 21.0832 14.5528 21.1252 14.4277 21.2037C14.3025 21.2822 14.2018 21.3941 14.1369 21.5269L12.626 24.7721L11.3939 27.4185C11.3246 27.5776 11.2141 27.7152 11.0736 27.8171C10.9332 27.919 10.7681 27.9814 10.5954 27.998C10.5328 28.0033 10.4716 27.9956 10.4104 27.9893C10.376 27.9857 10.3414 27.984 10.3079 27.9769C10.259 27.9666 10.2125 27.9491 10.1659 27.9317C10.1358 27.9204 10.1046 27.912 10.0758 27.8978C10.0262 27.8734 9.98103 27.8413 9.93613 27.8089C9.91443 27.7933 9.89043 27.7814 9.86993 27.7639C9.80582 27.7099 9.74886 27.6479 9.70043 27.5795C9.60233 27.4363 9.54408 27.2696 9.53164 27.0965C9.5192 26.9234 9.55301 26.75 9.62963 26.5943L10.4765 24.772L13.7441 17.7406C13.3648 17.4605 13.1108 17.0426 13.0369 16.5769C12.8814 15.597 13.5498 14.6766 14.5297 14.521V13.3946C14.5272 13.3319 14.5413 13.2696 14.5707 13.2142C14.6002 13.1588 14.6438 13.1121 14.6971 13.0791C14.7507 13.0473 14.8119 13.0305 14.8742 13.0305C14.9365 13.0305 14.9976 13.0473 15.0512 13.0791C15.1046 13.1121 15.1482 13.1588 15.1776 13.2142C15.207 13.2696 15.2212 13.3319 15.2186 13.3946V14.5536L15.2315 14.56C15.5525 14.6484 15.8427 14.8239 16.07 15.0672C16.2973 15.3104 16.4528 15.6118 16.5193 15.938C16.5906 16.2658 16.568 16.607 16.4541 16.9225C16.3402 17.238 16.1396 17.5149 15.8754 17.7216L19.2643 24.7723L20.1124 26.5366ZM15.8745 16.306C15.8787 15.6979 15.3891 15.2016 14.781 15.1975C14.4871 15.1976 14.2049 15.3132 13.9954 15.5194C13.7904 15.7241 13.6744 16.0013 13.6724 16.291C13.6682 16.8991 14.1578 17.3954 14.7659 17.3995H14.7736C15.3782 17.3995 15.8703 16.9115 15.8745 16.306ZM14.8475 21.5828C14.7356 21.5833 14.6354 21.646 14.5904 21.7381L13.1777 24.7723H16.551L15.0946 21.7395C15.0725 21.6927 15.0375 21.6531 14.9937 21.6254C14.95 21.5977 14.8993 21.5829 14.8475 21.5828ZM22.9907 14.8369L22.9778 14.8368H22.1601C22.1466 14.8368 22.1332 14.8395 22.1207 14.8446C22.1082 14.8498 22.0969 14.8574 22.0873 14.867C22.0777 14.8765 22.0701 14.8879 22.065 14.9004C22.0598 14.9129 22.0571 14.9263 22.0571 14.9398V27.8501C22.0571 27.8763 22.067 27.9016 22.085 27.9208C22.1029 27.9399 22.1275 27.9515 22.1537 27.9531H22.9972C23.9833 27.9496 24.7808 27.1491 24.7808 26.1631V13.0468C24.7808 14.0355 23.9794 14.8369 22.9907 14.8369ZM5.50023 9.0161V9.0351C5.50413 9.8511 6.17213 10.5181 6.98763 10.522C7.03125 10.5206 7.07489 10.5195 7.11853 10.5186H8.24713C8.44433 9.2036 9.00782 7.9936 9.88513 7.0327H6.98973C6.06313 7.0358 5.29263 7.6728 5.07063 8.5302C5.31233 8.5657 5.50023 8.7652 5.50023 9.0161ZM11.8383 6.1184L10.8016 4.3284C10.7824 4.29512 10.7723 4.25737 10.7723 4.21895C10.7723 4.18053 10.7824 4.14278 10.8016 4.1095C10.8219 4.0778 10.8494 4.05135 10.8819 4.03232C10.9143 4.01329 10.9509 4.00221 10.9884 4C11.0264 4.0005 11.0635 4.01085 11.0962 4.03003C11.129 4.04921 11.1561 4.07656 11.1751 4.1094L12.2247 5.9252C13.061 5.54961 13.9673 5.35542 14.884 5.35542C15.8007 5.35542 16.7071 5.54961 17.5433 5.9252L18.5864 4.1094C18.6194 4.06872 18.6658 4.0412 18.7174 4.03184C18.7689 4.02248 18.822 4.03189 18.8672 4.05837C18.9124 4.08485 18.9466 4.12664 18.9635 4.17617C18.9805 4.22569 18.9792 4.27967 18.9598 4.3283L17.9296 6.1183C19.5967 7.0308 20.727 8.6622 21.0271 10.5201L8.74113 10.5187C9.04152 8.6615 10.1716 7.0307 11.8383 6.1184ZM17.2157 8.7386C17.2173 8.80623 17.2322 8.87288 17.2595 8.93475C17.2869 8.99662 17.3262 9.0525 17.3751 9.09919C17.4241 9.14589 17.4817 9.18248 17.5448 9.20688C17.6079 9.23128 17.6752 9.24301 17.7428 9.2414C17.8105 9.24141 17.8775 9.2281 17.94 9.20222C18.0025 9.17634 18.0593 9.13839 18.1071 9.09056C18.1549 9.04273 18.1929 8.98594 18.2187 8.92344C18.2446 8.86093 18.2579 8.79395 18.2579 8.7263C18.2573 8.62362 18.2264 8.52341 18.1691 8.43823C18.1118 8.35305 18.0306 8.2867 17.9357 8.2475C17.8408 8.2083 17.7364 8.198 17.6357 8.21789C17.5349 8.23778 17.4423 8.28697 17.3694 8.3593C17.3193 8.40867 17.2797 8.46779 17.2533 8.53303C17.2269 8.59827 17.2141 8.66823 17.2157 8.7386ZM11.4979 8.7319C11.4987 8.79955 11.5127 8.86638 11.5393 8.9286C11.5658 8.99081 11.6044 9.04719 11.6527 9.0945C11.7011 9.14181 11.7583 9.17914 11.8211 9.20434C11.8839 9.22955 11.951 9.24214 12.0186 9.2414C12.0866 9.24249 12.1541 9.22995 12.2171 9.20451C12.2802 9.17907 12.3375 9.14126 12.3856 9.0933C12.4418 9.04709 12.4877 8.98964 12.5203 8.92463C12.553 8.85963 12.5717 8.78852 12.5752 8.71586C12.5787 8.64321 12.567 8.57062 12.5408 8.50276C12.5146 8.4349 12.4745 8.37327 12.4231 8.32183C12.3717 8.27039 12.31 8.23028 12.2422 8.20408C12.1743 8.17787 12.1017 8.16615 12.0291 8.16967C11.9564 8.17319 11.8853 8.19187 11.8203 8.22451C11.7553 8.25715 11.6978 8.30303 11.6516 8.3592C11.6023 8.40779 11.5632 8.46585 11.5368 8.52989C11.5104 8.59392 11.4972 8.66263 11.4979 8.7319Z" fill="white"/>
</svg>
