<svg width="154" height="32" viewBox="0 0 154 32" fill="none" xmlns="http://www.w3.org/2000/svg">
<path d="M145.087 0H31V32H145.087C150.009 32 154 29.7614 154 27V5C154 2.23858 150.009 0 145.087 0Z" fill="#0F1418"/>
<path d="M39.724 20V19.712C40.136 19.644 40.446 19.562 40.654 19.466C40.862 19.366 41.018 19.232 41.122 19.064C41.226 18.892 41.328 18.666 41.428 18.386L43.726 12.032L43.39 11.27L44.638 10.622L47.806 18.98C47.874 19.164 47.948 19.304 48.028 19.4C48.112 19.496 48.23 19.566 48.382 19.61C48.534 19.654 48.748 19.688 49.024 19.712V20H45.1V19.712C45.488 19.688 45.778 19.66 45.97 19.628C46.162 19.592 46.272 19.514 46.3 19.394C46.328 19.27 46.292 19.068 46.192 18.788L44.032 12.866H43.996L41.962 18.524C41.874 18.768 41.85 18.968 41.89 19.124C41.93 19.276 42.048 19.398 42.244 19.49C42.44 19.578 42.726 19.652 43.102 19.712V20H39.724ZM42.412 16.736V16.232H45.7V16.736H42.412ZM49.3505 20V19.664L53.0345 14.114H50.4845C50.2845 14.646 50.1405 15.058 50.0525 15.35C49.9645 15.642 49.9005 15.882 49.8605 16.07L49.5845 16.04L49.7345 13.706H54.5825V14.036L50.8565 19.598H53.5505C53.6905 19.254 53.8125 18.91 53.9165 18.566C54.0245 18.222 54.1025 17.934 54.1505 17.702L54.4265 17.726L54.3485 20H49.3505ZM57.968 20.126C57.368 20.126 56.93 19.988 56.654 19.712C56.378 19.432 56.24 19.028 56.24 18.5V14.156L55.352 13.97V13.706H57.464V18.02C57.464 18.544 57.556 18.904 57.74 19.1C57.928 19.296 58.224 19.394 58.628 19.394C58.904 19.394 59.174 19.322 59.438 19.178C59.702 19.034 59.946 18.808 60.17 18.5V18.98C59.866 19.352 59.524 19.636 59.144 19.832C58.764 20.028 58.372 20.126 57.968 20.126ZM60.128 20.126V18.944L60.062 18.92V14.156L59.18 13.97V13.706H61.286V19.088L62.102 19.376V19.538L60.23 20.126H60.128ZM62.8486 20V19.736L63.7486 19.55V14.66L62.8726 14.33V14.156L64.7926 13.58H64.9246V14.876L64.9726 14.936V19.55L66.2086 19.736V20H62.8486ZM64.8826 15.428L64.8586 14.936C65.1546 14.5 65.4486 14.164 65.7406 13.928C66.0366 13.692 66.3126 13.574 66.5686 13.574C66.7886 13.574 66.9746 13.65 67.1266 13.802C67.2786 13.95 67.3546 14.13 67.3546 14.342C67.3546 14.538 67.2886 14.704 67.1566 14.84C67.0246 14.972 66.8606 15.038 66.6646 15.038C66.4646 15.038 66.3086 14.964 66.1966 14.816C66.1166 14.724 66.0486 14.662 65.9926 14.63C65.9366 14.594 65.8726 14.576 65.8006 14.576C65.6846 14.576 65.5386 14.654 65.3626 14.81C65.1906 14.962 65.0306 15.168 64.8826 15.428ZM70.825 20.126C70.245 20.126 69.735 19.994 69.295 19.73C68.859 19.462 68.519 19.09 68.275 18.614C68.035 18.134 67.915 17.58 67.915 16.952C67.915 16.284 68.049 15.698 68.317 15.194C68.589 14.69 68.967 14.296 69.451 14.012C69.939 13.728 70.503 13.586 71.143 13.586C71.935 13.586 72.541 13.816 72.961 14.276C73.385 14.736 73.605 15.41 73.621 16.298L73.537 16.37H68.887V16.022L72.247 15.902C72.275 15.798 72.289 15.64 72.289 15.428C72.289 14.468 71.867 13.988 71.023 13.988C70.443 13.988 69.995 14.216 69.679 14.672C69.367 15.124 69.211 15.766 69.211 16.598C69.211 18.338 69.887 19.208 71.239 19.208C72.119 19.208 72.793 18.888 73.261 18.248L73.483 18.386C73.275 18.938 72.937 19.366 72.469 19.67C72.005 19.974 71.457 20.126 70.825 20.126ZM77.8531 20V19.7L78.8731 19.472V11.378L77.8531 11.15V10.862H80.8471C81.4871 10.862 82.0371 10.89 82.4971 10.946C82.9611 11.002 83.3651 11.094 83.7091 11.222C84.0571 11.346 84.3711 11.514 84.6511 11.726C85.1951 12.13 85.6151 12.656 85.9111 13.304C86.2071 13.948 86.3551 14.662 86.3551 15.446C86.3551 16.254 86.1971 16.998 85.8811 17.678C85.5651 18.354 85.1291 18.894 84.5731 19.298C84.2211 19.55 83.8371 19.73 83.4211 19.838C83.0051 19.946 82.4971 20 81.8971 20H77.8531ZM81.4531 19.526C82.0211 19.526 82.4871 19.454 82.8511 19.31C83.2151 19.162 83.5371 18.92 83.8171 18.584C84.1251 18.2 84.3591 17.73 84.5191 17.174C84.6831 16.614 84.7651 15.996 84.7651 15.32C84.7651 14.644 84.6831 14.046 84.5191 13.526C84.3551 13.006 84.1131 12.57 83.7931 12.218C83.5011 11.91 83.1531 11.69 82.7491 11.558C82.3451 11.422 81.8211 11.354 81.1771 11.354H80.2231V18.812C80.2231 19.08 80.3131 19.266 80.4931 19.37C80.6731 19.474 80.9931 19.526 81.4531 19.526ZM89.0079 20.126C88.5799 20.126 88.2319 19.992 87.9639 19.724C87.6999 19.456 87.5679 19.108 87.5679 18.68C87.5679 18.328 87.6759 18.024 87.8919 17.768C88.1079 17.512 88.4559 17.288 88.9359 17.096C89.4199 16.9 90.0579 16.722 90.8499 16.562V15.44C90.8499 14.932 90.7799 14.576 90.6399 14.372C90.5039 14.168 90.2679 14.066 89.9319 14.066C89.5999 14.066 89.3359 14.146 89.1399 14.306C88.9439 14.466 88.8459 14.682 88.8459 14.954C88.8459 15.03 88.8499 15.106 88.8579 15.182C88.8699 15.254 88.8759 15.324 88.8759 15.392C88.8759 15.596 88.8139 15.764 88.6899 15.896C88.5699 16.028 88.4159 16.094 88.2279 16.094C88.0559 16.094 87.9159 16.038 87.8079 15.926C87.7039 15.814 87.6519 15.668 87.6519 15.488C87.6519 15.228 87.7639 14.962 87.9879 14.69C88.2159 14.414 88.5159 14.178 88.8879 13.982C89.3839 13.718 89.9219 13.586 90.5019 13.586C90.8499 13.586 91.1439 13.64 91.3839 13.748C91.6279 13.856 91.8039 14.01 91.9119 14.21C91.9759 14.346 92.0179 14.518 92.0379 14.726C92.0619 14.934 92.0739 15.282 92.0739 15.77V18.452C92.0739 18.84 92.1039 19.104 92.1639 19.244C92.2279 19.384 92.3459 19.454 92.5179 19.454C92.7139 19.454 92.9039 19.342 93.0879 19.118L93.3039 19.322C93.1079 19.606 92.9079 19.812 92.7039 19.94C92.5039 20.064 92.2699 20.126 92.0019 20.126C91.6779 20.126 91.4259 20.038 91.2459 19.862C91.0659 19.686 90.9459 19.418 90.8859 19.058H90.8499C90.6219 19.386 90.3459 19.646 90.0219 19.838C89.6979 20.03 89.3599 20.126 89.0079 20.126ZM89.6079 19.364C89.8559 19.364 90.0879 19.3 90.3039 19.172C90.5199 19.04 90.7019 18.858 90.8499 18.626V16.934C90.3139 17.038 89.8919 17.152 89.5839 17.276C89.2799 17.4 89.0639 17.552 88.9359 17.732C88.8119 17.908 88.7499 18.13 88.7499 18.398C88.7499 18.706 88.8219 18.944 88.9659 19.112C89.1139 19.28 89.3279 19.364 89.6079 19.364ZM95.834 20.126C95.39 20.126 95.052 20 94.82 19.748C94.588 19.496 94.472 19.134 94.472 18.662V14.15H93.692L93.656 13.934L95.456 12.146L95.69 12.17V13.706H97.406L97.304 14.15H95.69V18.542C95.69 19.198 95.926 19.526 96.398 19.526C96.558 19.526 96.716 19.484 96.872 19.4C97.032 19.316 97.168 19.2 97.28 19.052L97.49 19.238C97.306 19.51 97.066 19.726 96.77 19.886C96.478 20.046 96.166 20.126 95.834 20.126ZM99.5782 20.126C99.1502 20.126 98.8022 19.992 98.5342 19.724C98.2702 19.456 98.1382 19.108 98.1382 18.68C98.1382 18.328 98.2462 18.024 98.4622 17.768C98.6782 17.512 99.0262 17.288 99.5062 17.096C99.9902 16.9 100.628 16.722 101.42 16.562V15.44C101.42 14.932 101.35 14.576 101.21 14.372C101.074 14.168 100.838 14.066 100.502 14.066C100.17 14.066 99.9062 14.146 99.7102 14.306C99.5142 14.466 99.4162 14.682 99.4162 14.954C99.4162 15.03 99.4202 15.106 99.4282 15.182C99.4402 15.254 99.4462 15.324 99.4462 15.392C99.4462 15.596 99.3842 15.764 99.2602 15.896C99.1402 16.028 98.9862 16.094 98.7982 16.094C98.6262 16.094 98.4862 16.038 98.3782 15.926C98.2742 15.814 98.2222 15.668 98.2222 15.488C98.2222 15.228 98.3342 14.962 98.5582 14.69C98.7862 14.414 99.0862 14.178 99.4582 13.982C99.9542 13.718 100.492 13.586 101.072 13.586C101.42 13.586 101.714 13.64 101.954 13.748C102.198 13.856 102.374 14.01 102.482 14.21C102.546 14.346 102.588 14.518 102.608 14.726C102.632 14.934 102.644 15.282 102.644 15.77V18.452C102.644 18.84 102.674 19.104 102.734 19.244C102.798 19.384 102.916 19.454 103.088 19.454C103.284 19.454 103.474 19.342 103.658 19.118L103.874 19.322C103.678 19.606 103.478 19.812 103.274 19.94C103.074 20.064 102.84 20.126 102.572 20.126C102.248 20.126 101.996 20.038 101.816 19.862C101.636 19.686 101.516 19.418 101.456 19.058H101.42C101.192 19.386 100.916 19.646 100.592 19.838C100.268 20.03 99.9302 20.126 99.5782 20.126ZM100.178 19.364C100.426 19.364 100.658 19.3 100.874 19.172C101.09 19.04 101.272 18.858 101.42 18.626V16.934C100.884 17.038 100.462 17.152 100.154 17.276C99.8502 17.4 99.6342 17.552 99.5062 17.732C99.3822 17.908 99.3202 18.13 99.3202 18.398C99.3202 18.706 99.3922 18.944 99.5362 19.112C99.6842 19.28 99.8982 19.364 100.178 19.364ZM110.573 20.108C110.245 20.108 109.925 20.06 109.613 19.964C109.305 19.868 108.979 19.718 108.635 19.514L108.161 20H107.915L107.693 16.958L108.017 16.892C108.257 17.832 108.573 18.514 108.965 18.938C109.361 19.362 109.883 19.574 110.531 19.574C111.075 19.574 111.505 19.444 111.821 19.184C112.137 18.92 112.295 18.564 112.295 18.116C112.295 17.764 112.185 17.45 111.965 17.174C111.749 16.894 111.393 16.614 110.897 16.334L109.979 15.848C109.231 15.444 108.695 15.042 108.371 14.642C108.047 14.242 107.885 13.776 107.885 13.244C107.885 12.764 108.003 12.336 108.239 11.96C108.475 11.58 108.797 11.282 109.205 11.066C109.617 10.846 110.079 10.736 110.591 10.736C111.291 10.736 111.901 10.982 112.421 11.474L112.787 10.85H113.045L113.153 13.472H112.811C112.623 12.724 112.351 12.172 111.995 11.816C111.643 11.456 111.193 11.276 110.645 11.276C110.201 11.276 109.849 11.394 109.589 11.63C109.333 11.866 109.205 12.19 109.205 12.602C109.205 12.974 109.327 13.306 109.571 13.598C109.819 13.89 110.235 14.19 110.819 14.498L111.713 14.978C112.325 15.302 112.767 15.662 113.039 16.058C113.315 16.454 113.453 16.908 113.453 17.42C113.453 17.928 113.325 18.386 113.069 18.794C112.817 19.198 112.473 19.518 112.037 19.754C111.605 19.99 111.117 20.108 110.573 20.108ZM116.647 20.126C116.203 20.126 115.865 20 115.633 19.748C115.401 19.496 115.285 19.134 115.285 18.662V14.15H114.505L114.469 13.934L116.269 12.146L116.503 12.17V13.706H118.219L118.117 14.15H116.503V18.542C116.503 19.198 116.739 19.526 117.211 19.526C117.371 19.526 117.529 19.484 117.685 19.4C117.845 19.316 117.981 19.2 118.093 19.052L118.303 19.238C118.119 19.51 117.879 19.726 117.583 19.886C117.291 20.046 116.979 20.126 116.647 20.126ZM121.273 20.126C120.673 20.126 120.235 19.988 119.959 19.712C119.683 19.432 119.545 19.028 119.545 18.5V14.156L118.657 13.97V13.706H120.769V18.02C120.769 18.544 120.861 18.904 121.045 19.1C121.233 19.296 121.529 19.394 121.933 19.394C122.209 19.394 122.479 19.322 122.743 19.178C123.007 19.034 123.251 18.808 123.475 18.5V18.98C123.171 19.352 122.829 19.636 122.449 19.832C122.069 20.028 121.677 20.126 121.273 20.126ZM123.433 20.126V18.944L123.367 18.92V14.156L122.485 13.97V13.706H124.591V19.088L125.407 19.376V19.538L123.535 20.126H123.433ZM128.817 20.126C128.345 20.126 127.921 19.988 127.545 19.712C127.169 19.436 126.871 19.06 126.651 18.584C126.435 18.104 126.327 17.562 126.327 16.958C126.327 16.294 126.459 15.71 126.723 15.206C126.987 14.698 127.355 14.302 127.827 14.018C128.299 13.73 128.845 13.586 129.465 13.586C129.905 13.586 130.337 13.652 130.761 13.784V11.234L129.873 10.892V10.724L131.835 10.142H131.973V19.046L132.795 19.232V19.376L130.941 20.126H130.845V19.136L130.791 19.118C130.543 19.45 130.249 19.702 129.909 19.874C129.573 20.042 129.209 20.126 128.817 20.126ZM129.345 19.334C129.641 19.334 129.915 19.272 130.167 19.148C130.423 19.024 130.621 18.856 130.761 18.644V15.308C130.761 14.88 130.649 14.552 130.425 14.324C130.205 14.096 129.887 13.982 129.471 13.982C128.935 13.982 128.501 14.236 128.169 14.744C127.841 15.252 127.677 15.926 127.677 16.766C127.677 17.558 127.825 18.184 128.121 18.644C128.417 19.104 128.825 19.334 129.345 19.334ZM133.454 20V19.736L134.366 19.55V14.66L133.472 14.342V14.156L135.464 13.586H135.596V19.55L136.496 19.736V20H133.454ZM134.972 12.326C134.728 12.326 134.534 12.248 134.39 12.092C134.246 11.936 134.174 11.754 134.174 11.546C134.174 11.318 134.246 11.126 134.39 10.97C134.534 10.814 134.728 10.736 134.972 10.736C135.22 10.736 135.416 10.814 135.56 10.97C135.708 11.126 135.782 11.318 135.782 11.546C135.782 11.754 135.708 11.936 135.56 12.092C135.416 12.248 135.22 12.326 134.972 12.326ZM140.428 20.126C139.812 20.126 139.266 19.984 138.79 19.7C138.314 19.412 137.94 19.022 137.668 18.53C137.4 18.034 137.266 17.476 137.266 16.856C137.266 16.232 137.4 15.674 137.668 15.182C137.94 14.69 138.314 14.302 138.79 14.018C139.266 13.73 139.812 13.586 140.428 13.586C141.044 13.586 141.588 13.73 142.06 14.018C142.536 14.302 142.91 14.69 143.182 15.182C143.454 15.674 143.59 16.232 143.59 16.856C143.59 17.476 143.454 18.034 143.182 18.53C142.91 19.022 142.536 19.412 142.06 19.7C141.588 19.984 141.044 20.126 140.428 20.126ZM140.416 19.574C140.708 19.574 140.966 19.51 141.19 19.382C141.414 19.25 141.602 19.064 141.754 18.824C141.91 18.58 142.028 18.292 142.108 17.96C142.188 17.624 142.228 17.252 142.228 16.844C142.228 16.44 142.188 16.072 142.108 15.74C142.032 15.408 141.918 15.122 141.766 14.882C141.614 14.642 141.426 14.458 141.202 14.33C140.978 14.198 140.72 14.132 140.428 14.132C140.136 14.132 139.878 14.198 139.654 14.33C139.43 14.458 139.242 14.642 139.09 14.882C138.938 15.122 138.822 15.41 138.742 15.746C138.666 16.078 138.628 16.448 138.628 16.856C138.628 17.264 138.666 17.634 138.742 17.966C138.822 18.298 138.938 18.584 139.09 18.824C139.242 19.064 139.428 19.25 139.648 19.382C139.872 19.51 140.128 19.574 140.416 19.574Z" fill="white"/>
<path d="M31 0H5C2.23858 0 0 2.23858 0 5V27C0 29.7614 2.23858 32 5 32H31V0Z" fill="#8ACAE1"/>
<path d="M20.9949 9.05829H20.9397C20.7997 7.34407 19.4952 6 17.8984 6C16.8137 6 15.863 6.62506 15.3201 7.56612C15.1342 7.52312 14.9442 7.50051 14.7534 7.4987C13.254 7.4987 12.0412 8.83645 12.0412 10.49C12.0412 12.1433 13.254 13.4809 14.7534 13.4809H20.9949C22.0979 13.4809 23 12.4928 23 11.2697C23 10.0463 22.0982 9.05829 20.9949 9.05829Z" fill="white"/>
<path d="M16.1553 8.41975C16.3684 8.41975 16.5818 8.4465 16.783 8.49348C17.3012 7.45846 18.3006 6.75272 19.4526 6.75272C19.5926 6.75272 19.733 6.7662 19.8671 6.78643C19.3308 6.29557 18.6481 6 17.8982 6C16.8137 6 15.863 6.62506 15.3201 7.56612C15.1342 7.52312 14.9442 7.50051 14.7534 7.4987C13.254 7.4987 12.0412 8.83645 12.0412 10.49C12.0412 11.6796 12.6749 12.7079 13.5891 13.1918C13.3576 12.7347 13.2297 12.2038 13.2297 11.6459C13.2356 9.85799 14.5401 8.41975 16.1553 8.41975Z" fill="white"/>
<path d="M8 12.4793V21.298C8 22.7832 10.1272 23.9865 12.7541 23.9933V14.4959L8 12.4793Z" fill="white"/>
<path d="M11.3767 10.49C11.3767 10.3621 11.3828 10.2414 11.3949 10.1135C9.43238 10.4361 8 11.4374 8 12.6272C8 14.0792 10.1272 15.2553 12.7541 15.2553V13.4943C11.9191 12.8088 11.3767 11.7199 11.3767 10.49ZM16.5575 14.2136H14.7534C14.0037 14.2136 13.315 13.9448 12.7541 13.4876V15.2488H12.7604C14.3146 15.2553 15.692 14.8454 16.5575 14.2136Z" fill="white"/>
<path d="M16.218 19.3823L16.2422 19.3219L16.4679 18.7236L16.4921 18.6631L16.7299 18.0448L17.2907 18.3069L17.3455 18.3338L17.4673 18.3876V14.2266H16.5044C15.6327 14.8586 14.2613 15.2686 12.7071 15.2686H12.7011V19.4963H16.1753L16.218 19.3823ZM16.5149 22.5144L16.2892 21.9097L16.265 21.8491L16.0333 21.224L16.6001 20.9685L16.6551 20.9417L16.8866 20.8343C16.8804 20.7601 16.8804 20.6931 16.8804 20.619C16.8804 20.5385 16.8804 20.4643 16.8866 20.3839L16.6551 20.2764L16.6123 20.256H12.7541V23.973H12.7604C14.3572 23.973 15.7712 23.5294 16.6367 22.8438L16.5331 22.5616L16.5149 22.5144Z" fill="white"/>
<path d="M16.6001 20.2629L16.0393 20.0007L16.2345 19.483H12.3398L11.7911 20.9552L10.1332 15.9139L8.92044 19.5437H8V20.182H9.39582L10.1637 17.8365L11.84 22.9915L12.7238 20.2697H16.6121L16.6001 20.2629Z" fill="#8ACAE1"/>
<path d="M22.2442 21.2845C22.2929 21.0759 22.3173 20.8543 22.3173 20.6325C22.3169 20.4179 22.2945 20.204 22.2505 19.9941L22.9208 19.6914L22.9756 19.6646L22.9513 19.6042L22.7256 18.9991L22.7012 18.9387L22.6465 18.9656L21.9759 19.2679C21.7789 18.9007 21.4966 18.587 21.1531 18.3539L21.4335 17.6144L21.4579 17.5542L21.4032 17.5272L20.8605 17.2786L20.8058 17.2516L20.7813 17.3121L20.5009 18.0515C20.3084 17.9976 20.1096 17.9704 19.9098 17.9709C19.7086 17.9709 19.5197 17.9978 19.331 18.0446L19.0564 17.3054L19.032 17.2449L18.9772 17.2719L18.4287 17.5204L18.3738 17.5474L18.3982 17.6079L18.6723 18.3473C18.3311 18.5689 18.0507 18.885 17.8436 19.2547L17.5267 19.1068L17.1731 18.9454L17.1181 18.9184L17.0939 18.9789L16.8682 19.5772L16.844 19.6377L16.8987 19.6646L17.5693 19.9739C17.5509 20.0476 17.5388 20.115 17.5267 20.1888C17.5143 20.2695 17.5083 20.3502 17.5022 20.4311V20.4374C17.4959 20.498 17.4959 20.5585 17.4959 20.619C17.4959 20.6662 17.4959 20.7131 17.5022 20.7534C17.5022 20.7736 17.5022 20.7938 17.5085 20.8138C17.5085 20.8341 17.5143 20.8543 17.5143 20.8813C17.5206 20.9685 17.5327 21.0559 17.5509 21.1366C17.5572 21.177 17.5632 21.2173 17.5753 21.251L17.5388 21.2643L16.905 21.5533L16.8501 21.5803L16.8745 21.6407L17.1 22.2455L17.1244 22.306L17.1792 22.2793L17.8497 21.9767C18.0466 22.3441 18.3289 22.6578 18.6723 22.891L18.3921 23.6303L18.3677 23.6907L18.4226 23.7175L18.9651 23.9663L19.0198 23.9933L19.0443 23.9326L19.3247 23.1933C19.5172 23.2473 19.7162 23.2745 19.916 23.274C20.1113 23.2734 20.3056 23.2486 20.4948 23.2001L20.7692 23.9395L20.7934 24L20.8484 23.973L21.3969 23.7244L21.4519 23.6975L21.4274 23.637L21.1531 22.8976C21.4945 22.6757 21.7749 22.3599 21.9822 21.9902L22.6525 22.2995L22.7075 22.3262L22.7319 22.2658L22.9574 21.6675L22.9816 21.607L22.9269 21.5803L22.2442 21.2845ZM19.9037 22.4811C18.9772 22.4811 18.2216 21.6542 18.2216 20.6257C18.2204 20.2195 18.3437 19.8228 18.5748 19.49L18.581 19.483C18.8857 19.0529 19.3673 18.7773 19.9037 18.7773C20.8302 18.7773 21.5858 19.6042 21.5858 20.6325C21.5799 21.6542 20.8302 22.4811 19.9037 22.4811Z" fill="white"/>
<path d="M18.587 19.483H18.581L18.5747 19.49C18.5747 19.49 18.5747 19.4965 18.5689 19.4965L18.587 19.483Z" fill="white"/>
</svg>
