<svg width="100" height="32" viewBox="0 0 100 32" fill="none" xmlns="http://www.w3.org/2000/svg">
<path d="M95 0H31V32H95C97.7614 32 100 29.7614 100 27V5C100 2.23858 97.7614 0 95 0Z" fill="#0F1418"/>
<path d="M49.564 20V19.712L50.584 19.472V11.384L49.564 11.15V10.862H53.152C53.704 10.862 54.162 10.902 54.526 10.982C54.894 11.058 55.2 11.178 55.444 11.342C55.728 11.538 55.95 11.788 56.11 12.092C56.27 12.396 56.35 12.724 56.35 13.076C56.35 13.588 56.178 14.02 55.834 14.372C55.494 14.724 55.004 14.964 54.364 15.092V15.134C54.844 15.186 55.264 15.324 55.624 15.548C55.984 15.768 56.262 16.052 56.458 16.4C56.658 16.748 56.758 17.14 56.758 17.576C56.758 17.94 56.686 18.28 56.542 18.596C56.398 18.912 56.2 19.172 55.948 19.376C55.672 19.6 55.334 19.76 54.934 19.856C54.534 19.952 54.006 20 53.35 20H49.564ZM52.966 19.526C53.75 19.526 54.328 19.36 54.7 19.028C55.076 18.692 55.264 18.174 55.264 17.474C55.264 16.758 55.07 16.232 54.682 15.896C54.294 15.556 53.688 15.386 52.864 15.386H51.934V18.818C51.934 19.094 52.006 19.282 52.15 19.382C52.298 19.478 52.57 19.526 52.966 19.526ZM51.934 14.894H52.594C52.81 14.894 52.99 14.892 53.134 14.888C53.282 14.88 53.418 14.87 53.542 14.858C53.982 14.81 54.32 14.632 54.556 14.324C54.792 14.012 54.91 13.59 54.91 13.058C54.91 12.774 54.874 12.536 54.802 12.344C54.73 12.148 54.616 11.974 54.46 11.822C54.288 11.646 54.08 11.524 53.836 11.456C53.596 11.384 53.266 11.348 52.846 11.348H51.934V14.894ZM57.704 20V19.736L58.604 19.55V14.66L57.728 14.33V14.156L59.648 13.58H59.78V14.876L59.828 14.936V19.55L61.064 19.736V20H57.704ZM59.738 15.428L59.714 14.936C60.01 14.5 60.304 14.164 60.596 13.928C60.892 13.692 61.168 13.574 61.424 13.574C61.644 13.574 61.83 13.65 61.982 13.802C62.134 13.95 62.21 14.13 62.21 14.342C62.21 14.538 62.144 14.704 62.012 14.84C61.88 14.972 61.716 15.038 61.52 15.038C61.32 15.038 61.164 14.964 61.052 14.816C60.972 14.724 60.904 14.662 60.848 14.63C60.792 14.594 60.728 14.576 60.656 14.576C60.54 14.576 60.394 14.654 60.218 14.81C60.046 14.962 59.886 15.168 59.738 15.428ZM64.3282 20.126C63.9002 20.126 63.5522 19.992 63.2842 19.724C63.0202 19.456 62.8882 19.108 62.8882 18.68C62.8882 18.328 62.9962 18.024 63.2122 17.768C63.4282 17.512 63.7762 17.288 64.2562 17.096C64.7402 16.9 65.3782 16.722 66.1702 16.562V15.44C66.1702 14.932 66.1002 14.576 65.9602 14.372C65.8242 14.168 65.5882 14.066 65.2522 14.066C64.9202 14.066 64.6562 14.146 64.4602 14.306C64.2642 14.466 64.1662 14.682 64.1662 14.954C64.1662 15.03 64.1702 15.106 64.1782 15.182C64.1902 15.254 64.1962 15.324 64.1962 15.392C64.1962 15.596 64.1342 15.764 64.0102 15.896C63.8902 16.028 63.7362 16.094 63.5482 16.094C63.3762 16.094 63.2362 16.038 63.1282 15.926C63.0242 15.814 62.9722 15.668 62.9722 15.488C62.9722 15.228 63.0842 14.962 63.3082 14.69C63.5362 14.414 63.8362 14.178 64.2082 13.982C64.7042 13.718 65.2422 13.586 65.8222 13.586C66.1702 13.586 66.4642 13.64 66.7042 13.748C66.9482 13.856 67.1242 14.01 67.2322 14.21C67.2962 14.346 67.3382 14.518 67.3582 14.726C67.3822 14.934 67.3942 15.282 67.3942 15.77V18.452C67.3942 18.84 67.4242 19.104 67.4842 19.244C67.5482 19.384 67.6662 19.454 67.8382 19.454C68.0342 19.454 68.2242 19.342 68.4082 19.118L68.6242 19.322C68.4282 19.606 68.2282 19.812 68.0242 19.94C67.8242 20.064 67.5902 20.126 67.3222 20.126C66.9982 20.126 66.7462 20.038 66.5662 19.862C66.3862 19.686 66.2662 19.418 66.2062 19.058H66.1702C65.9422 19.386 65.6662 19.646 65.3422 19.838C65.0182 20.03 64.6802 20.126 64.3282 20.126ZM64.9282 19.364C65.1762 19.364 65.4082 19.3 65.6242 19.172C65.8402 19.04 66.0222 18.858 66.1702 18.626V16.934C65.6342 17.038 65.2122 17.152 64.9042 17.276C64.6002 17.4 64.3842 17.552 64.2562 17.732C64.1322 17.908 64.0702 18.13 64.0702 18.398C64.0702 18.706 64.1422 18.944 64.2862 19.112C64.4342 19.28 64.6482 19.364 64.9282 19.364ZM71.2939 20.126L69.1219 14.48C69.0499 14.292 68.9619 14.166 68.8579 14.102C68.7539 14.034 68.5519 13.99 68.2519 13.97V13.706H71.3419V13.97C71.0019 13.982 70.7779 14.012 70.6699 14.06C70.5619 14.104 70.5079 14.174 70.5079 14.27C70.5079 14.362 70.5319 14.474 70.5799 14.606L71.9359 18.452H71.9839L73.2499 14.864C73.3219 14.66 73.3579 14.504 73.3579 14.396C73.3579 14.28 73.3059 14.194 73.2019 14.138C73.0979 14.078 72.8699 14.022 72.5179 13.97V13.706H74.9779V13.97C74.6819 14.018 74.4579 14.076 74.3059 14.144C74.1539 14.208 74.0399 14.298 73.9639 14.414C73.8919 14.53 73.8199 14.686 73.7479 14.882L71.8639 20.126H71.2939ZM77.95 20.126C77.37 20.126 76.86 19.994 76.42 19.73C75.984 19.462 75.644 19.09 75.4 18.614C75.16 18.134 75.04 17.58 75.04 16.952C75.04 16.284 75.174 15.698 75.442 15.194C75.714 14.69 76.092 14.296 76.576 14.012C77.064 13.728 77.628 13.586 78.268 13.586C79.06 13.586 79.666 13.816 80.086 14.276C80.51 14.736 80.73 15.41 80.746 16.298L80.662 16.37H76.012V16.022L79.372 15.902C79.4 15.798 79.414 15.64 79.414 15.428C79.414 14.468 78.992 13.988 78.148 13.988C77.568 13.988 77.12 14.216 76.804 14.672C76.492 15.124 76.336 15.766 76.336 16.598C76.336 18.338 77.012 19.208 78.364 19.208C79.244 19.208 79.918 18.888 80.386 18.248L80.608 18.386C80.4 18.938 80.062 19.366 79.594 19.67C79.13 19.974 78.582 20.126 77.95 20.126Z" fill="white"/>
<path d="M31 0H5C2.23858 0 0 2.23858 0 5V27C0 29.7614 2.23858 32 5 32H31V0Z" fill="#FB542B"/>
<path d="M18.9 4L20.996 6.38C20.996 6.38 22.836 5.868 23.705 6.738C24.573 7.608 25.289 8.376 25.289 8.376L24.727 9.757L25.442 11.804C25.442 11.804 23.338 19.784 23.092 20.759C22.606 22.678 22.274 23.419 20.894 24.392C19.514 25.364 17.01 27.052 16.601 27.308C16.192 27.564 15.681 28 15.221 28C14.761 28 14.251 27.564 13.841 27.308C12.3965 26.356 10.9654 25.3839 9.548 24.392C8.168 23.419 7.836 22.678 7.351 20.759C7.104 19.784 5 11.804 5 11.804L5.715 9.757L5.153 8.376C5.153 8.376 5.869 7.608 6.738 6.738C7.606 5.868 9.446 6.38 9.446 6.38L11.541 4H18.9ZM15.221 18.936C15.081 18.936 14.183 19.253 13.463 19.626C12.743 19.999 12.221 20.263 12.054 20.368C11.887 20.472 11.989 20.669 12.141 20.777C12.293 20.884 14.335 22.467 14.534 22.643C14.732 22.818 15.023 23.107 15.221 23.107C15.419 23.107 15.711 22.817 15.909 22.643C16.107 22.468 18.149 20.884 18.301 20.777C18.453 20.669 18.555 20.472 18.388 20.367C18.221 20.263 17.699 19.999 16.978 19.626C16.258 19.253 15.361 18.936 15.221 18.936ZM15.221 7.658C15.221 7.658 14.812 7.659 14.199 7.864C13.586 8.069 12.921 8.324 12.615 8.324C12.308 8.324 10.034 7.89 10.034 7.89C10.034 7.89 7.339 11.152 7.339 11.849C7.339 12.546 7.678 12.73 8.019 13.092L10.039 15.241C10.231 15.444 10.629 15.752 10.395 16.307C10.16 16.862 9.815 17.567 10.199 18.284C10.583 19 11.241 19.478 11.663 19.399C12.084 19.319 13.075 18.801 13.439 18.565C13.803 18.328 14.957 17.375 14.957 17.011C14.957 16.646 13.764 15.991 13.544 15.843C13.324 15.693 12.318 15.118 12.297 14.893C12.277 14.666 12.285 14.6 12.581 14.042C12.878 13.483 13.412 12.738 13.323 12.242C13.234 11.747 12.373 11.489 11.758 11.256C11.143 11.024 9.959 10.585 9.811 10.516C9.663 10.448 9.701 10.383 10.15 10.341C10.598 10.298 11.869 10.129 12.442 10.289C13.015 10.449 13.994 10.692 14.074 10.821C14.153 10.951 14.223 10.955 14.141 11.4C14.06 11.845 13.641 13.981 13.6 14.36C13.56 14.74 13.48 14.99 13.888 15.084C14.297 15.178 14.985 15.34 15.221 15.34C15.457 15.34 16.145 15.178 16.554 15.084C16.962 14.991 16.883 14.74 16.842 14.361C16.802 13.981 16.382 11.845 16.301 11.4C16.219 10.955 16.289 10.95 16.368 10.821C16.448 10.692 17.427 10.449 18 10.289C18.573 10.129 19.845 10.298 20.292 10.341C20.741 10.383 20.779 10.448 20.631 10.516C20.483 10.585 19.299 11.024 18.684 11.256C18.069 11.489 17.208 11.746 17.119 12.242C17.029 12.738 17.564 13.483 17.861 14.042C18.158 14.6 18.165 14.666 18.145 14.892C18.125 15.118 17.119 15.694 16.898 15.842C16.678 15.992 15.485 16.646 15.485 17.011C15.485 17.375 16.639 18.328 17.003 18.565C17.367 18.801 18.358 19.32 18.779 19.399C19.201 19.478 19.859 18.999 20.243 18.284C20.627 17.568 20.282 16.862 20.048 16.307C19.813 15.752 20.211 15.444 20.403 15.241L22.423 13.092C22.764 12.73 23.103 12.546 23.103 11.849C23.103 11.152 20.408 7.889 20.408 7.889C20.408 7.889 18.134 8.325 17.828 8.325C17.521 8.325 16.856 8.069 16.243 7.864C15.63 7.659 15.221 7.658 15.221 7.658Z" fill="white"/>
</svg>
