<svg width="100" height="32" viewBox="0 0 100 32" fill="none" xmlns="http://www.w3.org/2000/svg">
<path d="M95 0H31V32H95C97.7614 32 100 29.7614 100 27V5C100 2.23858 97.7614 0 95 0Z" fill="#0F1418"/>
<path d="M52.998 20.126C52.138 20.126 51.38 19.93 50.724 19.538C50.072 19.146 49.562 18.602 49.194 17.906C48.83 17.206 48.648 16.4 48.648 15.488C48.648 14.792 48.754 14.154 48.966 13.574C49.182 12.994 49.486 12.492 49.878 12.068C50.27 11.644 50.734 11.316 51.27 11.084C51.806 10.852 52.394 10.736 53.034 10.736C53.506 10.736 53.964 10.8 54.408 10.928C54.856 11.052 55.26 11.232 55.62 11.468H55.668L56.244 10.862H56.478V13.616H56.088C56.02 13.396 55.944 13.198 55.86 13.022C55.78 12.846 55.694 12.684 55.602 12.536C55.322 12.088 54.992 11.768 54.612 11.576C54.232 11.384 53.78 11.288 53.256 11.288C52.288 11.288 51.542 11.642 51.018 12.35C50.498 13.058 50.238 14.074 50.238 15.398C50.238 16.722 50.5 17.746 51.024 18.47C51.552 19.194 52.296 19.556 53.256 19.556C53.732 19.556 54.162 19.462 54.546 19.274C54.93 19.082 55.25 18.802 55.506 18.434C55.654 18.226 55.78 17.99 55.884 17.726C55.992 17.462 56.074 17.174 56.13 16.862H56.478V20H56.172L55.632 19.22C55.208 19.536 54.784 19.766 54.36 19.91C53.94 20.054 53.486 20.126 52.998 20.126ZM59.2501 20.126C58.8221 20.126 58.4741 19.992 58.2061 19.724C57.9421 19.456 57.8101 19.108 57.8101 18.68C57.8101 18.328 57.9181 18.024 58.1341 17.768C58.3501 17.512 58.6981 17.288 59.1781 17.096C59.6621 16.9 60.3001 16.722 61.0921 16.562V15.44C61.0921 14.932 61.0221 14.576 60.8821 14.372C60.7461 14.168 60.5101 14.066 60.1741 14.066C59.8421 14.066 59.5781 14.146 59.3821 14.306C59.1861 14.466 59.0881 14.682 59.0881 14.954C59.0881 15.03 59.0921 15.106 59.1001 15.182C59.1121 15.254 59.1181 15.324 59.1181 15.392C59.1181 15.596 59.0561 15.764 58.9321 15.896C58.8121 16.028 58.6581 16.094 58.4701 16.094C58.2981 16.094 58.1581 16.038 58.0501 15.926C57.9461 15.814 57.8941 15.668 57.8941 15.488C57.8941 15.228 58.0061 14.962 58.2301 14.69C58.4581 14.414 58.7581 14.178 59.1301 13.982C59.6261 13.718 60.1641 13.586 60.7441 13.586C61.0921 13.586 61.3861 13.64 61.6261 13.748C61.8701 13.856 62.0461 14.01 62.1541 14.21C62.2181 14.346 62.2601 14.518 62.2801 14.726C62.3041 14.934 62.3161 15.282 62.3161 15.77V18.452C62.3161 18.84 62.3461 19.104 62.4061 19.244C62.4701 19.384 62.5881 19.454 62.7601 19.454C62.9561 19.454 63.1461 19.342 63.3301 19.118L63.5461 19.322C63.3501 19.606 63.1501 19.812 62.9461 19.94C62.7461 20.064 62.5121 20.126 62.2441 20.126C61.9201 20.126 61.6681 20.038 61.4881 19.862C61.3081 19.686 61.1881 19.418 61.1281 19.058H61.0921C60.8641 19.386 60.5881 19.646 60.2641 19.838C59.9401 20.03 59.6021 20.126 59.2501 20.126ZM59.8501 19.364C60.0981 19.364 60.3301 19.3 60.5461 19.172C60.7621 19.04 60.9441 18.858 61.0921 18.626V16.934C60.5561 17.038 60.1341 17.152 59.8261 17.276C59.5221 17.4 59.3061 17.552 59.1781 17.732C59.0541 17.908 58.9921 18.13 58.9921 18.398C58.9921 18.706 59.0641 18.944 59.2081 19.112C59.3561 19.28 59.5701 19.364 59.8501 19.364ZM67.8462 20V19.736L68.7222 19.562V15.71C68.7222 15.234 68.6262 14.88 68.4342 14.648C68.2422 14.412 67.9322 14.294 67.5042 14.294C66.8762 14.294 66.3542 14.58 65.9382 15.152V14.654C66.2742 14.318 66.6422 14.056 67.0422 13.868C67.4422 13.68 67.8402 13.586 68.2362 13.586C69.3762 13.586 69.9462 14.124 69.9462 15.2V19.562L70.8342 19.736V20H67.8462ZM63.9402 20V19.736L64.8402 19.55V14.672L63.9522 14.342V14.168L65.8722 13.586H66.0042V14.648L66.0642 14.708V19.55L66.9462 19.736V20H63.9402ZM73.7393 20.126L71.5673 14.48C71.4953 14.292 71.4073 14.166 71.3033 14.102C71.1993 14.034 70.9973 13.99 70.6972 13.97V13.706H73.7873V13.97C73.4473 13.982 73.2233 14.012 73.1153 14.06C73.0073 14.104 72.9533 14.174 72.9533 14.27C72.9533 14.362 72.9773 14.474 73.0253 14.606L74.3813 18.452H74.4293L75.6953 14.864C75.7673 14.66 75.8033 14.504 75.8033 14.396C75.8033 14.28 75.7513 14.194 75.6473 14.138C75.5433 14.078 75.3153 14.022 74.9633 13.97V13.706H77.4232V13.97C77.1272 14.018 76.9033 14.076 76.7513 14.144C76.5993 14.208 76.4853 14.298 76.4093 14.414C76.3373 14.53 76.2653 14.686 76.1933 14.882L74.3092 20.126H73.7393ZM78.9376 20.126C78.5096 20.126 78.1616 19.992 77.8936 19.724C77.6296 19.456 77.4976 19.108 77.4976 18.68C77.4976 18.328 77.6056 18.024 77.8216 17.768C78.0376 17.512 78.3856 17.288 78.8656 17.096C79.3496 16.9 79.9876 16.722 80.7796 16.562V15.44C80.7796 14.932 80.7096 14.576 80.5696 14.372C80.4336 14.168 80.1976 14.066 79.8616 14.066C79.5296 14.066 79.2656 14.146 79.0696 14.306C78.8736 14.466 78.7756 14.682 78.7756 14.954C78.7756 15.03 78.7796 15.106 78.7876 15.182C78.7996 15.254 78.8056 15.324 78.8056 15.392C78.8056 15.596 78.7436 15.764 78.6196 15.896C78.4996 16.028 78.3456 16.094 78.1576 16.094C77.9856 16.094 77.8456 16.038 77.7376 15.926C77.6336 15.814 77.5816 15.668 77.5816 15.488C77.5816 15.228 77.6936 14.962 77.9176 14.69C78.1456 14.414 78.4456 14.178 78.8176 13.982C79.3136 13.718 79.8516 13.586 80.4316 13.586C80.7796 13.586 81.0736 13.64 81.3136 13.748C81.5576 13.856 81.7336 14.01 81.8416 14.21C81.9056 14.346 81.9476 14.518 81.9676 14.726C81.9916 14.934 82.0036 15.282 82.0036 15.77V18.452C82.0036 18.84 82.0336 19.104 82.0936 19.244C82.1576 19.384 82.2756 19.454 82.4476 19.454C82.6436 19.454 82.8336 19.342 83.0176 19.118L83.2336 19.322C83.0376 19.606 82.8376 19.812 82.6336 19.94C82.4336 20.064 82.1996 20.126 81.9316 20.126C81.6076 20.126 81.3556 20.038 81.1756 19.862C80.9956 19.686 80.8756 19.418 80.8156 19.058H80.7796C80.5516 19.386 80.2756 19.646 79.9516 19.838C79.6276 20.03 79.2896 20.126 78.9376 20.126ZM79.5376 19.364C79.7856 19.364 80.0176 19.3 80.2336 19.172C80.4496 19.04 80.6316 18.858 80.7796 18.626V16.934C80.2436 17.038 79.8216 17.152 79.5136 17.276C79.2096 17.4 78.9936 17.552 78.8656 17.732C78.7416 17.908 78.6796 18.13 78.6796 18.398C78.6796 18.706 78.7516 18.944 78.8956 19.112C79.0436 19.28 79.2576 19.364 79.5376 19.364Z" fill="white"/>
<path d="M31 0H5C2.23858 0 0 2.23858 0 5V27C0 29.7614 2.23858 32 5 32H31V0Z" fill="#00C4CC"/>
<path d="M15 4C8.373 4 3 9.373 3 16C3 22.627 8.373 28 15 28C21.627 28 27 22.627 27 16C27 9.373 21.627 4 15 4ZM9.962 11.68C10.716 11.68 11.299 12.229 11.367 12.88C11.436 13.463 11.196 13.977 10.545 14.286C10.202 14.457 10.065 14.458 9.996 14.355C9.962 14.286 9.996 14.218 10.065 14.149C10.682 13.635 10.682 13.223 10.613 12.641C10.579 12.263 10.305 12.023 10.03 12.023C8.83 12.023 7.116 14.697 7.356 16.652C7.459 17.406 7.905 18.298 8.865 18.298C9.173 18.298 9.515 18.195 9.825 18.058C10.325 17.794 10.624 17.588 10.922 17.258C10.849 16.373 11.626 15.212 12.773 15.212C13.288 15.212 13.699 15.417 13.733 15.795C13.801 16.309 13.356 16.377 13.219 16.377C13.082 16.377 12.841 16.343 12.841 16.207C12.807 16.069 13.15 16.137 13.116 15.829C13.081 15.623 12.876 15.555 12.67 15.555C11.95 15.555 11.539 16.549 11.641 17.166C11.676 17.441 11.813 17.715 12.088 17.715C12.293 17.715 12.602 17.405 12.705 16.96C12.773 16.652 13.048 16.446 13.288 16.446C13.39 16.446 13.458 16.48 13.493 16.617V16.755C13.459 16.892 13.356 17.303 13.391 17.406C13.391 17.475 13.425 17.577 13.561 17.577C13.653 17.577 13.997 17.397 14.338 17.118C14.455 16.528 14.591 15.82 14.591 15.761C14.625 15.521 14.728 15.281 15.208 15.281C15.311 15.281 15.379 15.315 15.413 15.452V15.59L15.277 16.207C15.722 15.624 16.374 15.213 16.785 15.213C16.957 15.213 17.094 15.315 17.094 15.487C17.094 15.59 17.094 15.761 17.025 15.933C16.888 16.31 16.716 16.893 16.613 17.407C16.613 17.544 16.648 17.681 16.82 17.681C16.991 17.681 17.505 17.475 17.916 16.927L17.923 16.923C17.921 16.855 17.916 16.789 17.916 16.721C17.916 16.31 17.951 15.967 18.02 15.727C18.088 15.453 18.431 15.213 18.637 15.213C18.74 15.213 18.842 15.282 18.842 15.384C18.842 15.419 18.842 15.487 18.808 15.521C18.671 15.967 18.568 16.378 18.568 16.79C18.568 17.03 18.602 17.372 18.67 17.578C18.67 17.612 18.705 17.647 18.74 17.647C18.808 17.647 19.288 17.202 19.63 16.619C19.322 16.413 19.15 16.07 19.15 15.659C19.15 14.939 19.596 14.562 20.008 14.562C20.351 14.562 20.625 14.802 20.625 15.282C20.625 15.59 20.522 15.932 20.351 16.242H20.453C20.5618 16.2455 20.6701 16.226 20.7707 16.1846C20.8714 16.1432 20.9621 16.081 21.037 16.002C21.0685 15.9501 21.1153 15.9092 21.171 15.885C21.506 15.46 22.001 15.145 22.581 15.145C23.061 15.145 23.505 15.35 23.54 15.727C23.608 16.242 23.162 16.345 23.025 16.345L23.023 16.343C22.885 16.343 22.646 16.308 22.646 16.171C22.646 16.034 22.955 16.103 22.92 15.795C22.886 15.589 22.68 15.52 22.474 15.52C21.788 15.52 21.344 16.411 21.446 17.131C21.48 17.406 21.617 17.714 21.891 17.714C22.097 17.714 22.406 17.406 22.543 16.96C22.611 16.686 22.886 16.446 23.126 16.446C23.229 16.446 23.296 16.48 23.331 16.617C23.331 16.686 23.331 16.823 23.194 17.269C23.024 17.577 23.023 17.749 23.057 17.886C23.091 18.16 23.228 18.366 23.366 18.469C23.4 18.503 23.434 18.571 23.434 18.571C23.434 18.64 23.4 18.709 23.297 18.709C23.263 18.709 23.229 18.709 23.194 18.674C22.68 18.469 22.474 18.126 22.405 17.783C22.2 18.023 21.96 18.16 21.685 18.16C21.24 18.16 20.795 17.749 20.725 17.234C20.7054 17.0148 20.7309 16.7939 20.8 16.585C20.597 16.715 20.378 16.788 20.177 16.788H20.007C19.56 17.44 19.08 17.886 18.737 18.091C18.6205 18.153 18.4918 18.1885 18.36 18.195C18.292 18.195 18.189 18.16 18.155 18.091C18.06 17.939 17.999 17.699 17.962 17.424C17.481 17.951 16.817 18.229 16.509 18.229C16.166 18.229 15.961 18.023 15.927 17.679V17.303C16.029 16.549 16.304 16.103 16.304 15.966C16.3031 15.9479 16.2955 15.9308 16.2828 15.9179C16.2701 15.905 16.2531 15.8972 16.235 15.896C15.995 15.896 15.207 16.72 15.069 17.269L14.966 17.714C14.898 18.023 14.589 18.229 14.384 18.229C14.281 18.229 14.212 18.194 14.178 18.057V17.92L14.224 17.687C13.789 17.997 13.354 18.195 13.149 18.195C12.841 18.195 12.669 18.023 12.635 17.783C12.429 18.057 12.19 18.195 11.881 18.195C11.529 18.195 11.185 17.955 11.019 17.602C10.775 17.877 10.496 18.155 10.167 18.366C9.687 18.675 9.139 18.915 8.487 18.915C7.905 18.915 7.39 18.606 7.116 18.332C6.704 17.955 6.465 17.372 6.43 16.823C6.225 15.143 7.253 12.983 8.83 12.023C9.208 11.818 9.585 11.68 9.962 11.68ZM19.732 14.971C19.628 14.971 19.56 15.143 19.56 15.314C19.56 15.588 19.697 15.897 19.869 16.069C19.936 15.8819 19.9705 15.6847 19.971 15.486C19.971 15.143 19.835 14.971 19.732 14.971Z" fill="white"/>
</svg>
