<svg width="100" height="32" viewBox="0 0 100 32" fill="none" xmlns="http://www.w3.org/2000/svg">
<path d="M95 0H31V32H95C97.7614 32 100 29.7614 100 27V5C100 2.23858 97.7614 0 95 0Z" fill="#0F1418"/>
<path d="M41.564 20V19.7L42.584 19.472V11.378L41.564 11.15V10.862H44.558C45.198 10.862 45.748 10.89 46.208 10.946C46.672 11.002 47.076 11.094 47.42 11.222C47.768 11.346 48.082 11.514 48.362 11.726C48.906 12.13 49.326 12.656 49.622 13.304C49.918 13.948 50.066 14.662 50.066 15.446C50.066 16.254 49.908 16.998 49.592 17.678C49.276 18.354 48.84 18.894 48.284 19.298C47.932 19.55 47.548 19.73 47.132 19.838C46.716 19.946 46.208 20 45.608 20H41.564ZM45.164 19.526C45.732 19.526 46.198 19.454 46.562 19.31C46.926 19.162 47.248 18.92 47.528 18.584C47.836 18.2 48.07 17.73 48.23 17.174C48.394 16.614 48.476 15.996 48.476 15.32C48.476 14.644 48.394 14.046 48.23 13.526C48.066 13.006 47.824 12.57 47.504 12.218C47.212 11.91 46.864 11.69 46.46 11.558C46.056 11.422 45.532 11.354 44.888 11.354H43.934V18.812C43.934 19.08 44.024 19.266 44.204 19.37C44.384 19.474 44.704 19.526 45.164 19.526ZM51.1617 20V19.712L52.1817 19.472V11.384L51.1617 11.15V10.862H54.7497C55.3017 10.862 55.7597 10.902 56.1237 10.982C56.4917 11.058 56.7977 11.178 57.0417 11.342C57.3257 11.538 57.5477 11.788 57.7077 12.092C57.8677 12.396 57.9477 12.724 57.9477 13.076C57.9477 13.588 57.7757 14.02 57.4317 14.372C57.0917 14.724 56.6017 14.964 55.9617 15.092V15.134C56.4417 15.186 56.8617 15.324 57.2217 15.548C57.5817 15.768 57.8597 16.052 58.0557 16.4C58.2557 16.748 58.3557 17.14 58.3557 17.576C58.3557 17.94 58.2837 18.28 58.1397 18.596C57.9957 18.912 57.7977 19.172 57.5457 19.376C57.2697 19.6 56.9317 19.76 56.5317 19.856C56.1317 19.952 55.6037 20 54.9477 20H51.1617ZM54.5637 19.526C55.3477 19.526 55.9257 19.36 56.2977 19.028C56.6737 18.692 56.8617 18.174 56.8617 17.474C56.8617 16.758 56.6677 16.232 56.2797 15.896C55.8917 15.556 55.2857 15.386 54.4617 15.386H53.5317V18.818C53.5317 19.094 53.6037 19.282 53.7477 19.382C53.8957 19.478 54.1677 19.526 54.5637 19.526ZM53.5317 14.894H54.1917C54.4077 14.894 54.5877 14.892 54.7317 14.888C54.8797 14.88 55.0157 14.87 55.1397 14.858C55.5797 14.81 55.9177 14.632 56.1537 14.324C56.3897 14.012 56.5077 13.59 56.5077 13.058C56.5077 12.774 56.4717 12.536 56.3997 12.344C56.3277 12.148 56.2137 11.974 56.0577 11.822C55.8857 11.646 55.6777 11.524 55.4337 11.456C55.1937 11.384 54.8637 11.348 54.4437 11.348H53.5317V14.894ZM62.4266 20.126C61.8466 20.126 61.3366 19.994 60.8966 19.73C60.4606 19.462 60.1206 19.09 59.8766 18.614C59.6366 18.134 59.5166 17.58 59.5166 16.952C59.5166 16.284 59.6506 15.698 59.9186 15.194C60.1906 14.69 60.5686 14.296 61.0526 14.012C61.5406 13.728 62.1046 13.586 62.7446 13.586C63.5366 13.586 64.1426 13.816 64.5626 14.276C64.9866 14.736 65.2066 15.41 65.2226 16.298L65.1386 16.37H60.4886V16.022L63.8486 15.902C63.8766 15.798 63.8906 15.64 63.8906 15.428C63.8906 14.468 63.4686 13.988 62.6246 13.988C62.0446 13.988 61.5966 14.216 61.2806 14.672C60.9686 15.124 60.8126 15.766 60.8126 16.598C60.8126 18.338 61.4886 19.208 62.8406 19.208C63.7206 19.208 64.3946 18.888 64.8626 18.248L65.0846 18.386C64.8766 18.938 64.5386 19.366 64.0706 19.67C63.6066 19.974 63.0586 20.126 62.4266 20.126ZM67.6954 20.126C67.2674 20.126 66.9194 19.992 66.6514 19.724C66.3874 19.456 66.2554 19.108 66.2554 18.68C66.2554 18.328 66.3634 18.024 66.5794 17.768C66.7954 17.512 67.1434 17.288 67.6234 17.096C68.1074 16.9 68.7454 16.722 69.5374 16.562V15.44C69.5374 14.932 69.4674 14.576 69.3274 14.372C69.1914 14.168 68.9554 14.066 68.6194 14.066C68.2874 14.066 68.0234 14.146 67.8274 14.306C67.6314 14.466 67.5334 14.682 67.5334 14.954C67.5334 15.03 67.5374 15.106 67.5454 15.182C67.5574 15.254 67.5634 15.324 67.5634 15.392C67.5634 15.596 67.5014 15.764 67.3774 15.896C67.2574 16.028 67.1034 16.094 66.9154 16.094C66.7434 16.094 66.6034 16.038 66.4954 15.926C66.3914 15.814 66.3394 15.668 66.3394 15.488C66.3394 15.228 66.4514 14.962 66.6754 14.69C66.9034 14.414 67.2034 14.178 67.5754 13.982C68.0714 13.718 68.6094 13.586 69.1894 13.586C69.5374 13.586 69.8314 13.64 70.0714 13.748C70.3154 13.856 70.4914 14.01 70.5994 14.21C70.6634 14.346 70.7054 14.518 70.7254 14.726C70.7494 14.934 70.7614 15.282 70.7614 15.77V18.452C70.7614 18.84 70.7914 19.104 70.8514 19.244C70.9154 19.384 71.0334 19.454 71.2054 19.454C71.4014 19.454 71.5914 19.342 71.7754 19.118L71.9914 19.322C71.7954 19.606 71.5954 19.812 71.3914 19.94C71.1914 20.064 70.9574 20.126 70.6894 20.126C70.3654 20.126 70.1134 20.038 69.9334 19.862C69.7534 19.686 69.6334 19.418 69.5734 19.058H69.5374C69.3094 19.386 69.0334 19.646 68.7094 19.838C68.3854 20.03 68.0474 20.126 67.6954 20.126ZM68.2954 19.364C68.5434 19.364 68.7754 19.3 68.9914 19.172C69.2074 19.04 69.3894 18.858 69.5374 18.626V16.934C69.0014 17.038 68.5794 17.152 68.2714 17.276C67.9674 17.4 67.7514 17.552 67.6234 17.732C67.4994 17.908 67.4374 18.13 67.4374 18.398C67.4374 18.706 67.5094 18.944 67.6534 19.112C67.8014 19.28 68.0154 19.364 68.2954 19.364ZM74.6611 20.126L72.4891 14.48C72.4171 14.292 72.3291 14.166 72.2251 14.102C72.1211 14.034 71.9191 13.99 71.6191 13.97V13.706H74.7091V13.97C74.3691 13.982 74.1451 14.012 74.0371 14.06C73.9291 14.104 73.8751 14.174 73.8751 14.27C73.8751 14.362 73.8991 14.474 73.9471 14.606L75.3031 18.452H75.3511L76.6171 14.864C76.6891 14.66 76.7251 14.504 76.7251 14.396C76.7251 14.28 76.6731 14.194 76.5691 14.138C76.4651 14.078 76.2371 14.022 75.8851 13.97V13.706H78.3451V13.97C78.0491 14.018 77.8251 14.076 77.6731 14.144C77.5211 14.208 77.4071 14.298 77.3311 14.414C77.2591 14.53 77.1871 14.686 77.1151 14.882L75.2311 20.126H74.6611ZM81.3172 20.126C80.7372 20.126 80.2272 19.994 79.7872 19.73C79.3512 19.462 79.0112 19.09 78.7672 18.614C78.5272 18.134 78.4072 17.58 78.4072 16.952C78.4072 16.284 78.5412 15.698 78.8092 15.194C79.0812 14.69 79.4592 14.296 79.9432 14.012C80.4312 13.728 80.9952 13.586 81.6352 13.586C82.4272 13.586 83.0332 13.816 83.4532 14.276C83.8772 14.736 84.0972 15.41 84.1132 16.298L84.0292 16.37H79.3792V16.022L82.7392 15.902C82.7672 15.798 82.7812 15.64 82.7812 15.428C82.7812 14.468 82.3592 13.988 81.5152 13.988C80.9352 13.988 80.4872 14.216 80.1712 14.672C79.8592 15.124 79.7032 15.766 79.7032 16.598C79.7032 18.338 80.3792 19.208 81.7312 19.208C82.6112 19.208 83.2852 18.888 83.7532 18.248L83.9752 18.386C83.7672 18.938 83.4292 19.366 82.9612 19.67C82.4972 19.974 81.9492 20.126 81.3172 20.126ZM84.954 20V19.736L85.854 19.55V14.66L84.978 14.33V14.156L86.898 13.58H87.03V14.876L87.078 14.936V19.55L88.314 19.736V20H84.954ZM86.988 15.428L86.964 14.936C87.26 14.5 87.554 14.164 87.846 13.928C88.142 13.692 88.418 13.574 88.674 13.574C88.894 13.574 89.08 13.65 89.232 13.802C89.384 13.95 89.46 14.13 89.46 14.342C89.46 14.538 89.394 14.704 89.262 14.84C89.13 14.972 88.966 15.038 88.77 15.038C88.57 15.038 88.414 14.964 88.302 14.816C88.222 14.724 88.154 14.662 88.098 14.63C88.042 14.594 87.978 14.576 87.906 14.576C87.79 14.576 87.644 14.654 87.468 14.81C87.296 14.962 87.136 15.168 86.988 15.428Z" fill="white"/>
<path d="M31 0H5C2.23858 0 0 2.23858 0 5V27C0 29.7614 2.23858 32 5 32H31V0Z" fill="#382923"/>
<path d="M19.4977 6.00047C18.9789 6.0124 18.4743 6.17159 18.0427 6.45947C17.1302 6.9854 16.3476 7.70963 15.7526 8.57864C15.3802 8.61604 15.0051 8.61604 14.6327 8.57864C14.3659 8.57864 13.9755 8.7528 14.1542 9.38097C14.3331 10.0091 14.8192 10.6287 14.7792 10.9842C14.7358 11.205 14.7168 11.4299 14.7223 11.6548C14.4741 12.0476 13.3135 13.9406 12.9612 15.4455C12.9612 15.4455 13.6243 8.8063 11.5907 7.67047C9.55724 6.5343 7.92074 7.43972 7.37365 8.93655C6.20474 12.1307 7.93632 17.1243 10.3782 21.155C12.8201 25.1858 15.1389 25.9119 16.7828 25.9841C19.5316 26.1044 18.7316 25.5091 19.7191 25.4502C20.7064 25.3915 20.5621 25.9845 22.206 25.7546C23.4043 25.5809 23.6102 24.7792 23.1566 24.4184C22.7028 24.0576 22.8544 23.1824 23.2867 21.3194C23.7191 19.4564 23.1001 16.1777 22.6651 15.3331C22.2301 14.4884 22.2782 14.0582 22.7398 13.227C23.1231 12.5898 23.3646 11.8776 23.4479 11.1387C23.4872 10.8503 23.4872 10.5579 23.4479 10.2696C23.4488 10.2636 23.4488 10.2576 23.4479 10.2517V10.2094C23.4479 10.2094 23.1613 11.3554 22.5982 11.767C22.5079 11.833 22.4189 11.9008 22.3313 11.9705C22.3874 11.7566 22.5987 10.8538 22.2972 10.3672C22.2972 10.3672 22.1715 12.4402 21.0667 12.5499C19.9618 12.6595 18.3983 11.5296 17.958 11.0752C17.9901 11.2502 18.0148 11.2986 18.0491 11.4333C18.0857 11.5595 18.1288 11.6831 18.1793 11.8044C18.3341 12.3043 18.4991 13.0691 18.251 13.5476C17.864 14.3067 17.0213 15.4751 17.1067 17.143C17.1159 18.1595 17.3441 19.162 17.7757 20.0824C18.1012 20.9057 18.1864 21.6653 18.1223 21.7963C18.0583 21.9272 18.1448 22.5974 16.6103 21.448C15.0758 20.2986 14.662 19.1091 14.662 19.1091C14.4201 19.7743 14.3247 20.4837 14.3822 21.1891C14.4807 22.2002 14.6981 23.1961 15.0299 24.1563C15.0299 24.1563 13.0175 22.5251 12.9107 19.2588C12.8093 16.2571 14.5657 12.785 14.846 12.2504C14.9003 12.3707 14.9808 12.4781 15.082 12.5629C15.1832 12.6476 15.3024 12.7081 15.4303 12.7403C15.4303 12.7403 14.6477 12.3091 15.2187 10.6358C15.7898 8.96255 16.9409 7.47397 18.1045 6.81914C18.584 6.52013 19.1318 6.34814 19.6961 6.31937C20.2605 6.29061 20.8229 6.40601 21.3303 6.65472C20.8781 6.26886 20.3125 6.0409 19.7191 6.00539C19.6454 6.00074 19.5715 5.9991 19.4977 6.00047ZM18.3388 7.5548C18.277 7.55591 18.2154 7.563 18.1549 7.57597C17.8613 7.64014 17.7047 7.9843 17.9075 8.4093C17.9484 8.50424 17.9673 8.60719 17.9628 8.71047C17.9588 8.81393 17.9316 8.91516 17.8831 9.00664C18.1118 8.77873 18.3664 8.57826 18.6416 8.4093C18.9597 8.2379 19.3014 8.1145 19.6556 8.04314C19.4414 8.03726 19.2328 7.97372 19.0517 7.85922C18.9399 7.73833 18.7985 7.64859 18.6416 7.5988C18.5437 7.56791 18.4414 7.55305 18.3388 7.5548ZM22.3981 7.69972C21.9784 7.69972 21.4212 7.7943 20.9918 7.96339C20.7302 8.03715 20.5045 8.20382 20.3571 8.43214C20.1249 8.96672 21.5383 9.85272 22.1067 9.68697C22.3736 9.60947 22.7698 9.03005 22.9433 8.52489C23.0608 8.16405 23.0765 7.8428 22.8603 7.75989C22.7511 7.71905 22.5888 7.69972 22.3981 7.69972ZM22.5852 12.1414C22.5852 12.1414 22.2966 13.1256 22.0937 13.5721C21.9176 13.9676 21.8616 13.9351 21.7307 13.9806C21.794 13.8003 21.8429 13.6153 21.8772 13.4273C21.9547 13.1011 21.8772 13.0155 21.8772 13.0155C21.8082 13.3907 21.6779 13.7519 21.4915 14.0848C21.3218 14.1535 21.1344 14.1649 20.9577 14.1173C20.7415 14.0291 20.7037 13.0124 20.7037 12.9536C21.0605 12.991 21.4209 12.936 21.7503 12.7941C22.0799 12.6515 22.3673 12.4268 22.5852 12.1414Z" fill="white"/>
</svg>
