<svg width="100" height="32" viewBox="0 0 100 32" fill="none" xmlns="http://www.w3.org/2000/svg">
<path d="M95 0H31V32H95C97.7614 32 100 29.7614 100 27V5C100 2.23858 97.7614 0 95 0Z" fill="#0F1418"/>
<path d="M36.564 20V19.7L37.584 19.472V11.378L36.564 11.15V10.862H39.558C40.198 10.862 40.748 10.89 41.208 10.946C41.672 11.002 42.076 11.094 42.42 11.222C42.768 11.346 43.082 11.514 43.362 11.726C43.906 12.13 44.326 12.656 44.622 13.304C44.918 13.948 45.066 14.662 45.066 15.446C45.066 16.254 44.908 16.998 44.592 17.678C44.276 18.354 43.84 18.894 43.284 19.298C42.932 19.55 42.548 19.73 42.132 19.838C41.716 19.946 41.208 20 40.608 20H36.564ZM40.164 19.526C40.732 19.526 41.198 19.454 41.562 19.31C41.926 19.162 42.248 18.92 42.528 18.584C42.836 18.2 43.07 17.73 43.23 17.174C43.394 16.614 43.476 15.996 43.476 15.32C43.476 14.644 43.394 14.046 43.23 13.526C43.066 13.006 42.824 12.57 42.504 12.218C42.212 11.91 41.864 11.69 41.46 11.558C41.056 11.422 40.532 11.354 39.888 11.354H38.934V18.812C38.934 19.08 39.024 19.266 39.204 19.37C39.384 19.474 39.704 19.526 40.164 19.526ZM49.1766 20.126C48.5966 20.126 48.0866 19.994 47.6466 19.73C47.2106 19.462 46.8706 19.09 46.6266 18.614C46.3866 18.134 46.2666 17.58 46.2666 16.952C46.2666 16.284 46.4006 15.698 46.6686 15.194C46.9406 14.69 47.3186 14.296 47.8026 14.012C48.2906 13.728 48.8546 13.586 49.4946 13.586C50.2866 13.586 50.8926 13.816 51.3126 14.276C51.7366 14.736 51.9566 15.41 51.9726 16.298L51.8886 16.37H47.2386V16.022L50.5986 15.902C50.6266 15.798 50.6406 15.64 50.6406 15.428C50.6406 14.468 50.2186 13.988 49.3746 13.988C48.7946 13.988 48.3466 14.216 48.0306 14.672C47.7186 15.124 47.5626 15.766 47.5626 16.598C47.5626 18.338 48.2386 19.208 49.5906 19.208C50.4706 19.208 51.1446 18.888 51.6126 18.248L51.8346 18.386C51.6266 18.938 51.2886 19.366 50.8206 19.67C50.3566 19.974 49.8086 20.126 49.1766 20.126ZM55.8914 20.126C55.3114 20.126 54.8014 19.994 54.3614 19.73C53.9254 19.462 53.5854 19.09 53.3414 18.614C53.1014 18.134 52.9814 17.58 52.9814 16.952C52.9814 16.284 53.1154 15.698 53.3834 15.194C53.6554 14.69 54.0334 14.296 54.5174 14.012C55.0054 13.728 55.5694 13.586 56.2094 13.586C57.0014 13.586 57.6074 13.816 58.0274 14.276C58.4514 14.736 58.6714 15.41 58.6874 16.298L58.6034 16.37H53.9534V16.022L57.3134 15.902C57.3414 15.798 57.3554 15.64 57.3554 15.428C57.3554 14.468 56.9334 13.988 56.0894 13.988C55.5094 13.988 55.0614 14.216 54.7454 14.672C54.4334 15.124 54.2774 15.766 54.2774 16.598C54.2774 18.338 54.9534 19.208 56.3054 19.208C57.1854 19.208 57.8594 18.888 58.3274 18.248L58.5494 18.386C58.3414 18.938 58.0034 19.366 57.5354 19.67C57.0714 19.974 56.5234 20.126 55.8914 20.126ZM59.4023 22.97V22.736L60.3143 22.538V14.66L59.4323 14.342V14.156L61.3463 13.586H61.4903V14.612H61.5383C61.7783 14.256 62.0723 13.996 62.4203 13.832C62.7723 13.668 63.1283 13.586 63.4883 13.586C63.9883 13.586 64.4263 13.724 64.8023 14C65.1823 14.272 65.4783 14.646 65.6903 15.122C65.9063 15.598 66.0143 16.142 66.0143 16.754C66.0143 17.414 65.8743 17.998 65.5943 18.506C65.3143 19.014 64.9243 19.412 64.4243 19.7C63.9283 19.984 63.3483 20.126 62.6842 20.126C62.4923 20.126 62.3023 20.11 62.1143 20.078C61.9263 20.05 61.7363 20.004 61.5443 19.94V22.538L62.7683 22.736V22.97H59.4023ZM62.7323 19.724C63.1203 19.724 63.4603 19.606 63.7523 19.37C64.0443 19.134 64.2703 18.808 64.4303 18.392C64.5943 17.972 64.6763 17.49 64.6763 16.946C64.6763 16.15 64.5143 15.524 64.1903 15.068C63.8703 14.612 63.4323 14.384 62.8763 14.384C62.6323 14.384 62.3823 14.45 62.1263 14.582C61.8703 14.71 61.6903 14.872 61.5863 15.068V18.542C61.5863 18.886 61.6963 19.17 61.9163 19.394C62.1403 19.614 62.4123 19.724 62.7323 19.724ZM70.1628 20.108C69.8348 20.108 69.5148 20.06 69.2028 19.964C68.8948 19.868 68.5688 19.718 68.2248 19.514L67.7508 20H67.5048L67.2828 16.958L67.6068 16.892C67.8468 17.832 68.1628 18.514 68.5548 18.938C68.9508 19.362 69.4728 19.574 70.1208 19.574C70.6648 19.574 71.0948 19.444 71.4108 19.184C71.7268 18.92 71.8848 18.564 71.8848 18.116C71.8848 17.764 71.7748 17.45 71.5548 17.174C71.3388 16.894 70.9828 16.614 70.4868 16.334L69.5688 15.848C68.8208 15.444 68.2848 15.042 67.9608 14.642C67.6368 14.242 67.4748 13.776 67.4748 13.244C67.4748 12.764 67.5928 12.336 67.8288 11.96C68.0648 11.58 68.3868 11.282 68.7948 11.066C69.2068 10.846 69.6688 10.736 70.1808 10.736C70.8808 10.736 71.4908 10.982 72.0108 11.474L72.3768 10.85H72.6348L72.7428 13.472H72.4008C72.2128 12.724 71.9408 12.172 71.5848 11.816C71.2328 11.456 70.7828 11.276 70.2348 11.276C69.7908 11.276 69.4388 11.394 69.1788 11.63C68.9228 11.866 68.7948 12.19 68.7948 12.602C68.7948 12.974 68.9168 13.306 69.1608 13.598C69.4088 13.89 69.8248 14.19 70.4088 14.498L71.3028 14.978C71.9148 15.302 72.3568 15.662 72.6288 16.058C72.9048 16.454 73.0428 16.908 73.0428 17.42C73.0428 17.928 72.9148 18.386 72.6588 18.794C72.4068 19.198 72.0628 19.518 71.6268 19.754C71.1948 19.99 70.7068 20.108 70.1628 20.108ZM77.1844 20.126C76.6044 20.126 76.0944 19.994 75.6544 19.73C75.2184 19.462 74.8784 19.09 74.6344 18.614C74.3944 18.134 74.2744 17.58 74.2744 16.952C74.2744 16.284 74.4084 15.698 74.6764 15.194C74.9484 14.69 75.3264 14.296 75.8104 14.012C76.2984 13.728 76.8624 13.586 77.5024 13.586C78.2944 13.586 78.9004 13.816 79.3204 14.276C79.7444 14.736 79.9644 15.41 79.9804 16.298L79.8964 16.37H75.2464V16.022L78.6064 15.902C78.6344 15.798 78.6484 15.64 78.6484 15.428C78.6484 14.468 78.2264 13.988 77.3824 13.988C76.8024 13.988 76.3544 14.216 76.0384 14.672C75.7264 15.124 75.5704 15.766 75.5704 16.598C75.5704 18.338 76.2464 19.208 77.5984 19.208C78.4784 19.208 79.1524 18.888 79.6204 18.248L79.8424 18.386C79.6344 18.938 79.2964 19.366 78.8284 19.67C78.3644 19.974 77.8164 20.126 77.1844 20.126ZM83.8992 20.126C83.3192 20.126 82.8092 19.994 82.3692 19.73C81.9332 19.462 81.5932 19.09 81.3492 18.614C81.1092 18.134 80.9892 17.58 80.9892 16.952C80.9892 16.284 81.1232 15.698 81.3912 15.194C81.6632 14.69 82.0412 14.296 82.5252 14.012C83.0132 13.728 83.5772 13.586 84.2172 13.586C85.0092 13.586 85.6152 13.816 86.0352 14.276C86.4592 14.736 86.6792 15.41 86.6952 16.298L86.6112 16.37H81.9612V16.022L85.3212 15.902C85.3492 15.798 85.3632 15.64 85.3632 15.428C85.3632 14.468 84.9412 13.988 84.0972 13.988C83.5172 13.988 83.0692 14.216 82.7532 14.672C82.4412 15.124 82.2852 15.766 82.2852 16.598C82.2852 18.338 82.9612 19.208 84.3132 19.208C85.1932 19.208 85.8672 18.888 86.3352 18.248L86.5572 18.386C86.3492 18.938 86.0112 19.366 85.5432 19.67C85.0792 19.974 84.5312 20.126 83.8992 20.126ZM87.4221 20V19.736L88.3401 19.55V11.216L87.4521 10.892V10.724L89.3961 10.142H89.5341V19.55L90.4401 19.736V20H87.4221ZM92.3721 20L89.9181 16.898L90.6861 15.992L93.5481 19.55L94.5441 19.736V20H92.3721ZM89.2581 17.876L89.1621 17.312L91.5081 14.678C91.5961 14.582 91.6601 14.5 91.7001 14.432C91.7441 14.36 91.7661 14.3 91.7661 14.252C91.7661 14.184 91.7061 14.13 91.5861 14.09C91.4661 14.05 91.2261 14.01 90.8661 13.97V13.706H93.6081V13.97C93.2841 14.026 93.0341 14.08 92.8581 14.132C92.6821 14.18 92.5401 14.244 92.4321 14.324C92.3281 14.4 92.2161 14.508 92.0961 14.648L89.2581 17.876Z" fill="white"/>
<path d="M31 0H5C2.23858 0 0 2.23858 0 5V27C0 29.7614 2.23858 32 5 32H31V0Z" fill="#4D6BFE"/>
<path d="M26.7479 8.48176C26.4939 8.35776 26.384 8.59476 26.236 8.71576C26.185 8.75476 26.142 8.80576 26.099 8.85176C25.727 9.24876 25.293 9.50876 24.726 9.47776C23.897 9.43176 23.189 9.69176 22.563 10.3258C22.43 9.54376 21.988 9.07776 21.316 8.77776C20.964 8.62176 20.608 8.46676 20.361 8.12776C20.189 7.88676 20.142 7.61776 20.056 7.35376C20.001 7.19376 19.946 7.03076 19.763 7.00376C19.563 6.97276 19.4849 7.13976 19.4069 7.27976C19.094 7.85176 18.9729 8.48176 18.9849 9.11976C19.0119 10.5558 19.618 11.6998 20.823 12.5128C20.96 12.6058 20.995 12.6998 20.952 12.8358C20.87 13.1158 20.772 13.3878 20.686 13.6688C20.631 13.8478 20.549 13.8858 20.357 13.8088C19.7082 13.5299 19.1189 13.1294 18.6209 12.6288C17.7639 11.8008 16.9899 10.8868 16.0239 10.1708C15.8001 10.0054 15.5703 9.84827 15.3349 9.69976C14.3499 8.74276 15.4649 7.95676 15.7229 7.86376C15.9929 7.76576 15.8159 7.43176 14.9439 7.43576C14.0719 7.43976 13.2739 7.73076 12.2569 8.11976C12.1058 8.17767 11.9503 8.22348 11.7919 8.25676C10.8416 8.07769 9.8696 8.0433 8.90895 8.15476C7.02395 8.36476 5.51895 9.25676 4.41195 10.7778C3.08195 12.6058 2.76895 14.6838 3.15195 16.8498C3.55495 19.1338 4.72095 21.0248 6.51195 22.5028C8.36995 24.0358 10.5089 24.7868 12.9499 24.6428C14.4319 24.5578 16.0829 24.3588 17.9439 22.7828C18.4139 23.0168 18.906 23.1098 19.724 23.1798C20.354 23.2388 20.96 23.1498 21.429 23.0518C22.164 22.8958 22.1129 22.2148 21.8479 22.0908C19.693 21.0868 20.166 21.4958 19.735 21.1648C20.831 19.8688 22.481 18.5228 23.127 14.1618C23.177 13.8148 23.134 13.5968 23.127 13.3168C23.123 13.1468 23.162 13.0798 23.357 13.0608C23.898 13.0046 24.4228 12.8433 24.902 12.5858C26.298 11.8228 26.862 10.5708 26.995 9.06876C27.015 8.83876 26.9909 8.60276 26.7479 8.48176ZM14.5809 21.9998C12.4919 20.3578 11.4789 19.8168 11.0609 19.8398C10.6689 19.8638 10.7399 20.3108 10.8259 20.6028C10.9159 20.8908 11.0329 21.0888 11.1969 21.3418C11.3109 21.5088 11.3889 21.7578 11.0839 21.9448C10.4109 22.3608 9.24195 21.8048 9.18695 21.7778C7.82595 20.9758 6.68695 19.9178 5.88595 18.4708C5.11195 17.0778 4.66195 15.5838 4.58795 13.9888C4.56795 13.6028 4.68095 13.4668 5.06495 13.3968C5.56906 13.3003 6.08558 13.2871 6.59395 13.3578C8.72595 13.6698 10.5399 14.6228 12.0619 16.1318C12.9299 16.9918 13.5869 18.0188 14.2639 19.0228C14.9839 20.0888 15.7579 21.1048 16.7439 21.9368C17.0919 22.2288 17.3689 22.4508 17.6349 22.6138C16.8329 22.7038 15.4949 22.7238 14.5809 21.9998ZM15.5809 15.5598C15.5808 15.5101 15.5927 15.4611 15.6157 15.4171C15.6387 15.373 15.672 15.3353 15.7129 15.307C15.7538 15.2787 15.8009 15.2609 15.8502 15.2549C15.8995 15.2489 15.9495 15.2551 15.9959 15.2728C16.0551 15.294 16.1062 15.3331 16.142 15.3848C16.1779 15.4364 16.1967 15.4979 16.1959 15.5608C16.1961 15.6014 16.1881 15.6416 16.1726 15.6791C16.157 15.7166 16.1341 15.7506 16.1053 15.7792C16.0764 15.8078 16.0422 15.8303 16.0045 15.8455C15.9669 15.8607 15.9266 15.8683 15.8859 15.8678C15.8457 15.8679 15.8057 15.86 15.7685 15.8445C15.7313 15.829 15.6976 15.8063 15.6693 15.7776C15.641 15.7489 15.6186 15.7149 15.6037 15.6775C15.5887 15.6401 15.5803 15.6 15.5809 15.5598ZM18.6909 17.1558C18.4909 17.2368 18.2919 17.3068 18.1009 17.3158C17.8136 17.3258 17.5316 17.236 17.3029 17.0618C17.0289 16.8318 16.8329 16.7038 16.7509 16.3038C16.7227 16.1083 16.7281 15.9094 16.7669 15.7158C16.8369 15.3888 16.7589 15.1788 16.5279 14.9888C16.3409 14.8328 16.1019 14.7898 15.8399 14.7898C15.7502 14.7845 15.6631 14.7578 15.5859 14.7118C15.4759 14.6578 15.3859 14.5218 15.4719 14.3538C15.4999 14.2998 15.6319 14.1678 15.6639 14.1438C16.0199 13.9418 16.4309 14.0078 16.8099 14.1598C17.1619 14.3038 17.4279 14.5678 17.8109 14.9418C18.2019 15.3928 18.2729 15.5178 18.4959 15.8558C18.6719 16.1208 18.8319 16.3928 18.9409 16.7038C19.0079 16.8988 18.9219 17.0578 18.6909 17.1558Z" fill="white"/>
</svg>
