<svg width="100" height="32" viewBox="0 0 100 32" fill="none" xmlns="http://www.w3.org/2000/svg">
<path d="M95 0H31V32H95C97.7614 32 100 29.7614 100 27V5C100 2.23858 97.7614 0 95 0Z" fill="#0F1418"/>
<path d="M43.564 20V19.7L44.584 19.472V11.378L43.564 11.15V10.862H46.558C47.198 10.862 47.748 10.89 48.208 10.946C48.672 11.002 49.076 11.094 49.42 11.222C49.768 11.346 50.082 11.514 50.362 11.726C50.906 12.13 51.326 12.656 51.622 13.304C51.918 13.948 52.066 14.662 52.066 15.446C52.066 16.254 51.908 16.998 51.592 17.678C51.276 18.354 50.84 18.894 50.284 19.298C49.932 19.55 49.548 19.73 49.132 19.838C48.716 19.946 48.208 20 47.608 20H43.564ZM47.164 19.526C47.732 19.526 48.198 19.454 48.562 19.31C48.926 19.162 49.248 18.92 49.528 18.584C49.836 18.2 50.07 17.73 50.23 17.174C50.394 16.614 50.476 15.996 50.476 15.32C50.476 14.644 50.394 14.046 50.23 13.526C50.066 13.006 49.824 12.57 49.504 12.218C49.212 11.91 48.864 11.69 48.46 11.558C48.056 11.422 47.532 11.354 46.888 11.354H45.934V18.812C45.934 19.08 46.024 19.266 46.204 19.37C46.384 19.474 46.704 19.526 47.164 19.526ZM53.0866 20V19.736L53.9986 19.55V14.66L53.1046 14.342V14.156L55.0966 13.586H55.2286V19.55L56.1286 19.736V20H53.0866ZM54.6046 12.326C54.3606 12.326 54.1666 12.248 54.0226 12.092C53.8786 11.936 53.8066 11.754 53.8066 11.546C53.8066 11.318 53.8786 11.126 54.0226 10.97C54.1666 10.814 54.3606 10.736 54.6046 10.736C54.8526 10.736 55.0486 10.814 55.1926 10.97C55.3406 11.126 55.4146 11.318 55.4146 11.546C55.4146 11.754 55.3406 11.936 55.1926 12.092C55.0486 12.248 54.8526 12.326 54.6046 12.326ZM58.8008 20.126C58.5448 20.126 58.2608 20.1 57.9488 20.048C57.6408 20 57.3708 19.938 57.1388 19.862L57.0608 17.936H57.3728C57.4248 18.528 57.5768 18.976 57.8288 19.28C58.0808 19.58 58.4308 19.73 58.8788 19.73C59.2268 19.73 59.5048 19.634 59.7128 19.442C59.9248 19.246 60.0308 18.99 60.0308 18.674C60.0308 18.41 59.9528 18.184 59.7968 17.996C59.6408 17.804 59.3708 17.61 58.9868 17.414L58.4888 17.168C57.9768 16.912 57.6108 16.644 57.3908 16.364C57.1708 16.08 57.0608 15.738 57.0608 15.338C57.0608 14.778 57.2548 14.346 57.6428 14.042C58.0348 13.738 58.5928 13.586 59.3168 13.586C59.5968 13.586 59.8668 13.606 60.1268 13.646C60.3908 13.682 60.5968 13.732 60.7448 13.796V15.44H60.4688C60.3528 14.464 59.8988 13.976 59.1068 13.976C58.7988 13.976 58.5508 14.06 58.3628 14.228C58.1788 14.392 58.0868 14.616 58.0868 14.9C58.0868 15.148 58.1668 15.36 58.3268 15.536C58.4908 15.712 58.7668 15.894 59.1548 16.082L59.7008 16.346C60.1728 16.578 60.5128 16.834 60.7208 17.114C60.9288 17.394 61.0328 17.748 61.0328 18.176C61.0328 18.772 60.8328 19.246 60.4328 19.598C60.0328 19.95 59.4888 20.126 58.8008 20.126ZM64.9394 20.126C64.3954 20.126 63.9114 19.994 63.4874 19.73C63.0674 19.462 62.7374 19.092 62.4974 18.62C62.2614 18.144 62.1434 17.596 62.1434 16.976C62.1434 16.32 62.2734 15.738 62.5334 15.23C62.7974 14.718 63.1594 14.316 63.6194 14.024C64.0834 13.732 64.6134 13.586 65.2094 13.586C65.6294 13.586 66.0054 13.656 66.3374 13.796C66.6694 13.932 66.9314 14.114 67.1234 14.342C67.3194 14.566 67.4174 14.812 67.4174 15.08C67.4174 15.3 67.3614 15.47 67.2494 15.59C67.1374 15.71 66.9854 15.77 66.7934 15.77C66.5854 15.77 66.4294 15.708 66.3254 15.584C66.2214 15.46 66.1534 15.266 66.1214 15.002C66.0774 14.606 65.9914 14.34 65.8634 14.204C65.7354 14.068 65.5294 14 65.2454 14C64.6774 14 64.2354 14.244 63.9194 14.732C63.6074 15.216 63.4514 15.86 63.4514 16.664C63.4514 17.472 63.6154 18.092 63.9434 18.524C64.2714 18.956 64.7374 19.172 65.3414 19.172C65.7414 19.172 66.0994 19.098 66.4154 18.95C66.7314 18.802 67.0134 18.556 67.2614 18.212L67.5014 18.35C67.2814 18.918 66.9514 19.356 66.5114 19.664C66.0714 19.972 65.5474 20.126 64.9394 20.126ZM71.5921 20.126C70.9761 20.126 70.4301 19.984 69.9541 19.7C69.4781 19.412 69.1041 19.022 68.8321 18.53C68.5641 18.034 68.4301 17.476 68.4301 16.856C68.4301 16.232 68.5641 15.674 68.8321 15.182C69.1041 14.69 69.4781 14.302 69.9541 14.018C70.4301 13.73 70.9761 13.586 71.5921 13.586C72.2081 13.586 72.7521 13.73 73.2241 14.018C73.7001 14.302 74.0741 14.69 74.3461 15.182C74.6181 15.674 74.7541 16.232 74.7541 16.856C74.7541 17.476 74.6181 18.034 74.3461 18.53C74.0741 19.022 73.7001 19.412 73.2241 19.7C72.7521 19.984 72.2081 20.126 71.5921 20.126ZM71.5801 19.574C71.8721 19.574 72.1301 19.51 72.3541 19.382C72.5781 19.25 72.7661 19.064 72.9181 18.824C73.0741 18.58 73.1921 18.292 73.2721 17.96C73.3521 17.624 73.3921 17.252 73.3921 16.844C73.3921 16.44 73.3521 16.072 73.2721 15.74C73.1961 15.408 73.0821 15.122 72.9301 14.882C72.7781 14.642 72.5901 14.458 72.3661 14.33C72.1421 14.198 71.8841 14.132 71.5921 14.132C71.3001 14.132 71.0421 14.198 70.8181 14.33C70.5941 14.458 70.4061 14.642 70.2541 14.882C70.1021 15.122 69.9861 15.41 69.9061 15.746C69.8301 16.078 69.7921 16.448 69.7921 16.856C69.7921 17.264 69.8301 17.634 69.9061 17.966C69.9861 18.298 70.1021 18.584 70.2541 18.824C70.4061 19.064 70.5921 19.25 70.8121 19.382C71.0361 19.51 71.2921 19.574 71.5801 19.574ZM75.6454 20V19.736L76.5454 19.55V14.66L75.6694 14.33V14.156L77.5894 13.58H77.7214V14.876L77.7694 14.936V19.55L79.0054 19.736V20H75.6454ZM77.6794 15.428L77.6554 14.936C77.9514 14.5 78.2454 14.164 78.5374 13.928C78.8334 13.692 79.1094 13.574 79.3654 13.574C79.5854 13.574 79.7714 13.65 79.9234 13.802C80.0754 13.95 80.1514 14.13 80.1514 14.342C80.1514 14.538 80.0854 14.704 79.9534 14.84C79.8214 14.972 79.6574 15.038 79.4614 15.038C79.2614 15.038 79.1054 14.964 78.9934 14.816C78.9134 14.724 78.8454 14.662 78.7894 14.63C78.7334 14.594 78.6694 14.576 78.5974 14.576C78.4814 14.576 78.3354 14.654 78.1594 14.81C77.9874 14.962 77.8274 15.168 77.6794 15.428ZM83.2079 20.126C82.7359 20.126 82.3119 19.988 81.9359 19.712C81.5599 19.436 81.2619 19.06 81.0419 18.584C80.8259 18.104 80.7179 17.562 80.7179 16.958C80.7179 16.294 80.8499 15.71 81.1139 15.206C81.3779 14.698 81.7459 14.302 82.2179 14.018C82.6899 13.73 83.2359 13.586 83.8559 13.586C84.2959 13.586 84.7279 13.652 85.1519 13.784V11.234L84.2639 10.892V10.724L86.2259 10.142H86.3639V19.046L87.1859 19.232V19.376L85.3319 20.126H85.2359V19.136L85.1819 19.118C84.9339 19.45 84.6399 19.702 84.2999 19.874C83.9639 20.042 83.5999 20.126 83.2079 20.126ZM83.7359 19.334C84.0319 19.334 84.3059 19.272 84.5579 19.148C84.8139 19.024 85.0119 18.856 85.1519 18.644V15.308C85.1519 14.88 85.0399 14.552 84.8159 14.324C84.5959 14.096 84.2779 13.982 83.8619 13.982C83.3259 13.982 82.8919 14.236 82.5599 14.744C82.2319 15.252 82.0679 15.926 82.0679 16.766C82.0679 17.558 82.2159 18.184 82.5119 18.644C82.8079 19.104 83.2159 19.334 83.7359 19.334Z" fill="white"/>
<path d="M31 0H5C2.23858 0 0 2.23858 0 5V27C0 29.7614 2.23858 32 5 32H31V0Z" fill="#5865F2"/>
<path d="M23.317 8.51646C21.761 7.80222 20.119 7.2929 18.4319 7.00126C18.4166 6.9984 18.4007 7.00044 18.3867 7.00711C18.3726 7.01377 18.3609 7.0247 18.3534 7.03836C18.1424 7.41366 17.9087 7.90316 17.7451 8.28786C15.9004 8.01166 14.0651 8.01166 12.2583 8.28786C12.0947 7.89456 11.8525 7.41366 11.6406 7.03836C11.6328 7.02501 11.6211 7.01434 11.6071 7.00774C11.5931 7.00114 11.5774 6.99892 11.5621 7.00136C9.87488 7.29232 8.2327 7.8016 6.6769 8.51636C6.66359 8.52204 6.65238 8.53172 6.6448 8.54406C3.5334 13.1925 2.681 17.7266 3.0992 22.2045C3.10039 22.2154 3.10376 22.226 3.10912 22.2357C3.11448 22.2453 3.12171 22.2538 3.1304 22.2606C5.1832 23.7682 7.1717 24.6834 9.1233 25.29C9.13848 25.2945 9.15468 25.2943 9.16972 25.2893C9.18477 25.2844 9.19795 25.275 9.2075 25.2624C9.6691 24.632 10.0806 23.9672 10.4335 23.2682C10.4384 23.2586 10.4411 23.2481 10.4416 23.2374C10.4421 23.2267 10.4404 23.216 10.4364 23.206C10.4325 23.196 10.4265 23.1869 10.4188 23.1794C10.4112 23.1719 10.402 23.1662 10.3919 23.1625C9.7391 22.9149 9.1176 22.613 8.5197 22.2702C8.5088 22.2638 8.49964 22.2548 8.49304 22.244C8.48643 22.2332 8.48258 22.221 8.48183 22.2083C8.48108 22.1957 8.48345 22.1831 8.48873 22.1716C8.49401 22.1601 8.50204 22.1501 8.5121 22.1425C8.6379 22.0482 8.7638 21.9502 8.8839 21.8511C8.89458 21.8423 8.9075 21.8366 8.92121 21.8348C8.93492 21.8329 8.94887 21.8349 8.9615 21.8406C12.8893 23.6339 17.1415 23.6339 21.0229 21.8406C21.0355 21.8345 21.0496 21.8322 21.0635 21.8339C21.0774 21.8356 21.0906 21.8412 21.1014 21.8501C21.2216 21.9491 21.3474 22.0482 21.4742 22.1425C21.4843 22.15 21.4924 22.16 21.4977 22.1714C21.5031 22.1828 21.5055 22.1954 21.5049 22.208C21.5042 22.2206 21.5005 22.2329 21.494 22.2437C21.4875 22.2545 21.4784 22.2636 21.4676 22.2701C20.8695 22.6194 20.2429 22.9176 19.5946 23.1615C19.5845 23.1653 19.5754 23.1712 19.5678 23.1789C19.5602 23.1865 19.5542 23.1956 19.5504 23.2057C19.5466 23.2158 19.5449 23.2265 19.5455 23.2373C19.5461 23.2481 19.549 23.2586 19.5539 23.2682C19.9143 23.9662 20.3258 24.631 20.7789 25.2614C20.7882 25.2744 20.8013 25.2841 20.8164 25.2893C20.8315 25.2944 20.8478 25.2946 20.8631 25.29C22.8241 24.6833 24.8126 23.7681 26.8654 22.2606C26.8742 22.2541 26.8816 22.2458 26.887 22.2363C26.8924 22.2268 26.8957 22.2163 26.8967 22.2054C27.3971 17.0284 26.0585 12.5315 23.3482 8.54496C23.3416 8.53201 23.3305 8.52196 23.317 8.51646ZM11.02 19.4779C9.8375 19.4779 8.8631 18.3922 8.8631 17.0589C8.8631 15.7257 9.8186 14.64 11.0201 14.64C12.2309 14.64 13.1958 15.7352 13.1769 17.059C13.1769 18.3922 12.2214 19.4779 11.02 19.4779ZM18.9948 19.4779C17.8123 19.4779 16.8379 18.3922 16.8379 17.0589C16.8379 15.7257 17.7933 14.64 18.9948 14.64C20.2056 14.64 21.1705 15.7352 21.1516 17.059C21.1516 18.3922 20.2056 19.4779 18.9948 19.4779Z" fill="white"/>
</svg>
