<svg width="100" height="32" viewBox="0 0 100 32" fill="none" xmlns="http://www.w3.org/2000/svg">
<path d="M95 0H31V32H95C97.7614 32 100 29.7614 100 27V5C100 2.23858 97.7614 0 95 0Z" fill="#0F1418"/>
<path d="M48.036 20.126C47.564 20.126 47.14 19.988 46.764 19.712C46.388 19.436 46.09 19.06 45.87 18.584C45.654 18.104 45.546 17.562 45.546 16.958C45.546 16.294 45.678 15.71 45.942 15.206C46.206 14.698 46.574 14.302 47.046 14.018C47.518 13.73 48.064 13.586 48.684 13.586C49.124 13.586 49.556 13.652 49.98 13.784V11.234L49.092 10.892V10.724L51.054 10.142H51.192V19.046L52.014 19.232V19.376L50.16 20.126H50.064V19.136L50.01 19.118C49.762 19.45 49.468 19.702 49.128 19.874C48.792 20.042 48.428 20.126 48.036 20.126ZM48.564 19.334C48.86 19.334 49.134 19.272 49.386 19.148C49.642 19.024 49.84 18.856 49.98 18.644V15.308C49.98 14.88 49.868 14.552 49.644 14.324C49.424 14.096 49.106 13.982 48.69 13.982C48.154 13.982 47.72 14.236 47.388 14.744C47.06 15.252 46.896 15.926 46.896 16.766C46.896 17.558 47.044 18.184 47.34 18.644C47.636 19.104 48.044 19.334 48.564 19.334ZM52.6845 20V19.736L53.5845 19.55V14.66L52.7085 14.33V14.156L54.6285 13.58H54.7605V14.876L54.8085 14.936V19.55L56.0445 19.736V20H52.6845ZM54.7185 15.428L54.6945 14.936C54.9905 14.5 55.2845 14.164 55.5765 13.928C55.8725 13.692 56.1485 13.574 56.4045 13.574C56.6245 13.574 56.8105 13.65 56.9625 13.802C57.1145 13.95 57.1905 14.13 57.1905 14.342C57.1905 14.538 57.1245 14.704 56.9925 14.84C56.8605 14.972 56.6965 15.038 56.5005 15.038C56.3005 15.038 56.1445 14.964 56.0325 14.816C55.9525 14.724 55.8845 14.662 55.8285 14.63C55.7725 14.594 55.7085 14.576 55.6365 14.576C55.5205 14.576 55.3745 14.654 55.1985 14.81C55.0265 14.962 54.8665 15.168 54.7185 15.428ZM59.3087 20.126C58.8807 20.126 58.5327 19.992 58.2647 19.724C58.0007 19.456 57.8687 19.108 57.8687 18.68C57.8687 18.328 57.9767 18.024 58.1927 17.768C58.4087 17.512 58.7567 17.288 59.2367 17.096C59.7207 16.9 60.3587 16.722 61.1507 16.562V15.44C61.1507 14.932 61.0807 14.576 60.9407 14.372C60.8047 14.168 60.5687 14.066 60.2327 14.066C59.9007 14.066 59.6367 14.146 59.4407 14.306C59.2447 14.466 59.1467 14.682 59.1467 14.954C59.1467 15.03 59.1507 15.106 59.1587 15.182C59.1707 15.254 59.1767 15.324 59.1767 15.392C59.1767 15.596 59.1147 15.764 58.9907 15.896C58.8707 16.028 58.7167 16.094 58.5287 16.094C58.3567 16.094 58.2167 16.038 58.1087 15.926C58.0047 15.814 57.9527 15.668 57.9527 15.488C57.9527 15.228 58.0647 14.962 58.2887 14.69C58.5167 14.414 58.8167 14.178 59.1887 13.982C59.6847 13.718 60.2227 13.586 60.8027 13.586C61.1507 13.586 61.4447 13.64 61.6847 13.748C61.9287 13.856 62.1047 14.01 62.2127 14.21C62.2767 14.346 62.3187 14.518 62.3387 14.726C62.3627 14.934 62.3747 15.282 62.3747 15.77V18.452C62.3747 18.84 62.4047 19.104 62.4647 19.244C62.5287 19.384 62.6467 19.454 62.8187 19.454C63.0147 19.454 63.2047 19.342 63.3887 19.118L63.6047 19.322C63.4087 19.606 63.2087 19.812 63.0047 19.94C62.8047 20.064 62.5707 20.126 62.3027 20.126C61.9787 20.126 61.7267 20.038 61.5467 19.862C61.3667 19.686 61.2467 19.418 61.1867 19.058H61.1507C60.9227 19.386 60.6467 19.646 60.3227 19.838C59.9987 20.03 59.6607 20.126 59.3087 20.126ZM59.9087 19.364C60.1567 19.364 60.3887 19.3 60.6047 19.172C60.8207 19.04 61.0027 18.858 61.1507 18.626V16.934C60.6147 17.038 60.1927 17.152 59.8847 17.276C59.5807 17.4 59.3647 17.552 59.2367 17.732C59.1127 17.908 59.0507 18.13 59.0507 18.398C59.0507 18.706 59.1227 18.944 59.2667 19.112C59.4147 19.28 59.6287 19.364 59.9087 19.364ZM69.7247 20.126L67.8527 14.48C67.8007 14.292 67.7167 14.166 67.6007 14.102C67.4887 14.034 67.3187 13.99 67.0907 13.97V13.706H69.9707V13.97C69.5587 13.998 69.3087 14.048 69.2207 14.12C69.1327 14.192 69.1267 14.354 69.2027 14.606L70.3727 18.452H70.4207L71.6687 14.864C71.7047 14.772 71.7307 14.688 71.7467 14.612C71.7667 14.536 71.7767 14.468 71.7767 14.408C71.7767 14.284 71.7167 14.192 71.5967 14.132C71.4767 14.068 71.2547 14.014 70.9307 13.97V13.706H73.3967V13.97C73.0967 14.018 72.8707 14.076 72.7187 14.144C72.5667 14.212 72.4527 14.304 72.3767 14.42C72.3047 14.532 72.2327 14.686 72.1607 14.882L70.3127 20.126H69.7247ZM66.0707 20.126L64.0907 14.48C64.0267 14.292 63.9407 14.166 63.8327 14.102C63.7247 14.034 63.5207 13.99 63.2207 13.97V13.706H66.3107V13.97C66.0347 13.986 65.8327 14.012 65.7047 14.048C65.5807 14.08 65.5107 14.138 65.4947 14.222C65.4827 14.306 65.5007 14.434 65.5487 14.606L66.7187 18.452H66.7607L68.0867 14.774L68.5787 14.798L66.6407 20.126H66.0707ZM74.1459 20.126C73.8939 20.126 73.6899 20.044 73.5339 19.88C73.3819 19.712 73.3059 19.512 73.3059 19.28C73.3059 19.032 73.3819 18.828 73.5339 18.668C73.6899 18.504 73.8919 18.422 74.1399 18.422C74.4039 18.422 74.6139 18.504 74.7699 18.668C74.9299 18.828 75.0099 19.032 75.0099 19.28C75.0099 19.512 74.9299 19.712 74.7699 19.88C74.6139 20.044 74.4059 20.126 74.1459 20.126ZM76.0866 20V19.736L76.9986 19.55V14.66L76.1046 14.342V14.156L78.0966 13.586H78.2286V19.55L79.1286 19.736V20H76.0866ZM77.6046 12.326C77.3606 12.326 77.1666 12.248 77.0226 12.092C76.8786 11.936 76.8066 11.754 76.8066 11.546C76.8066 11.318 76.8786 11.126 77.0226 10.97C77.1666 10.814 77.3606 10.736 77.6046 10.736C77.8526 10.736 78.0486 10.814 78.1926 10.97C78.3406 11.126 78.4146 11.318 78.4146 11.546C78.4146 11.754 78.3406 11.936 78.1926 12.092C78.0486 12.248 77.8526 12.326 77.6046 12.326ZM83.0608 20.126C82.4448 20.126 81.8988 19.984 81.4228 19.7C80.9468 19.412 80.5728 19.022 80.3008 18.53C80.0328 18.034 79.8988 17.476 79.8988 16.856C79.8988 16.232 80.0328 15.674 80.3008 15.182C80.5728 14.69 80.9468 14.302 81.4228 14.018C81.8988 13.73 82.4448 13.586 83.0608 13.586C83.6768 13.586 84.2208 13.73 84.6928 14.018C85.1688 14.302 85.5428 14.69 85.8148 15.182C86.0868 15.674 86.2228 16.232 86.2228 16.856C86.2228 17.476 86.0868 18.034 85.8148 18.53C85.5428 19.022 85.1688 19.412 84.6928 19.7C84.2208 19.984 83.6768 20.126 83.0608 20.126ZM83.0488 19.574C83.3408 19.574 83.5988 19.51 83.8228 19.382C84.0468 19.25 84.2348 19.064 84.3868 18.824C84.5428 18.58 84.6608 18.292 84.7408 17.96C84.8208 17.624 84.8608 17.252 84.8608 16.844C84.8608 16.44 84.8208 16.072 84.7408 15.74C84.6648 15.408 84.5508 15.122 84.3988 14.882C84.2468 14.642 84.0588 14.458 83.8348 14.33C83.6108 14.198 83.3528 14.132 83.0608 14.132C82.7688 14.132 82.5108 14.198 82.2868 14.33C82.0628 14.458 81.8748 14.642 81.7228 14.882C81.5708 15.122 81.4548 15.41 81.3748 15.746C81.2988 16.078 81.2608 16.448 81.2608 16.856C81.2608 17.264 81.2988 17.634 81.3748 17.966C81.4548 18.298 81.5708 18.584 81.7228 18.824C81.8748 19.064 82.0608 19.25 82.2808 19.382C82.5048 19.51 82.7608 19.574 83.0488 19.574Z" fill="white"/>
<path d="M31 0H5C2.23858 0 0 2.23858 0 5V27C0 29.7614 2.23858 32 5 32H31V0Z" fill="#F08705"/>
<path d="M22.69 17.419H20.163L17.496 12.864C17.7904 12.8043 18.0548 12.6438 18.2437 12.4102C18.4326 12.1765 18.5342 11.8844 18.531 11.584V8.16C18.531 7.435 17.955 6.848 17.229 6.848H12.771C12.045 6.848 11.459 7.424 11.459 8.149V11.584C11.459 12.203 11.885 12.736 12.493 12.864L9.827 17.419H7.309C6.584 17.419 5.997 17.995 5.997 18.72V22.155C5.997 22.88 6.573 23.467 7.299 23.467H11.757C12.483 23.467 13.069 22.891 13.069 22.165V18.731C13.069 18.005 12.493 17.419 11.768 17.419H11.331L13.976 12.896H16.035L18.691 17.419H18.253C17.528 17.419 16.941 17.995 16.941 18.72V22.155C16.941 22.88 17.517 23.467 18.243 23.467H22.7C23.426 23.467 24.012 22.891 24.012 22.165V18.731C24.012 18.005 23.436 17.419 22.711 17.419H22.69ZM27 26.976C27 27.541 26.541 28 25.987 28H4.024C3.75415 28.0005 3.49505 27.8943 3.30321 27.7046C3.11137 27.5148 3.00238 27.2568 3 26.987V5.024C3 4.459 3.459 4 4.013 4H25.976C26.541 4 27 4.459 27 5.013V26.976Z" fill="white"/>
</svg>
