<svg width="100" height="32" viewBox="0 0 100 32" fill="none" xmlns="http://www.w3.org/2000/svg">
<path d="M95 0H31V32H95C97.7614 32 100 29.7614 100 27V5C100 2.23858 97.7614 0 95 0Z" fill="#0F1418"/>
<path d="M48.564 20V19.712L49.584 19.472V11.378L48.564 11.15V10.862H55.26L55.47 13.472H55.152C55.06 13.136 54.944 12.784 54.804 12.416C54.668 12.044 54.5 11.69 54.3 11.354H50.934V19.472L52.284 19.712V20H48.564ZM53.43 16.844C53.35 16.356 53.202 15.884 52.986 15.428H50.772V14.93H52.986C53.098 14.694 53.188 14.458 53.256 14.222C53.328 13.982 53.386 13.746 53.43 13.514H53.736V16.844H53.43ZM56.1295 20V19.736L57.0415 19.55V14.66L56.1475 14.342V14.156L58.1395 13.586H58.2715V19.55L59.1715 19.736V20H56.1295ZM57.6475 12.326C57.4035 12.326 57.2095 12.248 57.0655 12.092C56.9215 11.936 56.8495 11.754 56.8495 11.546C56.8495 11.318 56.9215 11.126 57.0655 10.97C57.2095 10.814 57.4035 10.736 57.6475 10.736C57.8955 10.736 58.0915 10.814 58.2355 10.97C58.3835 11.126 58.4575 11.318 58.4575 11.546C58.4575 11.754 58.3835 11.936 58.2355 12.092C58.0915 12.248 57.8955 12.326 57.6475 12.326ZM63.8298 14.03C63.8978 13.834 63.9878 13.634 64.0998 13.43C64.2118 13.222 64.3518 13.046 64.5198 12.902C64.6878 12.758 64.8858 12.686 65.1138 12.686C65.3018 12.686 65.4658 12.74 65.6058 12.848C65.7458 12.956 65.8158 13.104 65.8158 13.292C65.8158 13.452 65.7618 13.59 65.6538 13.706C65.5458 13.818 65.4118 13.874 65.2518 13.874C65.1358 13.874 65.0498 13.848 64.9938 13.796C64.9378 13.744 64.8858 13.692 64.8378 13.64C64.7938 13.588 64.7218 13.562 64.6218 13.562C64.5138 13.562 64.4158 13.632 64.3278 13.772C64.2398 13.908 64.1778 14.064 64.1418 14.24L63.8298 14.03ZM62.5398 17.594C62.8438 17.594 63.0798 17.496 63.2478 17.3C63.4198 17.104 63.5398 16.862 63.6078 16.574C63.6758 16.282 63.7098 16 63.7098 15.728C63.7098 15.556 63.6938 15.37 63.6618 15.17C63.6338 14.966 63.5798 14.774 63.4998 14.594C63.4238 14.41 63.3118 14.26 63.1638 14.144C63.0198 14.024 62.8338 13.964 62.6058 13.964C62.3658 13.964 62.1698 14.028 62.0178 14.156C61.8658 14.28 61.7478 14.442 61.6638 14.642C61.5798 14.838 61.5218 15.044 61.4898 15.26C61.4578 15.476 61.4418 15.674 61.4418 15.854C61.4418 16.082 61.4698 16.332 61.5258 16.604C61.5818 16.872 61.6878 17.104 61.8438 17.3C62.0038 17.496 62.2358 17.594 62.5398 17.594ZM62.5458 17.99C62.1218 17.99 61.7978 18.04 61.5738 18.14C61.3498 18.236 61.2378 18.386 61.2378 18.59C61.2378 18.734 61.3378 18.854 61.5378 18.95C61.7418 19.042 62.1358 19.132 62.7198 19.22L63.5778 19.37C64.2738 19.478 64.7858 19.662 65.1138 19.922C65.4458 20.178 65.6118 20.526 65.6118 20.966C65.6118 21.33 65.5098 21.646 65.3058 21.914C65.1018 22.182 64.8278 22.402 64.4838 22.574C64.1438 22.75 63.7638 22.88 63.3438 22.964C62.9238 23.048 62.4978 23.09 62.0658 23.09C61.7498 23.09 61.4398 23.06 61.1358 23C60.8318 22.944 60.5558 22.854 60.3078 22.73C60.0638 22.606 59.8678 22.446 59.7198 22.25C59.5718 22.054 59.4978 21.816 59.4978 21.536C59.4978 21.208 59.6198 20.912 59.8638 20.648C60.1078 20.388 60.5278 20.138 61.1238 19.898L61.4898 20.048C61.1858 20.164 60.9478 20.344 60.7758 20.588C60.6038 20.836 60.5178 21.102 60.5178 21.386C60.5178 21.678 60.5998 21.918 60.7638 22.106C60.9278 22.298 61.1458 22.44 61.4178 22.532C61.6938 22.628 61.9918 22.676 62.3118 22.676C62.6998 22.676 63.0698 22.632 63.4218 22.544C63.7778 22.456 64.0678 22.32 64.2918 22.136C64.5198 21.952 64.6338 21.716 64.6338 21.428C64.6338 21.28 64.5858 21.146 64.4898 21.026C64.3938 20.906 64.2078 20.792 63.9318 20.684C63.6598 20.58 63.2578 20.478 62.7258 20.378L61.7358 20.192C61.2118 20.092 60.8178 19.936 60.5538 19.724C60.2938 19.512 60.1638 19.258 60.1638 18.962C60.1638 18.826 60.2058 18.68 60.2898 18.524C60.3778 18.368 60.5458 18.222 60.7938 18.086C61.0418 17.946 61.4078 17.842 61.8918 17.774L62.5458 17.99ZM62.5458 17.99C62.0778 17.99 61.6638 17.9 61.3038 17.72C60.9438 17.536 60.6618 17.28 60.4578 16.952C60.2538 16.62 60.1518 16.234 60.1518 15.794C60.1518 15.37 60.2558 14.992 60.4638 14.66C60.6758 14.328 60.9638 14.066 61.3278 13.874C61.6918 13.682 62.1038 13.586 62.5638 13.586C63.0198 13.586 63.4318 13.68 63.7998 13.868C64.1678 14.052 64.4598 14.308 64.6758 14.636C64.8918 14.964 64.9998 15.338 64.9998 15.758C64.9998 16.154 64.8978 16.522 64.6938 16.862C64.4898 17.198 64.2038 17.47 63.8358 17.678C63.4678 17.886 63.0378 17.99 62.5458 17.99ZM66.1199 20V19.736L67.0139 19.55V14.672L66.1319 14.342V14.168L68.0279 13.586H68.1839V14.624L68.2439 14.684V19.55L69.1259 19.736V20H66.1199ZM69.9119 20V19.736L70.7999 19.562V15.896C70.7999 15.328 70.7099 14.92 70.5299 14.672C70.3539 14.42 70.0699 14.294 69.6779 14.294C69.3739 14.294 69.0839 14.37 68.8079 14.522C68.5359 14.67 68.2979 14.884 68.0939 15.164V14.66C68.4299 14.32 68.7999 14.056 69.2039 13.868C69.6119 13.68 70.0119 13.586 70.4039 13.586C70.9519 13.586 71.3579 13.73 71.6219 14.018C71.8859 14.302 72.0179 14.746 72.0179 15.35V19.562L72.9059 19.736V20H69.9119ZM73.6919 20V19.736L74.5739 19.562V15.86C74.5739 15.292 74.4879 14.89 74.3159 14.654C74.1479 14.414 73.8619 14.294 73.4579 14.294C73.1339 14.294 72.8379 14.37 72.5699 14.522C72.3059 14.67 72.0739 14.884 71.8739 15.164V14.66C72.1819 14.304 72.5439 14.036 72.9599 13.856C73.3759 13.676 73.7959 13.586 74.2199 13.586C74.7559 13.586 75.1479 13.732 75.3959 14.024C75.6439 14.316 75.7759 14.776 75.7919 15.404V19.562L76.6799 19.736V20H73.6919ZM78.9259 20.126C78.4979 20.126 78.1499 19.992 77.8819 19.724C77.6179 19.456 77.4859 19.108 77.4859 18.68C77.4859 18.328 77.5939 18.024 77.8099 17.768C78.0259 17.512 78.3739 17.288 78.8539 17.096C79.3379 16.9 79.9759 16.722 80.7679 16.562V15.44C80.7679 14.932 80.6979 14.576 80.5579 14.372C80.4219 14.168 80.1859 14.066 79.8499 14.066C79.5179 14.066 79.2539 14.146 79.0579 14.306C78.8619 14.466 78.7639 14.682 78.7639 14.954C78.7639 15.03 78.7679 15.106 78.7759 15.182C78.7879 15.254 78.7939 15.324 78.7939 15.392C78.7939 15.596 78.7319 15.764 78.6079 15.896C78.4879 16.028 78.3339 16.094 78.1459 16.094C77.9739 16.094 77.8339 16.038 77.7259 15.926C77.6219 15.814 77.5699 15.668 77.5699 15.488C77.5699 15.228 77.6819 14.962 77.9059 14.69C78.1339 14.414 78.4339 14.178 78.8059 13.982C79.3019 13.718 79.8399 13.586 80.4199 13.586C80.7679 13.586 81.0619 13.64 81.3019 13.748C81.5459 13.856 81.7219 14.01 81.8299 14.21C81.8939 14.346 81.9359 14.518 81.9559 14.726C81.9799 14.934 81.9919 15.282 81.9919 15.77V18.452C81.9919 18.84 82.0219 19.104 82.0819 19.244C82.1459 19.384 82.2639 19.454 82.4359 19.454C82.6319 19.454 82.8219 19.342 83.0059 19.118L83.2219 19.322C83.0259 19.606 82.8259 19.812 82.6219 19.94C82.4219 20.064 82.1879 20.126 81.9199 20.126C81.5959 20.126 81.3439 20.038 81.1639 19.862C80.9839 19.686 80.8639 19.418 80.8039 19.058H80.7679C80.5399 19.386 80.2639 19.646 79.9399 19.838C79.6159 20.03 79.2779 20.126 78.9259 20.126ZM79.5259 19.364C79.7739 19.364 80.0059 19.3 80.2219 19.172C80.4379 19.04 80.6199 18.858 80.7679 18.626V16.934C80.2319 17.038 79.8099 17.152 79.5019 17.276C79.1979 17.4 78.9819 17.552 78.8539 17.732C78.7299 17.908 78.6679 18.13 78.6679 18.398C78.6679 18.706 78.7399 18.944 78.8839 19.112C79.0319 19.28 79.2459 19.364 79.5259 19.364Z" fill="white"/>
<path d="M31 0H5C2.23858 0 0 2.23858 0 5V27C0 29.7614 2.23858 32 5 32H31V0Z" fill="#F24E1E"/>
<path d="M19.195 12.981H14.607V4H19.195C21.671 4 23.685 6.014 23.685 8.49C23.685 10.966 21.671 12.981 19.195 12.981ZM16.078 11.51H19.195C20.86 11.51 22.214 10.155 22.214 8.491C22.214 6.827 20.859 5.472 19.195 5.472H16.078V11.51ZM16.078 12.981H11.491C9.015 12.981 7.001 10.967 7.001 8.491C7.001 6.015 9.015 4 11.491 4H16.079V12.981H16.078ZM11.491 5.471C9.826 5.471 8.472 6.826 8.472 8.49C8.472 10.154 9.826 11.51 11.491 11.51H14.608V5.471H11.491ZM16.078 20.49H11.491C9.015 20.49 7.001 18.476 7.001 16C7.001 13.524 9.015 11.51 11.491 11.51H16.079V20.49H16.078ZM11.491 12.981C9.826 12.981 8.472 14.336 8.472 16C8.472 17.664 9.827 19.019 11.491 19.019H14.608V12.981H11.491ZM11.515 28C9.026 28 7 25.986 7 23.51C7 21.034 9.014 19.02 11.49 19.02H16.078V23.461C16.078 25.964 14.031 28 11.515 28ZM11.491 20.49C10.6906 20.4911 9.92336 20.8095 9.35741 21.3754C8.79147 21.9414 8.47306 22.7086 8.472 23.509C8.472 25.174 9.837 26.528 11.516 26.528C13.221 26.528 14.609 25.152 14.609 23.46V20.49H11.491ZM19.195 20.49H19.097C16.621 20.49 14.607 18.476 14.607 16C14.607 13.524 16.621 11.51 19.097 11.51H19.195C21.671 11.51 23.685 13.524 23.685 16C23.685 18.476 21.671 20.49 19.195 20.49ZM19.098 12.981C17.433 12.981 16.079 14.336 16.079 16C16.079 17.664 17.434 19.019 19.098 19.019H19.196C20.861 19.019 22.215 17.664 22.215 16C22.215 14.336 20.859 12.981 19.195 12.981H19.098Z" fill="white"/>
</svg>
