<svg width="137" height="32" viewBox="0 0 137 32" fill="none" xmlns="http://www.w3.org/2000/svg">
<path d="M129.319 0H31V32H129.319C133.561 32 137 29.7614 137 27V5C137 2.23858 133.561 0 129.319 0Z" fill="#0F1418"/>
<path d="M42.986 20.126C42.134 20.126 41.38 19.932 40.724 19.544C40.072 19.152 39.56 18.61 39.188 17.918C38.82 17.226 38.636 16.432 38.636 15.536C38.636 14.844 38.748 14.208 38.972 13.628C39.196 13.044 39.51 12.536 39.914 12.104C40.318 11.668 40.794 11.332 41.342 11.096C41.89 10.856 42.488 10.736 43.136 10.736C43.604 10.736 44.042 10.8 44.45 10.928C44.858 11.056 45.196 11.236 45.464 11.468H45.506L46.13 10.862H46.406V13.616H46.1C45.844 13.04 45.584 12.584 45.32 12.248C45.056 11.908 44.762 11.664 44.438 11.516C44.118 11.368 43.738 11.294 43.298 11.294C42.298 11.294 41.542 11.652 41.03 12.368C40.518 13.08 40.262 14.134 40.262 15.53C40.262 16.882 40.502 17.892 40.982 18.56C41.462 19.224 42.19 19.556 43.166 19.556C43.546 19.556 43.884 19.496 44.18 19.376C44.476 19.252 44.696 19.07 44.84 18.83C44.884 18.774 44.912 18.708 44.924 18.632C44.936 18.552 44.942 18.412 44.942 18.212V15.938L43.874 15.71V15.422H47.354V15.71L46.298 15.938V19.034C46.074 19.246 45.782 19.434 45.422 19.598C45.062 19.762 44.67 19.892 44.246 19.988C43.822 20.08 43.402 20.126 42.986 20.126ZM51.346 20.126C50.73 20.126 50.184 19.984 49.708 19.7C49.232 19.412 48.858 19.022 48.586 18.53C48.318 18.034 48.184 17.476 48.184 16.856C48.184 16.232 48.318 15.674 48.586 15.182C48.858 14.69 49.232 14.302 49.708 14.018C50.184 13.73 50.73 13.586 51.346 13.586C51.962 13.586 52.506 13.73 52.978 14.018C53.454 14.302 53.828 14.69 54.1 15.182C54.372 15.674 54.508 16.232 54.508 16.856C54.508 17.476 54.372 18.034 54.1 18.53C53.828 19.022 53.454 19.412 52.978 19.7C52.506 19.984 51.962 20.126 51.346 20.126ZM51.334 19.574C51.626 19.574 51.884 19.51 52.108 19.382C52.332 19.25 52.52 19.064 52.672 18.824C52.828 18.58 52.946 18.292 53.026 17.96C53.106 17.624 53.146 17.252 53.146 16.844C53.146 16.44 53.106 16.072 53.026 15.74C52.95 15.408 52.836 15.122 52.684 14.882C52.532 14.642 52.344 14.458 52.12 14.33C51.896 14.198 51.638 14.132 51.346 14.132C51.054 14.132 50.796 14.198 50.572 14.33C50.348 14.458 50.16 14.642 50.008 14.882C49.856 15.122 49.74 15.41 49.66 15.746C49.584 16.078 49.546 16.448 49.546 16.856C49.546 17.264 49.584 17.634 49.66 17.966C49.74 18.298 49.856 18.584 50.008 18.824C50.16 19.064 50.346 19.25 50.566 19.382C50.79 19.51 51.046 19.574 51.334 19.574ZM58.7053 20.126C58.0893 20.126 57.5433 19.984 57.0673 19.7C56.5913 19.412 56.2173 19.022 55.9453 18.53C55.6773 18.034 55.5433 17.476 55.5433 16.856C55.5433 16.232 55.6773 15.674 55.9453 15.182C56.2173 14.69 56.5913 14.302 57.0673 14.018C57.5433 13.73 58.0893 13.586 58.7053 13.586C59.3213 13.586 59.8653 13.73 60.3373 14.018C60.8133 14.302 61.1873 14.69 61.4593 15.182C61.7313 15.674 61.8673 16.232 61.8673 16.856C61.8673 17.476 61.7313 18.034 61.4593 18.53C61.1873 19.022 60.8133 19.412 60.3373 19.7C59.8653 19.984 59.3213 20.126 58.7053 20.126ZM58.6933 19.574C58.9853 19.574 59.2433 19.51 59.4673 19.382C59.6913 19.25 59.8793 19.064 60.0313 18.824C60.1873 18.58 60.3053 18.292 60.3853 17.96C60.4653 17.624 60.5053 17.252 60.5053 16.844C60.5053 16.44 60.4653 16.072 60.3853 15.74C60.3093 15.408 60.1953 15.122 60.0433 14.882C59.8913 14.642 59.7033 14.458 59.4793 14.33C59.2553 14.198 58.9973 14.132 58.7053 14.132C58.4133 14.132 58.1553 14.198 57.9313 14.33C57.7073 14.458 57.5193 14.642 57.3673 14.882C57.2153 15.122 57.0993 15.41 57.0193 15.746C56.9433 16.078 56.9053 16.448 56.9053 16.856C56.9053 17.264 56.9433 17.634 57.0193 17.966C57.0993 18.298 57.2153 18.584 57.3673 18.824C57.5193 19.064 57.7053 19.25 57.9253 19.382C58.1493 19.51 58.4053 19.574 58.6933 19.574ZM66.7907 14.03C66.8587 13.834 66.9487 13.634 67.0607 13.43C67.1727 13.222 67.3127 13.046 67.4807 12.902C67.6487 12.758 67.8467 12.686 68.0747 12.686C68.2627 12.686 68.4267 12.74 68.5667 12.848C68.7067 12.956 68.7767 13.104 68.7767 13.292C68.7767 13.452 68.7227 13.59 68.6147 13.706C68.5067 13.818 68.3727 13.874 68.2127 13.874C68.0967 13.874 68.0107 13.848 67.9547 13.796C67.8987 13.744 67.8467 13.692 67.7987 13.64C67.7547 13.588 67.6827 13.562 67.5827 13.562C67.4747 13.562 67.3767 13.632 67.2887 13.772C67.2007 13.908 67.1387 14.064 67.1027 14.24L66.7907 14.03ZM65.5007 17.594C65.8047 17.594 66.0407 17.496 66.2087 17.3C66.3807 17.104 66.5007 16.862 66.5687 16.574C66.6367 16.282 66.6707 16 66.6707 15.728C66.6707 15.556 66.6547 15.37 66.6227 15.17C66.5947 14.966 66.5407 14.774 66.4607 14.594C66.3847 14.41 66.2727 14.26 66.1247 14.144C65.9807 14.024 65.7947 13.964 65.5667 13.964C65.3267 13.964 65.1307 14.028 64.9787 14.156C64.8267 14.28 64.7087 14.442 64.6247 14.642C64.5407 14.838 64.4827 15.044 64.4507 15.26C64.4187 15.476 64.4027 15.674 64.4027 15.854C64.4027 16.082 64.4307 16.332 64.4867 16.604C64.5427 16.872 64.6487 17.104 64.8047 17.3C64.9647 17.496 65.1967 17.594 65.5007 17.594ZM65.5067 17.99C65.0827 17.99 64.7587 18.04 64.5347 18.14C64.3107 18.236 64.1987 18.386 64.1987 18.59C64.1987 18.734 64.2987 18.854 64.4987 18.95C64.7027 19.042 65.0967 19.132 65.6807 19.22L66.5387 19.37C67.2347 19.478 67.7467 19.662 68.0747 19.922C68.4067 20.178 68.5727 20.526 68.5727 20.966C68.5727 21.33 68.4707 21.646 68.2667 21.914C68.0627 22.182 67.7887 22.402 67.4447 22.574C67.1047 22.75 66.7247 22.88 66.3047 22.964C65.8847 23.048 65.4587 23.09 65.0267 23.09C64.7107 23.09 64.4007 23.06 64.0967 23C63.7927 22.944 63.5167 22.854 63.2687 22.73C63.0247 22.606 62.8287 22.446 62.6807 22.25C62.5327 22.054 62.4587 21.816 62.4587 21.536C62.4587 21.208 62.5807 20.912 62.8247 20.648C63.0687 20.388 63.4887 20.138 64.0847 19.898L64.4507 20.048C64.1467 20.164 63.9087 20.344 63.7367 20.588C63.5647 20.836 63.4787 21.102 63.4787 21.386C63.4787 21.678 63.5607 21.918 63.7247 22.106C63.8887 22.298 64.1067 22.44 64.3787 22.532C64.6547 22.628 64.9527 22.676 65.2727 22.676C65.6607 22.676 66.0307 22.632 66.3827 22.544C66.7387 22.456 67.0287 22.32 67.2527 22.136C67.4807 21.952 67.5947 21.716 67.5947 21.428C67.5947 21.28 67.5467 21.146 67.4507 21.026C67.3547 20.906 67.1687 20.792 66.8927 20.684C66.6207 20.58 66.2187 20.478 65.6867 20.378L64.6967 20.192C64.1727 20.092 63.7787 19.936 63.5147 19.724C63.2547 19.512 63.1247 19.258 63.1247 18.962C63.1247 18.826 63.1667 18.68 63.2507 18.524C63.3387 18.368 63.5067 18.222 63.7547 18.086C64.0027 17.946 64.3687 17.842 64.8527 17.774L65.5067 17.99ZM65.5067 17.99C65.0387 17.99 64.6247 17.9 64.2647 17.72C63.9047 17.536 63.6227 17.28 63.4187 16.952C63.2147 16.62 63.1127 16.234 63.1127 15.794C63.1127 15.37 63.2167 14.992 63.4247 14.66C63.6367 14.328 63.9247 14.066 64.2887 13.874C64.6527 13.682 65.0647 13.586 65.5247 13.586C65.9807 13.586 66.3927 13.68 66.7607 13.868C67.1287 14.052 67.4207 14.308 67.6367 14.636C67.8527 14.964 67.9607 15.338 67.9607 15.758C67.9607 16.154 67.8587 16.522 67.6547 16.862C67.4507 17.198 67.1647 17.47 66.7967 17.678C66.4287 17.886 65.9987 17.99 65.5067 17.99ZM68.9788 20V19.736L69.8908 19.55V11.21L68.9908 10.892V10.706L70.9888 10.142H71.1148V19.55L72.0148 19.736V20H68.9788ZM75.7273 20.126C75.1473 20.126 74.6373 19.994 74.1973 19.73C73.7613 19.462 73.4213 19.09 73.1773 18.614C72.9373 18.134 72.8173 17.58 72.8173 16.952C72.8173 16.284 72.9513 15.698 73.2193 15.194C73.4913 14.69 73.8693 14.296 74.3533 14.012C74.8413 13.728 75.4053 13.586 76.0453 13.586C76.8373 13.586 77.4433 13.816 77.8633 14.276C78.2873 14.736 78.5073 15.41 78.5233 16.298L78.4393 16.37H73.7893V16.022L77.1493 15.902C77.1773 15.798 77.1913 15.64 77.1913 15.428C77.1913 14.468 76.7693 13.988 75.9253 13.988C75.3453 13.988 74.8973 14.216 74.5813 14.672C74.2693 15.124 74.1133 15.766 74.1133 16.598C74.1133 18.338 74.7893 19.208 76.1413 19.208C77.0213 19.208 77.6953 18.888 78.1633 18.248L78.3853 18.386C78.1773 18.938 77.8393 19.366 77.3713 19.67C76.9073 19.974 76.3593 20.126 75.7273 20.126ZM87.1894 20.126C86.3294 20.126 85.5714 19.93 84.9154 19.538C84.2634 19.146 83.7534 18.602 83.3854 17.906C83.0214 17.206 82.8394 16.4 82.8394 15.488C82.8394 14.792 82.9454 14.154 83.1574 13.574C83.3734 12.994 83.6774 12.492 84.0694 12.068C84.4614 11.644 84.9254 11.316 85.4614 11.084C85.9974 10.852 86.5854 10.736 87.2254 10.736C87.6974 10.736 88.1554 10.8 88.5994 10.928C89.0474 11.052 89.4514 11.232 89.8114 11.468H89.8594L90.4354 10.862H90.6694V13.616H90.2794C90.2114 13.396 90.1354 13.198 90.0514 13.022C89.9714 12.846 89.8854 12.684 89.7934 12.536C89.5134 12.088 89.1834 11.768 88.8034 11.576C88.4234 11.384 87.9714 11.288 87.4474 11.288C86.4794 11.288 85.7334 11.642 85.2094 12.35C84.6894 13.058 84.4294 14.074 84.4294 15.398C84.4294 16.722 84.6914 17.746 85.2154 18.47C85.7434 19.194 86.4874 19.556 87.4474 19.556C87.9234 19.556 88.3534 19.462 88.7374 19.274C89.1214 19.082 89.4414 18.802 89.6974 18.434C89.8454 18.226 89.9714 17.99 90.0754 17.726C90.1834 17.462 90.2654 17.174 90.3214 16.862H90.6694V20H90.3634L89.8234 19.22C89.3994 19.536 88.9754 19.766 88.5514 19.91C88.1314 20.054 87.6774 20.126 87.1894 20.126ZM91.7015 20V19.736L92.6075 19.55V11.216L91.7195 10.892V10.712L93.6875 10.142H93.8255V19.55L94.7075 19.736V20H91.7015ZM95.7095 20V19.736L96.5855 19.562V15.71C96.5855 15.234 96.4895 14.88 96.2975 14.648C96.1055 14.412 95.7955 14.294 95.3675 14.294C95.0635 14.294 94.7735 14.366 94.4975 14.51C94.2215 14.654 93.9615 14.854 93.7175 15.11V14.624C94.0855 14.284 94.4755 14.026 94.8875 13.85C95.2995 13.674 95.7035 13.586 96.0995 13.586C97.2395 13.586 97.8095 14.124 97.8095 15.2V19.562L98.6975 19.736V20H95.7095ZM99.3212 20V19.736L100.221 19.55V14.66L99.3452 14.33V14.156L101.265 13.58H101.397V14.876L101.445 14.936V19.55L102.681 19.736V20H99.3212ZM101.355 15.428L101.331 14.936C101.627 14.5 101.921 14.164 102.213 13.928C102.509 13.692 102.785 13.574 103.041 13.574C103.261 13.574 103.447 13.65 103.599 13.802C103.751 13.95 103.827 14.13 103.827 14.342C103.827 14.538 103.761 14.704 103.629 14.84C103.497 14.972 103.333 15.038 103.137 15.038C102.937 15.038 102.781 14.964 102.669 14.816C102.589 14.724 102.521 14.662 102.465 14.63C102.409 14.594 102.345 14.576 102.273 14.576C102.157 14.576 102.011 14.654 101.835 14.81C101.663 14.962 101.503 15.168 101.355 15.428ZM107.526 20.126C106.91 20.126 106.364 19.984 105.888 19.7C105.412 19.412 105.038 19.022 104.766 18.53C104.498 18.034 104.364 17.476 104.364 16.856C104.364 16.232 104.498 15.674 104.766 15.182C105.038 14.69 105.412 14.302 105.888 14.018C106.364 13.73 106.91 13.586 107.526 13.586C108.142 13.586 108.686 13.73 109.158 14.018C109.634 14.302 110.008 14.69 110.28 15.182C110.552 15.674 110.688 16.232 110.688 16.856C110.688 17.476 110.552 18.034 110.28 18.53C110.008 19.022 109.634 19.412 109.158 19.7C108.686 19.984 108.142 20.126 107.526 20.126ZM107.514 19.574C107.806 19.574 108.064 19.51 108.288 19.382C108.512 19.25 108.7 19.064 108.852 18.824C109.008 18.58 109.126 18.292 109.206 17.96C109.286 17.624 109.326 17.252 109.326 16.844C109.326 16.44 109.286 16.072 109.206 15.74C109.13 15.408 109.016 15.122 108.864 14.882C108.712 14.642 108.524 14.458 108.3 14.33C108.076 14.198 107.818 14.132 107.526 14.132C107.234 14.132 106.976 14.198 106.752 14.33C106.528 14.458 106.34 14.642 106.188 14.882C106.036 15.122 105.92 15.41 105.84 15.746C105.764 16.078 105.726 16.448 105.726 16.856C105.726 17.264 105.764 17.634 105.84 17.966C105.92 18.298 106.036 18.584 106.188 18.824C106.34 19.064 106.526 19.25 106.746 19.382C106.97 19.51 107.226 19.574 107.514 19.574ZM111.573 20V19.736L112.467 19.55V14.672L111.585 14.342V14.168L113.481 13.586H113.637V14.624L113.697 14.684V19.55L114.579 19.736V20H111.573ZM115.365 20V19.736L116.253 19.562V15.896C116.253 15.328 116.163 14.92 115.983 14.672C115.807 14.42 115.523 14.294 115.131 14.294C114.827 14.294 114.537 14.37 114.261 14.522C113.989 14.67 113.751 14.884 113.547 15.164V14.66C113.883 14.32 114.253 14.056 114.657 13.868C115.065 13.68 115.465 13.586 115.857 13.586C116.405 13.586 116.811 13.73 117.075 14.018C117.339 14.302 117.471 14.746 117.471 15.35V19.562L118.359 19.736V20H115.365ZM119.145 20V19.736L120.027 19.562V15.86C120.027 15.292 119.941 14.89 119.769 14.654C119.601 14.414 119.315 14.294 118.911 14.294C118.587 14.294 118.291 14.37 118.023 14.522C117.759 14.67 117.527 14.884 117.327 15.164V14.66C117.635 14.304 117.997 14.036 118.413 13.856C118.829 13.676 119.249 13.586 119.673 13.586C120.209 13.586 120.601 13.732 120.849 14.024C121.097 14.316 121.229 14.776 121.245 15.404V19.562L122.133 19.736V20H119.145ZM125.825 20.126C125.245 20.126 124.735 19.994 124.295 19.73C123.859 19.462 123.519 19.09 123.275 18.614C123.035 18.134 122.915 17.58 122.915 16.952C122.915 16.284 123.049 15.698 123.317 15.194C123.589 14.69 123.967 14.296 124.451 14.012C124.939 13.728 125.503 13.586 126.143 13.586C126.935 13.586 127.541 13.816 127.961 14.276C128.385 14.736 128.605 15.41 128.621 16.298L128.537 16.37H123.887V16.022L127.247 15.902C127.275 15.798 127.289 15.64 127.289 15.428C127.289 14.468 126.867 13.988 126.023 13.988C125.443 13.988 124.995 14.216 124.679 14.672C124.367 15.124 124.211 15.766 124.211 16.598C124.211 18.338 124.887 19.208 126.239 19.208C127.119 19.208 127.793 18.888 128.261 18.248L128.483 18.386C128.275 18.938 127.937 19.366 127.469 19.67C127.005 19.974 126.457 20.126 125.825 20.126Z" fill="white"/>
<path d="M31 0H5C2.23858 0 0 2.23858 0 5V27C0 29.7614 2.23858 32 5 32H31V0Z" fill="#4285F4"/>
<path d="M15 6C11.8417 6 9.02585 7.46417 7.19335 9.75083L10.4875 15.4575C10.62 14.3538 11.1523 13.337 11.9839 12.5993C12.8154 11.8616 13.8884 11.4542 15 11.4542H23.9092C23.0712 9.81219 21.7956 8.43382 20.2234 7.47131C18.6512 6.50879 16.8435 5.99961 15 6ZM6.60918 10.5583C5.55609 12.1776 4.99697 14.0684 5.00001 16C5.00001 21.01 8.68335 25.1592 13.4908 25.8867L16.785 20.1808C15.7631 20.6178 14.6164 20.6649 13.5621 20.3133C12.5078 19.9616 11.6191 19.2355 11.0642 18.2725L6.60918 10.5583ZM17.7275 12.3633C18.6176 13.0293 19.2322 13.9987 19.455 15.0878C19.6777 16.1768 19.493 17.3098 18.9358 18.2717L14.4825 25.9867C14.6542 25.995 14.8267 26 15 26C20.5225 26 25 21.5225 25 16C25 14.7167 24.7583 13.4908 24.3183 12.3633H17.7275ZM15 19.6367C14.0355 19.6367 13.1105 19.2535 12.4285 18.5715C11.7465 17.8895 11.3633 16.9645 11.3633 16C11.3633 15.0355 11.7465 14.1105 12.4285 13.4285C13.1105 12.7465 14.0355 12.3633 15 12.3633C15.9645 12.3633 16.8895 12.7465 17.5715 13.4285C18.2535 14.1105 18.6367 15.0355 18.6367 16C18.6367 16.9645 18.2535 17.8895 17.5715 18.5715C16.8895 19.2535 15.9645 19.6367 15 19.6367Z" fill="white"/>
</svg>
