<svg width="100" height="32" viewBox="0 0 100 32" fill="none" xmlns="http://www.w3.org/2000/svg">
<path d="M95 0H31V32H95C97.7614 32 100 29.7614 100 27V5C100 2.23858 97.7614 0 95 0Z" fill="#0F1418"/>
<path d="M55.986 20.126C55.134 20.126 54.38 19.932 53.724 19.544C53.072 19.152 52.56 18.61 52.188 17.918C51.82 17.226 51.636 16.432 51.636 15.536C51.636 14.844 51.748 14.208 51.972 13.628C52.196 13.044 52.51 12.536 52.914 12.104C53.318 11.668 53.794 11.332 54.342 11.096C54.89 10.856 55.488 10.736 56.136 10.736C56.604 10.736 57.042 10.8 57.45 10.928C57.858 11.056 58.196 11.236 58.464 11.468H58.506L59.13 10.862H59.406V13.616H59.1C58.844 13.04 58.584 12.584 58.32 12.248C58.056 11.908 57.762 11.664 57.438 11.516C57.118 11.368 56.738 11.294 56.298 11.294C55.298 11.294 54.542 11.652 54.03 12.368C53.518 13.08 53.262 14.134 53.262 15.53C53.262 16.882 53.502 17.892 53.982 18.56C54.462 19.224 55.19 19.556 56.166 19.556C56.546 19.556 56.884 19.496 57.18 19.376C57.476 19.252 57.696 19.07 57.84 18.83C57.884 18.774 57.912 18.708 57.924 18.632C57.936 18.552 57.942 18.412 57.942 18.212V15.938L56.874 15.71V15.422H60.354V15.71L59.298 15.938V19.034C59.074 19.246 58.782 19.434 58.422 19.598C58.062 19.762 57.67 19.892 57.246 19.988C56.822 20.08 56.402 20.126 55.986 20.126ZM61.04 20V19.736L61.94 19.55V14.66L61.064 14.33V14.156L62.984 13.58H63.116V14.876L63.164 14.936V19.55L64.4 19.736V20H61.04ZM63.074 15.428L63.05 14.936C63.346 14.5 63.64 14.164 63.932 13.928C64.228 13.692 64.504 13.574 64.76 13.574C64.98 13.574 65.166 13.65 65.318 13.802C65.47 13.95 65.546 14.13 65.546 14.342C65.546 14.538 65.48 14.704 65.348 14.84C65.216 14.972 65.052 15.038 64.856 15.038C64.656 15.038 64.5 14.964 64.388 14.816C64.308 14.724 64.24 14.662 64.184 14.63C64.128 14.594 64.064 14.576 63.992 14.576C63.876 14.576 63.73 14.654 63.554 14.81C63.382 14.962 63.222 15.168 63.074 15.428ZM69.2444 20.126C68.6284 20.126 68.0824 19.984 67.6064 19.7C67.1304 19.412 66.7564 19.022 66.4844 18.53C66.2164 18.034 66.0824 17.476 66.0824 16.856C66.0824 16.232 66.2164 15.674 66.4844 15.182C66.7564 14.69 67.1304 14.302 67.6064 14.018C68.0824 13.73 68.6284 13.586 69.2444 13.586C69.8604 13.586 70.4044 13.73 70.8764 14.018C71.3524 14.302 71.7264 14.69 71.9984 15.182C72.2704 15.674 72.4064 16.232 72.4064 16.856C72.4064 17.476 72.2704 18.034 71.9984 18.53C71.7264 19.022 71.3524 19.412 70.8764 19.7C70.4044 19.984 69.8604 20.126 69.2444 20.126ZM69.2324 19.574C69.5244 19.574 69.7824 19.51 70.0064 19.382C70.2304 19.25 70.4184 19.064 70.5704 18.824C70.7264 18.58 70.8444 18.292 70.9244 17.96C71.0044 17.624 71.0444 17.252 71.0444 16.844C71.0444 16.44 71.0044 16.072 70.9244 15.74C70.8484 15.408 70.7344 15.122 70.5824 14.882C70.4304 14.642 70.2424 14.458 70.0184 14.33C69.7944 14.198 69.5364 14.132 69.2444 14.132C68.9524 14.132 68.6944 14.198 68.4704 14.33C68.2464 14.458 68.0584 14.642 67.9064 14.882C67.7544 15.122 67.6384 15.41 67.5584 15.746C67.4824 16.078 67.4444 16.448 67.4444 16.856C67.4444 17.264 67.4824 17.634 67.5584 17.966C67.6384 18.298 67.7544 18.584 67.9064 18.824C68.0584 19.064 68.2444 19.25 68.4644 19.382C68.6884 19.51 68.9444 19.574 69.2324 19.574ZM73.1838 20V19.736L74.1018 19.55V11.216L73.2138 10.892V10.724L75.1578 10.142H75.2958V19.55L76.2018 19.736V20H73.1838ZM78.1338 20L75.6798 16.898L76.4478 15.992L79.3098 19.55L80.3058 19.736V20H78.1338ZM75.0198 17.876L74.9238 17.312L77.2698 14.678C77.3578 14.582 77.4218 14.5 77.4618 14.432C77.5058 14.36 77.5278 14.3 77.5278 14.252C77.5278 14.184 77.4678 14.13 77.3478 14.09C77.2278 14.05 76.9878 14.01 76.6278 13.97V13.706H79.3698V13.97C79.0458 14.026 78.7958 14.08 78.6198 14.132C78.4438 14.18 78.3018 14.244 78.1938 14.324C78.0898 14.4 77.9778 14.508 77.8578 14.648L75.0198 17.876Z" fill="white"/>
<path d="M31 0H5C2.23858 0 0 2.23858 0 5V27C0 29.7614 2.23858 32 5 32H31V0Z" fill="black"/>
<path fill-rule="evenodd" clip-rule="evenodd" d="M12.27 18.79L20.248 12.893C20.639 12.603 21.198 12.716 21.385 13.165C22.365 15.534 21.927 18.38 19.975 20.334C18.024 22.288 15.308 22.716 12.826 21.74L10.115 22.997C14.004 25.658 18.726 25 21.677 22.044C24.018 19.7 24.743 16.505 24.065 13.624L24.071 13.631C23.088 9.399 24.313 7.707 26.821 4.248C26.881 4.166 26.941 4.084 27 4L23.699 7.305V7.295L12.267 18.792M10.623 20.223C7.831 17.553 8.313 13.422 10.694 11.039C12.455 9.276 15.341 8.556 17.86 9.614L20.565 8.364C20.0028 7.95042 19.3876 7.61409 18.736 7.364C17.0978 6.6935 15.2979 6.52239 13.5627 6.87221C11.8275 7.22203 10.2345 8.07714 8.984 9.33C6.451 11.866 5.654 15.766 7.022 19.094C8.044 21.581 6.369 23.34 4.682 25.116C4.083 25.746 3.483 26.375 3 27.041L10.62 20.226" fill="white"/>
</svg>
