<svg width="100" height="32" viewBox="0 0 100 32" fill="none" xmlns="http://www.w3.org/2000/svg">
<path d="M95 0H31V32H95C97.7614 32 100 29.7614 100 27V5C100 2.23858 97.7614 0 95 0Z" fill="#0F1418"/>
<path d="M46.36 20V19.736L47.272 19.55V14.66L46.378 14.342V14.156L48.37 13.586H48.502V19.55L49.402 19.736V20H46.36ZM47.878 12.326C47.634 12.326 47.44 12.248 47.296 12.092C47.152 11.936 47.08 11.754 47.08 11.546C47.08 11.318 47.152 11.126 47.296 10.97C47.44 10.814 47.634 10.736 47.878 10.736C48.126 10.736 48.322 10.814 48.466 10.97C48.614 11.126 48.688 11.318 48.688 11.546C48.688 11.754 48.614 11.936 48.466 12.092C48.322 12.248 48.126 12.326 47.878 12.326ZM54.5488 20.126C53.6888 20.126 52.9308 19.93 52.2748 19.538C51.6228 19.146 51.1128 18.602 50.7448 17.906C50.3808 17.206 50.1988 16.4 50.1988 15.488C50.1988 14.792 50.3048 14.154 50.5168 13.574C50.7328 12.994 51.0368 12.492 51.4288 12.068C51.8208 11.644 52.2848 11.316 52.8208 11.084C53.3568 10.852 53.9448 10.736 54.5848 10.736C55.0568 10.736 55.5148 10.8 55.9588 10.928C56.4068 11.052 56.8108 11.232 57.1708 11.468H57.2188L57.7948 10.862H58.0288V13.616H57.6388C57.5708 13.396 57.4948 13.198 57.4108 13.022C57.3308 12.846 57.2448 12.684 57.1528 12.536C56.8728 12.088 56.5428 11.768 56.1628 11.576C55.7828 11.384 55.3308 11.288 54.8068 11.288C53.8388 11.288 53.0928 11.642 52.5688 12.35C52.0488 13.058 51.7888 14.074 51.7888 15.398C51.7888 16.722 52.0508 17.746 52.5748 18.47C53.1028 19.194 53.8468 19.556 54.8068 19.556C55.2828 19.556 55.7128 19.462 56.0968 19.274C56.4808 19.082 56.8008 18.802 57.0568 18.434C57.2048 18.226 57.3308 17.99 57.4348 17.726C57.5428 17.462 57.6248 17.174 57.6808 16.862H58.0288V20H57.7228L57.1828 19.22C56.7588 19.536 56.3348 19.766 55.9108 19.91C55.4908 20.054 55.0368 20.126 54.5488 20.126ZM59.0609 20V19.736L59.9729 19.55V11.21L59.0729 10.892V10.706L61.0709 10.142H61.1969V19.55L62.0969 19.736V20H59.0609ZM66.0374 20.126C65.4214 20.126 64.8754 19.984 64.3994 19.7C63.9234 19.412 63.5494 19.022 63.2774 18.53C63.0094 18.034 62.8754 17.476 62.8754 16.856C62.8754 16.232 63.0094 15.674 63.2774 15.182C63.5494 14.69 63.9234 14.302 64.3994 14.018C64.8754 13.73 65.4214 13.586 66.0374 13.586C66.6534 13.586 67.1974 13.73 67.6694 14.018C68.1454 14.302 68.5194 14.69 68.7914 15.182C69.0634 15.674 69.1994 16.232 69.1994 16.856C69.1994 17.476 69.0634 18.034 68.7914 18.53C68.5194 19.022 68.1454 19.412 67.6694 19.7C67.1974 19.984 66.6534 20.126 66.0374 20.126ZM66.0254 19.574C66.3174 19.574 66.5754 19.51 66.7994 19.382C67.0234 19.25 67.2114 19.064 67.3634 18.824C67.5194 18.58 67.6374 18.292 67.7174 17.96C67.7974 17.624 67.8374 17.252 67.8374 16.844C67.8374 16.44 67.7974 16.072 67.7174 15.74C67.6414 15.408 67.5274 15.122 67.3754 14.882C67.2234 14.642 67.0354 14.458 66.8114 14.33C66.5874 14.198 66.3294 14.132 66.0374 14.132C65.7454 14.132 65.4874 14.198 65.2634 14.33C65.0394 14.458 64.8514 14.642 64.6994 14.882C64.5474 15.122 64.4314 15.41 64.3514 15.746C64.2754 16.078 64.2374 16.448 64.2374 16.856C64.2374 17.264 64.2754 17.634 64.3514 17.966C64.4314 18.298 64.5474 18.584 64.6994 18.824C64.8514 19.064 65.0374 19.25 65.2574 19.382C65.4814 19.51 65.7374 19.574 66.0254 19.574ZM72.6048 20.126C72.0048 20.126 71.5668 19.988 71.2908 19.712C71.0148 19.432 70.8768 19.028 70.8768 18.5V14.156L69.9888 13.97V13.706H72.1008V18.02C72.1008 18.544 72.1928 18.904 72.3768 19.1C72.5648 19.296 72.8608 19.394 73.2648 19.394C73.5408 19.394 73.8108 19.322 74.0748 19.178C74.3388 19.034 74.5828 18.808 74.8068 18.5V18.98C74.5028 19.352 74.1608 19.636 73.7808 19.832C73.4008 20.028 73.0088 20.126 72.6048 20.126ZM74.7648 20.126V18.944L74.6988 18.92V14.156L73.8168 13.97V13.706H75.9228V19.088L76.7388 19.376V19.538L74.8668 20.126H74.7648ZM80.1493 20.126C79.6773 20.126 79.2533 19.988 78.8773 19.712C78.5013 19.436 78.2033 19.06 77.9833 18.584C77.7673 18.104 77.6593 17.562 77.6593 16.958C77.6593 16.294 77.7913 15.71 78.0553 15.206C78.3193 14.698 78.6873 14.302 79.1593 14.018C79.6313 13.73 80.1773 13.586 80.7973 13.586C81.2373 13.586 81.6693 13.652 82.0933 13.784V11.234L81.2053 10.892V10.724L83.1673 10.142H83.3053V19.046L84.1273 19.232V19.376L82.2733 20.126H82.1773V19.136L82.1233 19.118C81.8753 19.45 81.5813 19.702 81.2413 19.874C80.9053 20.042 80.5413 20.126 80.1493 20.126ZM80.6773 19.334C80.9733 19.334 81.2473 19.272 81.4993 19.148C81.7553 19.024 81.9533 18.856 82.0933 18.644V15.308C82.0933 14.88 81.9813 14.552 81.7573 14.324C81.5373 14.096 81.2193 13.982 80.8033 13.982C80.2673 13.982 79.8333 14.236 79.5013 14.744C79.1733 15.252 79.0093 15.926 79.0093 16.766C79.0093 17.558 79.1573 18.184 79.4533 18.644C79.7493 19.104 80.1573 19.334 80.6773 19.334Z" fill="white"/>
<path d="M31 0H5C2.23858 0 0 2.23858 0 5V27C0 29.7614 2.23858 32 5 32H31V0Z" fill="#3693F3"/>
<path d="M16.762 8.001C15.6064 8.00324 14.4722 8.31305 13.4759 8.89863C12.4796 9.4842 11.6571 10.3244 11.093 11.333C10.6076 11.0968 10.0749 10.9737 9.535 10.973C8.68845 10.9751 7.87019 11.278 7.22619 11.8275C6.5822 12.3769 6.15436 13.1373 6.019 13.973C5.12504 14.3472 4.36157 14.9772 3.82445 15.7839C3.28733 16.5905 3.00051 17.5379 3 18.507C3.00106 19.811 3.51995 21.0612 4.44257 21.9827C5.36519 22.9042 6.61601 23.4215 7.92 23.421C8.12641 23.4189 8.33248 23.4039 8.537 23.376H22.957C25.262 23.104 26.998 21.118 27 18.787V18.778C26.9992 17.7106 26.6268 16.6768 25.9466 15.8542C25.2665 15.0316 24.3212 14.4714 23.273 14.27C23.2108 12.5852 22.4975 10.9902 21.2831 9.82077C20.0687 8.65131 18.4479 7.9996 16.762 8.001Z" fill="white"/>
</svg>
