<svg width="156" height="32" viewBox="0 0 156 32" fill="none" xmlns="http://www.w3.org/2000/svg">
<path d="M146.942 0H31V32H146.942C151.945 32 156 29.7614 156 27V5C156 2.23858 151.945 0 146.942 0Z" fill="#0F1418"/>
<path d="M42.46 20.126L39.16 12.218H39.112V19.472L40.174 19.712V20H37.528V19.712L38.596 19.472V11.378L37.528 11.15V10.862H40.174L43.06 17.774H43.12L46.024 10.862H48.586V11.15L47.536 11.378V19.472L48.586 19.712V20H45.118V19.712L46.18 19.472V12.302H46.132L42.82 20.126H42.46ZM52.5139 20.126C51.8979 20.126 51.3519 19.984 50.8759 19.7C50.3999 19.412 50.0259 19.022 49.7539 18.53C49.4859 18.034 49.3519 17.476 49.3519 16.856C49.3519 16.232 49.4859 15.674 49.7539 15.182C50.0259 14.69 50.3999 14.302 50.8759 14.018C51.3519 13.73 51.8979 13.586 52.5139 13.586C53.1299 13.586 53.6739 13.73 54.1459 14.018C54.6219 14.302 54.9959 14.69 55.2679 15.182C55.5399 15.674 55.6759 16.232 55.6759 16.856C55.6759 17.476 55.5399 18.034 55.2679 18.53C54.9959 19.022 54.6219 19.412 54.1459 19.7C53.6739 19.984 53.1299 20.126 52.5139 20.126ZM52.5019 19.574C52.7939 19.574 53.0519 19.51 53.2759 19.382C53.4999 19.25 53.6879 19.064 53.8399 18.824C53.9959 18.58 54.1139 18.292 54.1939 17.96C54.2739 17.624 54.3139 17.252 54.3139 16.844C54.3139 16.44 54.2739 16.072 54.1939 15.74C54.1179 15.408 54.0039 15.122 53.8519 14.882C53.6999 14.642 53.5119 14.458 53.2879 14.33C53.0639 14.198 52.8059 14.132 52.5139 14.132C52.2219 14.132 51.9639 14.198 51.7399 14.33C51.5159 14.458 51.3279 14.642 51.1759 14.882C51.0239 15.122 50.9079 15.41 50.8279 15.746C50.7519 16.078 50.7139 16.448 50.7139 16.856C50.7139 17.264 50.7519 17.634 50.8279 17.966C50.9079 18.298 51.0239 18.584 51.1759 18.824C51.3279 19.064 51.5139 19.25 51.7339 19.382C51.9579 19.51 52.2139 19.574 52.5019 19.574ZM60.4673 20V19.736L61.3433 19.562V15.71C61.3433 15.234 61.2473 14.88 61.0553 14.648C60.8633 14.412 60.5533 14.294 60.1253 14.294C59.4973 14.294 58.9753 14.58 58.5593 15.152V14.654C58.8953 14.318 59.2633 14.056 59.6633 13.868C60.0633 13.68 60.4613 13.586 60.8573 13.586C61.9973 13.586 62.5673 14.124 62.5673 15.2V19.562L63.4553 19.736V20H60.4673ZM56.5613 20V19.736L57.4613 19.55V14.672L56.5733 14.342V14.168L58.4933 13.586H58.6253V14.648L58.6853 14.708V19.55L59.5673 19.736V20H56.5613ZM68.111 14.03C68.179 13.834 68.269 13.634 68.381 13.43C68.493 13.222 68.633 13.046 68.801 12.902C68.969 12.758 69.167 12.686 69.395 12.686C69.583 12.686 69.747 12.74 69.887 12.848C70.027 12.956 70.097 13.104 70.097 13.292C70.097 13.452 70.043 13.59 69.935 13.706C69.827 13.818 69.693 13.874 69.533 13.874C69.417 13.874 69.331 13.848 69.275 13.796C69.219 13.744 69.167 13.692 69.119 13.64C69.075 13.588 69.003 13.562 68.903 13.562C68.795 13.562 68.697 13.632 68.609 13.772C68.521 13.908 68.459 14.064 68.423 14.24L68.111 14.03ZM66.821 17.594C67.125 17.594 67.361 17.496 67.529 17.3C67.701 17.104 67.821 16.862 67.889 16.574C67.957 16.282 67.991 16 67.991 15.728C67.991 15.556 67.975 15.37 67.943 15.17C67.915 14.966 67.861 14.774 67.781 14.594C67.705 14.41 67.593 14.26 67.445 14.144C67.301 14.024 67.115 13.964 66.887 13.964C66.647 13.964 66.451 14.028 66.299 14.156C66.147 14.28 66.029 14.442 65.945 14.642C65.861 14.838 65.803 15.044 65.771 15.26C65.739 15.476 65.723 15.674 65.723 15.854C65.723 16.082 65.751 16.332 65.807 16.604C65.863 16.872 65.969 17.104 66.125 17.3C66.285 17.496 66.517 17.594 66.821 17.594ZM66.827 17.99C66.403 17.99 66.079 18.04 65.855 18.14C65.631 18.236 65.519 18.386 65.519 18.59C65.519 18.734 65.619 18.854 65.819 18.95C66.023 19.042 66.417 19.132 67.001 19.22L67.859 19.37C68.555 19.478 69.067 19.662 69.395 19.922C69.727 20.178 69.893 20.526 69.893 20.966C69.893 21.33 69.791 21.646 69.587 21.914C69.383 22.182 69.109 22.402 68.765 22.574C68.425 22.75 68.045 22.88 67.625 22.964C67.205 23.048 66.779 23.09 66.347 23.09C66.031 23.09 65.721 23.06 65.417 23C65.113 22.944 64.837 22.854 64.589 22.73C64.345 22.606 64.149 22.446 64.001 22.25C63.853 22.054 63.779 21.816 63.779 21.536C63.779 21.208 63.901 20.912 64.145 20.648C64.389 20.388 64.809 20.138 65.405 19.898L65.771 20.048C65.467 20.164 65.229 20.344 65.057 20.588C64.885 20.836 64.799 21.102 64.799 21.386C64.799 21.678 64.881 21.918 65.045 22.106C65.209 22.298 65.427 22.44 65.699 22.532C65.975 22.628 66.273 22.676 66.593 22.676C66.981 22.676 67.351 22.632 67.703 22.544C68.059 22.456 68.349 22.32 68.573 22.136C68.801 21.952 68.915 21.716 68.915 21.428C68.915 21.28 68.867 21.146 68.771 21.026C68.675 20.906 68.489 20.792 68.213 20.684C67.941 20.58 67.539 20.478 67.007 20.378L66.017 20.192C65.493 20.092 65.099 19.936 64.835 19.724C64.575 19.512 64.445 19.258 64.445 18.962C64.445 18.826 64.487 18.68 64.571 18.524C64.659 18.368 64.827 18.222 65.075 18.086C65.323 17.946 65.689 17.842 66.173 17.774L66.827 17.99ZM66.827 17.99C66.359 17.99 65.945 17.9 65.585 17.72C65.225 17.536 64.943 17.28 64.739 16.952C64.535 16.62 64.433 16.234 64.433 15.794C64.433 15.37 64.537 14.992 64.745 14.66C64.957 14.328 65.245 14.066 65.609 13.874C65.973 13.682 66.385 13.586 66.845 13.586C67.301 13.586 67.713 13.68 68.081 13.868C68.449 14.052 68.741 14.308 68.957 14.636C69.173 14.964 69.281 15.338 69.281 15.758C69.281 16.154 69.179 16.522 68.975 16.862C68.771 17.198 68.485 17.47 68.117 17.678C67.749 17.886 67.319 17.99 66.827 17.99ZM73.6546 20.126C73.0386 20.126 72.4926 19.984 72.0166 19.7C71.5406 19.412 71.1666 19.022 70.8946 18.53C70.6266 18.034 70.4926 17.476 70.4926 16.856C70.4926 16.232 70.6266 15.674 70.8946 15.182C71.1666 14.69 71.5406 14.302 72.0166 14.018C72.4926 13.73 73.0386 13.586 73.6546 13.586C74.2706 13.586 74.8146 13.73 75.2866 14.018C75.7626 14.302 76.1366 14.69 76.4086 15.182C76.6806 15.674 76.8166 16.232 76.8166 16.856C76.8166 17.476 76.6806 18.034 76.4086 18.53C76.1366 19.022 75.7626 19.412 75.2866 19.7C74.8146 19.984 74.2706 20.126 73.6546 20.126ZM73.6426 19.574C73.9346 19.574 74.1926 19.51 74.4166 19.382C74.6406 19.25 74.8286 19.064 74.9806 18.824C75.1366 18.58 75.2546 18.292 75.3346 17.96C75.4146 17.624 75.4546 17.252 75.4546 16.844C75.4546 16.44 75.4146 16.072 75.3346 15.74C75.2586 15.408 75.1446 15.122 74.9926 14.882C74.8406 14.642 74.6526 14.458 74.4286 14.33C74.2046 14.198 73.9466 14.132 73.6546 14.132C73.3626 14.132 73.1046 14.198 72.8806 14.33C72.6566 14.458 72.4686 14.642 72.3166 14.882C72.1646 15.122 72.0486 15.41 71.9686 15.746C71.8926 16.078 71.8546 16.448 71.8546 16.856C71.8546 17.264 71.8926 17.634 71.9686 17.966C72.0486 18.298 72.1646 18.584 72.3166 18.824C72.4686 19.064 72.6546 19.25 72.8746 19.382C73.0986 19.51 73.3546 19.574 73.6426 19.574ZM77.6187 20V19.7L78.6387 19.472V11.378L77.6187 11.15V10.862H80.6127C81.2527 10.862 81.8027 10.89 82.2627 10.946C82.7267 11.002 83.1307 11.094 83.4747 11.222C83.8227 11.346 84.1367 11.514 84.4167 11.726C84.9607 12.13 85.3807 12.656 85.6767 13.304C85.9727 13.948 86.1207 14.662 86.1207 15.446C86.1207 16.254 85.9627 16.998 85.6467 17.678C85.3307 18.354 84.8947 18.894 84.3387 19.298C83.9867 19.55 83.6027 19.73 83.1867 19.838C82.7707 19.946 82.2627 20 81.6627 20H77.6187ZM81.2187 19.526C81.7867 19.526 82.2527 19.454 82.6167 19.31C82.9807 19.162 83.3027 18.92 83.5827 18.584C83.8907 18.2 84.1247 17.73 84.2847 17.174C84.4487 16.614 84.5307 15.996 84.5307 15.32C84.5307 14.644 84.4487 14.046 84.2847 13.526C84.1207 13.006 83.8787 12.57 83.5587 12.218C83.2667 11.91 82.9187 11.69 82.5147 11.558C82.1107 11.422 81.5867 11.354 80.9427 11.354H79.9887V18.812C79.9887 19.08 80.0787 19.266 80.2587 19.37C80.4387 19.474 80.7587 19.526 81.2187 19.526ZM87.2163 20V19.712L88.2363 19.472V11.384L87.2163 11.15V10.862H90.8043C91.3563 10.862 91.8143 10.902 92.1783 10.982C92.5463 11.058 92.8523 11.178 93.0963 11.342C93.3803 11.538 93.6023 11.788 93.7623 12.092C93.9223 12.396 94.0023 12.724 94.0023 13.076C94.0023 13.588 93.8303 14.02 93.4863 14.372C93.1463 14.724 92.6563 14.964 92.0163 15.092V15.134C92.4963 15.186 92.9163 15.324 93.2763 15.548C93.6363 15.768 93.9143 16.052 94.1103 16.4C94.3103 16.748 94.4103 17.14 94.4103 17.576C94.4103 17.94 94.3383 18.28 94.1943 18.596C94.0503 18.912 93.8523 19.172 93.6003 19.376C93.3243 19.6 92.9863 19.76 92.5863 19.856C92.1863 19.952 91.6583 20 91.0023 20H87.2163ZM90.6183 19.526C91.4023 19.526 91.9803 19.36 92.3523 19.028C92.7283 18.692 92.9163 18.174 92.9163 17.474C92.9163 16.758 92.7223 16.232 92.3343 15.896C91.9463 15.556 91.3403 15.386 90.5163 15.386H89.5863V18.818C89.5863 19.094 89.6583 19.282 89.8023 19.382C89.9503 19.478 90.2223 19.526 90.6183 19.526ZM89.5863 14.894H90.2463C90.4623 14.894 90.6423 14.892 90.7863 14.888C90.9343 14.88 91.0703 14.87 91.1943 14.858C91.6343 14.81 91.9723 14.632 92.2083 14.324C92.4443 14.012 92.5623 13.59 92.5623 13.058C92.5623 12.774 92.5263 12.536 92.4543 12.344C92.3823 12.148 92.2683 11.974 92.1123 11.822C91.9403 11.646 91.7323 11.524 91.4883 11.456C91.2483 11.384 90.9183 11.348 90.4983 11.348H89.5863V14.894ZM103.228 20.126C102.368 20.126 101.61 19.93 100.954 19.538C100.302 19.146 99.7925 18.602 99.4245 17.906C99.0605 17.206 98.8785 16.4 98.8785 15.488C98.8785 14.792 98.9845 14.154 99.1965 13.574C99.4125 12.994 99.7165 12.492 100.108 12.068C100.5 11.644 100.964 11.316 101.5 11.084C102.036 10.852 102.624 10.736 103.264 10.736C103.736 10.736 104.194 10.8 104.638 10.928C105.086 11.052 105.49 11.232 105.85 11.468H105.898L106.474 10.862H106.708V13.616H106.318C106.25 13.396 106.174 13.198 106.09 13.022C106.01 12.846 105.924 12.684 105.832 12.536C105.552 12.088 105.222 11.768 104.842 11.576C104.462 11.384 104.01 11.288 103.486 11.288C102.518 11.288 101.772 11.642 101.248 12.35C100.728 13.058 100.468 14.074 100.468 15.398C100.468 16.722 100.73 17.746 101.254 18.47C101.782 19.194 102.526 19.556 103.486 19.556C103.962 19.556 104.392 19.462 104.776 19.274C105.16 19.082 105.48 18.802 105.736 18.434C105.884 18.226 106.01 17.99 106.114 17.726C106.222 17.462 106.304 17.174 106.36 16.862H106.708V20H106.402L105.862 19.22C105.438 19.536 105.014 19.766 104.59 19.91C104.17 20.054 103.716 20.126 103.228 20.126ZM111.155 20.126C110.539 20.126 109.993 19.984 109.517 19.7C109.041 19.412 108.667 19.022 108.395 18.53C108.127 18.034 107.993 17.476 107.993 16.856C107.993 16.232 108.127 15.674 108.395 15.182C108.667 14.69 109.041 14.302 109.517 14.018C109.993 13.73 110.539 13.586 111.155 13.586C111.771 13.586 112.315 13.73 112.787 14.018C113.263 14.302 113.637 14.69 113.909 15.182C114.181 15.674 114.317 16.232 114.317 16.856C114.317 17.476 114.181 18.034 113.909 18.53C113.637 19.022 113.263 19.412 112.787 19.7C112.315 19.984 111.771 20.126 111.155 20.126ZM111.143 19.574C111.435 19.574 111.693 19.51 111.917 19.382C112.141 19.25 112.329 19.064 112.481 18.824C112.637 18.58 112.755 18.292 112.835 17.96C112.915 17.624 112.955 17.252 112.955 16.844C112.955 16.44 112.915 16.072 112.835 15.74C112.759 15.408 112.645 15.122 112.493 14.882C112.341 14.642 112.153 14.458 111.929 14.33C111.705 14.198 111.447 14.132 111.155 14.132C110.863 14.132 110.605 14.198 110.381 14.33C110.157 14.458 109.969 14.642 109.817 14.882C109.665 15.122 109.549 15.41 109.469 15.746C109.393 16.078 109.355 16.448 109.355 16.856C109.355 17.264 109.393 17.634 109.469 17.966C109.549 18.298 109.665 18.584 109.817 18.824C109.969 19.064 110.155 19.25 110.375 19.382C110.599 19.51 110.855 19.574 111.143 19.574ZM115.202 20V19.736L116.096 19.55V14.672L115.214 14.342V14.168L117.11 13.586H117.266V14.624L117.326 14.684V19.55L118.208 19.736V20H115.202ZM118.994 20V19.736L119.882 19.562V15.896C119.882 15.328 119.792 14.92 119.612 14.672C119.436 14.42 119.152 14.294 118.76 14.294C118.456 14.294 118.166 14.37 117.89 14.522C117.618 14.67 117.38 14.884 117.176 15.164V14.66C117.512 14.32 117.882 14.056 118.286 13.868C118.694 13.68 119.094 13.586 119.486 13.586C120.034 13.586 120.44 13.73 120.704 14.018C120.968 14.302 121.1 14.746 121.1 15.35V19.562L121.988 19.736V20H118.994ZM122.774 20V19.736L123.656 19.562V15.86C123.656 15.292 123.57 14.89 123.398 14.654C123.23 14.414 122.944 14.294 122.54 14.294C122.216 14.294 121.92 14.37 121.652 14.522C121.388 14.67 121.156 14.884 120.956 15.164V14.66C121.264 14.304 121.626 14.036 122.042 13.856C122.458 13.676 122.878 13.586 123.302 13.586C123.838 13.586 124.23 13.732 124.478 14.024C124.726 14.316 124.858 14.776 124.874 15.404V19.562L125.762 19.736V20H122.774ZM126.25 22.97V22.736L127.162 22.538V14.66L126.28 14.342V14.156L128.194 13.586H128.338V14.612H128.386C128.626 14.256 128.92 13.996 129.268 13.832C129.62 13.668 129.976 13.586 130.336 13.586C130.836 13.586 131.274 13.724 131.65 14C132.03 14.272 132.326 14.646 132.538 15.122C132.754 15.598 132.862 16.142 132.862 16.754C132.862 17.414 132.722 17.998 132.442 18.506C132.162 19.014 131.772 19.412 131.272 19.7C130.776 19.984 130.196 20.126 129.532 20.126C129.34 20.126 129.15 20.11 128.962 20.078C128.774 20.05 128.584 20.004 128.392 19.94V22.538L129.616 22.736V22.97H126.25ZM129.58 19.724C129.968 19.724 130.308 19.606 130.6 19.37C130.892 19.134 131.118 18.808 131.278 18.392C131.442 17.972 131.524 17.49 131.524 16.946C131.524 16.15 131.362 15.524 131.038 15.068C130.718 14.612 130.28 14.384 129.724 14.384C129.48 14.384 129.23 14.45 128.974 14.582C128.718 14.71 128.538 14.872 128.434 15.068V18.542C128.434 18.886 128.544 19.17 128.764 19.394C128.988 19.614 129.26 19.724 129.58 19.724ZM135.402 20.126C134.974 20.126 134.626 19.992 134.358 19.724C134.094 19.456 133.962 19.108 133.962 18.68C133.962 18.328 134.07 18.024 134.286 17.768C134.502 17.512 134.85 17.288 135.33 17.096C135.814 16.9 136.452 16.722 137.244 16.562V15.44C137.244 14.932 137.174 14.576 137.034 14.372C136.898 14.168 136.662 14.066 136.326 14.066C135.994 14.066 135.73 14.146 135.534 14.306C135.338 14.466 135.24 14.682 135.24 14.954C135.24 15.03 135.244 15.106 135.252 15.182C135.264 15.254 135.27 15.324 135.27 15.392C135.27 15.596 135.208 15.764 135.084 15.896C134.964 16.028 134.81 16.094 134.622 16.094C134.45 16.094 134.31 16.038 134.202 15.926C134.098 15.814 134.046 15.668 134.046 15.488C134.046 15.228 134.158 14.962 134.382 14.69C134.61 14.414 134.91 14.178 135.282 13.982C135.778 13.718 136.316 13.586 136.896 13.586C137.244 13.586 137.538 13.64 137.778 13.748C138.022 13.856 138.198 14.01 138.306 14.21C138.37 14.346 138.412 14.518 138.432 14.726C138.456 14.934 138.468 15.282 138.468 15.77V18.452C138.468 18.84 138.498 19.104 138.558 19.244C138.622 19.384 138.74 19.454 138.912 19.454C139.108 19.454 139.298 19.342 139.482 19.118L139.698 19.322C139.502 19.606 139.302 19.812 139.098 19.94C138.898 20.064 138.664 20.126 138.396 20.126C138.072 20.126 137.82 20.038 137.64 19.862C137.46 19.686 137.34 19.418 137.28 19.058H137.244C137.016 19.386 136.74 19.646 136.416 19.838C136.092 20.03 135.754 20.126 135.402 20.126ZM136.002 19.364C136.25 19.364 136.482 19.3 136.698 19.172C136.914 19.04 137.096 18.858 137.244 18.626V16.934C136.708 17.038 136.286 17.152 135.978 17.276C135.674 17.4 135.458 17.552 135.33 17.732C135.206 17.908 135.144 18.13 135.144 18.398C135.144 18.706 135.216 18.944 135.36 19.112C135.508 19.28 135.722 19.364 136.002 19.364ZM142.145 20.126C141.889 20.126 141.605 20.1 141.293 20.048C140.985 20 140.715 19.938 140.483 19.862L140.405 17.936H140.717C140.769 18.528 140.921 18.976 141.173 19.28C141.425 19.58 141.775 19.73 142.223 19.73C142.571 19.73 142.849 19.634 143.057 19.442C143.269 19.246 143.375 18.99 143.375 18.674C143.375 18.41 143.297 18.184 143.141 17.996C142.985 17.804 142.715 17.61 142.331 17.414L141.833 17.168C141.321 16.912 140.955 16.644 140.735 16.364C140.515 16.08 140.405 15.738 140.405 15.338C140.405 14.778 140.599 14.346 140.987 14.042C141.379 13.738 141.937 13.586 142.661 13.586C142.941 13.586 143.211 13.606 143.471 13.646C143.735 13.682 143.941 13.732 144.089 13.796V15.44H143.813C143.697 14.464 143.243 13.976 142.451 13.976C142.143 13.976 141.895 14.06 141.707 14.228C141.523 14.392 141.431 14.616 141.431 14.9C141.431 15.148 141.511 15.36 141.671 15.536C141.835 15.712 142.111 15.894 142.499 16.082L143.045 16.346C143.517 16.578 143.857 16.834 144.065 17.114C144.273 17.394 144.377 17.748 144.377 18.176C144.377 18.772 144.177 19.246 143.777 19.598C143.377 19.95 142.833 20.126 142.145 20.126ZM147.371 20.126C147.115 20.126 146.831 20.1 146.519 20.048C146.211 20 145.941 19.938 145.709 19.862L145.631 17.936H145.943C145.995 18.528 146.147 18.976 146.399 19.28C146.651 19.58 147.001 19.73 147.449 19.73C147.797 19.73 148.075 19.634 148.283 19.442C148.495 19.246 148.601 18.99 148.601 18.674C148.601 18.41 148.523 18.184 148.367 17.996C148.211 17.804 147.941 17.61 147.557 17.414L147.059 17.168C146.547 16.912 146.181 16.644 145.961 16.364C145.741 16.08 145.631 15.738 145.631 15.338C145.631 14.778 145.825 14.346 146.213 14.042C146.605 13.738 147.163 13.586 147.887 13.586C148.167 13.586 148.437 13.606 148.697 13.646C148.961 13.682 149.167 13.732 149.315 13.796V15.44H149.039C148.923 14.464 148.469 13.976 147.677 13.976C147.369 13.976 147.121 14.06 146.933 14.228C146.749 14.392 146.657 14.616 146.657 14.9C146.657 15.148 146.737 15.36 146.897 15.536C147.061 15.712 147.337 15.894 147.725 16.082L148.271 16.346C148.743 16.578 149.083 16.834 149.291 17.114C149.499 17.394 149.603 17.748 149.603 18.176C149.603 18.772 149.403 19.246 149.003 19.598C148.603 19.95 148.059 20.126 147.371 20.126Z" fill="white"/>
<path d="M31 0H5C2.23858 0 0 2.23858 0 5V27C0 29.7614 2.23858 32 5 32H31V0Z" fill="#47A248"/>
<path d="M20.5836 13.555C19.3196 7.975 16.3316 6.141 16.0106 5.44C15.7306 5.046 15.4806 4.486 15.2756 4C15.2396 4.495 15.2206 4.685 14.7526 5.184C14.0296 5.75 10.3146 8.866 10.0126 15.204C9.73056 21.116 14.2826 24.639 14.9006 25.088L14.9706 25.138C15.0993 26.0898 15.2093 27.0439 15.3006 28H15.7816C15.8956 26.968 16.0656 25.944 16.2916 24.93C16.7086 24.634 16.8956 24.467 17.1416 24.237C18.3065 23.1593 19.2323 21.8491 19.8592 20.3911C20.486 18.9332 20.7999 17.3599 20.7806 15.773C20.7906 14.959 20.6776 14.111 20.5836 13.555ZM15.2476 21.75C15.2476 21.75 15.2476 13.459 15.5226 13.46C15.7356 13.46 16.0126 24.155 16.0126 24.155C15.6316 24.11 15.2476 22.395 15.2476 21.75Z" fill="white"/>
</svg>
