<svg width="100" height="32" viewBox="0 0 100 32" fill="none" xmlns="http://www.w3.org/2000/svg">
<path d="M95 0H31V32H95C97.7614 32 100 29.7614 100 27V5C100 2.23858 97.7614 0 95 0Z" fill="#0F1418"/>
<path d="M53.968 20.222L48.112 12.17V19.472L49.174 19.712V20H46.528V19.712L47.596 19.472V11.378L46.528 11.15V10.862H49.036L53.878 17.438V11.378L52.822 11.15V10.862H55.468V11.15L54.394 11.378V20.222H53.968ZM59.2757 20.126C58.6597 20.126 58.1137 19.984 57.6377 19.7C57.1617 19.412 56.7877 19.022 56.5157 18.53C56.2477 18.034 56.1137 17.476 56.1137 16.856C56.1137 16.232 56.2477 15.674 56.5157 15.182C56.7877 14.69 57.1617 14.302 57.6377 14.018C58.1137 13.73 58.6597 13.586 59.2757 13.586C59.8917 13.586 60.4357 13.73 60.9077 14.018C61.3837 14.302 61.7577 14.69 62.0297 15.182C62.3017 15.674 62.4377 16.232 62.4377 16.856C62.4377 17.476 62.3017 18.034 62.0297 18.53C61.7577 19.022 61.3837 19.412 60.9077 19.7C60.4357 19.984 59.8917 20.126 59.2757 20.126ZM59.2637 19.574C59.5557 19.574 59.8137 19.51 60.0377 19.382C60.2617 19.25 60.4497 19.064 60.6017 18.824C60.7577 18.58 60.8757 18.292 60.9557 17.96C61.0357 17.624 61.0757 17.252 61.0757 16.844C61.0757 16.44 61.0357 16.072 60.9557 15.74C60.8797 15.408 60.7657 15.122 60.6137 14.882C60.4617 14.642 60.2737 14.458 60.0497 14.33C59.8257 14.198 59.5677 14.132 59.2757 14.132C58.9837 14.132 58.7257 14.198 58.5017 14.33C58.2777 14.458 58.0897 14.642 57.9377 14.882C57.7857 15.122 57.6697 15.41 57.5897 15.746C57.5137 16.078 57.4757 16.448 57.4757 16.856C57.4757 17.264 57.5137 17.634 57.5897 17.966C57.6697 18.298 57.7857 18.584 57.9377 18.824C58.0897 19.064 58.2757 19.25 58.4957 19.382C58.7197 19.51 58.9757 19.574 59.2637 19.574ZM65.459 20.126C65.015 20.126 64.677 20 64.445 19.748C64.213 19.496 64.097 19.134 64.097 18.662V14.15H63.317L63.281 13.934L65.081 12.146L65.315 12.17V13.706H67.031L66.929 14.15H65.315V18.542C65.315 19.198 65.551 19.526 66.023 19.526C66.183 19.526 66.341 19.484 66.497 19.4C66.657 19.316 66.793 19.2 66.905 19.052L67.115 19.238C66.931 19.51 66.691 19.726 66.395 19.886C66.103 20.046 65.791 20.126 65.459 20.126ZM67.5592 20V19.736L68.4712 19.55V14.66L67.5772 14.342V14.156L69.5692 13.586H69.7012V19.55L70.6012 19.736V20H67.5592ZM69.0772 12.326C68.8332 12.326 68.6392 12.248 68.4952 12.092C68.3512 11.936 68.2792 11.754 68.2792 11.546C68.2792 11.318 68.3512 11.126 68.4952 10.97C68.6392 10.814 68.8332 10.736 69.0772 10.736C69.3252 10.736 69.5212 10.814 69.6652 10.97C69.8132 11.126 69.8872 11.318 69.8872 11.546C69.8872 11.754 69.8132 11.936 69.6652 12.092C69.5212 12.248 69.3252 12.326 69.0772 12.326ZM74.5335 20.126C73.9175 20.126 73.3715 19.984 72.8955 19.7C72.4195 19.412 72.0455 19.022 71.7735 18.53C71.5055 18.034 71.3715 17.476 71.3715 16.856C71.3715 16.232 71.5055 15.674 71.7735 15.182C72.0455 14.69 72.4195 14.302 72.8955 14.018C73.3715 13.73 73.9175 13.586 74.5335 13.586C75.1495 13.586 75.6935 13.73 76.1655 14.018C76.6415 14.302 77.0155 14.69 77.2875 15.182C77.5595 15.674 77.6955 16.232 77.6955 16.856C77.6955 17.476 77.5595 18.034 77.2875 18.53C77.0155 19.022 76.6415 19.412 76.1655 19.7C75.6935 19.984 75.1495 20.126 74.5335 20.126ZM74.5215 19.574C74.8135 19.574 75.0715 19.51 75.2955 19.382C75.5195 19.25 75.7075 19.064 75.8595 18.824C76.0155 18.58 76.1335 18.292 76.2135 17.96C76.2935 17.624 76.3335 17.252 76.3335 16.844C76.3335 16.44 76.2935 16.072 76.2135 15.74C76.1375 15.408 76.0235 15.122 75.8715 14.882C75.7195 14.642 75.5315 14.458 75.3075 14.33C75.0835 14.198 74.8255 14.132 74.5335 14.132C74.2415 14.132 73.9835 14.198 73.7595 14.33C73.5355 14.458 73.3475 14.642 73.1955 14.882C73.0435 15.122 72.9275 15.41 72.8475 15.746C72.7715 16.078 72.7335 16.448 72.7335 16.856C72.7335 17.264 72.7715 17.634 72.8475 17.966C72.9275 18.298 73.0435 18.584 73.1955 18.824C73.3475 19.064 73.5335 19.25 73.7535 19.382C73.9775 19.51 74.2335 19.574 74.5215 19.574ZM82.4868 20V19.736L83.3628 19.562V15.71C83.3628 15.234 83.2668 14.88 83.0748 14.648C82.8828 14.412 82.5728 14.294 82.1448 14.294C81.5168 14.294 80.9948 14.58 80.5788 15.152V14.654C80.9148 14.318 81.2828 14.056 81.6828 13.868C82.0828 13.68 82.4808 13.586 82.8768 13.586C84.0168 13.586 84.5868 14.124 84.5868 15.2V19.562L85.4748 19.736V20H82.4868ZM78.5808 20V19.736L79.4808 19.55V14.672L78.5928 14.342V14.168L80.5128 13.586H80.6448V14.648L80.7048 14.708V19.55L81.5868 19.736V20H78.5808Z" fill="white"/>
<path d="M31 0H5C2.23858 0 0 2.23858 0 5V27C0 29.7614 2.23858 32 5 32H31V0Z" fill="black"/>
<path d="M6.97 8.20775C7.716 8.81375 7.996 8.76775 9.398 8.67375L22.613 7.88075C22.893 7.88075 22.66 7.60075 22.567 7.55475L20.371 5.96775C19.951 5.64175 19.39 5.26775 18.316 5.36075L5.521 6.29475C5.055 6.34075 4.961 6.57475 5.147 6.76075L6.97 8.20775ZM7.763 11.2878V25.1918C7.763 25.9388 8.136 26.2188 8.977 26.1718L23.5 25.3318C24.341 25.2858 24.435 24.7718 24.435 24.1648V10.3538C24.435 9.74775 24.202 9.42075 23.687 9.46675L8.51 10.3538C7.95 10.4008 7.763 10.6818 7.763 11.2878ZM22.1 12.0328C22.193 12.4528 22.1 12.8728 21.68 12.9208L20.98 13.0608V23.3248C20.372 23.6518 19.812 23.8388 19.345 23.8388C18.597 23.8388 18.41 23.6048 17.85 22.9058L13.273 15.7198V22.6718L14.721 22.9998C14.721 22.9998 14.721 23.8398 13.553 23.8398L10.331 24.0258C10.238 23.8398 10.331 23.3728 10.658 23.2798L11.498 23.0468V13.8538L10.333 13.7598C10.239 13.3398 10.473 12.7338 11.126 12.6868L14.582 12.4538L19.346 19.7328V13.2928L18.131 13.1538C18.038 12.6398 18.411 12.2668 18.878 12.2208L22.1 12.0328ZM4.447 5.03475L17.757 4.05475C19.391 3.91475 19.812 4.00775 20.839 4.75475L25.088 7.74075C25.788 8.25375 26.022 8.39375 26.022 8.95375V25.3318C26.022 26.3578 25.649 26.9658 24.342 27.0578L8.884 27.9918C7.904 28.0388 7.436 27.8988 6.922 27.2448L3.793 23.1848C3.233 22.4378 3 21.8788 3 21.2248V6.66675C3 5.82775 3.374 5.12675 4.447 5.03475Z" fill="white"/>
</svg>
