<svg width="125" height="32" viewBox="0 0 125 32" fill="none" xmlns="http://www.w3.org/2000/svg">
<path d="M118.188 0H31V32H118.188C121.95 32 125 29.7614 125 27V5C125 2.23858 121.95 0 118.188 0Z" fill="#0F1418"/>
<path d="M41.564 20V19.712L42.584 19.472V11.384L41.564 11.15V10.862H45.242C45.862 10.862 46.41 10.962 46.886 11.162C47.366 11.358 47.74 11.65 48.008 12.038C48.28 12.422 48.416 12.896 48.416 13.46C48.416 14.048 48.244 14.532 47.9 14.912C47.56 15.292 47.08 15.558 46.46 15.71L48.962 19.472L50.276 19.712V20H47.612L44.984 15.866H43.934V19.472L45.284 19.712V20H41.564ZM43.934 15.38H44.63C45.118 15.38 45.502 15.322 45.782 15.206C46.066 15.09 46.296 14.934 46.472 14.738C46.648 14.542 46.772 14.324 46.844 14.084C46.92 13.84 46.958 13.592 46.958 13.34C46.958 12.864 46.862 12.472 46.67 12.164C46.478 11.856 46.212 11.634 45.872 11.498C45.736 11.442 45.586 11.404 45.422 11.384C45.258 11.36 45.052 11.348 44.804 11.348H43.934V15.38ZM53.1688 20.126C52.5888 20.126 52.0788 19.994 51.6388 19.73C51.2028 19.462 50.8628 19.09 50.6188 18.614C50.3788 18.134 50.2588 17.58 50.2588 16.952C50.2588 16.284 50.3928 15.698 50.6608 15.194C50.9328 14.69 51.3108 14.296 51.7948 14.012C52.2828 13.728 52.8468 13.586 53.4868 13.586C54.2788 13.586 54.8848 13.816 55.3048 14.276C55.7288 14.736 55.9488 15.41 55.9648 16.298L55.8808 16.37H51.2308V16.022L54.5908 15.902C54.6188 15.798 54.6328 15.64 54.6328 15.428C54.6328 14.468 54.2108 13.988 53.3668 13.988C52.7868 13.988 52.3388 14.216 52.0228 14.672C51.7108 15.124 51.5548 15.766 51.5548 16.598C51.5548 18.338 52.2308 19.208 53.5828 19.208C54.4628 19.208 55.1368 18.888 55.6048 18.248L55.8268 18.386C55.6188 18.938 55.2808 19.366 54.8128 19.67C54.3488 19.974 53.8008 20.126 53.1688 20.126ZM59.4696 20.126C58.9976 20.126 58.5736 19.988 58.1976 19.712C57.8216 19.436 57.5236 19.06 57.3036 18.584C57.0876 18.104 56.9796 17.562 56.9796 16.958C56.9796 16.294 57.1116 15.71 57.3756 15.206C57.6396 14.698 58.0076 14.302 58.4796 14.018C58.9516 13.73 59.4976 13.586 60.1176 13.586C60.5576 13.586 60.9896 13.652 61.4136 13.784V11.234L60.5256 10.892V10.724L62.4876 10.142H62.6256V19.046L63.4476 19.232V19.376L61.5936 20.126H61.4976V19.136L61.4436 19.118C61.1956 19.45 60.9016 19.702 60.5616 19.874C60.2256 20.042 59.8616 20.126 59.4696 20.126ZM59.9976 19.334C60.2936 19.334 60.5676 19.272 60.8196 19.148C61.0756 19.024 61.2736 18.856 61.4136 18.644V15.308C61.4136 14.88 61.3016 14.552 61.0776 14.324C60.8576 14.096 60.5396 13.982 60.1236 13.982C59.5876 13.982 59.1536 14.236 58.8216 14.744C58.4936 15.252 58.3296 15.926 58.3296 16.766C58.3296 17.558 58.4776 18.184 58.7736 18.644C59.0696 19.104 59.4776 19.334 59.9976 19.334ZM64.1061 20V19.736L65.0181 19.55V14.66L64.1241 14.342V14.156L66.1161 13.586H66.2481V19.55L67.1481 19.736V20H64.1061ZM65.6241 12.326C65.3801 12.326 65.1861 12.248 65.0421 12.092C64.8981 11.936 64.8261 11.754 64.8261 11.546C64.8261 11.318 64.8981 11.126 65.0421 10.97C65.1861 10.814 65.3801 10.736 65.6241 10.736C65.8721 10.736 66.0681 10.814 66.2121 10.97C66.3601 11.126 66.4341 11.318 66.4341 11.546C66.4341 11.754 66.3601 11.936 66.2121 12.092C66.0681 12.248 65.8721 12.326 65.6241 12.326ZM69.8203 20.126C69.5643 20.126 69.2803 20.1 68.9683 20.048C68.6603 20 68.3903 19.938 68.1583 19.862L68.0803 17.936H68.3923C68.4443 18.528 68.5963 18.976 68.8483 19.28C69.1003 19.58 69.4503 19.73 69.8983 19.73C70.2463 19.73 70.5243 19.634 70.7323 19.442C70.9443 19.246 71.0503 18.99 71.0503 18.674C71.0503 18.41 70.9723 18.184 70.8163 17.996C70.6603 17.804 70.3903 17.61 70.0063 17.414L69.5083 17.168C68.9963 16.912 68.6303 16.644 68.4103 16.364C68.1903 16.08 68.0803 15.738 68.0803 15.338C68.0803 14.778 68.2743 14.346 68.6623 14.042C69.0543 13.738 69.6123 13.586 70.3363 13.586C70.6163 13.586 70.8863 13.606 71.1463 13.646C71.4103 13.682 71.6163 13.732 71.7643 13.796V15.44H71.4883C71.3723 14.464 70.9183 13.976 70.1263 13.976C69.8183 13.976 69.5703 14.06 69.3823 14.228C69.1983 14.392 69.1063 14.616 69.1063 14.9C69.1063 15.148 69.1863 15.36 69.3463 15.536C69.5103 15.712 69.7863 15.894 70.1743 16.082L70.7203 16.346C71.1923 16.578 71.5323 16.834 71.7403 17.114C71.9483 17.394 72.0523 17.748 72.0523 18.176C72.0523 18.772 71.8523 19.246 71.4523 19.598C71.0523 19.95 70.5083 20.126 69.8203 20.126ZM76.3561 20V19.712L77.4241 19.472V11.378L76.3561 11.15V10.862H79.8241V11.15L78.7741 11.378V19.472L79.8241 19.712V20H76.3561ZM84.6236 20V19.736L85.4996 19.562V15.71C85.4996 15.234 85.4036 14.88 85.2116 14.648C85.0196 14.412 84.7096 14.294 84.2816 14.294C83.6536 14.294 83.1316 14.58 82.7156 15.152V14.654C83.0516 14.318 83.4196 14.056 83.8196 13.868C84.2196 13.68 84.6176 13.586 85.0136 13.586C86.1536 13.586 86.7236 14.124 86.7236 15.2V19.562L87.6116 19.736V20H84.6236ZM80.7176 20V19.736L81.6176 19.55V14.672L80.7296 14.342V14.168L82.6496 13.586H82.7816V14.648L82.8416 14.708V19.55L83.7236 19.736V20H80.7176ZM90.2813 20.126C90.0253 20.126 89.7413 20.1 89.4293 20.048C89.1213 20 88.8513 19.938 88.6193 19.862L88.5413 17.936H88.8533C88.9053 18.528 89.0573 18.976 89.3093 19.28C89.5613 19.58 89.9113 19.73 90.3593 19.73C90.7073 19.73 90.9853 19.634 91.1933 19.442C91.4053 19.246 91.5113 18.99 91.5113 18.674C91.5113 18.41 91.4333 18.184 91.2773 17.996C91.1213 17.804 90.8513 17.61 90.4673 17.414L89.9693 17.168C89.4573 16.912 89.0913 16.644 88.8713 16.364C88.6513 16.08 88.5413 15.738 88.5413 15.338C88.5413 14.778 88.7353 14.346 89.1233 14.042C89.5153 13.738 90.0733 13.586 90.7973 13.586C91.0773 13.586 91.3473 13.606 91.6073 13.646C91.8713 13.682 92.0773 13.732 92.2253 13.796V15.44H91.9493C91.8333 14.464 91.3793 13.976 90.5873 13.976C90.2793 13.976 90.0313 14.06 89.8433 14.228C89.6593 14.392 89.5673 14.616 89.5673 14.9C89.5673 15.148 89.6473 15.36 89.8073 15.536C89.9713 15.712 90.2473 15.894 90.6353 16.082L91.1813 16.346C91.6533 16.578 91.9933 16.834 92.2013 17.114C92.4093 17.394 92.5133 17.748 92.5133 18.176C92.5133 18.772 92.3133 19.246 91.9133 19.598C91.5133 19.95 90.9693 20.126 90.2813 20.126ZM93.4498 20V19.736L94.3618 19.55V14.66L93.4678 14.342V14.156L95.4598 13.586H95.5918V19.55L96.4918 19.736V20H93.4498ZM94.9678 12.326C94.7238 12.326 94.5298 12.248 94.3858 12.092C94.2418 11.936 94.1698 11.754 94.1698 11.546C94.1698 11.318 94.2418 11.126 94.3858 10.97C94.5298 10.814 94.7238 10.736 94.9678 10.736C95.2158 10.736 95.4118 10.814 95.5558 10.97C95.7038 11.126 95.7778 11.318 95.7778 11.546C95.7778 11.754 95.7038 11.936 95.5558 12.092C95.4118 12.248 95.2158 12.326 94.9678 12.326ZM101.15 14.03C101.218 13.834 101.308 13.634 101.42 13.43C101.532 13.222 101.672 13.046 101.84 12.902C102.008 12.758 102.206 12.686 102.434 12.686C102.622 12.686 102.786 12.74 102.926 12.848C103.066 12.956 103.136 13.104 103.136 13.292C103.136 13.452 103.082 13.59 102.974 13.706C102.866 13.818 102.732 13.874 102.572 13.874C102.456 13.874 102.37 13.848 102.314 13.796C102.258 13.744 102.206 13.692 102.158 13.64C102.114 13.588 102.042 13.562 101.942 13.562C101.834 13.562 101.736 13.632 101.648 13.772C101.56 13.908 101.498 14.064 101.462 14.24L101.15 14.03ZM99.8601 17.594C100.164 17.594 100.4 17.496 100.568 17.3C100.74 17.104 100.86 16.862 100.928 16.574C100.996 16.282 101.03 16 101.03 15.728C101.03 15.556 101.014 15.37 100.982 15.17C100.954 14.966 100.9 14.774 100.82 14.594C100.744 14.41 100.632 14.26 100.484 14.144C100.34 14.024 100.154 13.964 99.9261 13.964C99.6861 13.964 99.4901 14.028 99.3381 14.156C99.1861 14.28 99.0681 14.442 98.9841 14.642C98.9001 14.838 98.8421 15.044 98.8101 15.26C98.7781 15.476 98.7621 15.674 98.7621 15.854C98.7621 16.082 98.7901 16.332 98.8461 16.604C98.9021 16.872 99.0081 17.104 99.1641 17.3C99.3241 17.496 99.5561 17.594 99.8601 17.594ZM99.8661 17.99C99.4421 17.99 99.1181 18.04 98.8941 18.14C98.6701 18.236 98.5581 18.386 98.5581 18.59C98.5581 18.734 98.6581 18.854 98.8581 18.95C99.0621 19.042 99.4561 19.132 100.04 19.22L100.898 19.37C101.594 19.478 102.106 19.662 102.434 19.922C102.766 20.178 102.932 20.526 102.932 20.966C102.932 21.33 102.83 21.646 102.626 21.914C102.422 22.182 102.148 22.402 101.804 22.574C101.464 22.75 101.084 22.88 100.664 22.964C100.244 23.048 99.8181 23.09 99.3861 23.09C99.0701 23.09 98.7601 23.06 98.4561 23C98.1521 22.944 97.8761 22.854 97.6281 22.73C97.3841 22.606 97.1881 22.446 97.0401 22.25C96.8921 22.054 96.8181 21.816 96.8181 21.536C96.8181 21.208 96.9401 20.912 97.1841 20.648C97.4281 20.388 97.8481 20.138 98.4441 19.898L98.8101 20.048C98.5061 20.164 98.2681 20.344 98.0961 20.588C97.9241 20.836 97.8381 21.102 97.8381 21.386C97.8381 21.678 97.9201 21.918 98.0841 22.106C98.2481 22.298 98.4661 22.44 98.7381 22.532C99.0141 22.628 99.3121 22.676 99.6321 22.676C100.02 22.676 100.39 22.632 100.742 22.544C101.098 22.456 101.388 22.32 101.612 22.136C101.84 21.952 101.954 21.716 101.954 21.428C101.954 21.28 101.906 21.146 101.81 21.026C101.714 20.906 101.528 20.792 101.252 20.684C100.98 20.58 100.578 20.478 100.046 20.378L99.0561 20.192C98.5321 20.092 98.1381 19.936 97.8741 19.724C97.6141 19.512 97.4841 19.258 97.4841 18.962C97.4841 18.826 97.5261 18.68 97.6101 18.524C97.6981 18.368 97.8661 18.222 98.1141 18.086C98.3621 17.946 98.7281 17.842 99.2121 17.774L99.8661 17.99ZM99.8661 17.99C99.3981 17.99 98.9841 17.9 98.6241 17.72C98.2641 17.536 97.9821 17.28 97.7781 16.952C97.5741 16.62 97.4721 16.234 97.4721 15.794C97.4721 15.37 97.5761 14.992 97.7841 14.66C97.9961 14.328 98.2841 14.066 98.6481 13.874C99.0121 13.682 99.4241 13.586 99.8841 13.586C100.34 13.586 100.752 13.68 101.12 13.868C101.488 14.052 101.78 14.308 101.996 14.636C102.212 14.964 102.32 15.338 102.32 15.758C102.32 16.154 102.218 16.522 102.014 16.862C101.81 17.198 101.524 17.47 101.156 17.678C100.788 17.886 100.358 17.99 99.8661 17.99ZM103.338 20V19.736L104.244 19.55V11.216L103.356 10.892V10.712L105.324 10.142H105.462V19.55L106.344 19.736V20H103.338ZM107.346 20V19.736L108.222 19.562V15.71C108.222 15.234 108.126 14.88 107.934 14.648C107.742 14.412 107.432 14.294 107.004 14.294C106.7 14.294 106.41 14.366 106.134 14.51C105.858 14.654 105.598 14.854 105.354 15.11V14.624C105.722 14.284 106.112 14.026 106.524 13.85C106.936 13.674 107.34 13.586 107.736 13.586C108.876 13.586 109.446 14.124 109.446 15.2V19.562L110.334 19.736V20H107.346ZM113.088 20.126C112.644 20.126 112.306 20 112.074 19.748C111.842 19.496 111.726 19.134 111.726 18.662V14.15H110.946L110.91 13.934L112.71 12.146L112.944 12.17V13.706H114.66L114.558 14.15H112.944V18.542C112.944 19.198 113.18 19.526 113.652 19.526C113.812 19.526 113.97 19.484 114.126 19.4C114.286 19.316 114.422 19.2 114.534 19.052L114.744 19.238C114.56 19.51 114.32 19.726 114.024 19.886C113.732 20.046 113.42 20.126 113.088 20.126Z" fill="white"/>
<path d="M31 0H5C2.23858 0 0 2.23858 0 5V27C0 29.7614 2.23858 32 5 32H31V0Z" fill="#FF4438"/>
<path d="M21.354 15.3457V25.3878C21.354 25.7968 21.0193 26.1314 20.6104 26.1314H5.61218C5.2032 26.1314 4.86859 25.7968 4.86859 25.3878V13.4904C4.86859 13.0814 5.2032 12.7468 5.61218 12.7468H16.5132C16.3608 12.5089 16.2269 12.2635 16.1154 12.0032H5.61218C4.79423 12.0032 4.125 12.6687 4.125 13.4904V25.3878C4.125 26.2095 4.79423 26.875 5.61218 26.875H20.6104C21.432 26.875 22.0975 26.2095 22.0975 25.3878V15.2824C21.8559 15.3196 21.6068 15.3419 21.354 15.3457Z" fill="white"/>
<path d="M18.6993 15.2341C17.7883 15.2341 17.0448 15.9777 17.0448 16.8886C17.0448 17.3496 17.2344 17.766 17.5393 18.0672L15.1746 20.4281C14.9627 20.3277 14.7248 20.2682 14.4757 20.2682C14.3902 20.2682 14.3046 20.2794 14.2229 20.2942L12.8249 17.8441L12.178 18.2122L13.5239 20.5731C13.1 20.8743 12.8175 21.365 12.8175 21.9227C12.8175 22.8373 13.561 23.5772 14.472 23.5772C15.3828 23.5772 16.1264 22.8336 16.1264 21.9227C16.1264 21.5323 15.9852 21.1754 15.7584 20.8929L18.1973 18.4576C18.3572 18.5096 18.5245 18.5431 18.6993 18.5431C19.6102 18.5431 20.3538 17.7995 20.3538 16.8886C20.3538 15.9777 19.6102 15.2341 18.6993 15.2341ZM14.4757 22.8336C13.9737 22.8336 13.5648 22.4246 13.5648 21.9227C13.5648 21.4208 13.9737 21.0118 14.4757 21.0118C14.9776 21.0118 15.3865 21.4208 15.3865 21.9227C15.3865 22.4246 14.9776 22.8336 14.4757 22.8336ZM18.6993 17.7995C18.1973 17.7995 17.7883 17.3905 17.7883 16.8886C17.7883 16.3867 18.1973 15.9777 18.6993 15.9777C19.2012 15.9777 19.6102 16.3867 19.6102 16.8886C19.6102 17.3905 19.2012 17.7995 18.6993 17.7995Z" fill="white"/>
<path d="M11.9066 15.2341C10.9958 15.2341 10.2522 15.9777 10.2522 16.8886C10.2522 17.3496 10.4418 17.7698 10.7504 18.0709L8.38575 20.4318C8.17009 20.3314 7.93586 20.2682 7.68304 20.2682C6.77216 20.2682 6.02856 21.0118 6.02856 21.9227C6.02856 22.8336 6.77216 23.5772 7.68304 23.5772C8.59395 23.5772 9.33754 22.8336 9.33754 21.9227C9.33754 21.5323 9.19628 21.1791 8.97319 20.8966L11.4122 18.4576C11.5683 18.5059 11.7356 18.5431 11.9066 18.5431C12.8175 18.5431 13.5611 17.7995 13.5611 16.8886C13.5611 15.9777 12.8175 15.2341 11.9066 15.2341ZM7.68304 22.8336C7.18114 22.8336 6.77216 22.4246 6.77216 21.9227C6.77216 21.4208 7.18114 21.0118 7.68304 21.0118C8.18498 21.0118 8.59395 21.4208 8.59395 21.9227C8.59395 22.4246 8.18498 22.8336 7.68304 22.8336ZM11.9066 17.7995C11.4047 17.7995 10.9958 17.3905 10.9958 16.8886C10.9958 16.3867 11.4047 15.9777 11.9066 15.9777C12.4086 15.9777 12.8175 16.3867 12.8175 16.8886C12.8175 17.3905 12.4086 17.7995 11.9066 17.7995Z" fill="white"/>
<path d="M25.875 9.8125C25.875 12.4 23.7787 14.5 21.1875 14.5C20.6625 14.5 20.1562 14.4138 19.6875 14.2525H19.68C19.4287 14.1663 19.1888 14.0613 18.96 13.9375C18.945 13.93 18.9262 13.9188 18.9075 13.9075C18.315 13.5775 17.8012 13.1237 17.4037 12.58C17.175 12.265 16.98 11.9237 16.8337 11.5562C16.62 11.0162 16.5 10.4275 16.5 9.8125C16.5 7.225 18.6 5.125 21.1875 5.125C23.775 5.125 25.875 7.225 25.875 9.8125Z" fill="white"/>
<path d="M23.7002 10.0662C23.3105 10.5238 22.8911 11.0521 22.048 11.0521C21.2981 11.0521 21.0185 10.4281 20.9973 9.92481C21.1626 10.2493 21.4845 10.5155 21.9844 10.503C22.9503 10.4739 23.6112 9.65444 23.6112 8.90988C23.6112 8.01974 22.9038 7.375 21.6752 7.375C20.794 7.375 19.7052 7.69113 18.9893 8.18613C18.9808 8.69774 19.2858 9.36325 19.396 9.2884C20.0145 8.87245 20.5059 8.60208 20.9847 8.46479C20.2771 9.20519 18.5826 10.9231 18.375 11.2267C18.3962 11.5054 18.7647 12.25 18.9427 12.25C18.9978 12.25 19.0444 12.2209 19.0994 12.171C19.6078 11.6302 20.0272 11.1477 20.3958 10.6819C20.4508 11.364 20.8067 12.2001 21.8065 12.2001C22.7004 12.2001 23.59 11.5928 23.9925 10.2243C24.0433 10.0579 23.8231 9.92481 23.7002 10.0662ZM22.6792 8.95979C22.6792 9.39239 22.2259 9.60453 21.815 9.60453C21.5947 9.60453 21.4252 9.55045 21.2896 9.47973C21.5396 9.13034 21.7811 8.76846 22.0437 8.38578C22.5055 8.4565 22.6792 8.69774 22.6792 8.95979Z" fill="#FF4438"/>
</svg>
