<svg width="100" height="32" viewBox="0 0 100 32" fill="none" xmlns="http://www.w3.org/2000/svg">
<path d="M95 0H31V32H95C97.7614 32 100 29.7614 100 27V5C100 2.23858 97.7614 0 95 0Z" fill="#0F1418"/>
<path d="M52.612 20.108C52.284 20.108 51.964 20.06 51.652 19.964C51.344 19.868 51.018 19.718 50.674 19.514L50.2 20H49.954L49.732 16.958L50.056 16.892C50.296 17.832 50.612 18.514 51.004 18.938C51.4 19.362 51.922 19.574 52.57 19.574C53.114 19.574 53.544 19.444 53.86 19.184C54.176 18.92 54.334 18.564 54.334 18.116C54.334 17.764 54.224 17.45 54.004 17.174C53.788 16.894 53.432 16.614 52.936 16.334L52.018 15.848C51.27 15.444 50.734 15.042 50.41 14.642C50.086 14.242 49.924 13.776 49.924 13.244C49.924 12.764 50.042 12.336 50.278 11.96C50.514 11.58 50.836 11.282 51.244 11.066C51.656 10.846 52.118 10.736 52.63 10.736C53.33 10.736 53.94 10.982 54.46 11.474L54.826 10.85H55.084L55.192 13.472H54.85C54.662 12.724 54.39 12.172 54.034 11.816C53.682 11.456 53.232 11.276 52.684 11.276C52.24 11.276 51.888 11.394 51.628 11.63C51.372 11.866 51.244 12.19 51.244 12.602C51.244 12.974 51.366 13.306 51.61 13.598C51.858 13.89 52.274 14.19 52.858 14.498L53.752 14.978C54.364 15.302 54.806 15.662 55.078 16.058C55.354 16.454 55.492 16.908 55.492 17.42C55.492 17.928 55.364 18.386 55.108 18.794C54.856 19.198 54.512 19.518 54.076 19.754C53.644 19.99 53.156 20.108 52.612 20.108ZM58.129 20.126C57.701 20.126 57.353 19.992 57.085 19.724C56.821 19.456 56.689 19.108 56.689 18.68C56.689 18.328 56.797 18.024 57.013 17.768C57.229 17.512 57.577 17.288 58.057 17.096C58.541 16.9 59.179 16.722 59.971 16.562V15.44C59.971 14.932 59.901 14.576 59.761 14.372C59.625 14.168 59.389 14.066 59.053 14.066C58.721 14.066 58.457 14.146 58.261 14.306C58.065 14.466 57.967 14.682 57.967 14.954C57.967 15.03 57.971 15.106 57.979 15.182C57.991 15.254 57.997 15.324 57.997 15.392C57.997 15.596 57.935 15.764 57.811 15.896C57.691 16.028 57.537 16.094 57.349 16.094C57.177 16.094 57.037 16.038 56.929 15.926C56.825 15.814 56.773 15.668 56.773 15.488C56.773 15.228 56.885 14.962 57.109 14.69C57.337 14.414 57.637 14.178 58.009 13.982C58.505 13.718 59.043 13.586 59.623 13.586C59.971 13.586 60.265 13.64 60.505 13.748C60.749 13.856 60.925 14.01 61.033 14.21C61.097 14.346 61.139 14.518 61.159 14.726C61.183 14.934 61.195 15.282 61.195 15.77V18.452C61.195 18.84 61.225 19.104 61.285 19.244C61.349 19.384 61.467 19.454 61.639 19.454C61.835 19.454 62.025 19.342 62.209 19.118L62.425 19.322C62.229 19.606 62.029 19.812 61.825 19.94C61.625 20.064 61.391 20.126 61.123 20.126C60.799 20.126 60.547 20.038 60.367 19.862C60.187 19.686 60.067 19.418 60.007 19.058H59.971C59.743 19.386 59.467 19.646 59.143 19.838C58.819 20.03 58.481 20.126 58.129 20.126ZM58.729 19.364C58.977 19.364 59.209 19.3 59.425 19.172C59.641 19.04 59.823 18.858 59.971 18.626V16.934C59.435 17.038 59.013 17.152 58.705 17.276C58.401 17.4 58.185 17.552 58.057 17.732C57.933 17.908 57.871 18.13 57.871 18.398C57.871 18.706 57.943 18.944 58.087 19.112C58.235 19.28 58.449 19.364 58.729 19.364ZM62.8671 20V19.754L63.7791 19.562V13.874C63.7791 13.442 63.7831 13.086 63.7911 12.806C63.8031 12.522 63.8211 12.288 63.8451 12.104C63.8731 11.916 63.9111 11.752 63.9591 11.612C64.0671 11.316 64.2411 11.058 64.4811 10.838C64.7211 10.618 65.0011 10.448 65.3211 10.328C65.6451 10.204 65.9811 10.142 66.3291 10.142C66.7811 10.142 67.1611 10.24 67.4691 10.436C67.7771 10.628 67.9311 10.876 67.9311 11.18C67.9311 11.356 67.8751 11.502 67.7631 11.618C67.6511 11.73 67.5031 11.786 67.3191 11.786C67.1231 11.786 66.9811 11.722 66.8931 11.594C66.8051 11.462 66.7431 11.316 66.7071 11.156C66.6591 10.944 66.5931 10.79 66.5091 10.694C66.4291 10.598 66.2951 10.55 66.1071 10.55C65.9271 10.55 65.7591 10.594 65.6031 10.682C65.4511 10.766 65.3291 10.912 65.2371 11.12C65.1611 11.3 65.1031 11.544 65.0631 11.852C65.0231 12.156 65.0031 12.556 65.0031 13.052V19.562L66.2871 19.754V20H62.8671ZM62.7111 14.114L62.8611 13.706H66.5451L66.4011 14.114H62.7111ZM68.7462 20.126C68.3182 20.126 67.9702 19.992 67.7022 19.724C67.4382 19.456 67.3062 19.108 67.3062 18.68C67.3062 18.328 67.4142 18.024 67.6302 17.768C67.8462 17.512 68.1942 17.288 68.6742 17.096C69.1582 16.9 69.7962 16.722 70.5882 16.562V15.44C70.5882 14.932 70.5182 14.576 70.3782 14.372C70.2422 14.168 70.0062 14.066 69.6702 14.066C69.3382 14.066 69.0742 14.146 68.8782 14.306C68.6822 14.466 68.5842 14.682 68.5842 14.954C68.5842 15.03 68.5882 15.106 68.5962 15.182C68.6082 15.254 68.6142 15.324 68.6142 15.392C68.6142 15.596 68.5522 15.764 68.4282 15.896C68.3082 16.028 68.1542 16.094 67.9662 16.094C67.7942 16.094 67.6542 16.038 67.5462 15.926C67.4422 15.814 67.3902 15.668 67.3902 15.488C67.3902 15.228 67.5022 14.962 67.7262 14.69C67.9542 14.414 68.2542 14.178 68.6262 13.982C69.1222 13.718 69.6602 13.586 70.2402 13.586C70.5882 13.586 70.8822 13.64 71.1222 13.748C71.3662 13.856 71.5422 14.01 71.6502 14.21C71.7142 14.346 71.7562 14.518 71.7762 14.726C71.8002 14.934 71.8122 15.282 71.8122 15.77V18.452C71.8122 18.84 71.8422 19.104 71.9022 19.244C71.9662 19.384 72.0842 19.454 72.2562 19.454C72.4522 19.454 72.6422 19.342 72.8262 19.118L73.0422 19.322C72.8462 19.606 72.6462 19.812 72.4422 19.94C72.2422 20.064 72.0082 20.126 71.7402 20.126C71.4162 20.126 71.1642 20.038 70.9842 19.862C70.8042 19.686 70.6842 19.418 70.6242 19.058H70.5882C70.3602 19.386 70.0842 19.646 69.7602 19.838C69.4362 20.03 69.0982 20.126 68.7462 20.126ZM69.3462 19.364C69.5942 19.364 69.8262 19.3 70.0422 19.172C70.2582 19.04 70.4402 18.858 70.5882 18.626V16.934C70.0522 17.038 69.6302 17.152 69.3222 17.276C69.0182 17.4 68.8022 17.552 68.6742 17.732C68.5502 17.908 68.4882 18.13 68.4882 18.398C68.4882 18.706 68.5602 18.944 68.7042 19.112C68.8522 19.28 69.0662 19.364 69.3462 19.364ZM73.4423 20V19.736L74.3423 19.55V14.66L73.4663 14.33V14.156L75.3863 13.58H75.5183V14.876L75.5663 14.936V19.55L76.8023 19.736V20H73.4423ZM75.4763 15.428L75.4523 14.936C75.7483 14.5 76.0423 14.164 76.3343 13.928C76.6303 13.692 76.9063 13.574 77.1623 13.574C77.3823 13.574 77.5683 13.65 77.7203 13.802C77.8723 13.95 77.9483 14.13 77.9483 14.342C77.9483 14.538 77.8823 14.704 77.7503 14.84C77.6183 14.972 77.4543 15.038 77.2583 15.038C77.0583 15.038 76.9023 14.964 76.7903 14.816C76.7103 14.724 76.6423 14.662 76.5863 14.63C76.5303 14.594 76.4663 14.576 76.3943 14.576C76.2783 14.576 76.1323 14.654 75.9563 14.81C75.7843 14.962 75.6243 15.168 75.4763 15.428ZM78.4811 20V19.736L79.3931 19.55V14.66L78.4991 14.342V14.156L80.4911 13.586H80.6231V19.55L81.5231 19.736V20H78.4811ZM79.9991 12.326C79.7551 12.326 79.5611 12.248 79.4171 12.092C79.2731 11.936 79.2011 11.754 79.2011 11.546C79.2011 11.318 79.2731 11.126 79.4171 10.97C79.5611 10.814 79.7551 10.736 79.9991 10.736C80.2471 10.736 80.4431 10.814 80.5871 10.97C80.7351 11.126 80.8091 11.318 80.8091 11.546C80.8091 11.754 80.7351 11.936 80.5871 12.092C80.4431 12.248 80.2471 12.326 79.9991 12.326Z" fill="white"/>
<path d="M31 0H5C2.23858 0 0 2.23858 0 5V27C0 29.7614 2.23858 32 5 32H31V0Z" fill="#006CFF"/>
<path d="M15 4C11.8174 4 8.76516 5.26428 6.51472 7.51472C4.26428 9.76516 3 12.8174 3 16C3 19.1826 4.26428 22.2348 6.51472 24.4853C8.76516 26.7357 11.8174 28 15 28C18.1826 28 21.2348 26.7357 23.4853 24.4853C25.7357 22.2348 27 19.1826 27 16C27 12.8174 25.7357 9.76516 23.4853 7.51472C21.2348 5.26428 18.1826 4 15 4ZM14.996 4.953H15.002C15.065 4.953 15.115 5.003 15.115 5.066V6.908C15.115 6.971 15.065 7.021 15.002 7.021H14.996C14.9811 7.02113 14.9664 7.0183 14.9526 7.01267C14.9388 7.00704 14.9263 6.99872 14.9158 6.9882C14.9053 6.97768 14.897 6.96517 14.8913 6.9514C14.8857 6.93763 14.8829 6.92288 14.883 6.908V5.066C14.883 5.003 14.933 4.953 14.996 4.953ZM14.055 4.994C14.111 4.995 14.159 5.04 14.165 5.098L14.242 6.016C14.2442 6.04524 14.2349 6.07419 14.216 6.09663C14.1971 6.11907 14.1702 6.1332 14.141 6.136H14.131C14.1165 6.13737 14.102 6.13587 14.0881 6.13158C14.0742 6.12729 14.0613 6.12029 14.0502 6.111C14.039 6.1017 14.0298 6.09029 14.0231 6.07742C14.0164 6.06454 14.0123 6.05047 14.011 6.036L13.931 5.117C13.9288 5.0876 13.9383 5.05851 13.9573 5.03604C13.9764 5.01358 14.0036 4.99955 14.033 4.997H14.043L14.055 4.994ZM15.947 4.994H15.965C15.9946 4.99655 16.0221 5.01069 16.0414 5.03334C16.0606 5.05599 16.0702 5.08533 16.068 5.115L15.988 6.035C15.9869 6.04959 15.9829 6.06382 15.9762 6.07686C15.9695 6.0899 15.9604 6.10149 15.9492 6.11097C15.9381 6.12045 15.9252 6.12763 15.9112 6.1321C15.8973 6.13656 15.8826 6.13823 15.868 6.137H15.859C15.8444 6.13574 15.8302 6.13161 15.8172 6.12484C15.8042 6.11807 15.7927 6.10879 15.7833 6.09754C15.7739 6.08629 15.7668 6.07329 15.7625 6.0593C15.7582 6.0453 15.7566 6.03059 15.758 6.016L15.836 5.096C15.8385 5.06823 15.8512 5.04239 15.8718 5.02353C15.8923 5.00467 15.9191 4.99414 15.947 4.994ZM13.109 5.117C13.1346 5.11759 13.1592 5.1271 13.1786 5.1439C13.1979 5.16069 13.2108 5.18372 13.215 5.209L13.535 7.027C13.545 7.087 13.505 7.146 13.445 7.157L13.435 7.158C13.4061 7.16294 13.3764 7.15625 13.3524 7.13939C13.3285 7.12253 13.3121 7.09686 13.307 7.068L12.987 5.25C12.9844 5.23562 12.9847 5.22086 12.9878 5.20659C12.9909 5.19231 12.9968 5.17879 13.0052 5.16681C13.0136 5.15482 13.0242 5.14461 13.0365 5.13674C13.0489 5.12888 13.0626 5.12353 13.077 5.121L13.087 5.119C13.0942 5.11755 13.1016 5.11688 13.109 5.117ZM16.893 5.119H16.914L16.922 5.121C16.983 5.131 17.024 5.191 17.014 5.252L16.694 7.066C16.683 7.128 16.624 7.167 16.562 7.156H16.557C16.5276 7.15087 16.5014 7.13432 16.4842 7.10996C16.467 7.08561 16.4601 7.05543 16.465 7.026L16.785 5.211C16.7894 5.18547 16.8027 5.1623 16.8224 5.14549C16.8421 5.12869 16.8671 5.11932 16.893 5.119ZM12.178 5.322C12.226 5.324 12.268 5.357 12.281 5.406L12.52 6.299C12.5241 6.31331 12.5253 6.3283 12.5235 6.34308C12.5217 6.35786 12.517 6.37214 12.5097 6.38508C12.5023 6.39802 12.4925 6.40937 12.4807 6.41845C12.4689 6.42754 12.4554 6.43419 12.441 6.438L12.436 6.439C12.4216 6.44294 12.4065 6.444 12.3916 6.44211C12.3768 6.44023 12.3624 6.43543 12.3494 6.428C12.3364 6.42057 12.325 6.41065 12.3159 6.39882C12.3067 6.38698 12.2999 6.37345 12.296 6.359L12.059 5.465C12.0549 5.45088 12.0537 5.43609 12.0554 5.4215C12.0572 5.4069 12.0618 5.39281 12.0691 5.38004C12.0764 5.36727 12.0861 5.35608 12.0978 5.34714C12.1094 5.33821 12.1228 5.3317 12.137 5.328L12.143 5.326C12.1544 5.32299 12.1662 5.32165 12.178 5.322ZM17.822 5.322C17.8331 5.32165 17.8443 5.323 17.855 5.326L17.861 5.328C17.921 5.344 17.958 5.407 17.941 5.467L17.701 6.359C17.6973 6.37326 17.6908 6.38665 17.6819 6.39839C17.673 6.41014 17.6618 6.42001 17.6491 6.42744C17.6364 6.43487 17.6223 6.43972 17.6077 6.4417C17.5931 6.44369 17.5782 6.44277 17.564 6.439L17.559 6.437C17.5303 6.42903 17.5058 6.41012 17.4908 6.38432C17.4759 6.35853 17.4716 6.3279 17.479 6.299L17.719 5.406C17.725 5.38284 17.7382 5.36219 17.7567 5.34707C17.7752 5.33196 17.7981 5.32317 17.822 5.322ZM11.26 5.607C11.2833 5.60628 11.3062 5.61296 11.3254 5.62608C11.3446 5.6392 11.3592 5.65808 11.367 5.68L12 7.42C12.0051 7.43332 12.0075 7.44751 12.007 7.46176C12.0065 7.47601 12.0032 7.49002 11.9973 7.50297C11.9913 7.51592 11.9828 7.52754 11.9723 7.53717C11.9618 7.54679 11.9494 7.55421 11.936 7.559L11.924 7.564C11.8967 7.57366 11.8666 7.57215 11.8404 7.55979C11.8142 7.54743 11.7939 7.52523 11.784 7.498L11.15 5.76C11.1403 5.7328 11.1417 5.70288 11.1538 5.67669C11.166 5.65049 11.188 5.63013 11.215 5.62L11.229 5.615C11.2386 5.61088 11.2487 5.60818 11.259 5.607H11.26ZM18.729 5.609C18.743 5.609 18.757 5.61 18.771 5.615L18.783 5.621C18.84 5.641 18.87 5.703 18.85 5.76L18.217 7.498C18.2071 7.52523 18.1868 7.54743 18.1606 7.55979C18.1344 7.57215 18.1043 7.57366 18.077 7.564L18.064 7.561C18.0369 7.55068 18.015 7.53007 18.003 7.50367C17.991 7.47726 17.9899 7.44719 18 7.42L18.633 5.682C18.6399 5.66166 18.6528 5.64386 18.6699 5.63085C18.687 5.61785 18.7076 5.61024 18.729 5.609ZM10.377 5.975C10.3988 5.97426 10.4204 5.97993 10.4391 5.9913C10.4577 6.00267 10.4726 6.01925 10.482 6.039L10.875 6.877C10.8872 6.90393 10.8883 6.93461 10.878 6.96234C10.8677 6.99007 10.8469 7.01259 10.82 7.025L10.812 7.029C10.7989 7.03505 10.7847 7.03845 10.7702 7.03901C10.7558 7.03957 10.7414 7.03728 10.7278 7.03227C10.7142 7.02725 10.7018 7.01961 10.6912 7.00979C10.6806 6.99996 10.672 6.98814 10.666 6.975L10.271 6.137C10.2648 6.12361 10.2613 6.10913 10.2607 6.09438C10.2601 6.07963 10.2624 6.06491 10.2675 6.05106C10.2726 6.03722 10.2804 6.02452 10.2905 6.0137C10.3005 6.00287 10.3126 5.99414 10.326 5.988L10.334 5.984C10.3475 5.9778 10.3621 5.97439 10.377 5.974V5.975ZM19.623 5.975C19.6379 5.97539 19.6525 5.9788 19.666 5.985L19.672 5.988C19.6854 5.99411 19.6975 6.00286 19.7075 6.01373C19.7175 6.0246 19.7251 6.03736 19.7301 6.05126C19.735 6.06516 19.7371 6.07992 19.7363 6.09465C19.7354 6.10938 19.7316 6.12378 19.725 6.137L19.334 6.975C19.3214 7.00168 19.2988 7.02231 19.2711 7.03242C19.2434 7.04253 19.2128 7.0413 19.186 7.029L19.18 7.027C19.1531 7.01459 19.1323 6.99207 19.122 6.96434C19.1117 6.93661 19.1128 6.90593 19.125 6.879L19.518 6.039C19.5274 6.01925 19.5423 6.00267 19.5609 5.9913C19.5796 5.97993 19.6012 5.97426 19.623 5.975ZM9.531 6.415C9.571 6.413 9.611 6.433 9.633 6.471L10.555 8.068C10.5625 8.08086 10.5675 8.09508 10.5695 8.10984C10.5715 8.12461 10.5706 8.13962 10.5668 8.15403C10.5629 8.16844 10.5563 8.18195 10.5473 8.19378C10.5382 8.20562 10.5269 8.21555 10.514 8.223L10.508 8.225C10.4821 8.2399 10.4514 8.24395 10.4225 8.23627C10.3937 8.22859 10.369 8.2098 10.354 8.184L9.432 6.586C9.41701 6.56024 9.41281 6.52961 9.4203 6.50077C9.42779 6.47192 9.44637 6.44721 9.472 6.432L9.479 6.43C9.49472 6.4204 9.5126 6.4159 9.531 6.415ZM20.471 6.416C20.489 6.416 20.506 6.42 20.523 6.43L20.527 6.432C20.5399 6.43955 20.5513 6.44957 20.5603 6.46149C20.5694 6.47342 20.576 6.48701 20.5798 6.5015C20.5836 6.51599 20.5846 6.53109 20.5825 6.54593C20.5805 6.56077 20.5756 6.57507 20.568 6.588L19.645 8.184C19.6374 8.19699 19.6272 8.20834 19.6152 8.21739C19.6032 8.22645 19.5894 8.23302 19.5748 8.23674C19.5602 8.24046 19.5451 8.24125 19.5301 8.23906C19.5152 8.23688 19.5009 8.23176 19.488 8.224L19.484 8.223C19.4711 8.21556 19.4598 8.20562 19.4507 8.19376C19.4417 8.18189 19.4351 8.16835 19.4314 8.15391C19.4277 8.13947 19.4269 8.12444 19.429 8.10969C19.4312 8.09493 19.4363 8.08076 19.444 8.068L20.369 6.473C20.3792 6.45511 20.3941 6.44034 20.4121 6.43029C20.43 6.42025 20.4504 6.4153 20.471 6.416ZM8.729 6.93C8.74718 6.92954 8.76519 6.93359 8.78142 6.94179C8.79765 6.94999 8.81159 6.96209 8.822 6.977L9.354 7.73C9.36262 7.74227 9.36874 7.75612 9.372 7.77076C9.37526 7.7854 9.3756 7.80054 9.373 7.81531C9.37039 7.83008 9.3649 7.84419 9.35684 7.85684C9.34878 7.86948 9.3383 7.88041 9.326 7.889L9.322 7.891C9.29729 7.9081 9.26683 7.91475 9.23724 7.90951C9.20765 7.90426 9.18133 7.88755 9.164 7.863L8.633 7.111C8.6158 7.08641 8.60899 7.05603 8.61404 7.02645C8.6191 6.99687 8.63561 6.97048 8.66 6.953L8.666 6.951C8.68442 6.93785 8.70637 6.93053 8.729 6.93ZM21.271 6.93C21.2936 6.93005 21.3155 6.93703 21.334 6.95L21.34 6.953C21.3643 6.97012 21.3807 6.99616 21.3858 7.02541C21.3909 7.05466 21.3841 7.08473 21.367 7.109L20.836 7.865C20.8276 7.87709 20.8169 7.8874 20.8045 7.89536C20.7921 7.90331 20.7783 7.90874 20.7638 7.91134C20.7493 7.91394 20.7345 7.91366 20.7201 7.91051C20.7057 7.90736 20.6921 7.90141 20.68 7.893L20.674 7.889C20.6618 7.8806 20.6513 7.86985 20.6433 7.85738C20.6353 7.84491 20.6298 7.83096 20.6272 7.81636C20.6246 7.80175 20.6249 7.78677 20.6281 7.77229C20.6314 7.75781 20.6374 7.74411 20.646 7.732L21.178 6.977C21.1884 6.96209 21.2024 6.94999 21.2186 6.94179C21.2348 6.93359 21.2528 6.92954 21.271 6.93ZM22.018 7.508C22.0325 7.50701 22.047 7.50889 22.0607 7.51352C22.0744 7.51815 22.0871 7.52545 22.098 7.535L22.104 7.539C22.151 7.579 22.157 7.65 22.117 7.697L20.932 9.11C20.9229 9.12154 20.9115 9.13113 20.8986 9.13821C20.8857 9.14528 20.8715 9.1497 20.8569 9.15119C20.8422 9.15268 20.8275 9.15122 20.8134 9.14689C20.7993 9.14257 20.7863 9.13546 20.775 9.126L20.77 9.12C20.7588 9.11073 20.7495 9.09933 20.7427 9.08644C20.7359 9.07355 20.7317 9.05944 20.7304 9.04493C20.7291 9.03041 20.7307 9.01579 20.7351 9.00189C20.7395 8.988 20.7466 8.97512 20.756 8.964L21.941 7.55C21.9602 7.52667 21.9879 7.51192 22.018 7.509V7.508ZM7.984 7.51C7.9988 7.51097 8.01325 7.51493 8.02648 7.52163C8.03972 7.52833 8.05146 7.53764 8.061 7.549L9.244 8.96C9.25348 8.97128 9.26063 8.98433 9.26506 8.99838C9.26948 9.01244 9.27109 9.02723 9.26979 9.04191C9.26849 9.05658 9.2643 9.07086 9.25748 9.08392C9.25065 9.09698 9.24131 9.10856 9.23 9.118L9.227 9.122C9.21569 9.13163 9.20258 9.13891 9.18843 9.14343C9.17427 9.14794 9.15937 9.14959 9.14457 9.14829C9.12977 9.14699 9.11538 9.14276 9.10224 9.13584C9.08909 9.12892 9.07745 9.11946 9.068 9.108L7.883 7.697C7.87347 7.68578 7.86624 7.67279 7.86173 7.65877C7.85723 7.64475 7.85553 7.62998 7.85674 7.6153C7.85794 7.60063 7.86203 7.58634 7.86877 7.57324C7.87551 7.56015 7.88476 7.54851 7.896 7.539L7.902 7.535C7.91333 7.5256 7.92641 7.51856 7.94049 7.51426C7.95457 7.50997 7.96936 7.50852 7.984 7.51ZM7.27 8.15C7.297 8.15 7.325 8.16 7.346 8.182L8.004 8.842C8.01404 8.85195 8.02201 8.86379 8.02744 8.87683C8.03288 8.88988 8.03568 8.90387 8.03568 8.918C8.03568 8.93213 8.03288 8.94612 8.02744 8.95917C8.02201 8.97221 8.01404 8.98405 8.004 8.994L7.994 9.004C7.98405 9.01404 7.97221 9.02201 7.95917 9.02744C7.94612 9.03288 7.93213 9.03568 7.918 9.03568C7.90387 9.03568 7.88988 9.03288 7.87683 9.02744C7.86379 9.02201 7.85195 9.01404 7.842 9.004L7.182 8.346C7.16154 8.32539 7.15006 8.29754 7.15006 8.2685C7.15006 8.23946 7.16154 8.21161 7.182 8.191L7.192 8.181C7.2131 8.16122 7.24108 8.14946 7.27 8.15ZM22.732 8.15C22.76 8.15 22.787 8.16 22.809 8.182L22.816 8.189C22.8262 8.19914 22.8344 8.21121 22.8399 8.22451C22.8455 8.23781 22.8484 8.25208 22.8484 8.2665C22.8484 8.28092 22.8455 8.29519 22.8399 8.30849C22.8344 8.32179 22.8262 8.33386 22.816 8.344L22.158 9.004C22.1376 9.0244 22.1099 9.03585 22.081 9.03585C22.0521 9.03585 22.0244 9.0244 22.004 9.004L21.996 8.996C21.9756 8.97556 21.9641 8.94787 21.9641 8.919C21.9641 8.89013 21.9756 8.86244 21.996 8.842L22.654 8.182C22.6643 8.1718 22.6764 8.16372 22.6898 8.15823C22.7032 8.15274 22.7175 8.14994 22.732 8.15ZM23.439 8.81C23.477 8.81 23.51 8.83 23.531 8.885C23.5386 8.90469 23.5404 8.92612 23.5364 8.94682C23.5323 8.96751 23.5225 8.98664 23.508 9.002L15.902 17.082C12.818 19.106 9.753 21.122 6.68 23.132C6.602 23.183 6.51 23.214 6.469 23.104C6.46122 23.0842 6.45925 23.0626 6.46333 23.0417C6.4674 23.0208 6.47735 23.0014 6.492 22.986L14.086 14.906C17.17 12.883 20.247 10.867 23.32 8.857C23.3552 8.83135 23.3966 8.81548 23.44 8.811L23.439 8.81ZM6.615 8.855C6.62939 8.85382 6.64388 8.85551 6.65761 8.85997C6.67134 8.86444 6.68405 8.87158 6.695 8.881L8.111 10.068C8.1224 10.0773 8.13182 10.0887 8.13871 10.1017C8.1456 10.1147 8.14983 10.1289 8.15113 10.1435C8.15244 10.1582 8.1508 10.1729 8.14631 10.1869C8.14182 10.2009 8.13457 10.2139 8.125 10.225L8.119 10.23C8.10973 10.2412 8.09833 10.2505 8.08544 10.2573C8.07255 10.2641 8.05844 10.2683 8.04393 10.2696C8.02941 10.2709 8.01479 10.2693 8.00089 10.2649C7.987 10.2605 7.97412 10.2534 7.963 10.244L6.549 9.057C6.53778 9.04782 6.52851 9.0365 6.52172 9.0237C6.51493 9.0109 6.51076 8.99687 6.50946 8.98244C6.50816 8.96801 6.50974 8.95346 6.51413 8.93965C6.51851 8.92584 6.52561 8.91304 6.535 8.902L6.541 8.895C6.55003 8.88372 6.56123 8.87437 6.57395 8.8675C6.58666 8.86063 6.60062 8.85638 6.615 8.855ZM23.951 9.611C23.987 9.611 24.023 9.628 24.045 9.661L24.049 9.664C24.0661 9.68871 24.0728 9.71917 24.0675 9.74876C24.0623 9.77835 24.0455 9.80467 24.021 9.822L23.268 10.352C23.2559 10.3606 23.2422 10.3666 23.2277 10.3699C23.2132 10.3731 23.1983 10.3734 23.1836 10.3708C23.169 10.3682 23.1551 10.3627 23.1426 10.3547C23.1302 10.3467 23.1194 10.3362 23.111 10.324L23.107 10.32C23.0899 10.2953 23.0832 10.2648 23.0885 10.2352C23.0937 10.2057 23.1105 10.1793 23.135 10.162L23.889 9.632C23.9073 9.61939 23.9288 9.61144 23.951 9.611ZM6.047 9.613C6.067 9.613 6.089 9.62 6.107 9.633L6.867 10.164C6.917 10.199 6.927 10.267 6.893 10.316L6.887 10.326C6.87873 10.3378 6.86818 10.3479 6.85598 10.3556C6.84378 10.3634 6.83017 10.3686 6.81594 10.371C6.8017 10.3734 6.78713 10.373 6.77306 10.3697C6.759 10.3665 6.74572 10.3604 6.734 10.352L5.974 9.82C5.95055 9.80315 5.93474 9.77767 5.93005 9.74917C5.92536 9.72067 5.93218 9.69148 5.949 9.668L5.955 9.658C5.96541 9.64347 5.97927 9.63176 5.99533 9.6239C6.01138 9.61605 6.02914 9.6123 6.047 9.613ZM5.535 10.416C5.553 10.416 5.571 10.422 5.588 10.432L7.184 11.355C7.19675 11.3623 7.20792 11.3721 7.21685 11.3838C7.22578 11.3955 7.2323 11.4089 7.23602 11.4231C7.23974 11.4374 7.2406 11.4522 7.23853 11.4668C7.23647 11.4813 7.23153 11.4954 7.224 11.508L7.221 11.514C7.21366 11.5268 7.20386 11.5379 7.19216 11.5469C7.18046 11.5558 7.16711 11.5623 7.15287 11.566C7.13863 11.5697 7.1238 11.5706 7.10923 11.5685C7.09466 11.5665 7.08064 11.5615 7.068 11.554L5.473 10.63C5.4603 10.6227 5.44915 10.613 5.44021 10.6015C5.43127 10.5899 5.4247 10.5767 5.42089 10.5625C5.41708 10.5484 5.4161 10.5337 5.41801 10.5192C5.41991 10.5046 5.42467 10.4907 5.432 10.478L5.436 10.472C5.44604 10.4546 5.46068 10.4402 5.47831 10.4305C5.49594 10.4208 5.5159 10.4161 5.536 10.417L5.535 10.416ZM24.467 10.416C24.4871 10.4151 24.5071 10.4198 24.5247 10.4295C24.5423 10.4392 24.557 10.4536 24.567 10.471L24.568 10.475C24.583 10.5008 24.5872 10.5314 24.5797 10.5602C24.5722 10.5891 24.5536 10.6138 24.528 10.629L22.932 11.555C22.9191 11.5625 22.9049 11.5675 22.8902 11.5695C22.8754 11.5715 22.8604 11.5706 22.846 11.5668C22.8316 11.5629 22.8181 11.5563 22.8062 11.5473C22.7944 11.5382 22.7845 11.5269 22.777 11.514L22.775 11.51C22.7675 11.4971 22.7625 11.4829 22.7605 11.4682C22.7585 11.4534 22.7594 11.4384 22.7632 11.424C22.7671 11.4096 22.7737 11.3961 22.7827 11.3842C22.7918 11.3724 22.8031 11.3624 22.816 11.355L24.412 10.43C24.4289 10.4208 24.4478 10.416 24.467 10.416ZM5.094 11.262C5.108 11.262 5.123 11.265 5.137 11.272L5.975 11.664C5.98809 11.6702 5.99982 11.6789 6.00953 11.6897C6.01923 11.7005 6.02671 11.713 6.03155 11.7267C6.03638 11.7404 6.03846 11.7548 6.03768 11.7693C6.0369 11.7838 6.03327 11.7979 6.027 11.811L6.023 11.821C6.01045 11.8472 5.98806 11.8673 5.96071 11.8771C5.93336 11.8868 5.90327 11.8854 5.877 11.873L5.039 11.48C5.01264 11.4676 4.99226 11.4453 4.98233 11.418C4.97239 11.3906 4.97371 11.3604 4.986 11.334L4.99 11.324C4.99926 11.3045 5.01409 11.2883 5.0326 11.2772C5.05111 11.2662 5.07248 11.2609 5.094 11.262ZM24.904 11.264C24.9258 11.2626 24.9476 11.2678 24.9665 11.2788C24.9853 11.2899 25.0005 11.3063 25.01 11.326L25.012 11.334C25.0243 11.3604 25.0256 11.3906 25.0157 11.418C25.0057 11.4453 24.9854 11.4676 24.959 11.48L24.121 11.873C24.0946 11.8853 24.0644 11.8866 24.037 11.8767C24.0097 11.8667 23.9874 11.8464 23.975 11.82L23.971 11.812C23.9586 11.7857 23.9572 11.7556 23.9669 11.7283C23.9767 11.7009 23.9968 11.6785 24.023 11.666L24.861 11.273C24.8745 11.2668 24.8891 11.2644 24.904 11.264ZM4.721 12.144C4.735 12.144 4.749 12.145 4.764 12.15L6.496 12.781C6.51 12.786 6.52285 12.7938 6.53382 12.8038C6.54479 12.8138 6.55366 12.826 6.55989 12.8395C6.56613 12.853 6.56962 12.8676 6.57015 12.8824C6.57068 12.8973 6.56825 12.9121 6.563 12.926L6.561 12.932C6.5561 12.9458 6.54848 12.9585 6.53859 12.9694C6.5287 12.9802 6.51674 12.989 6.50341 12.9951C6.49009 13.0013 6.47566 13.0047 6.46099 13.0052C6.44633 13.0057 6.43171 13.0032 6.418 12.998L4.686 12.368C4.67191 12.3631 4.65893 12.3554 4.64782 12.3454C4.6367 12.3354 4.62768 12.3234 4.62126 12.3099C4.61485 12.2964 4.61117 12.2818 4.61044 12.2669C4.6097 12.252 4.61193 12.237 4.617 12.223L4.619 12.219C4.62695 12.1981 4.64084 12.1799 4.65896 12.1668C4.67708 12.1536 4.69864 12.1461 4.721 12.145V12.144ZM25.27 12.144C25.2939 12.1432 25.3174 12.1501 25.3372 12.1636C25.357 12.1771 25.372 12.1965 25.38 12.219L25.383 12.223C25.393 12.2515 25.3913 12.2828 25.3784 12.3101C25.3655 12.3375 25.3424 12.3586 25.314 12.369L23.582 12.998C23.5682 13.0033 23.5534 13.0058 23.5386 13.0053C23.5238 13.0048 23.5092 13.0014 23.4957 12.9953C23.4822 12.9891 23.4701 12.9804 23.46 12.9695C23.4499 12.9587 23.4421 12.9459 23.437 12.932L23.436 12.926C23.4309 12.912 23.4286 12.8972 23.4293 12.8823C23.43 12.8674 23.4336 12.8528 23.4399 12.8394C23.4462 12.8259 23.4551 12.8138 23.4661 12.8038C23.4771 12.7938 23.49 12.786 23.504 12.781L25.236 12.151C25.2469 12.1472 25.2584 12.1452 25.27 12.145V12.144ZM4.434 13.053C4.44514 13.0527 4.45627 13.054 4.467 13.057L5.359 13.297C5.419 13.313 5.455 13.374 5.439 13.434L5.437 13.441C5.4334 13.4552 5.427 13.4685 5.41818 13.4802C5.40936 13.4919 5.39829 13.5018 5.38562 13.5091C5.37295 13.5165 5.35894 13.5212 5.34441 13.5231C5.32988 13.525 5.31512 13.5239 5.301 13.52L4.406 13.281C4.37749 13.2728 4.35334 13.2538 4.33874 13.228C4.32415 13.2022 4.32029 13.1716 4.328 13.143L4.33 13.137C4.33614 13.1138 4.34954 13.0931 4.36825 13.078C4.38695 13.0629 4.40998 13.0541 4.434 13.053ZM25.564 13.055C25.5883 13.056 25.6116 13.0647 25.6307 13.0798C25.6497 13.0949 25.6635 13.1156 25.67 13.139V13.143C25.674 13.1572 25.6751 13.172 25.6733 13.1866C25.6715 13.2012 25.6669 13.2154 25.6596 13.2282C25.6524 13.241 25.6427 13.2523 25.6311 13.2613C25.6195 13.2704 25.6062 13.2771 25.592 13.281L24.699 13.52C24.6848 13.5239 24.6699 13.525 24.6552 13.5232C24.6405 13.5213 24.6264 13.5166 24.6135 13.5092C24.6007 13.5019 24.5895 13.4921 24.5805 13.4804C24.5714 13.4687 24.5648 13.4553 24.561 13.441V13.436C24.5567 13.4217 24.5554 13.4067 24.557 13.3918C24.5587 13.377 24.5632 13.3626 24.5705 13.3496C24.5778 13.3365 24.5876 13.3251 24.5993 13.3159C24.6111 13.3067 24.6246 13.2999 24.639 13.296L25.531 13.059C25.5417 13.056 25.5529 13.0547 25.564 13.055ZM4.229 13.985L4.252 13.986L6.066 14.309C6.128 14.319 6.167 14.378 6.156 14.439V14.445C6.15347 14.4595 6.14809 14.4733 6.14016 14.4857C6.13224 14.4981 6.12193 14.5088 6.10983 14.5172C6.09773 14.5256 6.08409 14.5315 6.0697 14.5345C6.05531 14.5376 6.04046 14.5377 6.026 14.535L4.211 14.213C4.19635 14.2105 4.18234 14.2051 4.16978 14.1971C4.15722 14.1891 4.14635 14.1788 4.1378 14.1666C4.12926 14.1544 4.1232 14.1407 4.11997 14.1262C4.11674 14.1117 4.11641 14.0966 4.119 14.082L4.121 14.076C4.12525 14.0504 4.13842 14.0271 4.15819 14.0103C4.17795 13.9934 4.20304 13.9851 4.229 13.985ZM25.748 13.986H25.77C25.822 13.988 25.87 14.024 25.879 14.078V14.084C25.889 14.146 25.849 14.204 25.787 14.214L23.973 14.535C23.9584 14.5376 23.9433 14.5373 23.9288 14.534C23.9143 14.5308 23.9006 14.5247 23.8884 14.5162C23.8762 14.5076 23.8659 14.4968 23.8579 14.4842C23.8499 14.4717 23.8445 14.4577 23.842 14.443V14.438C23.8394 14.4234 23.8397 14.4083 23.843 14.3938C23.8462 14.3793 23.8523 14.3656 23.8608 14.3534C23.8694 14.3412 23.8802 14.3309 23.8928 14.3229C23.9053 14.3149 23.9193 14.3095 23.934 14.307L25.748 13.987V13.986ZM4.104 14.93H4.115L5.037 15.014C5.05155 15.015 5.06575 15.0189 5.07879 15.0255C5.09182 15.032 5.10342 15.0411 5.11291 15.0521C5.1224 15.0632 5.1296 15.0761 5.13407 15.09C5.13855 15.1038 5.14023 15.1185 5.139 15.133L5.137 15.143C5.13575 15.1576 5.13161 15.1717 5.12483 15.1847C5.11804 15.1976 5.10874 15.2091 5.09748 15.2184C5.08621 15.2277 5.07321 15.2347 5.05922 15.2389C5.04523 15.2431 5.03054 15.2445 5.016 15.243L4.094 15.16C4.07953 15.1587 4.06546 15.1546 4.05258 15.1479C4.03971 15.1412 4.0283 15.132 4.019 15.1208C4.00971 15.1097 4.00271 15.0968 3.99842 15.0829C3.99413 15.069 3.99263 15.0545 3.994 15.04V15.031C3.99649 15.0035 4.00914 14.9779 4.02948 14.9592C4.04982 14.9406 4.07639 14.9301 4.104 14.93ZM25.883 14.932H25.895C25.951 14.932 26.001 14.975 26.005 15.033V15.041C26.0078 15.0703 25.9988 15.0995 25.9801 15.1222C25.9613 15.1449 25.9343 15.1592 25.905 15.162L24.982 15.242C24.9527 15.2445 24.9236 15.2353 24.9011 15.2163C24.8786 15.1974 24.8645 15.1703 24.862 15.141V15.133C24.8592 15.1037 24.8682 15.0745 24.8869 15.0518C24.9057 15.0291 24.9327 15.0148 24.962 15.012L25.883 14.932ZM14.063 15.662L9.091 20.95C11.111 19.626 13.13 18.304 15.157 16.974L14.062 15.664L14.063 15.662ZM25.933 15.881C25.996 15.881 26.047 15.931 26.047 15.994V15.998C26.047 16.061 25.997 16.111 25.934 16.111L24.09 16.115C24.06 16.115 24.0313 16.1031 24.0101 16.0819C23.9889 16.0607 23.977 16.032 23.977 16.002V15.998C23.977 15.935 24.027 15.885 24.09 15.885L25.933 15.881ZM4.064 15.883H5.908C5.97 15.883 6.02 15.933 6.02 15.994V16.002C6.02 16.064 5.97 16.113 5.908 16.113H4.064C4.03473 16.1127 4.00676 16.1009 3.98616 16.0801C3.96556 16.0593 3.954 16.0313 3.954 16.002V15.994C3.954 15.933 4.003 15.883 4.064 15.883ZM5.016 16.758H5.027C5.05468 16.7579 5.08138 16.7683 5.10177 16.787C5.12215 16.8057 5.13474 16.8314 5.137 16.859V16.865C5.13837 16.8797 5.13681 16.8945 5.1324 16.9085C5.128 16.9226 5.12084 16.9356 5.11135 16.9469C5.10186 16.9581 5.09022 16.9674 5.07711 16.9741C5.064 16.9808 5.04969 16.9849 5.035 16.986L4.113 17.066C4.09855 17.0672 4.08399 17.0656 4.07017 17.0612C4.05635 17.0568 4.04354 17.0496 4.03248 17.0403C4.02142 17.0309 4.01233 17.0194 4.00572 17.0065C3.99912 16.9936 3.99513 16.9795 3.994 16.965L3.992 16.959C3.99063 16.9443 3.99219 16.9295 3.9966 16.9155C4.001 16.9014 4.00816 16.8884 4.01765 16.8771C4.02714 16.8659 4.03878 16.8566 4.05189 16.8499C4.065 16.8432 4.07931 16.8391 4.094 16.838L5.016 16.758ZM24.971 16.758H24.982L25.904 16.838C25.9185 16.839 25.9328 16.8429 25.9458 16.8495C25.9588 16.856 25.9704 16.8651 25.9799 16.8761C25.9894 16.8872 25.9966 16.9001 26.0011 16.914C26.0056 16.9278 26.0072 16.9425 26.006 16.957V16.965C26.0032 16.9944 25.9889 17.0215 25.9663 17.0404C25.9436 17.0593 25.9144 17.0685 25.885 17.066L24.963 16.986C24.9484 16.985 24.9342 16.9811 24.9212 16.9745C24.9082 16.968 24.8966 16.9589 24.8871 16.9479C24.8776 16.9368 24.8704 16.9239 24.8659 16.91C24.8614 16.8962 24.8598 16.8815 24.861 16.867V16.859C24.8635 16.8315 24.8761 16.8059 24.8965 16.7872C24.9168 16.7686 24.9434 16.7581 24.971 16.758ZM6.047 17.463C6.1 17.464 6.145 17.503 6.154 17.557L6.156 17.561C6.167 17.622 6.126 17.681 6.064 17.691L4.252 18.011C4.22272 18.016 4.19267 18.0092 4.16834 17.9922C4.14401 17.9751 4.12736 17.9492 4.122 17.92V17.916C4.11669 17.8865 4.12313 17.856 4.13994 17.8312C4.15675 17.8063 4.18261 17.789 4.212 17.783L6.023 17.465C6.03091 17.4635 6.03895 17.4628 6.047 17.463ZM23.949 17.463C23.957 17.463 23.965 17.463 23.973 17.465L25.789 17.785C25.85 17.796 25.889 17.855 25.879 17.916V17.92C25.8765 17.9347 25.8711 17.9487 25.8631 17.9612C25.8551 17.9738 25.8448 17.9846 25.8326 17.9932C25.8204 18.0017 25.8067 18.0078 25.7922 18.011C25.7777 18.0143 25.7626 18.0146 25.748 18.012L23.932 17.692C23.9175 17.6894 23.9036 17.6839 23.8912 17.6758C23.8788 17.6678 23.8681 17.6574 23.8597 17.6452C23.8514 17.6331 23.8455 17.6193 23.8425 17.6049C23.8394 17.5904 23.8393 17.5755 23.842 17.561V17.557C23.8463 17.5314 23.8593 17.5081 23.8788 17.491C23.8983 17.4739 23.9231 17.464 23.949 17.463ZM5.332 18.477C5.35589 18.4775 5.37896 18.4858 5.39772 18.5006C5.41649 18.5154 5.42992 18.5359 5.436 18.559L5.438 18.564C5.454 18.624 5.418 18.685 5.358 18.701L4.467 18.941C4.45275 18.9448 4.4379 18.9457 4.42329 18.9437C4.40869 18.9417 4.39462 18.9369 4.38189 18.9294C4.36917 18.922 4.35803 18.9121 4.34913 18.9004C4.34022 18.8886 4.33372 18.8753 4.33 18.861L4.328 18.855C4.32069 18.8264 4.325 18.796 4.33999 18.7705C4.35497 18.745 4.37942 18.7265 4.408 18.719L5.298 18.48C5.30911 18.4773 5.32058 18.4763 5.332 18.477ZM24.664 18.477C24.675 18.477 24.688 18.477 24.699 18.48L25.592 18.719C25.652 18.735 25.688 18.796 25.672 18.855L25.67 18.861C25.6662 18.8752 25.6596 18.8884 25.6506 18.9C25.6417 18.9116 25.6305 18.9213 25.6178 18.9285C25.605 18.9358 25.591 18.9405 25.5764 18.9422C25.5619 18.944 25.5471 18.9429 25.533 18.939L24.639 18.701C24.6248 18.6972 24.6116 18.6906 24.6 18.6816C24.5884 18.6727 24.5787 18.6615 24.5715 18.6488C24.5642 18.636 24.5595 18.622 24.5578 18.6074C24.556 18.5929 24.5571 18.5781 24.561 18.564L24.563 18.559C24.5688 18.5363 24.5817 18.5161 24.5999 18.5013C24.6181 18.4865 24.6406 18.478 24.664 18.477ZM6.451 18.994C6.47489 18.9927 6.49855 18.9992 6.5184 19.0126C6.53825 19.0259 6.55321 19.0454 6.561 19.068L6.563 19.072C6.56825 19.0859 6.57068 19.1007 6.57015 19.1156C6.56962 19.1304 6.56613 19.145 6.55989 19.1585C6.55366 19.172 6.54479 19.1842 6.53382 19.1942C6.52285 19.2042 6.51 19.212 6.496 19.217L4.764 19.847C4.75002 19.8521 4.73517 19.8544 4.7203 19.8537C4.70543 19.853 4.69085 19.8494 4.67737 19.8431C4.6639 19.8368 4.65181 19.8279 4.64179 19.8169C4.63177 19.8059 4.62403 19.793 4.619 19.779L4.617 19.775C4.60708 19.7468 4.60877 19.7157 4.62171 19.6887C4.63465 19.6617 4.65777 19.641 4.686 19.631L6.418 19C6.42863 18.9963 6.43976 18.9943 6.451 18.994ZM23.537 18.994C23.552 18.994 23.566 18.994 23.58 19L25.314 19.63C25.3278 19.6349 25.3406 19.6425 25.3514 19.6524C25.3623 19.6623 25.3711 19.6742 25.3774 19.6875C25.3836 19.7008 25.3871 19.7152 25.3878 19.7299C25.3884 19.7446 25.3861 19.7592 25.381 19.773L25.379 19.781C25.3741 19.7948 25.3665 19.8076 25.3566 19.8184C25.3467 19.8293 25.3348 19.8381 25.3215 19.8444C25.3082 19.8506 25.2938 19.8541 25.2791 19.8548C25.2644 19.8554 25.2498 19.8531 25.236 19.848L23.502 19.217C23.4882 19.212 23.4756 19.2043 23.4649 19.1944C23.4541 19.1845 23.4454 19.1725 23.4392 19.1592C23.4331 19.1459 23.4297 19.1316 23.4291 19.1169C23.4286 19.1023 23.4309 19.0877 23.436 19.074L23.438 19.066C23.4457 19.0455 23.4593 19.0277 23.4771 19.0148C23.4949 19.002 23.5151 18.9948 23.537 18.994ZM5.92 20.117C5.94147 20.1162 5.96269 20.1217 5.98102 20.1329C5.99935 20.1441 6.01395 20.1605 6.023 20.18L6.027 20.19C6.03308 20.2029 6.03655 20.2168 6.03722 20.231C6.0379 20.2452 6.03576 20.2594 6.03092 20.2728C6.02609 20.2862 6.01866 20.2985 6.00907 20.309C5.99947 20.3195 5.98789 20.328 5.975 20.334L5.137 20.727C5.12376 20.7332 5.10942 20.7367 5.09482 20.7372C5.08022 20.7378 5.06565 20.7355 5.05196 20.7303C5.03828 20.7252 5.02575 20.7174 5.01511 20.7074C5.00447 20.6974 4.99594 20.6854 4.99 20.672L4.986 20.664C4.97371 20.6376 4.97239 20.6074 4.98233 20.58C4.99226 20.5527 5.01264 20.5304 5.039 20.518L5.877 20.127C5.89053 20.1208 5.90515 20.1174 5.92 20.117ZM24.078 20.117C24.0929 20.1174 24.1075 20.1208 24.121 20.127L24.959 20.517C25.015 20.544 25.039 20.61 25.014 20.666L25.012 20.67C25.0059 20.6834 24.9971 20.6955 24.9863 20.7055C24.9755 20.7156 24.9628 20.7234 24.9489 20.7285C24.9351 20.7336 24.9204 20.7359 24.9056 20.7353C24.8909 20.7347 24.8764 20.7312 24.863 20.725L24.025 20.334C23.9983 20.3214 23.9777 20.2988 23.9676 20.2711C23.9575 20.2434 23.9587 20.2128 23.971 20.186L23.973 20.182C23.9822 20.1621 23.9971 20.1453 24.0157 20.1337C24.0344 20.1222 24.0561 20.1164 24.078 20.117ZM7.121 20.432C7.161 20.431 7.199 20.452 7.221 20.488L7.225 20.492C7.23263 20.5047 7.23762 20.5187 7.23969 20.5334C7.24175 20.548 7.24084 20.5629 7.23701 20.5772C7.23319 20.5915 7.22652 20.6049 7.21741 20.6165C7.2083 20.6282 7.19694 20.6378 7.184 20.645L5.588 21.566C5.56224 21.581 5.53161 21.5852 5.50277 21.5777C5.47392 21.5702 5.44921 21.5516 5.434 21.526L5.432 21.521C5.41701 21.4952 5.41281 21.4646 5.4203 21.4358C5.42779 21.4069 5.44637 21.3822 5.472 21.367L7.068 20.445C7.08428 20.4362 7.10252 20.4318 7.121 20.432ZM22.877 20.432C22.895 20.432 22.913 20.436 22.93 20.445L24.527 21.369C24.5398 21.3762 24.551 21.3858 24.5601 21.3974C24.5691 21.4089 24.5757 21.4222 24.5795 21.4364C24.5833 21.4505 24.5843 21.4653 24.5823 21.4798C24.5803 21.4944 24.5755 21.5084 24.568 21.521L24.566 21.525C24.5588 21.5378 24.5492 21.549 24.5376 21.5581C24.5261 21.5671 24.5128 21.5737 24.4986 21.5775C24.4845 21.5813 24.4697 21.5823 24.4552 21.5803C24.4406 21.5783 24.4266 21.5735 24.414 21.566L22.816 20.645C22.8032 20.6375 22.792 20.6275 22.783 20.6156C22.7741 20.6037 22.7675 20.5902 22.7638 20.5758C22.7601 20.5614 22.7593 20.5464 22.7614 20.5317C22.7634 20.517 22.7684 20.5028 22.776 20.49L22.777 20.488C22.787 20.4705 22.8016 20.456 22.8192 20.4461C22.8368 20.4362 22.8568 20.4314 22.877 20.432ZM23.205 21.625C23.2266 21.6259 23.2475 21.6332 23.265 21.646L24.023 22.18C24.073 22.215 24.084 22.282 24.049 22.332L24.045 22.34C24.0281 22.3639 24.0024 22.3802 23.9736 22.3852C23.9447 22.3903 23.915 22.3837 23.891 22.367L23.135 21.832C23.1232 21.8239 23.113 21.8135 23.1052 21.8015C23.0974 21.7894 23.092 21.7759 23.0894 21.7618C23.0868 21.7477 23.087 21.7332 23.09 21.7192C23.0931 21.7051 23.0988 21.6918 23.107 21.68L23.113 21.672C23.1233 21.6572 23.1371 21.6452 23.1531 21.637C23.1692 21.6288 23.187 21.6247 23.205 21.625ZM6.793 21.627C6.828 21.627 6.865 21.643 6.887 21.674L6.891 21.682C6.89918 21.6938 6.90494 21.7071 6.90796 21.7212C6.91099 21.7352 6.9112 21.7497 6.9086 21.7638C6.906 21.7779 6.90063 21.7914 6.8928 21.8035C6.88498 21.8155 6.87485 21.8259 6.863 21.834L6.107 22.365C6.09542 22.3735 6.08228 22.3795 6.06833 22.3829C6.05438 22.3862 6.03991 22.3867 6.02576 22.3844C6.01161 22.382 5.99807 22.3769 5.98592 22.3693C5.97377 22.3617 5.96326 22.3517 5.955 22.34L5.949 22.332C5.94082 22.3202 5.93506 22.3069 5.93203 22.2928C5.92901 22.2788 5.9288 22.2643 5.9314 22.2502C5.934 22.2361 5.93937 22.2226 5.9472 22.2105C5.95502 22.1985 5.96515 22.1881 5.977 22.18L6.732 21.646C6.74992 21.6336 6.77121 21.627 6.793 21.627ZM21.955 21.729C21.9696 21.7276 21.9844 21.7291 21.9985 21.7333C22.0126 21.7376 22.0256 21.7447 22.037 21.754L23.451 22.941C23.4624 22.9503 23.4718 22.9617 23.4787 22.9747C23.4856 22.9877 23.4898 23.0019 23.4911 23.0165C23.4924 23.0312 23.4908 23.0459 23.4863 23.0599C23.4818 23.0739 23.4746 23.0869 23.465 23.098L23.461 23.102C23.4416 23.1245 23.4142 23.1384 23.3847 23.1409C23.3551 23.1433 23.3258 23.134 23.303 23.115L21.89 21.93C21.8786 21.9207 21.8692 21.9093 21.8623 21.8963C21.8554 21.8833 21.8512 21.8691 21.8499 21.8545C21.8486 21.8398 21.8502 21.8251 21.8547 21.8111C21.8592 21.7971 21.8664 21.7841 21.876 21.773L21.88 21.768C21.889 21.7567 21.9002 21.7474 21.9129 21.7405C21.9257 21.7336 21.9396 21.7294 21.954 21.728L21.955 21.729ZM9.143 22.849C9.17206 22.8467 9.20083 22.8561 9.223 22.875L9.23 22.883C9.25213 22.9017 9.26601 22.9283 9.26863 22.9571C9.27125 22.986 9.2624 23.0147 9.244 23.037L8.06 24.451C8.04103 24.4731 8.01405 24.4868 7.98498 24.4891C7.95592 24.4913 7.92715 24.4819 7.905 24.463L7.897 24.457C7.87502 24.4382 7.86133 24.4115 7.8589 24.3827C7.85647 24.3538 7.86548 24.3252 7.884 24.303L9.069 22.889C9.07822 22.8777 9.0896 22.8683 9.10248 22.8615C9.11536 22.8546 9.12847 22.8504 9.143 22.849ZM20.846 22.849C20.878 22.849 20.911 22.864 20.934 22.891L22.115 24.301C22.155 24.349 22.15 24.421 22.102 24.461L22.1 24.463C22.0769 24.4823 22.0471 24.4916 22.0171 24.489C21.9871 24.4863 21.9594 24.472 21.94 24.449L20.758 23.039C20.7386 23.016 20.7291 22.9863 20.7316 22.9563C20.734 22.9264 20.7482 22.8986 20.771 22.879L20.773 22.877C20.7935 22.8598 20.8193 22.8492 20.846 22.849ZM7.918 22.963C7.945 22.963 7.972 22.973 7.992 22.994L8.006 23.006C8.02567 23.026 8.03668 23.0529 8.03668 23.081C8.03668 23.1091 8.02567 23.136 8.006 23.156L7.344 23.816C7.33424 23.8258 7.32263 23.8336 7.30985 23.8389C7.29706 23.8443 7.28335 23.847 7.2695 23.847C7.25565 23.847 7.24194 23.8443 7.22915 23.8389C7.21637 23.8336 7.20476 23.8258 7.195 23.816L7.184 23.805C7.17417 23.7952 7.16637 23.7836 7.16105 23.7708C7.15573 23.7581 7.15299 23.7443 7.15299 23.7305C7.15299 23.7166 7.15573 23.7029 7.16105 23.6902C7.16637 23.6774 7.17417 23.6658 7.184 23.656L7.844 22.994C7.86359 22.9743 7.8902 22.9631 7.918 22.963ZM22.082 22.963C22.109 22.963 22.135 22.973 22.156 22.994L22.816 23.656C22.8259 23.6658 22.8337 23.6775 22.839 23.6904C22.8443 23.7033 22.8471 23.7171 22.8471 23.731C22.8471 23.7449 22.8443 23.7587 22.839 23.7716C22.8337 23.7845 22.8259 23.7962 22.816 23.806L22.805 23.818C22.795 23.8277 22.7832 23.8354 22.7703 23.8406C22.7573 23.8457 22.7435 23.8483 22.7296 23.8481C22.7157 23.8479 22.7019 23.845 22.6891 23.8395C22.6763 23.834 22.6647 23.826 22.655 23.816L21.995 23.156C21.9852 23.1461 21.9775 23.1343 21.9722 23.1214C21.967 23.1085 21.9643 23.0947 21.9644 23.0808C21.9645 23.0669 21.9673 23.0531 21.9728 23.0403C21.9782 23.0274 21.9861 23.0158 21.996 23.006L22.006 22.994C22.0263 22.9741 22.0536 22.9629 22.082 22.963ZM10.455 23.76C10.473 23.76 10.489 23.766 10.505 23.775L10.512 23.779C10.5371 23.7936 10.5555 23.8176 10.563 23.8457C10.5705 23.8739 10.5665 23.9038 10.552 23.929L9.631 25.527C9.61654 25.5523 9.59261 25.5709 9.56449 25.5785C9.53636 25.5862 9.50633 25.5824 9.481 25.568L9.473 25.564C9.46038 25.5567 9.44933 25.5469 9.44049 25.5353C9.43164 25.5237 9.42518 25.5104 9.42146 25.4963C9.41775 25.4822 9.41685 25.4675 9.41883 25.453C9.42081 25.4385 9.42563 25.4246 9.433 25.412L10.355 23.816C10.3652 23.7986 10.3798 23.7842 10.3974 23.7744C10.415 23.7645 10.4349 23.7596 10.455 23.76ZM19.543 23.762C19.563 23.761 19.5829 23.7656 19.6005 23.7751C19.6181 23.7846 19.6328 23.7987 19.643 23.816L20.568 25.412C20.583 25.4378 20.5872 25.4684 20.5797 25.4972C20.5722 25.5261 20.5536 25.5508 20.528 25.566H20.523C20.5105 25.5735 20.4966 25.5785 20.4822 25.5807C20.4677 25.5828 20.453 25.582 20.4388 25.5784C20.4247 25.5747 20.4114 25.5683 20.3997 25.5595C20.3881 25.5507 20.3783 25.5396 20.371 25.527L19.445 23.932C19.4375 23.9191 19.4325 23.9049 19.4305 23.8902C19.4285 23.8754 19.4294 23.8604 19.4332 23.846C19.4371 23.8316 19.4437 23.8181 19.4527 23.8062C19.4618 23.7944 19.4731 23.7845 19.486 23.777L19.49 23.775C19.5063 23.7662 19.5245 23.7617 19.543 23.762ZM9.258 24.086C9.279 24.086 9.301 24.094 9.32 24.107L9.324 24.109C9.375 24.145 9.387 24.215 9.352 24.266L8.822 25.021C8.8136 25.0331 8.8029 25.0434 8.79051 25.0514C8.77813 25.0593 8.76429 25.0647 8.7498 25.0673C8.73532 25.0699 8.72046 25.0697 8.70608 25.0665C8.6917 25.0634 8.67808 25.0574 8.666 25.049L8.662 25.047C8.63774 25.0299 8.62128 25.0038 8.61621 24.9746C8.61115 24.9453 8.61791 24.9153 8.635 24.891L9.165 24.135C9.17526 24.1197 9.18909 24.1072 9.2053 24.0985C9.22151 24.0898 9.2396 24.0851 9.258 24.085V24.086ZM20.742 24.088C20.778 24.088 20.814 24.103 20.836 24.135L21.366 24.891C21.401 24.941 21.389 25.011 21.338 25.047L21.334 25.049C21.3219 25.0574 21.3083 25.0634 21.2939 25.0665C21.2795 25.0697 21.2647 25.0699 21.2502 25.0673C21.2357 25.0647 21.2219 25.0593 21.2095 25.0514C21.1971 25.0434 21.1864 25.0331 21.178 25.021L20.648 24.266C20.6394 24.2539 20.6334 24.2402 20.6301 24.2257C20.6269 24.2112 20.6266 24.1963 20.6292 24.1816C20.6318 24.167 20.6373 24.1531 20.6453 24.1406C20.6533 24.1282 20.6638 24.1174 20.676 24.109L20.68 24.107C20.6982 24.0943 20.7198 24.0884 20.742 24.088ZM11.879 24.43C11.8936 24.4291 11.9082 24.4312 11.922 24.436L11.934 24.441C11.99 24.461 12.018 24.522 11.998 24.578L11.365 26.318C11.3603 26.3311 11.3531 26.3432 11.3437 26.3535C11.3343 26.3638 11.3229 26.3722 11.3102 26.378C11.2976 26.3839 11.2839 26.3872 11.2699 26.3877C11.256 26.3882 11.2421 26.3859 11.229 26.381L11.215 26.377C11.2016 26.3724 11.1893 26.3652 11.1788 26.3558C11.1683 26.3464 11.1597 26.3349 11.1537 26.3222C11.1476 26.3094 11.1442 26.2956 11.1435 26.2815C11.1429 26.2673 11.1451 26.2533 11.15 26.24L11.783 24.5C11.7903 24.4802 11.8033 24.4629 11.8204 24.4505C11.8375 24.438 11.8579 24.4309 11.879 24.43ZM18.111 24.43C18.1338 24.4288 18.1564 24.435 18.1755 24.4476C18.1946 24.4602 18.2091 24.4785 18.217 24.5L18.85 26.238C18.8548 26.2513 18.8569 26.2653 18.8562 26.2794C18.8555 26.2935 18.852 26.3073 18.846 26.32C18.8399 26.3327 18.8314 26.3441 18.821 26.3536C18.8105 26.363 18.7983 26.3703 18.785 26.375L18.77 26.381C18.7567 26.3858 18.7427 26.3879 18.7286 26.3872C18.7145 26.3865 18.7007 26.383 18.688 26.377C18.6753 26.3709 18.6639 26.3624 18.6544 26.352C18.645 26.3415 18.6377 26.3293 18.633 26.316L18 24.578C17.9903 24.5513 17.9917 24.5219 18.0037 24.4963C18.0157 24.4706 18.0374 24.4507 18.064 24.441L18.078 24.436C18.0887 24.4324 18.0998 24.4304 18.111 24.43ZM13.416 24.84C13.424 24.84 13.43 24.84 13.437 24.842L13.443 24.844C13.505 24.854 13.544 24.911 13.533 24.973L13.215 26.785C13.2125 26.7997 13.2071 26.8137 13.1991 26.8262C13.1911 26.8388 13.1808 26.8496 13.1686 26.8582C13.1564 26.8667 13.1427 26.8728 13.1282 26.876C13.1137 26.8793 13.0986 26.8796 13.084 26.877L13.08 26.875C13.0654 26.8727 13.0515 26.8675 13.0389 26.8598C13.0264 26.852 13.0155 26.8418 13.0069 26.8298C12.9984 26.8178 12.9923 26.8042 12.989 26.7898C12.9858 26.7754 12.9854 26.7605 12.988 26.746L13.308 24.934C13.3124 24.9083 13.3255 24.8848 13.3452 24.8677C13.3649 24.8506 13.3899 24.8408 13.416 24.84ZM16.562 24.842C16.57 24.84 16.577 24.842 16.584 24.842C16.6097 24.8425 16.6345 24.852 16.654 24.8688C16.6735 24.8856 16.6866 24.9086 16.691 24.934L17.011 26.746C17.023 26.807 16.981 26.866 16.92 26.877L16.916 26.879C16.8866 26.8839 16.8564 26.877 16.832 26.8598C16.8077 26.8426 16.7911 26.8164 16.786 26.787L16.465 24.975C16.4624 24.9604 16.4627 24.9453 16.466 24.9308C16.4692 24.9163 16.4753 24.9026 16.4838 24.8904C16.4924 24.8782 16.5032 24.8679 16.5158 24.8599C16.5283 24.8519 16.5423 24.8465 16.557 24.844L16.562 24.842ZM10.772 24.961C10.7865 24.9615 10.8008 24.9649 10.814 24.971L10.818 24.973C10.845 24.9858 10.8659 25.0087 10.8762 25.0368C10.8865 25.0648 10.8853 25.0958 10.873 25.123L10.48 25.957C10.4676 25.9839 10.4451 26.0047 10.4173 26.015C10.3896 26.0253 10.3589 26.0242 10.332 26.012L10.328 26.01C10.3146 26.0039 10.3025 25.9951 10.2925 25.9843C10.2824 25.9735 10.2746 25.9608 10.2695 25.9469C10.2644 25.9331 10.2621 25.9184 10.2627 25.9036C10.2633 25.8889 10.2668 25.8744 10.273 25.861L10.666 25.025C10.6754 25.0053 10.6903 24.9887 10.7089 24.9773C10.7276 24.9659 10.7502 24.9603 10.772 24.961ZM19.23 24.961C19.2515 24.9598 19.273 24.965 19.2915 24.9761C19.31 24.9871 19.3248 25.0035 19.334 25.023L19.724 25.863C19.7303 25.8761 19.7339 25.8902 19.7347 25.9047C19.7355 25.9192 19.7334 25.9336 19.7285 25.9473C19.7237 25.961 19.7162 25.9735 19.7065 25.9843C19.6968 25.9951 19.6851 26.0038 19.672 26.01L19.664 26.014C19.6508 26.02 19.6366 26.0234 19.6221 26.0239C19.6076 26.0244 19.5931 26.022 19.5796 26.0169C19.566 26.0118 19.5536 26.004 19.543 25.9941C19.5324 25.9841 19.5239 25.9722 19.518 25.959L19.127 25.121C19.1147 25.0946 19.1134 25.0644 19.1233 25.037C19.1333 25.0097 19.1536 24.9874 19.18 24.975L19.188 24.971C19.2012 24.9649 19.2155 24.9615 19.23 24.961ZM14.994 24.979H15C15.063 24.979 15.115 25.029 15.115 25.092L15.117 26.932C15.117 26.995 15.067 27.045 15.004 27.045H14.998C14.968 27.045 14.9393 27.0331 14.9181 27.0119C14.8969 26.9907 14.885 26.962 14.885 26.932L14.881 25.094C14.881 25.031 14.931 24.979 14.994 24.979ZM12.402 25.557C12.413 25.557 12.424 25.557 12.436 25.561L12.441 25.563C12.501 25.579 12.536 25.64 12.52 25.699L12.28 26.592C12.2762 26.6061 12.2696 26.6194 12.2606 26.631C12.2517 26.6426 12.2405 26.6523 12.2278 26.6595C12.215 26.6668 12.201 26.6715 12.1864 26.6732C12.1719 26.675 12.1571 26.6739 12.143 26.67L12.137 26.668C12.1228 26.6642 12.1096 26.6576 12.098 26.6486C12.0864 26.6397 12.0767 26.6285 12.0695 26.6158C12.0622 26.603 12.0575 26.589 12.0558 26.5744C12.054 26.5599 12.0551 26.5451 12.059 26.531L12.299 25.641C12.3051 25.6179 12.3183 25.5973 12.3368 25.5823C12.3553 25.5672 12.3782 25.5583 12.402 25.557ZM17.598 25.559C17.6217 25.5597 17.6446 25.5681 17.6631 25.5829C17.6817 25.5977 17.695 25.6181 17.701 25.641L17.941 26.531C17.9451 26.5451 17.9463 26.5599 17.9446 26.5745C17.9428 26.5891 17.9382 26.6032 17.9309 26.616C17.9236 26.6287 17.9139 26.6399 17.9022 26.6489C17.8906 26.6578 17.8772 26.6643 17.863 26.668L17.857 26.67C17.8429 26.6739 17.8283 26.675 17.8138 26.6732C17.7993 26.6714 17.7853 26.6667 17.7727 26.6595C17.76 26.6522 17.7489 26.6425 17.7401 26.6309C17.7312 26.6193 17.7247 26.6061 17.721 26.592L17.481 25.702C17.4768 25.6878 17.4754 25.6729 17.4771 25.6582C17.4788 25.6435 17.4834 25.6293 17.4906 25.6164C17.4979 25.6035 17.5077 25.5922 17.5195 25.5832C17.5312 25.5742 17.5447 25.5677 17.559 25.564L17.564 25.562C17.5751 25.5593 17.5866 25.5583 17.598 25.559ZM14.123 25.861H14.133L14.141 25.863C14.202 25.869 14.248 25.923 14.242 25.984L14.162 26.904C14.1595 26.9336 14.1453 26.9609 14.1226 26.98C14.0999 26.9992 14.0706 27.0085 14.041 27.006H14.033C14.0184 27.0048 14.0043 27.0006 13.9913 26.9938C13.9784 26.987 13.9669 26.9777 13.9576 26.9665C13.9483 26.9552 13.9413 26.9422 13.9371 26.9282C13.9329 26.9142 13.9315 26.8995 13.933 26.885L14.013 25.963C14.0153 25.9353 14.0278 25.9095 14.0482 25.8906C14.0685 25.8717 14.0952 25.8612 14.123 25.861ZM15.859 25.861H15.879C15.9063 25.8617 15.9324 25.8725 15.9522 25.8913C15.972 25.9102 15.984 25.9357 15.986 25.963L16.066 26.887C16.0672 26.9015 16.0656 26.916 16.0612 26.9298C16.0568 26.9436 16.0496 26.9565 16.0403 26.9675C16.0309 26.9786 16.0194 26.9877 16.0065 26.9943C15.9936 27.0009 15.9795 27.0049 15.965 27.006L15.957 27.008C15.9424 27.0094 15.9276 27.0078 15.9137 27.0034C15.8997 26.999 15.8867 26.9918 15.8755 26.9823C15.8643 26.9728 15.8552 26.9611 15.8485 26.948C15.8419 26.9349 15.838 26.9206 15.837 26.906L15.757 25.982C15.7548 25.9526 15.7643 25.9235 15.7833 25.901C15.8024 25.8786 15.8296 25.8635 15.859 25.861Z" fill="white"/>
</svg>
