<svg width="165" height="32" viewBox="0 0 165 32" fill="none" xmlns="http://www.w3.org/2000/svg">
<path d="M155.29 0H31V32H155.29C160.653 32 165 29.7614 165 27V5C165 2.23858 160.653 0 155.29 0Z" fill="#0F1418"/>
<path d="M47.242 21.126L44.104 12.876C44.04 12.696 43.966 12.558 43.882 12.462C43.802 12.362 43.686 12.29 43.534 12.246C43.382 12.202 43.168 12.17 42.892 12.15V11.862H46.882V12.15C46.458 12.174 46.152 12.206 45.964 12.246C45.78 12.282 45.678 12.35 45.658 12.45C45.642 12.546 45.67 12.7 45.742 12.912L47.758 18.714L47.83 18.708L49.672 13.446C49.776 13.158 49.814 12.93 49.786 12.762C49.758 12.594 49.646 12.464 49.45 12.372C49.258 12.28 48.964 12.206 48.568 12.15V11.862H51.952V12.15C51.54 12.21 51.228 12.288 51.016 12.384C50.808 12.48 50.652 12.614 50.548 12.786C50.444 12.954 50.342 13.182 50.242 13.47L47.488 21.126H47.242ZM52.0084 21V20.736L52.9204 20.55V15.66L52.0264 15.342V15.156L54.0184 14.586H54.1504V20.55L55.0504 20.736V21H52.0084ZM53.5264 13.326C53.2824 13.326 53.0884 13.248 52.9444 13.092C52.8004 12.936 52.7284 12.754 52.7284 12.546C52.7284 12.318 52.8004 12.126 52.9444 11.97C53.0884 11.814 53.2824 11.736 53.5264 11.736C53.7744 11.736 53.9704 11.814 54.1144 11.97C54.2624 12.126 54.3364 12.318 54.3364 12.546C54.3364 12.754 54.2624 12.936 54.1144 13.092C53.9704 13.248 53.7744 13.326 53.5264 13.326ZM57.7227 21.126C57.4667 21.126 57.1827 21.1 56.8707 21.048C56.5627 21 56.2927 20.938 56.0607 20.862L55.9827 18.936H56.2947C56.3467 19.528 56.4987 19.976 56.7507 20.28C57.0027 20.58 57.3527 20.73 57.8007 20.73C58.1487 20.73 58.4267 20.634 58.6347 20.442C58.8467 20.246 58.9527 19.99 58.9527 19.674C58.9527 19.41 58.8747 19.184 58.7187 18.996C58.5627 18.804 58.2927 18.61 57.9087 18.414L57.4107 18.168C56.8987 17.912 56.5327 17.644 56.3127 17.364C56.0927 17.08 55.9827 16.738 55.9827 16.338C55.9827 15.778 56.1767 15.346 56.5647 15.042C56.9567 14.738 57.5147 14.586 58.2387 14.586C58.5187 14.586 58.7887 14.606 59.0487 14.646C59.3127 14.682 59.5187 14.732 59.6667 14.796V16.44H59.3907C59.2747 15.464 58.8207 14.976 58.0287 14.976C57.7207 14.976 57.4727 15.06 57.2847 15.228C57.1007 15.392 57.0087 15.616 57.0087 15.9C57.0087 16.148 57.0887 16.36 57.2487 16.536C57.4127 16.712 57.6887 16.894 58.0767 17.082L58.6227 17.346C59.0947 17.578 59.4347 17.834 59.6427 18.114C59.8507 18.394 59.9547 18.748 59.9547 19.176C59.9547 19.772 59.7547 20.246 59.3547 20.598C58.9547 20.95 58.4107 21.126 57.7227 21.126ZM63.4173 21.126C62.8173 21.126 62.3793 20.988 62.1033 20.712C61.8273 20.432 61.6893 20.028 61.6893 19.5V15.156L60.8013 14.97V14.706H62.9133V19.02C62.9133 19.544 63.0053 19.904 63.1893 20.1C63.3773 20.296 63.6733 20.394 64.0773 20.394C64.3533 20.394 64.6233 20.322 64.8873 20.178C65.1513 20.034 65.3953 19.808 65.6193 19.5V19.98C65.3153 20.352 64.9733 20.636 64.5933 20.832C64.2133 21.028 63.8213 21.126 63.4173 21.126ZM65.5773 21.126V19.944L65.5113 19.92V15.156L64.6293 14.97V14.706H66.7353V20.088L67.5513 20.376V20.538L65.6793 21.126H65.5773ZM69.9298 21.126C69.5018 21.126 69.1538 20.992 68.8858 20.724C68.6218 20.456 68.4898 20.108 68.4898 19.68C68.4898 19.328 68.5978 19.024 68.8138 18.768C69.0298 18.512 69.3778 18.288 69.8578 18.096C70.3418 17.9 70.9798 17.722 71.7718 17.562V16.44C71.7718 15.932 71.7018 15.576 71.5618 15.372C71.4258 15.168 71.1898 15.066 70.8538 15.066C70.5218 15.066 70.2578 15.146 70.0618 15.306C69.8658 15.466 69.7678 15.682 69.7678 15.954C69.7678 16.03 69.7718 16.106 69.7798 16.182C69.7918 16.254 69.7978 16.324 69.7978 16.392C69.7978 16.596 69.7358 16.764 69.6118 16.896C69.4918 17.028 69.3378 17.094 69.1498 17.094C68.9778 17.094 68.8378 17.038 68.7298 16.926C68.6258 16.814 68.5738 16.668 68.5738 16.488C68.5738 16.228 68.6858 15.962 68.9098 15.69C69.1378 15.414 69.4378 15.178 69.8098 14.982C70.3058 14.718 70.8438 14.586 71.4238 14.586C71.7718 14.586 72.0658 14.64 72.3058 14.748C72.5498 14.856 72.7258 15.01 72.8338 15.21C72.8978 15.346 72.9398 15.518 72.9598 15.726C72.9838 15.934 72.9958 16.282 72.9958 16.77V19.452C72.9958 19.84 73.0258 20.104 73.0858 20.244C73.1498 20.384 73.2678 20.454 73.4398 20.454C73.6358 20.454 73.8258 20.342 74.0098 20.118L74.2258 20.322C74.0298 20.606 73.8298 20.812 73.6258 20.94C73.4258 21.064 73.1918 21.126 72.9238 21.126C72.5998 21.126 72.3478 21.038 72.1678 20.862C71.9878 20.686 71.8678 20.418 71.8078 20.058H71.7718C71.5438 20.386 71.2678 20.646 70.9438 20.838C70.6198 21.03 70.2818 21.126 69.9298 21.126ZM70.5298 20.364C70.7778 20.364 71.0098 20.3 71.2258 20.172C71.4418 20.04 71.6238 19.858 71.7718 19.626V17.934C71.2358 18.038 70.8138 18.152 70.5058 18.276C70.2018 18.4 69.9858 18.552 69.8578 18.732C69.7338 18.908 69.6718 19.13 69.6718 19.398C69.6718 19.706 69.7438 19.944 69.8878 20.112C70.0358 20.28 70.2498 20.364 70.5298 20.364ZM74.5179 21V20.736L75.4299 20.55V12.21L74.5299 11.892V11.706L76.5279 11.142H76.6539V20.55L77.5539 20.736V21H74.5179ZM84.6276 21.108C84.2996 21.108 83.9796 21.06 83.6676 20.964C83.3596 20.868 83.0336 20.718 82.6896 20.514L82.2156 21H81.9696L81.7476 17.958L82.0716 17.892C82.3116 18.832 82.6276 19.514 83.0196 19.938C83.4156 20.362 83.9376 20.574 84.5856 20.574C85.1296 20.574 85.5596 20.444 85.8756 20.184C86.1916 19.92 86.3496 19.564 86.3496 19.116C86.3496 18.764 86.2396 18.45 86.0196 18.174C85.8036 17.894 85.4476 17.614 84.9516 17.334L84.0336 16.848C83.2856 16.444 82.7496 16.042 82.4256 15.642C82.1016 15.242 81.9396 14.776 81.9396 14.244C81.9396 13.764 82.0576 13.336 82.2936 12.96C82.5296 12.58 82.8516 12.282 83.2596 12.066C83.6716 11.846 84.1336 11.736 84.6456 11.736C85.3456 11.736 85.9556 11.982 86.4756 12.474L86.8416 11.85H87.0996L87.2076 14.472H86.8656C86.6776 13.724 86.4056 13.172 86.0496 12.816C85.6976 12.456 85.2476 12.276 84.6996 12.276C84.2556 12.276 83.9036 12.394 83.6436 12.63C83.3876 12.866 83.2596 13.19 83.2596 13.602C83.2596 13.974 83.3816 14.306 83.6256 14.598C83.8736 14.89 84.2896 15.19 84.8736 15.498L85.7676 15.978C86.3796 16.302 86.8216 16.662 87.0936 17.058C87.3696 17.454 87.5076 17.908 87.5076 18.42C87.5076 18.928 87.3796 19.386 87.1236 19.794C86.8716 20.198 86.5276 20.518 86.0916 20.754C85.6596 20.99 85.1716 21.108 84.6276 21.108ZM90.7012 21.126C90.2572 21.126 89.9192 21 89.6872 20.748C89.4552 20.496 89.3392 20.134 89.3392 19.662V15.15H88.5592L88.5232 14.934L90.3232 13.146L90.5572 13.17V14.706H92.2732L92.1712 15.15H90.5572V19.542C90.5572 20.198 90.7932 20.526 91.2652 20.526C91.4252 20.526 91.5832 20.484 91.7392 20.4C91.8992 20.316 92.0352 20.2 92.1472 20.052L92.3572 20.238C92.1732 20.51 91.9332 20.726 91.6372 20.886C91.3452 21.046 91.0332 21.126 90.7012 21.126ZM95.3274 21.126C94.7274 21.126 94.2894 20.988 94.0134 20.712C93.7374 20.432 93.5994 20.028 93.5994 19.5V15.156L92.7114 14.97V14.706H94.8234V19.02C94.8234 19.544 94.9154 19.904 95.0994 20.1C95.2874 20.296 95.5834 20.394 95.9874 20.394C96.2634 20.394 96.5334 20.322 96.7974 20.178C97.0614 20.034 97.3054 19.808 97.5294 19.5V19.98C97.2254 20.352 96.8834 20.636 96.5034 20.832C96.1234 21.028 95.7314 21.126 95.3274 21.126ZM97.4874 21.126V19.944L97.4214 19.92V15.156L96.5394 14.97V14.706H98.6454V20.088L99.4614 20.376V20.538L97.5894 21.126H97.4874ZM102.872 21.126C102.4 21.126 101.976 20.988 101.6 20.712C101.224 20.436 100.926 20.06 100.706 19.584C100.49 19.104 100.382 18.562 100.382 17.958C100.382 17.294 100.514 16.71 100.778 16.206C101.042 15.698 101.41 15.302 101.882 15.018C102.354 14.73 102.9 14.586 103.52 14.586C103.96 14.586 104.392 14.652 104.816 14.784V12.234L103.928 11.892V11.724L105.89 11.142H106.028V20.046L106.85 20.232V20.376L104.996 21.126H104.9V20.136L104.846 20.118C104.598 20.45 104.304 20.702 103.964 20.874C103.628 21.042 103.264 21.126 102.872 21.126ZM103.4 20.334C103.696 20.334 103.97 20.272 104.222 20.148C104.478 20.024 104.676 19.856 104.816 19.644V16.308C104.816 15.88 104.704 15.552 104.48 15.324C104.26 15.096 103.942 14.982 103.526 14.982C102.99 14.982 102.556 15.236 102.224 15.744C101.896 16.252 101.732 16.926 101.732 17.766C101.732 18.558 101.88 19.184 102.176 19.644C102.472 20.104 102.88 20.334 103.4 20.334ZM107.508 21V20.736L108.42 20.55V15.66L107.526 15.342V15.156L109.518 14.586H109.65V20.55L110.55 20.736V21H107.508ZM109.026 13.326C108.782 13.326 108.588 13.248 108.444 13.092C108.3 12.936 108.228 12.754 108.228 12.546C108.228 12.318 108.3 12.126 108.444 11.97C108.588 11.814 108.782 11.736 109.026 11.736C109.274 11.736 109.47 11.814 109.614 11.97C109.762 12.126 109.836 12.318 109.836 12.546C109.836 12.754 109.762 12.936 109.614 13.092C109.47 13.248 109.274 13.326 109.026 13.326ZM114.483 21.126C113.867 21.126 113.321 20.984 112.845 20.7C112.369 20.412 111.995 20.022 111.723 19.53C111.455 19.034 111.321 18.476 111.321 17.856C111.321 17.232 111.455 16.674 111.723 16.182C111.995 15.69 112.369 15.302 112.845 15.018C113.321 14.73 113.867 14.586 114.483 14.586C115.099 14.586 115.643 14.73 116.115 15.018C116.591 15.302 116.965 15.69 117.237 16.182C117.509 16.674 117.645 17.232 117.645 17.856C117.645 18.476 117.509 19.034 117.237 19.53C116.965 20.022 116.591 20.412 116.115 20.7C115.643 20.984 115.099 21.126 114.483 21.126ZM114.471 20.574C114.763 20.574 115.021 20.51 115.245 20.382C115.469 20.25 115.657 20.064 115.809 19.824C115.965 19.58 116.083 19.292 116.163 18.96C116.243 18.624 116.283 18.252 116.283 17.844C116.283 17.44 116.243 17.072 116.163 16.74C116.087 16.408 115.973 16.122 115.821 15.882C115.669 15.642 115.481 15.458 115.257 15.33C115.033 15.198 114.775 15.132 114.483 15.132C114.191 15.132 113.933 15.198 113.709 15.33C113.485 15.458 113.297 15.642 113.145 15.882C112.993 16.122 112.877 16.41 112.797 16.746C112.721 17.078 112.683 17.448 112.683 17.856C112.683 18.264 112.721 18.634 112.797 18.966C112.877 19.298 112.993 19.584 113.145 19.824C113.297 20.064 113.483 20.25 113.703 20.382C113.927 20.51 114.183 20.574 114.471 20.574ZM126.361 21.126C125.501 21.126 124.743 20.93 124.087 20.538C123.435 20.146 122.925 19.602 122.557 18.906C122.193 18.206 122.011 17.4 122.011 16.488C122.011 15.792 122.117 15.154 122.329 14.574C122.545 13.994 122.849 13.492 123.241 13.068C123.633 12.644 124.097 12.316 124.633 12.084C125.169 11.852 125.757 11.736 126.397 11.736C126.869 11.736 127.327 11.8 127.771 11.928C128.219 12.052 128.623 12.232 128.983 12.468H129.031L129.607 11.862H129.841V14.616H129.451C129.383 14.396 129.307 14.198 129.223 14.022C129.143 13.846 129.057 13.684 128.965 13.536C128.685 13.088 128.355 12.768 127.975 12.576C127.595 12.384 127.143 12.288 126.619 12.288C125.651 12.288 124.905 12.642 124.381 13.35C123.861 14.058 123.601 15.074 123.601 16.398C123.601 17.722 123.863 18.746 124.387 19.47C124.915 20.194 125.659 20.556 126.619 20.556C127.095 20.556 127.525 20.462 127.909 20.274C128.293 20.082 128.613 19.802 128.869 19.434C129.017 19.226 129.143 18.99 129.247 18.726C129.355 18.462 129.437 18.174 129.493 17.862H129.841V21H129.535L128.995 20.22C128.571 20.536 128.147 20.766 127.723 20.91C127.303 21.054 126.849 21.126 126.361 21.126ZM134.287 21.126C133.671 21.126 133.125 20.984 132.649 20.7C132.173 20.412 131.799 20.022 131.527 19.53C131.259 19.034 131.125 18.476 131.125 17.856C131.125 17.232 131.259 16.674 131.527 16.182C131.799 15.69 132.173 15.302 132.649 15.018C133.125 14.73 133.671 14.586 134.287 14.586C134.903 14.586 135.447 14.73 135.919 15.018C136.395 15.302 136.769 15.69 137.041 16.182C137.313 16.674 137.449 17.232 137.449 17.856C137.449 18.476 137.313 19.034 137.041 19.53C136.769 20.022 136.395 20.412 135.919 20.7C135.447 20.984 134.903 21.126 134.287 21.126ZM134.275 20.574C134.567 20.574 134.825 20.51 135.049 20.382C135.273 20.25 135.461 20.064 135.613 19.824C135.769 19.58 135.887 19.292 135.967 18.96C136.047 18.624 136.087 18.252 136.087 17.844C136.087 17.44 136.047 17.072 135.967 16.74C135.891 16.408 135.777 16.122 135.625 15.882C135.473 15.642 135.285 15.458 135.061 15.33C134.837 15.198 134.579 15.132 134.287 15.132C133.995 15.132 133.737 15.198 133.513 15.33C133.289 15.458 133.101 15.642 132.949 15.882C132.797 16.122 132.681 16.41 132.601 16.746C132.525 17.078 132.487 17.448 132.487 17.856C132.487 18.264 132.525 18.634 132.601 18.966C132.681 19.298 132.797 19.584 132.949 19.824C133.101 20.064 133.287 20.25 133.507 20.382C133.731 20.51 133.987 20.574 134.275 20.574ZM141.005 21.126C140.533 21.126 140.109 20.988 139.733 20.712C139.357 20.436 139.059 20.06 138.839 19.584C138.623 19.104 138.515 18.562 138.515 17.958C138.515 17.294 138.647 16.71 138.911 16.206C139.175 15.698 139.543 15.302 140.015 15.018C140.487 14.73 141.033 14.586 141.653 14.586C142.093 14.586 142.525 14.652 142.949 14.784V12.234L142.061 11.892V11.724L144.023 11.142H144.161V20.046L144.983 20.232V20.376L143.129 21.126H143.033V20.136L142.979 20.118C142.731 20.45 142.437 20.702 142.097 20.874C141.761 21.042 141.397 21.126 141.005 21.126ZM141.533 20.334C141.829 20.334 142.103 20.272 142.355 20.148C142.611 20.024 142.809 19.856 142.949 19.644V16.308C142.949 15.88 142.837 15.552 142.613 15.324C142.393 15.096 142.075 14.982 141.659 14.982C141.123 14.982 140.689 15.236 140.357 15.744C140.029 16.252 139.865 16.926 139.865 17.766C139.865 18.558 140.013 19.184 140.309 19.644C140.605 20.104 141.013 20.334 141.533 20.334ZM148.731 21.126C148.151 21.126 147.641 20.994 147.201 20.73C146.765 20.462 146.425 20.09 146.181 19.614C145.941 19.134 145.821 18.58 145.821 17.952C145.821 17.284 145.955 16.698 146.223 16.194C146.495 15.69 146.873 15.296 147.357 15.012C147.845 14.728 148.409 14.586 149.049 14.586C149.841 14.586 150.447 14.816 150.867 15.276C151.291 15.736 151.511 16.41 151.527 17.298L151.443 17.37H146.793V17.022L150.153 16.902C150.181 16.798 150.195 16.64 150.195 16.428C150.195 15.468 149.773 14.988 148.929 14.988C148.349 14.988 147.901 15.216 147.585 15.672C147.273 16.124 147.117 16.766 147.117 17.598C147.117 19.338 147.793 20.208 149.145 20.208C150.025 20.208 150.699 19.888 151.167 19.248L151.389 19.386C151.181 19.938 150.843 20.366 150.375 20.67C149.911 20.974 149.363 21.126 148.731 21.126Z" fill="white"/>
<path d="M31 0H5C2.23858 0 0 2.23858 0 5V27C0 29.7614 2.23858 32 5 32H31V0Z" fill="#007ACC"/>
<path d="M25.292 8.10413L21.1753 6.12329C20.9426 6.01126 20.6809 5.97433 20.4263 6.01763C20.1718 6.06093 19.937 6.18231 19.7545 6.36496L11.8711 13.5566L8.43779 10.95C8.28289 10.8325 8.09176 10.7729 7.89754 10.7816C7.70332 10.7903 7.51826 10.8666 7.37445 10.9975L6.27279 11.9991C6.18694 12.0772 6.11833 12.1723 6.07136 12.2784C6.02438 12.3844 6.00008 12.4992 6 12.6152C5.99992 12.7312 6.02407 12.846 6.0709 12.9521C6.11773 13.0583 6.18621 13.1535 6.27195 13.2316L9.24945 15.9483L6.27195 18.665C6.18621 18.7431 6.11773 18.8383 6.0709 18.9445C6.02407 19.0506 5.99992 19.1654 6 19.2814C6.00008 19.3974 6.02438 19.5121 6.07136 19.6182C6.11833 19.7243 6.18694 19.8194 6.27279 19.8975L7.37529 20.8983C7.51909 21.0291 7.70415 21.1055 7.89837 21.1142C8.09259 21.1229 8.28372 21.0633 8.43862 20.9458L11.872 18.3391L19.7553 25.5308C19.9376 25.7135 20.1723 25.8349 20.4267 25.8782C20.6812 25.9215 20.9428 25.8845 21.1753 25.7725L25.2936 23.7916C25.5055 23.6894 25.6842 23.5294 25.8092 23.3301C25.9342 23.1308 26.0005 22.9002 26.0003 22.665V9.23079C26.0003 8.99535 25.9338 8.76468 25.8085 8.56536C25.6832 8.36603 25.5041 8.20615 25.292 8.10413ZM21.0036 20.4883L15.022 15.9483L21.0036 11.4083V20.4883Z" fill="white"/>
</svg>
