<svg width="100" height="32" viewBox="0 0 100 32" fill="none" xmlns="http://www.w3.org/2000/svg">
<path d="M95 0H31V32H95C97.7614 32 100 29.7614 100 27V5C100 2.23858 97.7614 0 95 0Z" fill="#0F1418"/>
<path d="M54.176 20.126L51.062 11.876C50.994 11.696 50.918 11.558 50.834 11.462C50.754 11.362 50.638 11.29 50.486 11.246C50.334 11.202 50.12 11.17 49.844 11.15V10.862H53.834V11.15C53.39 11.182 53.076 11.218 52.892 11.258C52.708 11.294 52.612 11.366 52.604 11.474C52.6 11.582 52.64 11.758 52.724 12.002L54.698 17.714H54.752L56.21 13.148L55.742 11.876C55.674 11.696 55.598 11.558 55.514 11.462C55.43 11.362 55.312 11.29 55.16 11.246C55.012 11.202 54.798 11.17 54.518 11.15V10.862H58.514V11.15C58.086 11.178 57.778 11.214 57.59 11.258C57.406 11.298 57.31 11.378 57.302 11.498C57.294 11.614 57.336 11.8 57.428 12.056L59.378 17.714L59.294 17.672L61.112 12.446C61.212 12.162 61.246 11.936 61.214 11.768C61.182 11.596 61.07 11.464 60.878 11.372C60.686 11.28 60.394 11.206 60.002 11.15V10.862H63.392V11.15C62.984 11.21 62.672 11.288 62.456 11.384C62.244 11.476 62.084 11.608 61.976 11.78C61.868 11.948 61.766 12.178 61.67 12.47L59.162 20.126H58.844L56.516 13.934L54.476 20.126H54.176ZM64.0743 20.126C63.6463 20.126 63.2983 19.992 63.0303 19.724C62.7663 19.456 62.6343 19.108 62.6343 18.68C62.6343 18.328 62.7423 18.024 62.9583 17.768C63.1743 17.512 63.5223 17.288 64.0023 17.096C64.4863 16.9 65.1243 16.722 65.9163 16.562V15.44C65.9163 14.932 65.8463 14.576 65.7063 14.372C65.5703 14.168 65.3343 14.066 64.9983 14.066C64.6663 14.066 64.4023 14.146 64.2063 14.306C64.0103 14.466 63.9123 14.682 63.9123 14.954C63.9123 15.03 63.9163 15.106 63.9243 15.182C63.9363 15.254 63.9423 15.324 63.9423 15.392C63.9423 15.596 63.8803 15.764 63.7563 15.896C63.6363 16.028 63.4823 16.094 63.2943 16.094C63.1223 16.094 62.9823 16.038 62.8743 15.926C62.7703 15.814 62.7183 15.668 62.7183 15.488C62.7183 15.228 62.8303 14.962 63.0543 14.69C63.2823 14.414 63.5823 14.178 63.9543 13.982C64.4503 13.718 64.9883 13.586 65.5683 13.586C65.9163 13.586 66.2103 13.64 66.4503 13.748C66.6943 13.856 66.8703 14.01 66.9783 14.21C67.0423 14.346 67.0843 14.518 67.1043 14.726C67.1283 14.934 67.1403 15.282 67.1403 15.77V18.452C67.1403 18.84 67.1703 19.104 67.2303 19.244C67.2943 19.384 67.4123 19.454 67.5843 19.454C67.7803 19.454 67.9703 19.342 68.1543 19.118L68.3703 19.322C68.1743 19.606 67.9743 19.812 67.7703 19.94C67.5703 20.064 67.3363 20.126 67.0683 20.126C66.7443 20.126 66.4923 20.038 66.3123 19.862C66.1323 19.686 66.0123 19.418 65.9523 19.058H65.9163C65.6883 19.386 65.4123 19.646 65.0883 19.838C64.7643 20.03 64.4263 20.126 64.0743 20.126ZM64.6743 19.364C64.9223 19.364 65.1543 19.3 65.3703 19.172C65.5863 19.04 65.7683 18.858 65.9163 18.626V16.934C65.3803 17.038 64.9583 17.152 64.6503 17.276C64.3463 17.4 64.1303 17.552 64.0023 17.732C63.8783 17.908 63.8163 18.13 63.8163 18.398C63.8163 18.706 63.8883 18.944 64.0323 19.112C64.1803 19.28 64.3943 19.364 64.6743 19.364ZM68.7704 20V19.736L69.6704 19.55V14.66L68.7944 14.33V14.156L70.7144 13.58H70.8464V14.876L70.8944 14.936V19.55L72.1304 19.736V20H68.7704ZM70.8044 15.428L70.7804 14.936C71.0764 14.5 71.3704 14.164 71.6624 13.928C71.9584 13.692 72.2344 13.574 72.4904 13.574C72.7104 13.574 72.8964 13.65 73.0484 13.802C73.2004 13.95 73.2764 14.13 73.2764 14.342C73.2764 14.538 73.2104 14.704 73.0784 14.84C72.9464 14.972 72.7824 15.038 72.5864 15.038C72.3864 15.038 72.2304 14.964 72.1184 14.816C72.0384 14.724 71.9704 14.662 71.9144 14.63C71.8584 14.594 71.7944 14.576 71.7224 14.576C71.6064 14.576 71.4604 14.654 71.2844 14.81C71.1124 14.962 70.9524 15.168 70.8044 15.428ZM73.6952 22.97V22.736L74.6072 22.538V14.66L73.7252 14.342V14.156L75.6392 13.586H75.7832V14.612H75.8312C76.0712 14.256 76.3652 13.996 76.7132 13.832C77.0652 13.668 77.4212 13.586 77.7812 13.586C78.2812 13.586 78.7192 13.724 79.0952 14C79.4752 14.272 79.7712 14.646 79.9832 15.122C80.1992 15.598 80.3072 16.142 80.3072 16.754C80.3072 17.414 80.1672 17.998 79.8872 18.506C79.6072 19.014 79.2172 19.412 78.7172 19.7C78.2212 19.984 77.6412 20.126 76.9772 20.126C76.7852 20.126 76.5952 20.11 76.4072 20.078C76.2192 20.05 76.0292 20.004 75.8372 19.94V22.538L77.0612 22.736V22.97H73.6952ZM77.0252 19.724C77.4132 19.724 77.7532 19.606 78.0452 19.37C78.3372 19.134 78.5632 18.808 78.7232 18.392C78.8872 17.972 78.9692 17.49 78.9692 16.946C78.9692 16.15 78.8072 15.524 78.4832 15.068C78.1632 14.612 77.7252 14.384 77.1692 14.384C76.9252 14.384 76.6752 14.45 76.4192 14.582C76.1632 14.71 75.9832 14.872 75.8792 15.068V18.542C75.8792 18.886 75.9892 19.17 76.2092 19.394C76.4332 19.614 76.7052 19.724 77.0252 19.724Z" fill="white"/>
<path d="M31 0H5C2.23858 0 0 2.23858 0 5V27C0 29.7614 2.23858 32 5 32H31V0Z" fill="#01A4FF"/>
<path d="M15.0292 9H22.74C23.3394 9 23.9142 9.22407 24.3381 9.62291C24.7619 10.0218 25 10.5627 25 11.1267V19.3836C25.0001 19.6629 24.9417 19.9395 24.8282 20.1977C24.7147 20.4558 24.5482 20.6903 24.3384 20.8879C24.1285 21.0855 23.8793 21.2422 23.6051 21.3491C23.3308 21.4561 23.0369 21.5111 22.74 21.5111H11.7058L15.0292 9ZM13.6283 11.0389L10.6383 22.2953H15.3033L14.9708 23.55H7.26C6.66061 23.55 6.08577 23.3259 5.66194 22.9271C5.23811 22.5282 5 21.9873 5 21.4233V13.1664C5 12.6024 5.23811 12.0614 5.66194 11.6626C6.08577 11.2638 6.66061 11.0397 7.26 11.0397L13.6283 11.0389Z" fill="white"/>
</svg>
