<svg width="100" height="32" viewBox="0 0 100 32" fill="none" xmlns="http://www.w3.org/2000/svg">
<path d="M95 0H31V32H95C97.7614 32 100 29.7614 100 27V5C100 2.23858 97.7614 0 95 0Z" fill="#0F1418"/>
<path d="M46.88 20V19.736C47.348 19.676 47.714 19.588 47.978 19.472C48.246 19.356 48.48 19.164 48.68 18.896L51.164 15.53L48.632 11.66C48.56 11.556 48.478 11.474 48.386 11.414C48.294 11.35 48.162 11.3 47.99 11.264C47.818 11.224 47.576 11.186 47.264 11.15V10.862H51.032V11.15C50.572 11.178 50.302 11.228 50.222 11.3C50.142 11.372 50.178 11.536 50.33 11.792L52.124 14.522L53.978 12.008C54.166 11.736 54.208 11.538 54.104 11.414C54.004 11.29 53.728 11.202 53.276 11.15V10.862H56.27V11.15C55.978 11.202 55.738 11.258 55.55 11.318C55.366 11.378 55.206 11.458 55.07 11.558C54.934 11.658 54.794 11.796 54.65 11.972L52.412 14.966L55.202 19.208C55.318 19.38 55.468 19.5 55.652 19.568C55.84 19.636 56.116 19.686 56.48 19.718V20H52.736V19.718C53.064 19.698 53.298 19.666 53.438 19.622C53.578 19.578 53.648 19.512 53.648 19.424C53.648 19.336 53.602 19.22 53.51 19.076L51.566 16.076L49.34 18.878C49.132 19.142 49.088 19.338 49.208 19.466C49.332 19.59 49.642 19.68 50.138 19.736V20H46.88ZM59.3769 20.126C58.8329 20.126 58.3489 19.994 57.9249 19.73C57.5049 19.462 57.1749 19.092 56.9349 18.62C56.6989 18.144 56.5809 17.596 56.5809 16.976C56.5809 16.32 56.7109 15.738 56.9709 15.23C57.2349 14.718 57.5969 14.316 58.0569 14.024C58.5209 13.732 59.0509 13.586 59.6469 13.586C60.0669 13.586 60.4429 13.656 60.7749 13.796C61.1069 13.932 61.3689 14.114 61.5609 14.342C61.7569 14.566 61.8549 14.812 61.8549 15.08C61.8549 15.3 61.7989 15.47 61.6869 15.59C61.5749 15.71 61.4229 15.77 61.2309 15.77C61.0229 15.77 60.8669 15.708 60.7629 15.584C60.6589 15.46 60.5909 15.266 60.5589 15.002C60.5149 14.606 60.4289 14.34 60.3009 14.204C60.1729 14.068 59.9669 14 59.6829 14C59.1149 14 58.6729 14.244 58.3569 14.732C58.0449 15.216 57.8889 15.86 57.8889 16.664C57.8889 17.472 58.0529 18.092 58.3809 18.524C58.7089 18.956 59.1749 19.172 59.7789 19.172C60.1789 19.172 60.5369 19.098 60.8529 18.95C61.1689 18.802 61.4509 18.556 61.6989 18.212L61.9389 18.35C61.7189 18.918 61.3889 19.356 60.9489 19.664C60.5089 19.972 59.9849 20.126 59.3769 20.126ZM66.0296 20.126C65.4136 20.126 64.8676 19.984 64.3916 19.7C63.9156 19.412 63.5416 19.022 63.2696 18.53C63.0016 18.034 62.8676 17.476 62.8676 16.856C62.8676 16.232 63.0016 15.674 63.2696 15.182C63.5416 14.69 63.9156 14.302 64.3916 14.018C64.8676 13.73 65.4136 13.586 66.0296 13.586C66.6456 13.586 67.1896 13.73 67.6616 14.018C68.1376 14.302 68.5116 14.69 68.7836 15.182C69.0556 15.674 69.1916 16.232 69.1916 16.856C69.1916 17.476 69.0556 18.034 68.7836 18.53C68.5116 19.022 68.1376 19.412 67.6616 19.7C67.1896 19.984 66.6456 20.126 66.0296 20.126ZM66.0176 19.574C66.3096 19.574 66.5676 19.51 66.7916 19.382C67.0156 19.25 67.2036 19.064 67.3556 18.824C67.5116 18.58 67.6296 18.292 67.7096 17.96C67.7896 17.624 67.8296 17.252 67.8296 16.844C67.8296 16.44 67.7896 16.072 67.7096 15.74C67.6336 15.408 67.5196 15.122 67.3676 14.882C67.2156 14.642 67.0276 14.458 66.8036 14.33C66.5796 14.198 66.3216 14.132 66.0296 14.132C65.7376 14.132 65.4796 14.198 65.2556 14.33C65.0316 14.458 64.8436 14.642 64.6916 14.882C64.5396 15.122 64.4236 15.41 64.3436 15.746C64.2676 16.078 64.2296 16.448 64.2296 16.856C64.2296 17.264 64.2676 17.634 64.3436 17.966C64.4236 18.298 64.5396 18.584 64.6916 18.824C64.8436 19.064 65.0296 19.25 65.2496 19.382C65.4736 19.51 65.7296 19.574 66.0176 19.574ZM72.7469 20.126C72.2749 20.126 71.8509 19.988 71.4749 19.712C71.0989 19.436 70.8009 19.06 70.5809 18.584C70.3649 18.104 70.2569 17.562 70.2569 16.958C70.2569 16.294 70.3889 15.71 70.6529 15.206C70.9169 14.698 71.2849 14.302 71.7569 14.018C72.2289 13.73 72.7749 13.586 73.3949 13.586C73.8349 13.586 74.2669 13.652 74.6909 13.784V11.234L73.8029 10.892V10.724L75.7649 10.142H75.9029V19.046L76.7249 19.232V19.376L74.8709 20.126H74.7749V19.136L74.7209 19.118C74.4729 19.45 74.1789 19.702 73.8389 19.874C73.5029 20.042 73.1389 20.126 72.7469 20.126ZM73.2749 19.334C73.5709 19.334 73.8449 19.272 74.0969 19.148C74.3529 19.024 74.5509 18.856 74.6909 18.644V15.308C74.6909 14.88 74.5789 14.552 74.3549 14.324C74.1349 14.096 73.8169 13.982 73.4009 13.982C72.8649 13.982 72.4309 14.236 72.0989 14.744C71.7709 15.252 71.6069 15.926 71.6069 16.766C71.6069 17.558 71.7549 18.184 72.0509 18.644C72.3469 19.104 72.7549 19.334 73.2749 19.334ZM80.4734 20.126C79.8934 20.126 79.3834 19.994 78.9434 19.73C78.5074 19.462 78.1674 19.09 77.9234 18.614C77.6834 18.134 77.5634 17.58 77.5634 16.952C77.5634 16.284 77.6974 15.698 77.9654 15.194C78.2374 14.69 78.6154 14.296 79.0994 14.012C79.5874 13.728 80.1514 13.586 80.7914 13.586C81.5834 13.586 82.1894 13.816 82.6094 14.276C83.0334 14.736 83.2534 15.41 83.2694 16.298L83.1854 16.37H78.5354V16.022L81.8954 15.902C81.9234 15.798 81.9374 15.64 81.9374 15.428C81.9374 14.468 81.5154 13.988 80.6714 13.988C80.0914 13.988 79.6434 14.216 79.3274 14.672C79.0154 15.124 78.8594 15.766 78.8594 16.598C78.8594 18.338 79.5354 19.208 80.8874 19.208C81.7674 19.208 82.4414 18.888 82.9094 18.248L83.1314 18.386C82.9234 18.938 82.5854 19.366 82.1174 19.67C81.6534 19.974 81.1054 20.126 80.4734 20.126Z" fill="white"/>
<path d="M31 0H5C2.23858 0 0 2.23858 0 5V27C0 29.7614 2.23858 32 5 32H31V0Z" fill="#147EFB"/>
<path d="M21.9076 9.33285C22.3593 9.13925 22.682 9.07475 23.0046 9.13925C23.5209 9.26835 23.779 9.65555 23.9726 9.84905C24.1662 10.2362 24.876 10.6234 25.1987 10.6879C25.4568 10.7524 25.9085 10.0426 26.2312 9.39735C26.5539 8.81655 26.7475 8.04215 26.6829 7.84855C26.6184 7.65495 25.7149 7.26775 25.5213 7.26775C25.3922 7.26775 25.1341 7.39685 24.6824 7.33225C24.2307 7.26775 23.779 6.75145 23.5208 6.36425C23.0691 5.71895 22.4238 5.33175 21.843 5.00905C21.1977 4.68635 20.4878 4.49275 19.778 4.36375C18.7455 4.10565 17.713 3.91205 16.6805 4.04105C16.0997 4.10555 15.3899 4.17015 14.8736 4.36375C14.8091 4.36375 14.68 4.55735 14.8091 4.55735C14.9382 4.55735 15.3899 4.62185 15.3899 4.62185C15.3899 4.62185 14.8092 4.75105 14.8092 4.88015C14.8092 5.00925 14.8737 5.00925 14.9383 5.00925C15.0028 5.00925 16.4225 4.94475 17.0033 5.00925C17.6486 5.13835 18.3585 5.46095 18.8102 6.23535C19.5846 7.65505 19.2619 9.01025 19.0683 9.46195C18.1003 11.5914 10.4211 24.6913 10.0339 25.5947C9.6466 26.4981 9.5176 27.0789 10.6146 27.6597C11.7116 28.2405 12.2924 27.9824 12.6151 27.5952C13.0023 27.0789 19.649 10.4298 21.9076 9.33285ZM18.2938 18.0445H19.8426C20.8751 18.0445 21.0687 18.5608 21.0687 18.7543C21.1332 19.2706 20.8751 19.9159 19.8426 19.9159H18.8746L19.649 21.2065C20.1007 21.9809 19.9071 22.3681 19.649 22.6262C19.2618 23.0134 18.4229 23.0134 17.9712 22.1745L17.0678 20.6257C16.4225 22.0454 15.7772 23.5941 15.0028 25.401H19.0037C20.9396 25.401 22.5529 23.7877 22.5529 21.8518V10.5589C22.4884 10.4298 22.3593 10.4944 22.2948 10.5589C21.9076 11.0106 20.8106 12.5593 18.2938 18.0445ZM8.4851 26.0464H8.1624C5.8393 26.0464 3.9679 24.175 3.9679 21.8519V11.0106C3.9679 8.68755 5.8393 6.81615 8.1624 6.81615H17.5195C17.3259 6.62255 16.5515 6.29985 15.7772 6.36445C15.4545 6.36445 14.8092 6.49355 14.422 6.23535C14.0348 5.91265 14.0993 5.71905 13.5186 5.71905H7.7753C5.1295 5.71905 3 7.84855 3 10.4943V22.239C3 24.8848 5.1295 27.0143 7.4527 26.9498C8.0979 26.9498 8.2915 26.4336 8.4851 26.0464ZM23.2628 10.946V21.8518C23.2628 24.1749 21.3914 26.0463 19.0683 26.0463H14.7446C14.7446 26.0463 14.3574 27.0788 15.5835 27.0788H19.4554C22.1012 27.0788 24.2307 24.9493 24.2307 22.3035V12.8174C24.2953 11.914 23.5209 11.3332 23.2628 10.946ZM4.6777 11.0106V21.8519C4.6777 23.7878 6.291 25.4011 8.2269 25.4011H8.8077C8.8077 25.3366 9.5821 23.9814 11.2599 21.142C11.4535 20.7548 11.7116 20.3676 11.9697 19.9159H7.259C6.6782 19.9159 6.3556 19.5287 6.291 19.2061C6.1619 18.6898 6.4846 18.0445 7.1944 18.0445H9.5821L12.6151 12.7529C12.6151 12.7529 11.9053 11.4623 11.7117 11.1396C11.4535 10.6879 11.5826 10.2362 11.8407 9.97815C12.2279 9.59095 12.8732 9.39735 13.5185 10.4298L13.7766 10.817L14.0347 10.4298C14.6155 9.59095 15.0027 9.65545 15.3253 9.72005C15.8416 9.84915 16.1642 10.4298 15.7125 11.3333L11.7116 18.0445H13.0668C13.5185 17.2701 13.9702 16.4957 14.422 15.6568C14.3575 15.3341 14.2929 14.947 14.3575 14.6243C14.422 14.108 14.6802 13.6563 15.0028 13.2691L15.39 13.9144C16.6161 11.7849 17.5195 9.97805 17.7777 9.26815C17.9068 8.88095 18.1004 8.10655 17.9068 7.46125H8.227C6.2265 7.46135 4.6777 9.07465 4.6777 11.0106ZM7.4526 21.7873C7.4526 21.7228 8.227 20.3676 8.227 20.3676C9.4531 20.0449 10.0339 20.8193 10.0984 20.8839C10.0984 20.8839 9.2595 22.3681 9.0014 22.6262C8.7433 22.8843 8.4206 22.9489 8.098 22.8843C7.5816 22.7553 7.259 22.239 7.4526 21.7873Z" fill="white"/>
</svg>
