<svg width="131" height="32" viewBox="0 0 131 32" fill="none" xmlns="http://www.w3.org/2000/svg">
<path d="M123.754 0H31V32H123.754C127.756 32 131 29.7614 131 27V5C131 2.23858 127.756 0 123.754 0Z" fill="#0F1418"/>
<path d="M40.49 20V19.712L41.546 19.472V16.106L39.152 11.876C39.056 11.704 38.964 11.57 38.876 11.474C38.788 11.374 38.67 11.3 38.522 11.252C38.378 11.204 38.168 11.17 37.892 11.15V10.862H41.918V11.15C41.302 11.19 40.922 11.268 40.778 11.384C40.638 11.5 40.654 11.728 40.826 12.068L42.734 15.5H42.776L44.384 12.446C44.576 12.054 44.58 11.748 44.396 11.528C44.212 11.308 43.844 11.182 43.292 11.15V10.862H46.676V11.15C46.372 11.194 46.13 11.25 45.95 11.318C45.77 11.382 45.628 11.464 45.524 11.564C45.42 11.664 45.328 11.788 45.248 11.936C45.168 12.084 45.072 12.262 44.96 12.47L42.896 16.292V19.472L43.94 19.712V20H40.49ZM48.8147 20.126C48.1987 20.126 47.6527 19.984 47.1767 19.7C46.7007 19.412 46.3267 19.022 46.0547 18.53C45.7867 18.034 45.6527 17.476 45.6527 16.856C45.6527 16.232 45.7867 15.674 46.0547 15.182C46.3267 14.69 46.7007 14.302 47.1767 14.018C47.6527 13.73 48.1987 13.586 48.8147 13.586C49.4307 13.586 49.9747 13.73 50.4467 14.018C50.9227 14.302 51.2967 14.69 51.5687 15.182C51.8407 15.674 51.9767 16.232 51.9767 16.856C51.9767 17.476 51.8407 18.034 51.5687 18.53C51.2967 19.022 50.9227 19.412 50.4467 19.7C49.9747 19.984 49.4307 20.126 48.8147 20.126ZM48.8027 19.574C49.0947 19.574 49.3527 19.51 49.5767 19.382C49.8007 19.25 49.9887 19.064 50.1407 18.824C50.2967 18.58 50.4147 18.292 50.4947 17.96C50.5747 17.624 50.6147 17.252 50.6147 16.844C50.6147 16.44 50.5747 16.072 50.4947 15.74C50.4187 15.408 50.3047 15.122 50.1527 14.882C50.0007 14.642 49.8127 14.458 49.5887 14.33C49.3647 14.198 49.1067 14.132 48.8147 14.132C48.5227 14.132 48.2647 14.198 48.0407 14.33C47.8167 14.458 47.6287 14.642 47.4767 14.882C47.3247 15.122 47.2087 15.41 47.1287 15.746C47.0527 16.078 47.0147 16.448 47.0147 16.856C47.0147 17.264 47.0527 17.634 47.1287 17.966C47.2087 18.298 47.3247 18.584 47.4767 18.824C47.6287 19.064 47.8147 19.25 48.0347 19.382C48.2587 19.51 48.5147 19.574 48.8027 19.574ZM55.3821 20.126C54.7821 20.126 54.3441 19.988 54.0681 19.712C53.7921 19.432 53.6541 19.028 53.6541 18.5V14.156L52.7661 13.97V13.706H54.8781V18.02C54.8781 18.544 54.9701 18.904 55.1541 19.1C55.3421 19.296 55.6381 19.394 56.0421 19.394C56.3181 19.394 56.5881 19.322 56.8521 19.178C57.1161 19.034 57.3601 18.808 57.5841 18.5V18.98C57.2801 19.352 56.9381 19.636 56.5581 19.832C56.1781 20.028 55.7861 20.126 55.3821 20.126ZM57.5421 20.126V18.944L57.4761 18.92V14.156L56.5941 13.97V13.706H58.7001V19.088L59.5161 19.376V19.538L57.6441 20.126H57.5421ZM62.3926 20.126C61.9486 20.126 61.6106 20 61.3786 19.748C61.1466 19.496 61.0306 19.134 61.0306 18.662V14.15H60.2506L60.2146 13.934L62.0146 12.146L62.2486 12.17V13.706H63.9646L63.8626 14.15H62.2486V18.542C62.2486 19.198 62.4846 19.526 62.9566 19.526C63.1166 19.526 63.2746 19.484 63.4306 19.4C63.5906 19.316 63.7266 19.2 63.8386 19.052L64.0486 19.238C63.8646 19.51 63.6246 19.726 63.3286 19.886C63.0366 20.046 62.7246 20.126 62.3926 20.126ZM67.0188 20.126C66.4188 20.126 65.9808 19.988 65.7048 19.712C65.4288 19.432 65.2908 19.028 65.2908 18.5V14.156L64.4028 13.97V13.706H66.5148V18.02C66.5148 18.544 66.6068 18.904 66.7908 19.1C66.9788 19.296 67.2748 19.394 67.6788 19.394C67.9548 19.394 68.2248 19.322 68.4888 19.178C68.7528 19.034 68.9968 18.808 69.2208 18.5V18.98C68.9168 19.352 68.5748 19.636 68.1948 19.832C67.8148 20.028 67.4228 20.126 67.0188 20.126ZM69.1788 20.126V18.944L69.1128 18.92V14.156L68.2308 13.97V13.706H70.3368V19.088L71.1528 19.376V19.538L69.2808 20.126H69.1788ZM75.0853 20.126C74.7853 20.126 74.4933 20.078 74.2093 19.982C73.9253 19.882 73.6653 19.746 73.4293 19.574H73.3633L72.7573 20H72.5473V11.216L71.6653 10.892V10.724L73.6393 10.142H73.7773V14.396C74.0293 14.128 74.3093 13.926 74.6173 13.79C74.9253 13.654 75.2573 13.586 75.6133 13.586C76.1333 13.586 76.5893 13.714 76.9813 13.97C77.3733 14.222 77.6793 14.574 77.8993 15.026C78.1233 15.474 78.2353 15.996 78.2353 16.592C78.2353 17.26 78.0973 17.862 77.8213 18.398C77.5453 18.93 77.1693 19.352 76.6933 19.664C76.2173 19.972 75.6813 20.126 75.0853 20.126ZM75.0553 19.682C75.4193 19.682 75.7353 19.568 76.0033 19.34C76.2753 19.108 76.4853 18.786 76.6333 18.374C76.7853 17.958 76.8613 17.476 76.8613 16.928C76.8613 16.1 76.7013 15.45 76.3813 14.978C76.0653 14.506 75.6293 14.27 75.0733 14.27C74.8053 14.27 74.5613 14.326 74.3413 14.438C74.1213 14.55 73.9333 14.702 73.7773 14.894V18.188C73.7773 18.636 73.8933 18.998 74.1253 19.274C74.3573 19.546 74.6673 19.682 75.0553 19.682ZM82.2195 20.126C81.6395 20.126 81.1295 19.994 80.6895 19.73C80.2535 19.462 79.9135 19.09 79.6695 18.614C79.4295 18.134 79.3095 17.58 79.3095 16.952C79.3095 16.284 79.4435 15.698 79.7115 15.194C79.9835 14.69 80.3615 14.296 80.8455 14.012C81.3335 13.728 81.8975 13.586 82.5375 13.586C83.3295 13.586 83.9355 13.816 84.3555 14.276C84.7795 14.736 84.9995 15.41 85.0155 16.298L84.9315 16.37H80.2815V16.022L83.6415 15.902C83.6695 15.798 83.6835 15.64 83.6835 15.428C83.6835 14.468 83.2615 13.988 82.4175 13.988C81.8375 13.988 81.3895 14.216 81.0735 14.672C80.7615 15.124 80.6055 15.766 80.6055 16.598C80.6055 18.338 81.2815 19.208 82.6335 19.208C83.5135 19.208 84.1875 18.888 84.6555 18.248L84.8775 18.386C84.6695 18.938 84.3315 19.366 83.8635 19.67C83.3995 19.974 82.8515 20.126 82.2195 20.126ZM94.1436 20.126L90.8436 12.218H90.7956V19.472L91.8576 19.712V20H89.2116V19.712L90.2796 19.472V11.378L89.2116 11.15V10.862H91.8576L94.7436 17.774H94.8036L97.7076 10.862H100.27V11.15L99.2196 11.378V19.472L100.27 19.712V20H96.8016V19.712L97.8636 19.472V12.302H97.8156L94.5036 20.126H94.1436ZM103.499 20.126C102.899 20.126 102.461 19.988 102.185 19.712C101.909 19.432 101.771 19.028 101.771 18.5V14.156L100.883 13.97V13.706H102.995V18.02C102.995 18.544 103.087 18.904 103.271 19.1C103.459 19.296 103.755 19.394 104.159 19.394C104.435 19.394 104.705 19.322 104.969 19.178C105.233 19.034 105.477 18.808 105.701 18.5V18.98C105.397 19.352 105.055 19.636 104.675 19.832C104.295 20.028 103.903 20.126 103.499 20.126ZM105.659 20.126V18.944L105.593 18.92V14.156L104.711 13.97V13.706H106.817V19.088L107.633 19.376V19.538L105.761 20.126H105.659ZM110.426 20.126C110.17 20.126 109.886 20.1 109.574 20.048C109.266 20 108.996 19.938 108.764 19.862L108.686 17.936H108.998C109.05 18.528 109.202 18.976 109.454 19.28C109.706 19.58 110.056 19.73 110.504 19.73C110.852 19.73 111.13 19.634 111.338 19.442C111.55 19.246 111.656 18.99 111.656 18.674C111.656 18.41 111.578 18.184 111.422 17.996C111.266 17.804 110.996 17.61 110.612 17.414L110.114 17.168C109.602 16.912 109.236 16.644 109.016 16.364C108.796 16.08 108.686 15.738 108.686 15.338C108.686 14.778 108.88 14.346 109.268 14.042C109.66 13.738 110.218 13.586 110.942 13.586C111.222 13.586 111.492 13.606 111.752 13.646C112.016 13.682 112.222 13.732 112.37 13.796V15.44H112.094C111.978 14.464 111.524 13.976 110.732 13.976C110.424 13.976 110.176 14.06 109.988 14.228C109.804 14.392 109.712 14.616 109.712 14.9C109.712 15.148 109.792 15.36 109.952 15.536C110.116 15.712 110.392 15.894 110.78 16.082L111.326 16.346C111.798 16.578 112.138 16.834 112.346 17.114C112.554 17.394 112.658 17.748 112.658 18.176C112.658 18.772 112.458 19.246 112.058 19.598C111.658 19.95 111.114 20.126 110.426 20.126ZM113.594 20V19.736L114.506 19.55V14.66L113.612 14.342V14.156L115.604 13.586H115.736V19.55L116.636 19.736V20H113.594ZM115.112 12.326C114.868 12.326 114.674 12.248 114.53 12.092C114.386 11.936 114.314 11.754 114.314 11.546C114.314 11.318 114.386 11.126 114.53 10.97C114.674 10.814 114.868 10.736 115.112 10.736C115.36 10.736 115.556 10.814 115.7 10.97C115.848 11.126 115.922 11.318 115.922 11.546C115.922 11.754 115.848 11.936 115.7 12.092C115.556 12.248 115.36 12.326 115.112 12.326ZM120.221 20.126C119.677 20.126 119.193 19.994 118.769 19.73C118.349 19.462 118.019 19.092 117.779 18.62C117.543 18.144 117.425 17.596 117.425 16.976C117.425 16.32 117.555 15.738 117.815 15.23C118.079 14.718 118.441 14.316 118.901 14.024C119.365 13.732 119.895 13.586 120.491 13.586C120.911 13.586 121.287 13.656 121.619 13.796C121.951 13.932 122.213 14.114 122.405 14.342C122.601 14.566 122.699 14.812 122.699 15.08C122.699 15.3 122.643 15.47 122.531 15.59C122.419 15.71 122.267 15.77 122.075 15.77C121.867 15.77 121.711 15.708 121.607 15.584C121.503 15.46 121.435 15.266 121.403 15.002C121.359 14.606 121.273 14.34 121.145 14.204C121.017 14.068 120.811 14 120.527 14C119.959 14 119.517 14.244 119.201 14.732C118.889 15.216 118.733 15.86 118.733 16.664C118.733 17.472 118.897 18.092 119.225 18.524C119.553 18.956 120.019 19.172 120.623 19.172C121.023 19.172 121.381 19.098 121.697 18.95C122.013 18.802 122.295 18.556 122.543 18.212L122.783 18.35C122.563 18.918 122.233 19.356 121.793 19.664C121.353 19.972 120.829 20.126 120.221 20.126Z" fill="white"/>
<path d="M31 0H5C2.23858 0 0 2.23858 0 5V27C0 29.7614 2.23858 32 5 32H31V0Z" fill="#FF0000"/>
<path d="M15 4C8.376 4 3 9.376 3 16C3 22.624 8.376 28 15 28C21.624 28 27 22.624 27 16C27 9.376 21.624 4 15 4ZM15 23.104C11.076 23.104 7.896 19.924 7.896 16C7.896 12.076 11.076 8.896 15 8.896C18.924 8.896 22.104 12.076 22.104 16C22.104 19.924 18.924 23.104 15 23.104ZM15 9.772C11.568 9.772 8.772 12.568 8.772 16C8.772 19.432 11.568 22.228 15 22.228C18.432 22.228 21.228 19.432 21.228 16C21.228 12.568 18.432 9.772 15 9.772ZM12.684 19.54V12.46L18.816 16L12.684 19.54Z" fill="white"/>
</svg>
