<svg width="179" height="32" viewBox="0 0 179 32" fill="none" xmlns="http://www.w3.org/2000/svg">
<path d="M168.275 0H31V32H168.275C174.198 32 179 29.7614 179 27V5C179 2.23858 174.198 0 168.275 0Z" fill="#0F1418"/>
<path d="M40.724 20V19.712C41.136 19.644 41.446 19.562 41.654 19.466C41.862 19.366 42.018 19.232 42.122 19.064C42.226 18.892 42.328 18.666 42.428 18.386L44.726 12.032L44.39 11.27L45.638 10.622L48.806 18.98C48.874 19.164 48.948 19.304 49.028 19.4C49.112 19.496 49.23 19.566 49.382 19.61C49.534 19.654 49.748 19.688 50.024 19.712V20H46.1V19.712C46.488 19.688 46.778 19.66 46.97 19.628C47.162 19.592 47.272 19.514 47.3 19.394C47.328 19.27 47.292 19.068 47.192 18.788L45.032 12.866H44.996L42.962 18.524C42.874 18.768 42.85 18.968 42.89 19.124C42.93 19.276 43.048 19.398 43.244 19.49C43.44 19.578 43.726 19.652 44.102 19.712V20H40.724ZM43.412 16.736V16.232H46.7V16.736H43.412ZM50.2605 20V19.736L51.1545 19.55V14.672L50.2725 14.342V14.168L52.1685 13.586H52.3245V14.624L52.3845 14.684V19.55L53.2665 19.736V20H50.2605ZM54.0525 20V19.736L54.9405 19.562V15.896C54.9405 15.328 54.8505 14.92 54.6705 14.672C54.4945 14.42 54.2105 14.294 53.8185 14.294C53.5145 14.294 53.2245 14.37 52.9485 14.522C52.6765 14.67 52.4385 14.884 52.2345 15.164V14.66C52.5705 14.32 52.9405 14.056 53.3445 13.868C53.7525 13.68 54.1525 13.586 54.5445 13.586C55.0925 13.586 55.4985 13.73 55.7625 14.018C56.0265 14.302 56.1585 14.746 56.1585 15.35V19.562L57.0465 19.736V20H54.0525ZM57.8325 20V19.736L58.7145 19.562V15.86C58.7145 15.292 58.6285 14.89 58.4565 14.654C58.2885 14.414 58.0025 14.294 57.5985 14.294C57.2745 14.294 56.9785 14.37 56.7105 14.522C56.4465 14.67 56.2145 14.884 56.0145 15.164V14.66C56.3225 14.304 56.6845 14.036 57.1005 13.856C57.5165 13.676 57.9365 13.586 58.3605 13.586C58.8965 13.586 59.2885 13.732 59.5365 14.024C59.7845 14.316 59.9165 14.776 59.9325 15.404V19.562L60.8205 19.736V20H57.8325ZM63.0665 20.126C62.6385 20.126 62.2905 19.992 62.0225 19.724C61.7585 19.456 61.6265 19.108 61.6265 18.68C61.6265 18.328 61.7345 18.024 61.9505 17.768C62.1665 17.512 62.5145 17.288 62.9945 17.096C63.4785 16.9 64.1165 16.722 64.9085 16.562V15.44C64.9085 14.932 64.8385 14.576 64.6985 14.372C64.5625 14.168 64.3265 14.066 63.9905 14.066C63.6585 14.066 63.3945 14.146 63.1985 14.306C63.0025 14.466 62.9045 14.682 62.9045 14.954C62.9045 15.03 62.9085 15.106 62.9165 15.182C62.9285 15.254 62.9345 15.324 62.9345 15.392C62.9345 15.596 62.8725 15.764 62.7485 15.896C62.6285 16.028 62.4745 16.094 62.2865 16.094C62.1145 16.094 61.9745 16.038 61.8665 15.926C61.7625 15.814 61.7105 15.668 61.7105 15.488C61.7105 15.228 61.8225 14.962 62.0465 14.69C62.2745 14.414 62.5745 14.178 62.9465 13.982C63.4425 13.718 63.9805 13.586 64.5605 13.586C64.9085 13.586 65.2025 13.64 65.4425 13.748C65.6865 13.856 65.8625 14.01 65.9705 14.21C66.0345 14.346 66.0765 14.518 66.0965 14.726C66.1205 14.934 66.1325 15.282 66.1325 15.77V18.452C66.1325 18.84 66.1625 19.104 66.2225 19.244C66.2865 19.384 66.4045 19.454 66.5765 19.454C66.7725 19.454 66.9625 19.342 67.1465 19.118L67.3625 19.322C67.1665 19.606 66.9665 19.812 66.7625 19.94C66.5625 20.064 66.3285 20.126 66.0605 20.126C65.7365 20.126 65.4845 20.038 65.3045 19.862C65.1245 19.686 65.0045 19.418 64.9445 19.058H64.9085C64.6805 19.386 64.4045 19.646 64.0805 19.838C63.7565 20.03 63.4185 20.126 63.0665 20.126ZM63.6665 19.364C63.9145 19.364 64.1465 19.3 64.3625 19.172C64.5785 19.04 64.7605 18.858 64.9085 18.626V16.934C64.3725 17.038 63.9505 17.152 63.6425 17.276C63.3385 17.4 63.1225 17.552 62.9945 17.732C62.8705 17.908 62.8085 18.13 62.8085 18.398C62.8085 18.706 62.8805 18.944 63.0245 19.112C63.1725 19.28 63.3865 19.364 63.6665 19.364ZM67.8466 20V19.664L71.5306 14.114H68.9806C68.7806 14.646 68.6366 15.058 68.5486 15.35C68.4606 15.642 68.3966 15.882 68.3566 16.07L68.0806 16.04L68.2306 13.706H73.0786V14.036L69.3526 19.598H72.0466C72.1866 19.254 72.3086 18.91 72.4126 18.566C72.5206 18.222 72.5986 17.934 72.6466 17.702L72.9226 17.726L72.8446 20H67.8466ZM77.2561 20.126C76.6401 20.126 76.0941 19.984 75.6181 19.7C75.1421 19.412 74.7681 19.022 74.4961 18.53C74.2281 18.034 74.0941 17.476 74.0941 16.856C74.0941 16.232 74.2281 15.674 74.4961 15.182C74.7681 14.69 75.1421 14.302 75.6181 14.018C76.0941 13.73 76.6401 13.586 77.2561 13.586C77.8721 13.586 78.4161 13.73 78.8881 14.018C79.3641 14.302 79.7381 14.69 80.0101 15.182C80.2821 15.674 80.4181 16.232 80.4181 16.856C80.4181 17.476 80.2821 18.034 80.0101 18.53C79.7381 19.022 79.3641 19.412 78.8881 19.7C78.4161 19.984 77.8721 20.126 77.2561 20.126ZM77.2441 19.574C77.5361 19.574 77.7941 19.51 78.0181 19.382C78.2421 19.25 78.4301 19.064 78.5821 18.824C78.7381 18.58 78.8561 18.292 78.9361 17.96C79.0161 17.624 79.0561 17.252 79.0561 16.844C79.0561 16.44 79.0161 16.072 78.9361 15.74C78.8601 15.408 78.7461 15.122 78.5941 14.882C78.4421 14.642 78.2541 14.458 78.0301 14.33C77.8061 14.198 77.5481 14.132 77.2561 14.132C76.9641 14.132 76.7061 14.198 76.4821 14.33C76.2581 14.458 76.0701 14.642 75.9181 14.882C75.7661 15.122 75.6501 15.41 75.5701 15.746C75.4941 16.078 75.4561 16.448 75.4561 16.856C75.4561 17.264 75.4941 17.634 75.5701 17.966C75.6501 18.298 75.7661 18.584 75.9181 18.824C76.0701 19.064 76.2561 19.25 76.4761 19.382C76.7001 19.51 76.9561 19.574 77.2441 19.574ZM85.2095 20V19.736L86.0855 19.562V15.71C86.0855 15.234 85.9895 14.88 85.7975 14.648C85.6055 14.412 85.2955 14.294 84.8675 14.294C84.2395 14.294 83.7175 14.58 83.3015 15.152V14.654C83.6375 14.318 84.0055 14.056 84.4055 13.868C84.8055 13.68 85.2035 13.586 85.5995 13.586C86.7395 13.586 87.3095 14.124 87.3095 15.2V19.562L88.1975 19.736V20H85.2095ZM81.3035 20V19.736L82.2035 19.55V14.672L81.3155 14.342V14.168L83.2355 13.586H83.3675V14.648L83.4275 14.708V19.55L84.3095 19.736V20H81.3035ZM95.3674 20.126L92.2534 11.876C92.1854 11.696 92.1094 11.558 92.0254 11.462C91.9454 11.362 91.8294 11.29 91.6774 11.246C91.5254 11.202 91.3114 11.17 91.0354 11.15V10.862H95.0254V11.15C94.5814 11.182 94.2674 11.218 94.0834 11.258C93.8994 11.294 93.8034 11.366 93.7954 11.474C93.7914 11.582 93.8314 11.758 93.9154 12.002L95.8894 17.714H95.9434L97.4014 13.148L96.9334 11.876C96.8654 11.696 96.7894 11.558 96.7054 11.462C96.6214 11.362 96.5034 11.29 96.3514 11.246C96.2034 11.202 95.9894 11.17 95.7094 11.15V10.862H99.7054V11.15C99.2774 11.178 98.9694 11.214 98.7814 11.258C98.5974 11.298 98.5014 11.378 98.4934 11.498C98.4854 11.614 98.5274 11.8 98.6194 12.056L100.569 17.714L100.485 17.672L102.303 12.446C102.403 12.162 102.437 11.936 102.405 11.768C102.373 11.596 102.261 11.464 102.069 11.372C101.877 11.28 101.585 11.206 101.193 11.15V10.862H104.583V11.15C104.175 11.21 103.863 11.288 103.647 11.384C103.435 11.476 103.275 11.608 103.167 11.78C103.059 11.948 102.957 12.178 102.861 12.47L100.353 20.126H100.035L97.7074 13.934L95.6674 20.126H95.3674ZM106.759 20.126C106.179 20.126 105.669 19.994 105.229 19.73C104.793 19.462 104.453 19.09 104.209 18.614C103.969 18.134 103.849 17.58 103.849 16.952C103.849 16.284 103.983 15.698 104.251 15.194C104.523 14.69 104.901 14.296 105.385 14.012C105.873 13.728 106.437 13.586 107.077 13.586C107.869 13.586 108.475 13.816 108.895 14.276C109.319 14.736 109.539 15.41 109.555 16.298L109.471 16.37H104.821V16.022L108.181 15.902C108.209 15.798 108.223 15.64 108.223 15.428C108.223 14.468 107.801 13.988 106.957 13.988C106.377 13.988 105.929 14.216 105.613 14.672C105.301 15.124 105.145 15.766 105.145 16.598C105.145 18.338 105.821 19.208 107.173 19.208C108.053 19.208 108.727 18.888 109.195 18.248L109.417 18.386C109.209 18.938 108.871 19.366 108.403 19.67C107.939 19.974 107.391 20.126 106.759 20.126ZM113.581 20.126C113.281 20.126 112.989 20.078 112.705 19.982C112.421 19.882 112.161 19.746 111.925 19.574H111.859L111.253 20H111.043V11.216L110.161 10.892V10.724L112.135 10.142H112.273V14.396C112.525 14.128 112.805 13.926 113.113 13.79C113.421 13.654 113.753 13.586 114.109 13.586C114.629 13.586 115.085 13.714 115.477 13.97C115.869 14.222 116.175 14.574 116.395 15.026C116.619 15.474 116.731 15.996 116.731 16.592C116.731 17.26 116.593 17.862 116.317 18.398C116.041 18.93 115.665 19.352 115.189 19.664C114.713 19.972 114.177 20.126 113.581 20.126ZM113.551 19.682C113.915 19.682 114.231 19.568 114.499 19.34C114.771 19.108 114.981 18.786 115.129 18.374C115.281 17.958 115.357 17.476 115.357 16.928C115.357 16.1 115.197 15.45 114.877 14.978C114.561 14.506 114.125 14.27 113.569 14.27C113.301 14.27 113.057 14.326 112.837 14.438C112.617 14.55 112.429 14.702 112.273 14.894V18.188C112.273 18.636 112.389 18.998 112.621 19.274C112.853 19.546 113.163 19.682 113.551 19.682ZM124.077 20.108C123.749 20.108 123.429 20.06 123.117 19.964C122.809 19.868 122.483 19.718 122.139 19.514L121.665 20H121.419L121.197 16.958L121.521 16.892C121.761 17.832 122.077 18.514 122.469 18.938C122.865 19.362 123.387 19.574 124.035 19.574C124.579 19.574 125.009 19.444 125.325 19.184C125.641 18.92 125.799 18.564 125.799 18.116C125.799 17.764 125.689 17.45 125.469 17.174C125.253 16.894 124.897 16.614 124.401 16.334L123.483 15.848C122.735 15.444 122.199 15.042 121.875 14.642C121.551 14.242 121.389 13.776 121.389 13.244C121.389 12.764 121.507 12.336 121.743 11.96C121.979 11.58 122.301 11.282 122.709 11.066C123.121 10.846 123.583 10.736 124.095 10.736C124.795 10.736 125.405 10.982 125.925 11.474L126.291 10.85H126.549L126.657 13.472H126.315C126.127 12.724 125.855 12.172 125.499 11.816C125.147 11.456 124.697 11.276 124.149 11.276C123.705 11.276 123.353 11.394 123.093 11.63C122.837 11.866 122.709 12.19 122.709 12.602C122.709 12.974 122.831 13.306 123.075 13.598C123.323 13.89 123.739 14.19 124.323 14.498L125.217 14.978C125.829 15.302 126.271 15.662 126.543 16.058C126.819 16.454 126.957 16.908 126.957 17.42C126.957 17.928 126.829 18.386 126.573 18.794C126.321 19.198 125.977 19.518 125.541 19.754C125.109 19.99 124.621 20.108 124.077 20.108ZM131.098 20.126C130.518 20.126 130.008 19.994 129.568 19.73C129.132 19.462 128.792 19.09 128.548 18.614C128.308 18.134 128.188 17.58 128.188 16.952C128.188 16.284 128.322 15.698 128.59 15.194C128.862 14.69 129.24 14.296 129.724 14.012C130.212 13.728 130.776 13.586 131.416 13.586C132.208 13.586 132.814 13.816 133.234 14.276C133.658 14.736 133.878 15.41 133.894 16.298L133.81 16.37H129.16V16.022L132.52 15.902C132.548 15.798 132.562 15.64 132.562 15.428C132.562 14.468 132.14 13.988 131.296 13.988C130.716 13.988 130.268 14.216 129.952 14.672C129.64 15.124 129.484 15.766 129.484 16.598C129.484 18.338 130.16 19.208 131.512 19.208C132.392 19.208 133.066 18.888 133.534 18.248L133.756 18.386C133.548 18.938 133.21 19.366 132.742 19.67C132.278 19.974 131.73 20.126 131.098 20.126ZM134.735 20V19.736L135.635 19.55V14.66L134.759 14.33V14.156L136.679 13.58H136.811V14.876L136.859 14.936V19.55L138.095 19.736V20H134.735ZM136.769 15.428L136.745 14.936C137.041 14.5 137.335 14.164 137.627 13.928C137.923 13.692 138.199 13.574 138.455 13.574C138.675 13.574 138.861 13.65 139.013 13.802C139.165 13.95 139.241 14.13 139.241 14.342C139.241 14.538 139.175 14.704 139.043 14.84C138.911 14.972 138.747 15.038 138.551 15.038C138.351 15.038 138.195 14.964 138.083 14.816C138.003 14.724 137.935 14.662 137.879 14.63C137.823 14.594 137.759 14.576 137.687 14.576C137.571 14.576 137.425 14.654 137.249 14.81C137.077 14.962 136.917 15.168 136.769 15.428ZM142.372 20.126L140.2 14.48C140.128 14.292 140.04 14.166 139.936 14.102C139.832 14.034 139.63 13.99 139.33 13.97V13.706H142.42V13.97C142.08 13.982 141.856 14.012 141.748 14.06C141.64 14.104 141.586 14.174 141.586 14.27C141.586 14.362 141.61 14.474 141.658 14.606L143.014 18.452H143.062L144.328 14.864C144.4 14.66 144.436 14.504 144.436 14.396C144.436 14.28 144.384 14.194 144.28 14.138C144.176 14.078 143.948 14.022 143.596 13.97V13.706H146.056V13.97C145.76 14.018 145.536 14.076 145.384 14.144C145.232 14.208 145.118 14.298 145.042 14.414C144.97 14.53 144.898 14.686 144.826 14.882L142.942 20.126H142.372ZM146.266 20V19.736L147.178 19.55V14.66L146.284 14.342V14.156L148.276 13.586H148.408V19.55L149.308 19.736V20H146.266ZM147.784 12.326C147.54 12.326 147.346 12.248 147.202 12.092C147.058 11.936 146.986 11.754 146.986 11.546C146.986 11.318 147.058 11.126 147.202 10.97C147.346 10.814 147.54 10.736 147.784 10.736C148.032 10.736 148.228 10.814 148.372 10.97C148.52 11.126 148.594 11.318 148.594 11.546C148.594 11.754 148.52 11.936 148.372 12.092C148.228 12.248 148.032 12.326 147.784 12.326ZM152.893 20.126C152.349 20.126 151.865 19.994 151.441 19.73C151.021 19.462 150.691 19.092 150.451 18.62C150.215 18.144 150.097 17.596 150.097 16.976C150.097 16.32 150.227 15.738 150.487 15.23C150.751 14.718 151.113 14.316 151.573 14.024C152.037 13.732 152.567 13.586 153.163 13.586C153.583 13.586 153.959 13.656 154.291 13.796C154.623 13.932 154.885 14.114 155.077 14.342C155.273 14.566 155.371 14.812 155.371 15.08C155.371 15.3 155.315 15.47 155.203 15.59C155.091 15.71 154.939 15.77 154.747 15.77C154.539 15.77 154.383 15.708 154.279 15.584C154.175 15.46 154.107 15.266 154.075 15.002C154.031 14.606 153.945 14.34 153.817 14.204C153.689 14.068 153.483 14 153.199 14C152.631 14 152.189 14.244 151.873 14.732C151.561 15.216 151.405 15.86 151.405 16.664C151.405 17.472 151.569 18.092 151.897 18.524C152.225 18.956 152.691 19.172 153.295 19.172C153.695 19.172 154.053 19.098 154.369 18.95C154.685 18.802 154.967 18.556 155.215 18.212L155.455 18.35C155.235 18.918 154.905 19.356 154.465 19.664C154.025 19.972 153.501 20.126 152.893 20.126ZM159.317 20.126C158.737 20.126 158.227 19.994 157.787 19.73C157.351 19.462 157.011 19.09 156.767 18.614C156.527 18.134 156.407 17.58 156.407 16.952C156.407 16.284 156.541 15.698 156.809 15.194C157.081 14.69 157.459 14.296 157.943 14.012C158.431 13.728 158.995 13.586 159.635 13.586C160.427 13.586 161.033 13.816 161.453 14.276C161.877 14.736 162.097 15.41 162.113 16.298L162.029 16.37H157.379V16.022L160.739 15.902C160.767 15.798 160.781 15.64 160.781 15.428C160.781 14.468 160.359 13.988 159.515 13.988C158.935 13.988 158.487 14.216 158.171 14.672C157.859 15.124 157.703 15.766 157.703 16.598C157.703 18.338 158.379 19.208 159.731 19.208C160.611 19.208 161.285 18.888 161.753 18.248L161.975 18.386C161.767 18.938 161.429 19.366 160.961 19.67C160.497 19.974 159.949 20.126 159.317 20.126ZM165 20.126C164.744 20.126 164.46 20.1 164.148 20.048C163.84 20 163.57 19.938 163.338 19.862L163.26 17.936H163.572C163.624 18.528 163.776 18.976 164.028 19.28C164.28 19.58 164.63 19.73 165.078 19.73C165.426 19.73 165.704 19.634 165.912 19.442C166.124 19.246 166.23 18.99 166.23 18.674C166.23 18.41 166.152 18.184 165.996 17.996C165.84 17.804 165.57 17.61 165.186 17.414L164.688 17.168C164.176 16.912 163.81 16.644 163.59 16.364C163.37 16.08 163.26 15.738 163.26 15.338C163.26 14.778 163.454 14.346 163.842 14.042C164.234 13.738 164.792 13.586 165.516 13.586C165.796 13.586 166.066 13.606 166.326 13.646C166.59 13.682 166.796 13.732 166.944 13.796V15.44H166.668C166.552 14.464 166.098 13.976 165.306 13.976C164.998 13.976 164.75 14.06 164.562 14.228C164.378 14.392 164.286 14.616 164.286 14.9C164.286 15.148 164.366 15.36 164.526 15.536C164.69 15.712 164.966 15.894 165.354 16.082L165.9 16.346C166.372 16.578 166.712 16.834 166.92 17.114C167.128 17.394 167.232 17.748 167.232 18.176C167.232 18.772 167.032 19.246 166.632 19.598C166.232 19.95 165.688 20.126 165 20.126Z" fill="white"/>
<path d="M31 0H5C2.23858 0 0 2.23858 0 5V27C0 29.7614 2.23858 32 5 32H31V0Z" fill="#232F3E"/>
<path d="M9.76312 14.212C9.76312 14.508 9.79512 14.747 9.85112 14.922C9.91512 15.098 9.99512 15.29 10.1071 15.498C10.1471 15.561 10.1631 15.625 10.1631 15.681C10.1631 15.761 10.1151 15.841 10.0111 15.921L9.50812 16.256C9.44733 16.2998 9.37501 16.3249 9.30012 16.328C9.22012 16.328 9.14012 16.288 9.06112 16.216C8.9537 16.1005 8.85759 15.9749 8.77412 15.841C8.68473 15.6876 8.60198 15.5305 8.52612 15.37C7.90412 16.104 7.12112 16.471 6.17912 16.471C5.50912 16.471 4.97412 16.28 4.58312 15.897C4.19212 15.513 3.99312 15.003 3.99312 14.364C3.99312 13.686 4.23212 13.134 4.71912 12.72C5.20612 12.305 5.85212 12.097 6.67412 12.097C6.94612 12.097 7.22512 12.121 7.52012 12.161C7.81612 12.201 8.12012 12.265 8.43812 12.337V11.754C8.43812 11.147 8.31112 10.724 8.06312 10.477C7.80812 10.229 7.37712 10.11 6.76312 10.11C6.48312 10.11 6.19512 10.141 5.90012 10.213C5.60512 10.285 5.31712 10.373 5.03812 10.485C4.94715 10.5257 4.85362 10.5605 4.75812 10.589C4.71699 10.6023 4.67429 10.61 4.63112 10.612C4.51912 10.612 4.46312 10.532 4.46312 10.365V9.974C4.46312 9.846 4.47912 9.75 4.51912 9.694C4.57953 9.6214 4.6563 9.56416 4.74312 9.527C5.02212 9.383 5.35712 9.263 5.74812 9.167C6.15514 9.0628 6.57399 9.01204 6.99412 9.016C7.94412 9.016 8.63812 9.232 9.08512 9.663C9.52412 10.093 9.74712 10.748 9.74712 11.626V14.212H9.76312ZM6.52312 15.426C6.78612 15.426 7.05712 15.378 7.34512 15.282C7.63212 15.186 7.88812 15.011 8.10312 14.772C8.23112 14.62 8.32712 14.452 8.37512 14.26C8.42212 14.069 8.45512 13.837 8.45512 13.566V13.231C8.21286 13.1719 7.96747 13.1265 7.72012 13.095C7.47136 13.0634 7.22088 13.0474 6.97012 13.047C6.43512 13.047 6.04412 13.151 5.78012 13.367C5.51712 13.582 5.39012 13.885 5.39012 14.284C5.39012 14.659 5.48512 14.939 5.68512 15.13C5.87612 15.33 6.15512 15.426 6.52312 15.426ZM12.9331 16.288C12.7891 16.288 12.6931 16.264 12.6291 16.208C12.5651 16.16 12.5091 16.048 12.4611 15.897L10.5861 9.726C10.5496 9.62253 10.5255 9.51512 10.5141 9.406C10.5141 9.278 10.5781 9.206 10.7051 9.206H11.4881C11.6391 9.206 11.7431 9.231 11.7981 9.286C11.8631 9.334 11.9111 9.446 11.9581 9.598L13.3001 14.882L14.5451 9.598C14.5851 9.438 14.6331 9.334 14.6961 9.286C14.7921 9.22716 14.9038 9.19924 15.0161 9.206H15.6541C15.8061 9.206 15.9101 9.231 15.9741 9.286C16.0371 9.334 16.0941 9.446 16.1251 9.598L17.3861 14.946L18.7671 9.598C18.8151 9.438 18.8711 9.334 18.9271 9.286C19.0198 9.22719 19.1286 9.19919 19.2381 9.206H19.9811C20.1081 9.206 20.1811 9.271 20.1811 9.406C20.1811 9.446 20.1721 9.486 20.1641 9.534C20.1516 9.60224 20.1328 9.66918 20.1081 9.734L18.1851 15.904C18.1371 16.064 18.0811 16.167 18.0171 16.215C17.927 16.2728 17.821 16.3008 17.7141 16.295H17.0271C16.8761 16.295 16.7721 16.271 16.7071 16.215C16.6441 16.159 16.5881 16.055 16.5571 15.895L15.3191 10.747L14.0891 15.887C14.0491 16.047 14.0021 16.151 13.9391 16.207C13.8741 16.263 13.7621 16.287 13.6191 16.287L12.9331 16.288ZM23.1891 16.503C22.7741 16.503 22.3591 16.455 21.9601 16.36C21.5611 16.264 21.2501 16.16 21.0421 16.04C20.9141 15.969 20.8271 15.889 20.7951 15.817C20.7639 15.7464 20.7476 15.6702 20.7471 15.593V15.186C20.7471 15.019 20.8111 14.939 20.9301 14.939C20.9781 14.939 21.0261 14.947 21.0741 14.963C21.1221 14.979 21.1941 15.011 21.2741 15.043C21.5451 15.163 21.8401 15.258 22.1521 15.322C22.4711 15.386 22.7821 15.418 23.1021 15.418C23.6041 15.418 23.9961 15.33 24.2671 15.154C24.397 15.0755 24.5039 14.964 24.5767 14.8309C24.6496 14.6978 24.686 14.5477 24.6821 14.396C24.685 14.2932 24.6675 14.1909 24.6306 14.095C24.5937 13.999 24.5382 13.9113 24.4671 13.837C24.3231 13.686 24.0511 13.55 23.6601 13.422L22.5031 13.062C21.9201 12.879 21.4891 12.608 21.2261 12.249C20.9687 11.9177 20.8281 11.5106 20.8261 11.091C20.8261 10.756 20.8991 10.461 21.0421 10.205C21.1861 9.95 21.3771 9.726 21.6171 9.551C21.8571 9.367 22.1271 9.231 22.4471 9.136C22.7671 9.04 23.1021 9 23.4531 9C23.6281 9 23.8121 9.008 23.9881 9.032C24.1711 9.056 24.3381 9.088 24.5061 9.12C24.6661 9.16 24.8181 9.2 24.9611 9.247C25.1051 9.295 25.2171 9.343 25.2971 9.391C25.3914 9.43844 25.4735 9.50686 25.5371 9.591C25.5887 9.66866 25.6136 9.76096 25.6081 9.854V10.229C25.6081 10.397 25.5441 10.485 25.4241 10.485C25.3179 10.4728 25.215 10.4402 25.1211 10.389C24.6389 10.176 24.1162 10.0699 23.5891 10.078C23.1341 10.078 22.7741 10.149 22.5271 10.301C22.2791 10.453 22.1521 10.684 22.1521 11.011C22.1521 11.235 22.2321 11.427 22.3921 11.578C22.5511 11.73 22.8461 11.882 23.2691 12.018L24.4031 12.376C24.9771 12.56 25.3931 12.816 25.6401 13.143C25.8871 13.47 26.0071 13.845 26.0071 14.26C26.0071 14.603 25.9351 14.915 25.8001 15.186C25.6561 15.458 25.4641 15.697 25.2171 15.889C24.9691 16.089 24.6741 16.232 24.3311 16.336C23.9711 16.447 23.5971 16.503 23.1891 16.503ZM24.6981 20.383C22.0721 22.323 18.2561 23.352 14.9761 23.352C10.3781 23.352 6.23612 21.652 3.10612 18.826C2.85912 18.603 3.08212 18.299 3.37812 18.475C6.76212 20.438 10.9371 21.628 15.2551 21.628C18.1691 21.628 21.3691 21.021 24.3151 19.776C24.7541 19.576 25.1291 20.063 24.6981 20.383ZM25.7921 19.137C25.4561 18.707 23.5721 18.93 22.7181 19.034C22.4631 19.066 22.4231 18.842 22.6551 18.674C24.1551 17.621 26.6221 17.924 26.9091 18.275C27.1961 18.635 26.8291 21.101 25.4241 22.282C25.2091 22.466 25.0011 22.37 25.0971 22.131C25.4171 21.341 26.1271 19.561 25.7921 19.137Z" fill="white"/>
</svg>
