<svg width="173" height="32" viewBox="0 0 173 32" fill="none" xmlns="http://www.w3.org/2000/svg">
<path d="M162.71 0H31V32H162.71C168.393 32 173 29.7614 173 27V5C173 2.23858 168.393 0 162.71 0Z" fill="#0F1418"/>
<path d="M39.986 20.126C39.134 20.126 38.38 19.932 37.724 19.544C37.072 19.152 36.56 18.61 36.188 17.918C35.82 17.226 35.636 16.432 35.636 15.536C35.636 14.844 35.748 14.208 35.972 13.628C36.196 13.044 36.51 12.536 36.914 12.104C37.318 11.668 37.794 11.332 38.342 11.096C38.89 10.856 39.488 10.736 40.136 10.736C40.604 10.736 41.042 10.8 41.45 10.928C41.858 11.056 42.196 11.236 42.464 11.468H42.506L43.13 10.862H43.406V13.616H43.1C42.844 13.04 42.584 12.584 42.32 12.248C42.056 11.908 41.762 11.664 41.438 11.516C41.118 11.368 40.738 11.294 40.298 11.294C39.298 11.294 38.542 11.652 38.03 12.368C37.518 13.08 37.262 14.134 37.262 15.53C37.262 16.882 37.502 17.892 37.982 18.56C38.462 19.224 39.19 19.556 40.166 19.556C40.546 19.556 40.884 19.496 41.18 19.376C41.476 19.252 41.696 19.07 41.84 18.83C41.884 18.774 41.912 18.708 41.924 18.632C41.936 18.552 41.942 18.412 41.942 18.212V15.938L40.874 15.71V15.422H44.354V15.71L43.298 15.938V19.034C43.074 19.246 42.782 19.434 42.422 19.598C42.062 19.762 41.67 19.892 41.246 19.988C40.822 20.08 40.402 20.126 39.986 20.126ZM48.346 20.126C47.73 20.126 47.184 19.984 46.708 19.7C46.232 19.412 45.858 19.022 45.586 18.53C45.318 18.034 45.184 17.476 45.184 16.856C45.184 16.232 45.318 15.674 45.586 15.182C45.858 14.69 46.232 14.302 46.708 14.018C47.184 13.73 47.73 13.586 48.346 13.586C48.962 13.586 49.506 13.73 49.978 14.018C50.454 14.302 50.828 14.69 51.1 15.182C51.372 15.674 51.508 16.232 51.508 16.856C51.508 17.476 51.372 18.034 51.1 18.53C50.828 19.022 50.454 19.412 49.978 19.7C49.506 19.984 48.962 20.126 48.346 20.126ZM48.334 19.574C48.626 19.574 48.884 19.51 49.108 19.382C49.332 19.25 49.52 19.064 49.672 18.824C49.828 18.58 49.946 18.292 50.026 17.96C50.106 17.624 50.146 17.252 50.146 16.844C50.146 16.44 50.106 16.072 50.026 15.74C49.95 15.408 49.836 15.122 49.684 14.882C49.532 14.642 49.344 14.458 49.12 14.33C48.896 14.198 48.638 14.132 48.346 14.132C48.054 14.132 47.796 14.198 47.572 14.33C47.348 14.458 47.16 14.642 47.008 14.882C46.856 15.122 46.74 15.41 46.66 15.746C46.584 16.078 46.546 16.448 46.546 16.856C46.546 17.264 46.584 17.634 46.66 17.966C46.74 18.298 46.856 18.584 47.008 18.824C47.16 19.064 47.346 19.25 47.566 19.382C47.79 19.51 48.046 19.574 48.334 19.574ZM55.7053 20.126C55.0893 20.126 54.5433 19.984 54.0673 19.7C53.5913 19.412 53.2173 19.022 52.9453 18.53C52.6773 18.034 52.5433 17.476 52.5433 16.856C52.5433 16.232 52.6773 15.674 52.9453 15.182C53.2173 14.69 53.5913 14.302 54.0673 14.018C54.5433 13.73 55.0893 13.586 55.7053 13.586C56.3213 13.586 56.8653 13.73 57.3373 14.018C57.8133 14.302 58.1873 14.69 58.4593 15.182C58.7313 15.674 58.8673 16.232 58.8673 16.856C58.8673 17.476 58.7313 18.034 58.4593 18.53C58.1873 19.022 57.8133 19.412 57.3373 19.7C56.8653 19.984 56.3213 20.126 55.7053 20.126ZM55.6933 19.574C55.9853 19.574 56.2433 19.51 56.4673 19.382C56.6913 19.25 56.8793 19.064 57.0313 18.824C57.1873 18.58 57.3053 18.292 57.3853 17.96C57.4653 17.624 57.5053 17.252 57.5053 16.844C57.5053 16.44 57.4653 16.072 57.3853 15.74C57.3093 15.408 57.1953 15.122 57.0433 14.882C56.8913 14.642 56.7033 14.458 56.4793 14.33C56.2553 14.198 55.9973 14.132 55.7053 14.132C55.4133 14.132 55.1553 14.198 54.9313 14.33C54.7073 14.458 54.5193 14.642 54.3673 14.882C54.2153 15.122 54.0993 15.41 54.0193 15.746C53.9433 16.078 53.9053 16.448 53.9053 16.856C53.9053 17.264 53.9433 17.634 54.0193 17.966C54.0993 18.298 54.2153 18.584 54.3673 18.824C54.5193 19.064 54.7053 19.25 54.9253 19.382C55.1493 19.51 55.4053 19.574 55.6933 19.574ZM63.7907 14.03C63.8587 13.834 63.9487 13.634 64.0607 13.43C64.1727 13.222 64.3127 13.046 64.4807 12.902C64.6487 12.758 64.8467 12.686 65.0747 12.686C65.2627 12.686 65.4267 12.74 65.5667 12.848C65.7067 12.956 65.7767 13.104 65.7767 13.292C65.7767 13.452 65.7227 13.59 65.6147 13.706C65.5067 13.818 65.3727 13.874 65.2127 13.874C65.0967 13.874 65.0107 13.848 64.9547 13.796C64.8987 13.744 64.8467 13.692 64.7987 13.64C64.7547 13.588 64.6827 13.562 64.5827 13.562C64.4747 13.562 64.3767 13.632 64.2887 13.772C64.2007 13.908 64.1387 14.064 64.1027 14.24L63.7907 14.03ZM62.5007 17.594C62.8047 17.594 63.0407 17.496 63.2087 17.3C63.3807 17.104 63.5007 16.862 63.5687 16.574C63.6367 16.282 63.6707 16 63.6707 15.728C63.6707 15.556 63.6547 15.37 63.6227 15.17C63.5947 14.966 63.5407 14.774 63.4607 14.594C63.3847 14.41 63.2727 14.26 63.1247 14.144C62.9807 14.024 62.7947 13.964 62.5667 13.964C62.3267 13.964 62.1307 14.028 61.9787 14.156C61.8267 14.28 61.7087 14.442 61.6247 14.642C61.5407 14.838 61.4827 15.044 61.4507 15.26C61.4187 15.476 61.4027 15.674 61.4027 15.854C61.4027 16.082 61.4307 16.332 61.4867 16.604C61.5427 16.872 61.6487 17.104 61.8047 17.3C61.9647 17.496 62.1967 17.594 62.5007 17.594ZM62.5067 17.99C62.0827 17.99 61.7587 18.04 61.5347 18.14C61.3107 18.236 61.1987 18.386 61.1987 18.59C61.1987 18.734 61.2987 18.854 61.4987 18.95C61.7027 19.042 62.0967 19.132 62.6807 19.22L63.5387 19.37C64.2347 19.478 64.7467 19.662 65.0747 19.922C65.4067 20.178 65.5727 20.526 65.5727 20.966C65.5727 21.33 65.4707 21.646 65.2667 21.914C65.0627 22.182 64.7887 22.402 64.4447 22.574C64.1047 22.75 63.7247 22.88 63.3047 22.964C62.8847 23.048 62.4587 23.09 62.0267 23.09C61.7107 23.09 61.4007 23.06 61.0967 23C60.7927 22.944 60.5167 22.854 60.2687 22.73C60.0247 22.606 59.8287 22.446 59.6807 22.25C59.5327 22.054 59.4587 21.816 59.4587 21.536C59.4587 21.208 59.5807 20.912 59.8247 20.648C60.0687 20.388 60.4887 20.138 61.0847 19.898L61.4507 20.048C61.1467 20.164 60.9087 20.344 60.7367 20.588C60.5647 20.836 60.4787 21.102 60.4787 21.386C60.4787 21.678 60.5607 21.918 60.7247 22.106C60.8887 22.298 61.1067 22.44 61.3787 22.532C61.6547 22.628 61.9527 22.676 62.2727 22.676C62.6607 22.676 63.0307 22.632 63.3827 22.544C63.7387 22.456 64.0287 22.32 64.2527 22.136C64.4807 21.952 64.5947 21.716 64.5947 21.428C64.5947 21.28 64.5467 21.146 64.4507 21.026C64.3547 20.906 64.1687 20.792 63.8927 20.684C63.6207 20.58 63.2187 20.478 62.6867 20.378L61.6967 20.192C61.1727 20.092 60.7787 19.936 60.5147 19.724C60.2547 19.512 60.1247 19.258 60.1247 18.962C60.1247 18.826 60.1667 18.68 60.2507 18.524C60.3387 18.368 60.5067 18.222 60.7547 18.086C61.0027 17.946 61.3687 17.842 61.8527 17.774L62.5067 17.99ZM62.5067 17.99C62.0387 17.99 61.6247 17.9 61.2647 17.72C60.9047 17.536 60.6227 17.28 60.4187 16.952C60.2147 16.62 60.1127 16.234 60.1127 15.794C60.1127 15.37 60.2167 14.992 60.4247 14.66C60.6367 14.328 60.9247 14.066 61.2887 13.874C61.6527 13.682 62.0647 13.586 62.5247 13.586C62.9807 13.586 63.3927 13.68 63.7607 13.868C64.1287 14.052 64.4207 14.308 64.6367 14.636C64.8527 14.964 64.9607 15.338 64.9607 15.758C64.9607 16.154 64.8587 16.522 64.6547 16.862C64.4507 17.198 64.1647 17.47 63.7967 17.678C63.4287 17.886 62.9987 17.99 62.5067 17.99ZM65.9788 20V19.736L66.8908 19.55V11.21L65.9908 10.892V10.706L67.9888 10.142H68.1148V19.55L69.0148 19.736V20H65.9788ZM72.7273 20.126C72.1473 20.126 71.6373 19.994 71.1973 19.73C70.7613 19.462 70.4213 19.09 70.1773 18.614C69.9373 18.134 69.8173 17.58 69.8173 16.952C69.8173 16.284 69.9513 15.698 70.2193 15.194C70.4913 14.69 70.8693 14.296 71.3533 14.012C71.8413 13.728 72.4053 13.586 73.0453 13.586C73.8373 13.586 74.4433 13.816 74.8633 14.276C75.2873 14.736 75.5073 15.41 75.5233 16.298L75.4393 16.37H70.7893V16.022L74.1493 15.902C74.1773 15.798 74.1913 15.64 74.1913 15.428C74.1913 14.468 73.7693 13.988 72.9253 13.988C72.3453 13.988 71.8973 14.216 71.5813 14.672C71.2693 15.124 71.1133 15.766 71.1133 16.598C71.1133 18.338 71.7893 19.208 73.1413 19.208C74.0213 19.208 74.6953 18.888 75.1633 18.248L75.3853 18.386C75.1773 18.938 74.8393 19.366 74.3713 19.67C73.9073 19.974 73.3593 20.126 72.7273 20.126ZM84.1894 20.126C83.3294 20.126 82.5714 19.93 81.9154 19.538C81.2634 19.146 80.7534 18.602 80.3854 17.906C80.0214 17.206 79.8394 16.4 79.8394 15.488C79.8394 14.792 79.9454 14.154 80.1574 13.574C80.3734 12.994 80.6774 12.492 81.0694 12.068C81.4614 11.644 81.9254 11.316 82.4614 11.084C82.9974 10.852 83.5854 10.736 84.2254 10.736C84.6974 10.736 85.1554 10.8 85.5994 10.928C86.0474 11.052 86.4514 11.232 86.8114 11.468H86.8594L87.4354 10.862H87.6694V13.616H87.2794C87.2114 13.396 87.1354 13.198 87.0514 13.022C86.9714 12.846 86.8854 12.684 86.7934 12.536C86.5134 12.088 86.1834 11.768 85.8034 11.576C85.4234 11.384 84.9714 11.288 84.4474 11.288C83.4794 11.288 82.7334 11.642 82.2094 12.35C81.6894 13.058 81.4294 14.074 81.4294 15.398C81.4294 16.722 81.6914 17.746 82.2154 18.47C82.7434 19.194 83.4874 19.556 84.4474 19.556C84.9234 19.556 85.3534 19.462 85.7374 19.274C86.1214 19.082 86.4414 18.802 86.6974 18.434C86.8454 18.226 86.9714 17.99 87.0754 17.726C87.1834 17.462 87.2654 17.174 87.3214 16.862H87.6694V20H87.3634L86.8234 19.22C86.3994 19.536 85.9754 19.766 85.5514 19.91C85.1314 20.054 84.6774 20.126 84.1894 20.126ZM88.7015 20V19.736L89.6135 19.55V11.21L88.7135 10.892V10.706L90.7115 10.142H90.8375V19.55L91.7375 19.736V20H88.7015ZM95.678 20.126C95.062 20.126 94.516 19.984 94.04 19.7C93.564 19.412 93.19 19.022 92.918 18.53C92.65 18.034 92.516 17.476 92.516 16.856C92.516 16.232 92.65 15.674 92.918 15.182C93.19 14.69 93.564 14.302 94.04 14.018C94.516 13.73 95.062 13.586 95.678 13.586C96.294 13.586 96.838 13.73 97.31 14.018C97.786 14.302 98.16 14.69 98.432 15.182C98.704 15.674 98.84 16.232 98.84 16.856C98.84 17.476 98.704 18.034 98.432 18.53C98.16 19.022 97.786 19.412 97.31 19.7C96.838 19.984 96.294 20.126 95.678 20.126ZM95.666 19.574C95.958 19.574 96.216 19.51 96.44 19.382C96.664 19.25 96.852 19.064 97.004 18.824C97.16 18.58 97.278 18.292 97.358 17.96C97.438 17.624 97.478 17.252 97.478 16.844C97.478 16.44 97.438 16.072 97.358 15.74C97.282 15.408 97.168 15.122 97.016 14.882C96.864 14.642 96.676 14.458 96.452 14.33C96.228 14.198 95.97 14.132 95.678 14.132C95.386 14.132 95.128 14.198 94.904 14.33C94.68 14.458 94.492 14.642 94.34 14.882C94.188 15.122 94.072 15.41 93.992 15.746C93.916 16.078 93.878 16.448 93.878 16.856C93.878 17.264 93.916 17.634 93.992 17.966C94.072 18.298 94.188 18.584 94.34 18.824C94.492 19.064 94.678 19.25 94.898 19.382C95.122 19.51 95.378 19.574 95.666 19.574ZM102.245 20.126C101.645 20.126 101.207 19.988 100.931 19.712C100.655 19.432 100.517 19.028 100.517 18.5V14.156L99.6294 13.97V13.706H101.741V18.02C101.741 18.544 101.833 18.904 102.017 19.1C102.205 19.296 102.501 19.394 102.905 19.394C103.181 19.394 103.451 19.322 103.715 19.178C103.979 19.034 104.223 18.808 104.447 18.5V18.98C104.143 19.352 103.801 19.636 103.421 19.832C103.041 20.028 102.649 20.126 102.245 20.126ZM104.405 20.126V18.944L104.339 18.92V14.156L103.457 13.97V13.706H105.563V19.088L106.379 19.376V19.538L104.507 20.126H104.405ZM109.79 20.126C109.318 20.126 108.894 19.988 108.518 19.712C108.142 19.436 107.844 19.06 107.624 18.584C107.408 18.104 107.3 17.562 107.3 16.958C107.3 16.294 107.432 15.71 107.696 15.206C107.96 14.698 108.328 14.302 108.8 14.018C109.272 13.73 109.818 13.586 110.438 13.586C110.878 13.586 111.31 13.652 111.734 13.784V11.234L110.846 10.892V10.724L112.808 10.142H112.946V19.046L113.768 19.232V19.376L111.914 20.126H111.818V19.136L111.764 19.118C111.516 19.45 111.222 19.702 110.882 19.874C110.546 20.042 110.182 20.126 109.79 20.126ZM110.318 19.334C110.614 19.334 110.888 19.272 111.14 19.148C111.396 19.024 111.594 18.856 111.734 18.644V15.308C111.734 14.88 111.622 14.552 111.398 14.324C111.178 14.096 110.86 13.982 110.444 13.982C109.908 13.982 109.474 14.236 109.142 14.744C108.814 15.252 108.65 15.926 108.65 16.766C108.65 17.558 108.798 18.184 109.094 18.644C109.39 19.104 109.798 19.334 110.318 19.334ZM117.83 20V19.712L118.85 19.472V11.384L117.83 11.15V10.862H121.568C122.2 10.862 122.758 10.968 123.242 11.18C123.726 11.388 124.104 11.694 124.376 12.098C124.648 12.498 124.784 12.99 124.784 13.574C124.784 14.39 124.48 15.014 123.872 15.446C123.264 15.878 122.434 16.094 121.382 16.094H120.2V19.472L121.568 19.712V20H117.83ZM120.2 15.614H120.986C121.466 15.614 121.848 15.56 122.132 15.452C122.42 15.34 122.65 15.186 122.822 14.99C123.002 14.786 123.126 14.554 123.194 14.294C123.266 14.03 123.302 13.752 123.302 13.46C123.302 12.968 123.214 12.558 123.038 12.23C122.862 11.902 122.614 11.668 122.294 11.528C122.05 11.408 121.682 11.348 121.19 11.348H120.2V15.614ZM125.452 20V19.736L126.364 19.55V11.21L125.464 10.892V10.706L127.462 10.142H127.588V19.55L128.488 19.736V20H125.452ZM130.754 20.126C130.326 20.126 129.978 19.992 129.71 19.724C129.446 19.456 129.314 19.108 129.314 18.68C129.314 18.328 129.422 18.024 129.638 17.768C129.854 17.512 130.202 17.288 130.682 17.096C131.166 16.9 131.804 16.722 132.596 16.562V15.44C132.596 14.932 132.526 14.576 132.386 14.372C132.25 14.168 132.014 14.066 131.678 14.066C131.346 14.066 131.082 14.146 130.886 14.306C130.69 14.466 130.592 14.682 130.592 14.954C130.592 15.03 130.596 15.106 130.604 15.182C130.616 15.254 130.622 15.324 130.622 15.392C130.622 15.596 130.56 15.764 130.436 15.896C130.316 16.028 130.162 16.094 129.974 16.094C129.802 16.094 129.662 16.038 129.554 15.926C129.45 15.814 129.398 15.668 129.398 15.488C129.398 15.228 129.51 14.962 129.734 14.69C129.962 14.414 130.262 14.178 130.634 13.982C131.13 13.718 131.668 13.586 132.248 13.586C132.596 13.586 132.89 13.64 133.13 13.748C133.374 13.856 133.55 14.01 133.658 14.21C133.722 14.346 133.764 14.518 133.784 14.726C133.808 14.934 133.82 15.282 133.82 15.77V18.452C133.82 18.84 133.85 19.104 133.91 19.244C133.974 19.384 134.092 19.454 134.264 19.454C134.46 19.454 134.65 19.342 134.834 19.118L135.05 19.322C134.854 19.606 134.654 19.812 134.45 19.94C134.25 20.064 134.016 20.126 133.748 20.126C133.424 20.126 133.172 20.038 132.992 19.862C132.812 19.686 132.692 19.418 132.632 19.058H132.596C132.368 19.386 132.092 19.646 131.768 19.838C131.444 20.03 131.106 20.126 130.754 20.126ZM131.354 19.364C131.602 19.364 131.834 19.3 132.05 19.172C132.266 19.04 132.448 18.858 132.596 18.626V16.934C132.06 17.038 131.638 17.152 131.33 17.276C131.026 17.4 130.81 17.552 130.682 17.732C130.558 17.908 130.496 18.13 130.496 18.398C130.496 18.706 130.568 18.944 130.712 19.112C130.86 19.28 131.074 19.364 131.354 19.364ZM137.58 20.126C137.136 20.126 136.798 20 136.566 19.748C136.334 19.496 136.218 19.134 136.218 18.662V14.15H135.438L135.402 13.934L137.202 12.146L137.436 12.17V13.706H139.152L139.05 14.15H137.436V18.542C137.436 19.198 137.672 19.526 138.144 19.526C138.304 19.526 138.462 19.484 138.618 19.4C138.778 19.316 138.914 19.2 139.026 19.052L139.236 19.238C139.052 19.51 138.812 19.726 138.516 19.886C138.224 20.046 137.912 20.126 137.58 20.126ZM139.734 20V19.754L140.646 19.562V13.874C140.646 13.442 140.65 13.086 140.658 12.806C140.67 12.522 140.688 12.288 140.712 12.104C140.74 11.916 140.778 11.752 140.826 11.612C140.934 11.316 141.108 11.058 141.348 10.838C141.588 10.618 141.868 10.448 142.188 10.328C142.512 10.204 142.848 10.142 143.196 10.142C143.648 10.142 144.028 10.24 144.336 10.436C144.644 10.628 144.798 10.876 144.798 11.18C144.798 11.356 144.742 11.502 144.63 11.618C144.518 11.73 144.37 11.786 144.186 11.786C143.99 11.786 143.848 11.722 143.76 11.594C143.672 11.462 143.61 11.316 143.574 11.156C143.526 10.944 143.46 10.79 143.376 10.694C143.296 10.598 143.162 10.55 142.974 10.55C142.794 10.55 142.626 10.594 142.47 10.682C142.318 10.766 142.196 10.912 142.104 11.12C142.028 11.3 141.97 11.544 141.93 11.852C141.89 12.156 141.87 12.556 141.87 13.052V19.562L143.154 19.754V20H139.734ZM139.578 14.114L139.728 13.706H143.412L143.268 14.114H139.578ZM147.147 20.126C146.531 20.126 145.985 19.984 145.509 19.7C145.033 19.412 144.659 19.022 144.387 18.53C144.119 18.034 143.985 17.476 143.985 16.856C143.985 16.232 144.119 15.674 144.387 15.182C144.659 14.69 145.033 14.302 145.509 14.018C145.985 13.73 146.531 13.586 147.147 13.586C147.763 13.586 148.307 13.73 148.779 14.018C149.255 14.302 149.629 14.69 149.901 15.182C150.173 15.674 150.309 16.232 150.309 16.856C150.309 17.476 150.173 18.034 149.901 18.53C149.629 19.022 149.255 19.412 148.779 19.7C148.307 19.984 147.763 20.126 147.147 20.126ZM147.135 19.574C147.427 19.574 147.685 19.51 147.909 19.382C148.133 19.25 148.321 19.064 148.473 18.824C148.629 18.58 148.747 18.292 148.827 17.96C148.907 17.624 148.947 17.252 148.947 16.844C148.947 16.44 148.907 16.072 148.827 15.74C148.751 15.408 148.637 15.122 148.485 14.882C148.333 14.642 148.145 14.458 147.921 14.33C147.697 14.198 147.439 14.132 147.147 14.132C146.855 14.132 146.597 14.198 146.373 14.33C146.149 14.458 145.961 14.642 145.809 14.882C145.657 15.122 145.541 15.41 145.461 15.746C145.385 16.078 145.347 16.448 145.347 16.856C145.347 17.264 145.385 17.634 145.461 17.966C145.541 18.298 145.657 18.584 145.809 18.824C145.961 19.064 146.147 19.25 146.367 19.382C146.591 19.51 146.847 19.574 147.135 19.574ZM151.2 20V19.736L152.1 19.55V14.66L151.224 14.33V14.156L153.144 13.58H153.276V14.876L153.324 14.936V19.55L154.56 19.736V20H151.2ZM153.234 15.428L153.21 14.936C153.506 14.5 153.8 14.164 154.092 13.928C154.388 13.692 154.664 13.574 154.92 13.574C155.14 13.574 155.326 13.65 155.478 13.802C155.63 13.95 155.706 14.13 155.706 14.342C155.706 14.538 155.64 14.704 155.508 14.84C155.376 14.972 155.212 15.038 155.016 15.038C154.816 15.038 154.66 14.964 154.548 14.816C154.468 14.724 154.4 14.662 154.344 14.63C154.288 14.594 154.224 14.576 154.152 14.576C154.036 14.576 153.89 14.654 153.714 14.81C153.542 14.962 153.382 15.168 153.234 15.428ZM156.245 20V19.736L157.139 19.55V14.672L156.257 14.342V14.168L158.153 13.586H158.309V14.624L158.369 14.684V19.55L159.251 19.736V20H156.245ZM160.037 20V19.736L160.925 19.562V15.896C160.925 15.328 160.835 14.92 160.655 14.672C160.479 14.42 160.195 14.294 159.803 14.294C159.499 14.294 159.209 14.37 158.933 14.522C158.661 14.67 158.423 14.884 158.219 15.164V14.66C158.555 14.32 158.925 14.056 159.329 13.868C159.737 13.68 160.137 13.586 160.529 13.586C161.077 13.586 161.483 13.73 161.747 14.018C162.011 14.302 162.143 14.746 162.143 15.35V19.562L163.031 19.736V20H160.037ZM163.817 20V19.736L164.699 19.562V15.86C164.699 15.292 164.613 14.89 164.441 14.654C164.273 14.414 163.987 14.294 163.583 14.294C163.259 14.294 162.963 14.37 162.695 14.522C162.431 14.67 162.199 14.884 161.999 15.164V14.66C162.307 14.304 162.669 14.036 163.085 13.856C163.501 13.676 163.921 13.586 164.345 13.586C164.881 13.586 165.273 13.732 165.521 14.024C165.769 14.316 165.901 14.776 165.917 15.404V19.562L166.805 19.736V20H163.817Z" fill="white"/>
<path d="M31 0H5C2.23858 0 0 2.23858 0 5V27C0 29.7614 2.23858 32 5 32H31V0Z" fill="#4285F4"/>
<path d="M15.1898 6.00251C13.1017 5.95411 11.0576 6.60673 9.3838 7.85617C7.71003 9.10561 6.50314 10.8798 5.95582 12.8955C5.90082 12.9085 6.00882 12.8755 5.95582 12.8955C2.08082 15.4465 2.03382 21.0055 5.70882 23.8365L5.71482 23.8295L5.70782 23.8595C6.88171 24.7457 8.31401 25.2221 9.78482 25.2155H14.9578L14.9878 25.2455H20.1798C26.8668 25.2985 29.5558 16.6405 24.0148 12.8955C23.5376 11.1359 22.5572 9.55391 21.1938 8.34351L21.1508 8.38651L21.1568 8.33651C19.5051 6.87958 17.3917 6.05295 15.1898 6.00251ZM14.8318 10.1485C16.0758 10.1085 17.3498 10.5165 18.3178 11.2985C18.9135 11.7957 19.39 12.4201 19.7122 13.1259C20.0345 13.8317 20.1943 14.6008 20.1798 15.3765V15.8945C23.7098 15.8245 23.7098 21.1565 20.1798 21.0875H14.9868L14.9788 21.0965V21.0565H9.78482C9.41686 21.0565 9.05311 20.9781 8.71782 20.8265C8.33527 20.6533 8.00143 20.3899 7.743 20.0589C7.48458 19.7279 7.31029 19.3391 7.23506 18.926C7.15983 18.5128 7.18592 18.0876 7.31108 17.6867C7.43624 17.2859 7.65675 16.9213 7.95369 16.6244C8.25064 16.3274 8.61517 16.1069 9.01602 15.9818C9.41688 15.8566 9.84212 15.8305 10.2553 15.9057C10.6684 15.981 11.0572 16.1553 11.3882 16.4137C11.7192 16.6721 11.9826 17.007 12.1558 17.3895L15.1688 14.3775C14.1676 13.0724 12.7242 12.178 11.1098 11.8625C11.1278 11.8525 11.1498 11.8365 11.1638 11.8395C11.6313 11.3266 12.1971 10.9127 12.8275 10.6224C13.4579 10.3321 14.1401 10.1713 14.8338 10.1495L14.8318 10.1485Z" fill="white"/>
</svg>
